<svg width="500" height="500" viewBox="0 0 500 500" fill="none" xmlns="http://www.w3.org/2000/svg">
<path d="M102.2 451.87C183.85 496.87 316.2 496.87 397.86 451.87C479.52 406.87 479.5 334.01 397.86 289.05C316.22 244.09 183.86 244.05 102.2 289.05C20.5404 334.05 20.5604 406.91 102.2 451.87Z" fill="#D0D0D0"/>
<path d="M85.5393 420.16L91.6593 423.69C92.5977 424.168 93.636 424.418 94.6893 424.418C95.7426 424.418 96.7809 424.168 97.7193 423.69L278.509 319.31C280.189 318.31 280.189 316.78 278.509 315.81L272.389 312.27C271.449 311.797 270.412 311.551 269.359 311.551C268.307 311.551 267.269 311.797 266.329 312.27L85.5393 416.66C83.8593 417.62 83.8593 419.19 85.5393 420.16Z" fill="#C2C2C2"/>
<path d="M351.07 390.49C368.76 399.73 397.44 399.74 415.13 390.49C432.82 381.24 432.81 366.27 415.13 357.03C397.45 347.79 368.76 347.79 351.07 357.03C333.38 366.27 333.38 381.25 351.07 390.49Z" fill="#C2C2C2"/>
<path d="M329.349 371.84C334.669 374.62 343.299 374.62 348.619 371.84C353.939 369.06 353.939 364.56 348.619 361.78C343.299 359 334.669 359 329.349 361.78C324.029 364.56 323.999 369.06 329.349 371.84Z" fill="#C2C2C2"/>
<path d="M92.9995 373.13C93.2395 364.25 90.7695 349.36 81.9995 334.5C72.6395 318.59 60.2795 307.94 49.8995 311.18C40.2195 314.18 42.3495 327.32 56.8995 341.62C67.1095 351.62 77.4395 364.38 82.1595 378.92L90.3395 397.66L92.9995 373.13Z" fill="#15CDF2"/>
<path d="M92.9995 373.13C93.2395 364.25 90.7695 349.36 81.9995 334.5C72.6395 318.59 60.2795 307.94 49.8995 311.18C40.2195 314.18 42.3495 327.32 56.8995 341.62C67.1095 351.62 77.4395 364.38 82.1595 378.92L90.3395 397.66L92.9995 373.13Z" fill="#5F5F5F"/>
<path d="M91.4108 379.75C91.283 379.734 91.163 379.679 91.0666 379.593C90.9703 379.508 90.902 379.395 90.8708 379.27C84.6408 353.91 68.8708 327.27 54.1408 317.2C54.0036 317.107 53.9088 316.963 53.8769 316.8C53.8451 316.637 53.8788 316.468 53.9708 316.33C54.066 316.192 54.2116 316.097 54.3761 316.065C54.5407 316.033 54.7111 316.067 54.8508 316.16C69.7908 326.34 85.8008 353.34 92.0908 379C92.1301 379.162 92.1038 379.332 92.0176 379.475C91.9314 379.617 91.7924 379.72 91.6308 379.76C91.5574 379.767 91.4834 379.763 91.4108 379.75Z" fill="#E6E6E6"/>
<path d="M93.1204 401.89C88.2161 406.235 82.2578 409.218 75.8404 410.54C64.7804 412.97 59.5304 407.92 59.5304 407.92C59.5304 407.92 63.3004 397.18 69.4704 393.87C69.4704 393.87 58.8504 396.7 50.5604 402.97C50.5604 402.97 43.7404 403.48 40.4104 393.24C40.4104 393.24 44.0704 386.73 57.4104 382.54C57.4104 382.54 49.0404 380.95 37.3304 384.69C36.4604 385.1 31.8604 371.87 30.3304 365.69C28.8004 359.51 31.3304 359.46 36.0704 357.88C40.8104 356.3 57.2704 354.5 60.4604 356.98C63.6504 359.46 65.7304 368.48 65.7304 368.48C65.7304 368.48 68.3304 363.15 67.3604 358.6C70.6797 357.432 74.276 357.303 77.6704 358.23C83.2204 359.8 83.0404 362.47 83.2704 366.43C83.5299 370.414 83.2201 374.414 82.3504 378.31C82.3504 378.31 85.9104 374.84 85.3504 362.85C85.3504 362.85 93.0704 368.7 96.3504 373.93C99.6304 379.16 99.7304 393.39 93.1204 401.89Z" fill="#6F7A84"/>
<path d="M93.1614 402.51C93.0425 402.52 92.9233 402.495 92.8184 402.438C92.7136 402.382 92.6277 402.295 92.5714 402.19C82.4414 384 47.6314 364.24 35.4814 362.62C35.3993 362.609 35.3202 362.582 35.2485 362.54C35.1769 362.498 35.1143 362.443 35.0641 362.377C35.0139 362.311 34.9773 362.236 34.9562 362.156C34.9352 362.076 34.9301 361.992 34.9414 361.91C34.9662 361.745 35.0542 361.597 35.1868 361.496C35.3194 361.395 35.4861 361.35 35.6514 361.37C48.0014 363 83.3814 383.1 93.6714 401.58C93.7117 401.652 93.7372 401.731 93.7464 401.813C93.7556 401.895 93.7484 401.978 93.7251 402.058C93.7018 402.137 93.6629 402.21 93.6108 402.274C93.5586 402.338 93.4942 402.391 93.4214 402.43C93.3438 402.48 93.2538 402.508 93.1614 402.51Z" fill="#E6E6E6"/>
<path d="M401 345.81C401 345.81 402.39 333.62 408.45 324.17C414.51 314.72 422.84 308.81 430.61 308.17C438.38 307.53 444.61 314.7 436.34 319.61C428.07 324.52 413.25 329.53 406.46 347.89L401 345.81Z" fill="#15CDF2"/>
<path opacity="0.1" d="M401 345.81C401 345.81 402.39 333.62 408.45 324.17C414.51 314.72 422.84 308.81 430.61 308.17C438.38 307.53 444.61 314.7 436.34 319.61C428.07 324.52 413.25 329.53 406.46 347.89L401 345.81Z" fill="#5A5A5A"/>
<path d="M403.29 342.64H403.21C403.108 342.598 403.028 342.518 402.985 342.417C402.942 342.316 402.94 342.202 402.98 342.1C411.18 321.91 426.79 313.47 433.9 311.84C433.953 311.827 434.008 311.824 434.063 311.833C434.117 311.841 434.169 311.86 434.215 311.889C434.262 311.918 434.302 311.956 434.334 312.001C434.366 312.046 434.388 312.096 434.4 312.15C434.424 312.259 434.403 312.372 434.343 312.466C434.283 312.56 434.188 312.626 434.08 312.65C427.08 314.25 411.82 322.53 403.75 342.41C403.711 342.495 403.644 342.564 403.56 342.606C403.477 342.648 403.381 342.66 403.29 342.64Z" fill="#E6E6E6"/>
<path d="M444.8 342.88C444.09 344.47 442.36 345.29 440.75 345.94C439.14 346.59 437.39 347.29 436.52 348.79C434.77 351.79 437.65 356.08 435.76 359.02C435.321 359.611 434.767 360.106 434.131 360.476C433.495 360.845 432.79 361.082 432.06 361.17C430.853 361.345 429.638 361.455 428.42 361.5C427.841 361.489 427.263 361.443 426.69 361.36C425.009 360.986 423.252 361.176 421.69 361.9C419.28 363.25 418.54 366.29 417.08 368.63C416.176 370.014 414.983 371.186 413.583 372.064C412.183 372.943 410.609 373.508 408.97 373.72C407.89 373.86 405.87 374.06 404.77 373.44L404.54 373.3C404.391 373.137 404.251 372.967 404.12 372.79C404.115 372.767 404.115 372.743 404.12 372.72C403.69 371.15 404.39 369.52 404.42 367.89C404.425 367.793 404.425 367.697 404.42 367.6C404.36 365.71 404.3 363.84 404.26 361.96C404.17 358.5 404.13 355.03 404.16 351.56C404.16 349.31 403.91 346.85 404.86 344.73C405.92 342.4 408.54 342.35 409.53 340.06C409.92 339.15 410.14 338.17 410.53 337.25C411.12 335.896 412.073 334.732 413.284 333.887C414.494 333.041 415.916 332.547 417.39 332.46C421.97 332.22 426.08 335.93 430.65 335.59C431.828 335.431 432.996 335.208 434.15 334.92C437.86 334.23 442.15 335.29 444.23 338.42C444.679 339.061 444.966 339.803 445.065 340.58C445.165 341.357 445.074 342.146 444.8 342.88Z" fill="#15CDF2"/>
<path d="M403.669 365.49C403.57 365.462 403.485 365.396 403.435 365.306C403.384 365.216 403.371 365.109 403.399 365.01C409.719 341.28 434.719 337.85 440.569 338.27C440.671 338.282 440.764 338.332 440.831 338.41C440.897 338.488 440.932 338.588 440.929 338.69C440.925 338.741 440.911 338.791 440.888 338.837C440.865 338.883 440.833 338.924 440.794 338.957C440.755 338.991 440.71 339.016 440.661 339.032C440.612 339.048 440.56 339.054 440.509 339.05C434.789 338.64 410.339 342 404.149 365.21C404.138 365.261 404.116 365.309 404.085 365.351C404.054 365.393 404.015 365.428 403.97 365.454C403.925 365.481 403.875 365.497 403.823 365.503C403.771 365.51 403.719 365.505 403.669 365.49Z" fill="#E6E6E6"/>
<path d="M431.451 353.47C431.37 353.458 431.296 353.419 431.241 353.36C428.933 351.362 426.213 349.897 423.275 349.069C420.337 348.241 417.252 348.071 414.241 348.57C414.139 348.584 414.035 348.558 413.953 348.496C413.87 348.434 413.816 348.342 413.801 348.24C413.786 348.138 413.813 348.034 413.875 347.952C413.937 347.869 414.029 347.815 414.131 347.8C417.264 347.28 420.474 347.458 423.53 348.322C426.586 349.187 429.414 350.716 431.811 352.8C431.848 352.835 431.877 352.878 431.898 352.925C431.918 352.973 431.928 353.024 431.928 353.075C431.928 353.126 431.918 353.177 431.898 353.225C431.877 353.272 431.848 353.315 431.811 353.35C431.767 353.401 431.711 353.439 431.647 353.46C431.584 353.481 431.516 353.484 431.451 353.47Z" fill="#E6E6E6"/>
<path d="M95.7901 420.37L92.0001 418.18C91.3686 417.77 90.8429 417.217 90.4658 416.565C90.0887 415.913 89.8709 415.182 89.8301 414.43V133.32C89.8709 132.568 90.0887 131.837 90.4658 131.185C90.8429 130.533 91.3686 129.98 92.0001 129.57L266.39 28.88C267.061 28.54 267.803 28.3628 268.555 28.3628C269.307 28.3628 270.049 28.54 270.72 28.88L274.52 31.07C275.149 31.4823 275.672 32.0364 276.047 32.6877C276.422 33.3391 276.639 34.0694 276.68 34.82V315.93C276.639 316.681 276.422 317.411 276.047 318.062C275.672 318.714 275.149 319.268 274.52 319.68L100.12 420.37C99.449 420.71 98.7073 420.887 97.9551 420.887C97.2028 420.887 96.4611 420.71 95.7901 420.37Z" fill="#15CDF2"/>
<path opacity="0.4" d="M276.661 34.47C276.511 33.35 275.601 32.94 274.521 33.57L100.121 134.26C99.4817 134.657 98.9549 135.211 98.5909 135.87L90.4609 131.18C90.8305 130.522 91.3602 129.968 92.0009 129.57L266.391 28.88C267.062 28.54 267.804 28.3628 268.556 28.3628C269.308 28.3628 270.05 28.54 270.721 28.88L274.521 31.07C275.1 31.4509 275.59 31.9515 275.96 32.538C276.329 33.1245 276.568 33.7833 276.661 34.47Z" fill="#E6E6E6"/>
<path opacity="0.15" d="M99.7398 420.55C99.7003 420.575 99.6561 420.592 99.6098 420.6L99.3898 420.68H99.2999L98.8998 420.78H98.8498C97.9866 420.944 97.0953 420.871 96.2698 420.57C96.1045 420.509 95.9441 420.435 95.7898 420.35L91.9998 418.19C91.3719 417.777 90.8494 417.223 90.4743 416.572C90.0992 415.92 89.8819 415.19 89.8398 414.44V133.32C89.8656 132.565 90.0824 131.829 90.4698 131.18L98.5998 135.87C98.2204 136.517 98.0138 137.25 97.9998 138V419.13C97.9778 419.536 98.0941 419.938 98.3298 420.27C98.4677 420.436 98.6502 420.559 98.8558 420.625C99.0613 420.69 99.2813 420.696 99.4898 420.64L99.7398 420.55Z" fill="#5A5A5A"/>
<path d="M222.209 80.64L221.889 80.45L218.289 78.38C216.981 77.6542 215.562 77.1507 214.089 76.89C213.469 76.75 212.909 76.59 212.419 76.43C211.875 76.2486 211.344 76.0315 210.829 75.78L211.099 75.45L206.999 73.09C206.664 72.8973 206.304 72.7526 205.929 72.66C204.399 72.29 202.109 73.18 199.819 72.92C198.99 72.8345 198.189 72.5692 197.472 72.1427C196.755 71.7161 196.14 71.1385 195.669 70.45C194.279 68.58 193.439 65.3 192.209 62.59L193.309 61L192.969 60.81L189.239 58.65C188.609 58.2794 187.89 58.086 187.159 58.09C185.768 58.1655 184.42 58.6033 183.249 59.36C174.319 64.52 174.019 76.77 170.799 84.82C167.579 92.87 163.029 95.4 160.549 98.82C158.069 102.24 157.899 104.82 152.409 112.42C146.919 120.02 146.699 121.84 146.699 123.27V134.55L150.759 136.89L223.849 94.68L222.209 80.64ZM155.209 124.11C154.259 124.65 153.479 123.92 153.479 122.45C153.469 121.748 153.619 121.053 153.919 120.419C154.219 119.784 154.66 119.227 155.209 118.79C156.159 118.24 156.929 118.99 156.929 120.46C156.939 121.161 156.788 121.855 156.486 122.488C156.184 123.121 155.74 123.676 155.189 124.11H155.209ZM187.299 92.46C184.899 93.85 182.799 93.06 181.669 90.74C178.839 91.29 176.729 88.55 176.729 83.85C176.729 78.31 179.649 72.14 183.249 70.06C183.71 69.7232 184.242 69.4984 184.805 69.4034C185.367 69.3084 185.944 69.3459 186.49 69.5129C187.035 69.6798 187.534 69.9717 187.948 70.3652C188.361 70.7587 188.676 71.2432 188.869 71.78C191.709 71.22 193.809 73.95 193.809 78.67C193.809 84.21 190.899 90.38 187.299 92.46ZM211.569 91.55C210.619 92.1 209.849 91.36 209.849 89.9C209.836 89.2003 209.984 88.507 210.283 87.8739C210.581 87.2408 211.021 86.6851 211.569 86.25C212.569 85.7 213.299 86.44 213.299 87.91C213.312 88.6092 213.163 89.3018 212.862 89.9335C212.562 90.5651 212.12 91.1184 211.569 91.55Z" fill="#6F7A84"/>
<path opacity="0.5" d="M154.821 126.12L147.001 121.59C146.82 122.155 146.732 122.746 146.741 123.34V134.62L150.801 136.96L154.861 134.61L154.821 126.12Z" fill="#5F5F5F"/>
<path opacity="0.5" d="M162.941 112.05L167.001 102.67L160.551 98.88C158.651 101.5 158.101 103.61 155.551 107.78L162.941 112.05Z" fill="#5F5F5F"/>
<path opacity="0.5" d="M179.19 93.29L179.72 90.56C177.92 89.8 176.72 87.38 176.72 83.85C176.72 79.14 178.83 73.99 181.72 71.27L176.05 68C173.65 73.47 172.76 79.92 170.8 84.82C170.413 85.7918 169.975 86.743 169.49 87.67L179.19 93.29Z" fill="#5F5F5F"/>
<path d="M222.21 80.64L221.89 80.45C220.695 79.8902 219.436 79.4805 218.14 79.23C216.012 78.842 214.032 77.873 212.42 76.43C212.014 76.0537 211.572 75.7187 211.1 75.43C210.758 75.2306 210.387 75.0856 210 75C207.54 74.41 203.06 77.09 199.84 72.92L199.74 72.79C197.49 69.79 196.67 63 193.3 61.01L192.96 60.82C191.57 60.17 189.76 60.29 187.29 61.71C178.36 66.87 178.06 79.12 174.84 87.17C171.62 95.22 167.07 97.75 164.59 101.17C162.11 104.59 161.95 107.17 156.45 114.77C150.95 122.37 150.75 124.19 150.75 125.62V137L223.84 94.79V83.48C223.893 82.8965 223.765 82.3107 223.474 81.8025C223.182 81.2943 222.741 80.8884 222.21 80.64ZM159.21 126.45C158.21 127 157.49 126.26 157.49 124.79C157.477 124.089 157.626 123.394 157.924 122.76C158.222 122.125 158.662 121.568 159.21 121.13C160.21 120.58 160.93 121.33 160.93 122.8C160.948 123.497 160.805 124.19 160.512 124.823C160.219 125.456 159.784 126.013 159.24 126.45H159.21ZM187.27 92.45C184.87 93.84 182.77 93.05 181.64 90.73C181.005 89.2996 180.701 87.7443 180.75 86.18C180.75 80.64 183.67 74.47 187.27 72.39C187.757 72.1005 188.287 71.8911 188.84 71.77C191.68 71.21 193.78 73.94 193.78 78.66C193.81 84.21 190.9 90.38 187.3 92.46L187.27 92.45ZM215.6 93.88C214.6 94.43 213.87 93.69 213.87 92.23C213.856 91.5291 214.004 90.8345 214.305 90.201C214.605 89.5675 215.048 89.0126 215.6 88.58C216.6 88.03 217.32 88.77 217.32 90.24C217.338 90.9373 217.194 91.6294 216.901 92.2624C216.608 92.8954 216.173 93.4523 215.63 93.89L215.6 93.88Z" fill="#5F5F5F"/>
<path d="M193.81 78.67C193.81 84.21 190.9 90.38 187.3 92.46C184.9 93.85 182.8 93.06 181.67 90.74C182.228 90.6236 182.762 90.414 183.25 90.12C186.85 88.04 189.76 81.87 189.76 76.33C189.809 74.7657 189.505 73.2104 188.87 71.78C191.71 71.22 193.81 74 193.81 78.67Z" fill="#4A4A4A"/>
<path d="M159.24 126.44C158.24 126.99 157.51 126.25 157.51 124.79C157.498 124.088 157.648 123.393 157.948 122.758C158.248 122.123 158.69 121.566 159.24 121.13C160.19 120.58 160.96 121.33 160.96 122.8C160.973 123.498 160.824 124.19 160.526 124.821C160.228 125.452 159.788 126.006 159.24 126.44Z" fill="#4A4A4A"/>
<path d="M215.619 93.89C214.619 94.44 213.899 93.7 213.899 92.24C213.886 91.5388 214.034 90.844 214.332 90.2094C214.631 89.5747 215.071 89.0172 215.619 88.58C216.619 88.03 217.349 88.78 217.349 90.25C217.362 90.9492 217.213 91.6418 216.912 92.2735C216.612 92.9051 216.17 93.4584 215.619 93.89Z" fill="#4A4A4A"/>
<path d="M111.431 160.55L263.191 72.93C263.594 72.7276 264.039 72.6223 264.491 72.6223C264.942 72.6223 265.387 72.7276 265.791 72.93L267.261 73.78C267.639 74.0269 267.953 74.3592 268.179 74.75C268.405 75.1409 268.536 75.5793 268.561 76.03V307.55C268.536 308.001 268.405 308.439 268.179 308.83C267.953 309.221 267.639 309.553 267.261 309.8L115.501 397.42C115.097 397.622 114.652 397.728 114.201 397.728C113.749 397.728 113.304 397.622 112.901 397.42L111.431 396.57C111.053 396.323 110.738 395.991 110.513 395.6C110.287 395.209 110.156 394.771 110.131 394.32V162.8C110.158 162.35 110.289 161.912 110.515 161.521C110.74 161.131 111.054 160.798 111.431 160.55Z" fill="#D0D0D0"/>
<path d="M268.51 75.64C268.35 75.11 267.85 74.94 267.26 75.28L115.5 162.9C115.11 163.146 114.793 163.491 114.58 163.9L110.52 161.56C110.73 161.149 111.048 160.804 111.44 160.56L263.2 72.94C263.6 72.7331 264.044 72.6251 264.495 72.6251C264.945 72.6251 265.389 72.7331 265.79 72.94L267.26 73.78C267.582 73.9908 267.858 74.264 268.073 74.5834C268.288 74.9029 268.436 75.2622 268.51 75.64Z" fill="#DADADA"/>
<path d="M115.191 397.56C115.036 397.62 114.875 397.663 114.711 397.69H114.461C114.198 397.72 113.933 397.72 113.671 397.69C113.507 397.663 113.346 397.62 113.191 397.56L112.901 397.42L111.441 396.58C111.062 396.334 110.747 396.002 110.521 395.611C110.296 395.22 110.165 394.781 110.141 394.33V162.81C110.152 162.357 110.283 161.916 110.521 161.53L114.581 163.87C114.35 164.259 114.219 164.698 114.201 165.15V396.67C114.201 397.38 114.621 397.73 115.191 397.56Z" fill="#C2C2C2"/>
<path d="M234.37 105.73L230.37 103.39C229.734 103.081 229.033 102.931 228.326 102.952C227.619 102.973 226.927 103.164 226.31 103.51C221.59 105.59 219.55 106.51 217.11 107.51L215.35 108.22C214.4 108.6 212.49 108.28 213.08 104.95L219.35 88.06H219.26L215.26 85.76C215.058 85.6402 214.834 85.562 214.6 85.53C214.454 85.5187 214.307 85.5187 214.16 85.53C211.59 85.47 210.86 68.91 210.84 68.4L210.66 68.3L206.72 66C206.038 65.6133 205.265 65.4165 204.48 65.43C203.179 65.464 201.904 65.8067 200.76 66.43C194.59 69.67 188.36 79.27 186.84 87.89C185.84 93.33 180.41 101.7 177.25 104.78C174.09 107.86 173.87 110.44 173.87 110.44L171.41 124.38L170.62 128.84C170.04 132.17 166.62 135.39 166.62 135.39L153.9 145C145.9 151.62 143.68 158.3 142.15 166.57V166.63C142.15 166.92 142.15 167.12 142.29 167.2C142.312 167.212 142.336 167.219 142.36 167.219C142.385 167.219 142.409 167.212 142.43 167.2L144.06 166.27L231.64 115.76C232.057 115.474 232.345 115.036 232.44 114.54C232.94 111.54 234.44 105.87 234.44 105.87L234.37 105.73ZM209.05 80.14C208.11 85.44 204.29 91.35 200.49 93.34C197.87 94.71 195.96 93.86 195.32 91.45C194.85 91.6353 194.34 91.6986 193.838 91.6339C193.336 91.5692 192.859 91.3787 192.45 91.08C191.23 90.08 202.39 70.97 203.3 71.39C203.74 71.6167 204.121 71.9409 204.416 72.3379C204.711 72.7348 204.911 73.1939 205 73.68C208.11 72.73 209.89 75.38 209.05 80.14Z" fill="#6F7A84"/>
<path opacity="0.5" d="M154.82 154.27L148.44 150.58C144.73 155.45 143.25 160.58 142.15 166.53V166.59C142.15 166.88 142.15 167.08 142.29 167.16C142.312 167.172 142.336 167.179 142.36 167.179C142.385 167.179 142.409 167.172 142.43 167.16L147.43 163.16L154.82 154.27Z" fill="#5F5F5F"/>
<path opacity="0.5" d="M170.199 130.31L179.199 135.5L183.259 112.05L175.149 107.37C174.504 108.298 174.071 109.356 173.879 110.47L171.419 124.41L170.629 128.87C170.529 129.362 170.385 129.844 170.199 130.31Z" fill="#5F5F5F"/>
<path opacity="0.5" d="M191.1 76.72C189.044 80.1791 187.602 83.9685 186.84 87.92C186.2 90.7351 185.128 93.4339 183.66 95.92L191.38 100.38L195.21 91.52C194.753 91.6832 194.263 91.7329 193.782 91.665C193.301 91.5971 192.844 91.4135 192.45 91.13C191.82 90.63 194.45 85.33 197.31 80.35L191.1 76.72Z" fill="#5F5F5F"/>
<path d="M234.431 105.76H234.371C233.741 105.465 233.051 105.323 232.355 105.345C231.66 105.368 230.98 105.554 230.371 105.89C224.581 108.44 222.831 109.28 219.371 110.64C218.451 111.01 216.601 110.71 217.081 107.58C217.076 107.51 217.076 107.44 217.081 107.37L217.871 102.91L220.061 90.76C220.061 90.76 220.561 88.85 219.291 88.13H219.201C218.888 87.9844 218.546 87.9093 218.201 87.91C217.463 87.8222 216.754 87.5689 216.127 87.1689C215.5 86.7689 214.972 86.2326 214.581 85.6C213.896 84.5841 213.423 83.4409 213.189 82.2383C212.956 81.0357 212.966 79.7983 213.221 78.6C214.141 73.39 213.131 69.74 210.821 68.38L210.641 68.27C209.151 67.48 207.151 67.61 204.811 68.84C198.641 72.08 192.411 81.68 190.891 90.3C189.891 95.74 184.461 104.11 181.301 107.19C178.141 110.27 177.921 112.85 177.921 112.85L175.461 126.79L174.671 131.25C174.091 134.58 170.671 137.8 170.671 137.8L158.001 147.31C152.922 151.353 149.256 156.902 147.531 163.16C147.531 163.16 142.761 166.86 142.461 167.16L144.091 166.23L231.921 115.74C231.921 115.74 232.921 115.19 233.151 115.05C233.381 114.91 236.911 111.57 236.911 111.57C236.741 108.69 235.901 106.64 234.431 105.76ZM209.051 80.14C208.111 85.44 204.291 91.35 200.491 93.34C197.871 94.71 195.961 93.86 195.321 91.45C195.036 90.0948 195.036 88.6952 195.321 87.34C196.261 82.04 200.091 76.13 203.891 74.15C204.243 73.9609 204.611 73.8036 204.991 73.68C208.111 72.73 209.891 75.38 209.051 80.14Z" fill="#5F5F5F"/>
<path d="M209.05 80.14C208.11 85.44 204.29 91.35 200.49 93.34C197.87 94.71 195.96 93.86 195.32 91.45C195.703 91.3283 196.074 91.1745 196.43 90.99C200.23 88.99 204.06 83.09 204.99 77.79C205.279 76.4352 205.279 75.0348 204.99 73.68C208.11 72.73 209.89 75.38 209.05 80.14Z" fill="#4A4A4A"/>
<path d="M205.38 73.9C205.737 73.8774 206.095 73.9475 206.417 74.1034C206.739 74.2593 207.016 74.4958 207.22 74.79C208.79 77.03 207.28 82.73 206.63 84.55C205.72 87.09 199.83 93.04 198.21 93.04C197.675 92.9519 197.163 92.7557 196.705 92.4635C196.248 92.1712 195.855 91.789 195.55 91.34C195.283 90.02 195.283 88.6599 195.55 87.34C196.48 82.11 200.27 76.27 203.99 74.34C204.309 74.1598 204.644 74.0091 204.99 73.89H205.34M205.34 73.64H204.94C204.56 73.7636 204.192 73.9209 203.84 74.11C200.04 76.11 196.21 82 195.27 87.3C194.985 88.6552 194.985 90.0548 195.27 91.41C195.597 91.8993 196.021 92.3155 196.517 92.6322C197.013 92.949 197.569 93.1593 198.15 93.25C199.91 93.25 205.83 87.25 206.78 84.6C207.73 81.95 209.78 73.6 205.3 73.6L205.34 73.64Z" fill="#4A4A4A"/>
<path d="M142.429 167.17L231.889 115.74L233.129 115.05C233.349 114.92 236.889 111.56 236.889 111.56L147.489 163.16C147.489 163.16 142.069 167.35 142.429 167.17Z" fill="#4A4A4A"/>
<path d="M126.561 190.56L150.761 176.38V204.53L126.561 218.7V190.56Z" fill="#DADADA"/>
<path d="M127.561 191.13V217L149.761 204V178.13L127.561 191.13ZM126.561 219.7C126.386 219.699 126.214 219.654 126.061 219.57C125.908 219.482 125.781 219.355 125.694 219.202C125.606 219.049 125.56 218.876 125.561 218.7V190.56C125.559 190.385 125.603 190.212 125.689 190.059C125.775 189.907 125.9 189.779 126.051 189.69L150.251 175.52C150.403 175.432 150.575 175.386 150.751 175.386C150.926 175.386 151.099 175.432 151.251 175.52C151.402 175.607 151.527 175.733 151.615 175.883C151.703 176.034 151.75 176.205 151.751 176.38V204.53C151.75 204.704 151.703 204.876 151.615 205.027C151.527 205.177 151.402 205.303 151.251 205.39L127.051 219.56C126.902 219.648 126.733 219.696 126.561 219.7Z" fill="#6F7A84"/>
<path d="M162.939 170.34V172.34C162.939 173.45 163.719 173.9 164.669 173.34L250.569 123.76C251.074 123.431 251.494 122.988 251.796 122.467C252.099 121.946 252.274 121.361 252.309 120.76V118.71C252.309 117.61 251.529 117.16 250.569 117.71L164.669 167.31C164.162 167.642 163.74 168.09 163.439 168.617C163.139 169.143 162.967 169.734 162.939 170.34Z" fill="#C2C2C2"/>
<path d="M162.939 182.63V184.63C162.939 185.73 163.719 186.18 164.669 185.63L250.569 136.04C251.075 135.712 251.496 135.269 251.798 134.748C252.101 134.227 252.276 133.642 252.309 133.04V131.04C252.309 129.93 251.529 129.48 250.569 130.04L164.669 179.63C164.166 179.959 163.747 180.402 163.446 180.923C163.145 181.445 162.972 182.029 162.939 182.63Z" fill="#C2C2C2"/>
<path d="M162.939 194.85V196.85C162.939 197.95 163.719 198.4 164.669 197.85L250.569 148.26C251.076 147.933 251.497 147.49 251.8 146.969C252.102 146.447 252.277 145.862 252.309 145.26V143.26C252.309 142.16 251.529 141.71 250.569 142.26L164.669 191.85C164.167 192.181 163.749 192.624 163.449 193.145C163.149 193.666 162.974 194.25 162.939 194.85Z" fill="#C2C2C2"/>
<path d="M139.06 204.94L133.43 199.53L135.86 194.39L139.06 197.48L152.39 169.26L154.82 171.59L139.06 204.94Z" fill="#15CDF2"/>
<path d="M126.561 242.15L150.761 227.98V256.12L126.561 270.29V242.15Z" fill="#DADADA"/>
<path d="M127.561 242.72V268.55L149.761 255.55V229.72L127.561 242.72ZM126.561 271.29C126.385 271.291 126.213 271.246 126.061 271.16C125.908 271.072 125.781 270.945 125.694 270.792C125.606 270.639 125.56 270.466 125.561 270.29V242.15C125.561 241.976 125.606 241.806 125.692 241.655C125.778 241.504 125.901 241.378 126.051 241.29L150.251 227.12C150.402 227.03 150.575 226.982 150.752 226.98C150.928 226.979 151.102 227.024 151.255 227.111C151.409 227.199 151.536 227.325 151.625 227.478C151.714 227.63 151.761 227.803 151.761 227.98V256.12C151.761 256.296 151.715 256.469 151.628 256.622C151.54 256.775 151.413 256.902 151.261 256.99L127.061 271.16C126.908 271.246 126.736 271.291 126.561 271.29Z" fill="#6F7A84"/>
<path d="M162.939 221.93V223.93C162.939 225.03 163.719 225.48 164.669 224.93L250.569 175.34C251.076 175.013 251.497 174.57 251.8 174.049C252.102 173.527 252.277 172.942 252.309 172.34V170.34C252.309 169.23 251.529 168.79 250.569 169.34L164.669 218.93C164.167 219.261 163.749 219.704 163.449 220.225C163.149 220.746 162.974 221.33 162.939 221.93Z" fill="#C2C2C2"/>
<path d="M162.939 234.23V236.23C162.939 237.34 163.719 237.78 164.669 237.23L250.569 187.64C251.076 187.313 251.497 186.87 251.8 186.349C252.102 185.827 252.277 185.242 252.309 184.64V182.64C252.309 181.54 251.529 181.09 250.569 181.64L164.669 231.24C164.167 231.568 163.749 232.01 163.448 232.529C163.148 233.048 162.973 233.631 162.939 234.23Z" fill="#C2C2C2"/>
<path d="M162.939 246.45V248.45C162.939 249.55 163.719 250 164.669 249.45L250.569 199.86C251.075 199.532 251.496 199.089 251.798 198.568C252.101 198.047 252.276 197.462 252.309 196.86V194.86C252.309 193.75 251.529 193.3 250.569 193.86L164.669 243.45C164.167 243.78 163.749 244.224 163.448 244.744C163.148 245.265 162.973 245.85 162.939 246.45Z" fill="#C2C2C2"/>
<path d="M139.06 256.54L133.43 251.12L135.86 245.99L139.06 249.07L152.39 220.85L154.82 223.19L139.06 256.54Z" fill="#15CDF2"/>
<path d="M126.561 293.75L150.761 279.57V307.72L126.561 321.89V293.75Z" fill="#DADADA"/>
<path d="M127.561 294.32V320.15L149.761 307.15V281.32L127.561 294.32ZM126.561 322.89C126.385 322.891 126.213 322.846 126.061 322.76C125.908 322.672 125.781 322.545 125.694 322.392C125.606 322.239 125.56 322.066 125.561 321.89V293.75C125.559 293.575 125.603 293.402 125.689 293.249C125.775 293.097 125.9 292.969 126.051 292.88L150.251 278.71C150.403 278.62 150.577 278.571 150.754 278.57C150.932 278.569 151.106 278.615 151.26 278.704C151.414 278.792 151.541 278.92 151.629 279.074C151.717 279.228 151.762 279.403 151.761 279.58V307.72C151.76 307.894 151.713 308.066 151.625 308.217C151.537 308.367 151.412 308.493 151.261 308.58L127.061 322.75C126.909 322.84 126.737 322.888 126.561 322.89Z" fill="#6F7A84"/>
<path d="M162.939 273.53V275.53C162.939 276.63 163.719 277.08 164.669 276.53L250.569 227C251.075 226.672 251.496 226.23 251.798 225.708C252.101 225.187 252.276 224.602 252.309 224V222C252.309 220.89 251.529 220.44 250.569 221L164.669 270.59C164.175 270.914 163.761 271.348 163.461 271.858C163.161 272.368 162.983 272.94 162.939 273.53Z" fill="#C2C2C2"/>
<path d="M162.939 285.82V287.82C162.939 288.92 163.719 289.37 164.669 288.82L250.569 239.23C251.076 238.903 251.497 238.46 251.8 237.939C252.102 237.417 252.277 236.832 252.309 236.23V234.23C252.309 233.12 251.529 232.68 250.569 233.23L164.669 282.82C164.167 283.15 163.749 283.594 163.448 284.114C163.148 284.635 162.973 285.22 162.939 285.82Z" fill="#C2C2C2"/>
<path d="M162.939 298.05V300.05C162.939 301.16 163.719 301.6 164.669 301.05L250.569 251.46C251.076 251.133 251.498 250.691 251.801 250.169C252.103 249.648 252.277 249.062 252.309 248.46V246.41C252.309 245.31 251.529 244.86 250.569 245.41L164.669 295.01C164.16 295.343 163.738 295.792 163.437 296.321C163.136 296.85 162.966 297.442 162.939 298.05Z" fill="#C2C2C2"/>
<path d="M126.561 345.34L150.761 331.17V359.32L126.561 373.49V345.34Z" fill="#DADADA"/>
<path d="M127.561 345.92V371.74L149.761 358.74V332.92L127.561 345.92ZM126.561 374.49C126.295 374.49 126.041 374.385 125.853 374.197C125.666 374.01 125.561 373.755 125.561 373.49V345.34C125.561 345.166 125.606 344.996 125.692 344.845C125.778 344.694 125.901 344.569 126.051 344.48L150.251 330.31C150.403 330.222 150.575 330.176 150.751 330.176C150.926 330.176 151.099 330.222 151.251 330.31C151.403 330.398 151.53 330.525 151.618 330.678C151.705 330.831 151.751 331.004 151.751 331.18V359.33C151.749 359.505 151.703 359.676 151.615 359.827C151.527 359.977 151.402 360.103 151.251 360.19L127.051 374.36C126.901 374.445 126.732 374.489 126.561 374.49Z" fill="#6F7A84"/>
<path d="M162.939 325.13V327.13C162.939 328.24 163.719 328.68 164.669 328.13L250.569 278.54C251.076 278.213 251.497 277.77 251.8 277.249C252.102 276.727 252.277 276.142 252.309 275.54V273.54C252.309 272.44 251.529 271.99 250.569 272.54L164.669 322.14C164.167 322.468 163.749 322.91 163.448 323.429C163.148 323.948 162.973 324.531 162.939 325.13Z" fill="#C2C2C2"/>
<path d="M162.939 337.42V339.42C162.939 340.53 163.719 340.98 164.669 340.42L250.569 290.84C251.074 290.511 251.494 290.068 251.796 289.547C252.099 289.026 252.274 288.441 252.309 287.84V285.79C252.309 284.69 251.529 284.24 250.569 284.79L164.669 334.39C164.162 334.722 163.74 335.17 163.439 335.697C163.139 336.223 162.967 336.814 162.939 337.42Z" fill="#C2C2C2"/>
<path d="M162.939 349.64V351.64C162.939 352.74 163.719 353.19 164.669 352.64L250.569 303.05C251.076 302.723 251.497 302.28 251.8 301.759C252.102 301.237 252.277 300.652 252.309 300.05V298.05C252.309 296.94 251.529 296.5 250.569 297.05L164.669 346.64C164.167 346.971 163.749 347.414 163.449 347.935C163.149 348.456 162.974 349.04 162.939 349.64Z" fill="#C2C2C2"/>
<path d="M389.805 178.436C390.765 172.521 386.748 166.948 380.833 165.988C374.918 165.028 369.345 169.044 368.385 174.959C367.425 180.874 371.441 186.447 377.356 187.408C383.271 188.368 388.844 184.351 389.805 178.436Z" fill="#FBE7A1"/>
<path d="M366.16 210.55L350.68 228.55L329.89 219.55L329.49 230.81C329.49 230.81 346.49 238.76 349.12 239.3C351.75 239.84 354.27 240.42 356.55 238.67C359.21 236.67 368.76 225.61 368.76 225.61L366.16 210.55Z" fill="#FFBE9D"/>
<path d="M380.21 201.32C374.05 200.92 369.21 205.6 365.59 209.8C361.97 214 357.4 220.6 357.4 220.6C357.4 220.6 359.89 227.87 366.45 230.07L377.76 216.64L380.21 201.32Z" fill="#C2C2C2"/>
<path d="M405.05 360.21H397.41V373.29H405.05V360.21Z" fill="#FFBE9D"/>
<path d="M378.561 364.14L370.921 364.4L370.541 350.56L378.171 350.3L378.561 364.14Z" fill="#FFBE9D"/>
<path d="M404.54 256.53C404.54 263.83 405.49 308.04 405.49 308.04C405.66 310.14 407.63 314.04 407.21 322.04C406.63 333.04 405.68 361.47 405.68 361.47C405.68 361.47 402.1 365.02 397.04 361.47C397.04 361.47 390.12 322.08 388.76 311.23C387.56 301.75 385.53 276.02 385.53 276.02L381.3 311.74C381.3 311.74 382.54 318.86 382.82 323.88C383.1 328.9 378.68 354.42 378.68 354.42C377.441 355.194 376.021 355.63 374.561 355.684C373.101 355.739 371.653 355.41 370.36 354.73C370.36 354.73 367.07 315.84 366.28 311.3C365.49 306.76 368.81 256.5 368.81 256.5L404.54 256.53Z" fill="#5F5F5F"/>
<path d="M397.201 203.76C398.829 204.044 400.336 204.805 401.533 205.946C402.729 207.087 403.56 208.557 403.921 210.17C404.335 212.075 404.543 214.02 404.541 215.97V256.53C399.191 262.36 380.541 265.08 368.811 256.53C368.811 256.53 369.041 220.71 369.921 214.82C371.441 204.6 376.331 200.95 381.251 201.33L393.001 203L397.201 203.76Z" fill="#CACACA"/>
<path d="M397.821 184.4C397.821 184.4 396.061 192.65 395.361 194.01C394.892 194.846 394.118 195.469 393.201 195.75L393.321 189.95L397.821 184.4Z" fill="#FBE7A1"/>
<path d="M395.61 172.57C396.224 172.496 396.848 172.564 397.432 172.769C398.016 172.973 398.546 173.309 398.98 173.75C400.43 175.23 399.62 179.86 397.82 184.4L394.51 184.78L395.61 172.57Z" fill="#FBE7A1"/>
<path d="M393.52 184.78C394.18 185.18 395.13 183.9 395.95 183.05C396.77 182.2 399.44 181.05 400.77 183.83C402.1 186.61 399.59 190.47 397.49 191.13C393.86 192.27 393.32 189.95 393.32 189.95L393 203C392.2 204.754 390.977 206.283 389.442 207.448C387.906 208.614 386.105 209.381 384.2 209.68C377.77 210.56 379.09 205.26 381.2 202.68V198.68C379.584 198.939 377.944 199.023 376.31 198.93C373.64 198.52 371.96 196.41 371.16 193.53C369.86 188.89 369.36 185.15 370.46 176.03C371.67 166.03 383.3 165.93 389.57 169.88C395.84 173.83 393.52 184.78 393.52 184.78Z" fill="#FFBE9D"/>
<path d="M393.52 185.9C393.85 185.9 395.12 183.8 395.95 183.05C397.09 182 395.61 172.57 395.61 172.57C395.913 171.754 395.97 170.868 395.774 170.02C395.579 169.172 395.139 168.4 394.51 167.8C392.94 166.07 390.32 165.88 385.84 165.18C383.5 164.81 379.94 164.18 377.59 163.71C374.79 163.19 372.47 162.64 370.5 164.36C369.728 165.034 369.181 165.928 368.934 166.923C368.688 167.917 368.752 168.963 369.12 169.92C369.325 170.355 369.595 170.756 369.92 171.11C370.451 171.742 371.141 172.222 371.92 172.5C371.92 172.5 373.14 173.58 377.39 174.1C381.311 174.393 385.252 174.316 389.16 173.87C390.39 173.71 390.65 174.87 391.32 178.16C391.91 181 392.4 185.88 393.52 185.9Z" fill="#FBE7A1"/>
<path d="M395.61 173.3L399.61 171.15C399.481 170.886 399.3 170.65 399.078 170.457C398.856 170.263 398.599 170.115 398.319 170.022C398.04 169.929 397.745 169.893 397.452 169.915C397.159 169.936 396.872 170.016 396.61 170.15C396.072 170.447 395.668 170.939 395.482 171.525C395.296 172.112 395.342 172.747 395.61 173.3Z" fill="#FBE7A1"/>
<path d="M381.26 198.7C381.26 198.7 387.21 197.5 389.26 196.39C390.482 195.752 391.485 194.763 392.14 193.55C391.825 194.766 391.267 195.905 390.5 196.9C388.98 198.85 381.23 200.28 381.23 200.28L381.26 198.7Z" fill="#EB996E"/>
<path d="M382.69 183.29C382.7 183.523 382.778 183.748 382.914 183.937C383.051 184.126 383.24 184.271 383.458 184.353C383.676 184.436 383.914 184.452 384.141 184.401C384.369 184.349 384.576 184.232 384.737 184.064C384.899 183.896 385.007 183.684 385.049 183.454C385.091 183.225 385.065 182.988 384.974 182.774C384.882 182.559 384.73 182.376 384.535 182.248C384.341 182.119 384.113 182.05 383.88 182.05C383.72 182.053 383.562 182.087 383.416 182.151C383.269 182.214 383.137 182.307 383.026 182.422C382.916 182.537 382.829 182.673 382.771 182.822C382.714 182.971 382.686 183.13 382.69 183.29Z" fill="#4A4A4A"/>
<path d="M384 178.79L386.55 180.2C386.725 179.854 386.762 179.455 386.652 179.083C386.542 178.711 386.295 178.395 385.96 178.2C385.793 178.108 385.609 178.05 385.42 178.029C385.23 178.009 385.038 178.027 384.856 178.082C384.673 178.137 384.503 178.228 384.356 178.35C384.209 178.471 384.088 178.621 384 178.79Z" fill="#4A4A4A"/>
<path d="M381.8 191.53L379.07 192.53C379.13 192.713 379.226 192.881 379.352 193.027C379.477 193.172 379.631 193.29 379.803 193.375C379.976 193.46 380.164 193.509 380.355 193.52C380.547 193.532 380.739 193.504 380.92 193.44C381.28 193.291 381.571 193.011 381.734 192.657C381.897 192.303 381.921 191.901 381.8 191.53Z" fill="#EB996E"/>
<path d="M372.05 179.78L374.38 177.99C374.271 177.836 374.132 177.705 373.971 177.606C373.811 177.507 373.632 177.441 373.445 177.412C373.259 177.383 373.068 177.392 372.885 177.438C372.702 177.484 372.53 177.566 372.38 177.68C372.068 177.922 371.859 178.274 371.798 178.665C371.737 179.055 371.827 179.454 372.05 179.78Z" fill="#4A4A4A"/>
<path d="M372.77 183C372.78 183.233 372.858 183.458 372.994 183.647C373.131 183.836 373.32 183.981 373.538 184.063C373.756 184.146 373.994 184.162 374.221 184.111C374.449 184.059 374.656 183.942 374.817 183.774C374.979 183.606 375.087 183.394 375.129 183.164C375.171 182.935 375.145 182.698 375.054 182.484C374.962 182.269 374.81 182.086 374.616 181.958C374.421 181.829 374.193 181.76 373.96 181.76C373.8 181.763 373.642 181.797 373.496 181.861C373.35 181.925 373.217 182.017 373.107 182.132C372.996 182.247 372.909 182.383 372.851 182.532C372.794 182.681 372.766 182.84 372.77 183Z" fill="#4A4A4A"/>
<path d="M378.841 181.82L378.451 189L374.711 187.72L378.841 181.82Z" fill="#F7A981"/>
<path d="M397.41 369.52V368.42C396.67 368.74 394.98 375.22 391.94 377.99C389.53 380.18 386.25 382.72 385.41 385.17C384.57 387.62 389.99 389.17 392.24 388.73C394.86 388.27 399.39 386.43 400.53 384.73C401.67 383.03 402.2 380.5 403.12 379.25C404.04 378 406.18 376.6 406.68 375.15C406.96 374.36 406.63 372.61 406.24 371.15C405.85 369.69 405.51 368.32 405.05 368.44C405.05 368.61 405.05 369.28 405.05 369.28C403.959 370.13 402.613 370.585 401.23 370.57C400.11 370.59 397.4 370.37 397.41 369.52Z" fill="#4A4A4A"/>
<path d="M370.84 362C370.44 362 370.12 362.58 369.25 363.52C367.941 364.843 366.42 365.938 364.75 366.76C361.89 368.19 356.33 370.39 353.81 371.53C352.24 372.23 352.31 374.13 353.94 375.21C355.57 376.29 359.49 377.07 364.2 376.02C366.77 375.45 370.11 373.08 372.2 373.2C374.29 373.32 378.28 373.3 379.84 372.2C381.4 371.1 380.78 368.82 380.33 366.85C379.85 364.69 379.16 361.39 378.45 361.54V362.22C377.53 363.61 372.86 364.22 370.84 363.15V362Z" fill="#4A4A4A"/>
<path d="M385.531 276.05C381.581 274.817 377.95 272.735 374.891 269.95C374.891 269.95 376.951 273.79 383.051 277.37L381.301 311.77L385.531 276.05Z" fill="#4A4A4A"/>
<path d="M353.09 329L340.23 366.53C340.148 366.769 339.994 366.976 339.789 367.123C339.584 367.27 339.337 367.349 339.085 367.349C338.833 367.349 338.587 367.27 338.381 367.123C338.176 366.976 338.022 366.769 337.94 366.53L325.25 328.7L353.09 329Z" fill="#FFBE9D"/>
<path d="M337.94 366.53C338.022 366.769 338.176 366.976 338.382 367.123C338.587 367.27 338.833 367.349 339.085 367.349C339.338 367.349 339.584 367.27 339.789 367.123C339.995 366.976 340.149 366.769 340.23 366.53L342.74 359.2C341.658 359.781 340.437 360.052 339.211 359.984C337.984 359.915 336.801 359.509 335.79 358.81L335.23 358.43L337.94 366.53Z" fill="#4A4A4A"/>
<path d="M325.741 161.36V165V169.43L325.291 328.67C328.231 332.03 332.591 333.74 337.011 334.19C343.741 334.89 350.651 332.68 353.111 328.98L353.561 169.83V161.36C353.231 166.88 325.491 166.86 325.741 161.36Z" fill="#15CDF2"/>
<path d="M325.651 175.33V183.53C325.571 185.91 330.651 187.45 336.481 187.98C344.241 188.72 353.381 186.62 353.481 183.47V177.42V175.26C353.371 178.41 344.231 180.52 336.481 179.78C330.881 179.26 325.981 177.78 325.701 175.59C325.666 175.508 325.649 175.419 325.651 175.33Z" fill="#C4C4C4"/>
<path d="M325.671 177.38C325.471 182.9 353.291 182.83 353.491 177.31V169.1C353.291 174.62 325.491 174.69 325.671 169.17V177.38Z" fill="#15CDF2"/>
<path d="M325.74 161.36V169.46C325.5 174.88 352.35 175.04 353.56 169.86C353.593 169.76 353.61 169.655 353.61 169.55V161.39C353.23 166.88 325.49 166.86 325.74 161.36Z" fill="#C4C4C4"/>
<path opacity="0.1" d="M353.52 169.86V161.39C353.37 163.87 347.69 165.72 341.39 165.94L341 334.35L340.25 366.54L353.09 329L353.52 169.86Z" fill="#5A5A5A"/>
<path d="M325.87 127L325.74 161.39C325.63 163.74 330.63 165.29 336.43 165.85C344.19 166.61 353.37 164.56 353.55 161.42L353.67 126.92C353.67 120.06 339.75 118.33 331.44 121.19C328.33 122.18 326.12 124.09 325.87 127Z" fill="#F28F8F"/>
<path d="M416.17 267.94C415.926 271.408 415.468 274.858 414.8 278.27C412.51 287.09 409.58 289.74 405.67 290C399.44 290.41 399.4 288.08 402.2 284.06C403.428 282.308 404.366 280.37 404.98 278.32C404.063 279.084 403.055 279.732 401.98 280.25C401.502 280.501 400.947 280.562 400.426 280.421C399.905 280.28 399.456 279.948 399.17 279.49C398.97 279.07 400.05 278.65 401.25 277.19C402.77 275.33 403.55 273.85 405.65 272.31C406.347 271.62 406.791 270.714 406.91 269.74C407.23 268.48 407.45 248.47 406.32 244.33L401 225.08C396.64 222.08 392 207.28 398.63 204.08C404.85 204.78 409.39 212.92 416.18 238.08C417.33 242.56 416.87 261.1 416.17 267.94Z" fill="#FFBE9D"/>
<path d="M397.2 203.76C396.352 204.512 395.673 205.436 395.21 206.471C394.746 207.505 394.507 208.626 394.51 209.76C394.33 213.95 396.3 219.99 397.51 223.76C398.72 227.53 401.17 234.39 401.17 234.39C401.17 234.39 411.42 233.21 413.75 227.2C413.75 227.2 408.95 211.67 404.33 206.62C403.441 205.627 402.336 204.852 401.099 204.356C399.862 203.86 398.528 203.656 397.2 203.76Z" fill="#C2C2C2"/>
<path d="M331.6 207.52C331.6 207.52 334.09 205.52 338.84 206.31C341.14 206.69 340.26 215.39 332.84 217.81C328.03 219.39 327.05 218.58 325.5 222.53C325.5 222.53 322.6 221.93 323.3 217.53C324.072 212.974 326.102 208.724 329.16 205.26C331.28 202.76 331.43 200.66 332.47 201.37C333.51 202.08 332.92 204.24 332.92 204.24L331.6 207.52Z" fill="#FFBE9D"/>
</svg>
