<svg width="747" height="500" viewBox="0 0 747 500" fill="none" xmlns="http://www.w3.org/2000/svg">
<path d="M64.8947 328.226C64.9032 331.193 64.2815 333.772 63.7005 336.653L63.3053 337.416C59.8802 340.884 55.7612 341.815 51.0171 341.834C46.893 341.851 43.0359 341.025 39.0239 340.217C39.3853 339.785 39.5512 339.609 40.106 339.444C47.0242 337.362 60.102 333.752 64.8947 328.226Z" fill="#126D87"/>
<path d="M20.4999 227.53C26.901 227.887 32.6581 228.684 38.8439 230.473C38.4093 232.687 36.2859 234.117 34.5162 235.33C29.9969 238.425 24.8064 239.265 19.4944 238.215L18.8809 237.631C19.0218 234.217 19.7238 230.847 20.4999 227.53Z" fill="#154D65"/>
<path d="M250.159 50.3017C251.238 50.4507 252.365 50.5844 253.384 50.9851C255.653 51.8767 257.569 53.6629 258.461 55.9416C258.567 56.2082 258.659 56.4794 258.736 56.7549C258.813 57.0308 258.876 57.3101 258.926 57.5928C258.974 57.8754 259.008 58.1598 259.027 58.4458C259.047 58.7319 259.052 59.018 259.041 59.3044C259.031 59.5905 259.006 59.8757 258.967 60.1601C258.927 60.4436 258.873 60.725 258.804 61.003C258.735 61.2815 258.652 61.5552 258.555 61.8252C258.458 62.0948 258.348 62.3584 258.224 62.6169C256.823 65.5503 254.54 66.6458 251.591 67.6221C249.752 67.5925 248.115 67.4537 246.455 66.5892C244.445 65.5418 242.9 63.7591 242.266 61.5717C242.182 61.2793 242.114 60.9831 242.061 60.6831C242.008 60.3835 241.972 60.0814 241.951 59.7771C241.93 59.4737 241.925 59.1695 241.937 58.8656C241.948 58.5614 241.975 58.2588 242.018 57.9575C242.061 57.6562 242.12 57.3579 242.195 57.0634C242.269 56.768 242.359 56.4777 242.464 56.1921C242.57 55.906 242.689 55.6268 242.825 55.3542C242.959 55.0809 243.108 54.8155 243.27 54.5583C244.913 51.9563 247.248 50.9009 250.159 50.3017Z" fill="#77DBF2"/>
<path d="M219.37 50.7016C221.22 50.4545 222.887 50.3216 224.687 50.9314C224.979 51.0338 225.265 51.1514 225.546 51.2835C225.825 51.4151 226.098 51.5615 226.362 51.7223C226.627 51.8831 226.882 52.0574 227.129 52.2445C227.375 52.4319 227.611 52.6316 227.837 52.8436C228.063 53.0556 228.277 53.2791 228.478 53.5131C228.681 53.7479 228.87 53.9921 229.047 54.246C229.224 54.4999 229.386 54.7627 229.536 55.0343C229.685 55.3056 229.819 55.5836 229.94 55.8692C230.828 57.991 230.872 60.4 229.894 62.4993C228.776 64.8919 226.779 66.1724 224.4 67.1126C222.686 67.3432 220.821 67.4533 219.15 66.9273C216.943 66.2337 214.978 64.5584 214.008 62.4528C213.89 62.1972 213.785 61.9365 213.693 61.6708C213.601 61.4046 213.523 61.1342 213.459 60.86C213.395 60.5862 213.345 60.3095 213.309 60.0302C213.273 59.7513 213.252 59.4712 213.245 59.1898C213.237 58.9084 213.244 58.627 213.265 58.3468C213.287 58.0663 213.323 57.7874 213.372 57.5103C213.422 57.2331 213.486 56.9593 213.564 56.6889C213.641 56.4185 213.733 56.1523 213.837 55.8913C214.944 53.1479 216.784 51.9009 219.37 50.7016Z" fill="#77DBF2"/>
<path d="M192.714 50.2865C193.97 50.3872 195.297 50.5933 196.499 50.9826C198.731 51.7058 200.747 53.4983 201.687 55.6513C201.801 55.9124 201.901 56.179 201.987 56.4515C202.073 56.7236 202.144 56.9995 202.201 57.2788C202.258 57.5581 202.3 57.8399 202.327 58.1243C202.354 58.4082 202.366 58.6926 202.364 58.9782C202.361 59.263 202.343 59.5469 202.31 59.8305C202.277 60.1144 202.23 60.3953 202.167 60.6734C202.105 60.9514 202.028 61.2256 201.936 61.4956C201.845 61.766 201.74 62.0309 201.621 62.2898C200.279 65.2642 198.015 66.5934 195.103 67.7596C193.207 67.73 191.511 67.6919 189.786 66.8257C187.56 65.7073 185.814 63.718 185.129 61.3107C185.051 61.0411 184.987 60.7686 184.937 60.4923C184.886 60.2168 184.85 59.9392 184.828 59.6591C184.805 59.3798 184.797 59.0996 184.803 58.8195C184.809 58.539 184.829 58.2597 184.863 57.9812C184.897 57.7032 184.945 57.4269 185.007 57.1531C185.069 56.8797 185.145 56.6102 185.234 56.344C185.324 56.0783 185.426 55.818 185.542 55.562C185.657 55.3064 185.785 55.0572 185.926 54.8147C187.464 52.1924 189.886 51.0304 192.714 50.2865Z" fill="#15CDF2"/>
<path d="M84.9339 380.812C84.515 380.782 84.1299 380.629 83.7279 380.507C82.9916 378.501 83.3301 375.852 83.1016 373.694C82.1199 370.613 80.4865 367.592 79.0816 364.676C74.4353 355.023 69.3616 346.239 63.3062 337.416L63.6997 336.654C72.3703 346.146 76.9573 358.824 83.1947 369.864C83.347 345.773 83.3597 321.678 83.2328 297.588C77.9814 289.827 72.2052 282.489 66.3656 275.173L66.7338 274.225C73.0177 280.082 78.2564 288.672 83.2751 295.628C83.1355 280.733 83.1947 265.834 83.4528 250.939L84.7519 251.222L84.9974 309.208C86.6773 307.752 88.3573 306.313 89.8849 304.697L90.3292 306.703C88.6111 308.438 86.91 310.016 84.9677 311.501C84.9 329.706 84.9254 347.914 85.0397 366.123C89.6098 361.494 94.3027 357.33 99.4948 353.411C99.626 353.957 99.8841 354.659 99.8757 355.218C94.5904 359.357 89.8256 363.923 85.0481 368.62C85.027 372.666 85.1666 376.779 84.9339 380.812Z" fill="#0A2D38"/>
<path d="M279.066 89.8647L285.68 89.8381C285.773 94.1674 286.807 103.1 283.631 106.338C282.076 107.923 275.43 107.208 273.09 107.166C250.933 106.817 228.775 106.699 206.615 106.811C198.556 106.811 183.396 107.634 176.143 106.515C174.096 106.198 172.286 105.11 170.875 103.606C169.374 102.007 168.359 100.107 167.47 98.1218C170.592 97.1938 179.081 98.1417 182.807 98.121L240.414 98.1045C249.594 98.1104 258.939 98.5243 268.096 98.0482C269.82 97.9589 271.599 97.8895 273.19 97.1604C276.351 95.7111 277.931 93.0092 279.066 89.8647Z" fill="#467D8A"/>
<path d="M38.8433 230.473C50.195 235.013 61.3618 243.429 66.2967 254.929C68.605 260.309 69.9215 267.044 67.6267 272.621C67.3872 273.205 67.0986 273.711 66.7342 274.225L66.364 275.173C62.443 278.031 58.7048 279.584 53.7326 279.434C44.5018 279.155 35.3175 274.163 29.1318 267.474C21.2394 258.939 18.3937 249.06 18.8803 237.631L19.4939 238.215C24.8058 239.265 29.9963 238.424 34.5156 235.329C36.2853 234.117 38.4087 232.687 38.8433 230.473Z" fill="url(#paint0_linear_93_3081)"/>
<path d="M137.626 289.874L136.534 291.986C133.471 300.098 126.222 307.122 118.377 310.651C111.978 313.533 103.866 314.494 97.2608 311.748C94.5229 310.609 92.204 308.997 90.3294 306.704L89.8851 304.698C89.7116 302.078 89.8513 299.302 90.3506 296.725C92.3437 286.527 99.3851 278.394 107.768 272.673C112.681 268.365 122.443 265.492 128.867 265.525C131.774 265.208 134.757 265.323 137.681 265.323L137.668 272.131C137.702 278.034 137.863 283.976 137.626 289.874Z" fill="url(#paint1_linear_93_3081)"/>
<path d="M137.68 265.322L137.668 272.133C137.205 270.528 136.185 269.79 135.533 268.362C135.225 267.688 135.791 266.935 136.073 266.279L135.891 265.937C133.91 265.967 131.492 266.241 129.58 265.732C129.341 265.669 129.105 265.594 128.867 265.525C131.775 265.208 134.756 265.322 137.68 265.322Z" fill="#407B9B"/>
<path d="M71.6888 204.038C74.9535 198.433 79.8973 193.734 84.5673 189.299C92.1305 196.01 102.532 206.297 104.765 216.646C107.109 223.605 107.579 231.208 104.305 237.976C101.431 243.921 95.8932 248.208 89.663 250.187C88.063 250.705 86.4263 251.049 84.7527 251.221L83.4527 250.937C79.9747 251 75.5713 248.762 72.7531 246.82C67.5867 243.258 64.2404 237.735 63.152 231.593C61.4124 221.78 66.0705 211.798 71.6888 204.038Z" fill="url(#paint2_linear_93_3081)"/>
<path d="M6.64088 289.194C23.3265 287.843 34.7286 288.329 48.1478 299.333C56.84 306.46 63.7595 316.866 64.894 328.226C60.1013 333.752 47.0239 337.362 40.1052 339.444C39.5505 339.609 39.3846 339.785 39.0232 340.217C30.9527 337.104 24.2397 333.154 18.3878 326.684C8.61661 315.88 5.84915 303.38 6.64088 289.194Z" fill="url(#paint3_linear_93_3081)"/>
<path d="M727.554 321.87C726.234 324.137 723.623 325.395 721.16 325.97C715.989 327.176 710.7 325.953 706.307 323.067C705.19 322.331 704.208 321.543 703.252 320.612C700.138 323.512 696.778 326.338 693.938 329.508C694.129 329.571 694.315 329.639 694.505 329.702C696.261 330.261 698.614 329.897 700.463 329.999C706.146 330.295 713.658 333.303 716.514 338.419C717.068 339.409 717.157 340.179 716.992 341.301C716.332 342.482 715.524 342.99 714.263 343.37C710.04 344.649 705.304 343.819 701.483 341.729C697.04 339.304 694.793 335.174 692.516 330.879C689.804 335.694 685.5 339.664 682.543 344.398C689.533 344.343 699.473 344.83 704.784 350.149C705.838 351.203 706.832 352.79 706.692 354.351C706.574 355.659 706.028 356.755 704.936 357.529C702.655 359.146 699.376 358.922 696.786 358.371C689.478 356.814 685.107 352.367 680.998 346.519C677.367 353.277 673.889 360.03 671.409 367.317C670.08 371.231 669.425 376.44 667.567 380.05C666.678 380.143 666.585 379.826 665.883 379.322C662.417 371.785 657.178 364.981 652.515 358.159C648.436 352.197 644.577 346.099 640.345 340.239C638.932 338.414 637.383 336.714 635.843 334.995C634.607 336.481 633.27 337.995 631.823 339.278C627.993 342.676 621.933 346.014 616.695 345.591C615.078 345.46 612.89 344.808 611.947 343.361C611.375 342.485 611.409 341.63 611.68 340.661C612.057 339.32 613.479 337.932 614.511 337.077C622.06 330.856 629.533 335.249 633.422 332.858L633.058 331.948C630.219 329.308 627.21 324.818 623.787 323.057C622.983 322.647 622.725 322.964 621.904 323.218C618.142 325.673 613.893 327.606 609.492 328.559C609.475 337.001 609.865 345.701 609.2 354.113C608.849 347.973 609.137 341.673 609.145 335.516C609.154 329.714 608.794 323.663 609.395 317.904C613.614 318.069 617.862 318.437 621.54 320.726L622.162 320.464C621.603 318.898 620.575 317.578 619.902 316.059C617.736 311.197 615.958 303.499 618.54 298.51C619.166 297.296 620.063 296.585 621.413 296.259C622.657 295.963 624.235 296.327 625.251 297.08C627.434 298.696 627.951 301.951 628.221 304.473C628.306 305.234 628.357 305.996 628.382 306.762C628.408 307.528 628.403 308.294 628.374 309.056C628.34 309.821 628.276 310.583 628.188 311.345C628.099 312.107 627.98 312.86 627.832 313.613C627.684 314.362 627.506 315.106 627.303 315.847C627.1 316.583 626.867 317.311 626.609 318.035C626.347 318.754 626.063 319.461 625.75 320.163C625.437 320.861 625.099 321.547 624.73 322.22C627.629 324.991 630.604 327.712 633.291 330.695C633.921 331.267 634.903 332.515 635.733 332.494C635.864 325.376 636.02 314.454 641.813 309.191C642.816 308.281 644.022 307.794 645.376 307.849C646.519 307.895 647.522 308.301 648.283 309.161C650.014 311.116 649.908 314.734 649.612 317.15C648.609 325.364 643.277 330.061 637.201 334.843C638.403 336.209 639.613 337.538 640.662 339.032C642.215 340.707 643.409 342.603 644.661 344.512C644.589 343.09 644.369 341.418 644.551 340.014C644.763 338.397 645.381 337.563 646.671 336.641C647.649 336.412 648.334 336.324 649.291 336.725C653.129 338.342 656.531 343.479 658.143 347.249C661.101 354.185 659.565 355.162 657.766 361.154C657.039 363.57 665.299 375.592 666.843 378.58C669.632 366.351 674.439 355.501 680.799 344.757C678.848 344.384 676.97 343.877 675.192 342.975C670.36 340.521 665.849 335.756 664.334 330.466C663.771 328.503 663.564 325.744 664.77 323.95C665.379 323.04 666.065 322.414 667.186 322.253C668.625 322.041 670.009 322.714 671.172 323.484C677.452 327.627 680.85 335.443 682.2 342.556C685.606 338.307 688.966 334.021 692.275 329.7C686.998 325.354 681.527 320.505 679.792 313.591C679.081 310.747 679.026 307.112 680.706 304.573C681.4 303.524 682.403 302.694 683.698 302.563C685.272 302.406 686.664 303.308 687.718 304.383C693.612 310.387 693.071 321.148 693.003 328.854C695.855 325.735 699.122 322.938 702.224 320.073C701.483 318.076 700.853 316.074 700.62 313.946C700.112 309.257 701.094 304.108 704.23 300.448C705.664 298.772 707.678 297.359 709.942 297.214C711.279 297.13 712.583 297.502 713.531 298.496C714.44 299.448 714.804 300.756 714.817 302.042C714.876 308.597 708.914 314.145 704.682 318.508C710.683 315.795 718.68 313.074 725.248 315.558C726.454 316.015 727.592 316.819 728.028 318.097C728.464 319.381 728.223 320.719 727.554 321.87Z" fill="#154D65"/>
<path d="M137.617 360.284C130.047 364.118 120.894 365.401 112.625 363.327C107.772 362.112 102.55 359.628 99.8755 355.219C99.8839 354.66 99.6258 353.958 99.4946 353.412C99.7316 352.908 99.9389 352.434 100.062 351.888C101.365 345.926 105.973 338.22 110.421 334.027C116.336 326.198 127.965 319.254 137.566 317.392C137.558 323.477 137.668 329.587 137.52 335.668L137.617 360.284Z" fill="#163E4A"/>
<path d="M137.617 360.284C130.047 364.118 120.894 365.401 112.625 363.327C107.772 362.112 102.55 359.628 99.8755 355.219C99.8839 354.66 99.6258 353.958 99.4946 353.412C99.7316 352.908 99.9389 352.434 100.062 351.888C101.365 345.926 105.973 338.22 110.421 334.027C116.336 326.198 127.965 319.254 137.566 317.392C137.558 323.477 137.668 329.587 137.52 335.668L137.617 360.284Z" fill="#126D87"/>
<path d="M137.521 335.669C136.852 340.79 137.123 346.193 136.827 351.369C136.691 350.615 136.801 350.971 136.505 350.29C134.859 351.123 133.137 352.079 131.27 352.253C129.189 352.443 127.276 351.597 125.731 350.247C121.872 346.888 114.264 340.21 113.853 335.005C113.764 333.887 113.718 333.19 113.231 332.191C112.436 333.113 111.911 333.465 110.764 333.905C110.65 333.947 110.536 333.985 110.421 334.027C116.337 326.199 127.966 319.255 137.567 317.393C137.559 323.478 137.669 329.588 137.521 335.669Z" fill="url(#paint4_linear_93_3081)"/>
<path d="M128.778 389.698C128.295 390.299 126.747 390.147 126.027 390.133C125.934 404.716 123.751 419.717 122.151 434.206C121.144 443.354 120.598 453.705 118.601 462.634C118.389 466.07 118.072 469.536 118.148 472.976C107.476 473.39 96.7277 473.217 86.0429 473.213C71.9178 473.238 57.7927 473.191 43.6718 473.064C43.4137 469.535 43.1937 466.006 43.0075 462.473C42.305 453.756 40.9044 445.022 39.9099 436.326C38.2385 420.978 36.7532 405.608 35.4456 390.227L34.7178 390.239C33.9984 390.252 32.8305 390.324 32.3481 389.723C31.5737 388.754 31.506 387.463 31.6075 386.279C31.7641 384.395 31.7641 382.512 31.7853 380.621C48.8725 380.756 65.9597 380.799 83.0469 380.748C83.0004 378.391 83.0385 376.051 83.1019 373.694C83.3304 375.852 82.9919 378.501 83.7282 380.507C84.1302 380.629 84.5153 380.782 84.9342 380.812C99.6898 380.287 114.577 380.706 129.345 380.718C129.375 382.61 129.379 384.497 129.514 386.385C129.59 387.485 129.493 388.805 128.778 389.698Z" fill="#467D8A"/>
<path d="M118.148 472.976C107.476 473.39 96.7276 473.217 86.0428 473.213C71.9177 473.239 57.7926 473.192 43.6717 473.065C43.4136 469.536 43.1935 466.007 43.0073 462.473C68.1938 462.622 93.4184 462.909 118.601 462.634C118.389 466.07 118.072 469.536 118.148 472.976Z" fill="#407B9B"/>
<path d="M128.778 389.698C128.295 390.299 126.747 390.147 126.027 390.133L35.4456 390.227L34.7178 390.239C33.9984 390.252 32.8305 390.324 32.3481 389.723C31.5737 388.754 31.506 387.463 31.6075 386.279C31.7641 384.395 31.7641 382.512 31.7853 380.621C48.8725 380.756 65.9597 380.799 83.0469 380.748C83.0004 378.391 83.0385 376.051 83.1019 373.694C83.3304 375.852 82.9919 378.501 83.7282 380.507C84.1302 380.629 84.5153 380.782 84.9342 380.812C99.6898 380.287 114.577 380.706 129.345 380.718C129.375 382.61 129.379 384.497 129.514 386.385C129.59 387.485 129.493 388.805 128.778 389.698Z" fill="#407B9B"/>
<path d="M14.8374 488.263C21.2292 487.81 27.9003 488.198 34.3167 488.201L73.5369 488.206L190.236 487.938L566.97 488.185L676.314 488.222L711.133 488.201C717.718 488.193 724.471 488.504 731.026 487.906L730.831 488.703C734.339 491.341 745.731 487.887 746.371 494.55C746.455 495.431 746.045 497.162 745.37 497.753C742.493 500.27 736.452 499.842 732.818 499.832L215.027 499.552L62.8056 499.657L21.8246 499.647C16.9853 499.649 10.2939 500.399 5.74448 499.707C4.02729 499.446 2.21997 498.86 1.29579 497.266C0.654701 496.161 0.395298 494.666 0.911977 493.464C1.71979 491.586 4.16693 490.742 5.96959 490.246C8.64227 489.51 12.6268 489.79 14.8374 488.263Z" fill="#295E70"/>
<path d="M355.472 252.465L430.05 252.22C429.553 266.19 430.17 280.326 430.182 294.315L429.722 358.468L392.36 358.491L317.292 358.562L317.322 252.519C330.039 252.585 342.756 252.567 355.472 252.465Z" fill="#467D8A"/>
<path d="M343.024 297.335L407.446 297.701L407.442 305.995L343.012 306.018L343.024 297.335Z" fill="#295E70"/>
<path d="M342.982 274.936L407.431 274.961L407.453 283.899L342.95 283.807L342.982 274.936Z" fill="#295E70"/>
<path d="M342.816 319.398C364.394 319.921 386.077 319.516 407.669 319.574C407.604 322.476 407.625 325.384 407.608 328.288C402.503 329.196 394.055 328.476 388.576 328.467L342.801 328.398L342.816 319.398Z" fill="#295E70"/>
<path d="M487.532 252.052L566.563 251.892L566.601 359.262L528.42 359.162L451.45 359.081L451.571 252.09C463.558 252.143 475.545 252.131 487.532 252.052Z" fill="#30536A"/>
<path d="M473.527 319.332C496.99 319.463 520.481 319.632 543.943 319.371L543.835 327.983L543.772 328.612C543.591 328.779 543.451 329.008 543.228 329.112C542.407 329.495 480.321 329.112 473.386 329.11L473.527 319.332Z" fill="#2C4F60"/>
<path d="M509.886 275.187L544.262 274.959L544.227 285.348L507.345 285.259L473.241 285.228C473.306 281.942 473.327 278.656 473.305 275.368L509.886 275.187Z" fill="#2C4F60"/>
<path d="M473.504 297.321C497.006 297.676 520.57 297.373 544.077 297.272C543.913 300.691 543.963 304.129 543.946 307.552C520.472 307.9 496.946 307.537 473.467 307.493L473.504 297.321Z" fill="#2C4F60"/>
<path d="M276.488 252.875L296.253 252.811L296.22 358.641L198.549 358.489L178.945 358.446C179.432 323.328 178.964 288.162 179.163 253.034L276.488 252.875Z" fill="#467D8A"/>
<path d="M201.655 319.636L273.942 319.729L273.923 328.671L201.636 328.414L201.655 319.636Z" fill="#295E70"/>
<path d="M228.476 274.362C243.576 274.121 258.74 274.454 273.847 274.512L273.846 283.544C264.903 283.649 255.947 283.573 247.002 283.577L201.719 283.609L201.764 274.5L228.476 274.362Z" fill="#295E70"/>
<path d="M201.746 296.761C225.777 296.538 249.848 296.914 273.882 296.993L273.879 306.294L201.697 306.24L201.746 296.761Z" fill="#295E70"/>
<path d="M670.132 142.712V84.1719L669.933 35.847C669.941 25.7631 670.436 15.493 669.785 5.4429C668.566 3.3017 667.284 2.0407 665.265 0.614646C664.753 0.563867 664.237 0.52577 663.725 0.496149C657.339 0.0941462 650.738 0.386128 644.336 0.36497L606.057 0.284568L489.522 0.33111L456.571 0.394594C451.518 0.381899 441.451 -0.633674 437.046 0.64427C436.234 0.88124 435.354 1.31708 434.77 1.94759C433.437 3.37364 433.052 6.0438 432.865 7.91417C432.155 14.9217 432.679 22.4751 432.671 29.5504L432.662 73.3644L546.92 73.1951L574.692 73.2544C579.689 73.2713 585.423 73.7791 590.34 72.9116C595.748 72.8524 599.438 73.4702 604.004 76.5889C605.904 78.7851 607.445 80.8417 608.621 83.533L609.184 86.0465C609.108 96.5282 609.099 107.01 609.15 117.492C609.167 122.015 608.655 127.3 609.45 131.714L609.514 132.124C609.344 147.98 609.641 163.845 609.501 179.705C627.892 179.358 646.32 179.979 664.719 179.904C666.061 179.197 667.423 178.465 668.477 177.348C670.022 175.71 670.038 173.184 670.144 171.055C670.61 161.691 670.127 152.098 670.132 142.712ZM471.792 39.994C464.975 40.0236 457.79 40.6541 451.019 39.9982C450.274 39.9263 449.462 39.9262 448.933 39.3465C446.656 36.8245 447.371 29.6646 447.731 26.419C447.972 24.2693 448.374 23.4568 450.067 22.1027C459.626 21.8615 469.295 22.2001 478.867 22.217L540.399 22.2424L590.302 22.1874C599.244 22.1662 608.304 21.8446 617.236 22.1874C618.739 22.2424 620.469 22.1451 621.599 23.2834C623.952 25.6573 623.436 31.4461 623.127 34.5733C622.86 37.2477 622.56 38.4156 620.448 40.1463C608.067 40.451 595.626 40.159 583.24 40.1082L513.647 39.8882L471.792 39.994Z" fill="#30536A"/>
<path d="M608.62 83.5312C623.644 83.1601 638.729 83.5088 653.757 83.6083L653.713 89.4373L622.584 89.497C618.816 89.5029 613.305 90.2117 609.783 89.2977C609.57 88.2161 609.37 87.1319 609.185 86.0444L608.62 83.5312Z" fill="#295E70"/>
<path d="M609.433 98.0863L653.762 98.1045L653.753 104.337L609.397 104.392L609.433 98.0863Z" fill="#295E70"/>
<path d="M609.595 125.802L653.808 125.839L653.783 132.262L624.332 132.234C619.543 132.238 614.224 132.725 609.511 132.123L609.451 131.714C609.549 129.739 609.625 127.781 609.595 125.802Z" fill="#295E70"/>
<path d="M609.528 111.844L653.837 111.946L653.781 118.39L609.514 118.39L609.528 111.844Z" fill="#295E70"/>
<path d="M590.339 72.9116C594.856 68.9618 644.508 70.423 653.732 70.4289L653.725 75.8018L624.151 75.7764C617.61 75.7773 610.414 75.2086 604.002 76.5872C599.439 73.4702 595.746 72.8507 590.339 72.9116Z" fill="#295E70"/>
<path d="M447.543 56.7951L500.257 56.7778L500.185 62.5996C493.949 63.1641 487.39 62.6978 481.103 62.6648L447.541 62.6398L447.543 56.7951Z" fill="#295E70"/>
<path d="M654.363 21.4498L658.54 21.3L658.552 40.7256L640.823 40.7099L636.211 40.7222C636.282 34.3312 636.292 27.9402 636.241 21.5492L654.363 21.4498Z" fill="#126D87"/>
<path d="M525.516 56.5937L653.767 56.3804L653.758 62.4253C649.409 62.9576 644.57 62.5797 640.17 62.5734L614.157 62.5205L525.226 62.2611C525.191 60.3344 525.095 58.4877 525.516 56.5937Z" fill="#295E70"/>
<path d="M609.158 385.555C609.175 392.533 610.029 400.709 608.442 407.534C607.66 410.902 606.119 413.416 603.669 415.824C600.876 418.557 597.55 420.343 593.661 420.859C588.114 421.595 581.999 421.079 576.384 421.045L543.966 420.893L428.079 420.918C422.857 420.36 417.487 420.631 412.24 420.652L387.062 420.745C366.428 420.808 345.74 420.254 325.12 420.584C323.457 420.61 320.494 420.406 318.975 421.168C302.142 420.728 285.254 420.935 268.412 420.935L196.043 420.88L165.982 420.931C160.717 420.94 154.755 421.477 149.571 420.593C146.914 420.144 144.32 418.324 142.412 416.501C140.067 414.253 138.904 411.71 138.214 408.562C136.885 402.519 137.647 395.384 137.664 389.164C137.719 379.537 137.702 369.91 137.617 360.283L137.52 335.668C137.668 329.587 137.558 323.477 137.566 317.392C137.655 308.218 137.676 299.044 137.626 289.874C137.863 283.975 137.702 278.034 137.668 272.131L137.681 265.322L137.913 93.1467C137.947 87.1125 138.265 81.8568 142.953 77.4094C149.004 71.6629 159.203 73.237 166.887 73.3174C166.887 78.9412 166.722 84.6158 166.896 90.2354L153.871 90.2654C153.346 123.729 154.074 157.286 154.091 190.758L153.985 372.043L592.604 372.073L592.57 188.366L592.591 125.654C592.591 115.494 593.183 104.919 592.51 94.8055C592.434 93.608 592.045 92.5543 591.216 91.6657C589.912 90.2735 588.901 90.2269 587.069 90.0704C575.55 89.0886 563.376 89.8376 551.802 89.8461L483.644 89.8799L285.681 89.8376L279.067 89.863C278.75 84.345 278.991 78.6789 278.978 73.1439L286.256 73.1482C335.051 73.766 383.863 73.1693 432.662 73.364L546.919 73.1947L574.691 73.254C579.689 73.2709 585.423 73.7787 590.34 72.9112C595.748 72.852 599.438 73.4698 604.004 76.5885C605.904 78.7847 607.444 80.8412 608.62 83.5325L609.183 86.0461C609.107 96.5278 609.098 107.009 609.149 117.491C609.166 122.015 608.654 127.3 609.45 131.714L609.513 132.124C609.344 147.98 609.64 163.844 609.5 179.704L609.45 270.912C609.462 286.523 610.021 302.319 609.395 317.904C608.794 323.663 609.153 329.715 609.145 335.516C609.136 341.673 608.849 347.974 609.2 354.114L609.158 385.555Z" fill="#15CDF2"/>
<path d="M371.369 383.378C373.875 383.229 376.066 383.356 378.324 384.568C378.665 384.754 378.996 384.956 379.316 385.175C379.636 385.394 379.944 385.63 380.24 385.881C380.535 386.133 380.818 386.399 381.086 386.68C381.354 386.96 381.607 387.253 381.846 387.56C382.084 387.866 382.305 388.184 382.51 388.514C382.716 388.843 382.903 389.182 383.073 389.531C383.243 389.88 383.395 390.236 383.528 390.601C383.661 390.965 383.776 391.336 383.871 391.712C384.566 394.396 384.285 397.318 382.821 399.701C381.013 402.641 378.471 403.835 375.232 404.656C373.037 404.815 370.73 404.893 368.667 404.012C366.032 402.888 364.015 400.829 363.036 398.125C361.973 395.187 362.182 391.768 363.661 389.006C365.404 385.749 368.023 384.457 371.369 383.378Z" fill="#77DBF2"/>
<path d="M178.76 124.062L566.824 124.119L566.61 229.813C562.284 230.222 557.622 229.897 553.268 229.864L528.261 229.676L448.974 229.431L178.797 228.879C179.439 193.959 178.689 158.988 178.76 124.062Z" fill="#154D65"/>
<path d="M279.678 142.781C283.53 142.546 287.116 142.924 290.619 144.671C290.912 144.817 291.202 144.97 291.487 145.13C291.773 145.291 292.055 145.459 292.332 145.634C292.61 145.809 292.882 145.99 293.151 146.178C293.419 146.366 293.682 146.561 293.94 146.763C294.199 146.965 294.452 147.172 294.7 147.387C294.948 147.602 295.19 147.822 295.427 148.049C295.664 148.275 295.895 148.508 296.121 148.745C296.346 148.984 296.565 149.227 296.778 149.477C296.991 149.726 297.197 149.98 297.398 150.24C297.598 150.499 297.791 150.764 297.978 151.033C298.165 151.303 298.345 151.577 298.518 151.855C298.691 152.133 298.857 152.415 299.016 152.702C299.175 152.989 299.326 153.28 299.47 153.574C299.615 153.868 299.752 154.166 299.881 154.467C300.011 154.768 300.132 155.072 300.246 155.38C300.36 155.687 300.466 155.997 300.565 156.309C300.658 156.602 300.744 156.897 300.822 157.194C300.901 157.491 300.972 157.79 301.036 158.09C301.1 158.391 301.156 158.693 301.204 158.996C301.253 159.299 301.294 159.604 301.327 159.909C301.36 160.215 301.386 160.521 301.404 160.827C301.422 161.134 301.432 161.441 301.435 161.748C301.437 162.055 301.432 162.362 301.419 162.669C301.406 162.976 301.386 163.283 301.358 163.589C301.329 163.895 301.293 164.199 301.249 164.503C301.206 164.808 301.155 165.111 301.096 165.412C301.038 165.714 300.971 166.014 300.897 166.312C300.823 166.61 300.742 166.906 300.654 167.2C300.565 167.494 300.469 167.786 300.366 168.075C300.263 168.365 300.152 168.651 300.035 168.935C299.917 169.219 299.792 169.499 299.661 169.777C299.529 170.054 299.39 170.329 299.245 170.599C296.492 175.734 291.903 178.658 286.45 180.25C282.203 180.862 278.275 180.604 274.377 178.604C269.77 176.239 266.325 171.857 264.879 166.907C264.792 166.614 264.712 166.319 264.64 166.022C264.567 165.725 264.502 165.426 264.445 165.126C264.387 164.825 264.337 164.524 264.294 164.222C264.251 163.919 264.216 163.615 264.188 163.31C264.16 163.006 264.14 162.701 264.127 162.395C264.115 162.09 264.11 161.785 264.113 161.479C264.115 161.173 264.125 160.867 264.142 160.562C264.16 160.257 264.186 159.952 264.218 159.648C264.251 159.344 264.292 159.041 264.339 158.739C264.387 158.437 264.442 158.137 264.505 157.837C264.568 157.538 264.638 157.241 264.716 156.945C264.793 156.649 264.878 156.355 264.97 156.064C265.062 155.772 265.161 155.483 265.267 155.197C265.374 154.91 265.487 154.626 265.608 154.345C265.729 154.064 265.856 153.786 265.99 153.511C266.124 153.236 266.265 152.965 266.413 152.697C269.3 147.452 274.085 144.44 279.678 142.781Z" fill="#163E4A"/>
<path d="M223.562 187.357L347.526 187.411L347.543 215.361L223.596 215.134L223.562 187.357Z" fill="#0A2D38"/>
<path d="M439.647 154.469C442.587 154.204 445.43 154.414 448.305 155.057C458.316 157.296 465.373 163.774 470.697 172.218C471.207 171.911 471.722 171.613 472.243 171.326C478.198 168.056 485.606 167.638 492.048 169.581C492.507 169.715 492.962 169.861 493.413 170.018C493.865 170.176 494.313 170.345 494.757 170.524C495.2 170.704 495.638 170.895 496.071 171.096C496.505 171.298 496.933 171.51 497.357 171.733C497.78 171.956 498.197 172.189 498.61 172.433C499.021 172.676 499.426 172.929 499.825 173.193C500.224 173.457 500.616 173.73 501.001 174.014C501.387 174.297 501.765 174.589 502.136 174.891C502.507 175.193 502.87 175.504 503.225 175.824C503.581 176.144 503.928 176.473 504.268 176.81C504.607 177.147 504.937 177.493 505.259 177.847C505.581 178.2 505.894 178.562 506.198 178.931C506.502 179.301 506.796 179.678 507.081 180.061C507.366 180.445 507.642 180.836 507.908 181.234C508.174 181.631 508.43 182.035 508.675 182.445C508.921 182.856 509.156 183.272 509.381 183.694C513.254 191.097 513.391 198.945 510.986 206.812C513.742 208.562 515.57 210.376 517.413 213.027C503.982 213.251 490.511 213.016 477.075 213.001C452.064 213.206 427.052 213.234 402.04 213.083C398.005 208.831 394.846 204.259 394.047 198.3C393.29 192.665 394.692 186.653 398.225 182.153C402.115 177.196 406.996 175.745 412.933 174.924C414.211 171.745 415.648 168.729 417.754 166.006C423.133 159.047 431.079 155.523 439.647 154.469Z" fill="#2C4F60"/>
<path d="M621.421 359.167C621.137 357.885 621.611 356.581 622.428 355.6C625.179 352.274 630.096 351.618 634.116 351.152C639.232 350.974 643.777 351.986 648.727 353.09C645.16 358.354 640.912 360.745 635.068 362.7C631.657 363.428 627.536 363.91 624.286 362.32C622.97 361.672 621.755 360.665 621.421 359.167Z" fill="#77DBF2"/>
<path d="M746.85 480.36C746.795 482.429 745.763 484.325 744.189 485.637C740.537 488.692 735.421 487.715 731.028 487.905C724.473 488.506 717.72 488.193 711.131 488.201L676.314 488.222L566.969 488.184L190.238 487.939L73.5384 488.206L34.3156 488.201C27.9005 488.197 21.2273 487.807 14.8375 488.264C10.8133 488.125 5.77343 488.442 2.51087 485.683C1.01711 484.418 0.0565384 482.805 0.00152757 480.817C-0.00270404 480.579 0.00151827 480.343 0.0184447 480.105C0.0353711 479.873 0.0607659 479.636 0.103082 479.403C0.141166 479.17 0.196171 478.942 0.255414 478.713C0.318888 478.485 0.395056 478.261 0.479688 478.04C0.56432 477.82 0.661648 477.605 0.77167 477.397C0.87746 477.186 0.995952 476.978 1.1229 476.779C1.24985 476.58 1.38949 476.39 1.53337 476.204C1.68147 476.022 1.83804 475.844 2.00307 475.675C3.54337 474.097 5.68457 473.339 7.82576 473.026C12.0828 472.403 16.911 472.915 21.2188 472.979C28.7003 473.051 36.186 473.081 43.6717 473.064C57.7926 473.191 71.9177 473.238 86.0428 473.212C96.7276 473.217 107.476 473.39 118.148 472.975C154.184 471.837 190.458 472.624 226.519 472.611L272.724 472.603C281.518 472.603 290.467 472.252 299.244 472.819C300.45 471.718 301.525 469.886 302.485 468.545C303.306 467.406 304.102 466.251 304.872 465.075C305.638 463.902 306.382 462.709 307.093 461.499C307.804 460.289 308.49 459.062 309.146 457.822C309.802 456.578 310.424 455.326 311.02 454.052C311.617 452.782 312.184 451.496 312.721 450.197C313.255 448.902 313.762 447.59 314.236 446.27C314.71 444.95 315.155 443.617 315.565 442.276C315.976 440.934 316.356 439.58 316.703 438.222C318.104 432.627 318.671 426.911 318.976 421.168C320.495 420.406 323.457 420.61 325.12 420.584C345.741 420.254 366.429 420.808 387.062 420.745L412.24 420.652C417.487 420.631 422.857 420.36 428.079 420.918C428.121 426.627 428.612 432.196 429.514 437.828C431.765 450.121 437.892 463.158 446.212 472.57C480.488 472.121 514.806 472.443 549.086 472.438C575.72 472.438 602.468 471.96 629.089 472.65C628.433 468.232 629.102 463.595 628.611 459.092C626.055 436.203 623.867 413.28 622.039 390.32C619.898 390.341 617.837 390.286 615.7 390.074L615.717 379.935C623.232 379.982 661.897 381.027 665.756 379.791L665.531 379.246L665.883 379.322C666.585 379.825 666.678 380.143 667.567 380.05C683.888 380.083 700.231 380.304 716.552 380.092L716.539 390.218L711.986 390.269C710.704 414.394 707.501 438.59 704.881 462.604C704.847 466.049 704.75 469.506 704.805 472.955L727.304 472.9C731.354 472.853 735.895 472.324 739.898 472.929C741.717 473.208 743.465 473.945 744.777 475.265C746.135 476.628 746.905 478.426 746.85 480.36Z" fill="#77DBF2"/>
<path d="M704.805 472.955L446.288 472.9L446.212 472.57C480.488 472.121 514.806 472.443 549.086 472.438C575.72 472.438 602.468 471.96 629.089 472.65C629.682 469.417 629.28 465.693 629.216 462.397C654.42 463.023 679.67 462.219 704.881 462.604C704.848 466.049 704.75 469.506 704.805 472.955Z" fill="#407B9B"/>
<path d="M446.288 472.9C414.017 473.285 381.747 473.445 349.473 473.382C333.414 473.37 315.002 474.195 299.244 472.82C300.45 471.719 301.525 469.887 302.485 468.546C303.306 467.407 304.102 466.252 304.872 465.076C305.638 463.903 306.382 462.71 307.093 461.5C307.804 460.29 308.49 459.063 309.146 457.823C309.802 456.579 310.424 455.326 311.02 454.053C311.617 452.783 312.184 451.497 312.721 450.198C313.254 448.902 313.762 447.591 314.236 446.271C314.71 444.951 315.155 443.618 315.565 442.277C315.975 440.935 316.356 439.581 316.703 438.223C318.104 432.628 318.671 426.912 318.976 421.169C320.495 420.407 323.457 420.611 325.12 420.585C345.741 420.255 366.429 420.809 387.062 420.746L412.24 420.653C417.487 420.632 422.857 420.361 428.079 420.919C428.121 426.628 428.612 432.196 429.514 437.829C431.765 450.122 437.892 463.159 446.212 472.571L446.288 472.9Z" fill="#15CDF2"/>
<path d="M429.514 437.828L358.216 438.117C344.404 438.129 330.507 437.833 316.704 438.222C318.104 432.628 318.671 426.911 318.976 421.169C320.495 420.407 323.457 420.61 325.12 420.585C345.741 420.255 366.429 420.809 387.063 420.746L412.241 420.652C417.488 420.631 422.858 420.361 428.079 420.919C428.122 426.627 428.613 432.196 429.514 437.828Z" fill="#0A2D38"/>
<path d="M621.421 359.167C621.137 357.885 621.611 356.581 622.428 355.6C625.179 352.274 630.096 351.618 634.116 351.152C639.232 350.974 643.777 351.986 648.727 353.09C645.16 358.354 640.912 360.745 635.068 362.7C631.657 363.428 627.536 363.91 624.286 362.32C622.97 361.672 621.755 360.665 621.421 359.167Z" fill="#163E4A"/>
<path d="M716.552 380.092L716.539 390.218L711.986 390.269C710.704 414.394 707.501 438.59 704.881 462.604C679.669 462.219 654.419 463.023 629.216 462.397C629.279 465.693 629.681 469.417 629.089 472.65C628.433 468.232 629.102 463.595 628.611 459.092C626.055 436.203 623.867 413.28 622.039 390.32C619.898 390.341 617.837 390.286 615.7 390.074L615.717 379.935C623.232 379.982 661.897 381.027 665.756 379.791L665.532 379.246L665.883 379.322C666.585 379.825 666.678 380.143 667.567 380.05C683.888 380.084 700.231 380.304 716.552 380.092Z" fill="#163E4A"/>
<path d="M648.727 353.09C645.16 358.355 640.912 360.746 635.068 362.7C631.657 363.429 627.536 363.911 624.286 362.32C622.97 361.673 621.755 360.665 621.421 359.167C621.137 357.885 621.611 356.582 622.428 355.6C625.179 352.274 630.096 351.618 634.116 351.152C639.232 350.975 643.777 351.986 648.727 353.09Z" fill="#154D65"/>
<path d="M716.552 380.092L716.539 390.218L711.986 390.269C710.704 414.394 707.501 438.59 704.881 462.604C679.669 462.219 654.419 463.023 629.216 462.397C629.279 465.693 629.681 469.417 629.089 472.65C628.433 468.232 629.102 463.595 628.611 459.092C626.055 436.203 623.867 413.28 622.039 390.32C619.898 390.341 617.837 390.286 615.7 390.074L615.717 379.935C623.232 379.982 661.897 381.027 665.756 379.791L665.532 379.246L665.883 379.322C666.585 379.825 666.678 380.143 667.567 380.05C683.888 380.084 700.231 380.304 716.552 380.092Z" fill="#467D8A"/>
<path d="M716.552 380.092L716.539 390.219L711.986 390.269L648.529 390.155C637.933 390.125 626.097 389.203 615.7 390.075L615.717 379.936C623.232 379.982 661.897 381.027 665.756 379.792L665.532 379.246L665.883 379.322C666.585 379.826 666.678 380.143 667.567 380.05C683.888 380.084 700.231 380.304 716.552 380.092Z" fill="#407B9B"/>
<defs>
<linearGradient id="paint0_linear_93_3081" x1="52.1428" y1="280.278" x2="36.3726" y2="231.984" gradientUnits="userSpaceOnUse">
<stop stop-color="#15CDF2"/>
<stop offset="1" stop-color="#0B5062"/>
</linearGradient>
<linearGradient id="paint1_linear_93_3081" x1="105.895" y1="273.864" x2="126.494" y2="304.722" gradientUnits="userSpaceOnUse">
<stop stop-color="#15CDF2"/>
<stop offset="1" stop-color="#467D8A"/>
</linearGradient>
<linearGradient id="paint2_linear_93_3081" x1="75.571" y1="248.407" x2="98.196" y2="195.179" gradientUnits="userSpaceOnUse">
<stop stop-color="#15CDF2"/>
<stop offset="1" stop-color="#295F70"/>
</linearGradient>
<linearGradient id="paint3_linear_93_3081" x1="45.1291" y1="338.243" x2="23.323" y2="283.526" gradientUnits="userSpaceOnUse">
<stop stop-color="#15CDF2"/>
<stop offset="1" stop-color="#3A6777"/>
</linearGradient>
<linearGradient id="paint4_linear_93_3081" x1="122.683" y1="323.703" x2="138.844" y2="348.427" gradientUnits="userSpaceOnUse">
<stop stop-color="#15CDF2"/>
<stop offset="1" stop-color="#5C8A94"/>
</linearGradient>
</defs>
</svg>
