<svg width="500" height="500" viewBox="0 0 500 500" fill="none" xmlns="http://www.w3.org/2000/svg">
<path d="M165.54 286.98H69.1201V469.24H165.54V286.98Z" fill="#2A4D59"/>
<path d="M136.931 286.98H40.5107V469.24H136.931V286.98Z" fill="#123844"/>
<path d="M129.831 324.5H47.0605V295.61H129.831V324.5ZM48.0805 323.5H128.811V296.62H48.0805V323.5Z" fill="#2A4D59"/>
<path d="M73.3008 296.11H104.711V296.92C104.711 297.57 104.583 298.214 104.334 298.814C104.085 299.415 103.721 299.961 103.261 300.42C102.801 300.88 102.256 301.244 101.655 301.493C101.054 301.742 100.411 301.87 99.7608 301.87H78.2508C76.938 301.87 75.6789 301.348 74.7506 300.42C73.8223 299.492 73.3008 298.233 73.3008 296.92V296.11Z" fill="#1A3840"/>
<path d="M129.831 361.2H47.0605V332.3H129.831V361.2ZM48.0805 360.2H128.811V333.32H48.0805V360.2Z" fill="#2A4D59"/>
<path d="M73.3008 332.81H104.711V333.62C104.711 334.27 104.583 334.914 104.334 335.514C104.085 336.115 103.721 336.661 103.261 337.12C102.801 337.58 102.256 337.944 101.655 338.193C101.054 338.442 100.411 338.57 99.7608 338.57H78.2508C76.938 338.57 75.6789 338.048 74.7506 337.12C73.8223 336.192 73.3008 334.933 73.3008 333.62V332.81Z" fill="#1A3840"/>
<path d="M129.831 397.9H47.0605V369H129.831V397.9ZM48.0805 396.9H128.811V370H48.0805V396.9Z" fill="#2A4D59"/>
<path d="M73.3008 369.51H104.711V370.32C104.711 370.97 104.583 371.614 104.334 372.214C104.085 372.815 103.721 373.361 103.261 373.82C102.801 374.28 102.256 374.644 101.655 374.893C101.054 375.142 100.411 375.27 99.7608 375.27H78.2508C76.938 375.27 75.6789 374.748 74.7506 373.82C73.8223 372.892 73.3008 371.633 73.3008 370.32V369.51Z" fill="#1A3840"/>
<path d="M129.831 434.6H47.0605V405.7H129.831V434.6ZM48.0805 433.6H128.811V406.72H48.0805V433.6Z" fill="#2A4D59"/>
<path d="M73.3001 406.21H104.71V407C104.717 407.654 104.594 408.303 104.348 408.91C104.102 409.516 103.738 410.068 103.278 410.533C102.818 410.997 102.27 411.367 101.666 411.618C101.062 411.87 100.414 412 99.7601 412H78.2501C77.5958 412 76.948 411.87 76.3441 411.618C75.7403 411.367 75.1924 410.997 74.7321 410.533C74.2718 410.068 73.9082 409.516 73.6624 408.91C73.4166 408.303 73.2934 407.654 73.3001 407V406.19V406.21Z" fill="#1A3840"/>
<path d="M140.96 280.16H36.2305V289.24H140.96V280.16Z" fill="#1A3840"/>
<path d="M172.451 280.16H140.961V289.24H172.451V280.16Z" fill="#2A4D59"/>
<path d="M45.5807 469.24H40.5107V478.55H45.5807V469.24Z" fill="#2A4D59"/>
<path d="M76.8805 469.24H71.8105V478.55H76.8805V469.24Z" fill="#2A4D59"/>
<path d="M134.07 469.24H129V478.55H134.07V469.24Z" fill="#2A4D59"/>
<path d="M162.661 469.24H157.591V478.55H162.661V469.24Z" fill="#2A4D59"/>
<path d="M129.78 255.92L139.54 280.89L133.47 280.86L128.61 265.52L129.78 255.92Z" fill="#2A4D59"/>
<path d="M96.4508 232.85L93.0908 280.69L127.731 281.41L131.631 232.85H96.4508Z" fill="#1A3840"/>
<path d="M99.9101 236.7L97.1201 276.52L122.87 277.73L126.47 236.47L99.9101 236.7Z" fill="#0E2A33"/>
<path d="M105.561 242.33L103.471 270.32H117.681L120.191 242.33H105.561Z" fill="#2A4D59"/>
<path d="M449.93 47.25H320.65V279.5H449.93V47.25Z" fill="#1A3840"/>
<path d="M443.431 53.99H325.811V272.58H443.431V53.99Z" fill="#0E2A33"/>
<path d="M455.401 281.59L449.931 279.5V43.31H455.401V281.59Z" fill="#2A4D59"/>
<path d="M445.981 116.87H325.811V119.2H445.981V116.87Z" fill="#2A4D59"/>
<path d="M445.981 168.93H325.811V171.26H445.981V168.93Z" fill="#2A4D59"/>
<path d="M445.981 220.98H325.811V223.31H445.981V220.98Z" fill="#2A4D59"/>
<path d="M381.65 118.04V278.78H387.59V118.04H381.65Z" fill="#2A4D59"/>
<path d="M351.151 53.99H348.461V118.04H351.151V53.99Z" fill="#2A4D59"/>
<path d="M374.371 53.99H371.681V118.04H374.371V53.99Z" fill="#2A4D59"/>
<path d="M397.59 53.99H394.9V118.04H397.59V53.99Z" fill="#2A4D59"/>
<path d="M420.81 53.99H418.12V118.04H420.81V53.99Z" fill="#2A4D59"/>
<path d="M320.651 43.31H315.181V280.93H320.651V43.31Z" fill="#2A4D59"/>
<path d="M455.401 40.92H315.181V47.26H455.401V40.92Z" fill="#2A4D59"/>
<path d="M459.101 282.38H311.301V288.28H459.101V282.38Z" fill="#2A4D59"/>
<path d="M449.931 279.5L459.101 282.38H311.301L320.651 279.5H449.931Z" fill="#2A4D59"/>
<path d="M120.63 55.28C122.888 53.9142 125.32 52.8581 127.86 52.14L129.35 45L141.45 44.79L143.19 51.9C145.755 52.5252 148.224 53.494 150.53 54.78L156.65 50.78L165.35 59.18L161.56 65.43C162.923 67.6947 163.982 70.1289 164.71 72.67L171.87 74.16L172.08 86.26L165 88C164.363 90.563 163.392 93.0309 162.11 95.34L166.11 101.46L157.71 110.16L151.46 106.37C149.198 107.736 146.763 108.792 144.22 109.51L142.73 116.68L130.63 116.89L128.89 109.78C126.326 109.151 123.857 108.183 121.55 106.9L115.44 110.9L106.73 102.5L110.52 96.25C109.148 93.9851 108.085 91.5468 107.36 89L100.2 87.51L100 75.39L107.11 73.65C107.741 71.085 108.713 68.6163 110 66.31L106 60.2L114.4 51.49L120.66 55.28H120.63ZM127.07 71.4C125.281 73.2483 124.08 75.5859 123.62 78.1169C123.16 80.6479 123.461 83.2585 124.485 85.6183C125.51 87.978 127.211 89.9808 129.374 91.3732C131.537 92.7655 134.065 93.4848 136.637 93.44C139.209 93.3952 141.71 92.5882 143.823 91.1214C145.937 89.6545 147.567 87.5936 148.509 85.1996C149.45 82.8055 149.66 80.186 149.112 77.6726C148.564 75.1592 147.283 72.8648 145.43 71.08C142.951 68.6916 139.626 67.3839 136.184 67.4439C132.742 67.5039 129.464 68.9266 127.07 71.4Z" fill="#2A4D59"/>
<path d="M127.071 71.4C127.754 70.5639 128.572 69.8475 129.491 69.28C132.001 67.66 134.992 66.9538 137.961 67.28C140.011 67.4851 141.985 68.1702 143.721 69.28C145.711 70.5797 147.317 72.3892 148.371 74.52C149.532 76.8875 149.971 79.5449 149.631 82.16C149.262 84.9831 147.992 87.612 146.01 89.6565C144.029 91.701 141.441 93.0524 138.631 93.51C137.31 93.7527 135.959 93.7764 134.631 93.58C133.377 93.4287 132.153 93.0881 131.001 92.57C128.829 91.5925 126.96 90.0485 125.591 88.1C124.406 86.4103 123.638 84.4637 123.351 82.42C122.908 79.4655 123.509 76.449 125.051 73.89C125.576 72.9558 126.252 72.1146 127.051 71.4C127.131 71.46 126.271 72.25 125.271 74.03C123.878 76.5621 123.375 79.488 123.841 82.34C124.172 84.433 125.025 86.4092 126.319 88.0867C127.614 89.7642 129.31 91.0893 131.251 91.94C132.356 92.45 133.533 92.7873 134.741 92.94C135.997 93.1132 137.273 93.0862 138.521 92.86C141.174 92.4145 143.613 91.1299 145.482 89.1949C147.35 87.2599 148.549 84.7766 148.901 82.11C149.241 79.6371 148.844 77.1189 147.761 74.87C146.764 72.8488 145.253 71.1247 143.381 69.87C141.734 68.7872 139.858 68.1024 137.901 67.87C135.033 67.5091 132.126 68.1143 129.641 69.59C127.901 70.58 127.141 71.47 127.071 71.4Z" fill="#2A4D59"/>
<path d="M120.621 55.28L120.221 55.07L119.021 54.37L114.311 51.59H114.461L106.101 60.35V60.11L110.101 66.21L110.171 66.32L110.111 66.44C108.842 68.7321 107.887 71.1839 107.271 73.73V73.87H107.131L100.031 75.63L100.231 75.37C100.301 79.18 100.391 83.22 100.471 87.47L100.241 87.18L107.401 88.66H107.581L107.631 88.84C108.355 91.3508 109.407 93.7549 110.761 95.99L110.861 96.16L110.761 96.32L107.001 102.64V102.23L115.721 110.62H115.291L121.401 106.62L121.581 106.5L121.761 106.61C124.04 107.855 126.475 108.793 129.001 109.4L129.211 109.46L129.261 109.67C129.811 111.89 130.411 114.32 131.011 116.77L130.651 116.49L142.751 116.28L142.391 116.57L143.881 109.41V109.19L144.091 109.13C146.596 108.412 148.996 107.37 151.231 106.03L151.421 105.92L151.611 106.03L157.861 109.82L157.401 109.88L165.811 101.18V101.64L161.811 95.52L161.691 95.33L161.801 95.14C163.07 92.86 164.031 90.4222 164.661 87.89L164.711 87.68H164.921L172.021 85.94L171.751 86.29C171.691 82.1567 171.624 78.1267 171.551 74.2L171.831 74.52L164.641 73H164.441L164.391 72.81C163.677 70.2972 162.635 67.8897 161.291 65.65L161.191 65.48L161.291 65.32C162.591 63.17 163.851 61.1 165.091 59.07V59.45L156.451 51H156.801L150.681 55L150.541 55.09L150.401 55C148.118 53.7151 145.673 52.7431 143.131 52.11H142.991V51.96C142.371 49.38 141.811 47.05 141.281 44.86L141.491 45.02L129.391 45.18L129.551 45.05C128.941 47.91 128.441 50.25 128.021 52.2V52.27H127.951C126.043 52.8011 124.191 53.5144 122.421 54.4L121.121 55.08L120.681 55.3L121.001 55C121.271 54.83 121.691 54.57 122.271 54.26C124.04 53.315 125.904 52.5576 127.831 52L127.741 52.09C128.141 50.09 128.611 47.78 129.191 44.92V44.79H129.331L141.431 44.52H141.601V44.69C142.151 46.89 142.731 49.21 143.371 51.79L143.191 51.61C145.778 52.2402 148.27 53.212 150.601 54.5H150.331L156.431 50.5L156.621 50.37L156.781 50.53L165.511 58.92L165.681 59.09L165.561 59.3C164.331 61.3 163.071 63.41 161.781 65.56V65.23C163.174 67.5163 164.257 69.9779 165.001 72.55L164.741 72.31L171.911 73.79L172.171 73.85V74.12C172.237 78.06 172.311 82.0933 172.391 86.22V86.5L172.111 86.57L165.011 88.32L165.271 88.06C164.638 90.6559 163.659 93.155 162.361 95.49V95.11L166.361 101.22L166.521 101.47L166.321 101.68L157.921 110.39L157.711 110.6L157.461 110.45L151.211 106.66H151.581C149.294 108.042 146.832 109.112 144.261 109.84L144.531 109.56C144.011 112.02 143.531 114.46 143.031 116.72L143.001 117H142.711L130.611 117.2H130.321L130.251 116.91C129.651 114.46 129.061 112.03 128.511 109.81L128.781 110.07C126.184 109.432 123.684 108.446 121.351 107.14H121.721L115.601 111.14L115.361 111.3L115.171 111.1L106.471 102.69L106.281 102.5L106.421 102.28L110.221 96.03V96.36C108.842 94.076 107.776 91.6174 107.051 89.05L107.281 89.26L100.131 87.76H99.9007V87.5C99.8407 83.2533 99.7807 79.22 99.7207 75.4V75.18L99.9207 75.13L107.001 73.41L106.821 73.59C107.464 71.0057 108.453 68.52 109.761 66.2V66.43L105.761 60.3L105.681 60.17L105.781 60.06L114.241 51.41L114.301 51.34H114.381L119.001 54.25L120.181 55.01C120.334 55.0881 120.482 55.1784 120.621 55.28Z" fill="#2A4D59"/>
<path d="M195.091 31.64C196.442 30.82 197.899 30.1875 199.421 29.76L200.311 25.47L207.561 25.34L208.561 29.59C210.112 29.9646 211.605 30.5465 213.001 31.32L216.661 28.92L221.871 33.92L219.601 37.7C220.413 39.0451 221.045 40.4908 221.481 42L225.761 42.89L225.891 50.13L221.641 51.18C221.263 52.7141 220.681 54.1906 219.911 55.57L222.311 59.23L217.311 64.44L213.571 62.17C212.217 62.9918 210.757 63.6244 209.231 64.05L208.341 68.34L201.101 68.47L200.101 64.22C198.565 63.8393 197.085 63.2576 195.701 62.49L192.001 64.92L186.791 59.92L189.001 56.14C188.183 54.7874 187.551 53.331 187.121 51.81L182.831 50.92L182.711 43.68L186.961 42.68C187.339 41.1459 187.921 39.6694 188.691 38.29L186.291 34.63L191.291 29.42L195.031 31.69L195.091 31.64ZM199.001 41.29C197.936 42.3969 197.223 43.7946 196.952 45.3065C196.682 46.8184 196.865 48.3767 197.479 49.7844C198.094 51.1921 199.111 52.3862 200.404 53.2158C201.697 54.0454 203.206 54.4732 204.742 54.4453C206.278 54.4174 207.771 53.935 209.032 53.0589C210.294 52.1829 211.268 50.9526 211.83 49.5235C212.393 48.0943 212.52 46.5305 212.194 45.0294C211.868 43.5284 211.105 42.1575 210.001 41.09C209.267 40.3785 208.399 39.8191 207.448 39.4439C206.497 39.0687 205.482 38.8851 204.459 38.9037C203.437 38.9223 202.429 39.1427 201.492 39.5522C200.555 39.9617 199.709 40.5523 199.001 41.29Z" fill="#123844"/>
<path d="M199.001 41.29C199.393 40.7856 199.866 40.3497 200.401 40C201.901 39.0246 203.693 38.6004 205.471 38.8C206.696 38.9236 207.875 39.3347 208.911 40C210.104 40.7795 211.067 41.8635 211.701 43.14C212.046 43.8268 212.285 44.5618 212.411 45.32C212.541 46.1113 212.541 46.9187 212.411 47.71C212.181 49.3931 211.421 50.9593 210.242 52.1819C209.062 53.4045 207.525 54.2199 205.851 54.51C205.059 54.6347 204.253 54.6347 203.461 54.51C202.696 54.4162 201.95 54.2036 201.251 53.88C200.039 53.3313 198.985 52.487 198.185 51.4246C197.384 50.3623 196.864 49.1159 196.671 47.8C196.41 46.0356 196.763 44.2351 197.671 42.7C198.03 42.1575 198.48 41.6806 199.001 41.29C198.617 41.7943 198.26 42.3183 197.931 42.86C197.097 44.3849 196.798 46.1452 197.081 47.86C197.263 49.0266 197.718 50.1336 198.411 51.09C199.202 52.1877 200.272 53.0543 201.511 53.6C202.173 53.9033 202.878 54.1023 203.601 54.19C204.355 54.2932 205.121 54.2763 205.871 54.14C207.442 53.8518 208.881 53.0734 209.983 51.9164C211.084 50.7594 211.79 49.2834 212.001 47.7C212.121 46.9481 212.121 46.1819 212.001 45.43C211.886 44.7108 211.663 44.013 211.341 43.36C210.789 42.2182 209.96 41.2328 208.929 40.4939C207.899 39.7549 206.699 39.286 205.441 39.13C203.729 38.9044 201.99 39.2563 200.501 40.13C199.982 40.4916 199.481 40.8787 199.001 41.29Z" fill="#123844"/>
<path d="M195.09 31.64L194.85 31.51L194.13 31.1L191.31 29.43H191.4L186.4 34.67V34.53L188.82 38.18V38.24V38.31C188.063 39.6851 187.491 41.1546 187.12 42.68V42.76H187.03L182.78 43.76L182.9 43.6C182.953 45.88 183.003 48.2967 183.05 50.85L182.91 50.68L187.2 51.56H187.31V51.67C187.737 53.1936 188.373 54.6507 189.2 56L189.26 56.1L189.2 56.2C188.49 57.36 187.72 58.64 186.93 59.95V59.7L192.15 64.7H191.89L195.55 62.3L195.65 62.23L195.77 62.29C197.126 63.0449 198.575 63.6197 200.08 64H200.21V64.12C200.53 65.46 200.89 66.91 201.21 68.38L201 68.21L208.24 68.08L208.03 68.26C208.31 66.9 208.61 65.44 208.92 63.97V63.84H209.05C210.584 63.4286 212.054 62.8095 213.42 62L213.54 61.93L213.65 62L217.39 64.27H217.12L222.12 59.06V59.33L219.73 55.67L219.66 55.56L219.72 55.44C220.483 54.0768 221.058 52.617 221.43 51.1V50.98H221.56L225.81 49.98L225.65 50.19C225.65 47.71 225.57 45.3 225.53 42.94L225.69 43.14L221.41 42.24H221.29V42.12C220.862 40.6174 220.237 39.1782 219.43 37.84L219.37 37.74L219.43 37.64L221.71 33.9V34.13L216.51 29.13H216.72L213.05 31.52L212.97 31.57L212.89 31.52C211.52 30.7552 210.053 30.1767 208.53 29.8H208.45V29.72C208.07 28.17 207.74 26.78 207.45 25.46L207.58 25.56L200.34 25.66L200.43 25.58C200.06 27.29 199.76 28.69 199.51 29.86C198.368 30.1778 197.259 30.6065 196.2 31.14L195.42 31.55L195.16 31.68C195.233 31.6136 195.313 31.5565 195.4 31.51C195.57 31.41 195.82 31.26 196.17 31.07C197.219 30.5073 198.326 30.0581 199.47 29.73H199.42C199.66 28.56 199.94 27.15 200.29 25.44V25.36H200.37L207.61 25.2H207.72V25.3C208.05 26.61 208.4 28 208.78 29.55L208.67 29.44C210.22 29.8194 211.712 30.401 213.11 31.17H212.95L216.6 28.76L216.71 28.69L216.81 28.78L222.03 33.78L222.14 33.88L222.06 34.01L219.8 37.76V37.56C220.621 38.9489 221.25 40.4424 221.67 42L221.52 41.86L225.81 42.75H225.97V42.92C225.97 45.27 226.06 47.69 226.1 50.16V50.33H225.93L221.68 51.33L221.84 51.18C221.456 52.734 220.867 54.2303 220.09 55.63V55.4L222.49 59.06L222.59 59.21L222.47 59.33L217.47 64.55L217.35 64.67L217.19 64.58L213.45 62.31H213.68C212.309 63.1308 210.836 63.7695 209.3 64.21L209.45 64.04C209.15 65.51 208.84 66.97 208.56 68.33V68.5H208.39L201.14 68.63H200.97V68.46C200.61 66.99 200.25 65.54 199.97 64.21L200.13 64.36C198.576 63.9772 197.079 63.3886 195.68 62.61H195.9L192.24 65.01L192.1 65.1L191.98 64.99L186.77 59.99L186.66 59.88L186.74 59.74L188.87 56V56.2C188.042 54.8326 187.403 53.3591 186.97 51.82L187.11 51.95L182.83 51.05H182.69V50.91C182.69 48.37 182.61 45.91 182.58 43.67V43.54H182.71L186.96 42.54L186.86 42.65C187.24 41.1039 187.828 39.6169 188.61 38.23V38.36C187.75 37.04 186.95 35.8 186.22 34.69L186.17 34.62L186.24 34.55L191.3 29.37L194.14 31L194.85 31.45C194.935 31.5071 195.015 31.5706 195.09 31.64Z" fill="#123844"/>
<path d="M127.921 137.95H46.0605V223.29H127.921V137.95Z" fill="#2A4D59"/>
<path d="M122.381 137.95H40.5205V223.29H122.381V137.95Z" fill="#1A3840"/>
<path d="M111.381 149.42H51.5205V211.81H111.381V149.42Z" fill="#0E2A33"/>
<path d="M51.5206 212.23C51.0819 212.845 50.5827 213.414 50.0306 213.93C49.0306 214.93 47.7206 216.29 46.2106 217.77C44.7006 219.25 43.3306 220.58 42.3106 221.53C41.7925 222.077 41.2194 222.57 40.6006 223C41.0381 222.387 41.5374 221.821 42.0906 221.31C43.0906 220.31 44.4006 218.94 45.9106 217.45C47.4206 215.96 48.8006 214.64 49.8206 213.69C50.3368 213.147 50.9063 212.658 51.5206 212.23Z" fill="#2A4D59"/>
<path d="M111.381 212.08C111.994 212.518 112.56 213.017 113.071 213.57C114.071 214.57 115.441 215.88 116.921 217.39C118.401 218.9 119.731 220.27 120.681 221.29C121.225 221.809 121.714 222.382 122.141 223C121.528 222.562 120.962 222.063 120.451 221.51C119.451 220.51 118.081 219.2 116.591 217.69C115.101 216.18 113.781 214.8 112.831 213.78C112.292 213.263 111.806 212.694 111.381 212.08Z" fill="#2A4D59"/>
<path d="M111.221 149.59C111.656 148.973 112.156 148.403 112.711 147.89C113.711 146.89 115.021 145.53 116.521 144.04C118.021 142.55 119.411 141.23 120.431 140.29C120.946 139.742 121.519 139.253 122.141 138.83C121.7 139.44 121.201 140.006 120.651 140.52C119.651 141.52 118.341 142.89 116.831 144.37C115.321 145.85 113.931 147.19 112.921 148.13C112.402 148.67 111.833 149.159 111.221 149.59Z" fill="#2A4D59"/>
<path d="M51.3606 149.74C50.7442 149.299 50.1746 148.797 49.6606 148.24C48.6606 147.24 47.3006 145.94 45.8206 144.43C44.3406 142.92 43.0106 141.54 42.0606 140.53C41.5224 140.006 41.0336 139.434 40.6006 138.82C41.2164 139.254 41.7831 139.753 42.2906 140.31C43.2906 141.31 44.6606 142.62 46.1506 144.13C47.6406 145.64 49.0006 147 49.9006 148C50.4493 148.525 50.9389 149.108 51.3606 149.74Z" fill="#2A4D59"/>
<path d="M111.221 211.81C111.221 211.81 111.221 211.71 111.221 211.51C111.221 211.31 111.221 211.02 111.221 210.64C111.221 209.87 111.221 208.74 111.221 207.28C111.221 204.33 111.221 200.03 111.221 194.57C111.221 183.64 111.161 168.07 111.121 149.42L111.321 149.62H51.6307L51.8607 149.39C51.8607 172.29 51.8607 193.72 51.8607 211.78L51.6607 211.59L94.9007 211.69L107.031 211.74H110.241H111.361H111.091H110.281H107.111H95.0207L51.6607 211.84H51.4707V211.64C51.4707 193.58 51.4707 172.15 51.4707 149.25V149.03H51.7007H111.391H111.581V149.23C111.581 167.93 111.511 183.55 111.481 194.5C111.481 199.95 111.481 204.23 111.481 207.17C111.481 208.62 111.481 209.73 111.481 210.5C111.481 210.86 111.481 211.14 111.481 211.35C111.481 211.56 111.221 211.81 111.221 211.81Z" fill="#2A4D59"/>
<path d="M67.3203 175.49C67.3203 175.49 66.0003 190.94 82.7703 190.94C82.7703 182.69 76.0003 176.18 67.3203 175.49Z" fill="#1A3840"/>
<path d="M97.9302 175.5C97.9302 175.5 82.4902 174.22 82.4902 191C90.7302 191 97.2402 184.14 97.9302 175.5Z" fill="#1A3840"/>
<path d="M82.0007 167C82.0007 167 69.3807 178.33 82.6907 190.9C88.9107 184.38 88.3807 174.09 82.0007 167Z" fill="#2A4D59"/>
<path d="M385.741 417.69C368.741 408.48 349.551 391.69 342.101 372.69C360.521 382.19 376.041 398.2 385.741 417.69Z" fill="#15CDF2"/>
<path d="M384.63 389.13C367.63 379.91 348.44 363.13 340.98 344.13C359.41 353.63 374.93 369.64 384.63 389.13Z" fill="#15CDF2"/>
<path d="M382.09 361.2C365.09 351.99 345.89 335.2 338.44 316.2C356.86 325.71 372.39 341.72 382.09 361.2Z" fill="#15CDF2"/>
<path d="M378.36 331.87C362.55 320.35 345.54 301.05 340.36 281.12C357.51 293.12 371.01 311.17 378.36 331.87Z" fill="#15CDF2"/>
<path d="M373.55 309.24C362.85 292.13 353.72 267.3 355.81 246.73C367.737 265.371 373.907 287.113 373.55 309.24Z" fill="#15CDF2"/>
<path d="M376 320C380.5 298.65 391.46 272.3 407.24 257.46C402.614 280.728 391.825 302.326 376 320Z" fill="#15CDF2"/>
<path d="M379.49 344.17C385.93 322.32 399.49 295.84 417.17 281.75C410.452 305.567 397.435 327.131 379.49 344.17Z" fill="#15CDF2"/>
<path d="M383.36 373.58C389.81 351.74 403.36 325.25 421.05 311.17C414.331 334.986 401.31 356.547 383.36 373.58Z" fill="#15CDF2"/>
<path d="M385.311 409.43C391.761 387.58 405.311 361.1 423.001 347.02C416.276 370.833 403.256 392.393 385.311 409.43Z" fill="#15CDF2"/>
<path d="M373.12 304.94C373.12 304.94 373.17 305.05 373.23 305.28C373.29 305.51 373.37 305.89 373.47 306.28L374.34 310.28C375.09 313.72 376.08 318.73 377.19 324.93C378.3 331.13 379.51 338.55 380.68 346.81C381.85 355.07 382.9 364.17 383.79 373.75C384.68 383.33 385.25 392.49 385.64 400.81C386.03 409.13 386.18 416.65 386.2 422.96C386.22 429.27 386.2 434.36 386.07 437.89C386.02 439.61 385.98 440.97 385.94 441.95C385.94 442.38 385.94 442.72 385.89 443C385.907 443.119 385.907 443.241 385.89 443.36C385.877 443.24 385.877 443.12 385.89 443C385.89 442.72 385.89 442.37 385.89 441.94V437.89C385.89 434.36 385.89 429.26 385.8 422.96C385.71 416.66 385.48 409.17 385.09 400.85C384.7 392.53 384.09 383.39 383.19 373.85C382.29 364.31 381.19 355.19 380.13 346.93C379.07 338.67 377.87 331.27 376.8 325.06C375.73 318.85 374.8 313.83 374.16 310.37C373.85 308.68 373.6 307.37 373.43 306.37L373.25 305.37C373.194 305.231 373.15 305.087 373.12 304.94Z" fill="#77DBF2"/>
<g opacity="0.3">
<path d="M385.741 417.69C368.741 408.48 349.551 391.69 342.101 372.69C360.521 382.19 376.041 398.2 385.741 417.69Z" fill="#0A2D38"/>
</g>
<g opacity="0.3">
<path d="M384.63 389.13C367.63 379.91 348.44 363.13 340.98 344.13C359.41 353.63 374.93 369.64 384.63 389.13Z" fill="#0A2D38"/>
</g>
<g opacity="0.3">
<path d="M382.09 361.2C365.09 351.99 345.89 335.2 338.44 316.2C356.86 325.71 372.39 341.72 382.09 361.2Z" fill="#0A2D38"/>
</g>
<g opacity="0.3">
<path d="M378.36 331.87C362.55 320.35 345.54 301.05 340.36 281.12C357.51 293.12 371.01 311.17 378.36 331.87Z" fill="#0A2D38"/>
</g>
<g opacity="0.3">
<path d="M373.55 309.24C362.85 292.13 353.72 267.3 355.81 246.73C367.737 265.371 373.907 287.113 373.55 309.24Z" fill="#0A2D38"/>
</g>
<g opacity="0.3">
<path d="M376 320C380.5 298.65 391.46 272.3 407.24 257.46C402.614 280.728 391.825 302.326 376 320Z" fill="#0A2D38"/>
</g>
<g opacity="0.3">
<path d="M379.49 344.17C385.93 322.32 399.49 295.84 417.17 281.75C410.452 305.567 397.435 327.131 379.49 344.17Z" fill="#0A2D38"/>
</g>
<g opacity="0.3">
<path d="M383.36 373.58C389.81 351.74 403.36 325.25 421.05 311.17C414.331 334.986 401.31 356.547 383.36 373.58Z" fill="#0A2D38"/>
</g>
<g opacity="0.3">
<path d="M385.311 409.43C391.761 387.58 405.311 361.1 423.001 347.02C416.276 370.833 403.256 392.393 385.311 409.43Z" fill="#0A2D38"/>
</g>
<path d="M390.05 423.46C379.68 409.77 370.05 389.51 370.16 372.12C381.648 386.931 388.561 404.775 390.05 423.46Z" fill="#15CDF2"/>
<path d="M398.071 401.32C387.701 387.63 378.071 367.37 378.181 349.98C389.665 364.793 396.578 382.636 398.071 401.32Z" fill="#15CDF2"/>
<path d="M404.781 379.11C394.411 365.42 384.781 345.16 384.881 327.77C396.368 342.582 403.284 360.425 404.781 379.11Z" fill="#15CDF2"/>
<path d="M411 355.37C402.31 340.37 395.1 319.06 397.31 301.91C406.959 318.026 411.715 336.6 411 355.37Z" fill="#15CDF2"/>
<path d="M414.31 336.29C411.31 319.09 411.95 296.64 419.97 281.84C423.489 300.151 421.52 319.094 414.31 336.29Z" fill="#15CDF2"/>
<path d="M412.841 345.43C423.001 331 439.681 315.27 456.551 310.2C445.786 326.008 430.574 338.268 412.841 345.43Z" fill="#15CDF2"/>
<path d="M408.061 365.15C419.851 351.09 438.631 336.31 456.721 332.55C444.092 348.002 427.154 359.349 408.061 365.15Z" fill="#15CDF2"/>
<path d="M401.921 389C413.711 374.94 432.501 360.15 450.591 356.39C437.957 371.843 421.017 383.193 401.921 389Z" fill="#15CDF2"/>
<path d="M392.28 417C404.08 402.93 422.86 388.15 440.95 384.39C428.318 399.844 411.377 411.194 392.28 417Z" fill="#15CDF2"/>
<path d="M415.31 332.85C415.31 332.85 415.31 332.96 415.31 333.15C415.31 333.34 415.24 333.67 415.19 334.02C415.05 334.83 414.87 335.93 414.64 337.33C414.16 340.21 413.38 344.33 412.33 349.47C410.24 359.7 406.92 373.75 402.33 389C400.02 396.63 397.63 403.84 395.33 410.35C393.03 416.86 390.81 422.66 388.84 427.49C386.87 432.32 385.25 436.23 384.05 438.89L382.67 442L382.3 442.79C382.21 442.97 382.16 443.06 382.15 443.05C382.166 442.953 382.197 442.858 382.24 442.77C382.32 442.55 382.43 442.28 382.55 441.95C382.86 441.19 383.29 440.15 383.82 438.84C384.94 436.15 386.52 432.23 388.42 427.38C390.32 422.53 392.47 416.7 394.77 410.2C397.07 403.7 399.39 396.48 401.69 388.87C406.27 373.63 409.69 359.62 411.86 349.43C412.97 344.33 413.86 340.2 414.37 337.34C414.65 335.95 414.87 334.85 415.04 334.04C415.11 333.7 415.18 333.42 415.23 333.19C415.239 333.073 415.266 332.958 415.31 332.85Z" fill="#77DBF2"/>
<path d="M406.31 479.21H369.87L363.07 428.99H413.3L406.31 479.21Z" fill="#295F70"/>
<path d="M417.821 428.48H358.561V436.29H417.821V428.48Z" fill="#295F70"/>
<path d="M417.81 436.42C417.81 436.56 404.7 436.68 388.52 436.68C372.34 436.68 359.23 436.56 359.23 436.42C359.23 436.28 372.35 436.16 388.52 436.16C404.69 436.16 417.81 436.27 417.81 436.42Z" fill="#77DBF2"/>
<path d="M334.431 61.44H174.471C160.476 61.44 149.131 72.7851 149.131 86.78V453.21C149.131 467.205 160.476 478.55 174.471 478.55H334.431C348.426 478.55 359.771 467.205 359.771 453.21V86.78C359.771 72.7851 348.426 61.44 334.431 61.44Z" fill="#295F70"/>
<path d="M356.44 453.01V86.99C356.44 74.7127 346.488 64.76 334.21 64.76L174.67 64.76C162.393 64.76 152.44 74.7127 152.44 86.99L152.44 453.01C152.44 465.287 162.393 475.24 174.67 475.24H334.21C346.488 475.24 356.44 465.287 356.44 453.01Z" fill="#77DBF2"/>
<path d="M239.32 77.9C238.7 77.9 238.105 77.6535 237.666 77.2146C237.227 76.7758 236.98 76.1806 236.98 75.56C236.98 74.9394 237.227 74.3442 237.666 73.9054C238.105 73.4665 238.7 73.22 239.32 73.22H269.44C270.061 73.22 270.656 73.4665 271.095 73.9054C271.534 74.3442 271.78 74.9394 271.78 75.56C271.78 76.1806 271.534 76.7758 271.095 77.2146C270.656 77.6535 270.061 77.9 269.44 77.9H239.32Z" fill="#295F70"/>
<path d="M223.17 77.9C222.707 77.9 222.255 77.7628 221.87 77.5056C221.485 77.2485 221.185 76.8831 221.008 76.4555C220.831 76.0279 220.785 75.5574 220.875 75.1035C220.965 74.6496 221.188 74.2326 221.515 73.9054C221.843 73.5781 222.26 73.3553 222.714 73.265C223.167 73.1747 223.638 73.221 224.066 73.3981C224.493 73.5752 224.859 73.8752 225.116 74.26C225.373 74.6448 225.51 75.0972 225.51 75.56C225.507 76.1798 225.26 76.7735 224.822 77.2117C224.384 77.65 223.79 77.8974 223.17 77.9Z" fill="#295F70"/>
<path d="M231.79 77.9C231.327 77.9 230.875 77.7628 230.49 77.5056C230.105 77.2485 229.805 76.8831 229.628 76.4555C229.451 76.0279 229.405 75.5574 229.495 75.1035C229.585 74.6496 229.808 74.2326 230.136 73.9054C230.463 73.5781 230.88 73.3553 231.334 73.265C231.788 73.1747 232.258 73.221 232.686 73.3981C233.113 73.5752 233.479 73.8752 233.736 74.26C233.993 74.6448 234.13 75.0972 234.13 75.56C234.13 76.1806 233.884 76.7758 233.445 77.2146C233.006 77.6535 232.411 77.9 231.79 77.9Z" fill="#295F70"/>
<path d="M285.731 77.9C285.268 77.9 284.815 77.7628 284.431 77.5056C284.046 77.2485 283.746 76.8831 283.569 76.4555C283.392 76.0279 283.345 75.5574 283.436 75.1035C283.526 74.6496 283.749 74.2326 284.076 73.9054C284.403 73.5781 284.82 73.3553 285.274 73.265C285.728 73.1747 286.199 73.221 286.626 73.3981C287.054 73.5752 287.419 73.8752 287.676 74.26C287.933 74.6448 288.071 75.0972 288.071 75.56C288.068 76.1798 287.821 76.7735 287.382 77.2117C286.944 77.65 286.35 77.8974 285.731 77.9Z" fill="#295F70"/>
<path d="M277.11 77.9C276.648 77.9 276.195 77.7628 275.81 77.5056C275.426 77.2485 275.126 76.8831 274.949 76.4555C274.772 76.0279 274.725 75.5574 274.815 75.1035C274.906 74.6496 275.129 74.2326 275.456 73.9054C275.783 73.5781 276.2 73.3553 276.654 73.265C277.108 73.1747 277.578 73.221 278.006 73.3981C278.434 73.5752 278.799 73.8752 279.056 74.26C279.313 74.6448 279.451 75.0972 279.451 75.56C279.448 76.1798 279.2 76.7735 278.762 77.2117C278.324 77.65 277.73 77.8974 277.11 77.9Z" fill="#295F70"/>
<path d="M337.23 67.57H300.76C299.426 67.5678 298.127 67.9983 297.057 68.797C295.988 69.5957 295.207 70.7196 294.83 72L292.51 80C292.093 81.441 291.218 82.7074 290.019 83.609C288.82 84.5106 287.361 84.9987 285.86 85H223C221.5 84.9987 220.041 84.5106 218.842 83.609C217.642 82.7074 216.768 81.441 216.35 80L214.03 72C213.656 70.714 212.875 69.5842 211.804 68.78C210.733 67.9758 209.43 67.5407 208.09 67.54H179.77C176.805 67.54 173.869 68.1241 171.129 69.2588C168.39 70.3936 165.901 72.0568 163.804 74.1535C161.707 76.2503 160.044 78.7395 158.909 81.479C157.774 84.2186 157.19 87.1548 157.19 90.12V454.44C157.19 458.487 158.798 462.369 161.66 465.23C164.522 468.092 168.403 469.7 172.45 469.7H338.3C341.854 469.7 345.263 468.288 347.776 465.775C350.289 463.262 351.7 459.854 351.7 456.3V82C351.69 78.1693 350.161 74.499 347.448 71.794C344.736 69.089 341.061 67.57 337.23 67.57Z" fill="#0E2A33"/>
<path d="M345.19 74.3C343.093 72.1672 340.592 70.4735 337.832 69.318C335.073 68.1625 332.112 67.5683 329.12 67.57H296.12L291.06 85H217.84L212.77 67.55H172C168.086 67.55 164.331 69.1051 161.563 71.8731C158.795 74.6411 157.24 78.3954 157.24 82.31V346.09L157.82 346.16C176.82 348.22 195.22 336.3 205.63 320.32C216.04 304.34 219.66 284.94 221.5 266C223.34 247.06 223.56 227.77 228.02 209.22C235.728 177.78 255.011 150.404 282.02 132.56C295.25 123.92 310.02 117.75 322.67 108.23C333.78 99.81 343.33 87.82 345.19 74.3Z" fill="#123844"/>
<path d="M351.701 460.55V343.84C336.698 345.496 322.287 350.628 309.615 358.828C296.943 367.029 286.358 378.072 278.701 391.08C265.131 414.59 262.441 444.02 271.111 469.7H342.571C344.994 469.695 347.316 468.728 349.028 467.013C350.74 465.298 351.701 462.973 351.701 460.55Z" fill="#123844"/>
<path d="M360.071 200.04H359.761V152.14H360.071C360.354 152.14 360.627 152.253 360.827 152.453C361.028 152.654 361.141 152.926 361.141 153.21V198.97C361.141 199.254 361.028 199.526 360.827 199.727C360.627 199.927 360.354 200.04 360.071 200.04Z" fill="#295F70"/>
<path d="M148.76 181.64H149.13V212H148.76C148.477 212 148.204 211.887 148.004 211.687C147.803 211.486 147.69 211.214 147.69 210.93V182.71C147.69 182.426 147.803 182.154 148.004 181.953C148.204 181.753 148.477 181.64 148.76 181.64Z" fill="#295F70"/>
<path d="M148.76 142H149.13V172.35H148.76C148.477 172.35 148.204 172.237 148.004 172.037C147.803 171.836 147.69 171.564 147.69 171.28V143.06C147.693 142.778 147.807 142.508 148.007 142.31C148.208 142.111 148.478 142 148.76 142Z" fill="#295F70"/>
<path d="M148.841 112.23H149.131V126.34H148.841C148.589 126.34 148.347 126.24 148.169 126.062C147.991 125.884 147.891 125.642 147.891 125.39V113.17C147.893 112.92 147.995 112.681 148.172 112.505C148.35 112.329 148.59 112.23 148.841 112.23Z" fill="#295F70"/>
<path d="M305.93 81.14H304.48V83.17H305.93V81.14Z" fill="#77DBF2"/>
<path d="M308.291 80.24H306.841V83.17H308.291V80.24Z" fill="#77DBF2"/>
<path d="M310.64 79.56H309.19V83.17H310.64V79.56Z" fill="#77DBF2"/>
<path d="M313.001 78.25H311.551V83.17H313.001V78.25Z" fill="#77DBF2"/>
<path d="M334.35 83.27H327.09C326.952 83.27 326.82 83.2152 326.723 83.1177C326.625 83.0202 326.57 82.8879 326.57 82.75V79.14C326.57 79.0038 326.624 78.873 326.719 78.7758C326.814 78.6786 326.944 78.6226 327.08 78.62H334.35C334.383 78.6106 334.418 78.6106 334.45 78.62C334.46 78.6526 334.46 78.6874 334.45 78.72V80H335.23C335.248 79.9986 335.266 80.001 335.283 80.0069C335.3 80.0128 335.316 80.0222 335.329 80.0344C335.342 80.0466 335.352 80.0614 335.36 80.0778C335.367 80.0943 335.37 80.1121 335.37 80.13V81.87C335.37 81.888 335.367 81.9057 335.36 81.9222C335.352 81.9386 335.342 81.9534 335.329 81.9657C335.316 81.9779 335.3 81.9872 335.283 81.9931C335.266 81.999 335.248 82.0014 335.23 82H334.45V83.19C334.442 83.2108 334.428 83.2292 334.411 83.2432C334.393 83.2572 334.372 83.2664 334.35 83.27ZM334.22 78.89H327.08C327.048 78.89 327.016 78.8965 326.986 78.9092C326.956 78.9219 326.929 78.9404 326.907 78.9638C326.885 78.9872 326.867 79.0148 326.856 79.0451C326.844 79.0754 326.839 79.1077 326.84 79.14V82.75C326.84 82.8173 326.866 82.8819 326.913 82.9304C326.96 82.9789 327.023 83.0074 327.09 83.01H334.22V81.82C334.22 81.7855 334.234 81.7525 334.258 81.7281C334.283 81.7037 334.316 81.69 334.35 81.69H335.13V80.21H334.35C334.316 80.21 334.283 80.1963 334.258 80.1719C334.234 80.1476 334.22 80.1145 334.22 80.08V78.89Z" fill="#77DBF2"/>
<path d="M327.431 82.42V79.48H333.631V80.81V81.09V82.42H327.431Z" fill="#77DBF2"/>
<path d="M319.92 83C319.92 82.8594 319.865 82.7246 319.765 82.6252C319.666 82.5258 319.531 82.47 319.39 82.47C319.321 82.4686 319.251 82.4814 319.186 82.5076C319.121 82.5337 319.062 82.5727 319.013 82.6222C318.963 82.6717 318.924 82.7307 318.898 82.7956C318.872 82.8605 318.859 82.93 318.86 83C318.86 83.1406 318.916 83.2754 319.016 83.3748C319.115 83.4742 319.25 83.53 319.39 83.53C319.531 83.53 319.666 83.4742 319.765 83.3748C319.865 83.2754 319.92 83.1406 319.92 83Z" fill="#77DBF2"/>
<path d="M317.58 81.72L318.25 82.39C318.552 82.0902 318.96 81.9219 319.385 81.9219C319.81 81.9219 320.218 82.0902 320.52 82.39L321.2 81.72C320.963 81.4818 320.681 81.293 320.37 81.1642C320.059 81.0355 319.726 80.9695 319.39 80.97C319.054 80.9673 318.72 81.0323 318.409 81.1611C318.098 81.29 317.816 81.48 317.58 81.72Z" fill="#77DBF2"/>
<path d="M319.391 79.46C318.855 79.4556 318.325 79.5586 317.83 79.763C317.335 79.9674 316.887 80.269 316.511 80.65L317.191 81.33C317.478 81.0377 317.82 80.8057 318.198 80.6477C318.576 80.4897 318.981 80.4089 319.391 80.41C319.8 80.4111 320.205 80.4929 320.582 80.6508C320.96 80.8086 321.303 81.0395 321.591 81.33L322.261 80.65C321.886 80.2703 321.439 79.9693 320.946 79.765C320.453 79.5606 319.924 79.4569 319.391 79.46Z" fill="#77DBF2"/>
<path d="M315.41 79.55L316.08 80.23C316.514 79.7955 317.029 79.4508 317.596 79.2156C318.163 78.9804 318.771 78.8594 319.385 78.8594C319.999 78.8594 320.607 78.9804 321.174 79.2156C321.741 79.4508 322.256 79.7955 322.69 80.23L323.37 79.55C322.847 79.0215 322.224 78.602 321.537 78.3157C320.85 78.0294 320.114 77.8819 319.37 77.8819C318.626 77.8819 317.89 78.0294 317.203 78.3157C316.517 78.602 315.894 79.0215 315.37 79.55H315.41Z" fill="#77DBF2"/>
<path d="M300.219 234.216C305.564 221.073 299.242 206.085 286.099 200.741C272.956 195.396 257.969 201.717 252.624 214.86C247.279 228.003 253.601 242.991 266.744 248.335C279.887 253.68 294.874 247.359 300.219 234.216Z" fill="#123844"/>
<path d="M185.71 173.14C185.71 166.61 189.13 162.71 193.88 162.71C198.63 162.71 202.07 166.61 202.07 173.14C202.07 179.67 198.62 183.56 193.88 183.56C189.14 183.56 185.71 179.67 185.71 173.14ZM199.91 173.14C199.91 167.66 197.45 164.64 193.91 164.64C190.37 164.64 187.91 167.64 187.91 173.14C187.91 178.64 190.37 181.63 193.91 181.63C197.45 181.63 199.91 178.61 199.91 173.14Z" fill="#77DBF2"/>
<path d="M219.88 173C219.88 180 216.07 183.6 210.51 183.6C208.82 183.674 207.141 183.291 205.65 182.49L206.5 180.79C207.707 181.506 209.098 181.854 210.5 181.79C214.92 181.79 217.76 178.95 217.76 173.38C217.76 172.91 217.76 172.33 217.67 171.71C216.67 173.97 214.25 175.23 211.41 175.23C207.34 175.23 204.5 172.83 204.5 169.08C204.5 165.33 207.5 162.78 211.5 162.78C216.92 162.71 219.88 166.49 219.88 173ZM216.98 168.93C216.98 166.68 215.11 164.54 211.56 164.54C208.61 164.54 206.56 166.27 206.56 168.99C206.56 171.71 208.56 173.41 211.71 173.41C214.86 173.41 217 171.44 217 168.89L216.98 168.93Z" fill="#77DBF2"/>
<path d="M223 169.45C222.996 169.243 223.034 169.037 223.11 168.845C223.187 168.653 223.302 168.478 223.447 168.331C223.592 168.184 223.766 168.067 223.957 167.988C224.148 167.909 224.353 167.869 224.56 167.87C224.979 167.87 225.381 168.036 225.678 168.333C225.974 168.629 226.14 169.031 226.14 169.45C226.14 169.872 225.975 170.277 225.679 170.578C225.384 170.879 224.982 171.052 224.56 171.06C224.14 171.052 223.741 170.878 223.448 170.577C223.156 170.275 222.995 169.87 223 169.45ZM223 181.92C222.996 181.713 223.034 181.507 223.11 181.315C223.187 181.123 223.302 180.948 223.447 180.801C223.592 180.654 223.766 180.537 223.957 180.458C224.148 180.379 224.353 180.339 224.56 180.34C224.979 180.34 225.381 180.506 225.678 180.803C225.974 181.099 226.14 181.501 226.14 181.92C226.143 182.343 225.978 182.749 225.682 183.051C225.386 183.352 224.983 183.525 224.56 183.53C224.352 183.527 224.146 183.484 223.955 183.401C223.763 183.319 223.59 183.199 223.445 183.05C223.3 182.9 223.186 182.723 223.11 182.529C223.034 182.335 222.996 182.128 223 181.92Z" fill="#77DBF2"/>
<path d="M229.131 173.14C229.131 166.61 232.561 162.71 237.301 162.71C242.041 162.71 245.501 166.61 245.501 173.14C245.501 179.67 242.051 183.56 237.301 183.56C232.551 183.56 229.131 179.67 229.131 173.14ZM243.331 173.14C243.331 167.66 240.871 164.64 237.331 164.64C233.791 164.64 231.331 167.64 231.331 173.14C231.331 178.64 233.791 181.63 237.331 181.63C240.871 181.63 243.331 178.61 243.331 173.14Z" fill="#77DBF2"/>
<path d="M248.521 173.14C248.521 166.61 251.941 162.71 256.691 162.71C261.441 162.71 264.891 166.61 264.891 173.14C264.891 179.67 261.431 183.56 256.691 183.56C251.951 183.56 248.521 179.67 248.521 173.14ZM262.721 173.14C262.721 167.66 260.261 164.64 256.721 164.64C253.181 164.64 250.721 167.64 250.721 173.14C250.721 178.64 253.181 181.63 256.721 181.63C260.261 181.63 262.721 178.61 262.721 173.14Z" fill="#77DBF2"/>
<path d="M322.54 139.17H190.54C188.813 139.17 187.102 138.829 185.506 138.167C183.911 137.504 182.461 136.534 181.242 135.31C180.022 134.087 179.056 132.635 178.398 131.037C177.741 129.439 177.405 127.728 177.41 126C177.41 122.518 178.794 119.178 181.256 116.716C183.718 114.253 187.058 112.87 190.54 112.87H322.54C326.023 112.87 329.362 114.253 331.825 116.716C334.287 119.178 335.67 122.518 335.67 126C335.675 127.728 335.34 129.439 334.682 131.037C334.025 132.635 333.058 134.087 331.839 135.31C330.619 136.534 329.17 137.504 327.574 138.167C325.978 138.829 324.268 139.17 322.54 139.17Z" fill="#2A4D59"/>
<path d="M319.11 131.05C318.121 131.05 317.155 130.757 316.332 130.207C315.51 129.658 314.869 128.877 314.491 127.963C314.113 127.05 314.014 126.044 314.206 125.075C314.399 124.105 314.876 123.214 315.575 122.514C316.274 121.815 317.165 121.339 318.135 121.146C319.105 120.953 320.11 121.052 321.024 121.431C321.937 121.809 322.718 122.45 323.268 123.272C323.817 124.094 324.11 125.061 324.11 126.05C324.11 127.376 323.584 128.648 322.646 129.586C321.708 130.523 320.436 131.05 319.11 131.05ZM319.11 122.05C318.319 122.05 317.546 122.285 316.888 122.724C316.23 123.164 315.718 123.788 315.415 124.519C315.112 125.25 315.033 126.054 315.187 126.83C315.342 127.606 315.723 128.319 316.282 128.878C316.841 129.438 317.554 129.819 318.33 129.973C319.106 130.127 319.91 130.048 320.641 129.746C321.372 129.443 321.997 128.93 322.436 128.272C322.876 127.614 323.11 126.841 323.11 126.05C323.117 125.521 323.018 124.995 322.82 124.504C322.622 124.013 322.329 123.566 321.957 123.189C321.584 122.812 321.141 122.513 320.653 122.309C320.164 122.105 319.64 122 319.11 122V122.05Z" fill="#77DBF2"/>
<path d="M325.84 132.35C325.779 132.351 325.719 132.34 325.662 132.318C325.606 132.296 325.554 132.262 325.51 132.22L322.21 129.34C322.117 129.251 322.062 129.129 322.057 129C322.052 128.872 322.096 128.746 322.181 128.649C322.266 128.552 322.386 128.492 322.514 128.481C322.642 128.47 322.77 128.509 322.87 128.59L326.17 131.47C326.217 131.516 326.254 131.572 326.28 131.633C326.305 131.694 326.318 131.759 326.318 131.825C326.318 131.891 326.305 131.956 326.28 132.017C326.254 132.078 326.217 132.134 326.17 132.18C326.086 132.277 325.968 132.338 325.84 132.35Z" fill="#77DBF2"/>
<path d="M318.351 181.32C318.704 181.345 319.058 181.345 319.411 181.32C320.405 181.182 321.342 180.774 322.121 180.14C322.679 179.698 323.142 179.147 323.481 178.52C323.674 178.17 323.821 177.797 323.921 177.41C324.027 176.992 324.077 176.561 324.071 176.13C324.063 175.667 323.995 175.206 323.871 174.76C323.728 174.293 323.534 173.844 323.291 173.42C322.756 172.508 321.958 171.78 321.001 171.33H320.951V171.28C320.967 170.553 320.779 169.835 320.407 169.21C320.036 168.584 319.497 168.075 318.851 167.74C318.139 167.4 317.339 167.288 316.561 167.418C315.782 167.549 315.063 167.916 314.501 168.47L314.371 168.59V168.42C314.098 167.268 313.548 166.199 312.769 165.307C311.99 164.415 311.006 163.726 309.901 163.3C309.321 163.067 308.712 162.916 308.091 162.85C307.938 162.835 307.784 162.835 307.631 162.85H307.171C305.662 162.911 304.218 163.486 303.081 164.48C302.229 165.227 301.547 166.147 301.081 167.18C300.644 168.16 300.442 169.228 300.491 170.3V170.42H300.381C299.194 170.149 297.951 170.298 296.861 170.84C296.357 171.089 295.889 171.405 295.471 171.78C295.083 172.143 294.747 172.557 294.471 173.01C294.225 173.442 294.04 173.907 293.921 174.39C293.819 174.846 293.785 175.314 293.821 175.78C293.881 176.606 294.131 177.407 294.551 178.12C295.134 179.073 295.986 179.832 297.001 180.3C297.379 180.46 297.771 180.587 298.171 180.68H298.091H297.861C297.731 180.659 297.604 180.626 297.481 180.58C297.307 180.532 297.137 180.471 296.971 180.4C295.887 179.914 294.984 179.099 294.391 178.07C293.957 177.345 293.694 176.531 293.621 175.69C293.53 174.694 293.761 173.695 294.281 172.84C294.551 172.37 294.888 171.943 295.281 171.57C295.711 171.175 296.192 170.838 296.711 170.57C297.833 170.006 299.117 169.85 300.341 170.13L300.231 170.22C300.18 169.121 300.385 168.026 300.831 167.02C301.316 165.954 302.025 165.006 302.911 164.24C303.849 163.44 304.979 162.898 306.191 162.67C306.498 162.613 306.809 162.576 307.121 162.56H307.601C307.757 162.55 307.914 162.55 308.071 162.56C308.709 162.631 309.335 162.789 309.931 163.03C311.067 163.466 312.079 164.173 312.879 165.09C313.679 166.007 314.243 167.105 314.521 168.29L314.361 168.24C314.925 167.671 315.649 167.286 316.437 167.138C317.225 166.99 318.039 167.085 318.771 167.41C319.504 167.736 320.12 168.277 320.538 168.961C320.956 169.645 321.156 170.44 321.111 171.24L321.061 171.16C322.047 171.622 322.868 172.376 323.411 173.32C323.659 173.756 323.857 174.219 324.001 174.7C324.125 175.157 324.192 175.627 324.201 176.1C324.199 176.545 324.146 176.988 324.041 177.42C323.931 177.818 323.774 178.201 323.571 178.56C323.145 179.319 322.547 179.967 321.824 180.452C321.101 180.937 320.275 181.244 319.411 181.35C319.145 181.372 318.877 181.372 318.611 181.35L318.351 181.32Z" fill="#77DBF2"/>
<path d="M318.86 181.86H318.57H318.28C318.187 181.845 318.1 181.804 318.03 181.743C317.959 181.681 317.907 181.6 317.88 181.51C317.851 181.422 317.847 181.328 317.868 181.238C317.889 181.148 317.935 181.066 318 181C318.063 180.943 318.138 180.901 318.219 180.877C318.3 180.853 318.386 180.847 318.47 180.86C318.763 180.879 319.057 180.879 319.35 180.86C320.25 180.729 321.097 180.356 321.8 179.78C322.308 179.382 322.729 178.885 323.04 178.32C323.212 178.004 323.347 177.668 323.44 177.32C323.532 176.947 323.576 176.564 323.57 176.18C323.558 175.764 323.498 175.352 323.39 174.95C323.259 174.522 323.081 174.109 322.86 173.72C322.376 172.9 321.659 172.242 320.8 171.83C320.701 171.787 320.616 171.718 320.554 171.63C320.492 171.541 320.456 171.438 320.45 171.33C320.489 170.666 320.325 170.007 319.979 169.439C319.634 168.871 319.123 168.422 318.516 168.152C317.909 167.881 317.234 167.802 316.581 167.925C315.927 168.048 315.327 168.367 314.86 168.84L314.74 168.97C314.675 169.032 314.594 169.077 314.506 169.098C314.418 169.119 314.326 169.116 314.24 169.09C314.153 169.066 314.075 169.019 314.013 168.954C313.951 168.889 313.909 168.808 313.89 168.72V168.54C313.634 167.47 313.121 166.479 312.397 165.651C311.672 164.824 310.757 164.185 309.73 163.79C309.195 163.575 308.633 163.434 308.06 163.37C307.92 163.362 307.78 163.362 307.64 163.37H306.97C306.775 163.382 306.581 163.409 306.39 163.45C305.281 163.652 304.245 164.145 303.39 164.88C302.581 165.571 301.932 166.432 301.49 167.4C301.084 168.307 300.896 169.297 300.94 170.29V170.4C300.943 170.479 300.929 170.558 300.898 170.63C300.866 170.703 300.819 170.768 300.76 170.82C300.7 170.871 300.629 170.906 300.552 170.924C300.476 170.941 300.396 170.94 300.32 170.92H300.21C299.138 170.672 298.013 170.807 297.03 171.3C296.567 171.528 296.136 171.817 295.75 172.16C295.399 172.492 295.093 172.869 294.84 173.28C294.619 173.669 294.45 174.086 294.34 174.52C294.252 174.92 294.225 175.332 294.26 175.74C294.312 176.491 294.538 177.221 294.92 177.87C295.446 178.799 296.245 179.543 297.21 180C297.529 180.146 297.865 180.253 298.21 180.32C298.295 180.328 298.377 180.356 298.45 180.401C298.523 180.446 298.585 180.507 298.63 180.58C298.699 180.697 298.721 180.837 298.69 180.97C298.639 181.095 298.546 181.198 298.428 181.262C298.309 181.326 298.172 181.346 298.04 181.32H297.8C297.643 181.294 297.489 181.254 297.34 181.2H297.22C297.068 181.159 296.92 181.102 296.78 181.03C295.607 180.506 294.63 179.624 293.99 178.51C293.519 177.722 293.235 176.835 293.16 175.92C293.113 175.398 293.144 174.873 293.25 174.36C293.381 173.807 293.589 173.275 293.87 172.78C294.496 171.722 295.422 170.873 296.53 170.34C297.535 169.836 298.661 169.625 299.78 169.73C299.825 168.797 300.045 167.881 300.43 167.03C300.936 165.893 301.691 164.885 302.64 164.08C303.641 163.216 304.851 162.629 306.15 162.38C306.398 162.333 306.648 162.303 306.9 162.29H307.13H307.65C307.833 162.275 308.017 162.275 308.2 162.29C308.886 162.363 309.558 162.527 310.2 162.78C311.264 163.197 312.229 163.833 313.03 164.649C313.831 165.464 314.451 166.439 314.85 167.51C315.507 167.084 316.265 166.84 317.047 166.802C317.829 166.764 318.607 166.933 319.302 167.292C319.998 167.651 320.586 168.188 321.007 168.848C321.428 169.508 321.667 170.268 321.7 171.05C322.625 171.573 323.395 172.332 323.93 173.25C324.471 174.159 324.767 175.192 324.79 176.25C324.788 176.739 324.728 177.226 324.61 177.7C324.492 178.147 324.317 178.577 324.09 178.98C323.705 179.667 323.184 180.269 322.56 180.75C321.698 181.442 320.658 181.879 319.56 182.01C319.25 181.84 319 181.86 318.86 181.86Z" fill="#77DBF2"/>
<path d="M306.491 177.74C306.086 178.605 305.622 179.44 305.101 180.24C304.633 181.071 304.116 181.872 303.551 182.64C303.95 181.774 304.411 180.939 304.931 180.14C305.396 179.306 305.918 178.504 306.491 177.74Z" fill="#77DBF2"/>
<path d="M303.58 183.18C303.476 183.167 303.377 183.129 303.29 183.07C302.81 182.78 302.82 182.69 304.5 179.88C306.03 177.34 306.15 177.31 306.36 177.25C306.424 177.234 306.491 177.232 306.556 177.242C306.621 177.252 306.684 177.275 306.74 177.31C306.851 177.383 306.932 177.493 306.97 177.62C306.97 177.84 307.05 177.95 305.52 180.5C304.23 182.65 303.89 183.18 303.58 183.18Z" fill="#77DBF2"/>
<path d="M311.1 177.74C310.7 178.607 310.236 179.443 309.71 180.24C309.243 181.071 308.725 181.872 308.16 182.64C308.559 181.774 309.02 180.939 309.54 180.14C310.006 179.306 310.527 178.504 311.1 177.74Z" fill="#77DBF2"/>
<path d="M308.16 183.14C308.068 183.138 307.978 183.11 307.9 183.06C307.42 182.78 307.43 182.69 309.11 179.88C310.64 177.34 310.76 177.31 310.98 177.25C311.045 177.234 311.111 177.232 311.176 177.242C311.242 177.252 311.304 177.275 311.36 177.31C311.83 177.6 311.83 177.69 310.14 180.5C308.61 183.04 308.49 183.07 308.28 183.12L308.16 183.14Z" fill="#77DBF2"/>
<path d="M315.711 177.74C315.311 178.607 314.846 179.443 314.321 180.24C313.853 181.071 313.335 181.872 312.771 182.64C313.169 181.774 313.63 180.939 314.151 180.14C314.616 179.306 315.137 178.504 315.711 177.74Z" fill="#77DBF2"/>
<path d="M312.8 183.18C312.696 183.167 312.597 183.129 312.51 183.07C312.03 182.78 312.04 182.69 313.73 179.88C315.25 177.34 315.37 177.31 315.59 177.25C315.72 177.221 315.856 177.242 315.97 177.31C316.084 177.38 316.166 177.491 316.2 177.62C316.25 177.84 316.28 177.95 314.75 180.5C313.46 182.65 313.11 183.18 312.8 183.18Z" fill="#77DBF2"/>
<path d="M301.15 184.61C300.747 185.476 300.283 186.311 299.76 187.11C299.297 187.94 298.779 188.739 298.21 189.5C298.613 188.635 299.078 187.799 299.6 187C300.058 186.167 300.576 185.368 301.15 184.61Z" fill="#77DBF2"/>
<path d="M298.21 190C298.119 190.002 298.029 189.978 297.95 189.93C297.837 189.86 297.754 189.749 297.72 189.62C297.67 189.41 297.64 189.29 299.17 186.75C300.85 183.95 300.93 183.89 301.41 184.18C301.88 184.47 301.88 184.56 300.19 187.36C298.66 189.91 298.55 189.94 298.33 189.99L298.21 190Z" fill="#77DBF2"/>
<path d="M305.76 184.61C304.892 186.305 303.91 187.939 302.82 189.5C303.224 188.638 303.689 187.806 304.21 187.01C304.672 186.176 305.19 185.374 305.76 184.61Z" fill="#77DBF2"/>
<path d="M302.821 190C302.729 190.002 302.639 189.978 302.561 189.93C302.447 189.86 302.365 189.749 302.331 189.62C302.281 189.41 302.251 189.29 303.781 186.75C305.461 183.94 305.541 183.89 306.021 184.18C306.481 184.47 306.481 184.56 304.791 187.36C303.271 189.91 303.151 189.94 302.931 189.99L302.821 190Z" fill="#77DBF2"/>
<path d="M310.371 184.61C309.513 186.31 308.53 187.945 307.431 189.5C307.835 188.638 308.299 187.806 308.821 187.01C309.282 186.176 309.8 185.374 310.371 184.61Z" fill="#77DBF2"/>
<path d="M307.43 190C307.338 190.002 307.248 189.978 307.17 189.93C307.056 189.86 306.974 189.749 306.94 189.62C306.89 189.41 306.86 189.29 308.39 186.75C310.07 183.95 310.15 183.89 310.63 184.18C311.11 184.47 311.1 184.56 309.41 187.36C307.88 189.91 307.77 189.94 307.55 189.99L307.43 190Z" fill="#77DBF2"/>
<path d="M315.19 184.71C314.781 185.572 314.316 186.407 313.8 187.21C313.339 188.047 312.818 188.849 312.24 189.61C312.65 188.748 313.114 187.913 313.63 187.11C314.092 186.273 314.613 185.471 315.19 184.71Z" fill="#77DBF2"/>
<path d="M312.28 190.15C312.176 190.124 312.08 190.072 312 190C311.52 189.71 311.52 189.62 313.21 186.81C314.74 184.27 314.86 184.24 315.07 184.19C315.199 184.161 315.334 184.178 315.45 184.24C315.56 184.315 315.641 184.424 315.68 184.55C315.73 184.77 315.76 184.89 314.23 187.43C312.93 189.63 312.59 190.15 312.28 190.15Z" fill="#77DBF2"/>
<path d="M236.01 393.64C238.352 393.64 240.251 391.742 240.251 389.4C240.251 387.058 238.352 385.16 236.01 385.16C233.669 385.16 231.771 387.058 231.771 389.4C231.771 391.742 233.669 393.64 236.01 393.64Z" fill="#1A3840"/>
<path d="M250.18 393.64C252.522 393.64 254.42 391.742 254.42 389.4C254.42 387.058 252.522 385.16 250.18 385.16C247.839 385.16 245.94 387.058 245.94 389.4C245.94 391.742 247.839 393.64 250.18 393.64Z" fill="#2A4D59"/>
<path d="M264.35 393.64C266.692 393.64 268.59 391.742 268.59 389.4C268.59 387.058 266.692 385.16 264.35 385.16C262.009 385.16 260.11 387.058 260.11 389.4C260.11 391.742 262.009 393.64 264.35 393.64Z" fill="#2A4D59"/>
<path d="M278.52 393.64C280.862 393.64 282.76 391.742 282.76 389.4C282.76 387.058 280.862 385.16 278.52 385.16C276.179 385.16 274.28 387.058 274.28 389.4C274.28 391.742 276.179 393.64 278.52 393.64Z" fill="#2A4D59"/>
<path d="M200.69 410.48H184.68C179.671 410.48 175.61 414.541 175.61 419.55V435.56C175.61 440.569 179.671 444.63 184.68 444.63H200.69C205.7 444.63 209.76 440.569 209.76 435.56V419.55C209.76 414.541 205.7 410.48 200.69 410.48Z" fill="#15CDF2"/>
<path d="M242.721 410.16H227.791C222.483 410.16 218.181 414.463 218.181 419.77V434.7C218.181 440.007 222.483 444.31 227.791 444.31H242.721C248.028 444.31 252.331 440.007 252.331 434.7V419.77C252.331 414.463 248.028 410.16 242.721 410.16Z" fill="#2A4D59"/>
<path d="M284.74 409.85H270.91C265.299 409.85 260.75 414.399 260.75 420.01V433.84C260.75 439.451 265.299 444 270.91 444H284.74C290.351 444 294.9 439.451 294.9 433.84V420.01C294.9 414.399 290.351 409.85 284.74 409.85Z" fill="#295F70"/>
<path d="M327.19 410.48H313.6C307.923 410.48 303.32 415.083 303.32 420.76V434.35C303.32 440.027 307.923 444.63 313.6 444.63H327.19C332.868 444.63 337.47 440.027 337.47 434.35V420.76C337.47 415.083 332.868 410.48 327.19 410.48Z" fill="#77DBF2"/>
<path d="M200.77 336.55H184.6C179.635 336.55 175.61 340.575 175.61 345.54V361.71C175.61 366.675 179.635 370.7 184.6 370.7H200.77C205.735 370.7 209.76 366.675 209.76 361.71V345.54C209.76 340.575 205.735 336.55 200.77 336.55Z" fill="#295F70"/>
<path d="M241.791 336.23H228.721C222.9 336.23 218.181 340.949 218.181 346.77V359.84C218.181 365.661 222.9 370.38 228.721 370.38H241.791C247.612 370.38 252.331 365.661 252.331 359.84V346.77C252.331 340.949 247.612 336.23 241.791 336.23Z" fill="#77DBF2"/>
<path d="M285.57 335.91H270.08C264.927 335.91 260.75 340.087 260.75 345.24V360.73C260.75 365.883 264.927 370.06 270.08 370.06H285.57C290.723 370.06 294.9 365.883 294.9 360.73V345.24C294.9 340.087 290.723 335.91 285.57 335.91Z" fill="#2A4D59"/>
<path d="M327.27 335.6H313.52C307.887 335.6 303.32 340.167 303.32 345.8V359.55C303.32 365.183 307.887 369.75 313.52 369.75H327.27C332.904 369.75 337.47 365.183 337.47 359.55V345.8C337.47 340.167 332.904 335.6 327.27 335.6Z" fill="#15CDF2"/>
<path d="M189.001 347.54C189.542 347.215 190.123 346.962 190.731 346.79L191.081 345.09H193.971L194.381 346.78C194.991 346.933 195.58 347.165 196.131 347.47L197.591 346.47L199.661 348.47L198.761 349.96C199.086 350.501 199.338 351.083 199.511 351.69L201.211 352.04L201.261 354.93L199.571 355.34C199.418 355.951 199.186 356.539 198.881 357.09L199.881 358.55L197.881 360.62L196.401 359.72C195.86 360.045 195.278 360.298 194.671 360.47L194.321 362.17H191.431L191.021 360.48C190.41 360.327 189.821 360.095 189.271 359.79L187.811 360.79L185.741 358.79L186.641 357.31C186.315 356.769 186.063 356.187 185.891 355.58L184.191 355.23L184.141 352.34L185.831 351.93C185.982 351.319 186.214 350.73 186.521 350.18L185.521 348.72L187.521 346.65L189.001 347.55V347.54ZM190.001 351.02C189.484 351.555 189.138 352.232 189.005 352.964C188.873 353.696 188.962 354.451 189.259 355.133C189.556 355.816 190.049 356.394 190.675 356.796C191.301 357.198 192.033 357.405 192.777 357.391C193.52 357.377 194.243 357.142 194.854 356.717C195.465 356.292 195.936 355.695 196.207 355.003C196.478 354.31 196.538 353.552 196.378 352.825C196.219 352.099 195.847 351.435 195.311 350.92C194.957 350.576 194.539 350.305 194.081 350.123C193.622 349.941 193.132 349.851 192.639 349.858C192.146 349.866 191.659 349.97 191.206 350.166C190.753 350.362 190.344 350.645 190.001 351V351.02Z" fill="#0E1C22"/>
<path d="M269.86 435.21L271.11 430.57C270.109 428.761 269.793 426.652 270.222 424.629C270.65 422.607 271.793 420.806 273.442 419.559C275.091 418.311 277.134 417.7 279.197 417.838C281.26 417.975 283.204 418.853 284.672 420.308C286.141 421.764 287.035 423.7 287.191 425.761C287.347 427.823 286.754 429.872 285.521 431.531C284.288 433.191 282.497 434.35 280.479 434.796C278.46 435.243 276.348 434.946 274.53 433.96L269.86 435.21ZM274.76 432.21L275.05 432.38C276.518 433.258 278.256 433.569 279.937 433.254C281.618 432.938 283.125 432.018 284.174 430.667C285.224 429.317 285.742 427.628 285.631 425.922C285.521 424.215 284.789 422.608 283.575 421.403C282.36 420.199 280.747 419.481 279.039 419.385C277.332 419.289 275.648 419.821 274.306 420.882C272.964 421.942 272.057 423.457 271.755 425.141C271.454 426.824 271.78 428.56 272.67 430.02L272.85 430.31L272.15 432.91L274.76 432.21Z" fill="#0E1C22"/>
<path fill-rule="evenodd" clip-rule="evenodd" d="M281.691 427.67C281.522 427.534 281.324 427.438 281.113 427.389C280.901 427.341 280.682 427.341 280.471 427.39C280.151 427.52 279.941 428.02 279.741 428.27C279.698 428.333 279.633 428.377 279.558 428.394C279.484 428.411 279.406 428.399 279.341 428.36C278.176 427.901 277.2 427.063 276.571 425.98C276.54 425.95 276.515 425.914 276.498 425.875C276.482 425.835 276.473 425.793 276.473 425.75C276.473 425.707 276.482 425.665 276.498 425.625C276.515 425.586 276.54 425.55 276.571 425.52C276.807 425.296 276.979 425.013 277.071 424.7C277.1 424.352 277.023 424.004 276.851 423.7C276.716 423.28 276.466 422.906 276.131 422.62C275.957 422.543 275.765 422.518 275.577 422.546C275.39 422.574 275.214 422.655 275.071 422.78C274.826 422.991 274.631 423.254 274.501 423.55C274.371 423.846 274.31 424.167 274.321 424.49C274.318 424.676 274.342 424.861 274.391 425.04C274.505 425.463 274.68 425.867 274.911 426.24C275.075 426.523 275.256 426.797 275.451 427.06C276.09 427.937 276.891 428.683 277.811 429.26C278.273 429.544 278.766 429.775 279.281 429.95C279.815 430.196 280.406 430.293 280.991 430.23C281.325 430.178 281.642 430.044 281.914 429.842C282.185 429.64 282.404 429.375 282.551 429.07C282.628 428.884 282.652 428.679 282.621 428.48C282.571 428.1 282.001 427.86 281.691 427.67Z" fill="#0E1C22"/>
<path fill-rule="evenodd" clip-rule="evenodd" d="M198.711 429.61C198.387 429.352 198.01 429.17 197.606 429.079C197.203 428.987 196.784 428.987 196.381 429.08C195.781 429.33 195.381 430.28 195.001 430.76C194.918 430.875 194.796 430.956 194.658 430.987C194.52 431.018 194.375 430.998 194.251 430.93C192.034 430.061 190.177 428.468 188.981 426.41C188.876 426.282 188.826 426.118 188.841 425.954C188.856 425.789 188.935 425.637 189.061 425.53C189.524 425.106 189.868 424.568 190.061 423.97C190.093 423.328 189.944 422.691 189.631 422.13C189.374 421.349 188.902 420.656 188.271 420.13C187.944 419.98 187.581 419.929 187.226 419.983C186.871 420.036 186.539 420.191 186.271 420.43C185.804 420.829 185.434 421.329 185.188 421.892C184.942 422.455 184.827 423.066 184.851 423.68C184.853 424.017 184.893 424.352 184.971 424.68C185.193 425.484 185.53 426.252 185.971 426.96C186.274 427.502 186.608 428.026 186.971 428.53C188.18 430.194 189.702 431.607 191.451 432.69C192.326 433.241 193.262 433.687 194.241 434.02C195.259 434.479 196.38 434.659 197.491 434.54C198.123 434.436 198.72 434.182 199.234 433.799C199.747 433.417 200.161 432.916 200.441 432.34C200.602 431.99 200.651 431.599 200.581 431.22C200.381 430.44 199.341 430 198.711 429.61Z" fill="#0E1C22"/>
<path d="M325.74 422.09C325.542 422.09 325.349 422.149 325.185 422.259C325.02 422.368 324.892 422.525 324.816 422.707C324.741 422.89 324.721 423.091 324.759 423.285C324.798 423.479 324.893 423.657 325.033 423.797C325.173 423.937 325.351 424.032 325.545 424.071C325.739 424.109 325.94 424.09 326.123 424.014C326.306 423.938 326.462 423.81 326.572 423.646C326.682 423.481 326.74 423.288 326.74 423.09C326.74 422.825 326.635 422.57 326.447 422.383C326.26 422.195 326.005 422.09 325.74 422.09Z" fill="#0E1C22"/>
<path d="M321.3 423.08C320.472 423.08 319.662 423.326 318.973 423.786C318.283 424.247 317.746 424.901 317.429 425.667C317.112 426.432 317.029 427.275 317.191 428.087C317.353 428.9 317.752 429.647 318.338 430.233C318.924 430.819 319.67 431.218 320.483 431.379C321.296 431.541 322.138 431.458 322.904 431.141C323.669 430.824 324.324 430.287 324.784 429.598C325.245 428.909 325.49 428.099 325.49 427.27C325.488 426.16 325.045 425.095 324.26 424.31C323.475 423.525 322.411 423.083 321.3 423.08ZM321.3 429.95C320.768 429.95 320.247 429.792 319.805 429.496C319.362 429.2 319.017 428.779 318.814 428.287C318.611 427.795 318.558 427.254 318.663 426.732C318.767 426.209 319.025 425.73 319.402 425.354C319.779 424.979 320.259 424.723 320.782 424.62C321.304 424.518 321.845 424.573 322.337 424.778C322.828 424.983 323.248 425.329 323.542 425.773C323.836 426.216 323.992 426.738 323.99 427.27C323.997 427.627 323.932 427.982 323.8 428.313C323.668 428.645 323.47 428.947 323.22 429.201C322.969 429.455 322.67 429.657 322.341 429.794C322.011 429.931 321.657 430.001 321.3 430V429.95Z" fill="#0E1C22"/>
<path d="M324.631 436.07H317.841C316.484 436.067 315.183 435.527 314.223 434.567C313.264 433.608 312.723 432.307 312.721 430.95V424.16C312.723 422.804 313.264 421.504 314.224 420.546C315.184 419.588 316.485 419.05 317.841 419.05H324.631C325.302 419.05 325.966 419.182 326.586 419.439C327.206 419.696 327.77 420.072 328.244 420.547C328.719 421.021 329.095 421.585 329.352 422.204C329.609 422.824 329.741 423.489 329.741 424.16V431C329.728 432.347 329.184 433.635 328.227 434.585C327.27 435.534 325.978 436.067 324.631 436.07ZM317.841 420.65C316.909 420.65 316.015 421.019 315.355 421.677C314.695 422.335 314.323 423.228 314.321 424.16V431C314.323 431.932 314.695 432.825 315.355 433.483C316.015 434.141 316.909 434.51 317.841 434.51H324.631C325.562 434.51 326.454 434.14 327.113 433.482C327.771 432.824 328.141 431.931 328.141 431V424.21C328.141 423.279 327.771 422.386 327.113 421.728C326.454 421.07 325.562 420.7 324.631 420.7L317.841 420.65Z" fill="#0E1C22"/>
<path d="M227.701 435.56C227.6 435.561 227.5 435.54 227.407 435.501C227.314 435.461 227.23 435.403 227.161 435.33C227.022 435.186 226.944 434.995 226.944 434.795C226.944 434.595 227.022 434.404 227.161 434.26L231.221 430.2C230.163 428.862 229.63 427.184 229.722 425.48C229.814 423.777 230.525 422.166 231.721 420.95C232.528 420.144 233.521 419.549 234.613 419.218C235.705 418.887 236.862 418.831 237.981 419.054C239.1 419.276 240.146 419.772 241.028 420.496C241.91 421.219 242.6 422.149 243.037 423.203C243.473 424.257 243.643 425.403 243.532 426.538C243.42 427.674 243.031 428.764 242.397 429.713C241.764 430.662 240.906 431.44 239.9 431.979C238.895 432.517 237.771 432.799 236.631 432.8C235.052 432.81 233.518 432.273 232.291 431.28L228.231 435.33C228.163 435.403 228.081 435.461 227.99 435.5C227.898 435.54 227.8 435.56 227.701 435.56ZM236.631 420.44C235.232 420.5 233.911 421.098 232.942 422.109C231.974 423.119 231.434 424.465 231.434 425.865C231.434 427.265 231.974 428.611 232.942 429.621C233.911 430.632 235.232 431.23 236.631 431.29C237.363 431.321 238.093 431.204 238.779 430.946C239.465 430.688 240.091 430.293 240.62 429.786C241.149 429.279 241.57 428.671 241.858 427.997C242.145 427.323 242.294 426.598 242.294 425.865C242.294 425.132 242.145 424.407 241.858 423.733C241.57 423.059 241.149 422.451 240.62 421.944C240.091 421.437 239.465 421.043 238.779 420.784C238.093 420.526 237.363 420.409 236.631 420.44Z" fill="#0E1C22"/>
<path d="M258.84 193.28C258.84 193.42 242.841 193.54 223.061 193.54C203.281 193.54 187.271 193.42 187.271 193.28C187.271 193.14 203.271 193.01 223.061 193.01C242.851 193.01 258.84 193.13 258.84 193.28Z" fill="#77DBF2"/>
<path d="M236.741 353.13C237.491 352.798 238.127 352.254 238.571 351.564C239.016 350.875 239.248 350.07 239.241 349.25C239.268 348.717 239.186 348.183 239 347.682C238.814 347.182 238.529 346.724 238.161 346.337C237.793 345.95 237.35 345.641 236.859 345.431C236.368 345.22 235.84 345.112 235.306 345.112C234.772 345.112 234.243 345.22 233.752 345.431C233.261 345.641 232.818 345.95 232.45 346.337C232.082 346.724 231.797 347.182 231.611 347.682C231.426 348.183 231.344 348.717 231.371 349.25C231.352 350.079 231.581 350.895 232.028 351.593C232.475 352.291 233.12 352.84 233.881 353.17C227.821 354.08 228.101 360.66 228.101 360.66L242.411 360.73C242.411 360.73 242.741 354 236.741 353.13Z" fill="#0E1C22"/>
<path d="M289 358.47C289.344 357.618 289.438 356.685 289.27 355.781C289.101 354.878 288.678 354.041 288.05 353.37C287.413 352.642 286.59 352.1 285.669 351.802C284.748 351.504 283.763 351.462 282.82 351.68C282.565 350.266 281.799 348.996 280.668 348.111C279.536 347.226 278.119 346.788 276.685 346.881C275.252 346.973 273.903 347.59 272.895 348.613C271.887 349.637 271.291 350.995 271.22 352.43C270.574 352.536 269.96 352.785 269.423 353.16C268.886 353.535 268.441 354.026 268.119 354.596C267.798 355.166 267.608 355.801 267.565 356.455C267.522 357.108 267.626 357.762 267.87 358.37L289 358.47Z" fill="#0E1C22"/>
<path d="M323.34 358.58C323.34 358.857 323.258 359.128 323.103 359.359C322.949 359.589 322.73 359.769 322.473 359.874C322.217 359.98 321.935 360.007 321.663 359.952C321.391 359.898 321.142 359.763 320.947 359.566C320.751 359.37 320.619 359.119 320.566 358.847C320.513 358.575 320.542 358.293 320.65 358.037C320.757 357.782 320.938 357.564 321.17 357.411C321.401 357.258 321.673 357.178 321.95 357.18C322.32 357.183 322.673 357.331 322.934 357.594C323.194 357.856 323.34 358.21 323.34 358.58Z" fill="#0E1C22"/>
<path d="M319.161 356.79C319.516 356.409 319.946 356.103 320.423 355.892C320.9 355.681 321.414 355.569 321.936 355.562C322.457 355.556 322.975 355.655 323.457 355.854C323.939 356.053 324.376 356.348 324.741 356.72C325.461 357.43 326.571 356.33 325.861 355.62C325.35 355.103 324.74 354.693 324.068 354.415C323.396 354.137 322.675 353.997 321.948 354.003C321.221 354.008 320.502 354.159 319.835 354.448C319.167 354.736 318.564 355.155 318.061 355.68C317.371 356.41 318.471 357.52 319.161 356.79Z" fill="#0E1C22"/>
<path d="M314.43 350.31C316.477 348.436 319.136 347.37 321.91 347.31C324.729 347.281 327.453 348.325 329.53 350.23C330.27 350.92 331.38 349.82 330.65 349.13C328.276 346.935 325.154 345.726 321.92 345.75C318.733 345.81 315.678 347.033 313.33 349.19C312.57 349.85 313.67 350.96 314.43 350.3V350.31Z" fill="#0E1C22"/>
<path d="M316.3 353.9C317.007 353.114 317.869 352.482 318.832 352.044C319.795 351.607 320.838 351.373 321.895 351.358C322.953 351.343 324.002 351.547 324.977 351.957C325.952 352.367 326.831 352.974 327.56 353.74C328.26 354.47 329.37 353.36 328.67 352.64C327.798 351.726 326.748 351 325.583 350.51C324.419 350.019 323.166 349.773 321.903 349.787C320.639 349.801 319.392 350.075 318.239 350.591C317.086 351.108 316.052 351.856 315.2 352.79C314.51 353.53 315.61 354.64 316.3 353.9Z" fill="#0E1C22"/>
<path d="M118 446.11L117.65 467C117.65 467 138.71 474.37 139.02 478.23L98.5801 478.97L97.8301 446.48L118 446.11Z" fill="#15CDF2"/>
<path d="M105.121 465.43C104.734 465.555 104.408 465.817 104.203 466.168C103.998 466.518 103.93 466.932 104.011 467.33C104.123 467.721 104.38 468.054 104.729 468.262C105.079 468.47 105.494 468.537 105.891 468.45C106.293 468.313 106.632 468.035 106.845 467.667C107.059 467.3 107.132 466.867 107.051 466.45C106.892 466.055 106.587 465.737 106.2 465.562C105.812 465.387 105.372 465.368 104.971 465.51" fill="#2A4D59"/>
<path d="M98.5801 478.92L98.6401 475.64L137.38 476.16C137.38 476.16 139.2 476.91 139.02 478.16L98.5801 478.92Z" fill="#77DBF2"/>
<path d="M118.3 466.73C118.3 466.93 117.3 467.04 116.3 467.73C115.3 468.42 114.84 469.22 114.66 469.15C114.48 469.08 114.75 467.93 115.93 467.15C117.11 466.37 118.34 466.55 118.3 466.73Z" fill="#77DBF2"/>
<path d="M122.581 468.41C122.581 468.6 121.771 468.95 121.121 469.8C120.471 470.65 120.291 471.53 120.121 471.53C119.951 471.53 119.781 470.41 120.611 469.37C121.441 468.33 122.571 468.22 122.581 468.41Z" fill="#77DBF2"/>
<path d="M125.08 473.44C124.9 473.49 124.6 472.51 125.08 471.44C125.56 470.37 126.48 469.9 126.57 470.06C126.66 470.22 126.1 470.81 125.71 471.71C125.32 472.61 125.27 473.42 125.08 473.44Z" fill="#77DBF2"/>
<path d="M117.861 462C117.781 462.18 116.861 461.92 115.751 462C114.641 462.08 113.751 462.46 113.671 462.29C113.591 462.12 114.391 461.41 115.671 461.29C116.951 461.17 118.001 461.82 117.861 462Z" fill="#77DBF2"/>
<path d="M94.5102 435L80.0502 450C80.0502 450 90.4402 469.74 88.0502 472.78L57.9502 445.78L79.5302 421.47L94.5102 435Z" fill="#15CDF2"/>
<path d="M71.9108 440.35C71.5421 440.178 71.1227 440.148 70.7333 440.266C70.3438 440.384 70.0117 440.642 69.8008 440.99C69.6179 441.353 69.5802 441.773 69.6954 442.163C69.8105 442.553 70.0699 442.884 70.4208 443.09C70.8127 443.267 71.2558 443.295 71.6667 443.168C72.0775 443.041 72.4276 442.768 72.6508 442.4C72.8044 442.001 72.7975 441.559 72.6315 441.165C72.4655 440.772 72.1534 440.458 71.7608 440.29" fill="#2A4D59"/>
<path d="M57.9404 445.78L60.2104 443.41L88.2104 470.19C88.2104 470.19 89.0004 472 88.0004 472.78L57.9404 445.78Z" fill="#77DBF2"/>
<path d="M80.6704 450.29C80.5404 450.43 79.7404 449.84 78.6004 449.66C77.4604 449.48 76.5104 449.76 76.4304 449.58C76.3504 449.4 77.3204 448.75 78.7104 448.98C80.1004 449.21 80.8304 450.18 80.6704 450.29Z" fill="#77DBF2"/>
<path d="M82.6606 454.43C82.5706 454.6 81.6606 454.28 80.6606 454.43C79.6606 454.58 78.8706 455.13 78.7306 454.99C78.5906 454.85 79.2406 453.94 80.5606 453.75C81.8806 453.56 82.7806 454.28 82.6606 454.43Z" fill="#77DBF2"/>
<path d="M81.0602 459.81C80.9002 459.72 81.3602 458.81 82.4602 458.34C83.5602 457.87 84.5302 458.17 84.4602 458.34C84.3902 458.51 83.6002 458.56 82.7102 458.96C81.8202 459.36 81.2202 459.93 81.0602 459.81Z" fill="#77DBF2"/>
<path d="M83.5909 446.5C83.4109 446.58 82.9209 445.77 82.0409 445.08C81.1609 444.39 80.2709 444.08 80.3109 443.88C80.3509 443.68 81.4409 443.72 82.4609 444.55C83.4809 445.38 83.7709 446.45 83.5909 446.5Z" fill="#77DBF2"/>
<path d="M174.24 220.24L156.46 232L156.72 236.66L161.36 246.44C161.36 246.44 163.51 248.44 169.8 242.1C176.09 235.76 184.06 223 184.06 223L174.24 220.24Z" fill="#FFBE9D"/>
<path d="M204.17 195.78C204.066 195.55 203.904 195.351 203.701 195.2C203.498 195.05 203.261 194.953 203.01 194.92L194.3 193.75C193.921 193.706 193.537 193.742 193.172 193.854C192.808 193.965 192.47 194.151 192.18 194.4L167.24 215.81L168.37 216.91L177.73 219.17L204.34 196.17L204.17 195.78Z" fill="#77DBF2"/>
<path d="M197.26 197.56C197.355 197.659 197.483 197.719 197.62 197.729C197.757 197.738 197.893 197.695 198 197.61C198.125 197.551 198.221 197.446 198.27 197.318C198.318 197.189 198.315 197.046 198.26 196.92C198.157 196.827 198.024 196.776 197.885 196.776C197.747 196.776 197.613 196.827 197.51 196.92C197.24 197.05 197.12 197.36 197.26 197.56Z" fill="#0E1C22"/>
<path d="M204.34 196.17C203.768 196.177 203.196 196.137 202.63 196.05L198 195.5L194.8 195.1C194.535 195.05 194.263 195.06 194.002 195.127C193.741 195.194 193.498 195.318 193.29 195.49L191.87 196.73L185.49 202.22C180.96 206.1 176.84 209.6 173.84 212.11C172.38 213.31 171.17 214.3 170.26 215.06C169.834 215.424 169.383 215.758 168.91 216.06C169.279 215.63 169.688 215.235 170.13 214.88L173.59 211.8C176.53 209.22 180.59 205.69 185.15 201.8L191.55 196.34L193 195.12C193.256 194.912 193.554 194.762 193.873 194.681C194.193 194.6 194.526 194.589 194.85 194.65L198.05 195.11L202.67 195.82C203.234 195.899 203.792 196.016 204.34 196.17Z" fill="#295F70"/>
<path d="M195.291 200.65C195.291 200.65 194.491 200.26 193.401 202.42C192.311 204.58 188.981 210.73 188.981 210.73L185.261 207.17L179.581 206.35C179.581 206.35 178.071 207.12 178.781 207.96C179.491 208.8 182.781 210.4 182.781 210.4L184.301 214.79L178.001 209.2C178.001 209.2 175.381 209.2 175.681 210.84C175.981 212.48 179.611 218.59 179.611 218.59L176.011 217.28L172.391 213.41C172.391 213.41 171.031 213.09 171.211 214.41C171.391 215.73 174.781 221.09 174.781 221.09L179.531 225.31C179.531 225.31 182.611 225.92 183.141 225.11C183.545 224.481 183.881 223.811 184.141 223.11C184.141 223.11 185.861 223.11 186.381 222.44C186.74 221.828 186.965 221.146 187.041 220.44C187.041 220.44 189.421 221.58 190.131 220.27C190.838 218.595 191.263 216.814 191.391 215C191.441 213.85 195.561 204.24 195.541 203.91C195.521 203.58 197.001 200.43 195.291 200.65Z" fill="#FFBE9D"/>
<path d="M183.29 225.14C182.778 225.269 182.242 225.269 181.73 225.14C179.191 224.808 176.874 223.52 175.25 221.54C174.64 220.78 174.4 220.23 174.46 220.19C175.651 221.441 176.995 222.536 178.46 223.45C180.91 224.89 183.31 225 183.29 225.14Z" fill="#EB996E"/>
<path d="M182.54 222.8C182.42 222.9 181.59 222.12 180.79 220.97C179.99 219.82 179.53 218.77 179.67 218.69C179.81 218.61 180.48 219.51 181.27 220.63C182.06 221.75 182.67 222.69 182.54 222.8Z" fill="#EB996E"/>
<path d="M186.77 218.86C186.65 218.96 185.77 218.19 185.1 217.01C184.43 215.83 184.1 214.75 184.21 214.69C184.32 214.63 184.9 215.57 185.6 216.69C186.3 217.81 186.9 218.75 186.77 218.86Z" fill="#EB996E"/>
<path d="M190.891 215.89C190.48 215.076 190.145 214.226 189.891 213.35C189.487 212.54 189.152 211.697 188.891 210.83C189.011 210.73 189.891 211.67 190.481 213.13C190.918 213.98 191.062 214.95 190.891 215.89Z" fill="#EB996E"/>
<path d="M147.91 196.71C141.16 196.47 126.91 176.88 127.03 170.12L127.56 129.45C127.35 118.52 133.56 109.29 144.47 109.39L145.47 109.46C150.37 109.786 154.967 111.947 158.345 115.51C161.724 119.074 163.635 123.78 163.7 128.69C163.83 138.17 163.85 148.64 163.45 153.69C162.61 164.15 152.04 165.07 152.04 165.07C152.04 165.07 151.94 167.5 151.87 170.58C151.7 177.49 154.4 196.91 147.49 196.67L147.91 196.71Z" fill="#FFBE9D"/>
<path d="M152.05 165.07C147.216 164.737 142.578 163.023 138.69 160.13C138.69 160.13 141.44 168.22 151.95 167.98L152.05 165.07Z" fill="#EB996E"/>
<path d="M160.171 137.28C160.15 137.67 159.977 138.036 159.689 138.3C159.401 138.564 159.021 138.704 158.631 138.69C158.439 138.69 158.25 138.652 158.073 138.579C157.897 138.505 157.737 138.397 157.602 138.262C157.467 138.126 157.36 137.965 157.288 137.788C157.216 137.611 157.179 137.421 157.181 137.23C157.204 136.841 157.378 136.476 157.665 136.213C157.953 135.95 158.331 135.809 158.721 135.82C158.913 135.817 159.103 135.853 159.281 135.926C159.459 135.998 159.62 136.106 159.756 136.242C159.891 136.378 159.997 136.541 160.069 136.719C160.14 136.897 160.175 137.088 160.171 137.28Z" fill="#0E1C22"/>
<path d="M161.18 133.17C160.98 133.35 159.9 132.43 158.3 132.33C156.7 132.23 155.45 132.95 155.3 132.74C155.15 132.53 155.44 132.31 155.97 131.97C156.699 131.536 157.544 131.337 158.39 131.4C159.228 131.451 160.028 131.77 160.67 132.31C161.13 132.72 161.28 133.09 161.18 133.17Z" fill="#0E1C22"/>
<path d="M145.45 137C145.429 137.39 145.256 137.756 144.968 138.02C144.68 138.284 144.3 138.424 143.91 138.41C143.719 138.411 143.53 138.375 143.354 138.302C143.177 138.23 143.017 138.123 142.882 137.988C142.747 137.853 142.64 137.693 142.568 137.516C142.495 137.34 142.459 137.151 142.46 136.96C142.465 136.763 142.509 136.569 142.589 136.389C142.67 136.209 142.784 136.046 142.927 135.911C143.07 135.775 143.239 135.669 143.423 135.599C143.607 135.528 143.803 135.495 144 135.5C144.195 135.497 144.39 135.534 144.57 135.609C144.751 135.684 144.914 135.795 145.05 135.936C145.186 136.077 145.291 136.243 145.36 136.427C145.429 136.61 145.46 136.805 145.45 137Z" fill="#0E1C22"/>
<path d="M145.391 132.48C145.191 132.66 144.111 131.75 142.501 131.64C140.891 131.53 139.661 132.26 139.501 132.06C139.341 131.86 139.631 131.62 140.171 131.28C140.901 130.85 141.745 130.651 142.591 130.71C143.427 130.767 144.225 131.085 144.871 131.62C145.341 132 145.481 132.4 145.391 132.48Z" fill="#0E1C22"/>
<path d="M150.33 145.23C151.193 145.014 152.081 144.913 152.97 144.93C153.38 144.93 153.78 144.86 153.87 144.58C153.928 144.159 153.858 143.731 153.67 143.35L152.67 140.14C151.28 135.57 150.31 131.83 150.49 131.78C150.67 131.73 151.95 135.38 153.34 139.94C153.67 141.07 153.99 142.14 154.29 143.17C154.511 143.685 154.547 144.261 154.39 144.8C154.323 144.941 154.224 145.064 154.1 145.159C153.977 145.255 153.833 145.32 153.68 145.35C153.446 145.395 153.208 145.412 152.97 145.4C152.086 145.454 151.2 145.397 150.33 145.23Z" fill="#0E1C22"/>
<path d="M145.651 126.46C145.401 126.85 143.871 126.32 141.971 126.15C140.071 125.98 138.471 126.15 138.311 125.73C138.241 125.52 138.581 125.18 139.311 124.89C140.221 124.541 141.202 124.415 142.171 124.52C143.144 124.607 144.082 124.922 144.911 125.44C145.491 125.86 145.761 126.27 145.651 126.46Z" fill="#0E1C22"/>
<path d="M161.05 129.38C160.7 129.73 159.41 129.28 157.83 129.18C156.25 129.08 154.91 129.27 154.62 128.87C154.5 128.68 154.72 128.33 155.33 128.01C156.157 127.625 157.072 127.466 157.98 127.55C158.886 127.609 159.76 127.909 160.51 128.42C161.05 128.82 161.21 129.21 161.05 129.38Z" fill="#0E1C22"/>
<path d="M127.89 137.26C127.72 137.17 120.89 134.65 120.59 141.82C120.29 148.99 127.59 147.82 127.59 147.56C127.59 147.3 127.89 137.26 127.89 137.26Z" fill="#FFBE9D"/>
<path d="M125.511 144.77C125.511 144.77 125.381 144.85 125.171 144.94C124.872 145.061 124.539 145.061 124.241 144.94C123.786 144.63 123.423 144.204 123.187 143.707C122.952 143.209 122.853 142.658 122.901 142.11C122.908 141.496 123.052 140.892 123.321 140.34C123.398 140.115 123.53 139.912 123.704 139.75C123.879 139.588 124.09 139.471 124.321 139.41C124.465 139.379 124.615 139.399 124.747 139.467C124.878 139.534 124.982 139.645 125.041 139.78C125.131 139.98 125.041 140.13 125.121 140.14C125.201 140.15 125.281 140.02 125.231 139.73C125.203 139.548 125.106 139.383 124.961 139.27C124.868 139.191 124.759 139.131 124.642 139.095C124.525 139.059 124.402 139.047 124.281 139.06C123.984 139.108 123.705 139.232 123.471 139.42C123.236 139.607 123.053 139.852 122.941 140.13C122.607 140.744 122.432 141.431 122.431 142.13C122.431 143.58 123.121 144.95 124.151 145.29C124.341 145.352 124.544 145.371 124.743 145.345C124.942 145.319 125.132 145.249 125.301 145.14C125.491 144.94 125.541 144.78 125.511 144.77Z" fill="#EB996E"/>
<path d="M145.88 146C145.78 146 145.71 146.4 145.88 147C146.057 147.826 146.491 148.576 147.12 149.14C147.724 149.685 148.422 150.115 149.18 150.41C149.75 150.63 150.12 150.7 150.18 150.61C150.24 150.52 149.93 150.27 149.44 149.93C148.809 149.531 148.211 149.083 147.65 148.59C146.31 147.45 146.11 145.93 145.88 146Z" fill="#0E1C22"/>
<path d="M93.8207 270.66L89.1807 299.52L92.5707 323.37L92.7107 328.55L96.1407 354C96.1407 354 94.8707 378 94.2307 383.18C93.5907 388.36 95.8507 461.67 95.8507 461.67L119.171 460.67C119.171 460.67 128.001 351.91 128.001 350.71C128.001 349.51 140.131 269.37 140.131 269.37L93.8207 270.66Z" fill="#0E1C22"/>
<path d="M152.77 275.11C152.77 275.11 152.3 372.78 150.12 378.43C147.94 384.08 86.6803 444.79 86.6803 444.79L67.2803 429.67L116.82 363L119.87 269.93L152.77 275.11Z" fill="#0E1C22"/>
<path d="M136.51 300.65C136.64 300.65 133.74 325.33 130.03 355.73C126.32 386.13 123.21 410.73 123.03 410.73C122.85 410.73 125.8 386.06 129.51 355.65C133.22 325.24 136.37 300.63 136.51 300.65Z" fill="#295F70"/>
<path d="M96.1404 354C96.1515 354.08 96.1515 354.16 96.1404 354.24C96.1404 354.42 96.1404 354.66 96.1404 354.94C96.1404 355.6 96.0304 356.5 95.9504 357.65C95.7504 360 95.5304 363.41 95.2804 367.65C94.8104 376.07 94.4104 387.71 94.5104 400.57C94.6104 413.43 94.9904 425.09 95.2104 433.57C95.3104 437.75 95.3904 441.15 95.4504 443.57C95.4504 444.72 95.4504 445.63 95.4504 446.29C95.4504 446.57 95.4504 446.81 95.4504 446.99C95.4548 447.07 95.4548 447.15 95.4504 447.23C95.4399 447.15 95.4399 447.07 95.4504 446.99C95.4504 446.81 95.4504 446.58 95.4504 446.29C95.4504 445.63 95.3804 444.73 95.3304 443.58C95.2404 441.18 95.1104 437.78 94.9404 433.58C94.6404 425.15 94.1804 413.5 94.1004 400.63C94.0204 387.76 94.4504 376.1 95.0104 367.63C95.3104 363.42 95.5804 360.02 95.8304 357.68C95.9504 356.53 96.0404 355.63 96.1104 354.97C96.1104 354.69 96.1804 354.46 96.2004 354.27C96.1712 354.182 96.1511 354.092 96.1404 354Z" fill="#295F70"/>
<path d="M119.721 298.58C119.781 298.7 115.531 300.94 110.241 303.58C104.951 306.22 100.601 308.26 100.541 308.14C100.481 308.02 104.731 305.79 110.021 303.14C115.311 300.49 119.661 298.46 119.721 298.58Z" fill="#295F70"/>
<path d="M166.691 223L178.401 233.53C178.401 233.53 160.071 253.53 154.401 257.98C148.731 262.43 156.211 227.77 156.211 227.77L166.691 223Z" fill="#15CDF2"/>
<path d="M126.93 160.41L122.06 167.16L103.06 174.16L94.47 238.61L89.04 296.15C89.04 296.15 96.63 285.33 102.44 285.15C108.25 284.97 137.63 293.21 139.62 294.71L143.5 281.71L146.64 296.8C146.64 296.8 152.16 298.04 155.04 289.8L153.82 261.2C153.82 261.2 157.7 209.65 157.48 201.87C157.26 194.09 152.01 172.51 152.01 172.51L150.01 178.87L133 164.32L126.93 160.41Z" fill="#15CDF2"/>
<path d="M108.58 172.21C108.58 172.21 96.1303 172.21 92.1003 195.21C88.0703 218.21 82.2903 243 85.2703 252.3C88.2503 261.6 100 288.21 100 288.21L116 282.43L109.42 240.56L117.03 199.56C117.03 199.56 118 173.89 108.58 172.21Z" fill="#15CDF2"/>
<path d="M122.9 291.68C122.9 291.68 115.25 282.68 114.67 282.9L102 287.48C101.724 290.746 101.754 294.03 102.09 297.29C102.58 301.98 103.39 307.01 103.39 307.01L120.1 298.1C120.47 299.954 121.016 301.769 121.73 303.52C122.66 305.52 125.88 303.41 125.88 303.41L122.9 291.68Z" fill="#FFBE9D"/>
<path d="M117.001 199.59C117.001 199.59 117.001 199.84 116.901 200.32C116.801 200.8 116.691 201.54 116.521 202.47C116.181 204.36 115.691 207.13 115.051 210.67C113.751 217.79 111.871 228.03 109.571 240.6V240.53C111.461 252.45 113.721 266.74 116.201 282.39V282.58L116.021 282.65L100.021 288.43L99.8106 288.51L99.7206 288.3L94.6206 276.48C91.5606 269.23 88.6206 262.15 86.0106 255.17C85.6806 254.3 85.3906 253.42 85.1006 252.55C84.9506 252.11 84.8706 251.64 84.7506 251.2C84.6287 250.751 84.5451 250.293 84.5006 249.83C84.3661 248.926 84.286 248.014 84.2606 247.1C84.2606 246.2 84.1906 245.29 84.2606 244.4C84.3653 240.9 84.6624 237.408 85.1506 233.94C86.0306 227.17 87.2306 220.8 88.3206 214.83C89.4106 208.86 90.4706 203.32 91.4106 198.25C91.8506 195.71 92.3506 193.3 92.8606 191.03C93.1806 189.91 93.4906 188.82 93.8006 187.77C94.1106 186.72 94.5506 185.77 94.9106 184.77C96.1831 181.475 98.1433 178.488 100.661 176.01C102.266 174.459 104.201 173.289 106.321 172.59C106.873 172.421 107.438 172.297 108.011 172.22H108.451H108.601L108.021 172.29C107.454 172.385 106.896 172.522 106.351 172.7C104.264 173.433 102.365 174.618 100.791 176.17C98.318 178.645 96.399 181.618 95.1606 184.89C94.8106 185.89 94.4206 186.83 94.0706 187.89C93.7206 188.95 93.4706 190.02 93.1506 191.13C92.6606 193.4 92.1506 195.79 91.7506 198.34C90.8206 203.42 89.7506 208.97 88.7506 214.94C87.7506 220.91 86.4406 227.25 85.5706 234C85.0896 237.451 84.7992 240.927 84.7006 244.41C84.7006 245.3 84.7006 246.19 84.7006 247.08C84.7309 247.98 84.8111 248.878 84.9406 249.77C84.9842 250.217 85.0679 250.658 85.1906 251.09C85.3006 251.53 85.3806 251.97 85.5206 252.4C85.8206 253.27 86.1106 254.14 86.4306 255.01C89.0006 261.96 91.9806 269.01 95.0506 276.29C96.7906 280.29 98.5106 284.29 100.141 288.11L99.8406 287.98L115.841 282.21L115.691 282.46C113.251 266.8 111.021 252.52 109.161 240.59V240.53C111.521 227.98 113.451 217.74 114.801 210.63C115.471 207.1 116.001 204.34 116.371 202.45C116.551 201.52 116.691 200.81 116.791 200.31C116.891 199.81 117.001 199.59 117.001 199.59Z" fill="#77DBF2"/>
<path d="M150.08 178.87C149.995 179.172 149.871 179.461 149.71 179.73L148.55 182.06L144.36 190.16L144.2 190.48L143.99 190.19C142.5 188.14 140.78 185.93 138.9 183.67C135.751 179.882 132.385 176.28 128.82 172.88C127.46 171.57 126.33 170.54 125.55 169.82C125.126 169.47 124.728 169.089 124.36 168.68C124.824 168.976 125.263 169.31 125.67 169.68C126.49 170.35 127.67 171.35 129.05 172.63C132.697 175.971 136.111 179.555 139.27 183.36C141.16 185.63 142.87 187.86 144.34 189.93H143.97C145.72 186.71 147.21 183.93 148.31 181.93L149.59 179.66C149.73 179.383 149.894 179.119 150.08 178.87Z" fill="#77DBF2"/>
<path d="M154.28 182.31C154.45 182.25 155.28 185.18 154.68 189.08L154.57 189.77L154.24 189.14C154.06 188.8 153.88 188.45 153.71 188.08C152.8 186.08 152.32 184.08 151.82 182.79C151.32 181.5 150.94 180.65 151.01 180.62C151.493 181.219 151.871 181.895 152.13 182.62C152.72 183.95 153.26 185.87 154.13 187.84C154.3 188.2 154.47 188.54 154.64 188.84L154.2 188.9C154.453 187.337 154.53 185.75 154.43 184.17C154.4 183 154.23 182.33 154.28 182.31Z" fill="#77DBF2"/>
<path d="M150.9 182.2C150.916 182.283 150.916 182.367 150.9 182.45C150.9 182.65 150.9 182.9 150.9 183.21C150.9 183.88 150.9 184.86 150.9 186.12C150.9 188.65 150.76 192.3 150.51 196.81C150.03 205.81 148.93 218.27 147.8 232C146.67 245.73 145.57 258.14 144.8 267.17C144.4 271.64 144.07 275.27 143.8 277.82C143.68 279.05 143.58 280.02 143.51 280.71C143.51 281.017 143.48 281.267 143.42 281.46C143.43 281.546 143.43 281.634 143.42 281.72C143.407 281.634 143.407 281.546 143.42 281.46C143.42 281.26 143.42 281.01 143.42 280.71C143.42 280.01 143.54 279.04 143.62 277.8C143.82 275.25 144.09 271.61 144.44 267.14C145.17 258.14 146.18 245.68 147.3 231.96C148.42 218.24 149.59 205.8 150.15 196.79C150.44 192.29 150.6 188.64 150.69 186.12C150.74 184.88 150.77 183.91 150.8 183.21C150.8 182.9 150.8 182.65 150.8 182.45C150.819 182.362 150.853 182.277 150.9 182.2Z" fill="#77DBF2"/>
<path d="M157.62 204.6C157.75 204.6 157.04 217.36 156.02 233.06C155 248.76 154.02 261.5 153.94 261.49C153.86 261.48 154.52 248.74 155.54 233.03C156.56 217.32 157.49 204.59 157.62 204.6Z" fill="#77DBF2"/>
<path d="M120.14 189.19C120.05 189.19 120.05 188.04 119.59 186.27C119.012 183.958 117.864 181.827 116.252 180.072C114.64 178.317 112.615 176.993 110.36 176.22C108.64 175.61 107.49 175.52 107.5 175.43C107.768 175.382 108.042 175.382 108.31 175.43C109.042 175.516 109.765 175.666 110.47 175.88C112.824 176.594 114.943 177.926 116.607 179.737C118.271 181.549 119.419 183.774 119.93 186.18C120.083 186.901 120.17 187.634 120.19 188.37C120.221 188.644 120.204 188.922 120.14 189.19Z" fill="#77DBF2"/>
<g opacity="0.3">
<path d="M154.6 257.61C158.08 248.054 158.692 237.689 156.36 227.79C155.73 237.79 155.2 247.79 154.57 257.79" fill="#0A2D38"/>
</g>
<g opacity="0.3">
<path d="M116.36 203.16C112.25 224.51 108.91 244.76 109.36 241.96L116 282.43L119.9 288.21C116.49 261.05 113.69 230.21 116.36 203.16Z" fill="#0A2D38"/>
</g>
<path d="M171.18 116.48C171.133 115.788 170.914 115.119 170.542 114.534C170.17 113.949 169.657 113.466 169.05 113.13C169.086 112.731 169.086 112.329 169.05 111.93C168.875 110.724 168.293 109.614 167.4 108.784C166.506 107.954 165.356 107.456 164.14 107.37C164.008 106.436 163.623 105.556 163.027 104.824C162.431 104.093 161.646 103.539 160.758 103.221C159.87 102.903 158.911 102.833 157.987 103.02C157.062 103.207 156.206 103.642 155.51 104.28C154.662 103.446 153.591 102.874 152.426 102.633C151.26 102.391 150.05 102.491 148.94 102.92C148.656 103.012 148.406 103.186 148.22 103.42C148.166 103.501 148.128 103.593 148.109 103.689C148.09 103.785 148.091 103.884 148.11 103.98C147.808 103.43 147.378 102.961 146.855 102.613C146.333 102.264 145.734 102.047 145.11 101.98C144.685 101.935 144.255 101.965 143.84 102.07C142.711 102.104 141.637 102.569 140.84 103.37C139.42 102.805 137.842 102.78 136.405 103.3C134.968 103.819 133.771 104.848 133.04 106.19C131.861 106.198 130.711 106.553 129.733 107.212C128.755 107.87 127.992 108.801 127.54 109.89C126.781 109.911 126.039 110.126 125.386 110.514C124.733 110.903 124.191 111.452 123.81 112.11C123.446 112.776 123.26 113.524 123.271 114.283C123.281 115.042 123.488 115.785 123.87 116.44C123.87 116.44 118.76 117.23 119.75 121.81C120.26 124.15 123.36 123.97 123.36 123.97L126.2 138.74C126.14 138.8 126.99 140.57 127.88 140.26C128.726 139.837 129.423 139.167 129.88 138.34C130.585 137.524 131.159 136.603 131.58 135.61C131.778 135.108 131.809 134.555 131.666 134.034C131.524 133.513 131.217 133.052 130.79 132.72C131.413 132.512 131.97 132.144 132.405 131.652C132.841 131.161 133.139 130.563 133.27 129.92C133.522 128.63 133.539 127.306 133.32 126.01C133.12 124.09 132.914 122.17 132.7 120.25C134.009 120.293 135.304 119.978 136.446 119.338C137.588 118.698 138.534 117.758 139.18 116.62C139.631 116.985 140.155 117.25 140.715 117.399C141.276 117.547 141.862 117.575 142.435 117.48C143.007 117.386 143.553 117.171 144.037 116.85C144.52 116.53 144.93 116.111 145.24 115.62C145.618 116.925 146.475 118.038 147.64 118.736C148.806 119.433 150.192 119.664 151.52 119.38C151.13 120.85 153.7 122.38 155.13 122.91C156.259 123.138 157.431 122.994 158.47 122.5C159.331 123.084 160.289 123.507 161.3 123.75H161.46C163.46 124.09 165.58 122.39 166.69 120.67C167.205 120.775 167.736 120.775 168.25 120.67C169.136 120.399 169.906 119.839 170.437 119.08C170.968 118.32 171.23 117.405 171.18 116.48Z" fill="#FBE7A1"/>
<path d="M112.77 223.9C112.77 223.97 111.43 223.35 109.27 222.47C106.466 221.299 103.594 220.297 100.67 219.47C97.7465 218.668 94.778 218.041 91.7801 217.59C89.4701 217.24 88.0301 217.1 88.0401 217.01C88.3721 216.969 88.708 216.969 89.0401 217.01C89.7001 217.01 90.6401 217.1 91.8101 217.23C97.8905 217.931 103.825 219.574 109.4 222.1C110.46 222.59 111.31 223.01 111.89 223.33C112.47 223.65 112.79 223.86 112.77 223.9Z" fill="#0E1C22"/>
<path d="M103.64 286.46C103.587 286.379 103.543 286.292 103.51 286.2L103.19 285.42L101.99 282.42C100.99 279.78 99.5004 275.95 97.8904 271.16C95.9475 265.557 94.4069 259.822 93.2804 254C92.6239 250.535 92.1963 247.031 92.0004 243.51C91.8164 239.744 91.9201 235.97 92.3104 232.22C93.171 225.003 94.5072 217.851 96.3104 210.81C97.8604 204.3 99.3804 198.47 100.73 193.59C102.08 188.71 103.24 184.79 104.07 182.08C104.49 180.76 104.81 179.72 105.07 178.97L105.34 178.17C105.364 178.075 105.401 177.984 105.45 177.9C105.444 177.999 105.423 178.097 105.39 178.19L105.17 179C104.96 179.76 104.66 180.81 104.28 182.14C103.51 184.86 102.4 188.8 101.1 193.69C99.8004 198.58 98.3204 204.41 96.7904 210.92C95.0223 217.945 93.7062 225.076 92.8504 232.27C92.462 235.993 92.355 239.741 92.5304 243.48C92.7205 246.963 93.1346 250.43 93.7704 253.86C94.8628 259.67 96.3564 265.397 98.2404 271C99.8104 275.8 101.24 279.64 102.18 282.3C102.65 283.61 103.02 284.63 103.29 285.37L103.56 286.17C103.599 286.263 103.626 286.36 103.64 286.46Z" fill="#0E1C22"/>
<path d="M111.15 256.38C111.15 256.38 110.88 256.56 110.36 256.79C109.84 257.02 109.06 257.32 108.1 257.66C105.582 258.538 103.006 259.24 100.39 259.76C97.7759 260.273 95.1298 260.607 92.4702 260.76C91.4702 260.81 90.6202 260.82 90.0502 260.81C89.7517 260.836 89.4509 260.812 89.1602 260.74C90.2453 260.557 91.3407 260.44 92.4402 260.39C94.4402 260.19 97.2502 259.85 100.29 259.25C103.33 258.65 106.04 257.9 107.99 257.31C109.026 256.945 110.081 256.634 111.15 256.38Z" fill="#0E1C22"/>
<path d="M119.66 193C119.58 193.06 118.77 191.8 117.11 190.08C116.141 189.082 115.091 188.165 113.97 187.34C112.587 186.338 111.114 185.468 109.57 184.74C108.017 184.039 106.404 183.48 104.75 183.07C103.393 182.746 102.012 182.539 100.62 182.45C98.24 182.3 96.76 182.5 96.75 182.39C97.0748 182.288 97.4104 182.224 97.75 182.2C98.1541 182.141 98.5616 182.107 98.97 182.1C99.5162 182.069 100.064 182.069 100.61 182.1C102.03 182.142 103.443 182.316 104.83 182.62C106.525 183.009 108.177 183.569 109.76 184.29C111.333 185.036 112.831 185.934 114.23 186.97C115.354 187.835 116.398 188.798 117.35 189.85C117.723 190.25 118.074 190.671 118.4 191.11C118.658 191.428 118.895 191.762 119.11 192.11C119.329 192.383 119.513 192.682 119.66 193Z" fill="#0E1C22"/>
<path d="M128.22 290C128.212 289.89 128.212 289.78 128.22 289.67V288.73C128.22 287.86 128.22 286.64 128.22 285.09C128.22 281.9 128.33 277.34 128.4 271.72C128.61 260.4 128.89 244.82 129.21 227.62C129.36 219 129.48 210.8 129.21 203.34C129.08 199.62 128.84 196.08 128.52 192.78C128.275 189.721 127.777 186.687 127.03 183.71C126.399 181.26 125.387 178.925 124.03 176.79C123.013 175.178 121.739 173.743 120.26 172.54C119.32 171.784 118.293 171.143 117.2 170.63C116.44 170.29 116.02 170.16 116.03 170.13C116.445 170.232 116.85 170.369 117.24 170.54C118.366 171.008 119.422 171.627 120.38 172.38C121.905 173.573 123.223 175.009 124.28 176.63C125.671 178.786 126.71 181.148 127.36 183.63C128.141 186.62 128.666 189.671 128.93 192.75C129.27 196.06 129.52 199.6 129.67 203.33C129.97 210.8 129.86 219.02 129.67 227.63C129.29 244.84 128.96 260.42 128.67 271.74C128.53 277.36 128.41 281.91 128.32 285.1C128.32 286.66 128.23 287.87 128.2 288.74C128.2 289.13 128.2 289.44 128.2 289.68C128.217 289.786 128.224 289.893 128.22 290Z" fill="#0E1C22"/>
<path d="M144.371 268.69C143.944 268.698 143.518 268.658 143.101 268.57C142.301 268.45 141.101 268.27 139.691 268.02C136.811 267.53 132.851 266.79 128.491 265.89C124.131 264.99 120.191 264.1 117.361 263.41C115.941 263.06 114.801 262.77 114.011 262.56C113.594 262.476 113.188 262.345 112.801 262.17C113.226 262.189 113.649 262.253 114.061 262.36L117.441 263.05L128.591 265.38L139.761 267.66L143.141 268.37C143.56 268.435 143.973 268.542 144.371 268.69Z" fill="#0E1C22"/>
<path d="M147.08 232.83C147.08 232.97 139.08 232.49 129.15 231.75C119.22 231.01 111.24 230.29 111.25 230.15C111.26 230.01 119.25 230.49 129.19 231.23C139.13 231.97 147.09 232.69 147.08 232.83Z" fill="#0E1C22"/>
<path d="M149.7 201.27C149.276 201.364 148.844 201.418 148.41 201.43C147.58 201.5 146.41 201.58 144.88 201.66C141.88 201.81 137.77 201.93 133.22 201.9C128.67 201.87 124.53 201.7 121.55 201.52C120.06 201.42 118.86 201.33 118.02 201.25C117.588 201.24 117.158 201.18 116.74 201.07C117.172 201.022 117.608 201.022 118.04 201.07L121.57 201.17C124.57 201.26 128.67 201.37 133.22 201.4C137.77 201.43 141.89 201.4 144.87 201.31L148.4 201.25C148.833 201.207 149.269 201.214 149.7 201.27Z" fill="#0E1C22"/>
<path d="M128.41 171.79C127.632 172.046 126.832 172.234 126.02 172.35C124.1 172.754 122.201 173.255 120.33 173.85C118.14 174.56 116.21 175.35 114.83 175.95C114.104 176.341 113.348 176.675 112.57 176.95C113.21 176.432 113.917 176.002 114.67 175.67C118.23 173.857 122.054 172.618 126 172C126.792 171.829 127.601 171.758 128.41 171.79Z" fill="#0E1C22"/>
<path d="M148.43 183.09C148.094 182.867 147.785 182.605 147.51 182.31L145.11 180.04C143.11 178.13 140.28 175.51 137.11 172.71C133.94 169.91 130.97 167.44 128.81 165.71L126.27 163.62C125.94 163.381 125.639 163.106 125.37 162.8C125.726 162.984 126.061 163.206 126.37 163.46C127.01 163.9 127.92 164.57 129.02 165.46C131.24 167.15 134.24 169.57 137.43 172.39C140.62 175.21 143.43 177.87 145.36 179.85C146.36 180.85 147.12 181.66 147.65 182.23C147.939 182.489 148.201 182.777 148.43 183.09Z" fill="#0E1C22"/>
<path d="M141.88 172.3C141.013 173.641 140.007 174.888 138.88 176.02C137.857 177.26 136.708 178.389 135.45 179.39C136.308 178.042 137.314 176.794 138.45 175.67C139.467 174.425 140.617 173.295 141.88 172.3Z" fill="#0E1C22"/>
<path d="M157.6 201.85C156.372 201.909 155.142 201.873 153.92 201.74C152.693 201.769 151.465 201.695 150.25 201.52C151.451 201.176 152.709 201.074 153.95 201.22C155.197 201.183 156.438 201.397 157.6 201.85Z" fill="#0E1C22"/>
<path d="M155.241 235.21C154.007 235.436 152.749 235.494 151.501 235.38C150.247 235.44 148.991 235.322 147.771 235.03C149.004 234.804 150.262 234.746 151.51 234.86C152.764 234.802 154.02 234.92 155.241 235.21Z" fill="#0E1C22"/>
<path d="M154.571 189.77C154.584 189.86 154.584 189.95 154.571 190.04V190.84C154.571 191.58 154.571 192.61 154.571 193.92C154.571 195.23 154.571 196.92 154.571 198.79C154.571 200.66 154.511 202.85 154.431 205.24C154.161 214.8 153.341 227.99 152.311 242.54C151.281 257.09 150.401 270.27 150.031 279.82C149.921 282.21 149.851 284.37 149.811 286.27C149.771 288.17 149.701 289.8 149.701 291.13C149.701 292.46 149.701 293.47 149.641 294.21C149.641 294.54 149.641 294.8 149.641 295.01C149.653 295.103 149.653 295.197 149.641 295.29C149.628 295.197 149.628 295.103 149.641 295.01C149.641 294.8 149.641 294.54 149.641 294.21C149.641 293.47 149.641 292.44 149.591 291.13C149.541 289.82 149.591 288.13 149.591 286.26C149.591 284.39 149.651 282.2 149.731 279.81C150.011 270.25 150.841 257.06 151.861 242.51C152.881 227.96 153.761 214.78 154.131 205.23C154.241 202.84 154.301 200.68 154.351 198.79C154.401 196.9 154.451 195.25 154.461 193.92C154.471 192.59 154.461 191.58 154.511 190.84V190.04C154.561 189.86 154.571 189.77 154.571 189.77Z" fill="#0E1C22"/>
<path d="M154.081 268.55C152.554 269.098 150.971 269.477 149.361 269.68C147.785 270.061 146.172 270.268 144.551 270.3C146.081 269.763 147.663 269.384 149.271 269.17C150.848 268.795 152.46 268.588 154.081 268.55Z" fill="#0E1C22"/>
<path d="M172.911 229.06C172.08 229.696 171.205 230.271 170.291 230.78C168.651 231.78 166.401 233.23 163.981 234.91C161.561 236.59 159.431 238.19 157.901 239.37C157.103 240.046 156.262 240.667 155.381 241.23C156.067 240.435 156.834 239.715 157.671 239.08C159.151 237.83 161.251 236.17 163.671 234.48C166.091 232.79 168.391 231.4 170.081 230.48C170.977 229.918 171.925 229.443 172.911 229.06Z" fill="#0E1C22"/>
<path d="M169.721 242.48C169.188 241.761 168.723 240.994 168.331 240.19C167.511 238.75 166.331 236.78 165.041 234.65C163.751 232.52 162.431 230.65 161.501 229.26C160.954 228.549 160.469 227.793 160.051 227C160.706 227.6 161.293 228.271 161.801 229C162.801 230.31 164.141 232.18 165.481 234.33C166.821 236.48 167.921 238.49 168.651 239.98C169.099 240.771 169.458 241.609 169.721 242.48Z" fill="#0E1C22"/>
</svg>
