<svg width="750" height="500" viewBox="0 0 750 500" fill="none" xmlns="http://www.w3.org/2000/svg">
<path d="M94.1 384.6V429.9H86.54V434.82H94.1V465.15H235.51V437.55H225V431.55H235.48V422.55H240.13V418.45H234.6V384.6H94.1Z" fill="#123844"/>
<path d="M197.96 384.73V464.64H235.51V437.05H225.03V431.54L235.51 431.73V422.71L240.25 422.72L240.16 418.06L234.63 417.93V384.6L197.96 384.73Z" fill="#1A3840"/>
<path d="M200.63 434.17C200.63 434.45 175.04 434.67 143.49 434.67C111.94 434.67 86.3398 434.45 86.3398 434.17C86.3398 433.89 111.92 433.67 143.49 433.67C175.06 433.67 200.63 433.89 200.63 434.17Z" fill="#2A4D59"/>
<path d="M200.63 429.57C200.63 429.85 175.04 430.07 143.49 430.07C111.94 430.07 86.3398 429.85 86.3398 429.57C86.3398 429.29 111.92 429.07 143.49 429.07C175.06 429.07 200.63 429.29 200.63 429.57Z" fill="#2A4D59"/>
<path d="M208 417.18C208 417.46 182.41 417.69 150.86 417.69C119.31 417.69 93.71 417.46 93.71 417.18C93.71 416.9 119.29 416.68 150.86 416.68C182.43 416.68 208 416.91 208 417.18Z" fill="#2A4D59"/>
<path d="M208.68 450.94C208.68 451.21 183.09 451.44 151.53 451.44C119.97 451.44 94.3896 451.21 94.3896 450.94C94.3896 450.67 119.97 450.43 151.53 450.43C183.09 450.43 208.68 450.66 208.68 450.94Z" fill="#2A4D59"/>
<path d="M392.08 72.91C395.276 70.9772 398.716 69.4806 402.31 68.46L404.42 58.33L421.53 58.03L423.99 68.03C427.617 68.9187 431.108 70.291 434.37 72.11L443 66.49L455.31 78.38L450 87.22C451.934 90.4189 453.431 93.863 454.45 97.46L464.58 99.56L464.88 116.67L454.83 119.14C453.939 122.767 452.567 126.258 450.75 129.52L456.41 138.17L444.5 150.48L435.66 145.12C432.458 147.047 429.015 148.541 425.42 149.56L423.32 159.69L406.21 159.99L403.74 149.94C400.113 149.05 396.622 147.677 393.36 145.86L384.71 151.53L372.4 139.64L377.76 130.8C375.83 127.603 374.337 124.163 373.32 120.57L363.19 118.46L362.89 101.35L372.94 98.89C373.822 95.2638 375.188 91.7726 377 88.51L371.33 79.86L383.22 67.55L392.06 72.91H392.08ZM401.2 95.7C398.683 98.3148 396.998 101.617 396.358 105.189C395.717 108.76 396.149 112.442 397.599 115.769C399.049 119.095 401.453 121.917 404.506 123.878C407.559 125.84 411.125 126.852 414.754 126.788C418.382 126.724 421.91 125.586 424.892 123.518C427.874 121.45 430.176 118.544 431.508 115.169C432.84 111.793 433.141 108.098 432.374 104.551C431.608 101.004 429.807 97.7642 427.2 95.24C425.464 93.5597 423.414 92.2384 421.167 91.3519C418.92 90.4654 416.52 90.031 414.104 90.0737C411.689 90.1165 409.306 90.6354 407.091 91.6009C404.877 92.5664 402.875 93.9593 401.2 95.7Z" fill="#1A3840"/>
<path d="M487.06 52.81C488.935 51.6806 490.953 50.8063 493.06 50.21L494.29 44.3L504.29 44.13L505.68 50C507.795 50.5245 509.833 51.3247 511.74 52.38L516.74 49.08L524 56L520.88 61.16C522.006 63.036 522.877 65.0538 523.47 67.16L529.38 68.39L529.55 78.39L523.69 79.83C523.167 81.9271 522.367 83.9449 521.31 85.83L524.62 90.83L517.68 98.01L512.52 94.88C510.646 96.0129 508.628 96.8875 506.52 97.48L505.29 103.38L495.29 103.56L493.86 97.7C491.743 97.1773 489.706 96.377 487.8 95.32L482.8 98.62L475.61 91.69L478.74 86.53C477.609 84.6562 476.738 82.6378 476.15 80.53L470.24 79.3L470.06 69.3L475.89 68C476.416 65.9025 477.219 63.8847 478.28 62L474.97 57L481.9 49.82L487.06 52.95V52.81ZM492.38 66.1C490.909 67.6236 489.922 69.5492 489.545 71.6333C489.169 73.7173 489.418 75.8664 490.262 77.8087C491.107 79.751 492.508 81.3993 494.289 82.5454C496.07 83.6915 498.151 84.2838 500.268 84.2474C502.386 84.2111 504.445 83.5477 506.186 82.3412C507.926 81.1347 509.27 79.4393 510.047 77.4691C510.824 75.499 511 73.3427 510.552 71.2728C510.104 69.2028 509.052 67.3123 507.53 65.84C506.518 64.8618 505.324 64.0925 504.015 63.5762C502.706 63.0598 501.308 62.8064 499.901 62.8306C498.494 62.8547 497.105 63.1559 495.815 63.7169C494.524 64.2779 493.357 65.0877 492.38 66.1Z" fill="#1A3840"/>
<path d="M636.469 206.05C638.954 204.549 641.628 203.386 644.419 202.59L646.049 194.73L659.34 194.49L661.26 202.3C664.076 202.991 666.787 204.057 669.32 205.47L676.03 201.07L685.599 210.3L681.43 217.16C682.933 219.661 684.096 222.352 684.89 225.16L692.75 226.8L693 240L685.2 241.91C684.505 244.739 683.428 247.461 682 250L686.4 256.72L677.169 266.28L670.299 262.12C667.82 263.622 665.149 264.782 662.359 265.57L660.719 273.44L647.43 273.67L645.52 265.87C642.705 265.173 639.995 264.107 637.46 262.7L630.74 267.1L621.18 257.87L625.34 251C623.838 248.517 622.677 245.843 621.89 243.05L614 241.43L613.77 228.14L621.57 226.22C622.27 223.406 623.336 220.697 624.74 218.16L620.34 211.45L629.57 201.88L636.44 206.05H636.469ZM643.549 223.75C641.591 225.779 640.278 228.343 639.777 231.118C639.275 233.893 639.608 236.755 640.732 239.341C641.857 241.927 643.723 244.121 646.095 245.647C648.467 247.172 651.237 247.96 654.057 247.911C656.876 247.863 659.618 246.979 661.935 245.372C664.253 243.765 666.042 241.507 667.076 238.883C668.11 236.26 668.343 233.389 667.746 230.633C667.148 227.877 665.747 225.36 663.719 223.4C662.372 222.098 660.782 221.074 659.039 220.387C657.296 219.7 655.435 219.363 653.562 219.396C651.689 219.428 649.84 219.83 648.122 220.577C646.405 221.324 644.851 222.402 643.549 223.75Z" fill="#1A3840"/>
<path d="M693 465.93C693 466.07 547 466.19 367 466.19C187 466.19 41 466.07 41 465.93C41 465.79 187 465.67 367 465.67C547 465.67 693 465.78 693 465.93Z" fill="#77DBF2"/>
<path d="M401.75 35.46H44.3301V315.14H401.75V35.46Z" fill="#0E1C22"/>
<path d="M403.16 35.46H44.4004V58.72H403.16V35.46Z" fill="#77DBF2"/>
<path d="M64.3604 58.72H44.4004V315.14H64.3604V58.72Z" fill="#295F70"/>
<path d="M403.16 58.72H44.4004V74.13H403.16V58.72Z" fill="#295F70"/>
<path d="M51.7206 53.07C51.6559 53.0709 51.5916 53.059 51.5316 53.035C51.4715 53.011 51.4168 52.9753 51.3706 52.93C51.3237 52.8835 51.2865 52.8282 51.2611 52.7673C51.2357 52.7064 51.2227 52.641 51.2227 52.575C51.2227 52.509 51.2357 52.4436 51.2611 52.3827C51.2865 52.3218 51.3237 52.2665 51.3706 52.22L62.7606 40.64C62.8062 40.5934 62.8606 40.5564 62.9207 40.5312C62.9808 40.5059 63.0454 40.4929 63.1106 40.4929C63.1757 40.4929 63.2403 40.5059 63.3004 40.5312C63.3605 40.5564 63.4149 40.5934 63.4606 40.64C63.5074 40.6865 63.5446 40.7418 63.57 40.8027C63.5954 40.8636 63.6085 40.929 63.6085 40.995C63.6085 41.061 63.5954 41.1264 63.57 41.1873C63.5446 41.2482 63.5074 41.3035 63.4606 41.35L52.0806 52.92C51.9852 53.0157 51.8557 53.0697 51.7206 53.07Z" fill="#0E1C22"/>
<path d="M63.21 53C63.1444 53.0008 63.0794 52.9879 63.0192 52.962C62.9589 52.9362 62.9047 52.898 62.86 52.85L51.28 41.45C51.1845 41.3572 51.1299 41.2302 51.128 41.0971C51.1261 40.9639 51.1772 40.8355 51.27 40.74C51.3629 40.6445 51.4898 40.5898 51.623 40.5879C51.7561 40.5861 51.8845 40.6372 51.98 40.73L63.56 52.12C63.6069 52.1665 63.6441 52.2218 63.6695 52.2827C63.6949 52.3436 63.7079 52.409 63.7079 52.475C63.7079 52.541 63.6949 52.6063 63.6695 52.6673C63.6441 52.7282 63.6069 52.7835 63.56 52.83C63.5172 52.8817 63.4638 52.9236 63.4034 52.9529C63.3431 52.9822 63.2771 52.9983 63.21 53Z" fill="#0E1C22"/>
<path d="M401.29 74.13C401.29 74.27 322.52 74.39 225.37 74.39C128.22 74.39 49.4297 74.27 49.4297 74.13C49.4297 73.99 128.19 73.87 225.37 73.87C322.55 73.87 401.29 74 401.29 74.13Z" fill="#77DBF2"/>
<path d="M64.3596 314.23C64.2196 314.23 64.0996 257.66 64.0996 187.89C64.0996 118.12 64.2196 61.55 64.3596 61.55C64.4996 61.55 64.6196 118.1 64.6196 187.89C64.6196 257.68 64.4996 314.23 64.3596 314.23Z" fill="#77DBF2"/>
<path d="M84.8597 73.87C84.5968 71.8279 84.5098 69.767 84.5997 67.71C84.5098 65.653 84.5968 63.5921 84.8597 61.55C85.1167 63.5926 85.2037 65.653 85.1197 67.71C85.2037 69.767 85.1167 71.8274 84.8597 73.87Z" fill="#77DBF2"/>
<path d="M105.34 73.87C105.083 71.8274 104.996 69.767 105.08 67.71C104.996 65.653 105.083 63.5926 105.34 61.55C105.603 63.5921 105.69 65.653 105.6 67.71C105.69 69.767 105.603 71.8279 105.34 73.87Z" fill="#77DBF2"/>
<path d="M125.83 73.87C125.567 71.8279 125.48 69.767 125.57 67.71C125.48 65.653 125.567 63.5921 125.83 61.55C126.087 63.5926 126.174 65.653 126.09 67.71C126.174 69.767 126.087 71.8274 125.83 73.87Z" fill="#77DBF2"/>
<path d="M146.31 73.87C146.053 71.8274 145.967 69.767 146.05 67.71C145.967 65.653 146.053 63.5926 146.31 61.55C146.573 63.5921 146.66 65.653 146.57 67.71C146.66 69.767 146.573 71.8279 146.31 73.87Z" fill="#77DBF2"/>
<path d="M166.8 73.87C166.537 71.8279 166.45 69.767 166.54 67.71C166.45 65.653 166.537 63.5921 166.8 61.55C167.057 63.5926 167.144 65.653 167.06 67.71C167.144 69.767 167.057 71.8274 166.8 73.87Z" fill="#77DBF2"/>
<path d="M187.28 73.87C187.023 71.8274 186.936 69.767 187.02 67.71C186.936 65.653 187.023 63.5926 187.28 61.55C187.543 63.5921 187.63 65.653 187.54 67.71C187.63 69.767 187.543 71.8279 187.28 73.87Z" fill="#77DBF2"/>
<path d="M207.77 73.87C207.507 71.8279 207.42 69.767 207.51 67.71C207.42 65.653 207.507 63.5921 207.77 61.55C208.027 63.5926 208.114 65.653 208.03 67.71C208.114 69.767 208.027 71.8274 207.77 73.87Z" fill="#77DBF2"/>
<path d="M228.25 73.87C227.993 71.8274 227.906 69.767 227.99 67.71C227.906 65.653 227.993 63.5926 228.25 61.55C228.513 63.5921 228.6 65.653 228.51 67.71C228.6 69.767 228.513 71.8279 228.25 73.87Z" fill="#77DBF2"/>
<path d="M248.74 73.87C248.477 71.8279 248.39 69.767 248.48 67.71C248.39 65.653 248.477 63.5921 248.74 61.55C248.997 63.5926 249.084 65.653 249 67.71C249.084 69.767 248.997 71.8274 248.74 73.87Z" fill="#77DBF2"/>
<path d="M269.22 73.87C268.963 71.8274 268.876 69.767 268.96 67.71C268.876 65.653 268.963 63.5926 269.22 61.55C269.477 63.5926 269.564 65.653 269.48 67.71C269.564 69.767 269.477 71.8274 269.22 73.87Z" fill="#77DBF2"/>
<path d="M289.71 73.87C289.447 71.8279 289.36 69.767 289.45 67.71C289.36 65.653 289.447 63.5921 289.71 61.55C289.967 63.5926 290.054 65.653 289.97 67.71C290.054 69.767 289.967 71.8274 289.71 73.87Z" fill="#77DBF2"/>
<path d="M310.19 73.87C309.933 71.8274 309.846 69.767 309.93 67.71C309.846 65.653 309.933 63.5926 310.19 61.55C310.447 63.5926 310.534 65.653 310.45 67.71C310.534 69.767 310.447 71.8274 310.19 73.87Z" fill="#77DBF2"/>
<path d="M330.681 73.87C330.411 71.8285 330.321 69.7673 330.411 67.71C330.321 65.6527 330.411 63.5915 330.681 61.55C330.938 63.5926 331.025 65.653 330.941 67.71C331.025 69.767 330.938 71.8274 330.681 73.87Z" fill="#77DBF2"/>
<path d="M351.16 73.87C350.903 71.8274 350.816 69.767 350.9 67.71C350.816 65.653 350.903 63.5926 351.16 61.55C351.417 63.5926 351.504 65.653 351.42 67.71C351.504 69.767 351.417 71.8274 351.16 73.87Z" fill="#77DBF2"/>
<path d="M371.641 73.87C371.384 71.8274 371.297 69.767 371.381 67.71C371.297 65.653 371.384 63.5926 371.641 61.55C371.91 63.5915 372 65.6527 371.911 67.71C372 69.7673 371.91 71.8285 371.641 73.87Z" fill="#77DBF2"/>
<path d="M392.13 73.87C391.873 71.8274 391.786 69.767 391.87 67.71C391.786 65.653 391.873 63.5926 392.13 61.55C392.387 63.5926 392.474 65.653 392.39 67.71C392.474 69.767 392.387 71.8274 392.13 73.87Z" fill="#77DBF2"/>
<path d="M64.3597 91.56C61.8823 91.8233 59.3894 91.9102 56.8997 91.82C54.4067 91.9104 51.9104 91.8235 49.4297 91.56C51.9108 91.3025 54.4067 91.2156 56.8997 91.3C59.3894 91.2158 61.8819 91.3027 64.3597 91.56Z" fill="#77DBF2"/>
<path d="M64.3597 110.44C61.8823 110.703 59.3894 110.79 56.8997 110.7C54.4067 110.79 51.9104 110.703 49.4297 110.44C51.9108 110.183 54.4067 110.096 56.8997 110.18C59.3894 110.096 61.8819 110.183 64.3597 110.44Z" fill="#77DBF2"/>
<path d="M64.3597 129.32C61.8819 129.577 59.3894 129.664 56.8997 129.58C54.4067 129.664 51.9108 129.577 49.4297 129.32C51.9108 129.063 54.4067 128.976 56.8997 129.06C59.3894 128.976 61.8819 129.063 64.3597 129.32Z" fill="#77DBF2"/>
<path d="M64.3597 148.2C61.8819 148.457 59.3894 148.544 56.8997 148.46C54.4067 148.544 51.9108 148.457 49.4297 148.2C51.9104 147.936 54.4067 147.85 56.8997 147.94C59.3894 147.85 61.8823 147.937 64.3597 148.2Z" fill="#77DBF2"/>
<path d="M64.3597 167.07C61.8823 167.333 59.3894 167.42 56.8997 167.33C54.4067 167.42 51.9104 167.333 49.4297 167.07C51.9108 166.813 54.4067 166.726 56.8997 166.81C59.3894 166.726 61.8819 166.813 64.3597 167.07Z" fill="#77DBF2"/>
<path d="M64.3597 186C61.8819 186.257 59.3894 186.344 56.8997 186.26C54.4067 186.344 51.9108 186.257 49.4297 186C51.9108 185.743 54.4067 185.656 56.8997 185.74C59.3894 185.656 61.8819 185.743 64.3597 186Z" fill="#77DBF2"/>
<path d="M64.3597 204.83C61.8819 205.087 59.3894 205.174 56.8997 205.09C54.4067 205.174 51.9108 205.087 49.4297 204.83C51.9104 204.567 54.4067 204.48 56.8997 204.57C59.3894 204.48 61.8823 204.567 64.3597 204.83Z" fill="#77DBF2"/>
<path d="M64.3597 223.71C61.8819 223.967 59.3894 224.054 56.8997 223.97C54.4067 224.054 51.9108 223.967 49.4297 223.71C51.9104 223.446 54.4067 223.36 56.8997 223.45C59.3894 223.36 61.8823 223.447 64.3597 223.71Z" fill="#77DBF2"/>
<path d="M64.3597 242.58C61.8823 242.843 59.3894 242.93 56.8997 242.84C54.4067 242.93 51.9104 242.843 49.4297 242.58C51.9108 242.323 54.4067 242.236 56.8997 242.32C59.3894 242.236 61.8819 242.323 64.3597 242.58Z" fill="#77DBF2"/>
<path d="M64.3597 261.46C61.8819 261.717 59.3894 261.804 56.8997 261.72C54.4067 261.804 51.9108 261.717 49.4297 261.46C51.9108 261.202 54.4067 261.116 56.8997 261.2C59.3894 261.116 61.8819 261.203 64.3597 261.46Z" fill="#77DBF2"/>
<path d="M64.3597 280.34C61.8819 280.597 59.3894 280.684 56.8997 280.6C54.4067 280.684 51.9108 280.597 49.4297 280.34C51.9104 280.076 54.4067 279.99 56.8997 280.08C59.3894 279.99 61.8823 280.077 64.3597 280.34Z" fill="#77DBF2"/>
<path d="M64.3597 299.21C61.8828 299.48 59.3896 299.57 56.8997 299.48C54.4064 299.57 51.9099 299.48 49.4297 299.21C51.912 298.969 54.4078 298.899 56.8997 299C59.3882 298.899 61.8808 298.969 64.3597 299.21Z" fill="#77DBF2"/>
<path d="M278.73 98.5C278.73 98.6 278.68 98.72 278.63 98.94C278.58 99.16 278.48 99.7 278.33 100.3C277.869 102.008 277.281 103.68 276.57 105.3C273.858 111.514 269.441 116.833 263.83 120.64L263.72 120.36L273.39 118.9H273.66L273.59 119.16C272.36 123.58 271.1 128.54 268.42 133.3C267.056 135.766 265.257 137.965 263.11 139.79C260.836 141.759 258.072 143.075 255.11 143.6V143.15L263.04 143.85H263.28V144.09C262.105 153.913 259.964 163.597 256.89 173C253.543 183.344 249.487 193.444 244.75 203.23C243.07 206.81 241.3 210.3 239.55 213.72L238.95 214.9L239.06 213.58C240.81 193.42 242.97 174.47 241.68 157.93V157.85C243.992 148.295 247.175 138.973 251.19 130C252.91 126.272 254.868 122.658 257.05 119.18C258.93 116.24 261.015 113.436 263.29 110.79C266.479 107.069 270.159 103.799 274.23 101.07C274.93 100.59 275.58 100.21 276.13 99.88C276.68 99.55 277.13 99.28 277.56 99.07L278.73 98.47L277.57 99.15C276.83 99.56 275.7 100.24 274.31 101.15C270.279 103.934 266.639 107.247 263.49 111C261.239 113.643 259.181 116.443 257.33 119.38C255.17 122.857 253.233 126.468 251.53 130.19C247.553 139.154 244.403 148.463 242.12 158V157.92C243.45 174.53 241.31 193.5 239.57 213.66L239.08 213.51C240.83 210.09 242.59 206.61 244.27 203.04C253.97 182.83 260.74 162.45 262.76 144.04L262.97 144.3L255.04 143.59L253.2 143.42L255.02 143.14C257.905 142.641 260.6 141.369 262.82 139.46C264.935 137.668 266.71 135.51 268.06 133.09C270.72 128.41 271.99 123.48 273.24 119.09L273.44 119.31L263.75 120.73L263.08 120.83L263.65 120.45C266.838 118.299 269.657 115.649 272 112.6C273.746 110.341 275.22 107.884 276.39 105.28C277.115 103.658 277.726 101.987 278.22 100.28C278.53 99.23 278.66 98.75 278.73 98.5Z" fill="#77DBF2"/>
<path d="M237.16 224.84C237.242 224.624 237.312 224.404 237.37 224.18C237.5 223.74 237.64 223.07 237.82 222.18C238.15 220.41 238.54 217.79 238.95 214.39C239.77 207.58 240.66 197.68 241.54 185.39C242.42 173.1 242.72 158.18 239.54 141.96C237.895 133.452 235.243 125.171 231.64 117.29C229.742 113.102 227.484 109.087 224.89 105.29C222.242 101.334 219.329 97.5615 216.17 94L216.62 93.85C216.08 98.69 215.56 103.85 215.13 109.05C214.73 114.05 214.3 119.05 214.39 123.93C214.361 126.343 215.256 128.675 216.89 130.45C218.468 132.224 220.351 133.7 222.45 134.81L224.23 135.81L222.23 135.32L212.68 132.93L212.99 132.69C212.923 135.903 212.82 139.07 212.68 142.19C212.52 145.31 212.37 148.38 211.99 151.4C211.99 151.78 211.88 152.16 211.81 152.54C211.754 152.871 211.754 153.209 211.81 153.54C211.95 154.254 212.228 154.934 212.63 155.54C213.441 156.75 214.395 157.858 215.47 158.84C217.554 160.79 219.795 162.566 222.17 164.15L222.78 164.57H211.58L211.8 164.35C212.013 173.501 213.908 182.535 217.39 191C220.008 197.52 223.162 203.812 226.82 209.81C229.82 214.81 232.47 218.54 234.3 221.06C235.21 222.32 235.93 223.26 236.42 223.9L236.97 224.62L237.16 224.87C237.16 224.87 237.09 224.8 236.96 224.64L236.37 223.94C235.87 223.32 235.12 222.38 234.19 221.13C232.33 218.64 229.66 214.92 226.6 209.94C222.903 203.947 219.715 197.655 217.07 191.13C213.531 182.625 211.598 173.539 211.37 164.33V164.12H222L221.88 164.53C219.478 162.934 217.211 161.145 215.1 159.18C214 158.168 213.023 157.03 212.19 155.79C211.754 155.139 211.452 154.408 211.3 153.64C211.229 153.243 211.229 152.837 211.3 152.44C211.36 152.08 211.44 151.71 211.48 151.34C211.85 148.34 211.99 145.28 212.14 142.17C212.29 139.06 212.38 135.89 212.45 132.68V132.37L212.76 132.44L222.32 134.83L222.14 135.3C219.976 134.168 218.037 132.65 216.42 130.82C215.59 129.883 214.915 128.82 214.42 127.67C214.195 127.083 214.021 126.477 213.9 125.86C213.9 125.24 213.76 124.61 213.76 123.99C213.7 121.52 213.76 118.99 213.95 116.55C214.14 114.11 214.28 111.55 214.5 109.05C214.93 103.83 215.5 98.68 215.99 93.83L216.06 93.26L216.44 93.69C219.649 97.255 222.613 101.034 225.31 105C227.912 108.825 230.18 112.866 232.09 117.08C235.694 124.999 238.346 133.317 239.99 141.86C243.15 158.14 242.8 173.1 241.89 185.4C240.98 197.7 240.02 207.64 239.14 214.4C238.7 217.8 238.28 220.4 237.91 222.19C237.787 222.866 237.623 223.534 237.42 224.19C237.368 224.419 237.28 224.638 237.16 224.84Z" fill="#77DBF2"/>
<path d="M251.62 228.36C251.594 228.168 251.594 227.972 251.62 227.78C251.62 227.4 251.62 226.83 251.71 226.09C251.83 224.6 252.07 222.4 252.44 219.58C253.18 213.94 254.44 205.77 256.11 195.64C257.78 185.51 260.34 173.35 266.33 160.91C267.84 157.82 269.58 154.74 271.48 151.67L274.4 147.05C275.4 145.5 276.27 143.89 277.31 142.28C279.502 139.107 282.104 136.239 285.05 133.75C288.06 131.157 291.277 128.816 294.67 126.75L295.12 126.47L295 127C294.47 131.08 293.87 135.39 293.19 139.75C292.52 143.88 291.89 147.96 290.83 151.93C290.701 152.431 290.538 152.922 290.34 153.4L289.99 154.11C289.86 154.34 289.7 154.55 289.56 154.77C288.935 155.597 288.186 156.322 287.34 156.92C285.667 158.073 283.801 158.916 281.83 159.41L281.77 158.9H289.98H290.3L290.23 159.21C289.1 164.43 287.97 169.53 287.33 174.5C287.33 174.81 287.28 175.12 287.26 175.43C287.253 175.772 287.185 176.111 287.06 176.43C286.782 177.026 286.391 177.562 285.91 178.01C284.999 178.848 283.992 179.577 282.91 180.18C280.813 181.359 278.622 182.362 276.36 183.18V182.75L284.82 184.82H285.03L285 185C282.999 192.397 279.605 199.345 275 205.47C271.511 210.175 267.623 214.572 263.38 218.61C259.87 221.97 256.92 224.39 254.89 226C253.89 226.8 253.08 227.39 252.54 227.79L251.92 228.23L251.7 228.36L251.91 228.19L252.5 227.73C253.03 227.33 253.81 226.73 254.81 225.9C256.81 224.26 259.73 221.82 263.21 218.43C267.412 214.374 271.263 209.968 274.72 205.26C279.276 199.16 282.632 192.251 284.61 184.9L284.77 185.16L276.3 183.16L275.59 182.98L276.28 182.72C278.515 181.898 280.679 180.895 282.75 179.72C283.806 179.129 284.792 178.422 285.69 177.61C286.111 177.205 286.451 176.723 286.69 176.19C286.799 175.927 286.857 175.645 286.86 175.36C286.86 175.04 286.86 174.72 286.93 174.36C287.57 169.36 288.7 164.25 289.82 159.01L290.06 159.32H281.86H279.86L281.86 158.8C283.763 158.322 285.565 157.505 287.18 156.39C287.979 155.835 288.687 155.161 289.28 154.39C289.845 153.584 290.252 152.678 290.48 151.72C291.48 147.81 292.14 143.72 292.81 139.6C293.49 135.25 294.09 130.94 294.62 126.87L295.01 127.13C291.639 129.191 288.448 131.533 285.47 134.13C282.556 136.585 279.977 139.412 277.8 142.54C276.8 144.1 275.89 145.75 274.89 147.3L271.97 151.92C270.099 154.892 268.383 157.96 266.83 161.11C260.83 173.46 258.3 185.62 256.53 195.69C254.76 205.76 253.53 213.96 252.71 219.6C252.31 222.41 252.04 224.6 251.89 226.08C251.74 227.56 251.62 228.36 251.62 228.36Z" fill="#77DBF2"/>
<path d="M228.83 237.48C228.83 237.19 228.77 236.68 228.7 235.59C228.63 234.97 228.53 234.2 228.42 233.31C228.31 232.42 228.11 231.37 227.84 230.21C226.319 223.663 224.228 217.262 221.59 211.08C220.79 209.08 219.9 207.08 218.93 204.93C217.942 202.713 216.837 200.55 215.62 198.45C214.284 196.218 212.811 194.07 211.21 192.02C209.58 189.88 207.88 187.69 206.05 185.51C202.282 180.882 197.96 176.734 193.18 173.16C188.038 169.274 182.059 166.644 175.72 165.48L175.99 165.09C177.398 167.491 179.172 169.658 181.25 171.51C184.284 174.228 187.894 176.225 191.81 177.35L192.91 177.66L191.78 177.85L184.47 179.08L184.64 178.69C187 182.28 189.37 185.8 192.53 188.35C195.69 190.9 199.59 192.35 203.31 191.77L205.24 191.46L203.44 192.22L197.89 194.58L198 194.28C201.225 200.769 205.024 206.957 209.35 212.77C213.13 218.04 216.62 222.5 219.52 226.15C222.42 229.8 224.77 232.61 226.38 234.53L228.21 236.72C228.63 237.22 228.81 237.47 228.83 237.48C228.592 237.258 228.368 237.02 228.16 236.77L226.27 234.62C224.63 232.73 222.27 229.93 219.27 226.31C216.27 222.69 212.82 218.24 209.01 212.99C204.639 207.175 200.803 200.977 197.55 194.47L197.45 194.26L197.67 194.17L203.21 191.79L203.35 192.24C199.45 192.88 195.35 191.32 192.18 188.74C189.01 186.16 186.54 182.56 184.18 178.97L183.97 178.64L184.35 178.58L191.66 177.34V177.84C184.882 175.897 179.108 171.426 175.53 165.35L175.25 164.87L175.79 164.96C182.209 166.145 188.263 168.813 193.47 172.75C198.273 176.359 202.616 180.543 206.4 185.21C208.23 187.4 209.93 189.6 211.55 191.75C213.16 193.817 214.636 195.985 215.97 198.24C217.191 200.354 218.292 202.534 219.27 204.77C220.23 206.897 221.11 208.957 221.91 210.95C224.515 217.16 226.553 223.593 228 230.17C228.26 231.34 228.39 232.38 228.54 233.29C228.69 234.2 228.71 234.96 228.77 235.58C228.82 236.68 228.82 237.19 228.83 237.48Z" fill="#77DBF2"/>
<path d="M215 249V259.57H219.94L225.54 295.13H256.86L262.08 259.57H266.82V249H215Z" fill="#15CDF2"/>
<path d="M215 249C215 249 215.07 249 215.23 249H215.93H218.71L229.27 248.94L266.82 248.82H267.06V249C267.06 252.35 267.06 255.9 267.06 259.57V259.81H262.06L262.31 259.59C261.14 267.59 259.88 276.21 258.57 285.13C258.07 288.52 257.57 291.87 257.09 295.13V295.36H256.87H225.55H225.35V295.16C223.09 280.55 221.18 268.28 219.84 259.59L219.98 259.71H215.04H214.92V259.59C214.92 256.15 214.97 253.5 214.99 251.69C214.99 250.823 214.99 250.157 214.99 249.69C214.99 249.24 214.99 249.03 214.99 249.03C214.99 249.03 214.99 249.27 214.99 249.73C214.99 250.19 214.99 250.89 214.99 251.73C214.99 253.52 214.99 256.15 215.06 259.56L214.94 259.44H219.88H220V259.56C221.39 268.24 223.35 280.5 225.69 295.1L225.46 294.9H256.78L256.52 295.12C257.01 291.83 257.52 288.48 257.99 285.12C259.31 276.2 260.58 267.58 261.76 259.59V259.38H266.71L266.47 259.63C266.47 255.96 266.47 252.41 266.47 249.06L266.7 249.29L229.3 249.17L218.69 249.11L216 249H215Z" fill="#77DBF2"/>
<path d="M387.39 295.13C387.39 295.27 319.22 295.39 235.15 295.39C151.08 295.39 82.9004 295.27 82.9004 295.13C82.9004 294.99 151.05 294.87 235.15 294.87C319.25 294.87 387.39 295 387.39 295.13Z" fill="#77DBF2"/>
<path d="M276.65 159.14C276.643 159.223 276.623 159.304 276.59 159.38C276.53 159.56 276.45 159.78 276.36 160.06C276.14 160.69 275.84 161.56 275.45 162.66C274.65 164.92 273.45 168.17 271.94 172.18C268.94 180.18 264.62 191.18 260.17 203.49C257.96 209.64 255.98 215.49 254.28 220.93C252.58 226.37 251.21 231.24 250.15 235.38C249.59 237.45 249.15 239.38 248.77 240.99C248.39 242.6 248.06 244.07 247.77 245.24C247.48 246.41 247.33 247.24 247.18 247.94C247.12 248.22 247.06 248.45 247.02 248.63C247.007 248.714 246.98 248.795 246.94 248.87C246.929 248.787 246.929 248.703 246.94 248.62C246.94 248.43 247.01 248.2 247.06 247.92C247.18 247.25 247.35 246.35 247.56 245.2C247.77 244.05 248.05 242.58 248.43 240.93C248.81 239.28 249.19 237.37 249.74 235.29C250.74 231.13 252.11 226.21 253.74 220.79C255.37 215.37 257.38 209.47 259.59 203.32C264.04 191.02 268.42 180.03 271.51 172.05L275.17 162.59C275.6 161.51 275.93 160.65 276.17 160.02L276.44 159.36C276.493 159.272 276.565 159.197 276.65 159.14Z" fill="#77DBF2"/>
<path d="M230.75 151.84C230.89 151.84 232.87 173.52 235.16 200.29C237.45 227.06 239.21 248.77 239.06 248.78C238.91 248.79 236.94 227.1 234.65 200.33C232.36 173.56 230.6 151.86 230.75 151.84Z" fill="#77DBF2"/>
<path d="M231.87 249.21C231.655 248.691 231.482 248.156 231.35 247.61C231.04 246.61 230.6 245.07 230.02 243.22C228.88 239.52 227.16 234.45 224.93 228.98C222.7 223.51 220.37 218.69 218.6 215.24C217.72 213.52 216.99 212.13 216.47 211.18C216.185 210.697 215.937 210.192 215.73 209.67C216.078 210.112 216.386 210.584 216.65 211.08C217.22 212 218 213.37 218.93 215.08C223.743 223.973 227.579 233.361 230.37 243.08C230.9 244.95 231.3 246.47 231.54 247.53C231.703 248.078 231.814 248.641 231.87 249.21Z" fill="#77DBF2"/>
<path d="M266.68 259.35C266.68 259.49 255.03 259.61 240.68 259.61C226.33 259.61 214.68 259.49 214.68 259.35C214.68 259.21 226.32 259.09 240.68 259.09C255.04 259.09 266.68 259.2 266.68 259.35Z" fill="#77DBF2"/>
<path d="M273.19 247.55L283.59 271.14L287.22 260.76L296.12 257.5L273.19 247.55Z" fill="#77DBF2"/>
<path d="M306.12 265.53H293.05V278.6H306.12V265.53Z" fill="#0E1C22"/>
<path d="M306.11 278.6C306.11 278.6 306.11 278.23 306.06 277.6C306.01 276.97 306.06 276.02 306 274.92C306 272.57 305.93 269.35 305.89 265.52L306.11 265.74H293.05C292.99 265.74 293.54 265.25 293.31 265.48V272.36C293.31 274.55 293.31 276.62 293.31 278.53L293.09 278.3L302.49 278.41L305.17 278.47C305.504 278.465 305.838 278.485 306.17 278.53C305.873 278.547 305.576 278.547 305.28 278.53L302.65 278.59L293.11 278.7H292.88V278.48C292.88 276.57 292.88 274.48 292.88 272.31V265.43L293.14 265.17H306.2H306.43V265.4C306.43 269.29 306.34 272.56 306.31 274.94C306.31 276.02 306.31 276.94 306.25 277.57C306.242 277.918 306.195 278.263 306.11 278.6Z" fill="#77DBF2"/>
<path d="M299.58 277.38C299.234 273.842 299.234 270.278 299.58 266.74C299.927 270.278 299.927 273.842 299.58 277.38Z" fill="#77DBF2"/>
<path d="M304.9 272.06C301.362 272.407 297.798 272.407 294.26 272.06C297.798 271.713 301.362 271.713 304.9 272.06Z" fill="#77DBF2"/>
<path d="M403.16 74.13H388.8V315.14H403.16V74.13Z" fill="#295F70"/>
<path d="M403.16 109.65C403.16 105.685 399.945 102.47 395.98 102.47C392.014 102.47 388.8 105.685 388.8 109.65V144.66C388.8 148.625 392.014 151.84 395.98 151.84C399.945 151.84 403.16 148.625 403.16 144.66V109.65Z" fill="#77DBF2"/>
<path d="M147.33 154.56C147.33 154.56 147.33 154.47 147.33 154.31C147.33 154.15 147.33 153.9 147.33 153.6C147.33 152.96 147.33 152.05 147.33 150.88C147.33 148.48 147.33 145 147.27 140.58C147.27 131.73 147.2 119.12 147.16 104.01L147.38 104.23H96.8405C96.7705 104.23 97.3305 103.74 97.0905 103.98V117.59C97.0905 122.05 97.0905 126.42 97.0905 130.66C97.0905 139.15 97.0905 147.16 97.0905 154.51L96.8605 154.28L133.44 154.4L143.73 154.46H146.46H147.17H147.41H146.51H143.82L133.58 154.52L96.8605 154.63H96.6405V154.41C96.6405 147.06 96.6405 139.05 96.6405 130.56C96.6405 126.32 96.6405 121.95 96.6405 117.49V104C96.4105 104.22 96.9605 103.67 96.9105 103.73H147.45H147.68V104C147.63 119.17 147.59 131.83 147.56 140.71C147.56 145.11 147.56 148.57 147.5 150.96C147.5 152.12 147.5 153.01 147.5 153.64C147.5 153.93 147.5 154.15 147.5 154.32C147.457 154.408 147.399 154.489 147.33 154.56Z" fill="#77DBF2"/>
<path d="M102.56 109.78H103.25H105.32L113.21 109.72L141.56 109.61H141.78V109.83C141.78 121.17 141.78 134.55 141.78 148.83C141.83 148.77 141.28 149.32 141.51 149.09H121H102.61H102.38V148.86C102.38 137.15 102.47 127.39 102.5 120.52C102.5 117.14 102.5 114.52 102.56 112.62C102.56 111.74 102.56 111.05 102.56 110.55C102.56 110.34 102.56 110.17 102.56 110.03C102.56 109.89 102.56 109.86 102.56 109.86C102.564 109.927 102.564 109.993 102.56 110.06C102.56 110.2 102.56 110.38 102.56 110.6C102.56 111.11 102.56 111.81 102.56 112.71C102.56 114.58 102.56 117.26 102.62 120.71C102.62 127.55 102.69 137.26 102.73 148.91L102.51 148.68H120.9H141.5L141.25 148.94C141.25 134.66 141.25 121.28 141.25 109.94L141.48 110.17L113.28 110.05L105.28 109.99H103.17H102.62C102.59 109.923 102.57 109.853 102.56 109.78Z" fill="#77DBF2"/>
<path d="M96.7197 104C97.8707 104.771 98.922 105.681 99.8497 106.71C100.897 107.614 101.828 108.645 102.62 109.78C101.458 109.023 100.402 108.115 99.4797 107.08C98.4378 106.169 97.511 105.135 96.7197 104Z" fill="#77DBF2"/>
<path d="M147.15 104.18C146.457 105.313 145.62 106.352 144.66 107.27C143.819 108.303 142.851 109.227 141.78 110.02C142.469 108.881 143.306 107.838 144.27 106.92C145.107 105.885 146.075 104.964 147.15 104.18Z" fill="#77DBF2"/>
<path d="M146.9 154.66C146.014 153.775 145.196 152.826 144.45 151.82C143.563 150.944 142.744 150.001 142 149C144.095 150.437 145.772 152.404 146.86 154.7L146.9 154.66Z" fill="#77DBF2"/>
<path d="M102.181 148.72C101.44 149.847 100.56 150.875 99.5605 151.78C98.6814 152.806 97.673 153.713 96.5605 154.48C97.3006 153.353 98.181 152.325 99.1805 151.42C100.063 150.397 101.071 149.49 102.181 148.72Z" fill="#77DBF2"/>
<path d="M111.07 117.57C111.199 117.557 111.33 117.557 111.46 117.57H112.65L117.21 117.51L133.65 117.39H133.87V117.62C133.87 124.19 133.87 131.93 133.87 140.19L133.6 140.45H121.72H111.07H110.85V140.22C110.9 133.45 110.94 127.8 110.96 123.78C110.96 121.86 111.01 120.32 111.02 119.22C111.02 118.73 111.02 118.34 111.02 118.04C111.02 117.74 111.02 117.64 111.02 117.65C111.032 117.796 111.032 117.944 111.02 118.09C111.02 118.397 111.02 118.807 111.02 119.32C111.02 120.43 111.02 121.98 111.07 123.93C111.07 127.93 111.14 133.51 111.19 140.22L110.96 140H121.61H133.53C133.77 139.77 133.22 140.32 133.28 140.26C133.28 132 133.28 124.26 133.28 117.69L133.51 117.91L117.22 117.8L112.6 117.74H111.37L111.07 117.57Z" fill="#77DBF2"/>
<path d="M403.16 315.35C403.16 315.49 323.08 315.61 224.32 315.61C125.56 315.61 45.4697 315.49 45.4697 315.35C45.4697 315.21 125.53 315.09 224.32 315.09C323.11 315.09 403.16 315.2 403.16 315.35Z" fill="#77DBF2"/>
<path d="M457.8 168.27H326.46V245.41H457.8V168.27Z" fill="#295F70"/>
<path d="M457.8 245.41C457.8 245.41 457.8 244.93 457.8 244.01C457.8 243.09 457.8 241.74 457.8 240.01C457.8 236.46 457.8 231.25 457.75 224.56C457.75 211.2 457.69 191.94 457.65 168.31L457.85 168.51L326.52 168.57L326.78 168.31C326.78 195.62 326.78 221.7 326.78 245.45L326.54 245.2L421.02 245.32L448.14 245.39H455.37H457.24H457.88H457.26H455.42H448.24L421.18 245.45L326.54 245.57H326.3V245.33C326.3 221.58 326.3 195.5 326.3 168.19V168H326.57L457.9 168.05H458.1V168.26C458.1 191.94 458.02 211.26 457.99 224.64C457.99 231.3 457.99 236.5 457.94 240.04C457.94 241.79 457.94 243.13 457.94 244.04C457.94 244.95 457.8 245.41 457.8 245.41Z" fill="#77DBF2"/>
<path d="M352.22 204.28H339.38V191.45H352.22V204.28ZM340.38 203.28H351.22V192.45H340.38V203.28Z" fill="#77DBF2"/>
<path d="M457.799 168.27H370.479V185.03H457.799V168.27Z" fill="#77DBF2"/>
<path d="M365.41 176.39C365.41 176.54 358.41 176.65 349.73 176.65C341.05 176.65 334.04 176.54 334.04 176.39C334.04 176.24 341.04 176.13 349.73 176.13C358.42 176.13 365.41 176.25 365.41 176.39Z" fill="#77DBF2"/>
<path d="M346.35 186.58H334.52V198.41H346.35V186.58Z" fill="#15CDF2"/>
<path d="M419.05 199.06H365.2V203.63H419.05V199.06Z" fill="#15CDF2"/>
<path d="M366.22 204.23L364.48 206.79C364.43 206.862 364.402 206.947 364.397 207.034C364.392 207.122 364.412 207.209 364.453 207.286C364.494 207.363 364.556 207.428 364.631 207.472C364.706 207.517 364.792 207.541 364.88 207.54H368.31C368.397 207.541 368.483 207.517 368.558 207.472C368.634 207.428 368.695 207.363 368.736 207.286C368.777 207.209 368.797 207.122 368.792 207.034C368.787 206.947 368.759 206.862 368.71 206.79L367 204.23C366.955 204.168 366.897 204.118 366.829 204.083C366.761 204.048 366.686 204.03 366.61 204.03C366.533 204.03 366.458 204.048 366.39 204.083C366.323 204.118 366.264 204.168 366.22 204.23Z" fill="#0E1C22"/>
<path d="M419.05 212.67H365.2V217.24H419.05V212.67Z" fill="#1A3840"/>
<path d="M415.18 217.83L413.44 220.4C413.39 220.472 413.362 220.557 413.357 220.644C413.352 220.732 413.372 220.819 413.413 220.896C413.454 220.973 413.516 221.038 413.591 221.082C413.666 221.127 413.752 221.151 413.84 221.15H417.27C417.357 221.151 417.443 221.127 417.518 221.082C417.594 221.038 417.655 220.973 417.696 220.896C417.737 220.819 417.757 220.732 417.752 220.644C417.747 220.557 417.719 220.472 417.67 220.4L416 217.84C415.958 217.769 415.898 217.71 415.827 217.669C415.755 217.628 415.675 217.606 415.592 217.605C415.51 217.604 415.429 217.624 415.356 217.663C415.284 217.703 415.223 217.76 415.18 217.83Z" fill="#0E1C22"/>
<path d="M419.05 227.37H365.2V231.94H419.05V227.37Z" fill="#77DBF2"/>
<path d="M379.05 232.54L377.31 235.1C377.26 235.172 377.232 235.257 377.227 235.344C377.223 235.432 377.242 235.519 377.283 235.596C377.324 235.673 377.386 235.738 377.461 235.782C377.536 235.827 377.622 235.851 377.71 235.85H381.14C381.227 235.851 381.313 235.827 381.388 235.782C381.464 235.738 381.525 235.673 381.566 235.596C381.608 235.519 381.627 235.432 381.622 235.344C381.617 235.257 381.589 235.172 381.54 235.1L379.85 232.54C379.806 232.474 379.746 232.42 379.677 232.382C379.607 232.345 379.529 232.325 379.45 232.325C379.371 232.325 379.293 232.345 379.223 232.382C379.153 232.42 379.093 232.474 379.05 232.54Z" fill="#0E1C22"/>
<path d="M446.87 198.27H425.95V204.42H446.87V198.27Z" fill="#77DBF2"/>
<path d="M446.87 211.88H425.95V218.03H446.87V211.88Z" fill="#77DBF2"/>
<path d="M446.87 226.58H425.95V232.73H446.87V226.58Z" fill="#77DBF2"/>
<path d="M202.13 336.95H80.8799V403.1H202.13V336.95Z" fill="#295F70"/>
<path d="M202.14 403.1C202.14 403.1 202.14 402.69 202.14 401.91C202.14 401.13 202.14 399.91 202.14 398.45C202.14 395.45 202.14 390.96 202.09 385.23C202.09 373.78 202.03 357.23 201.99 336.95L202.19 337.15L80.9404 337.21L81.2003 336.95C81.2003 360.33 81.2003 382.71 81.2003 403.1L80.9503 402.86L168 403L193.08 403.07H199.77H202.1H201.53H199.83H193.18L168.18 403.14L80.8503 403.26H80.6104V403.01C80.6104 382.62 80.6104 360.24 80.6104 336.86V336.6H80.8803L202.13 336.67H202.32V337C202.32 357.37 202.24 373.92 202.22 385.4C202.22 391.11 202.22 395.55 202.22 398.58C202.22 400.07 202.22 401.22 202.22 402C202.22 402.78 202.14 403.1 202.14 403.1Z" fill="#77DBF2"/>
<path d="M107.55 370.24H95.6299V358.32H107.55V370.24ZM96.6299 369.24H106.55V359.32H96.6299V369.24Z" fill="#77DBF2"/>
<path d="M103.721 393.38C103.699 393.047 103.699 392.713 103.721 392.38C103.721 391.713 103.701 390.843 103.661 389.77C103.661 387.48 103.591 384.34 103.541 380.61L103.771 380.84H91.0406L91.3006 380.58V382.3C91.3006 382.88 91.3006 383.44 91.3006 384.01V387.3C91.3006 389.43 91.3006 391.45 91.3006 393.3L91.0806 393.08L100.241 393.19L102.851 393.25C103.461 393.25 103.791 393.25 103.851 393.3C103.563 393.348 103.272 393.368 102.981 393.36L100.421 393.41L91.1206 393.53H90.8906V393.3C90.8906 391.45 90.8906 389.43 90.8906 387.3C90.8906 386.23 90.8906 385.13 90.8906 384.01V380.58L91.1506 380.32H103.881H104.001V380.54C104.001 384.33 103.921 387.54 103.891 389.84C103.891 390.89 103.891 391.74 103.831 392.4C103.825 392.729 103.788 393.058 103.721 393.38Z" fill="#77DBF2"/>
<path d="M202.141 336.95H121.521V352.42H202.141V336.95Z" fill="#77DBF2"/>
<path d="M116.84 344.46C116.84 344.6 110.36 344.72 102.36 344.72C94.3599 344.72 87.8799 344.6 87.8799 344.46C87.8799 344.32 94.3699 344.19 102.36 344.19C110.35 344.19 116.84 344.31 116.84 344.46Z" fill="#77DBF2"/>
<path d="M102.101 353.86H91.1807V364.78H102.101V353.86Z" fill="#15CDF2"/>
<path d="M103.72 380.65H90.9902V393.38H103.72V380.65Z" fill="#15CDF2"/>
<path d="M103.72 388.83V393.38H99.1104L103.72 388.83Z" fill="#0E1C22"/>
<path d="M118.61 393.38C118.61 393.38 118.61 393.03 118.61 392.38C118.61 391.73 118.61 390.84 118.55 389.77C118.55 387.48 118.49 384.34 118.44 380.61L118.66 380.84H105.93L106.19 380.58V384.01C106.19 385.13 106.19 386.23 106.19 387.3C106.19 389.43 106.19 391.45 106.19 393.3L105.96 393.08L115.12 393.19L117.73 393.25C118.34 393.25 118.68 393.25 118.73 393.3C118.443 393.349 118.152 393.369 117.86 393.36L115.3 393.41L106 393.53H105.78V393.3C105.78 391.45 105.78 389.43 105.78 387.3C105.78 386.23 105.78 385.13 105.78 384.01V380.58L106.04 380.32H118.77H119V380.54C119 384.33 118.91 387.54 118.88 389.84C118.88 390.89 118.88 391.74 118.88 392.4C118.828 392.736 118.738 393.065 118.61 393.38Z" fill="#77DBF2"/>
<path d="M118.61 380.65H105.88V393.38H118.61V380.65Z" fill="#5A96B8"/>
<path d="M118.611 388.83V393.38H114.011L118.611 388.83Z" fill="#0E1C22"/>
<path d="M133.511 393.38C133.482 393.047 133.482 392.713 133.511 392.38C133.511 391.713 133.491 390.843 133.451 389.77C133.451 387.48 133.381 384.34 133.331 380.61L133.561 380.84H120.831L121.091 380.58V387.3C121.091 389.43 121.091 391.45 121.091 393.3L120.871 393.08L130.021 393.19L132.641 393.25C133.251 393.25 133.581 393.25 133.641 393.3C133.353 393.347 133.062 393.367 132.771 393.36L130.211 393.41L120.911 393.53H120.681V393.3C120.681 391.45 120.681 389.43 120.681 387.3V380.58C120.451 380.81 121.001 380.26 120.951 380.32H133.681H133.911V380.54C133.911 384.33 133.831 387.54 133.801 389.84C133.801 390.89 133.751 391.74 133.741 392.4C133.686 392.732 133.61 393.059 133.511 393.38Z" fill="#77DBF2"/>
<path d="M133.51 380.65H120.78V393.38H133.51V380.65Z" fill="#063547"/>
<path d="M133.51 388.83V393.38H128.9L133.51 388.83Z" fill="#0E1C22"/>
<path d="M148.4 393.38C148.362 393.048 148.346 392.714 148.351 392.38C148.351 391.713 148.33 390.843 148.29 389.77C148.29 387.48 148.22 384.34 148.18 380.61L148.4 380.84H135.671L135.93 380.58V384.01C135.93 385.13 135.93 386.23 135.93 387.3C135.93 389.43 135.93 391.45 135.93 393.3L135.711 393.08L144.87 393.19L147.48 393.25C148.09 393.25 148.42 393.25 148.48 393.3C148.193 393.349 147.902 393.369 147.611 393.36L145.051 393.41L135.751 393.53H135.521V393.3C135.521 391.45 135.521 389.43 135.521 387.3C135.521 386.23 135.521 385.13 135.521 384.01V380.58L135.781 380.32H148.51H148.741V380.54C148.741 384.33 148.65 387.54 148.62 389.84C148.62 390.89 148.621 391.74 148.561 392.4C148.547 392.732 148.493 393.061 148.4 393.38Z" fill="#77DBF2"/>
<path d="M148.4 380.65H135.67V393.38H148.4V380.65Z" fill="#77DBF2"/>
<path d="M148.401 388.83V393.38H143.801L148.401 388.83Z" fill="#0E1C22"/>
<path d="M163.3 393.38C163.255 393.049 163.234 392.714 163.24 392.38C163.24 391.71 163.24 390.84 163.19 389.77C163.19 387.48 163.12 384.34 163.07 380.61L163.3 380.84H150.56C150.51 380.9 151.06 380.35 150.82 380.58V384.01C150.82 385.13 150.82 386.23 150.82 387.3C150.82 389.43 150.82 391.45 150.82 393.3L150.59 393.08L159.75 393.19L162.36 393.25C162.97 393.25 163.31 393.25 163.36 393.3C163.073 393.347 162.782 393.367 162.49 393.36L159.93 393.41L150.62 393.53H150.4V393.3C150.4 391.45 150.4 389.43 150.4 387.3V380.58L150.66 380.32H163.4H163.62V380.54C163.57 384.33 163.54 387.54 163.51 389.84C163.51 390.89 163.51 391.74 163.45 392.4C163.423 392.73 163.372 393.057 163.3 393.38Z" fill="#77DBF2"/>
<path d="M163.291 380.65H150.561V393.38H163.291V380.65Z" fill="#1A3840"/>
<path d="M163.3 388.83V393.38H158.69L163.3 388.83Z" fill="#0E1C22"/>
<path d="M178.19 393.38C178.152 393.048 178.135 392.714 178.14 392.38C178.14 391.713 178.12 390.843 178.08 389.77C178.08 387.48 178.01 384.34 177.97 380.61L178.19 380.84H165.46L165.72 380.58V384.01C165.72 385.13 165.72 386.23 165.72 387.3C165.72 389.43 165.72 391.45 165.72 393.3L165.5 393.08L174.66 393.19L177.27 393.25C177.88 393.25 178.21 393.25 178.27 393.3C177.983 393.349 177.691 393.369 177.4 393.36L174.84 393.41L165.54 393.53H165.31V393.3C165.31 391.45 165.31 389.43 165.31 387.3C165.31 386.23 165.31 385.13 165.31 384.01V380.58C165.07 380.81 165.62 380.26 165.57 380.32H178.3H178.53V380.54C178.53 384.33 178.44 387.54 178.41 389.84C178.41 390.89 178.41 391.74 178.35 392.4C178.328 392.731 178.274 393.059 178.19 393.38Z" fill="#77DBF2"/>
<path d="M178.19 380.65H165.46V393.38H178.19V380.65Z" fill="#123844"/>
<path d="M178.191 388.83V393.38H173.591L178.191 388.83Z" fill="#0E1C22"/>
<path d="M193.08 393.38C193.08 393.38 193.08 393.03 193.03 392.38C192.98 391.73 193.03 390.84 192.97 389.77C192.97 387.48 192.91 384.34 192.86 380.61L193.08 380.84H180.35L180.61 380.58V384.01C180.61 385.13 180.61 386.23 180.61 387.3C180.61 389.43 180.61 391.45 180.61 393.3L180.38 393.08L189.54 393.19L192.15 393.25C192.76 393.25 193.1 393.25 193.15 393.3C192.866 393.348 192.578 393.369 192.29 393.36L189.72 393.41L180.42 393.53H180.2V393.3C180.2 391.45 180.2 389.43 180.2 387.3C180.2 386.23 180.2 385.13 180.2 384.01V380.58L180.46 380.32H193.19H193.42V380.54C193.37 384.33 193.33 387.54 193.3 389.84C193.3 390.89 193.3 391.74 193.25 392.4C193.231 392.732 193.174 393.061 193.08 393.38Z" fill="#77DBF2"/>
<path d="M193.081 380.65H180.351V393.38H193.081V380.65Z" fill="#0E2A33"/>
<path d="M193.08 388.83V393.38H188.48L193.08 388.83Z" fill="#0E1C22"/>
<path d="M187.93 358.15H185.13V360.95H187.93V358.15Z" fill="#77DBF2"/>
<path d="M191.821 358.15H189.021V360.95H191.821V358.15Z" fill="#77DBF2"/>
<path d="M187.93 361.8H185.13V364.6H187.93V361.8Z" fill="#77DBF2"/>
<path d="M191.821 361.8H189.021V364.6H191.821V361.8Z" fill="#77DBF2"/>
<path d="M411.7 422H399.53C399.53 422 372.06 412.08 366.41 413C361.33 413.86 342.7 426.23 339.05 428.68C338.643 428.953 338.335 429.349 338.17 429.81C337.815 430.778 337.848 431.846 338.262 432.791C338.675 433.736 339.438 434.484 340.39 434.88L340.78 435.04L340.61 435.59C340.39 436.312 340.295 437.066 340.33 437.82C340.374 438.391 340.599 438.933 340.972 439.367C341.345 439.802 341.847 440.106 342.404 440.235C342.962 440.365 343.547 440.313 344.073 440.087C344.599 439.861 345.039 439.473 345.33 438.98L344.63 440.22C344.343 440.728 344.208 441.308 344.24 441.89L344.3 443.03C344.337 443.643 344.557 444.231 344.931 444.717C345.306 445.204 345.817 445.567 346.4 445.76C346.957 445.949 347.557 445.97 348.126 445.821C348.695 445.672 349.208 445.358 349.6 444.92C351.96 442.32 357.35 438.53 360.8 437.92C363.87 437.41 368.7 435.92 371.8 435.92C372.568 435.925 373.317 436.16 373.949 436.595C374.582 437.03 375.07 437.645 375.35 438.36C373.3 438.51 362.73 443.36 357.68 445.98C356.899 446.372 356.223 446.946 355.711 447.655C355.2 448.363 354.866 449.185 354.74 450.05C354.56 451.63 355.36 453.29 358.49 452.55C365.2 450.99 373.57 448.07 373.57 448.07C373.57 448.07 379.8 446.29 383.83 449.13C389.51 453.13 392.11 454.61 396.99 452.99C399.951 452 402.792 450.682 405.46 449.06L415.06 448.06C415.06 448.06 424.12 425.5 411.7 422Z" fill="#FFBE9D"/>
<path d="M409.11 443.37C408.911 443.55 408.693 443.708 408.46 443.84C408.199 444.037 407.918 444.205 407.62 444.34C407.233 444.558 406.828 444.742 406.41 444.89C403.724 445.886 400.787 445.984 398.04 445.17C396.137 444.642 394.379 443.688 392.9 442.38L392.3 441.83L391.76 441.22C391.394 440.796 391.059 440.344 390.76 439.87C390.15 438.87 389.7 437.87 389.03 436.92C388.726 436.434 388.327 436.015 387.856 435.688C387.385 435.361 386.852 435.134 386.29 435.02C385.069 434.855 383.831 434.855 382.61 435.02C379.941 435.25 377.253 434.986 374.68 434.24C372.242 433.539 369.937 432.437 367.86 430.98C366.875 430.284 365.945 429.511 365.08 428.67C364.834 428.441 364.659 428.145 364.577 427.818C364.496 427.492 364.511 427.148 364.62 426.83C364.729 426.517 364.923 426.242 365.182 426.035C365.44 425.828 365.751 425.698 366.08 425.66L383.93 424.91L389.05 424.74H390.41C390.566 424.718 390.724 424.718 390.88 424.74L390.41 424.8L389.06 424.9L383.95 425.21L366.11 426.14C365.871 426.169 365.645 426.266 365.459 426.419C365.273 426.573 365.135 426.776 365.062 427.006C364.988 427.235 364.982 427.481 365.043 427.714C365.105 427.947 365.232 428.157 365.41 428.32C366.258 429.135 367.167 429.884 368.13 430.56C370.163 431.981 372.416 433.056 374.8 433.74C377.315 434.467 379.941 434.728 382.55 434.51C383.817 434.33 385.103 434.33 386.37 434.51C387.004 434.632 387.604 434.887 388.13 435.26C388.629 435.636 389.061 436.092 389.41 436.61C390.1 437.61 390.55 438.68 391.13 439.61C391.432 440.067 391.766 440.501 392.13 440.91L392.65 441.51L393.22 442.03C394.654 443.323 396.364 444.27 398.22 444.8C400.895 445.624 403.761 445.582 406.41 444.68C407.341 444.311 408.244 443.873 409.11 443.37Z" fill="#EB996E"/>
<path d="M546.49 135.09C545.259 133.202 543.472 131.743 541.376 130.916C539.28 130.088 536.978 129.932 534.79 130.47C531.984 128.693 528.665 127.905 525.36 128.231C522.055 128.557 518.954 129.979 516.55 132.27C514.496 131.276 512.22 130.83 509.943 130.974C507.666 131.119 505.465 131.849 503.554 133.095C501.642 134.34 500.085 136.058 499.033 138.083C497.981 140.108 497.47 142.37 497.55 144.65C495.227 144.454 492.902 144.997 490.907 146.202C488.912 147.407 487.349 149.211 486.442 151.358C485.534 153.505 485.329 155.884 485.855 158.154C486.381 160.425 487.611 162.471 489.37 164C486.93 165.003 484.951 166.878 483.819 169.26C482.686 171.642 482.48 174.361 483.241 176.886C484.002 179.412 485.676 181.564 487.936 182.923C490.197 184.282 492.882 184.752 495.47 184.24L545.47 147.64C546.92 145.912 547.797 143.776 547.98 141.528C548.162 139.279 547.642 137.03 546.49 135.09Z" fill="#FBE7A1"/>
<path d="M494.049 185.84C494.061 174.508 498.338 163.596 506.03 155.275C513.721 146.953 524.264 141.832 535.559 140.93L537.889 140.75C563.099 140.21 577.639 161.32 577.479 186.54L580.479 270.41L577.869 281.19L543.929 309.19L526.879 294.09L521.999 269.41C521.999 269.41 497.569 267.58 495.349 243.48C494.289 231.84 493.999 207.7 494.049 185.84Z" fill="#FFBE9D"/>
<path d="M521.81 269.39C521.81 269.39 537.29 269.09 552.68 257.62C552.68 257.62 546.68 275.57 522.39 275.32L521.81 269.39Z" fill="#EB996E"/>
<path d="M502.829 207.62C502.891 208.517 503.301 209.355 503.972 209.955C504.642 210.555 505.521 210.869 506.419 210.83C506.861 210.832 507.299 210.744 507.706 210.573C508.114 210.403 508.483 210.152 508.792 209.835C509.1 209.519 509.343 209.144 509.504 208.733C509.665 208.321 509.741 207.882 509.729 207.44C509.665 206.542 509.253 205.704 508.581 205.104C507.909 204.505 507.029 204.191 506.129 204.23C505.688 204.23 505.252 204.318 504.845 204.49C504.439 204.661 504.071 204.912 503.763 205.228C503.456 205.544 503.215 205.919 503.054 206.329C502.894 206.74 502.817 207.179 502.829 207.62Z" fill="#1A4A54"/>
<path d="M500 198.48C500.46 198.89 502.92 196.75 506.62 196.48C510.32 196.21 513.2 197.84 513.56 197.35C513.74 197.13 513.24 196.35 511.99 195.59C510.298 194.604 508.341 194.168 506.39 194.34C504.462 194.488 502.631 195.244 501.16 196.5C500.1 197.45 499.78 198.29 500 198.48Z" fill="#1A4A54"/>
<path d="M534.72 206.67C534.781 207.569 535.193 208.409 535.866 209.009C536.538 209.609 537.419 209.921 538.32 209.88C538.761 209.881 539.198 209.795 539.604 209.624C540.011 209.454 540.38 209.204 540.688 208.889C540.997 208.574 541.239 208.2 541.401 207.79C541.563 207.379 541.64 206.941 541.63 206.5C541.566 205.601 541.154 204.762 540.482 204.161C539.81 203.56 538.931 203.244 538.03 203.28C537.588 203.28 537.151 203.368 536.744 203.539C536.337 203.711 535.969 203.962 535.66 204.278C535.352 204.593 535.11 204.968 534.948 205.379C534.787 205.79 534.709 206.229 534.72 206.67Z" fill="#1A4A54"/>
<path d="M535.43 195.13C535.89 195.55 538.35 193.41 542.06 193.13C545.77 192.85 548.63 194.48 549 194C549.18 193.78 548.68 193 547.42 192.23C545.729 191.249 543.777 190.816 541.83 190.99C539.9 191.129 538.066 191.886 536.6 193.15C535.53 194.1 535.21 195 535.43 195.13Z" fill="#1A4A54"/>
<path d="M525.41 223.58C525.41 223.37 523.08 223.15 519.31 222.97C518.31 222.97 517.44 222.83 517.23 222.2C517.072 221.227 517.215 220.229 517.64 219.34C518.34 216.98 519.08 214.51 519.86 211.91C522.93 201.34 525.07 192.68 524.64 192.56C524.21 192.44 521.38 200.91 518.32 211.48L516.21 219C515.94 220.1 515.42 221.37 516.02 222.75C516.181 223.074 516.414 223.356 516.702 223.574C516.99 223.793 517.325 223.942 517.68 224.01C518.216 224.113 518.764 224.147 519.31 224.11C523.08 224 525.42 223.79 525.41 223.58Z" fill="#1A4A54"/>
<path d="M536.53 225.27C535.92 225.27 536.24 229.27 533.02 232.44C529.8 235.61 525.48 235.44 525.5 236.03C525.5 236.29 526.5 236.74 528.33 236.64C530.692 236.491 532.924 235.51 534.63 233.87C536.266 232.292 537.227 230.141 537.31 227.87C537.33 226.19 536.8 225.23 536.53 225.27Z" fill="#1A4A54"/>
<path d="M534.54 184.55C535.06 185.47 538.18 184.35 542.06 184.11C545.94 183.87 549.24 184.41 549.57 183.42C549.7 182.95 548.99 182.13 547.57 181.42C545.731 180.579 543.704 180.234 541.69 180.42C539.695 180.545 537.771 181.205 536.12 182.33C534.85 183.18 534.31 184.1 534.54 184.55Z" fill="#1A4A54"/>
<path d="M500 188.24C500.65 189.09 503.21 188.24 506.29 188.18C509.37 188.12 511.98 188.77 512.58 187.88C512.85 187.46 512.44 186.61 511.3 185.81C509.772 184.848 507.993 184.36 506.187 184.41C504.382 184.46 502.633 185.045 501.16 186.09C500.11 187 499.75 187.83 500 188.24Z" fill="#1A4A54"/>
<path d="M495.489 174.59C495.489 174.59 500.649 158.98 507.649 154.87C516.129 149.87 520.699 159.28 528.909 156.26C537.119 153.24 545.219 148.47 554.329 154.26C564.329 160.62 560.329 165.96 561.729 176.62C567.539 219.83 576.449 231.47 577.069 210.85C577.139 208.59 583.209 206.31 583.379 196.78C583.589 184.41 582.879 169.48 579.439 160.99C576.549 153.84 571.959 149.1 564.009 144.11C551.459 136.23 535.179 137.34 524.219 139.33C513.259 141.32 492.999 155.76 495.489 174.59Z" fill="#FBE7A1"/>
<path d="M575.48 210.33C575.438 209.442 575.577 208.555 575.888 207.722C576.2 206.889 576.677 206.129 577.292 205.486C577.906 204.844 578.645 204.333 579.463 203.984C580.281 203.636 581.161 203.458 582.05 203.46C586.58 203.53 591.79 205.68 592.23 215C593.02 231.54 576.23 228.92 576.23 228.45C576.23 227.98 575.75 217.25 575.48 210.33Z" fill="#FFBE9D"/>
<path d="M579.51 222.05C579.58 222 579.81 222.24 580.31 222.44C581.006 222.705 581.779 222.683 582.46 222.38C584.18 221.66 585.52 218.81 585.46 215.83C585.436 214.412 585.094 213.018 584.46 211.75C584.282 211.24 583.982 210.782 583.586 210.414C583.191 210.046 582.711 209.781 582.19 209.64C581.855 209.567 581.505 209.614 581.202 209.773C580.898 209.933 580.66 210.193 580.53 210.51C580.33 210.98 580.45 211.31 580.36 211.34C580.27 211.37 579.99 211.08 580.09 210.34C580.167 209.927 580.378 209.551 580.69 209.27C581.132 208.906 581.699 208.73 582.27 208.78C582.957 208.877 583.606 209.152 584.155 209.576C584.704 210 585.133 210.56 585.4 211.2C586.172 212.598 586.591 214.163 586.62 215.76C586.62 219.09 585.11 222.29 582.76 223.1C582.321 223.249 581.855 223.299 581.395 223.245C580.935 223.191 580.492 223.036 580.1 222.79C579.56 222.45 579.45 222.09 579.51 222.05Z" fill="#EB996E"/>
<path d="M572.61 178.41C570.61 180.04 568.44 181.73 565.88 182.19C563.32 182.65 560.25 181.4 559.61 178.88C559.32 177.75 559.5 176.39 558.67 175.57C557.67 174.57 556.05 175.04 554.67 175.3C552.274 175.679 549.819 175.222 547.72 174.006C545.62 172.789 544.003 170.888 543.14 168.62C542.07 170.55 539.21 170.7 537.26 169.62C535.31 168.54 533.97 166.71 532.39 165.17C530.81 163.63 528.66 162.31 526.5 162.79C525.29 163.06 524.21 163.88 522.98 163.87C520.8 163.87 519.54 161.4 519.04 159.27C518.54 157.14 518.04 154.66 516.16 153.64C514.28 152.62 512.22 153.49 510.25 153.95C508.28 154.41 505.66 154.14 505 152.23C504.871 151.714 504.849 151.178 504.935 150.653C505.021 150.129 505.213 149.627 505.5 149.18C506.681 147.08 508.535 145.439 510.763 144.522C512.991 143.606 515.464 143.468 517.78 144.13C518.372 141.318 519.784 138.745 521.839 136.736C523.893 134.727 526.497 133.373 529.322 132.845C532.146 132.318 535.064 132.64 537.705 133.771C540.347 134.902 542.593 136.791 544.16 139.2C545.785 137.472 547.802 136.162 550.041 135.38C552.28 134.599 554.675 134.369 557.022 134.711C559.369 135.052 561.599 135.955 563.522 137.342C565.445 138.73 567.006 140.561 568.07 142.68C570.049 141.985 572.188 141.889 574.222 142.402C576.255 142.916 578.092 144.016 579.504 145.567C580.916 147.117 581.84 149.049 582.161 151.121C582.482 153.194 582.186 155.315 581.31 157.22C584.41 158.67 587.19 161.42 587.52 164.82C587.85 168.22 584.8 171.9 581.43 171.26C582.198 172.551 582.446 174.085 582.124 175.552C581.803 177.019 580.936 178.309 579.699 179.161C578.462 180.013 576.948 180.362 575.462 180.139C573.977 179.916 572.632 179.137 571.7 177.96" fill="#FBE7A1"/>
<path d="M582.65 171.17C582.7 171.17 583.07 172.53 581.88 174.42C581.145 175.532 580.022 176.33 578.73 176.66C577.904 176.862 577.044 176.877 576.212 176.704C575.38 176.531 574.597 176.174 573.92 175.66L574.61 175.5C573.847 177.106 572.835 178.581 571.61 179.87C570.802 180.747 569.835 181.463 568.76 181.98C567.73 182.46 566.591 182.657 565.46 182.55C564.505 182.552 563.561 182.342 562.697 181.936C561.832 181.529 561.068 180.937 560.46 180.2C559.709 179.211 559.161 178.082 558.85 176.88C558.682 176.461 558.601 176.012 558.61 175.56C558.68 175.56 558.86 175.98 559.2 176.75C559.627 177.838 560.224 178.85 560.97 179.75C562.72 181.99 567.91 182.75 570.9 179.19C572.045 177.974 572.999 176.591 573.73 175.09L573.98 174.58L574.42 174.93C574.994 175.369 575.654 175.68 576.358 175.844C577.061 176.008 577.792 176.02 578.5 175.88C579.641 175.635 580.655 174.99 581.36 174.06C581.978 173.192 582.417 172.21 582.65 171.17Z" fill="#E2C68F"/>
<path d="M548.48 136C548.48 136.06 548.06 136.15 547.35 136.52C546.332 137.055 545.499 137.884 544.96 138.9L544.79 139.23L544.54 138.95C542.25 136.32 539.328 134.317 536.05 133.13C533.934 132.367 531.682 132.057 529.44 132.22C526.976 132.429 524.616 133.311 522.62 134.77C521.048 135.909 519.736 137.367 518.77 139.05C517.898 140.616 517.414 142.368 517.36 144.16V144.69L516.85 144.59C514.493 144.159 512.061 144.654 510.06 145.97C508.496 147.019 507.297 148.529 506.63 150.29C506.075 151.895 505.857 153.597 505.99 155.29C505.796 154.869 505.69 154.413 505.68 153.95C505.563 152.663 505.716 151.365 506.13 150.14C506.762 148.222 507.992 146.557 509.64 145.39C511.789 143.905 514.434 143.32 517.01 143.76L516.49 144.19C516.52 142.24 517.029 140.328 517.97 138.62C518.99 136.813 520.389 135.247 522.07 134.03C524.208 132.468 526.739 131.533 529.38 131.33C531.758 131.16 534.144 131.501 536.38 132.33C539.759 133.613 542.729 135.782 544.98 138.61H544.56C545.182 137.535 546.142 136.695 547.29 136.22C547.664 136.056 548.071 135.981 548.48 136Z" fill="#E2C68F"/>
<path d="M640.279 369C639.369 369 637.469 291.55 637.469 291.55L584.579 272.67L543.999 309.22L523.289 276.62L505.059 285C502.759 286.06 492.669 290.1 490.659 291.63C484.879 296.04 472.809 306.63 469.399 319.47C464.199 339.12 456.039 404.47 456.039 404.47L406.359 422L407.439 454L456.059 461.61C467.789 461.19 481.989 456.23 486.559 448.09V465.17H635.929C635.929 465.17 641.179 369 640.279 369Z" fill="#15CDF2"/>
<path d="M488.359 339.54C488.368 339.647 488.368 339.753 488.359 339.86V340.81C488.359 341.67 488.359 342.88 488.359 344.43C488.299 347.57 488.169 352.11 487.919 357.73C487.669 363.35 487.319 370.03 487.049 377.45C486.779 384.87 486.679 393.03 486.629 401.6C486.549 418.75 486.629 434.28 486.629 445.52C486.629 451.11 486.629 455.65 486.629 458.83C486.629 460.37 486.629 461.58 486.629 462.44C486.629 462.83 486.629 463.14 486.629 463.38C486.645 463.489 486.645 463.601 486.629 463.71C486.617 463.604 486.617 463.496 486.629 463.39C486.629 463.15 486.629 462.83 486.629 462.44C486.629 461.58 486.579 460.37 486.549 458.83C486.549 455.65 486.459 451.11 486.389 445.52C486.289 434.28 486.189 418.75 486.269 401.6C486.319 393.03 486.429 384.86 486.729 377.43C487.029 370 487.419 363.32 487.729 357.71C488.039 352.1 488.219 347.56 488.339 344.42C488.399 342.88 488.439 341.66 488.479 340.8C488.479 340.41 488.479 340.1 488.529 339.86C488.458 339.762 488.401 339.654 488.359 339.54Z" fill="#77DBF2"/>
<g opacity="0.3">
<path d="M488.359 346.89C479.889 378.83 477.639 413.44 486.149 445.37C486.309 409.82 486.109 376.53 488.359 346.89Z" fill="#0A2D38"/>
</g>
<g opacity="0.3">
<path d="M612.75 350.21C615.85 370.15 618.933 390.08 622 410C622.045 410.692 622.269 411.361 622.65 411.94C623.65 413.2 625.59 412.87 627.13 412.43C630.87 411.34 636.76 410.94 638.78 407.6L639.27 399.09C638.73 396.51 636.27 394.03 635.06 391.67C627.8 377.003 620.547 362.337 613.3 347.67" fill="#0A2D38"/>
</g>
<path d="M637.08 291.4C637.08 291.4 654.35 301.12 660.75 314.8C668.56 331.49 703.12 391.62 704.4 406.62C705.68 421.62 705.16 438.77 679.57 443.88C653.98 448.99 627.26 448.65 627.26 448.65L616.83 417.57L646.16 402.42L638.85 396C637.25 394.591 635.927 392.895 634.95 391L612.88 348.5" fill="#15CDF2"/>
<path d="M612.88 348.52C612.88 348.52 613.08 348.85 613.43 349.52L614.99 352.46L620.92 363.77L630.24 381.62L633.06 387.02L634.53 389.84C635.006 390.82 635.544 391.768 636.14 392.68C636.772 393.598 637.492 394.452 638.29 395.23C639.1 396.01 640 396.75 640.87 397.53L646.29 402.28L646.51 402.47L646.25 402.6L616.93 417.78L617.04 417.51L627.5 448.58L627.27 448.41C635.75 448.41 644.61 448.02 653.7 447.22C658.25 446.83 662.85 446.32 667.49 445.66C672.13 445 676.82 444.27 681.49 443.17L683.79 442.61C684.55 442.4 685.29 442.11 686.03 441.86C686.77 441.61 687.53 441.38 688.25 441.07L690.37 440.07C690.73 439.9 691.08 439.75 691.43 439.57L692.43 438.96C693.09 438.55 693.76 438.16 694.43 437.73C695.668 436.832 696.826 435.828 697.89 434.73C700.006 432.529 701.626 429.9 702.64 427.02C703.641 424.186 704.253 421.229 704.46 418.23C704.65 415.273 704.65 412.307 704.46 409.35C704.392 407.896 704.242 406.447 704.01 405.01C703.716 403.601 703.346 402.209 702.9 400.84C702.03 398.09 700.99 395.44 699.9 392.84C698.81 390.24 697.68 387.69 696.55 385.18C691.94 375.18 687.17 365.83 682.66 357.11C678.15 348.39 673.85 340.34 669.96 332.97L664.44 322.42C663.58 320.75 662.75 319.12 661.97 317.53C661.59 316.73 661.21 315.95 660.83 315.17C660.45 314.39 660.06 313.67 659.68 312.94C658.153 310.274 656.357 307.77 654.32 305.47C652.591 303.551 650.755 301.731 648.82 300.02C646.13 297.659 643.291 295.475 640.32 293.48C639.32 292.79 638.51 292.29 637.98 291.96L637.18 291.45C637.18 291.45 637.47 291.6 638.01 291.91C638.55 292.22 639.35 292.72 640.38 293.39C643.381 295.352 646.244 297.518 648.95 299.87C650.908 301.573 652.764 303.39 654.51 305.31C656.568 307.615 658.384 310.124 659.93 312.8C660.32 313.53 660.73 314.28 661.11 315.05C661.49 315.82 661.86 316.6 662.25 317.39C663.04 318.98 663.87 320.6 664.73 322.27C666.49 325.603 668.34 329.11 670.28 332.79C674.2 340.16 678.51 348.21 683.05 356.92C687.59 365.63 692.36 374.92 696.98 384.98C698.13 387.49 699.27 390.04 700.35 392.65C701.43 395.26 702.48 397.93 703.35 400.65C703.81 402.04 704.187 403.456 704.48 404.89C704.718 406.347 704.871 407.816 704.94 409.29C705.132 412.287 705.132 415.293 704.94 418.29C704.734 421.336 704.115 424.34 703.1 427.22C702.063 430.167 700.401 432.854 698.23 435.1C697.151 436.246 695.97 437.29 694.7 438.22C694.05 438.65 693.37 439.05 692.7 439.47L691.7 440.09L690.62 440.6L688.47 441.6C687.74 441.92 686.97 442.13 686.22 442.4C685.47 442.67 684.72 442.94 683.96 443.16L681.63 443.72C676.95 444.83 672.26 445.56 667.63 446.22C663 446.88 658.37 447.39 653.82 447.79C644.71 448.58 635.82 448.98 627.33 448.96H627.15L627.1 448.79C623.43 437.86 619.93 427.39 616.68 417.7L616.62 417.52L616.79 417.43L646.14 402.3V402.62L640.73 397.86C639.86 397.08 638.97 396.35 638.14 395.54C637.332 394.741 636.602 393.867 635.96 392.93C635.36 392.003 634.815 391.042 634.33 390.05C633.84 389.05 633.33 388.15 632.87 387.22C631.91 385.36 630.977 383.56 630.07 381.82C626.48 374.82 623.37 368.82 620.83 363.92L615 352.57C614.34 351.27 613.83 350.28 613.49 349.57C613.15 348.86 612.88 348.52 612.88 348.52Z" fill="#77DBF2"/>
<path d="M629.21 290.35C628.696 290.713 628.161 291.047 627.61 291.35C626.15 292.264 624.748 293.266 623.41 294.35C618.98 297.942 615.385 302.454 612.872 307.574C610.36 312.694 608.991 318.299 608.86 324C608.816 325.725 608.876 327.452 609.04 329.17C609.15 330.39 609.24 331.06 609.2 331.07C609.137 330.916 609.093 330.755 609.07 330.59C609.02 330.27 608.91 329.8 608.84 329.19C608.592 327.468 608.478 325.73 608.5 323.99C608.53 318.22 609.867 312.531 612.409 307.351C614.951 302.171 618.634 297.634 623.18 294.08C624.547 293.006 625.991 292.034 627.5 291.17C628.03 290.85 628.5 290.65 628.75 290.51C629 290.37 629.2 290.33 629.21 290.35Z" fill="#77DBF2"/>
<path d="M677.32 389.85C676.909 390.023 676.48 390.147 676.04 390.22L672.53 391.1C668.677 392.091 664.887 393.313 661.18 394.76C657.483 396.225 653.894 397.949 650.44 399.92C649.11 400.68 648.05 401.31 647.32 401.77C646.956 402.024 646.567 402.242 646.16 402.42C646.483 402.113 646.835 401.839 647.21 401.6C647.91 401.09 648.94 400.41 650.21 399.6C653.65 397.524 657.259 395.745 661 394.28C664.724 392.817 668.551 391.634 672.45 390.74C673.94 390.4 675.16 390.16 676.01 390.02C676.441 389.924 676.879 389.867 677.32 389.85Z" fill="#77DBF2"/>
<g opacity="0.3">
<path d="M583.1 274.49C581.543 274.821 580.095 275.54 578.89 276.58C566.772 285.492 555.678 295.717 545.81 307.07L544.13 310.18C547.86 307.72 552.13 305.18 556.49 306.05C560.23 306.84 562.94 309.97 565.37 312.92C574.337 301.63 582.51 289.731 589.83 277.31C587.85 275.78 585.58 274.17 583.1 274.49Z" fill="#0A2D38"/>
</g>
<path d="M543.97 309.22L558.89 290.35L581.33 263.56L593.25 274.75L572.35 307.11L557.51 298.18L543.97 309.22Z" fill="#0E1C22"/>
<g opacity="0.3">
<path d="M517.05 284.82C519.05 295.44 523.96 304.3 525.95 314.92C528.32 311.82 527.75 310.5 530.12 307.4C530.969 306.069 532.17 304.999 533.59 304.31C536.14 303.31 538.95 304.8 541.27 306.22C537.643 302.213 533.649 298.553 529.34 295.29L529.16 296.15C525.16 291.183 521.063 286.293 516.87 281.48" fill="#0A2D38"/>
</g>
<path d="M543.74 309.11L522.78 273.39L515.29 280.29L522.38 312.25L532.44 299.3L543.74 309.11Z" fill="#0E1C22"/>
<path d="M542.9 307.68L542.52 307.09L541.46 305.33L537.46 298.54L522.66 273.49H522.94L515.4 280.11L515.46 279.91C517.62 289.59 520.04 300.44 522.66 312.16L522.23 312.06L532.23 299.06L532.39 298.85L532.59 299.02L543.9 308.83L543.68 308.77L544.9 308.54L544.77 308.6C548.4 305.37 552.42 302.18 556.33 298.78L557.33 297.9L557.47 297.78L557.63 297.87C562.84 300.65 567.52 304.1 572.47 306.8L572.13 306.89L593.04 274.54V274.84C588.9 270.93 584.92 267.19 581.14 263.64H581.45L555.1 295.64L547.73 304.53L545.83 307C545.38 307.52 545.14 307.78 545.14 307.78C545.14 307.78 545.35 307.5 545.78 306.96L547.67 304.59L554.94 295.59L581.16 263.44L581.31 263.27L581.48 263.42L593.4 274.6L593.55 274.73L593.44 274.89L572.57 307.27L572.44 307.47L572.23 307.35C567.23 304.63 562.56 301.18 557.39 298.43H557.69L556.69 299.31C552.76 302.73 548.69 305.91 545.13 309.13H545.07H545L543.79 309.36H543.67L543.57 309.28L532.27 299.47H532.64L522.57 312.4L522.26 312.81L522.15 312.3L515 280V279.88L515.09 279.8L522.66 273.21L522.83 273.06L522.94 273.26L537.6 298.39L541.55 305.23L542.55 307.02C542.8 307.46 542.9 307.68 542.9 307.68Z" fill="#77DBF2"/>
<path d="M486.999 300C487.139 300 486.999 306.5 486.789 314.52C486.579 322.54 486.179 329 485.999 329C485.819 329 485.949 322.5 486.209 314.48C486.469 306.46 486.839 300 486.999 300Z" fill="#77DBF2"/>
<path d="M575.7 421.33C574.411 421.543 573.174 421.994 572.05 422.66C569.37 424.47 568.77 428.09 568.41 431.31C568.3 432.31 568.27 433.52 569.1 434.11C569.484 434.293 569.904 434.388 570.33 434.388C570.756 434.388 571.176 434.293 571.56 434.11C577.051 432.377 582.327 430.029 587.29 427.11C589.94 425.56 592.67 423.61 593.57 420.68L593.74 419.42C587.672 419.325 581.614 419.967 575.7 421.33Z" fill="#FFBE9D"/>
<path d="M599.35 395.28C589.56 407.05 553.14 450.55 553.14 450.55L551.75 456.79C551.731 456.878 551.737 456.97 551.766 457.055C551.795 457.14 551.847 457.216 551.915 457.275C551.984 457.333 552.067 457.372 552.156 457.387C552.245 457.402 552.336 457.393 552.42 457.36L558.28 455.05L605.33 400.35C605.677 399.946 605.938 399.476 606.098 398.968C606.257 398.46 606.311 397.925 606.257 397.395C606.203 396.866 606.041 396.353 605.782 395.888C605.523 395.422 605.172 395.015 604.75 394.69C603.949 394.069 602.938 393.784 601.931 393.894C600.924 394.004 599.998 394.501 599.35 395.28Z" fill="#77DBF2"/>
<path d="M595.85 399.49L601.79 404.47L603.44 402.55L597.48 397.53L595.85 399.49Z" fill="#295F70"/>
<path d="M588.73 415.52C588.235 415.522 587.755 415.344 587.38 415.02C586.982 414.661 586.735 414.164 586.69 413.63C586.668 413.355 586.701 413.078 586.787 412.815C586.873 412.552 587.01 412.309 587.19 412.1L594.01 404.1C594.188 403.888 594.406 403.714 594.651 403.587C594.897 403.46 595.165 403.383 595.44 403.36C595.855 403.325 596.272 403.414 596.636 403.617C597 403.819 597.296 404.125 597.486 404.496C597.676 404.867 597.751 405.286 597.702 405.7C597.653 406.114 597.482 406.504 597.21 406.82L590.39 414.82C590.03 415.246 589.516 415.512 588.96 415.56L588.73 415.52ZM587.58 414.87C587.958 415.169 588.436 415.31 588.916 415.264C589.395 415.217 589.838 414.986 590.15 414.62L596.97 406.62C597.14 406.437 597.27 406.221 597.354 405.986C597.438 405.751 597.474 405.501 597.458 405.252C597.443 405.003 597.378 404.759 597.266 404.536C597.154 404.312 596.998 404.114 596.808 403.953C596.617 403.791 596.396 403.67 596.158 403.596C595.919 403.523 595.668 403.498 595.42 403.524C595.172 403.55 594.931 403.626 594.713 403.747C594.495 403.869 594.303 404.033 594.15 404.23L587.33 412.23C587.011 412.604 586.853 413.089 586.89 413.58C586.909 413.823 586.977 414.059 587.088 414.276C587.2 414.492 587.353 414.684 587.54 414.84L587.58 414.87Z" fill="#295F70"/>
<path d="M593.66 410.71C593.56 410.81 592.84 410.3 592.04 409.56C591.24 408.82 590.69 408.14 590.78 408.04C590.87 407.94 591.6 408.45 592.4 409.18C593.2 409.91 593.75 410.6 593.66 410.71Z" fill="#295F70"/>
<path d="M617.19 419.4L608 422.61C608 422.61 599.57 420.49 596 419.67C594.792 419.388 593.539 419.354 592.317 419.568C591.095 419.783 589.929 420.243 588.89 420.92C584.57 423.72 577.14 428.54 574.48 430.31C571.82 432.08 565.03 437.7 565.03 437.7C565.03 437.7 560.1 443.35 561.71 446.59C563.32 449.83 567.78 449.37 567.78 449.37C568.093 450.63 568.764 451.772 569.711 452.659C570.659 453.546 571.842 454.14 573.12 454.37C573.12 454.37 572 456.13 576.21 457.25C580.42 458.37 590.21 457.25 590.21 457.25C590.21 457.25 608.21 457.99 609.92 457.12C611.63 456.25 619.21 448.54 619.21 448.54L625.63 444.7L617.19 419.4Z" fill="#FFBE9D"/>
<path d="M581.639 425.64C580.78 426.377 579.863 427.046 578.899 427.64C577.169 428.83 574.749 430.42 572.169 432.29C569.962 433.882 567.855 435.609 565.859 437.46C564.339 438.88 563.459 439.84 563.399 439.78C563.339 439.72 563.559 439.5 563.929 439.04C564.299 438.58 564.869 437.94 565.599 437.19C567.542 435.25 569.639 433.47 571.869 431.87C574.459 429.99 576.869 428.44 578.699 427.33C579.634 426.691 580.617 426.126 581.639 425.64Z" fill="#EB996E"/>
<path d="M590 434C589.719 434.221 589.414 434.409 589.09 434.56L586.57 436C584.41 437.17 581.44 438.8 578.32 440.85C575.648 442.592 573.117 444.542 570.75 446.68C568.94 448.33 567.9 449.44 567.84 449.39C568.017 449.078 568.235 448.792 568.49 448.54C568.93 448.01 569.62 447.28 570.49 446.41C572.803 444.175 575.325 442.166 578.02 440.41C580.714 438.666 583.509 437.083 586.39 435.67C587.49 435.13 588.39 434.67 589.03 434.43C589.33 434.239 589.657 434.094 590 434Z" fill="#EB996E"/>
<path d="M599.15 440.62C598.909 440.924 598.63 441.196 598.32 441.43C597.76 441.91 596.91 442.59 595.84 443.36C593.69 444.94 590.55 446.84 587.07 448.9C584.059 450.626 580.866 452.015 577.55 453.04C576.28 453.45 575.25 453.75 574.55 453.95C574.183 454.072 573.804 454.156 573.42 454.2C573.754 454.008 574.11 453.857 574.48 453.75C575.29 453.47 576.27 453.11 577.48 452.69C580.73 451.576 583.868 450.156 586.85 448.45C590.34 446.39 593.49 444.55 595.68 443.06C596.77 442.33 597.68 441.7 598.24 441.27C598.52 441.022 598.825 440.805 599.15 440.62Z" fill="#EB996E"/>
<path d="M603.049 448.65C602.614 449.247 602.095 449.779 601.509 450.23C600.181 451.406 598.759 452.472 597.259 453.42C595.763 454.371 594.195 455.203 592.569 455.91C591.911 456.25 591.207 456.493 590.479 456.63C590.419 456.48 593.479 455.19 596.979 452.98C600.479 450.77 602.939 448.53 603.049 448.65Z" fill="#EB996E"/>
<path d="M653.84 465.64H518.22C518.22 463.325 519.14 461.104 520.777 459.467C522.414 457.83 524.634 456.91 526.95 456.91H645.11C647.425 456.91 649.646 457.83 651.283 459.467C652.92 461.104 653.84 463.325 653.84 465.64Z" fill="#77DBF2"/>
<path d="M489.92 458.19L427.2 457.89L405.94 357.21C405.515 355.197 404.412 353.39 402.816 352.091C401.22 350.791 399.228 350.078 397.17 350.07H266.1C264.764 350.078 263.446 350.383 262.243 350.964C261.039 351.544 259.98 352.386 259.143 353.426C258.305 354.467 257.709 355.681 257.399 356.981C257.089 358.281 257.072 359.633 257.35 360.94L278.94 459.94C279.291 461.55 280.183 462.992 281.468 464.025C282.752 465.059 284.351 465.621 286 465.62H499C499 460.55 495 458.19 489.92 458.19Z" fill="#2A4D59"/>
<path d="M423.07 465.64C422.93 465.64 417.02 439.83 409.87 407.92C402.72 376.01 397.03 350.11 397.17 350.07C397.31 350.03 403.22 375.88 410.38 407.8C417.54 439.72 423.21 465.61 423.07 465.64Z" fill="#77DBF2"/>
<path d="M345.579 406.38C348.689 410.56 348.199 416.19 344.489 418.94C340.779 421.69 335.259 420.54 332.149 416.36C329.039 412.18 329.529 406.55 333.239 403.8C336.949 401.05 342.469 402.2 345.579 406.38Z" fill="#0E1C22"/>
<path d="M458.729 459.54H453.809C452.661 459.54 451.729 460.471 451.729 461.62C451.729 462.769 452.661 463.7 453.809 463.7H458.729C459.878 463.7 460.809 462.769 460.809 461.62C460.809 460.471 459.878 459.54 458.729 459.54Z" fill="#77DBF2"/>
<path d="M548.459 461.21C548.459 461.21 548.559 461.3 548.729 461.5C548.955 461.816 549.109 462.178 549.179 462.56C549.284 463.313 549.186 464.08 548.896 464.783C548.606 465.486 548.134 466.099 547.53 466.56C546.652 467.204 545.614 467.595 544.53 467.69C543.26 467.804 541.981 467.771 540.719 467.59C539.291 467.362 537.844 467.279 536.399 467.34C535.625 467.382 534.864 467.558 534.149 467.86C533.396 468.126 532.764 468.655 532.369 469.35C532.228 469.731 532.199 470.145 532.285 470.542C532.372 470.939 532.572 471.303 532.859 471.59C533.442 472.264 534.185 472.78 535.019 473.09C535.927 473.41 536.813 473.791 537.669 474.23C538.135 474.477 538.54 474.824 538.856 475.246C539.173 475.668 539.392 476.154 539.499 476.67C539.597 477.766 539.323 478.864 538.723 479.786C538.123 480.709 537.231 481.404 536.189 481.76C534.048 482.419 531.808 482.7 529.569 482.59C524.818 482.591 520.071 482.284 515.359 481.67C510.459 481.09 505.359 480.37 500.199 479.9C495.144 479.415 490.055 479.415 484.999 479.9C480.099 480.35 475.369 481.03 470.819 481.11C468.589 481.223 466.355 481.025 464.179 480.52C462.078 480.046 460.205 478.859 458.879 477.16C458.258 476.368 457.824 475.445 457.611 474.461C457.398 473.478 457.411 472.458 457.649 471.48C457.895 470.562 458.454 469.758 459.231 469.21C460.008 468.662 460.952 468.403 461.899 468.48C462.35 468.535 462.775 468.722 463.12 469.018C463.465 469.313 463.715 469.703 463.839 470.14C463.938 470.551 463.946 470.978 463.863 471.393C463.78 471.807 463.608 472.199 463.359 472.54C463.136 472.868 462.849 473.148 462.516 473.365C462.183 473.581 461.81 473.729 461.419 473.8C460.69 473.915 459.943 473.814 459.269 473.51C458.071 472.967 457.129 471.982 456.639 470.76C456.243 469.758 456.02 468.696 455.979 467.62C455.899 465.69 456.079 464.2 456.079 463.2C456.079 462.69 456.079 462.31 456.079 462.05C456.066 461.92 456.066 461.79 456.079 461.66C456.105 461.789 456.122 461.919 456.129 462.05C456.129 462.31 456.179 462.69 456.189 463.2C456.189 464.2 456.089 465.7 456.189 467.6C456.243 468.652 456.476 469.687 456.879 470.66C457.352 471.812 458.251 472.736 459.389 473.24C460.017 473.52 460.712 473.61 461.389 473.5C461.739 473.435 462.072 473.299 462.367 473.101C462.663 472.904 462.915 472.648 463.109 472.35C463.328 472.049 463.479 471.706 463.553 471.342C463.627 470.978 463.623 470.602 463.539 470.24C463.425 469.873 463.208 469.547 462.914 469.301C462.619 469.054 462.26 468.898 461.879 468.85C461.023 468.789 460.173 469.03 459.475 469.531C458.777 470.031 458.277 470.759 458.059 471.59C457.847 472.51 457.845 473.466 458.053 474.387C458.261 475.308 458.673 476.17 459.259 476.91C460.531 478.52 462.324 479.638 464.329 480.07C466.462 480.563 468.654 480.751 470.839 480.63C475.359 480.54 480.069 479.85 484.989 479.39C490.074 478.9 495.195 478.9 500.279 479.39C505.499 479.86 510.559 480.59 515.449 481.17C520.141 481.788 524.867 482.105 529.599 482.12C531.839 482.07 534.099 482.12 536.049 481.34C537.004 480.985 537.828 480.346 538.409 479.51C538.978 478.713 539.225 477.731 539.099 476.76C539.01 476.303 538.818 475.871 538.54 475.497C538.261 475.123 537.902 474.817 537.489 474.6C536.651 474.161 535.783 473.783 534.889 473.47C534.001 473.128 533.211 472.571 532.59 471.85C532.282 471.487 532.06 471.06 531.939 470.6C531.826 470.135 531.872 469.646 532.069 469.21C532.505 468.426 533.218 467.833 534.069 467.55C534.825 467.243 535.625 467.06 536.439 467.01C537.902 466.967 539.366 467.068 540.809 467.31C542.053 467.503 543.315 467.55 544.569 467.45C545.61 467.39 546.613 467.044 547.469 466.45C548.052 466.018 548.513 465.444 548.807 464.781C549.101 464.119 549.219 463.391 549.149 462.67C549.064 462.127 548.824 461.621 548.459 461.21Z" fill="#77DBF2"/>
<path d="M652.22 461.25C652.22 461.39 622.46 461.51 585.76 461.51C549.06 461.51 519.29 461.39 519.29 461.25C519.29 461.11 549 461 585.76 461C622.52 461 652.22 461.1 652.22 461.25Z" fill="#295F70"/>
</svg>
