<svg width="400" height="400" viewBox="0 0 400 400" fill="none" xmlns="http://www.w3.org/2000/svg">
<path d="M200 0L373.205 100V300L200 400L26.7949 300V100L200 0Z" fill="black"/>
<path d="M200 25L351.554 112.5V287.5L200 375L48.4456 287.5V112.5L200 25Z" fill="url(#paint0_linear_7_2)"/>
<path d="M200 50L329.904 125V275L200 350L70.0962 275V125L200 50Z" fill="#5C6266"/>
<path d="M193.945 100.234C174.336 101.797 157.305 107.773 142.305 118.438C139.219 120.625 139.023 120.703 138.008 120.195C133.242 117.773 127.227 118.633 123.281 122.266C120.898 124.453 119.688 126.68 119.102 129.805C118.008 135.664 121.055 141.484 126.563 144.102C129.648 145.547 134.414 145.547 137.5 144.102C143.32 141.367 146.445 134.727 144.805 128.633L144.258 126.602L147.266 124.492C169.375 108.906 198.047 103.945 224.453 111.133C226.641 111.758 228.594 112.07 229.18 111.914C232.031 111.211 233.047 107.578 230.977 105.508C230.117 104.688 228.828 104.18 224.805 103.203C214.063 100.586 203.164 99.5313 193.945 100.234ZM135 127.539C138.359 129.727 138.203 134.57 134.688 136.719C131.055 138.945 126.172 135.742 126.719 131.484C127.188 127.5 131.68 125.352 135 127.539Z" fill="#EAFCFD"/>
<path d="M238.555 110.156C235.547 112.5 238.125 117.617 241.914 116.914C243.438 116.602 244.922 114.688 244.922 113.008C244.922 110 241.016 108.242 238.555 110.156Z" fill="#EAFCFD"/>
<path d="M264.336 119.336C260.781 120.313 257.578 123.086 255.938 126.563C254.453 129.648 254.453 134.414 255.898 137.5C258.633 143.32 265.078 146.406 271.172 144.805L273.359 144.219L275.508 147.266C283.945 159.219 289.336 173.242 291.445 188.672C292.227 194.258 292.109 207.773 291.25 213.281C290 221.367 287.5 229.961 284.375 237.148C282.93 240.391 282.891 241.758 284.18 243.281C285.352 244.688 286.875 245.039 288.594 244.297C289.648 243.867 290.156 243.203 291.25 240.781C294.961 232.813 297.578 223.633 299.102 213.477C299.922 208.086 300 194.141 299.258 188.281C297.148 171.563 291.016 155.586 281.562 142.305C279.375 139.219 279.297 139.023 279.805 138.008C282.227 133.242 281.367 127.227 277.734 123.281C274.141 119.414 269.297 117.969 264.336 119.336ZM271.055 127.617C272.578 128.75 273.516 130.781 273.281 132.539C272.656 137.734 266.289 139.18 263.398 134.805C260.234 130.117 266.484 124.258 271.055 127.617Z" fill="#EAFCFD"/>
<path d="M185.547 126.289C183.789 127.148 183.203 129.023 183.203 133.594V137.734L179.805 138.828C177.891 139.414 174.453 140.82 172.07 141.953L167.773 144.023L164.414 140.781C161.25 137.695 160.938 137.5 159.336 137.5H157.617L147.578 147.578C137.539 157.578 137.5 157.656 137.5 159.297C137.5 160.859 137.695 161.172 140.781 164.375L144.063 167.773L142.227 171.523C141.211 173.594 139.805 177.031 139.063 179.18L137.734 183.125L132.93 183.281C128.32 183.398 128.125 183.438 127.07 184.492L125.977 185.547L125.859 199.531C125.82 210.195 125.898 213.711 126.289 214.453C127.148 216.211 129.023 216.797 133.633 216.797H137.773L139.023 220.625C139.688 222.695 141.133 226.172 142.188 228.32L144.102 232.188L140.781 235.625C137.695 238.828 137.5 239.141 137.5 240.703C137.5 242.344 137.539 242.422 147.578 252.422C157.578 262.461 157.656 262.5 159.297 262.5C160.859 262.5 161.172 262.305 164.375 259.219L167.813 255.898L171.68 257.813C173.828 258.867 177.305 260.313 179.375 260.977L183.203 262.227V266.367C183.203 270.977 183.789 272.852 185.547 273.711C186.289 274.102 189.805 274.18 200.469 274.141L214.453 274.023L215.508 272.93C216.563 271.875 216.602 271.68 216.719 267.07L216.875 262.266L220.82 260.938C222.969 260.195 226.406 258.789 228.477 257.773L232.227 255.938L235.625 259.219C238.828 262.305 239.141 262.5 240.703 262.5C242.344 262.5 242.422 262.461 252.422 252.422L262.5 242.383V240.664C262.5 239.063 262.305 238.75 259.219 235.586L255.977 232.227L258.047 227.93C259.18 225.547 260.586 222.109 261.172 220.195L262.266 216.797H266.406C270.977 216.797 272.852 216.211 273.711 214.453C274.102 213.711 274.18 210.195 274.141 199.531L274.023 185.547L272.93 184.492C271.875 183.438 271.719 183.398 267.07 183.281L262.266 183.125L261.133 179.609C260.508 177.695 259.102 174.219 258.008 171.953L255.977 167.773L259.219 164.375C262.266 161.172 262.5 160.859 262.5 159.297C262.5 157.656 262.461 157.578 252.422 147.578C242.422 137.539 242.344 137.5 240.703 137.5C239.141 137.5 238.828 137.734 235.625 140.781L232.227 144.023L228.047 141.992C225.781 140.898 222.305 139.492 220.391 138.867L216.875 137.734L216.719 132.93C216.602 128.281 216.563 128.125 215.508 127.07L214.453 125.977L200.469 125.859C189.805 125.82 186.289 125.898 185.547 126.289ZM208.984 137.852C208.984 143.047 209.414 143.789 212.813 144.727C218.047 146.172 222.383 147.891 226.953 150.273C233.438 153.672 233.594 153.672 237.539 149.766L240.625 146.68L246.953 153.047L253.32 159.375L250.234 162.461C246.328 166.406 246.328 166.563 249.727 173.047C252.109 177.617 253.828 181.953 255.273 187.188C256.211 190.586 256.953 191.016 262.148 191.016H266.406V208.984H262.148C256.953 208.984 256.211 209.414 255.273 212.813C253.828 218.008 252.148 222.344 249.805 226.758C246.289 233.438 246.289 233.477 250.273 237.539L253.281 240.664L240.859 253.086L237.852 250.234C234.57 247.07 233.125 246.445 231.367 247.383C230.742 247.695 228.438 248.906 226.172 250.078C222.148 252.227 218.945 253.438 213.398 255.039C209.336 256.211 208.984 256.797 208.984 262.148V266.406H191.016V262.188C191.016 256.602 190.469 255.82 185.547 254.688C182.031 253.867 175.82 251.328 172.07 249.141C167.031 246.211 166.406 246.289 162.461 250.234L159.375 253.32L153.047 246.953L146.68 240.625L149.688 237.617C153.398 233.867 153.672 233.086 151.953 230.078C148.672 224.258 146.25 218.32 144.883 212.93C144.648 211.992 143.984 210.703 143.359 210.078C142.266 209.023 142.148 208.984 137.93 208.984H133.594V191.016H137.852C143.203 191.016 143.789 190.664 144.961 186.602C146.563 181.055 147.773 177.852 149.922 173.828C151.094 171.563 152.305 169.258 152.617 168.633C153.555 166.875 152.93 165.43 149.766 162.148L146.914 159.141L159.336 146.719L162.461 149.727C166.563 153.75 166.328 153.711 173.945 149.844C177.813 147.891 180.938 146.602 184.18 145.664C187.578 144.727 189.18 144.063 189.961 143.281C190.977 142.266 191.016 142.109 191.016 137.93V133.594H208.984V137.852Z" fill="#EAFCFD"/>
<path d="M193.984 167.031C188.906 168.047 185.352 169.492 181.172 172.305C174.609 176.797 170.117 182.93 167.695 190.898C166.797 193.945 166.68 194.961 166.68 200C166.68 205.039 166.797 206.055 167.695 209.102C171.25 220.703 179.297 228.75 190.898 232.305C193.945 233.203 194.961 233.32 200 233.32C205.039 233.32 206.055 233.203 209.102 232.305C222.188 228.32 231.055 218.164 233.242 204.688C234.18 198.789 232.812 189.844 230.664 188.008C229.258 186.797 227.344 186.836 225.82 188.086C224.414 189.297 224.219 190.195 224.883 192.969C225.156 194.141 225.469 196.68 225.625 198.633C225.938 203.32 225.156 206.953 222.852 211.602C212.891 231.406 184.258 230 176.055 209.336C172.734 201.016 174.18 191.328 179.766 184.062C184.141 178.398 192.656 174.219 199.805 174.219C200.938 174.219 203.281 174.492 204.961 174.805C209.102 175.586 209.57 175.547 210.977 174.297C211.953 173.398 212.227 172.891 212.266 171.523C212.305 170.156 212.109 169.688 211.211 168.906C208.711 166.758 200.078 165.82 193.984 167.031Z" fill="#EAFCFD"/>
<path d="M220.117 175.313C218.867 175.742 218.125 176.289 217.617 177.227C216.328 179.688 218.047 182.695 220.977 183.086C222.422 183.281 222.734 183.164 223.828 182.109C225.938 180 225.234 176.719 222.422 175.547C221.719 175.234 221.055 175 221.016 175.039C220.938 175.078 220.547 175.195 220.117 175.313Z" fill="#EAFCFD"/>
<path d="M110.234 158.398C109.18 158.867 108.672 159.531 107.656 161.797C104.922 167.734 102.305 177.266 100.938 186.328C100.078 191.914 99.9609 205.664 100.742 211.719C102.852 228.438 108.984 244.414 118.438 257.695C120.625 260.781 120.703 260.977 120.195 261.992C117.773 266.758 118.633 272.773 122.266 276.719C124.453 279.102 126.68 280.312 129.805 280.898C135.664 281.992 141.484 278.945 144.102 273.438C145.547 270.352 145.547 265.586 144.102 262.5C141.367 256.68 134.727 253.555 128.633 255.195L126.602 255.742L124.492 252.734C116.055 240.781 110.664 226.719 108.555 211.328C107.773 205.664 107.891 192.578 108.75 186.914C109.688 180.703 111.719 172.891 113.711 167.695C114.609 165.391 115.43 163.008 115.508 162.383C115.82 160.781 114.961 159.141 113.477 158.438C111.914 157.695 111.875 157.695 110.234 158.398ZM134.688 263.281C137.422 264.961 138.281 268.281 136.602 270.742C135.43 272.539 133.438 273.516 131.484 273.281C126.094 272.617 124.883 265.664 129.727 263.203C131.484 262.305 133.086 262.305 134.688 263.281Z" fill="#EAFCFD"/>
<path d="M264.258 255.195C261.758 256.055 260.43 256.875 258.594 258.672C255.352 261.914 253.984 266.953 255.195 271.367L255.742 273.398L252.734 275.508C240.781 283.945 226.68 289.336 211.328 291.445C206.445 292.109 193.828 292.109 188.672 291.445C183.477 290.781 177.305 289.453 172.266 287.852C167.734 286.484 166.133 286.523 164.844 288.164C163.75 289.57 163.789 291.797 165 293.086C166.641 294.883 178.594 298.047 188.281 299.258C193.555 299.922 206.445 299.922 211.719 299.258C228.359 297.188 244.414 291.016 257.695 281.562L260.859 279.297L262.578 280.078C267.578 282.266 273.594 281.055 277.383 277.07C279.492 274.844 280.352 273.125 280.898 270.234C281.992 264.375 278.945 258.477 273.516 255.977C271.016 254.805 266.563 254.453 264.258 255.195ZM270.742 263.398C272.539 264.57 273.516 266.562 273.281 268.516C272.5 274.922 263.438 274.883 262.656 268.477C262.266 265.547 265 262.5 267.969 262.5C268.828 262.5 269.961 262.852 270.742 263.398Z" fill="#EAFCFD"/>
<path d="M153.203 282.227C151.055 284.023 151.211 287.031 153.477 288.398C155.234 289.414 156.914 289.258 158.242 287.93C160.117 286.016 159.609 283.008 157.227 281.836C155.43 281.016 154.531 281.094 153.203 282.227Z" fill="#EAFCFD"/>
<defs>
<linearGradient id="paint0_linear_7_2" x1="200" y1="25" x2="200" y2="375" gradientUnits="userSpaceOnUse">
<stop stop-color="#EAFCFD"/>
<stop offset="0.205" stop-color="#94E9F9"/>
<stop offset="1" stop-color="#15CDF2"/>
</linearGradient>
</defs>
</svg>
