<svg width="750" height="500" viewBox="0 0 750 500" fill="none" xmlns="http://www.w3.org/2000/svg">
<path d="M199 192.3C199 192.3 193.4 187.72 184.62 201.3C175.84 214.88 172.21 222.91 172.21 222.91C172.21 222.91 169.97 225.72 168.11 223.54C166.25 221.36 163.98 215.49 160.37 216.14C156.76 216.79 155 220.75 155.09 226.79C155.18 232.83 154.86 246.09 154.83 247.28C154.8 248.47 153.96 250.11 152.45 248.83C150.94 247.55 142.67 236.2 137.52 240.45C132.37 244.7 135.37 261.45 135.66 263.34C135.95 265.23 135.53 265.91 134.66 266.27C133.79 266.63 131.34 262.55 128.86 259.42C126.38 256.29 122.94 253.09 120.18 255.79C117.42 258.49 115.37 270.65 124.99 291.74L130.09 301.22L140.88 301.72C164.06 301.39 174.18 294.34 175.44 290.72C176.7 287.1 172.34 285.34 168.44 284.43C164.54 283.52 159.83 283.09 159.77 282.12C159.71 281.15 160.18 280.46 161.97 279.93C163.76 279.4 180.23 274.93 181.86 268.46C183.49 261.99 169.7 259.37 167.86 258.56C166.02 257.75 167.19 256.27 168.24 255.74C169.29 255.21 181.15 249.25 186.65 246.74C192.15 244.23 195.02 241.08 194.02 237.41C193.02 233.74 186.79 234.33 184.02 233.58C181.25 232.83 182.83 229.58 182.83 229.58C182.83 229.58 188.51 222.88 197.05 209.12C205.59 195.36 198.87 192.21 198.87 192.21" fill="#424242"/>
<path d="M128.181 303C134.491 292.92 146.001 275.18 155.811 259.91C165.621 244.64 174.481 230.8 180.811 220.75L188.331 208.84L190.331 205.6L190.871 204.76C190.991 204.57 191.061 204.48 191.061 204.48L190.901 204.78C190.771 204.98 190.601 205.27 190.391 205.63L188.391 208.9C186.661 211.74 184.121 215.83 180.961 220.9C174.651 230.99 165.821 244.84 156.011 260.12C146.201 275.4 134.661 293.12 128.301 303.12" fill="#5F5F5F"/>
<path d="M163.231 224.49C163.32 224.736 163.383 224.991 163.421 225.25C163.531 225.74 163.661 226.45 163.821 227.33C164.131 229.09 164.491 231.53 164.821 234.24C165.151 236.95 165.471 239.32 165.701 241.16C165.811 241.99 165.911 242.69 165.981 243.26C166.032 243.513 166.059 243.771 166.061 244.03C165.955 243.791 165.884 243.539 165.851 243.28C165.751 242.79 165.621 242.08 165.471 241.2C165.181 239.43 164.841 236.98 164.471 234.28C164.101 231.58 163.781 229.21 163.541 227.36L163.241 225.27C163.203 225.012 163.2 224.749 163.231 224.49Z" fill="#5F5F5F"/>
<path d="M167.051 244.32C167.051 244.23 172.051 243.26 178.231 242.14C184.411 241.02 189.451 240.2 189.461 240.29C189.471 240.38 184.461 241.36 178.291 242.47C172.121 243.58 167.071 244.41 167.051 244.32Z" fill="#5F5F5F"/>
<path d="M150.931 267.1C151.197 267.071 151.465 267.071 151.731 267.1L153.871 267.33C155.691 267.52 158.191 267.77 160.971 267.95C163.751 268.13 166.261 268.21 168.081 268.25H170.241C170.506 268.232 170.772 268.252 171.031 268.31C170.77 268.356 170.506 268.379 170.241 268.38C169.731 268.38 168.991 268.38 168.081 268.38C166.251 268.38 163.731 268.38 160.941 268.18C158.151 267.98 155.651 267.72 153.841 267.47C152.941 267.34 152.211 267.23 151.711 267.13C151.45 267.143 151.189 267.133 150.931 267.1Z" fill="#5F5F5F"/>
<path d="M143.53 249.92C143.667 250.125 143.785 250.343 143.88 250.57L144.75 252.37C145.46 253.89 146.43 256.01 147.48 258.37C148.53 260.73 149.48 262.86 150.12 264.37L150.88 266.21C150.99 266.432 151.071 266.667 151.12 266.91C150.974 266.709 150.853 266.491 150.76 266.26L149.9 264.46C149.19 262.94 148.22 260.82 147.17 258.46C146.12 256.1 145.17 253.98 144.53 252.46C144.23 251.74 143.97 251.12 143.77 250.62C143.66 250.398 143.58 250.163 143.53 249.92Z" fill="#5F5F5F"/>
<path d="M126.74 268.23C126.916 268.488 127.067 268.763 127.19 269.05L128.31 271.36C129.23 273.31 130.49 276.01 131.87 279.01C133.25 282.01 134.46 284.73 135.34 286.71C135.75 287.65 136.09 288.44 136.34 289.06C136.482 289.341 136.596 289.636 136.68 289.94C136.504 289.678 136.354 289.4 136.23 289.11L135.11 286.81C134.19 284.81 132.93 282.15 131.55 279.15C130.17 276.15 128.95 273.43 128.08 271.45L127.08 269.11C126.942 268.827 126.828 268.532 126.74 268.23Z" fill="#5F5F5F"/>
<path d="M136.59 289.35C136.923 289.324 137.257 289.324 137.59 289.35L140.32 289.54C142.63 289.7 145.82 289.9 149.32 290.03C152.82 290.16 156.04 290.2 158.32 290.21H161.06C161.393 290.181 161.727 290.181 162.06 290.21C161.729 290.264 161.395 290.294 161.06 290.3C160.42 290.3 159.48 290.37 158.32 290.39C156.01 290.39 152.81 290.39 149.32 290.31C145.83 290.23 142.6 289.93 140.32 289.72L137.6 289.42C137.262 289.424 136.924 289.4 136.59 289.35Z" fill="#5F5F5F"/>
<path d="M110.91 230.44C110.96 232.088 110.866 233.738 110.63 235.37C110.021 240.033 108.495 244.529 106.14 248.6L106.04 248.42H106.25L106.15 248.6L78.1503 298.27L77.9803 298.58L77.7803 298.28L48.1803 251.05L46.7203 248.72L46.4903 248.36H46.9203L46.7203 248.72C44.4777 244.87 42.9657 240.639 42.2603 236.24C41.902 234.096 41.7513 231.923 41.8103 229.75L41.9903 226.54C42.1503 225.48 42.3103 224.43 42.4603 223.38C44.049 215.326 48.3087 208.043 54.5503 202.71C57.465 200.295 60.7506 198.367 64.2803 197L65.5703 196.52L66.2103 196.28L66.8703 196.1L69.4803 195.42C71.2035 195.089 72.9478 194.878 74.7003 194.79C76.3903 194.699 78.0846 194.73 79.7703 194.88C80.6003 194.95 81.4103 195.13 82.2203 195.24L83.4203 195.44C83.8103 195.52 84.2003 195.64 84.5903 195.74L86.8803 196.36L89.0503 197.19C89.4103 197.33 89.7703 197.45 90.1203 197.6L91.1203 198.11L93.1203 199.11C97.6878 201.762 101.614 205.388 104.62 209.73C106.858 213.008 108.547 216.629 109.62 220.45C110.009 221.842 110.303 223.258 110.5 224.69C110.688 225.731 110.801 226.783 110.84 227.84C110.84 228.68 110.84 229.33 110.91 229.79C110.98 230.25 110.91 230.45 110.91 230.45C110.91 230.45 110.91 230.22 110.91 229.79C110.91 229.36 110.85 228.69 110.8 227.85C110.74 226.796 110.613 225.748 110.42 224.71C110.204 223.288 109.897 221.882 109.5 220.5C108.413 216.715 106.725 213.129 104.5 209.88C101.482 205.582 97.5564 202.001 93.0003 199.39L91.0003 198.39L90.0003 197.9C89.6603 197.74 89.3003 197.63 88.9403 197.49L86.7903 196.67L84.5203 196.07C84.1403 195.97 83.7603 195.85 83.3703 195.77L82.1803 195.58C81.3803 195.47 80.5803 195.3 79.7603 195.23C78.0975 195.087 76.4265 195.064 74.7603 195.16C73.0276 195.248 71.3034 195.459 69.6003 195.79L67.0203 196.47L66.3703 196.65L65.7403 196.88L64.4703 197.36C60.9696 198.705 57.7106 200.61 54.8203 203C48.6516 208.283 44.4508 215.497 42.9003 223.47C42.7503 224.47 42.5903 225.54 42.4403 226.58C42.2903 227.62 42.3203 228.69 42.2703 229.76C42.2133 231.906 42.3606 234.052 42.7103 236.17C43.4108 240.508 44.9022 244.681 47.1103 248.48L47.3203 248.84H46.9103L47.1103 248.48C47.5703 249.22 48.1103 250.01 48.5603 250.81L78.1403 298.07H77.7703C89.5503 277.35 99.3803 260.07 105.94 248.49L106.05 248.67H105.83L105.93 248.49C108.289 244.449 109.844 239.991 110.51 235.36C110.74 233.77 110.8 232.53 110.86 231.71C110.86 231.3 110.86 230.99 110.86 230.77C110.86 230.55 110.91 230.44 110.91 230.44Z" fill="#5F5F5F"/>
<path d="M98.3498 230C98.3396 229.884 98.3396 229.766 98.3498 229.65C98.3498 229.39 98.3498 229.05 98.2698 228.65C98.2698 228.42 98.2698 228.17 98.2698 227.89C98.2698 227.61 98.1798 227.3 98.1298 226.97C98.0274 226.21 97.8737 225.459 97.6698 224.72C97.1569 222.68 96.3411 220.728 95.2498 218.93C92.6739 214.598 88.6691 211.299 83.924 209.6C79.1789 207.9 73.9902 207.908 69.2498 209.62C68.2796 209.965 67.3341 210.376 66.4198 210.85C65.496 211.356 64.6073 211.924 63.7598 212.55C62.8964 213.194 62.0747 213.892 61.2998 214.64C60.5345 215.425 59.8229 216.26 59.1698 217.14C57.8202 218.962 56.7703 220.987 56.0598 223.14C54.5734 227.575 54.5734 232.375 56.0598 236.81C56.7503 238.965 57.7908 240.993 59.1398 242.81C59.7859 243.696 60.4908 244.538 61.2498 245.33C62.0234 246.079 62.8416 246.78 63.6998 247.43C64.5472 248.059 65.4358 248.63 66.3598 249.14C67.213 249.591 68.0949 249.985 68.9998 250.32C73.7371 252.051 78.9287 252.082 83.6862 250.407C88.4437 248.733 92.4713 245.457 95.0798 241.14C96.1888 239.351 97.0152 237.401 97.5298 235.36C97.7414 234.623 97.8985 233.87 97.9998 233.11C97.9998 232.78 98.1098 232.48 98.1498 232.2V231.43C98.1498 231 98.2098 230.65 98.2298 230.43C98.219 230.31 98.219 230.19 98.2298 230.07C98.2431 230.19 98.2431 230.31 98.2298 230.43C98.2298 230.69 98.2298 231.03 98.2298 231.43V232.2C98.2298 232.48 98.1498 232.79 98.1098 233.12C98.0181 233.889 97.8745 234.651 97.6798 235.4C97.185 237.468 96.3756 239.448 95.2798 241.27C92.6634 245.683 88.5867 249.044 83.7549 250.769C78.9231 252.495 73.6402 252.477 68.8198 250.72C66.8121 250.016 64.9262 249.004 63.2298 247.72C62.3452 247.065 61.5066 246.35 60.7198 245.58C59.9621 244.769 59.2605 243.907 58.6198 243C57.2452 241.15 56.1781 239.09 55.4598 236.9C54.741 234.635 54.3636 232.276 54.3398 229.9C54.372 227.522 54.7631 225.162 55.4998 222.9C56.2253 220.715 57.2991 218.662 58.6798 216.82C59.3496 215.92 60.0778 215.065 60.8598 214.26C61.655 213.502 62.4966 212.794 63.3798 212.14C64.2475 211.504 65.1561 210.926 66.0998 210.41C67.038 209.944 68.0069 209.543 68.9998 209.21C73.8283 207.477 79.1106 207.486 83.9331 209.236C88.7557 210.985 92.8152 214.364 95.4098 218.79C96.4914 220.623 97.2904 222.609 97.7798 224.68C97.9734 225.425 98.1105 226.184 98.1898 226.95C98.1898 227.29 98.2898 227.59 98.3098 227.88C98.3298 228.17 98.3098 228.41 98.3098 228.64C98.3098 229.08 98.3098 229.43 98.3098 229.69C98.3318 229.792 98.3451 229.896 98.3498 230Z" fill="#5F5F5F"/>
<path d="M76.0308 240.23L63.3008 231.36L66.4008 226.92L74.9308 232.87L85.9708 218.84L90.2208 222.19L76.0308 240.23Z" fill="#5F5F5F"/>
<path fill-rule="evenodd" clip-rule="evenodd" d="M432.08 75.87C435.801 76.3343 439.443 77.2927 442.91 78.72L450.86 72.06L464.52 82.46L460.22 91.9C462.518 94.8606 464.415 98.1121 465.86 101.57L476.19 102.48L478.5 119.48L468.78 123.11C468.323 126.853 467.361 130.516 465.92 134L472.59 142L462.19 155.67L452.75 151.36C449.792 153.662 446.54 155.558 443.08 157L442.17 167.33L425.17 169.64L421.54 159.92C417.813 159.435 414.167 158.453 410.7 157L402.7 163.66L389.04 153.26L393.35 143.82C391.047 140.863 389.15 137.611 387.71 134.15L377.38 133.24L375.07 116.24L384.78 112.6C385.249 108.882 386.211 105.244 387.64 101.78L381 93.79L391.39 80.12L400.84 84.43C403.8 82.1299 407.051 80.2333 410.51 78.79L411.42 68.46L428.42 66.15L432.05 75.87H432.08ZM427 99.33C423.199 99.4526 419.528 100.749 416.493 103.042C413.457 105.334 411.206 108.51 410.048 112.133C408.89 115.756 408.883 119.649 410.026 123.277C411.169 126.905 413.407 130.09 416.433 132.394C419.459 134.699 423.125 136.01 426.926 136.148C430.727 136.286 434.478 135.244 437.663 133.165C440.848 131.086 443.311 128.071 444.715 124.536C446.118 121.001 446.392 117.118 445.5 113.42C444.505 109.303 442.122 105.655 438.753 103.089C435.384 100.523 431.233 99.1953 427 99.33Z" fill="#3C3C3C"/>
<path fill-rule="evenodd" clip-rule="evenodd" d="M277.15 130.26C279.556 130.567 281.91 131.192 284.15 132.12L289.31 127.79L298.18 134.54L295.39 140.67C296.883 142.592 298.114 144.704 299.05 146.95L305.76 147.54L307.25 158.54L300.95 160.9C300.642 163.305 300.016 165.659 299.09 167.9L303.42 173.06L296.69 182L290.56 179.21C288.64 180.702 286.528 181.929 284.28 182.86L283.69 189.57L272.69 191.07L270.33 184.76C267.925 184.459 265.571 183.837 263.33 182.91L258.17 187.24L249.3 180.49L252.1 174.36C250.604 172.441 249.373 170.328 248.44 168.08L241.73 167.49L240.23 156.44L246.54 154.09C246.843 151.685 247.466 149.331 248.39 147.09L244 141.9L250.75 133.03L256.88 135.82C258.8 134.329 260.908 133.098 263.15 132.16L263.74 125.45L274.79 124L277.15 130.3V130.26ZM273.83 145.49C271.35 145.561 268.953 146.399 266.969 147.888C264.984 149.378 263.51 151.446 262.75 153.808C261.99 156.169 261.98 158.709 262.723 161.076C263.465 163.444 264.923 165.523 266.897 167.028C268.87 168.532 271.261 169.388 273.74 169.477C276.22 169.567 278.666 168.885 280.742 167.527C282.819 166.168 284.423 164.2 285.334 161.892C286.245 159.584 286.419 157.05 285.83 154.64C285.179 151.972 283.633 149.608 281.449 147.943C279.265 146.277 276.576 145.412 273.83 145.49Z" fill="#424242"/>
<path d="M369.82 211C371.29 211.653 372.641 212.545 373.82 213.64C377.128 216.601 379.311 220.614 380 225C380.489 228.031 380.256 231.136 379.32 234.06C378.231 237.431 376.259 240.449 373.61 242.8C372.191 244.081 370.582 245.133 368.84 245.92C367.038 246.779 365.11 247.342 363.13 247.59C358.941 248.167 354.677 247.381 350.969 245.348C347.261 243.315 344.306 240.143 342.54 236.3C341.679 234.499 341.115 232.571 340.87 230.59C340.603 228.694 340.626 226.769 340.94 224.88C341.502 221.384 342.986 218.101 345.24 215.37C347.204 213.008 349.698 211.144 352.52 209.93C356.596 208.145 361.165 207.827 365.45 209.03C367.007 209.452 368.483 210.128 369.82 211.03C369.76 211.15 368.29 210.24 365.34 209.5C361.157 208.489 356.757 208.908 352.84 210.69C350.176 211.901 347.834 213.72 346 216C343.886 218.619 342.505 221.752 342 225.08C341.447 228.756 341.993 232.514 343.57 235.88C345.252 239.493 348.044 242.475 351.539 244.39C355.034 246.306 359.049 247.056 363 246.53C364.875 246.304 366.702 245.777 368.41 244.97C370.068 244.238 371.6 243.249 372.95 242.04C375.327 239.971 377.149 237.339 378.25 234.386C379.35 231.432 379.694 228.25 379.25 225.13C378.629 220.887 376.613 216.971 373.52 214C371.31 211.86 369.74 211.11 369.82 211Z" fill="#424242"/>
<path d="M390.441 195.42C390.478 195.197 390.528 194.977 390.591 194.76C390.721 194.27 390.891 193.61 391.111 192.76L393.271 184.91L393.351 185.11L377.511 176.54L377.851 176.48L370.681 184.66L370.551 184.81L370.361 184.76C366.568 183.842 362.671 183.429 358.771 183.53H358.551L358.441 183.34C356.791 180.34 355.001 177.17 353.131 173.83L353.591 174.02L336.311 179.1L336.621 178.65C336.841 182.02 337.071 185.72 337.311 189.52V189.8L337.071 189.94C333.76 191.956 330.734 194.404 328.071 197.22L327.871 197.43L327.591 197.35L317.121 194.35L317.691 194.12L309.001 210L308.891 209.36L317.041 216.57L317.281 216.78L317.211 217.09C316.298 220.846 315.891 224.707 316.001 228.57V228.89L315.711 229.05L306.191 234.34L306.451 233.71L311.491 251L310.931 250.61L321.791 249.94H322.131L322.301 250.23C324.308 253.538 326.746 256.564 329.551 259.23C329.621 259.48 329.411 258.68 329.711 259.79V259.85V259.93V260.1L329.611 260.43L329.421 261.08L329.051 262.4L328.291 265.02C327.791 266.77 327.291 268.51 326.801 270.24L326.531 269.6L342.321 278.27L341.651 278.38L348.861 270.24L349.001 270L349.321 270.08C353.091 271.011 356.968 271.438 360.851 271.35H361.181L361.331 271.63C363.124 274.85 364.884 278.027 366.611 281.16L366.001 280.91L383.291 275.91L382.931 276.43C382.711 272.75 382.491 269.12 382.281 265.57V265.26L382.541 265.11C385.873 263.108 388.924 260.67 391.611 257.86L391.811 257.65L392.091 257.73L402.541 260.73L402.011 260.95L410.711 245.18L410.801 245.7L402.671 238.47L402.491 238.31L402.541 238.08C403.49 234.299 403.927 230.407 403.841 226.51V226.29L404.031 226.18L413.561 220.93L413.411 221.31C411.491 214.6 409.851 208.89 408.411 204L408.671 204.17L397.801 204.77H397.691L397.631 204.68C396.13 202.143 394.381 199.762 392.411 197.57L390.931 195.97C390.755 195.802 390.591 195.621 390.441 195.43C390.635 195.573 390.819 195.73 390.991 195.9C391.351 196.23 391.881 196.73 392.551 197.44C394.588 199.6 396.394 201.966 397.941 204.5L397.781 204.41L408.641 203.68H408.831L408.891 203.88C410.341 208.76 412.031 214.46 414.011 221.15L414.081 221.4L413.851 221.52L404.351 226.84L404.541 226.51C404.65 230.475 404.23 234.436 403.291 238.29L403.161 237.89L411.331 245.09L411.591 245.31L411.421 245.61L402.791 261.42L402.611 261.74L402.261 261.64L391.791 258.64L392.271 258.51C389.534 261.393 386.423 263.895 383.021 265.95L383.261 265.5C383.481 269.053 383.707 272.673 383.941 276.36V276.77L383.551 276.88L366.271 281.94L365.861 282.06L365.661 281.69L360.371 272.17L360.851 272.45C356.871 272.55 352.896 272.12 349.031 271.17L349.571 271L342.361 279.15L342.071 279.48L341.691 279.27L325.891 270.61L325.501 270.4L325.631 269.97C326.124 268.243 326.621 266.507 327.121 264.76L327.871 262.13L328.251 260.82L328.441 260.16L328.531 259.83L328.581 259.67V259.58V259.52C328.881 260.63 328.661 259.83 328.731 260.07C325.853 257.324 323.354 254.207 321.301 250.8L321.811 251.07L310.941 251.73H310.501L310.381 251.31L305.381 234.02L305.261 233.6L305.641 233.39L315.161 228.12L314.891 228.6C314.791 224.623 315.225 220.651 316.181 216.79L316.351 217.31C313.521 214.8 310.741 212.31 308.201 210.09L307.901 209.81L308.091 209.45L316.781 193.67L316.971 193.32L317.351 193.43L327.801 196.43L327.321 196.56C330.072 193.694 333.189 191.203 336.591 189.15L336.371 189.57C336.151 185.78 335.931 182.07 335.731 178.71V178.36L336.071 178.26L353.371 173.26L353.671 173.17L353.821 173.45C355.671 176.79 357.441 180.01 359.081 182.98L358.751 182.8C362.712 182.711 366.668 183.155 370.511 184.12L370.191 184.22L377.431 176.1L377.581 175.93L377.781 176.04L393.521 184.79L393.651 184.86V185C392.651 188.35 391.871 190.94 391.331 192.73L390.721 194.73C390.649 194.968 390.555 195.199 390.441 195.42Z" fill="#424242"/>
<path d="M432.78 213.5L417.09 151.1L480.94 150.04L432.78 213.5Z" fill="#424242"/>
<path d="M461.665 162.142L439.735 191.044L556.618 279.731L578.548 250.829L461.665 162.142Z" fill="#424242"/>
<path d="M546.999 373L555.109 391.39C555.109 391.39 539.109 405.81 540.309 409.39L576.529 394.94L565.069 365.77L546.999 373Z" fill="#15CDF2"/>
<path opacity="0.5" d="M546.999 373L555.109 391.39C555.109 391.39 539.109 405.81 540.309 409.39L576.529 394.94L565.069 365.77L546.999 373Z" fill="#262626"/>
<path d="M576.529 394.93L575.259 392L540.999 407C540.999 407 539.669 408.34 540.299 409.41L576.529 394.93Z" fill="#1B1B1B"/>
<path d="M610.78 399.07L620.94 416.42C620.94 416.42 606.72 432.56 608.28 436L642.62 417.52L627.91 389.8L610.78 399.07Z" fill="#15CDF2"/>
<path opacity="0.5" d="M610.78 399.07L620.94 416.42C620.94 416.42 606.72 432.56 608.28 436L642.62 417.52L627.91 389.8L610.78 399.07Z" fill="#262626"/>
<path d="M642.619 417.47L640.999 414.74L608.699 433.48C608.699 433.48 607.529 434.97 608.279 435.95L642.619 417.47Z" fill="#1B1B1B"/>
<path d="M566.48 155.77L544.22 157.51L543.48 145.05C543.48 145.05 534.48 144.92 533.16 136.15C531.84 127.38 530.5 107 530.5 107C535.193 104.153 540.56 102.61 546.049 102.531C551.537 102.451 556.947 103.839 561.72 106.55L563.16 107.37L566.48 155.77Z" fill="#FFBE9D"/>
<path d="M543.449 144.92C547.517 144.427 551.346 142.735 554.449 140.06C554.449 140.06 552.509 146.96 543.629 147.4L543.449 144.92Z" fill="#EB996E"/>
<path d="M563.359 116.61C563.499 116.52 569.149 113.97 569.799 120.01C570.449 126.05 564.259 125.45 564.229 125.28C564.199 125.11 563.359 116.61 563.359 116.61Z" fill="#FFBE9D"/>
<path d="M565.83 122.79C565.83 122.79 565.94 122.85 566.13 122.92C566.389 122.998 566.668 122.973 566.91 122.85C567.282 122.565 567.571 122.186 567.747 121.752C567.923 121.317 567.979 120.844 567.91 120.38C567.873 119.862 567.719 119.36 567.46 118.91C567.382 118.728 567.261 118.568 567.108 118.442C566.955 118.317 566.773 118.23 566.58 118.19C566.455 118.172 566.327 118.197 566.219 118.263C566.112 118.329 566.03 118.43 565.99 118.55C565.93 118.72 565.99 118.84 565.99 118.85C565.99 118.86 565.85 118.77 565.87 118.51C565.888 118.357 565.958 118.216 566.07 118.11C566.143 118.037 566.23 117.979 566.327 117.941C566.423 117.904 566.526 117.886 566.63 117.89C566.883 117.914 567.126 118.002 567.336 118.145C567.545 118.288 567.715 118.483 567.83 118.71C568.144 119.204 568.333 119.767 568.38 120.35C568.466 120.884 568.392 121.432 568.168 121.925C567.944 122.418 567.579 122.834 567.12 123.12C566.961 123.191 566.787 123.223 566.614 123.214C566.44 123.205 566.271 123.156 566.12 123.07C565.85 122.94 565.81 122.81 565.83 122.79Z" fill="#EB996E"/>
<path d="M534.289 120.8C534.334 121.127 534.505 121.423 534.764 121.626C535.023 121.83 535.352 121.924 535.679 121.89C535.841 121.881 535.999 121.84 536.144 121.769C536.289 121.698 536.418 121.598 536.523 121.476C536.629 121.353 536.709 121.211 536.758 121.057C536.807 120.903 536.825 120.741 536.809 120.58C536.769 120.252 536.602 119.954 536.344 119.748C536.086 119.542 535.758 119.446 535.429 119.48C535.267 119.49 535.109 119.532 534.963 119.605C534.818 119.677 534.688 119.777 534.582 119.9C534.476 120.023 534.395 120.166 534.345 120.321C534.295 120.475 534.276 120.638 534.289 120.8Z" fill="#1B1B1B"/>
<path d="M533.9 119.12C534.08 119.26 534.9 118.42 536.28 118.24C537.66 118.06 538.72 118.59 538.84 118.4C538.96 118.21 538.7 118.04 538.23 117.79C537.586 117.471 536.861 117.356 536.15 117.46C535.448 117.556 534.794 117.871 534.28 118.36C533.91 118.74 533.82 119.06 533.9 119.12Z" fill="#1B1B1B"/>
<path d="M547.419 119.28C547.464 119.607 547.634 119.903 547.894 120.106C548.153 120.31 548.482 120.404 548.809 120.37C548.97 120.36 549.127 120.318 549.272 120.246C549.416 120.174 549.545 120.075 549.65 119.953C549.755 119.831 549.835 119.689 549.885 119.536C549.934 119.382 549.953 119.221 549.939 119.06C549.897 118.734 549.729 118.436 549.472 118.231C549.214 118.026 548.887 117.929 548.559 117.96C548.397 117.97 548.239 118.012 548.093 118.085C547.948 118.157 547.818 118.257 547.712 118.38C547.606 118.503 547.525 118.646 547.475 118.801C547.425 118.955 547.406 119.118 547.419 119.28Z" fill="#1B1B1B"/>
<path d="M547.21 117.5C547.39 117.65 548.21 116.81 549.59 116.62C550.97 116.43 552.02 116.97 552.15 116.79C552.28 116.61 552.01 116.43 551.53 116.18C550.892 115.853 550.168 115.734 549.46 115.84C548.756 115.937 548.101 116.256 547.59 116.75C547.22 117.13 547.12 117.44 547.21 117.5Z" fill="#1B1B1B"/>
<path d="M543.72 128.2C542.975 128.086 542.22 128.059 541.47 128.12C541.12 128.12 540.78 128.12 540.69 127.88C540.621 127.545 540.652 127.197 540.78 126.88C540.98 126 541.2 125.07 541.43 124.11C542.063 121.753 542.504 119.348 542.75 116.92C541.929 119.219 541.294 121.58 540.85 123.98L540.25 126.76C540.086 127.205 540.086 127.695 540.25 128.14C540.317 128.255 540.409 128.352 540.52 128.425C540.631 128.498 540.758 128.544 540.89 128.56C541.085 128.59 541.284 128.59 541.48 128.56C542.239 128.536 542.991 128.415 543.72 128.2Z" fill="#1B1B1B"/>
<path d="M547.82 128.58C547.6 128.58 547.82 130.06 546.69 131.28C545.56 132.5 544 132.55 544.02 132.76C544.04 132.97 544.41 133 545.07 132.92C545.928 132.812 546.721 132.405 547.31 131.77C547.877 131.16 548.182 130.352 548.16 129.52C548.13 128.9 547.92 128.56 547.82 128.58Z" fill="#1B1B1B"/>
<path d="M546.11 112.26C546.3 112.61 547.62 112.26 549.23 112.26C550.84 112.26 552.23 112.48 552.35 112.12C552.42 111.95 552.15 111.63 551.58 111.35C550.833 111.002 550.014 110.837 549.19 110.87C548.366 110.891 547.558 111.103 546.83 111.49C546.29 111.77 546 112.1 546.11 112.26Z" fill="#1B1B1B"/>
<path d="M533.85 115.14C534.13 115.41 535.02 114.97 536.13 114.79C537.24 114.61 538.23 114.71 538.4 114.36C538.47 114.19 538.28 113.9 537.83 113.67C537.226 113.394 536.552 113.31 535.9 113.43C535.242 113.528 534.633 113.833 534.16 114.3C533.81 114.67 533.72 115 533.85 115.14Z" fill="#1B1B1B"/>
<path d="M525.44 102.05C525.305 101.513 525.307 100.951 525.445 100.415C525.583 99.8784 525.852 99.3853 526.23 98.98C526.627 98.5992 527.146 98.3713 527.695 98.3365C528.244 98.3017 528.788 98.4624 529.23 98.79C529.097 98.4344 529.04 98.055 529.063 97.6761C529.086 97.2973 529.187 96.9273 529.362 96.5901C529.536 96.2529 529.779 95.956 530.075 95.7183C530.37 95.4806 530.713 95.3074 531.08 95.21C532.5 94.92 533.88 95.83 535.32 96.01C536.731 96.1004 538.134 95.7321 539.32 94.96C540.55 94.26 541.66 93.36 542.91 92.7C545.546 91.2935 548.631 90.9845 551.495 91.8403C554.358 92.696 556.767 94.6473 558.2 97.27C559.146 96.8863 560.186 96.8013 561.182 97.0266C562.178 97.2518 563.081 97.7765 563.77 98.53C565.131 100.071 565.869 102.064 565.84 104.12C565.839 105.492 565.689 106.861 565.39 108.2C565.39 108.31 565.39 108.42 565.44 108.54C566.03 113.38 566.28 119.13 564.23 119.45C560.64 120.01 560.55 113.12 560.55 113.12C555.9 112.04 556.61 105.2 555.37 104.36C554.13 103.52 551.49 101.51 542.93 107.52C539.713 109.541 535.941 110.496 532.15 110.25H531.91H531.85H531.77C530.907 110.157 530.063 109.931 529.27 109.58C528.333 109.203 527.542 108.538 527.01 107.68C526.755 107.249 526.63 106.753 526.652 106.252C526.673 105.752 526.839 105.268 527.13 104.86C526.304 104.109 525.716 103.132 525.44 102.05Z" fill="#FBE7A1"/>
<path d="M543.449 152.68L544.439 187.56L566.139 140.85L565.599 136.52L543.449 152.68Z" fill="#424242"/>
<path d="M557.84 256.93C557.05 257.19 511.84 302.88 512.84 311.09C513.84 319.3 546.01 380.09 546.01 380.09L569.01 368.78L547.48 315.5L547.76 312.19L574.07 290.64L572.66 256L557.84 256.93Z" fill="#1B1B1B"/>
<path d="M567.58 265.94C568.11 266.73 575.93 338.51 578.03 342.22C580.13 345.93 611.55 407.22 611.55 407.22L634.88 397.82L606.4 330.47L609.64 266.73L607.89 248.73L572.66 256L567.58 265.94Z" fill="#1B1B1B"/>
<path d="M577.62 341C577.545 340.766 577.495 340.525 577.47 340.28C577.38 339.76 577.27 339.07 577.13 338.21C576.85 336.35 576.45 333.76 575.97 330.58C575.04 324.07 573.76 315.18 572.34 305.36C570.92 295.54 569.76 286.62 568.86 280.12C568.45 276.92 568.11 274.32 567.86 272.46L567.62 270.37C567.595 270.127 567.595 269.883 567.62 269.64C567.62 269.64 567.68 269.89 567.77 270.36C567.86 270.83 567.97 271.57 568.11 272.43L569.26 280.07C570.2 286.57 571.48 295.46 572.89 305.29C574.3 315.12 575.48 324.02 576.37 330.53C576.79 333.72 577.13 336.32 577.37 338.18C577.47 339.05 577.56 339.75 577.62 340.27C577.644 340.513 577.644 340.757 577.62 341Z" fill="#2A3A43"/>
<path d="M605.809 328.41C605.514 330.341 605.059 332.244 604.449 334.1C603.995 335.999 603.38 337.856 602.609 339.65C602.915 337.731 603.38 335.841 603.999 334C604.436 332.087 605.042 330.216 605.809 328.41Z" fill="#2A3A43"/>
<path d="M609.339 344.67C608.817 344.156 608.384 343.557 608.059 342.9C606.318 339.799 605.561 336.241 605.889 332.7C605.914 331.97 606.063 331.25 606.329 330.57C605.778 335.471 606.831 340.418 609.329 344.67H609.339Z" fill="#2A3A43"/>
<path d="M540 307.75C542.798 308.852 545.094 310.945 546.45 313.63C546.33 313.71 545.21 312.08 543.45 310.47C541.69 308.86 539.89 307.88 540 307.75Z" fill="#2A3A43"/>
<path d="M543.5 305.63C544.435 306.276 545.197 307.141 545.72 308.15C546.391 309.071 546.827 310.142 546.99 311.27C546.374 310.349 545.81 309.394 545.3 308.41C544.649 307.517 544.048 306.589 543.5 305.63Z" fill="#2A3A43"/>
<path d="M546.619 200.91L552.389 229.57L557.089 269.57C557.089 269.57 576.469 266.86 584.729 264.25C594.309 261.25 615.149 258.63 615.149 258.63L611.629 262.11C619.089 260.02 623.839 252.91 623.839 252.91C610.999 241 599.999 216.44 599.999 216.44L590.229 167.92C590.229 167.92 588.749 161.08 587.849 158.03C586.949 154.98 572.119 145.17 570.059 143.93L568.769 143.32L568.359 139.43L566.829 138.51L550.789 153.1C547.663 155.933 545.675 159.808 545.199 164C544.521 170.058 544.287 176.158 544.499 182.25C544.689 188 546.619 200.91 546.619 200.91Z" fill="#15CDF2"/>
<path d="M557.64 151.28C557.64 151.28 549.16 155.83 547.69 159.69C546.22 163.55 550.59 205.87 550.59 205.87L520.12 206.45L520 224.6C520 224.6 568.39 228.43 570.28 225.81C572.82 222.27 575.78 189.2 575.78 189.2L576.88 165.4C576.88 165.4 574.11 147.26 557.64 151.28Z" fill="#15CDF2"/>
<g opacity="0.3">
<path d="M552.389 229.57C556.331 230.803 560.488 231.189 564.589 230.7C568.879 230.31 573.249 227.96 574.869 223.96C576.109 220.91 575.589 217.46 575.779 214.17C575.949 211.3 576.649 208.5 577.089 205.67C577.529 202.84 576.089 197.67 575.089 194.92C575.089 194.92 574.009 214.56 570.929 222.81C570.587 223.962 569.937 224.999 569.049 225.81C567.959 226.69 566.459 226.81 565.049 226.91C561.159 227.32 551.779 226.64 551.779 226.64" fill="#262626"/>
</g>
<path d="M576.86 168C576.873 168.146 576.873 168.294 576.86 168.44C576.86 168.74 576.86 169.16 576.81 169.7C576.81 170.84 576.68 172.47 576.58 174.56C576.48 176.65 576.33 179.26 576.17 182.25C576.01 185.24 575.89 188.67 575.52 192.43C575.15 196.19 574.8 200.31 574.33 204.73C573.86 209.15 573.33 213.87 572.48 218.8C572.28 220.06 571.999 221.306 571.64 222.53C571.224 223.811 570.463 224.953 569.44 225.83C568.389 226.736 567.037 227.218 565.65 227.18C564.31 227.18 562.96 227.18 561.65 227.18C556.21 227.04 550.59 226.77 544.83 226.45C536.18 225.98 527.83 225.45 520.06 224.89H519.84V224.67C519.84 218.22 519.91 212.15 519.95 206.54V206.33H520.16L549.57 205.7L557.79 205.56H559.96C560.45 205.56 560.7 205.56 560.7 205.56C560.7 205.56 560.45 205.56 559.96 205.61L557.8 205.7L549.57 205.96L520.17 206.77L520.38 206.56C520.38 212.16 520.38 218.23 520.32 224.68L520.09 224.44C527.88 224.97 536.22 225.51 544.86 225.98C550.61 226.29 556.23 226.58 561.66 226.72C563.02 226.72 564.36 226.77 565.66 226.72C566.94 226.768 568.191 226.328 569.16 225.49C570.115 224.673 570.825 223.607 571.21 222.41C571.562 221.208 571.839 219.986 572.04 218.75C572.89 213.84 573.43 209.12 573.94 204.75C574.45 200.38 574.84 196.23 575.19 192.47C575.54 188.71 575.71 185.29 575.91 182.3C576.11 179.31 576.27 176.74 576.4 174.62C576.53 172.5 576.65 170.9 576.73 169.77C576.73 169.23 576.8 168.77 576.83 168.5C576.82 168.333 576.83 168.165 576.86 168Z" fill="#1B1B1B"/>
<path d="M526 224.33C525.764 221.403 525.694 218.465 525.79 215.53C525.724 212.593 525.824 209.655 526.09 206.73C526.326 209.657 526.396 212.595 526.3 215.53C526.366 218.467 526.266 221.405 526 224.33Z" fill="#1B1B1B"/>
<path d="M522.78 209.49C522.72 209.49 523.02 209.11 523.6 209.31C523.769 209.369 523.918 209.476 524.028 209.618C524.138 209.76 524.205 209.931 524.22 210.11C524.246 210.333 524.201 210.559 524.092 210.756C523.982 210.952 523.814 211.109 523.61 211.204C523.406 211.299 523.178 211.328 522.957 211.286C522.736 211.244 522.534 211.133 522.38 210.97C522.251 210.852 522.156 210.702 522.103 210.535C522.05 210.368 522.042 210.191 522.08 210.02C522.22 209.44 522.62 209.32 522.63 209.38C522.64 209.44 522.44 209.65 522.43 210.06C522.427 210.168 522.448 210.274 522.491 210.373C522.534 210.472 522.599 210.559 522.68 210.63C522.777 210.711 522.895 210.764 523.02 210.783C523.145 210.802 523.273 210.788 523.39 210.74C523.5 210.683 523.593 210.597 523.659 210.492C523.724 210.386 523.759 210.264 523.76 210.14C523.757 210.035 523.727 209.933 523.673 209.844C523.618 209.754 523.541 209.681 523.45 209.63C523.1 209.42 522.81 209.55 522.78 209.49Z" fill="#1B1B1B"/>
<path d="M590.38 172.08C590.38 172.08 606.24 192.81 608.17 198.45C610.1 204.09 608.61 212.21 605.38 216.09C602.15 219.97 599.55 218.39 599.55 218.39L590.38 172.08Z" fill="#15CDF2"/>
<path d="M598.999 216.73C597.707 217.196 596.365 217.508 594.999 217.66C593.669 217.974 592.306 218.121 590.939 218.1C592.231 217.632 593.574 217.32 594.939 217.17C596.269 216.856 597.633 216.709 598.999 216.73Z" fill="#1B1B1B"/>
<path d="M602 232C602.179 232.348 602.323 232.713 602.43 233.09C602.67 233.81 603.03 234.83 603.5 236.09C604.732 239.374 606.154 242.582 607.76 245.7C609.377 248.809 611.153 251.833 613.08 254.76C613.82 255.89 614.43 256.76 614.86 257.41C615.105 257.718 615.313 258.054 615.48 258.41C615.188 258.147 614.926 257.852 614.7 257.53C614.23 256.94 613.57 256.07 612.79 254.96C610.763 252.087 608.932 249.08 607.31 245.96C605.688 242.829 604.304 239.579 603.17 236.24C602.74 234.96 602.42 233.91 602.24 233.18C602.108 232.799 602.027 232.402 602 232Z" fill="#1B1B1B"/>
<g opacity="0.3">
<path d="M603.1 234.46C605.62 238.94 608.2 243.46 612.02 246.93C613.465 248.027 614.774 249.293 615.92 250.7C616.92 252.19 617.39 254.27 616.41 255.8C616.264 256.085 616.034 256.319 615.752 256.471C615.47 256.623 615.148 256.685 614.83 256.65C614.412 256.49 614.06 256.194 613.83 255.81C609.046 249.65 605.473 242.64 603.3 235.15" fill="#262626"/>
</g>
<g opacity="0.3">
<path d="M601 218.31C603.17 216.75 603.93 213.79 603.61 211.13C603.29 208.47 602.07 206.03 600.98 203.6C597.685 196.334 595.103 188.765 593.27 181L591.72 175.25L599.56 216.25L601 218.31Z" fill="#262626"/>
</g>
<path d="M561.77 149.44C562.705 148.393 563.707 147.408 564.77 146.49C565.707 145.429 566.709 144.427 567.77 143.49C567.102 144.736 566.222 145.856 565.169 146.8C564.209 147.883 563.057 148.778 561.77 149.44Z" fill="#1B1B1B"/>
<path d="M560.17 153C560.17 153.09 559.25 153.37 557.85 154.06C554.175 155.883 551.215 158.882 549.44 162.58C548.76 163.99 548.44 164.93 548.44 164.91C548.437 164.675 548.474 164.442 548.55 164.22C548.704 163.609 548.904 163.011 549.15 162.43C550.802 158.545 553.874 155.437 557.74 153.74C558.316 153.487 558.911 153.28 559.52 153.12C559.728 153.044 559.948 153.004 560.17 153Z" fill="#1B1B1B"/>
<path d="M602.74 222.44C602.639 222.318 602.555 222.184 602.49 222.04L601.86 220.85C601.29 219.74 600.52 218.23 599.57 216.39C598.57 211.85 597.18 205.23 595.65 197.86C594.23 190.87 593 184.58 592 180L591 174.57C590.9 173.98 590.81 173.49 590.74 173.09C590.698 172.92 590.681 172.745 590.69 172.57C590.757 172.731 590.807 172.899 590.84 173.07C590.93 173.46 591.05 173.95 591.19 174.54C591.49 175.88 591.9 177.7 592.39 179.93C593.39 184.55 594.69 190.83 596.15 197.76C597.68 205.13 599.02 211.76 599.91 216.33C600.8 218.2 601.52 219.73 602.05 220.86L602.61 222.09C602.664 222.202 602.708 222.319 602.74 222.44Z" fill="#1B1B1B"/>
<path d="M550.069 205.86C549.942 205.369 549.862 204.866 549.829 204.36C549.719 203.3 549.569 201.91 549.389 200.24C549.029 196.77 548.569 191.96 548.099 186.66C547.629 181.36 547.229 176.54 546.959 173.05C546.839 171.38 546.749 169.99 546.669 168.93C546.623 168.424 546.623 167.916 546.669 167.41C546.783 167.904 546.86 168.405 546.899 168.91C547.009 169.97 547.159 171.36 547.349 173.03C547.699 176.5 548.159 181.3 548.629 186.61C549.099 191.92 549.499 196.73 549.769 200.21C549.889 201.88 549.979 203.27 550.059 204.34C550.098 204.846 550.101 205.354 550.069 205.86Z" fill="#1B1B1B"/>
<path d="M520.51 208.57C520.51 208.57 513.93 203.57 512.33 203.28C511.1 203.05 503.77 203.18 500.4 203.28C499.77 203.275 499.163 203.517 498.711 203.955C498.258 204.392 497.995 204.99 497.98 205.62C497.97 205.7 497.97 205.78 497.98 205.86C498.063 206.259 498.258 206.626 498.541 206.92C498.824 207.214 499.184 207.422 499.58 207.52C499.068 207.684 498.622 208.006 498.304 208.438C497.986 208.871 497.813 209.393 497.81 209.93C497.81 211.83 500.08 212.23 500.08 212.23L499.75 212.53C499.465 212.818 499.263 213.178 499.164 213.571C499.065 213.964 499.073 214.376 499.187 214.765C499.301 215.154 499.518 215.505 499.814 215.782C500.109 216.059 500.474 216.252 500.87 216.34L501.87 216.58C501.486 216.736 501.153 216.995 500.907 217.328C500.662 217.662 500.514 218.057 500.48 218.47C500.48 220.97 506.16 221.47 506.16 221.47C506.16 221.47 520.09 223.68 520.39 223.58C520.69 223.48 520.51 208.57 520.51 208.57Z" fill="#FFBE9D"/>
<path d="M501.69 200.28C501.75 201.11 501.95 202.87 503.35 203.66L511.12 203.36C511.12 203.36 505.34 201.36 504.51 200.36C504.188 199.95 503.815 199.584 503.4 199.27C503.227 199.154 503.026 199.089 502.818 199.083C502.61 199.077 502.405 199.13 502.226 199.235C502.047 199.341 501.902 199.495 501.807 199.68C501.712 199.865 501.671 200.073 501.69 200.28Z" fill="#FFBE9D"/>
<path d="M507.46 203.28C506.301 203.554 505.106 203.639 503.92 203.53C502.734 203.6 501.544 203.516 500.38 203.28C501.544 203.019 502.741 202.935 503.93 203.03C505.112 202.971 506.298 203.055 507.46 203.28Z" fill="#EB996E"/>
<path d="M505.719 207.62C504.732 207.938 503.69 208.044 502.659 207.93C501.633 207.968 500.61 207.788 499.659 207.4C500.673 207.29 501.695 207.29 502.709 207.4C503.718 207.36 504.727 207.434 505.719 207.62Z" fill="#EB996E"/>
<path d="M509.669 207.06C509.789 207.14 509.669 207.56 509.199 207.84C508.729 208.12 508.309 208.09 508.299 207.95C508.289 207.81 508.579 207.64 508.919 207.42C509.259 207.2 509.549 207 509.669 207.06Z" fill="#EB996E"/>
<path d="M506.569 212.54C504.348 212.8 502.099 212.726 499.899 212.32C501.002 212.101 502.132 212.05 503.249 212.17C504.368 212.128 505.487 212.252 506.569 212.54Z" fill="#EB996E"/>
<path d="M511 210.46C511.06 210.46 511.18 210.6 511.22 210.9C511.263 211.309 511.144 211.718 510.891 212.041C510.637 212.364 510.267 212.575 509.86 212.63C509.56 212.63 509.38 212.63 509.38 212.52C509.38 212.41 510.05 212.3 510.49 211.73C510.93 211.16 510.88 210.49 511 210.46Z" fill="#EB996E"/>
<path d="M507.75 217.35C506.75 217.473 505.737 217.432 504.75 217.23C503.722 217.194 502.708 216.984 501.75 216.61C502.75 216.487 503.763 216.528 504.75 216.73C505.777 216.772 506.79 216.981 507.75 217.35Z" fill="#EB996E"/>
<path d="M512.08 214.9C512.14 214.9 512.24 215.06 512.23 215.37C512.191 215.737 512.045 216.085 511.81 216.37C511.25 217.06 510.61 217.31 510.54 217.21C510.47 217.11 510.95 216.64 511.42 216.06C511.89 215.48 512 214.93 512.08 214.9Z" fill="#EB996E"/>
<path d="M609 262.51C610.375 262.377 611.7 261.925 612.868 261.189C614.037 260.452 615.017 259.453 615.73 258.27C615.89 258 616.03 257.63 615.82 257.4C615.738 257.332 615.644 257.282 615.543 257.251C615.442 257.22 615.335 257.209 615.23 257.22C613.055 257.204 610.894 257.576 608.85 258.32C608.73 258.347 608.617 258.4 608.519 258.474C608.421 258.548 608.339 258.642 608.28 258.75C608.226 258.919 608.226 259.101 608.28 259.27C608.55 260.32 608.82 261.37 609.1 262.43" fill="#15CDF2"/>
<g opacity="0.4">
<path d="M609 262.51C610.375 262.377 611.7 261.925 612.868 261.189C614.037 260.452 615.017 259.453 615.73 258.27C615.89 258 616.03 257.63 615.82 257.4C615.738 257.332 615.644 257.282 615.543 257.251C615.442 257.22 615.335 257.209 615.23 257.22C613.055 257.204 610.894 257.576 608.85 258.32C608.73 258.347 608.617 258.4 608.519 258.474C608.421 258.548 608.339 258.642 608.28 258.75C608.226 258.919 608.226 259.101 608.28 259.27C608.55 260.32 608.82 261.37 609.1 262.43" fill="#262626"/>
</g>
<path d="M543.45 152.68C543.45 152.68 540.25 163.41 541.13 162.8C542.01 162.19 543.92 160.5 543.92 160.5L543.45 152.68Z" fill="#424242"/>
<path d="M543.63 157.63L541.89 161.81C541.716 162.243 541.601 162.697 541.55 163.16C541.4 164.33 541.24 166.47 541.93 166.62C542.279 166.64 542.628 166.581 542.952 166.447C543.276 166.314 543.565 166.11 543.8 165.85L543.63 157.63Z" fill="#1B1B1B"/>
<path d="M597.83 158.29C597.83 158.29 580.74 151.62 571.27 157.51C561.8 163.4 560.08 172.8 554.44 172.8C543.44 172.8 543.8 165.04 543.8 165.04L541.46 165.75C541.46 167.34 538.92 178.75 550.46 180.14C562 181.53 566.92 165.76 577.34 165.75C583.859 165.86 590.213 167.812 595.67 171.38L603.16 166.65L597.83 158.29Z" fill="#1B1B1B"/>
<path d="M554 180C556.948 178.244 559.257 175.591 560.59 172.43C563.25 166.3 568.95 159.31 573.71 157.55C578.47 155.79 589.48 154.55 597.09 159.55L601.96 166.13L595.64 170.24C592.086 168.373 588.35 166.875 584.49 165.77C576.63 163.58 571.85 166.06 567.28 170.38C567 170.65 566.73 170.92 566.51 171.18C564.301 173.534 561.878 175.677 559.27 177.58C557 179.11 555 180 554 180Z" fill="#2A3A43"/>
<path d="M199.999 86.87C189.859 88.44 182.429 79.87 180.059 72.34C177.869 65.34 176.829 58.05 173.759 51.34C169.459 42.04 158.079 37.74 147.869 38.6C137.659 39.46 127.359 44.6 118.319 49.41L120.819 105.41C120.819 105.41 140.489 84.41 149.949 84.07C165.729 83.44 164.869 109.37 180.189 113.2C180.189 113.2 201.669 119.02 216.189 100.27C225.399 88.36 226.189 73.9 226.189 73.9C226.189 73.9 219.129 83.92 199.999 86.87Z" fill="#15CDF2"/>
<path d="M117.88 40.17C118.02 40.17 120.78 99.65 124.04 173.02C127.3 246.39 129.84 305.89 129.7 305.9C129.56 305.91 126.81 246.43 123.54 173.04C120.27 99.65 117.74 40.18 117.88 40.17Z" fill="#1B1B1B"/>
<g opacity="0.2">
<path d="M172 68.46C173.718 74.377 176.227 80.0348 179.46 85.28C182.38 89.85 186.81 93.7 192.12 94.81C193.092 94.9409 194.045 95.1859 194.96 95.54C195.416 95.7256 195.814 96.0306 196.111 96.423C196.409 96.8154 196.595 97.2807 196.65 97.77C196.65 99.24 195.18 100.2 193.86 100.85C192.027 101.856 190.065 102.61 188.03 103.09C186.03 103.47 184.37 103.69 182.96 102.09C181.596 100.753 180.37 99.2822 179.3 97.7C174.67 89.81 172.38 78.53 172 69.61" fill="#262626"/>
</g>
<path d="M185.75 104.43C185.75 104.43 185.59 104.36 185.3 104.17C184.88 103.896 184.476 103.599 184.09 103.28C182.666 102.102 181.408 100.736 180.35 99.22C178.783 96.9698 177.522 94.5218 176.6 91.94C175.478 88.7904 174.553 85.5742 173.83 82.31C172.456 76.3946 171.59 70.3727 171.24 64.31C171.11 61.99 171.09 60.11 171.09 58.81C171.09 58.2 171.09 57.71 171.09 57.31C171.073 57.1371 171.073 56.9629 171.09 56.79C171.135 56.9595 171.155 57.1347 171.15 57.31C171.15 57.71 171.15 58.2 171.21 58.8C171.27 60.1 171.34 61.98 171.52 64.29C171.974 70.3167 172.883 76.3004 174.24 82.19C174.974 85.4373 175.895 88.6393 177 91.78C177.906 94.3295 179.129 96.7552 180.64 99C181.656 100.512 182.855 101.892 184.21 103.11C185.18 104 185.78 104.4 185.75 104.43Z" fill="#1B1B1B"/>
<path d="M56.7402 317.72L190.71 339.65V317.72H56.7402Z" fill="#5F5F5F"/>
<path d="M212.82 367.27L346.8 389.2V367.27H212.82Z" fill="#5F5F5F"/>
<path d="M367.83 414.66L501.81 436.59V414.66H367.83Z" fill="#5F5F5F"/>
<path d="M522.641 452.38L656.611 474.31V452.38H522.641Z" fill="#5F5F5F"/>
<path d="M190.71 301.3H56.7402V317.73H190.71V301.3Z" fill="#15CDF2"/>
<g opacity="0.3">
<path d="M190.71 301.3H148.9V317.73H190.71V301.3Z" fill="#262626"/>
</g>
<path d="M346.79 350.84H212.82V367.27H346.79V350.84Z" fill="#15CDF2"/>
<g opacity="0.3">
<path d="M346.8 350.84H304.99V367.27H346.8V350.84Z" fill="#262626"/>
</g>
<path d="M501.81 398.23H367.84V414.66H501.81V398.23Z" fill="#15CDF2"/>
<g opacity="0.3">
<path d="M501.81 398.23H460V414.66H501.81V398.23Z" fill="#262626"/>
</g>
<path d="M656.821 435.95H522.851V452.38H656.821V435.95Z" fill="#15CDF2"/>
<g opacity="0.3">
<path d="M656.82 435.95H615.01V452.38H656.82V435.95Z" fill="#262626"/>
</g>
<path d="M574.26 376.16C574.262 376.879 574.477 377.582 574.878 378.18C575.279 378.777 575.848 379.242 576.514 379.516C577.179 379.79 577.911 379.86 578.616 379.719C579.321 379.577 579.969 379.23 580.477 378.72C580.985 378.211 581.331 377.562 581.471 376.856C581.61 376.151 581.538 375.419 581.262 374.755C580.986 374.09 580.519 373.522 579.921 373.123C579.323 372.723 578.619 372.51 577.9 372.51C577.421 372.51 576.947 372.604 576.504 372.788C576.062 372.972 575.66 373.241 575.322 373.58C574.984 373.919 574.716 374.321 574.534 374.764C574.352 375.207 574.258 375.681 574.26 376.16Z" fill="#424242"/>
</svg>
