<svg width="500" height="500" viewBox="0 0 500 500" fill="none" xmlns="http://www.w3.org/2000/svg">
<path d="M250.001 479.37C377.093 479.37 480.121 419.896 480.121 346.53C480.121 273.164 377.093 213.69 250.001 213.69C122.909 213.69 19.8809 273.164 19.8809 346.53C19.8809 419.896 122.909 479.37 250.001 479.37Z" fill="#D6D6D6"/>
<path d="M402.11 406.68C433.883 406.68 459.64 391.807 459.64 373.46C459.64 355.113 433.883 340.24 402.11 340.24C370.337 340.24 344.58 355.113 344.58 373.46C344.58 391.807 370.337 406.68 402.11 406.68Z" fill="#D6D6D6"/>
<path d="M196.139 445.23L53.4093 362.83C51.0693 361.48 51.0693 359.29 53.4093 357.93L259.749 238.81C261.062 238.139 262.515 237.79 263.989 237.79C265.463 237.79 266.917 238.139 268.229 238.81L410.919 321.19C413.259 322.54 413.259 324.73 410.919 326.08L204.619 445.23C203.305 445.896 201.853 446.243 200.379 446.243C198.906 446.243 197.453 445.896 196.139 445.23Z" fill="white"/>
<path d="M431.151 354.41C429.921 345.97 433.071 313.82 440.221 301.58C447.371 289.34 459.221 276.5 469.541 278.42C479.101 280.2 479.861 292.3 469.961 301.83C460.061 311.36 444.901 323.73 442.041 338.13L434.241 362.64L431.151 354.41Z" fill="#15CDF2"/>
<path opacity="0.1" d="M431.151 354.41C429.921 345.97 433.071 313.82 440.221 301.58C447.371 289.34 459.221 276.5 469.541 278.42C479.101 280.2 479.861 292.3 469.961 301.83C460.061 311.36 444.901 323.73 442.041 338.13L434.241 362.64L431.151 354.41Z" fill="white"/>
<path d="M433.441 351.76C433.572 351.725 433.687 351.649 433.77 351.542C433.853 351.436 433.899 351.305 433.901 351.17C434.341 321.51 453.311 294.03 466.251 286.38C466.393 286.296 466.496 286.16 466.537 286.001C466.578 285.841 466.555 285.672 466.471 285.53C466.388 285.388 466.251 285.285 466.092 285.244C465.932 285.203 465.763 285.226 465.621 285.31C452.431 293.11 433.101 321.04 432.621 351.15C432.62 351.231 432.635 351.312 432.665 351.388C432.694 351.464 432.739 351.533 432.796 351.591C432.852 351.65 432.92 351.697 432.995 351.729C433.069 351.761 433.15 351.779 433.231 351.78C433.302 351.789 433.374 351.783 433.441 351.76Z" fill="white"/>
<path d="M438.081 367.24C438.741 362.3 442.201 353.78 450.021 345.34C459.601 335 475.501 329.34 477.721 323.34C480.371 316.12 474.311 311.19 463.971 314.48C450.081 318.9 434.581 336.24 434.781 358.55L438.081 367.24Z" fill="#15CDF2"/>
<path d="M435.29 362.57C435.407 362.541 435.512 362.479 435.595 362.392C435.679 362.306 435.736 362.198 435.76 362.08C441 336.08 461.96 322.13 470.52 319.73C470.679 319.694 470.818 319.598 470.907 319.462C470.997 319.326 471.03 319.16 471 319C470.979 318.92 470.943 318.845 470.892 318.78C470.842 318.715 470.779 318.661 470.707 318.62C470.635 318.58 470.556 318.555 470.474 318.546C470.392 318.538 470.309 318.546 470.23 318.57C460.77 321.22 439.93 335.37 434.59 361.88C434.574 361.96 434.574 362.043 434.59 362.123C434.606 362.203 434.638 362.279 434.683 362.347C434.729 362.415 434.787 362.473 434.855 362.518C434.924 362.563 435 362.594 435.08 362.61C435.152 362.61 435.223 362.596 435.29 362.57Z" fill="white"/>
<path d="M146.31 74.42L138.7 78.82C138.739 78.4881 138.759 78.1542 138.76 77.82V75.62C138.76 71.69 136 70.1 132.6 72.06C131.141 72.9642 129.89 74.1673 128.93 75.59C128.38 70.65 124.5 68.81 119.8 71.53C114.71 74.47 110.58 81.61 110.58 87.53V90.83C110.551 92.1457 110.817 93.4511 111.36 94.65L105 98.25C104.004 98.8981 103.176 99.772 102.582 100.801C101.987 101.829 101.644 102.984 101.58 104.17C101.58 106.35 103.11 107.23 105 106.17L146.27 82.34C147.264 81.6929 148.092 80.8205 148.686 79.7937C149.281 78.7669 149.624 77.6145 149.69 76.43C149.73 74.22 148.2 73.33 146.31 74.42Z" fill="#D6D6D6"/>
<path d="M50.1397 84.25L54.3397 81V71.76C54.3397 64.42 60.1897 55.9 66.5397 52.23C72.8997 48.56 78.0497 51.54 78.0497 58.88V60.22C79.3871 58.0465 81.2162 56.2174 83.3897 54.88C87.9597 52.24 91.6697 54.38 91.6697 59.66V60.27L97.5297 56.89C100.53 55.15 102.98 56.56 102.98 60.04C102.876 61.9309 102.329 63.7708 101.382 65.4109C100.435 67.0509 99.1155 68.4449 97.5297 69.48L50.1397 96.84C47.1397 98.58 44.6797 97.17 44.6797 93.69C44.7795 91.7971 45.3264 89.9548 46.2754 88.3139C47.2244 86.6731 48.5487 85.2804 50.1397 84.25Z" fill="#D6D6D6"/>
<path d="M62.2207 351.49C62.3348 353.043 62.8124 354.547 63.615 355.881C64.4175 357.215 65.5225 358.342 66.8407 359.17L196.331 433.93C197.765 434.655 199.349 435.033 200.956 435.033C202.562 435.033 204.147 434.655 205.581 433.93L397.491 323.14C398.884 322.4 400.05 321.295 400.863 319.943C401.676 318.591 402.105 317.043 402.105 315.465C402.105 313.887 401.676 312.339 400.863 310.987C400.05 309.635 398.884 308.53 397.491 307.79L268.001 233C266.568 232.27 264.983 231.89 263.376 231.89C261.768 231.89 260.183 232.27 258.751 233L66.8407 343.82C65.5227 344.646 64.4177 345.771 63.6151 347.103C62.8124 348.436 62.3348 349.939 62.2207 351.49Z" fill="#B0BEC5"/>
<path d="M201 425V435C199.391 435.036 197.8 434.657 196.38 433.9L66.8402 359.17C65.4871 358.456 64.3474 357.396 63.537 356.098C62.7267 354.8 62.2746 353.311 62.2269 351.782C62.1791 350.252 62.5374 348.738 63.2652 347.392C63.9929 346.046 65.0643 344.917 66.3702 344.12C64.3002 345.6 64.4602 347.78 66.8402 349.12L196.34 423.89C197.771 424.658 199.377 425.04 201 425Z" fill="#90A4AE"/>
<path d="M57.8808 344C56.5942 343.125 55.5318 341.959 54.7796 340.597C54.0273 339.235 53.6064 337.715 53.5508 336.16V181.61C53.6386 180.007 54.1026 178.448 54.9053 177.058C55.7079 175.668 56.8266 174.487 58.1708 173.61L250.081 62.82C251.462 62.0856 252.997 61.6874 254.56 61.6578C256.124 61.6283 257.673 61.9682 259.081 62.65C260.366 63.5269 261.427 64.693 262.179 66.0547C262.931 67.4164 263.353 68.9355 263.411 70.49V225C263.324 226.603 262.86 228.162 262.057 229.552C261.255 230.942 260.136 232.124 258.791 233L66.8408 343.82C65.4659 344.55 63.9387 344.947 62.3822 344.978C60.8258 345.01 59.2838 344.674 57.8808 344Z" fill="#CFD8DC"/>
<path d="M66.3008 344.1C64.973 344.694 63.5318 344.99 62.0775 344.969C60.6233 344.949 59.1911 344.611 57.8808 343.98C56.5942 343.105 55.5318 341.939 54.7796 340.577C54.0273 339.215 53.6064 337.695 53.5508 336.14V181.61C53.6018 180.001 54.0705 178.433 54.9108 177.06L63.5708 182.06C62.7435 183.435 62.279 184.997 62.2208 186.6V341.15C62.2208 343.88 64.0008 345.11 66.3008 344.1Z" fill="#90A4AE"/>
<path d="M62.2207 186.62V341.15C62.2207 344.15 64.2907 345.29 66.8407 343.82L258.751 233C260.095 232.124 261.215 230.942 262.017 229.552C262.82 228.162 263.284 226.603 263.371 225V70.49C263.371 67.55 261.311 66.35 258.751 67.83L66.8407 178.61C65.4963 179.489 64.3777 180.672 63.5751 182.064C62.7725 183.455 62.3086 185.016 62.2207 186.62Z" fill="#B0BEC5"/>
<path d="M66.8402 349.15L196.33 423.92C197.764 424.645 199.348 425.023 200.955 425.023C202.562 425.023 204.146 424.645 205.58 423.92L397.49 313.13C400.04 311.65 400.04 309.26 397.49 307.79L268 233C266.568 232.27 264.983 231.89 263.375 231.89C261.768 231.89 260.183 232.27 258.75 233L66.8402 343.82C64.2902 345.29 64.2902 347.68 66.8402 349.15Z" fill="#CFD8DC"/>
<path d="M69.3308 184.55L254.881 77.45C256.411 76.57 257.661 77.29 257.661 79.06V221.63C257.607 222.592 257.328 223.528 256.845 224.362C256.362 225.196 255.689 225.905 254.881 226.43L69.3308 333.53C67.8008 334.41 66.5508 333.69 66.5508 331.92V189.35C66.6042 188.388 66.8838 187.452 67.3668 186.618C67.8498 185.784 68.5227 185.075 69.3308 184.55Z" fill="#15CDF2"/>
<path opacity="0.4" d="M69.3308 184.55L254.881 77.45C256.411 76.57 257.661 77.29 257.661 79.06V221.63C257.607 222.592 257.328 223.528 256.845 224.362C256.362 225.196 255.689 225.905 254.881 226.43L69.3308 333.53C67.8008 334.41 66.5508 333.69 66.5508 331.92V189.35C66.6042 188.388 66.8838 187.452 67.3668 186.618C67.8498 185.784 68.5227 185.075 69.3308 184.55Z" fill="white"/>
<path d="M81.8705 345.15L261.07 241.71C261.786 241.345 262.577 241.154 263.38 241.154C264.184 241.154 264.975 241.345 265.69 241.71L274.1 246.56C275.37 247.3 275.37 248.49 274.1 249.23L94.8805 352.66C94.1652 353.025 93.3736 353.216 92.5705 353.216C91.7674 353.216 90.9757 353.025 90.2605 352.66L81.8705 347.82C80.6005 347.08 80.6005 345.89 81.8705 345.15Z" fill="#B0BEC5"/>
<path d="M103.551 357.67L282.741 254.22C283.456 253.855 284.248 253.664 285.051 253.664C285.854 253.664 286.645 253.855 287.361 254.22L339.101 284.09C340.381 284.83 340.381 286.03 339.101 286.76L160.101 390.08C159.383 390.442 158.59 390.631 157.786 390.631C156.982 390.631 156.189 390.442 155.471 390.08L103.561 360.33C102.281 359.6 102.271 358.4 103.551 357.67Z" fill="#90A4AE"/>
<path d="M261.001 298.21L266.641 294.95C266.881 294.81 266.891 294.59 266.641 294.45L260.721 291C260.587 290.936 260.44 290.903 260.291 290.903C260.142 290.903 259.995 290.936 259.861 291L254.211 294.26C253.981 294.4 253.971 294.62 254.211 294.75L260.211 298.19C260.335 298.247 260.468 298.278 260.604 298.281C260.74 298.285 260.875 298.261 261.001 298.21ZM251.331 286.11L245.691 289.37C245.641 289.388 245.597 289.421 245.566 289.465C245.535 289.509 245.518 289.561 245.518 289.615C245.518 289.669 245.535 289.721 245.566 289.765C245.597 289.809 245.641 289.842 245.691 289.86L251.691 293.3C251.825 293.364 251.972 293.397 252.121 293.397C252.27 293.397 252.417 293.364 252.551 293.3L258.201 290.04C258.255 290.024 258.303 289.992 258.337 289.947C258.371 289.901 258.39 289.847 258.39 289.79C258.39 289.734 258.371 289.679 258.337 289.633C258.303 289.588 258.255 289.556 258.201 289.54L252.201 286.1C252.067 286.039 251.922 286.008 251.775 286.01C251.628 286.012 251.483 286.046 251.351 286.11H251.331ZM233.101 296.63L223.561 302.14C223.321 302.28 223.311 302.51 223.561 302.64L229.561 306.08C229.695 306.144 229.842 306.177 229.991 306.177C230.14 306.177 230.287 306.144 230.421 306.08L239.971 300.57C240.211 300.43 240.211 300.21 239.971 300.07L233.971 296.64C233.84 296.571 233.695 296.534 233.547 296.532C233.399 296.53 233.253 296.564 233.121 296.63H233.101ZM243.101 290.87L237.451 294.13C237.211 294.27 237.211 294.49 237.451 294.62L243.451 298.06C243.585 298.124 243.732 298.157 243.881 298.157C244.03 298.157 244.177 298.124 244.311 298.06L249.951 294.8C250.191 294.66 250.191 294.44 249.951 294.3L243.951 290.86C243.82 290.796 243.676 290.764 243.53 290.766C243.384 290.768 243.241 290.803 243.111 290.87H243.101ZM221.001 303.65L215.361 306.9C215.121 307.04 215.121 307.27 215.361 307.4L221.361 310.84C221.495 310.904 221.642 310.937 221.791 310.937C221.94 310.937 222.087 310.904 222.221 310.84L227.861 307.59C228.101 307.45 228.101 307.23 227.861 307.09L221.861 303.65C221.727 303.586 221.58 303.553 221.431 303.553C221.282 303.553 221.135 303.586 221.001 303.65ZM212.761 308.41L207.111 311.67C207.061 311.688 207.017 311.721 206.986 311.765C206.955 311.809 206.938 311.861 206.938 311.915C206.938 311.969 206.955 312.021 206.986 312.065C207.017 312.109 207.061 312.142 207.111 312.16L213.001 315.6C213.134 315.669 213.281 315.705 213.431 315.705C213.581 315.705 213.728 315.669 213.861 315.6L219.501 312.35C219.741 312.21 219.741 311.99 219.501 311.85L213.551 308.41C213.422 308.352 213.282 308.322 213.141 308.322C213 308.322 212.86 308.352 212.731 308.41H212.761ZM236.141 322.41L241.781 319.15C242.021 319.01 242.021 318.79 241.781 318.66L235.831 315.22C235.697 315.156 235.55 315.123 235.401 315.123C235.252 315.123 235.105 315.156 234.971 315.22L229.321 318.48C229.267 318.496 229.219 318.528 229.185 318.573C229.151 318.619 229.133 318.674 229.133 318.73C229.133 318.787 229.151 318.841 229.185 318.887C229.219 318.932 229.267 318.964 229.321 318.98L235.271 322.42C235.403 322.479 235.547 322.509 235.692 322.507C235.837 322.506 235.98 322.472 236.111 322.41H236.141ZM227.891 327.17L233.541 323.91C233.781 323.77 233.781 323.55 233.541 323.42L227.561 320C227.427 319.936 227.28 319.903 227.131 319.903C226.982 319.903 226.835 319.936 226.701 320L221.061 323.26C220.821 323.4 220.821 323.62 221.061 323.76L227.011 327.2C227.146 327.258 227.293 327.285 227.439 327.28C227.586 327.275 227.73 327.237 227.861 327.17H227.891ZM219.651 331.93L225.291 328.67C225.342 328.652 225.386 328.619 225.416 328.575C225.447 328.531 225.464 328.479 225.464 328.425C225.464 328.371 225.447 328.319 225.416 328.275C225.386 328.231 225.342 328.198 225.291 328.18L219.291 324.74C219.158 324.671 219.011 324.635 218.861 324.635C218.711 324.635 218.564 324.671 218.431 324.74L212.811 328C212.571 328.14 212.571 328.36 212.811 328.5L218.811 331.94C218.939 331.995 219.078 332.022 219.217 332.021C219.357 332.019 219.494 331.988 219.621 331.93H219.651ZM211.401 336.69L217.041 333.43C217.281 333.3 217.291 333.07 217.041 332.94L211.041 329.5C210.907 329.436 210.76 329.403 210.611 329.403C210.462 329.403 210.315 329.436 210.181 329.5L204.541 332.75C204.301 332.89 204.291 333.11 204.541 333.25L210.491 336.69C210.628 336.757 210.779 336.792 210.931 336.792C211.084 336.792 211.234 336.757 211.371 336.69H211.401ZM252.771 303L258.421 299.74C258.475 299.724 258.523 299.692 258.557 299.647C258.591 299.601 258.61 299.546 258.61 299.49C258.61 299.433 258.591 299.379 258.557 299.333C258.523 299.288 258.475 299.256 258.421 299.24L252.421 295.81C252.288 295.741 252.141 295.705 251.991 295.705C251.841 295.705 251.694 295.741 251.561 295.81L246.001 299C245.761 299.14 245.761 299.36 246.001 299.49L251.951 302.93C252.075 302.999 252.212 303.041 252.354 303.053C252.495 303.065 252.637 303.047 252.771 303ZM244.361 317.68L256.941 310.41C257.181 310.27 257.181 310.05 256.941 309.92L242.481 301.57C242.347 301.506 242.2 301.473 242.051 301.473C241.902 301.473 241.755 301.506 241.621 301.57L235.111 305.33C234.871 305.47 234.871 305.69 235.111 305.83L242.771 310.25C242.822 310.268 242.866 310.301 242.896 310.345C242.927 310.389 242.944 310.441 242.944 310.495C242.944 310.549 242.927 310.601 242.896 310.645C242.866 310.689 242.822 310.722 242.771 310.74L237.561 313.74C237.321 313.88 237.321 314.1 237.561 314.24L243.561 317.67C243.688 317.726 243.825 317.754 243.963 317.75C244.102 317.747 244.238 317.713 244.361 317.65V317.68ZM204.481 313.2L198.841 316.46C198.791 316.478 198.747 316.511 198.716 316.555C198.685 316.599 198.668 316.651 198.668 316.705C198.668 316.759 198.685 316.811 198.716 316.855C198.747 316.899 198.791 316.932 198.841 316.95L204.791 320.39C204.925 320.454 205.072 320.487 205.221 320.487C205.37 320.487 205.517 320.454 205.651 320.39L211.301 317.13C211.355 317.114 211.403 317.082 211.437 317.037C211.471 316.991 211.49 316.937 211.49 316.88C211.49 316.824 211.471 316.769 211.437 316.723C211.403 316.678 211.355 316.646 211.301 316.63L205.351 313.19C205.217 313.121 205.069 313.084 204.918 313.08C204.768 313.077 204.618 313.108 204.481 313.17V313.2ZM196.241 317.96L190.591 321.22C190.351 321.36 190.351 321.58 190.591 321.71L196.591 325.15C196.725 325.214 196.872 325.247 197.021 325.247C197.17 325.247 197.317 325.214 197.451 325.15L203.091 321.89C203.331 321.75 203.331 321.53 203.091 321.39L197.091 317.95C196.961 317.88 196.816 317.842 196.669 317.838C196.521 317.835 196.374 317.866 196.241 317.93V317.96ZM152.791 370C152.925 370.064 153.072 370.097 153.221 370.097C153.37 370.097 153.517 370.064 153.651 370L159.291 366.74C159.531 366.6 159.541 366.38 159.291 366.24L153.291 362.81C153.158 362.741 153.011 362.705 152.861 362.705C152.711 362.705 152.564 362.741 152.431 362.81L146.791 366.07C146.551 366.21 146.541 366.43 146.791 366.56L152.791 370ZM130.271 356L124.631 359.25C124.391 359.39 124.381 359.61 124.631 359.75L130.581 363.19C130.715 363.254 130.862 363.287 131.011 363.287C131.16 363.287 131.307 363.254 131.441 363.19L137.081 359.93C137.321 359.8 137.331 359.57 137.081 359.44L131.081 356C130.955 355.939 130.816 355.907 130.676 355.907C130.536 355.907 130.397 355.939 130.271 356ZM142.121 366.34C142.254 366.409 142.401 366.445 142.551 366.445C142.701 366.445 142.848 366.409 142.981 366.34L148.621 363.08C148.861 362.94 148.861 362.72 148.621 362.59L142.621 359.15C142.488 359.081 142.341 359.045 142.191 359.045C142.041 359.045 141.894 359.081 141.761 359.15L136.121 362.41C135.881 362.55 135.881 362.77 136.121 362.91L142.121 366.34ZM166.501 372.4L172.141 369.14C172.192 369.122 172.236 369.089 172.266 369.045C172.297 369.001 172.314 368.949 172.314 368.895C172.314 368.841 172.297 368.789 172.266 368.745C172.236 368.701 172.192 368.668 172.141 368.65L166.141 365.21C166.007 365.146 165.86 365.113 165.711 365.113C165.562 365.113 165.415 365.146 165.281 365.21L159.641 368.46C159.401 368.6 159.401 368.82 159.641 368.96L165.641 372.4C165.774 372.467 165.92 372.504 166.069 372.507C166.218 372.511 166.365 372.481 166.501 372.42V372.4ZM157.391 377.17C157.525 377.234 157.672 377.267 157.821 377.267C157.97 377.267 158.117 377.234 158.251 377.17L163.891 373.91C164.131 373.78 164.141 373.55 163.891 373.42L158.001 370C157.867 369.936 157.72 369.903 157.571 369.903C157.422 369.903 157.275 369.936 157.141 370L151.501 373.25C151.261 373.39 151.251 373.61 151.501 373.75L157.391 377.17ZM138.521 351.23L132.871 354.49C132.817 354.506 132.769 354.538 132.735 354.583C132.701 354.629 132.683 354.683 132.683 354.74C132.683 354.796 132.701 354.851 132.735 354.897C132.769 354.942 132.817 354.974 132.871 354.99L138.821 358.43C138.955 358.494 139.102 358.527 139.251 358.527C139.4 358.527 139.547 358.494 139.681 358.43L145.321 355.17C145.561 355.03 145.561 354.81 145.321 354.68L139.321 351.24C139.195 351.183 139.058 351.154 138.92 351.156C138.782 351.157 138.646 351.19 138.521 351.25V351.23ZM179.741 327.43L174.101 330.69C173.861 330.83 173.861 331.05 174.101 331.18L180.101 334.62C180.234 334.689 180.381 334.725 180.531 334.725C180.681 334.725 180.828 334.689 180.961 334.62L186.601 331.36C186.841 331.22 186.841 331 186.601 330.86L180.601 327.43C180.467 327.364 180.318 327.331 180.169 327.335C180.019 327.338 179.872 327.378 179.741 327.45V327.43ZM146.741 346.43L141.101 349.69C140.861 349.83 140.861 350.05 141.101 350.19L147.051 353.62C147.184 353.689 147.331 353.725 147.481 353.725C147.631 353.725 147.778 353.689 147.911 353.62L153.561 350.36C153.801 350.22 153.801 350 153.561 349.87L147.611 346.43C147.474 346.377 147.326 346.355 147.179 346.365C147.032 346.375 146.89 346.418 146.761 346.49L146.741 346.43ZM188.001 322.69L182.351 326C182.111 326.14 182.101 326.36 182.351 326.49L188.301 329.93C188.434 329.999 188.581 330.035 188.731 330.035C188.881 330.035 189.028 329.999 189.161 329.93L194.801 326.67C195.041 326.53 195.051 326.31 194.801 326.17L188.801 322.74C188.68 322.673 188.545 322.633 188.407 322.624C188.268 322.616 188.13 322.638 188.001 322.69ZM171.511 332.21L165.871 335.47C165.631 335.61 165.621 335.83 165.871 335.97L171.871 339.4C172.004 339.469 172.151 339.505 172.301 339.505C172.451 339.505 172.598 339.469 172.731 339.4L178.371 336.14C178.611 336 178.621 335.78 178.371 335.64L172.421 332.21C172.281 332.13 172.122 332.088 171.961 332.088C171.8 332.088 171.641 332.13 171.501 332.21H171.511ZM163.251 337L157.611 340.26C157.371 340.4 157.371 340.62 157.611 340.76L163.611 344.19C163.744 344.259 163.891 344.295 164.041 344.295C164.191 344.295 164.338 344.259 164.471 344.19L170.111 340.93C170.351 340.79 170.351 340.57 170.111 340.44L164.111 337C163.978 336.931 163.831 336.895 163.681 336.895C163.531 336.895 163.384 336.931 163.251 337ZM155.001 341.73L149.371 345C149.131 345.14 149.121 345.36 149.371 345.5L155.321 348.93C155.454 348.999 155.601 349.035 155.751 349.035C155.901 349.035 156.048 348.999 156.181 348.93L161.821 345.67C162.061 345.53 162.071 345.31 161.821 345.18L155.871 341.74C155.736 341.673 155.588 341.637 155.437 341.635C155.287 341.634 155.138 341.666 155.001 341.73ZM194.871 346.21L200.511 342.96C200.751 342.82 200.761 342.6 200.511 342.46L194.581 339C194.447 338.936 194.3 338.903 194.151 338.903C194.002 338.903 193.855 338.936 193.721 339L188.081 342.25C187.841 342.39 187.831 342.61 188.081 342.75L194.081 346.19C194.206 346.248 194.341 346.28 194.479 346.284C194.617 346.287 194.754 346.262 194.881 346.21H194.871ZM269.571 275.59L263.931 278.84C263.691 278.98 263.681 279.2 263.931 279.34L269.881 282.78C270.015 282.844 270.162 282.877 270.311 282.877C270.46 282.877 270.607 282.844 270.741 282.78L276.381 279.52C276.621 279.39 276.631 279.16 276.381 279.03L270.431 275.59C270.3 275.522 270.154 275.487 270.006 275.487C269.858 275.487 269.713 275.522 269.581 275.59H269.571ZM259.571 281.35L254.001 284.61C253.951 284.628 253.907 284.661 253.876 284.705C253.845 284.749 253.828 284.801 253.828 284.855C253.828 284.909 253.845 284.961 253.876 285.005C253.907 285.049 253.951 285.082 254.001 285.1L259.951 288.54C260.085 288.604 260.232 288.637 260.381 288.637C260.53 288.637 260.677 288.604 260.811 288.54L266.451 285.29C266.691 285.15 266.691 284.93 266.451 284.79L260.451 281.35C260.318 281.288 260.173 281.255 260.026 281.255C259.879 281.255 259.734 281.288 259.601 281.35H259.571ZM277.791 270.82L272.151 274.08C271.911 274.22 271.911 274.44 272.151 274.58L278.151 278.02C278.285 278.084 278.432 278.117 278.581 278.117C278.73 278.117 278.877 278.084 279.011 278.02L284.651 274.76C284.891 274.62 284.891 274.4 284.651 274.27L278.651 270.83C278.522 270.769 278.38 270.737 278.237 270.735C278.094 270.733 277.952 270.762 277.821 270.82H277.791ZM233.681 314L239.321 310.74C239.372 310.722 239.416 310.689 239.446 310.645C239.477 310.601 239.494 310.549 239.494 310.495C239.494 310.441 239.477 310.389 239.446 310.345C239.416 310.301 239.372 310.268 239.321 310.25L233.321 306.81C233.187 306.746 233.04 306.713 232.891 306.713C232.742 306.713 232.595 306.746 232.461 306.81L226.811 310.07C226.757 310.086 226.709 310.118 226.675 310.163C226.641 310.209 226.623 310.264 226.623 310.32C226.623 310.377 226.641 310.431 226.675 310.477C226.709 310.522 226.757 310.554 226.811 310.57L232.761 314.01C232.904 314.082 233.062 314.119 233.222 314.117C233.382 314.115 233.54 314.075 233.681 314ZM286.931 266.07C286.797 266.006 286.65 265.973 286.501 265.973C286.352 265.973 286.205 266.006 286.071 266.07L280.431 269.33C280.191 269.47 280.181 269.69 280.431 269.83L286.381 273.27C286.515 273.334 286.662 273.367 286.811 273.367C286.96 273.367 287.107 273.334 287.241 273.27L292.881 270.01C293.121 269.87 293.131 269.65 292.881 269.52L286.931 266.07ZM203.131 341.46L208.771 338.21C209.011 338.07 209.011 337.84 208.771 337.71L202.771 334.27C202.637 334.206 202.49 334.173 202.341 334.173C202.192 334.173 202.045 334.206 201.911 334.27L196.271 337.52C196.031 337.66 196.031 337.88 196.271 338.02L202.271 341.46C202.406 341.522 202.553 341.554 202.702 341.552C202.851 341.55 202.998 341.516 203.131 341.45V341.46ZM304.241 283.08L309.891 279.82C309.942 279.802 309.986 279.769 310.016 279.725C310.047 279.681 310.064 279.629 310.064 279.575C310.064 279.521 310.047 279.469 310.016 279.425C309.986 279.381 309.942 279.348 309.891 279.33L303.891 275.89C303.757 275.826 303.61 275.793 303.461 275.793C303.312 275.793 303.165 275.826 303.031 275.89L297.391 279.14C297.151 279.28 297.151 279.5 297.391 279.64L303.391 283.08C303.524 283.145 303.67 283.178 303.817 283.177C303.965 283.175 304.11 283.138 304.241 283.07V283.08ZM287.491 282.93L293.141 279.67C293.192 279.652 293.236 279.619 293.266 279.575C293.297 279.531 293.314 279.479 293.314 279.425C293.314 279.371 293.297 279.319 293.266 279.275C293.236 279.231 293.192 279.198 293.141 279.18L287.191 275.74C287.057 275.676 286.91 275.643 286.761 275.643C286.612 275.643 286.465 275.676 286.331 275.74L280.691 279C280.451 279.14 280.441 279.36 280.691 279.5L286.641 282.94C286.776 282.999 286.921 283.028 287.068 283.025C287.215 283.021 287.36 282.986 287.491 282.92V282.93ZM295.431 271C295.299 270.933 295.154 270.898 295.006 270.898C294.858 270.898 294.713 270.933 294.581 271L288.931 274.26C288.877 274.276 288.829 274.308 288.795 274.353C288.761 274.399 288.743 274.454 288.743 274.51C288.743 274.567 288.761 274.621 288.795 274.667C288.829 274.712 288.877 274.744 288.931 274.76L294.881 278.2C295.015 278.264 295.162 278.297 295.311 278.297C295.46 278.297 295.607 278.264 295.741 278.2L301.381 274.94C301.432 274.922 301.476 274.889 301.506 274.845C301.537 274.801 301.554 274.749 301.554 274.695C301.554 274.641 301.537 274.589 301.506 274.545C301.476 274.501 301.432 274.468 301.381 274.45L295.431 271ZM297.171 270L311.631 278.35C311.765 278.414 311.912 278.447 312.061 278.447C312.21 278.447 312.357 278.414 312.491 278.35L318.131 275.09C318.371 274.96 318.381 274.73 318.131 274.6L303.671 266.25C303.537 266.186 303.39 266.153 303.241 266.153C303.092 266.153 302.945 266.186 302.811 266.25L297.171 269.51C296.941 269.61 296.941 269.83 297.171 270ZM278.081 280.5L272.441 283.75C272.201 283.89 272.201 284.11 272.441 284.25L278.441 287.69C278.575 287.754 278.722 287.787 278.871 287.787C279.02 287.787 279.167 287.754 279.301 287.69L284.941 284.44C285.181 284.3 285.181 284.07 284.941 283.94L278.941 280.5C278.807 280.436 278.66 280.403 278.511 280.403C278.362 280.403 278.215 280.436 278.081 280.5ZM216.001 316.33L210.361 319.58C210.121 319.72 210.121 319.94 210.361 320.08L216.361 323.52C216.495 323.584 216.642 323.617 216.791 323.617C216.94 323.617 217.087 323.584 217.221 323.52L222.861 320.27C223.101 320.13 223.101 319.9 222.861 319.77L216.861 316.33C216.727 316.266 216.58 316.233 216.431 316.233C216.282 316.233 216.135 316.266 216.001 316.33ZM295.121 287.84C295.255 287.904 295.402 287.937 295.551 287.937C295.7 287.937 295.847 287.904 295.981 287.84L301.621 284.59C301.861 284.45 301.861 284.22 301.621 284.09L295.671 280.65C295.537 280.586 295.39 280.553 295.241 280.553C295.092 280.553 294.945 280.586 294.811 280.65L289.161 283.9C289.107 283.916 289.059 283.948 289.025 283.993C288.991 284.039 288.973 284.093 288.973 284.15C288.973 284.206 288.991 284.261 289.025 284.307C289.059 284.352 289.107 284.384 289.161 284.4L295.121 287.84ZM224.251 311.57L218.611 314.82C218.371 314.96 218.371 315.18 218.611 315.32L224.561 318.76C224.695 318.824 224.842 318.857 224.991 318.857C225.14 318.857 225.287 318.824 225.421 318.76L231.071 315.5C231.122 315.482 231.166 315.449 231.196 315.405C231.227 315.361 231.244 315.309 231.244 315.255C231.244 315.201 231.227 315.149 231.196 315.105C231.166 315.061 231.122 315.028 231.071 315.01L225.071 311.57C224.946 311.51 224.81 311.48 224.671 311.48C224.533 311.48 224.396 311.51 224.271 311.57H224.251ZM161.001 365.26C161.135 365.324 161.282 365.357 161.431 365.357C161.58 365.357 161.727 365.324 161.861 365.26L167.501 362C167.741 361.86 167.741 361.64 167.501 361.5L161.501 358.06C161.369 357.993 161.224 357.958 161.076 357.958C160.928 357.958 160.783 357.993 160.651 358.06L155.001 361.32C154.761 361.46 154.761 361.68 155.001 361.81L161.001 365.26ZM150.001 354.41L144.361 357.67C144.121 357.81 144.111 358.03 144.361 358.16L150.361 361.6C150.494 361.669 150.641 361.705 150.791 361.705C150.941 361.705 151.088 361.669 151.221 361.6L156.861 358.34C157.101 358.2 157.111 357.98 156.861 357.84L150.861 354.41C150.736 354.35 150.6 354.32 150.461 354.32C150.323 354.32 150.186 354.35 150.061 354.41H150.001ZM170.081 360.49L175.731 357.24C175.785 357.224 175.833 357.192 175.867 357.147C175.901 357.101 175.92 357.046 175.92 356.99C175.92 356.933 175.901 356.879 175.867 356.833C175.833 356.788 175.785 356.756 175.731 356.74L169.781 353.3C169.647 353.236 169.5 353.203 169.351 353.203C169.202 353.203 169.055 353.236 168.921 353.3L163.281 356.56C163.231 356.578 163.187 356.611 163.156 356.655C163.125 356.699 163.108 356.751 163.108 356.805C163.108 356.859 163.125 356.911 163.156 356.955C163.187 356.999 163.231 357.032 163.281 357.05L169.231 360.49C169.37 360.568 169.527 360.609 169.686 360.609C169.845 360.609 170.002 360.568 170.141 360.49H170.081ZM178.331 355.73L183.971 352.48C184.211 352.34 184.221 352.12 183.971 351.98L178.021 348.54C177.887 348.476 177.74 348.443 177.591 348.443C177.442 348.443 177.295 348.476 177.161 348.54L171.511 351.8C171.461 351.818 171.417 351.851 171.386 351.895C171.355 351.939 171.338 351.991 171.338 352.045C171.338 352.099 171.355 352.151 171.386 352.195C171.417 352.239 171.461 352.272 171.511 352.29L177.461 355.73C177.602 355.812 177.763 355.855 177.926 355.855C178.089 355.855 178.25 355.812 178.391 355.73H178.331ZM186.581 350.97L192.221 347.72C192.461 347.58 192.461 347.36 192.221 347.22L186.221 343.78C186.087 343.716 185.94 343.683 185.791 343.683C185.642 343.683 185.495 343.716 185.361 343.78L179.831 347C179.591 347.14 179.591 347.37 179.831 347.5L185.831 350.94C185.954 351.006 186.09 351.046 186.23 351.056C186.369 351.066 186.509 351.047 186.641 351L186.581 350.97ZM158.241 349.65L152.601 352.91C152.361 353.05 152.361 353.27 152.601 353.4L158.601 356.84C158.734 356.909 158.881 356.945 159.031 356.945C159.181 356.945 159.328 356.909 159.461 356.84L165.101 353.58C165.341 353.44 165.341 353.22 165.101 353.08L159.101 349.65C158.976 349.59 158.84 349.56 158.701 349.56C158.563 349.56 158.426 349.59 158.301 349.65H158.241ZM166.491 344.89L160.851 348.15C160.611 348.29 160.601 348.51 160.851 348.64L166.801 352.08C166.935 352.144 167.082 352.177 167.231 352.177C167.38 352.177 167.527 352.144 167.661 352.08L173.311 348.82C173.541 348.68 173.551 348.46 173.311 348.32L167.311 344.89C167.192 344.837 167.062 344.809 166.931 344.809C166.8 344.809 166.671 344.837 166.551 344.89H166.491ZM199.491 325.89L193.851 329.14C193.611 329.28 193.611 329.51 193.851 329.64L199.851 333.08C199.985 333.144 200.132 333.177 200.281 333.177C200.43 333.177 200.577 333.144 200.711 333.08L206.351 329.83C206.591 329.69 206.591 329.47 206.351 329.33L200.351 325.89C200.225 325.826 200.087 325.789 199.945 325.782C199.804 325.775 199.663 325.798 199.531 325.85L199.491 325.89ZM191.251 330.65L185.611 333.91C185.371 334.04 185.361 334.27 185.611 334.4L191.611 337.84C191.744 337.909 191.891 337.945 192.041 337.945C192.191 337.945 192.338 337.909 192.471 337.84L198.111 334.59C198.351 334.45 198.361 334.23 198.111 334.09L192.161 330.65C192.029 330.578 191.881 330.537 191.731 330.53C191.58 330.523 191.43 330.551 191.291 330.61L191.251 330.65ZM207.741 321.13L202.101 324.38C201.861 324.52 201.851 324.74 202.101 324.88L208.101 328.32C208.235 328.384 208.382 328.417 208.531 328.417C208.68 328.417 208.827 328.384 208.961 328.32L214.601 325.07C214.841 324.93 214.851 324.71 214.601 324.57L208.601 321.13C208.475 321.066 208.337 321.029 208.195 321.022C208.054 321.015 207.913 321.038 207.781 321.09L207.741 321.13ZM174.741 340.13L169.091 343.39C168.851 343.53 168.851 343.75 169.091 343.88L175.041 347.32C175.175 347.384 175.322 347.417 175.471 347.417C175.62 347.417 175.767 347.384 175.901 347.32L181.541 344.06C181.781 343.92 181.781 343.7 181.541 343.56L175.541 340.12C175.302 340.029 175.037 340.032 174.801 340.13H174.741ZM182.981 335.37L177.341 338.63C177.291 338.648 177.247 338.681 177.216 338.725C177.185 338.769 177.168 338.821 177.168 338.875C177.168 338.929 177.185 338.981 177.216 339.025C177.247 339.069 177.291 339.102 177.341 339.12L183.341 342.56C183.473 342.627 183.618 342.662 183.766 342.662C183.914 342.662 184.059 342.627 184.191 342.56L189.841 339.3C190.081 339.16 190.081 338.94 189.841 338.8L183.841 335.36C183.709 335.301 183.565 335.271 183.42 335.273C183.275 335.274 183.132 335.308 183.001 335.37H182.981ZM174.681 367.66L180.331 364.4C180.382 364.382 180.426 364.349 180.456 364.305C180.487 364.261 180.504 364.209 180.504 364.155C180.504 364.101 180.487 364.049 180.456 364.005C180.426 363.961 180.382 363.928 180.331 363.91L174.381 360.47C174.248 360.401 174.101 360.365 173.951 360.365C173.801 360.365 173.654 360.401 173.521 360.47L167.881 363.72C167.641 363.86 167.641 364.08 167.881 364.22L173.831 367.66C173.972 367.732 174.128 367.77 174.286 367.77C174.444 367.77 174.6 367.732 174.741 367.66H174.681ZM128.781 364.21L122.781 360.77C122.647 360.706 122.5 360.673 122.351 360.673C122.202 360.673 122.055 360.706 121.921 360.77L116.381 364C116.141 364.14 116.141 364.36 116.381 364.5L122.381 367.94C122.515 368.004 122.662 368.037 122.811 368.037C122.96 368.037 123.107 368.004 123.241 367.94L128.881 364.68C128.924 364.655 128.959 364.619 128.982 364.575C129.005 364.531 129.015 364.482 129.011 364.432C129.007 364.383 128.989 364.336 128.959 364.296C128.928 364.257 128.888 364.227 128.841 364.21H128.781ZM140.321 367.37L134.371 363.93C134.238 363.861 134.091 363.825 133.941 363.825C133.791 363.825 133.644 363.861 133.511 363.93L124.831 368.93C124.591 369.07 124.581 369.29 124.831 369.43L130.831 372.87C130.965 372.934 131.112 372.967 131.261 372.967C131.41 372.967 131.557 372.934 131.691 372.87L140.371 367.87C140.611 367.72 140.621 367.5 140.381 367.37H140.321ZM119.761 357.5L113.761 354.06C113.627 353.996 113.48 353.963 113.331 353.963C113.182 353.963 113.035 353.996 112.901 354.06L105.961 358.06C105.721 358.2 105.711 358.42 105.961 358.56L111.961 362C112.095 362.064 112.242 362.097 112.391 362.097C112.54 362.097 112.687 362.064 112.821 362L119.821 358C120.051 357.85 120.051 357.63 119.821 357.5H119.761ZM125.081 354.42C125.214 354.489 125.361 354.525 125.511 354.525C125.661 354.525 125.808 354.489 125.941 354.42L131.581 351.16C131.821 351.02 131.821 350.8 131.581 350.66L125.581 347.23C125.45 347.161 125.304 347.125 125.156 347.125C125.008 347.125 124.862 347.161 124.731 347.23L119.081 350.49C118.841 350.63 118.841 350.85 119.081 350.98L125.081 354.42ZM151.061 371L145.061 367.57C144.928 367.501 144.781 367.465 144.631 367.465C144.481 367.465 144.334 367.501 144.201 367.57L133.351 373.83C133.111 373.97 133.111 374.2 133.351 374.33L139.351 377.77C139.485 377.834 139.632 377.867 139.781 377.867C139.93 377.867 140.077 377.834 140.211 377.77L151.061 371.51C151.291 371.38 151.291 371.16 151.061 371ZM155.661 378.17L149.661 374.73C149.527 374.666 149.38 374.633 149.231 374.633C149.082 374.633 148.935 374.666 148.801 374.73L141.861 378.73C141.811 378.748 141.767 378.781 141.736 378.825C141.705 378.869 141.688 378.921 141.688 378.975C141.688 379.029 141.705 379.081 141.736 379.125C141.767 379.169 141.811 379.202 141.861 379.22L147.861 382.66C147.994 382.729 148.141 382.765 148.291 382.765C148.441 382.765 148.588 382.729 148.721 382.66L155.661 378.66C155.891 378.55 155.891 378.33 155.661 378.19V378.17ZM186.451 319C186.585 319.064 186.732 319.097 186.881 319.097C187.03 319.097 187.177 319.064 187.311 319L192.951 315.74C193.002 315.722 193.046 315.689 193.076 315.645C193.107 315.601 193.124 315.549 193.124 315.495C193.124 315.441 193.107 315.389 193.076 315.345C193.046 315.301 193.002 315.268 192.951 315.25L186.951 311.81C186.817 311.746 186.67 311.713 186.521 311.713C186.372 311.713 186.225 311.746 186.091 311.81L180.451 315.06C180.211 315.2 180.211 315.42 180.451 315.56L186.451 319ZM170.001 328.55C170.133 328.617 170.278 328.652 170.426 328.652C170.574 328.652 170.719 328.617 170.851 328.55L176.501 325.3C176.555 325.284 176.603 325.252 176.637 325.207C176.671 325.161 176.69 325.106 176.69 325.05C176.69 324.993 176.671 324.939 176.637 324.893C176.603 324.848 176.555 324.816 176.501 324.8L170.501 321.36C170.367 321.296 170.22 321.263 170.071 321.263C169.922 321.263 169.775 321.296 169.641 321.36L164.001 324.61C163.761 324.75 163.761 324.97 164.001 325.11L170.001 328.55ZM133.421 349.66C133.554 349.729 133.701 349.765 133.851 349.765C134.001 349.765 134.148 349.729 134.281 349.66L139.931 346.4C139.985 346.384 140.033 346.352 140.067 346.307C140.101 346.261 140.12 346.206 140.12 346.15C140.12 346.093 140.101 346.039 140.067 345.993C140.033 345.948 139.985 345.916 139.931 345.9L133.981 342.47C133.848 342.401 133.701 342.365 133.551 342.365C133.401 342.365 133.254 342.401 133.121 342.47L127.481 345.73C127.241 345.87 127.241 346.09 127.481 346.22L133.421 349.66ZM178.241 323.79C178.375 323.854 178.522 323.887 178.671 323.887C178.82 323.887 178.967 323.854 179.101 323.79L184.741 320.54C184.981 320.4 184.991 320.17 184.741 320.04L178.741 316.6C178.607 316.536 178.46 316.503 178.311 316.503C178.162 316.503 178.015 316.536 177.881 316.6L172.241 319.85C172.001 319.99 171.991 320.21 172.241 320.35L178.241 323.79ZM161.751 333.31C161.885 333.374 162.032 333.407 162.181 333.407C162.33 333.407 162.477 333.374 162.611 333.31L168.251 330.06C168.491 329.92 168.491 329.7 168.251 329.56L162.301 326.12C162.167 326.056 162.02 326.023 161.871 326.023C161.722 326.023 161.575 326.056 161.441 326.12L155.791 329.38C155.741 329.398 155.697 329.431 155.666 329.475C155.635 329.519 155.618 329.571 155.618 329.625C155.618 329.679 155.635 329.731 155.666 329.775C155.697 329.819 155.741 329.852 155.791 329.87L161.751 333.31ZM160.001 378.66C159.867 378.596 159.72 378.563 159.571 378.563C159.422 378.563 159.275 378.596 159.141 378.66L150.461 383.66C150.221 383.8 150.211 384.02 150.461 384.15L156.411 387.59C156.545 387.654 156.692 387.687 156.841 387.687C156.99 387.687 157.137 387.654 157.271 387.59L165.951 382.59C166.002 382.572 166.046 382.539 166.076 382.495C166.107 382.451 166.124 382.399 166.124 382.345C166.124 382.291 166.107 382.239 166.076 382.195C166.046 382.151 166.002 382.118 165.951 382.1L160.001 378.66ZM149.931 340.14C150.065 340.204 150.212 340.237 150.361 340.237C150.51 340.237 150.657 340.204 150.791 340.14L156.431 336.88C156.671 336.74 156.671 336.52 156.431 336.38L150.431 332.94C150.297 332.876 150.15 332.843 150.001 332.843C149.852 332.843 149.705 332.876 149.571 332.94L143.931 336.2C143.691 336.34 143.691 336.56 143.931 336.69L149.931 340.14ZM141.681 344.9C141.814 344.969 141.961 345.005 142.111 345.005C142.261 345.005 142.408 344.969 142.541 344.9L148.181 341.64C148.421 341.5 148.431 341.28 148.181 341.14L142.231 337.71C142.098 337.641 141.951 337.605 141.801 337.605C141.651 337.605 141.504 337.641 141.371 337.71L135.681 341C135.451 341.14 135.441 341.36 135.681 341.49L141.681 344.9ZM312.761 290.46C312.627 290.396 312.48 290.363 312.331 290.363C312.182 290.363 312.035 290.396 311.901 290.46L298.011 298.46C297.961 298.478 297.917 298.511 297.886 298.555C297.855 298.599 297.838 298.651 297.838 298.705C297.838 298.759 297.855 298.811 297.886 298.855C297.917 298.899 297.961 298.932 298.011 298.95L304.011 302.39C304.144 302.459 304.291 302.495 304.441 302.495C304.591 302.495 304.738 302.459 304.871 302.39L318.751 294.39C318.991 294.25 319.001 294.03 318.751 293.89L312.761 290.46ZM294.481 301C294.348 300.931 294.201 300.895 294.051 300.895C293.901 300.895 293.754 300.931 293.621 301L288.001 304.25C287.761 304.39 287.761 304.61 288.001 304.75L293.951 308.18C294.084 308.249 294.231 308.285 294.381 308.285C294.531 308.285 294.678 308.249 294.811 308.18L300.461 304.92C300.515 304.904 300.563 304.872 300.597 304.827C300.631 304.781 300.65 304.727 300.65 304.67C300.65 304.614 300.631 304.559 300.597 304.513C300.563 304.468 300.515 304.436 300.461 304.42L294.481 301ZM183.001 362.9L188.641 359.64C188.881 359.5 188.891 359.28 188.641 359.15L182.691 355.71C182.557 355.646 182.41 355.613 182.261 355.613C182.112 355.613 181.965 355.646 181.831 355.71L176.181 359C175.951 359.14 175.941 359.36 176.181 359.5L182.131 362.94C182.27 362.999 182.42 363.027 182.571 363.02C182.721 363.013 182.869 362.972 183.001 362.9ZM278.001 310.51C277.867 310.446 277.72 310.413 277.571 310.413C277.422 310.413 277.275 310.446 277.141 310.51L271.501 313.77C271.261 313.91 271.251 314.13 271.501 314.27L277.451 317.7C277.584 317.769 277.731 317.805 277.881 317.805C278.031 317.805 278.178 317.769 278.311 317.7L283.951 314.44C284.191 314.3 284.201 314.08 283.951 313.95L278.001 310.51ZM321.001 285.7C320.867 285.636 320.72 285.603 320.571 285.603C320.422 285.603 320.275 285.636 320.141 285.7L314.451 289C314.401 289.018 314.357 289.051 314.326 289.095C314.295 289.139 314.278 289.191 314.278 289.245C314.278 289.299 314.295 289.351 314.326 289.395C314.357 289.439 314.401 289.472 314.451 289.49L320.451 292.93C320.585 292.994 320.732 293.027 320.881 293.027C321.03 293.027 321.177 292.994 321.311 292.93L326.951 289.68C327.191 289.54 327.191 289.32 326.951 289.18L321.001 285.7ZM335.201 284.38L320.691 276C320.557 275.936 320.41 275.903 320.261 275.903C320.112 275.903 319.965 275.936 319.831 276L314.191 279.25C313.951 279.39 313.951 279.61 314.191 279.75L328.651 288.1C328.785 288.164 328.932 288.197 329.081 288.197C329.23 288.197 329.377 288.164 329.511 288.1L335.151 284.85C335.381 284.74 335.391 284.52 335.151 284.38H335.201ZM247.201 328.3C247.068 328.231 246.921 328.195 246.771 328.195C246.621 328.195 246.474 328.231 246.341 328.3L239.391 332.3C239.151 332.44 239.151 332.66 239.391 332.8L245.391 336.24C245.525 336.304 245.672 336.337 245.821 336.337C245.97 336.337 246.117 336.304 246.251 336.24L253.191 332.24C253.431 332.1 253.441 331.88 253.191 331.75L247.201 328.3ZM268.031 316.3C267.897 316.236 267.75 316.203 267.601 316.203C267.452 316.203 267.305 316.236 267.171 316.3L258.491 321.3C258.251 321.44 258.241 321.66 258.491 321.79L264.491 325.23C264.625 325.294 264.772 325.327 264.921 325.327C265.07 325.327 265.217 325.294 265.351 325.23L274.031 320.23C274.271 320.1 274.281 319.87 274.031 319.74L268.031 316.3ZM228.101 339.35C227.967 339.286 227.82 339.253 227.671 339.253C227.522 339.253 227.375 339.286 227.241 339.35L180.811 366.16C180.571 366.3 180.561 366.52 180.811 366.65L186.761 370.09C186.894 370.159 187.041 370.195 187.191 370.195C187.341 370.195 187.488 370.159 187.621 370.09L234.001 343.26C234.055 343.244 234.103 343.212 234.137 343.167C234.171 343.121 234.19 343.067 234.19 343.01C234.19 342.954 234.171 342.899 234.137 342.853C234.103 342.808 234.055 342.776 234.001 342.76L228.101 339.35ZM179.101 367.67C178.968 367.601 178.821 367.565 178.671 367.565C178.521 367.565 178.374 367.601 178.241 367.67L171.301 371.67C171.061 371.81 171.051 372.03 171.301 372.17L177.301 375.6C177.434 375.669 177.581 375.705 177.731 375.705C177.881 375.705 178.028 375.669 178.161 375.6L185.161 371.6C185.215 371.584 185.263 371.552 185.297 371.507C185.331 371.461 185.35 371.407 185.35 371.35C185.35 371.294 185.331 371.239 185.297 371.193C185.263 371.148 185.215 371.116 185.161 371.1L179.101 367.67ZM237.691 333.84C237.558 333.771 237.411 333.735 237.261 333.735C237.111 333.735 236.964 333.771 236.831 333.84L229.891 337.84C229.651 337.98 229.641 338.2 229.891 338.34L235.891 341.78C236.025 341.844 236.172 341.877 236.321 341.877C236.47 341.877 236.617 341.844 236.751 341.78L243.691 337.78C243.931 337.65 243.941 337.42 243.691 337.29L237.691 333.84ZM169.551 373.18C169.417 373.116 169.27 373.083 169.121 373.083C168.972 373.083 168.825 373.116 168.691 373.18L161.751 377.18C161.511 377.32 161.511 377.54 161.751 377.68L167.751 381.12C167.883 381.187 168.028 381.222 168.176 381.222C168.324 381.222 168.469 381.187 168.601 381.12L175.551 377.12C175.791 376.98 175.791 376.76 175.551 376.63L169.551 373.18ZM256.781 322.82C256.648 322.751 256.501 322.715 256.351 322.715C256.201 322.715 256.054 322.751 255.921 322.82L248.981 326.82C248.741 326.96 248.741 327.18 248.981 327.32L254.981 330.75C255.114 330.819 255.261 330.855 255.411 330.855C255.561 330.855 255.708 330.819 255.841 330.75L262.781 326.75C263.021 326.61 263.021 326.39 262.781 326.25L256.781 322.82ZM286.291 305.82C286.158 305.751 286.011 305.715 285.861 305.715C285.711 305.715 285.564 305.751 285.431 305.82L279.731 309C279.491 309.14 279.491 309.36 279.731 309.5L285.731 312.93C285.864 312.999 286.011 313.035 286.161 313.035C286.311 313.035 286.458 312.999 286.591 312.93L292.231 309.67C292.471 309.53 292.471 309.31 292.231 309.18L286.291 305.82ZM304.561 292.82L310.211 289.57C310.451 289.43 310.451 289.21 310.211 289.07L304.211 285.63C304.077 285.566 303.93 285.533 303.781 285.533C303.632 285.533 303.485 285.566 303.351 285.63L297.711 288.88C297.471 289.02 297.471 289.25 297.711 289.38L303.711 292.82C303.841 292.865 303.979 292.881 304.115 292.868C304.251 292.854 304.383 292.81 304.501 292.74L304.561 292.82ZM269.331 293.52L274.971 290.27C275.211 290.13 275.211 289.91 274.971 289.77L268.971 286.33C268.837 286.266 268.69 286.233 268.541 286.233C268.392 286.233 268.245 286.266 268.111 286.33L262.471 289.59C262.231 289.73 262.231 289.95 262.471 290.08L268.471 293.52C268.602 293.567 268.742 293.585 268.88 293.571C269.019 293.557 269.152 293.512 269.271 293.44L269.331 293.52ZM249.001 324.82L265.491 315.29C265.542 315.272 265.585 315.239 265.616 315.195C265.647 315.151 265.664 315.099 265.664 315.045C265.664 314.991 265.647 314.939 265.616 314.895C265.585 314.851 265.542 314.818 265.491 314.8L259.491 311.36C259.358 311.291 259.211 311.255 259.061 311.255C258.911 311.255 258.764 311.291 258.631 311.36L242.141 320.88C242.091 320.898 242.047 320.931 242.016 320.975C241.985 321.019 241.968 321.071 241.968 321.125C241.968 321.179 241.985 321.231 242.016 321.275C242.047 321.319 242.091 321.352 242.141 321.37L248.141 324.81C248.275 324.876 248.421 324.91 248.57 324.912C248.719 324.914 248.866 324.882 249.001 324.82ZM295.441 297.51C295.575 297.574 295.722 297.607 295.871 297.607C296.02 297.607 296.167 297.574 296.301 297.51L301.941 294.26C302.181 294.12 302.181 293.9 301.941 293.76L295.941 290.32C295.807 290.256 295.66 290.223 295.511 290.223C295.362 290.223 295.215 290.256 295.081 290.32L289.431 293.58C289.381 293.598 289.337 293.631 289.306 293.675C289.275 293.719 289.258 293.771 289.258 293.825C289.258 293.879 289.275 293.931 289.306 293.975C289.337 294.019 289.381 294.052 289.431 294.07L295.441 297.51ZM287.791 292.59L293.441 289.34C293.671 289.2 293.681 288.98 293.441 288.84L287.491 285.4C287.357 285.336 287.21 285.303 287.061 285.303C286.912 285.303 286.765 285.336 286.631 285.4L281.001 288.66C280.761 288.8 280.751 289.02 281.001 289.16L286.951 292.6C287.078 292.653 287.214 292.68 287.352 292.678C287.49 292.677 287.626 292.647 287.751 292.59H287.791ZM240.791 329.59L246.431 326.33C246.671 326.19 246.671 325.97 246.431 325.83L240.431 322.39C240.297 322.326 240.15 322.293 240.001 322.293C239.852 322.293 239.705 322.326 239.571 322.39L233.921 325.65C233.681 325.79 233.681 326.01 233.921 326.14L239.871 329.58C240.003 329.641 240.146 329.672 240.291 329.672C240.436 329.672 240.579 329.641 240.711 329.58L240.791 329.59ZM277.171 308C277.304 308.069 277.451 308.105 277.601 308.105C277.751 308.105 277.898 308.069 278.031 308L283.671 304.74C283.911 304.6 283.921 304.38 283.671 304.24L277.721 300.81C277.588 300.741 277.441 300.705 277.291 300.705C277.141 300.705 276.994 300.741 276.861 300.81L271.221 304.07C270.981 304.21 270.971 304.43 271.221 304.57L277.171 308ZM199.481 353.35L205.121 350.09C205.361 349.95 205.371 349.73 205.121 349.6L199.171 346.16C199.038 346.091 198.891 346.055 198.741 346.055C198.591 346.055 198.444 346.091 198.311 346.16L192.671 349.42C192.431 349.56 192.421 349.78 192.671 349.92L198.671 353.35C198.795 353.416 198.932 353.453 199.073 353.458C199.213 353.463 199.353 353.436 199.481 353.38V353.35ZM207.731 348.59L213.371 345.33C213.611 345.19 213.611 344.97 213.371 344.84L207.371 341.4C207.238 341.331 207.091 341.295 206.941 341.295C206.791 341.295 206.644 341.331 206.511 341.4L200.871 344.66C200.631 344.8 200.631 345.02 200.871 345.16L206.871 348.59C207.001 348.664 207.148 348.705 207.297 348.71C207.447 348.716 207.596 348.685 207.731 348.62V348.59ZM191.241 358.11L196.881 354.85C197.121 354.71 197.121 354.49 196.881 354.36L190.881 350.92C190.747 350.856 190.6 350.823 190.451 350.823C190.302 350.823 190.155 350.856 190.021 350.92L184.381 354.18C184.141 354.32 184.141 354.54 184.381 354.68L190.381 358.12C190.514 358.187 190.66 358.224 190.809 358.227C190.958 358.231 191.105 358.201 191.241 358.14V358.11ZM224.241 339.11L229.881 335.85C230.121 335.71 230.121 335.49 229.881 335.35L223.881 331.92C223.75 331.851 223.604 331.815 223.456 331.815C223.308 331.815 223.162 331.851 223.031 331.92L217.381 335.18C217.141 335.32 217.141 335.54 217.381 335.67L223.381 339.11C223.512 339.174 223.656 339.207 223.802 339.205C223.948 339.204 224.092 339.167 224.221 339.1L224.241 339.11ZM216.001 343.86L221.641 340.6C221.881 340.46 221.891 340.24 221.641 340.1L215.641 336.67C215.508 336.601 215.361 336.565 215.211 336.565C215.061 336.565 214.914 336.601 214.781 336.67L209.141 339.93C208.901 340.07 208.891 340.29 209.141 340.43L215.141 343.86C215.274 343.929 215.421 343.965 215.571 343.965C215.721 343.965 215.868 343.929 216.001 343.86ZM232.491 334.34L238.141 331.08C238.195 331.064 238.243 331.032 238.277 330.987C238.311 330.941 238.33 330.886 238.33 330.83C238.33 330.773 238.311 330.719 238.277 330.673C238.243 330.628 238.195 330.596 238.141 330.58L232.141 327.15C232.008 327.081 231.861 327.045 231.711 327.045C231.561 327.045 231.414 327.081 231.281 327.15L225.641 330.41C225.401 330.55 225.401 330.77 225.641 330.9L231.591 334.34C231.725 334.411 231.874 334.448 232.026 334.448C232.178 334.448 232.327 334.411 232.461 334.34H232.491ZM273.861 266C273.994 266.069 274.141 266.105 274.291 266.105C274.441 266.105 274.588 266.069 274.721 266L280.371 262.74C280.611 262.6 280.611 262.38 280.371 262.25L278.791 261.33C278.657 261.266 278.51 261.233 278.361 261.233C278.212 261.233 278.065 261.266 277.931 261.33L272.291 264.59C272.051 264.73 272.051 264.95 272.291 265.09L273.861 266ZM233.091 292.1C233.223 292.167 233.368 292.202 233.516 292.202C233.664 292.202 233.809 292.167 233.941 292.1L239.591 288.84C239.831 288.7 239.831 288.48 239.591 288.34L233.591 284.9C233.457 284.836 233.31 284.803 233.161 284.803C233.012 284.803 232.865 284.836 232.731 284.9L227.091 288.16C227.041 288.178 226.997 288.211 226.966 288.255C226.935 288.299 226.918 288.351 226.918 288.405C226.918 288.459 226.935 288.511 226.966 288.555C226.997 288.599 227.041 288.632 227.091 288.65L233.091 292.1ZM249.581 282.58C249.715 282.644 249.862 282.677 250.011 282.677C250.16 282.677 250.307 282.644 250.441 282.58L256.081 279.33C256.321 279.19 256.321 278.97 256.081 278.83L250.081 275.39C249.947 275.326 249.8 275.293 249.651 275.293C249.502 275.293 249.355 275.326 249.221 275.39L243.581 278.65C243.531 278.668 243.487 278.701 243.456 278.745C243.425 278.789 243.408 278.841 243.408 278.895C243.408 278.949 243.425 279.001 243.456 279.045C243.487 279.089 243.531 279.122 243.581 279.14L249.581 282.58ZM223.001 297.91C223.134 297.979 223.281 298.015 223.431 298.015C223.581 298.015 223.728 297.979 223.861 297.91L229.501 294.65C229.741 294.51 229.741 294.29 229.501 294.15L223.501 290.72C223.368 290.651 223.221 290.615 223.071 290.615C222.921 290.615 222.774 290.651 222.641 290.72L217.071 294C216.831 294.14 216.831 294.36 217.071 294.5L223.001 297.91ZM241.311 287.34C241.444 287.409 241.591 287.445 241.741 287.445C241.891 287.445 242.038 287.409 242.171 287.34L247.811 284.09C248.051 283.95 248.061 283.73 247.811 283.59L241.811 280.15C241.677 280.086 241.53 280.053 241.381 280.053C241.232 280.053 241.085 280.086 240.951 280.15L235.311 283.41C235.071 283.54 235.061 283.77 235.311 283.9L241.311 287.34ZM206.511 307.43C206.642 307.499 206.788 307.535 206.936 307.535C207.084 307.535 207.23 307.499 207.361 307.43L213.011 304.17C213.251 304.03 213.251 303.81 213.011 303.68L207.011 300.24C206.878 300.171 206.731 300.135 206.581 300.135C206.431 300.135 206.284 300.171 206.151 300.24L200.511 303.5C200.271 303.64 200.271 303.86 200.511 304L206.511 307.43ZM214.751 302.67C214.884 302.739 215.031 302.775 215.181 302.775C215.331 302.775 215.478 302.739 215.611 302.67L221.251 299.41C221.491 299.27 221.501 299.05 221.251 298.92L215.301 295.48C215.168 295.411 215.021 295.375 214.871 295.375C214.721 295.375 214.574 295.411 214.441 295.48L208.801 298.74C208.561 298.88 208.551 299.1 208.801 299.24L214.751 302.67ZM257.351 275.55C257.484 275.619 257.631 275.655 257.781 275.655C257.931 275.655 258.078 275.619 258.211 275.55L263.861 272.29C264.091 272.15 264.101 271.93 263.861 271.8L262.281 270.88C262.147 270.816 262 270.783 261.851 270.783C261.702 270.783 261.555 270.816 261.421 270.88L255.781 274.13C255.541 274.27 255.531 274.49 255.781 274.63L257.351 275.55ZM282.091 261.27C282.224 261.339 282.371 261.375 282.521 261.375C282.671 261.375 282.818 261.339 282.951 261.27L288.591 258.01C288.831 257.87 288.841 257.65 288.591 257.51L287.001 256.6C286.867 256.536 286.72 256.503 286.571 256.503C286.422 256.503 286.275 256.536 286.141 256.6L280.491 259.86C280.437 259.876 280.389 259.908 280.355 259.953C280.321 259.999 280.303 260.053 280.303 260.11C280.303 260.166 280.321 260.221 280.355 260.267C280.389 260.312 280.437 260.344 280.491 260.36L282.091 261.27ZM294.601 268.49C294.734 268.559 294.881 268.595 295.031 268.595C295.181 268.595 295.328 268.559 295.461 268.49L301.101 265.23C301.341 265.09 301.341 264.87 301.101 264.74L295.101 261.3C294.97 261.231 294.824 261.195 294.676 261.195C294.528 261.195 294.382 261.231 294.251 261.3L288.601 264.56C288.361 264.7 288.361 264.92 288.601 265.06L294.601 268.49ZM312.751 288L318.391 284.75C318.631 284.61 318.641 284.39 318.391 284.25L312.441 280.81C312.307 280.746 312.16 280.713 312.011 280.713C311.862 280.713 311.715 280.746 311.581 280.81L306.001 284.05C305.761 284.19 305.751 284.41 306.001 284.55L311.951 287.99C312.077 288.047 312.212 288.077 312.35 288.078C312.488 288.08 312.624 288.053 312.751 288ZM265.621 270.81C265.754 270.879 265.901 270.915 266.051 270.915C266.201 270.915 266.348 270.879 266.481 270.81L272.121 267.55C272.361 267.41 272.361 267.19 272.121 267.06L270.531 266.14C270.398 266.071 270.251 266.035 270.101 266.035C269.951 266.035 269.804 266.071 269.671 266.14L264.001 269.38C263.761 269.52 263.761 269.74 264.001 269.88L265.621 270.81ZM198.281 312.21C198.414 312.279 198.561 312.315 198.711 312.315C198.861 312.315 199.008 312.279 199.141 312.21L204.781 308.95C205.021 308.81 205.021 308.59 204.781 308.46L198.841 305C198.707 304.936 198.56 304.903 198.411 304.903C198.262 304.903 198.115 304.936 197.981 305L192.331 308.26C192.101 308.4 192.091 308.62 192.331 308.76L198.281 312.21Z" fill="#CFD8DC"/>
<path d="M228.481 360.67L279.301 331.33C280.159 330.896 281.108 330.67 282.071 330.67C283.033 330.67 283.982 330.896 284.841 331.33L314.001 348.15C315.531 349.04 315.531 350.47 314.001 351.36L263.191 380.69C262.331 381.129 261.38 381.358 260.416 381.358C259.451 381.358 258.5 381.129 257.641 380.69L228.501 363.87C227.001 363 227.001 361.55 228.481 360.67Z" fill="#90A4AE"/>
<path d="M219.88 138.24C204 152.51 190.28 151.76 181.7 145.15C173.13 161.67 159.41 178.25 143.53 182.32L134.46 206.82C134.46 206.82 139.32 212.42 139.32 225.82C139.272 231.436 138.516 237.023 137.07 242.45C135.42 249.06 133.29 255.9 133.29 267.33C133.29 275.07 134.29 282.6 138.23 289.45C140.608 293.595 144.032 297.043 148.16 299.45L134.37 291.45C130.021 289.045 126.409 285.501 123.92 281.2C120 274.34 119 266.82 119 259.07C119 247.65 121.13 240.8 122.78 234.18C124.218 228.756 124.964 223.171 125 217.56C125 204.16 120.14 198.56 120.14 198.56L129.2 174.06C145.08 169.99 158.8 153.41 167.37 136.89C175.95 143.5 189.67 144.25 205.55 129.98L219.88 138.24Z" fill="#15CDF2"/>
<path opacity="0.8" d="M172.42 139.8L167.42 136.89C168.951 138.076 170.632 139.054 172.42 139.8Z" fill="white"/>
<path opacity="0.85" d="M205.57 130C192.5 141.74 180.9 143.31 172.42 139.82L181.7 145.17C190.28 151.78 204 152.53 219.88 138.26L205.57 130Z" fill="white"/>
<path opacity="0.65" d="M167.391 136.89C158.821 153.41 145.101 169.99 129.221 174.06L143.531 182.32C159.411 178.25 173.131 161.67 181.701 145.15L167.391 136.89Z" fill="white"/>
<path opacity="0.55" d="M129.22 174.06L120.16 198.56L134.46 206.82L143.53 182.32L129.22 174.06Z" fill="white"/>
<path opacity="0.4" d="M138.23 289.45C134.31 282.6 133.29 275.07 133.29 267.33C133.29 255.9 135.42 249.06 137.07 242.45C138.517 237.023 139.273 231.436 139.32 225.82C139.32 212.42 134.46 206.82 134.46 206.82L120.16 198.56C120.16 198.56 125.02 204.16 125.02 217.56C124.971 223.173 124.212 228.758 122.76 234.18C121.11 240.8 118.98 247.65 118.98 259.07C118.98 266.82 119.98 274.34 123.92 281.19C126.409 285.491 130.022 289.035 134.37 291.44L148.16 299.44C144.034 297.036 140.61 293.591 138.23 289.45Z" fill="white"/>
<path opacity="0.05" d="M138.23 289.45C134.31 282.6 133.29 275.07 133.29 267.33C133.29 255.9 135.42 249.06 137.07 242.45C138.517 237.023 139.273 231.436 139.32 225.82C139.32 212.42 134.46 206.82 134.46 206.82L120.16 198.56C120.16 198.56 125.02 204.16 125.02 217.56C124.971 223.173 124.212 228.758 122.76 234.18C121.11 240.8 118.98 247.65 118.98 259.07C118.98 266.82 119.98 274.34 123.92 281.19C126.409 285.491 130.022 289.035 134.37 291.44L148.16 299.44C144.034 297.036 140.61 293.591 138.23 289.45Z" fill="white"/>
<path d="M181.701 306.23C157.981 306.5 144.391 300.23 138.221 289.45C134.311 282.6 133.291 275.07 133.291 267.32C133.291 255.9 135.411 249.07 137.071 242.45C138.517 237.027 139.273 231.443 139.321 225.83C139.321 212.43 134.461 206.83 134.461 206.83L143.531 182.32C159.411 178.25 173.131 161.66 181.701 145.15C190.281 151.76 204.001 152.51 219.881 138.24L228.951 152.24C225.834 160.076 224.184 168.418 224.081 176.85C223.997 181.614 224.762 186.355 226.341 190.85C227.991 195.55 230.121 199.94 230.121 211.36C230.095 220.852 228.424 230.269 225.181 239.19C219.001 257.15 205.431 279.1 181.701 306.23Z" fill="#15CDF2"/>
<path opacity="0.75" d="M181.701 306.23C157.981 306.5 144.391 300.23 138.221 289.45C134.311 282.6 133.291 275.07 133.291 267.32C133.291 255.9 135.411 249.07 137.071 242.45C138.517 237.027 139.273 231.443 139.321 225.83C139.321 212.43 134.461 206.83 134.461 206.83L143.531 182.32C159.411 178.25 173.131 161.66 181.701 145.15C190.281 151.76 204.001 152.51 219.881 138.24L228.951 152.24C225.834 160.076 224.184 168.418 224.081 176.85C223.997 181.614 224.762 186.355 226.341 190.85C227.991 195.55 230.121 199.94 230.121 211.36C230.095 220.852 228.424 230.269 225.181 239.19C219.001 257.15 205.431 279.1 181.701 306.23Z" fill="white"/>
<path d="M178.891 300.07C160.521 299.85 148.641 295.25 143.581 286.4C140.721 281.4 139.451 275.52 139.451 267.32C139.45 260.17 140.46 253.057 142.451 246.19C142.641 245.43 142.841 244.69 143.021 243.94C144.602 238.032 145.422 231.946 145.461 225.83C145.461 216.06 143.121 209.67 141.261 206.13L148.261 187.33C165.261 181.42 177.551 164.63 184.061 153.62C187.568 155.111 191.341 155.873 195.151 155.86C202.831 155.86 210.641 153 218.441 147.35L222.091 153.01C219.433 160.695 218.028 168.758 217.931 176.89C217.842 182.358 218.723 187.799 220.531 192.96C220.721 193.5 220.921 194.04 221.121 194.58C222.581 198.58 223.961 202.35 223.961 211.42C223.928 220.227 222.371 228.963 219.361 237.24C213.291 254.86 199.681 276 178.891 300.07Z" fill="#15CDF2"/>
<path opacity="0.4" d="M178.891 300.07C160.521 299.85 148.641 295.25 143.581 286.4C140.721 281.4 139.451 275.52 139.451 267.32C139.45 260.17 140.46 253.057 142.451 246.19C142.641 245.43 142.841 244.69 143.021 243.94C144.602 238.032 145.422 231.946 145.461 225.83C145.461 216.06 143.121 209.67 141.261 206.13L148.261 187.33C165.261 181.42 177.551 164.63 184.061 153.62C187.568 155.111 191.341 155.873 195.151 155.86C202.831 155.86 210.641 153 218.441 147.35L222.091 153.01C219.433 160.695 218.028 168.758 217.931 176.89C217.842 182.358 218.723 187.799 220.531 192.96C220.721 193.5 220.921 194.04 221.121 194.58C222.581 198.58 223.961 202.35 223.961 211.42C223.928 220.227 222.371 228.963 219.361 237.24C213.291 254.86 199.681 276 178.891 300.07Z" fill="white"/>
<path opacity="0.15" d="M178.891 300.07C160.521 299.85 148.641 295.25 143.581 286.4C140.721 281.4 139.451 275.52 139.451 267.32C139.45 260.17 140.46 253.057 142.451 246.19C142.641 245.43 142.841 244.69 143.021 243.94C144.602 238.032 145.422 231.946 145.461 225.83C145.461 216.06 143.121 209.67 141.261 206.13L148.261 187.33C165.261 181.42 177.551 164.63 184.061 153.62C187.568 155.111 191.341 155.873 195.151 155.86C202.831 155.86 210.641 153 218.441 147.35L222.091 153.01C219.433 160.695 218.028 168.758 217.931 176.89C217.842 182.358 218.723 187.799 220.531 192.96C220.721 193.5 220.921 194.04 221.121 194.58C222.581 198.58 223.961 202.35 223.961 211.42C223.928 220.227 222.371 228.963 219.361 237.24C213.291 254.86 199.681 276 178.891 300.07Z" fill="white"/>
<path opacity="0.8" d="M147.791 291.49C154.051 297.01 164.451 299.9 178.891 300.07L169.681 294.82C162.251 294.921 154.855 293.796 147.791 291.49Z" fill="white"/>
<path opacity="0.15" d="M217.28 150.24L222.08 153.01L218.43 147.35L216.34 148.79L217.28 150.24Z" fill="white"/>
<path d="M215.721 190.19C213.913 185.029 213.033 179.588 213.121 174.12C213.219 165.988 214.623 157.925 217.281 150.24L216.341 148.79C209.241 153.48 202.141 155.86 195.141 155.86C191.331 155.873 187.558 155.111 184.051 153.62C177.541 164.62 165.251 181.42 148.251 187.33L141.251 206.13C143.111 209.67 145.451 216.06 145.451 225.83C145.412 231.946 144.592 238.032 143.011 243.94C142.831 244.69 142.631 245.43 142.441 246.19C140.451 253.057 139.441 260.17 139.441 267.32C139.441 275.52 140.711 281.4 143.571 286.4C145.077 288.975 147.125 291.193 149.571 292.9C155.711 295.7 163.891 297.167 174.111 297.3C194.891 273.22 208.501 252.09 214.571 234.47C217.583 226.193 219.139 217.458 219.171 208.65C219.171 199.58 217.781 195.81 216.321 191.81C216.111 191.27 215.911 190.73 215.721 190.19Z" fill="#CFD8DC"/>
<path d="M148.251 187.33L141.251 206.13C143.111 209.67 145.451 216.06 145.451 225.83C145.412 231.946 144.592 238.032 143.011 243.94C142.831 244.69 142.631 245.43 142.441 246.19C140.451 253.057 139.441 260.17 139.441 267.32C139.441 275.52 140.711 281.4 143.571 286.4C145.077 288.975 147.125 291.193 149.571 292.9C155.711 295.7 163.891 297.167 174.111 297.3V228L184.111 225V153.62C181.159 158.623 177.816 163.385 174.111 167.86C167.441 175.89 158.741 183.68 148.251 187.33Z" fill="#B0BEC5"/>
<path d="M198.121 202.42C198.014 202.224 197.887 202.04 197.741 201.87L197.691 201.81C197.399 201.492 197.062 201.22 196.691 201L193.361 199.08C192.76 198.743 192.113 198.494 191.441 198.34C191.039 198.252 190.631 198.188 190.221 198.15V188.29C190.221 183.34 188.351 179.43 185.091 177.55C181.831 175.67 178.091 175.99 174.261 178.23C167.141 182.34 161.571 192.37 161.571 201.06V212.7L154.931 216.53C154.734 216.644 154.546 216.774 154.371 216.92L154.191 217.06C153.92 217.277 153.698 217.551 153.541 217.861C153.384 218.172 153.295 218.512 153.281 218.86V258.79C153.285 258.962 153.308 259.133 153.351 259.3C153.561 259.972 154.004 260.547 154.601 260.92L154.971 261.16L156.601 262.1L158.311 263.1C158.979 263.469 159.701 263.729 160.451 263.87C162.497 264.322 164.637 264.046 166.501 263.09L196.731 245.64C197.199 245.433 197.602 245.105 197.901 244.69C198.2 244.276 198.383 243.789 198.431 243.28V203.37C198.407 203.033 198.301 202.706 198.121 202.42ZM168.071 201.06C168.071 194.7 172.391 186.84 177.501 183.89C179.241 182.89 180.801 182.63 181.791 183.21C182.961 183.88 183.651 185.78 183.651 188.29V199.93L175.061 204.93L168.061 208.93L168.071 201.06Z" fill="#90A4AE"/>
<path d="M201.88 205.13C201.833 204.621 201.65 204.134 201.352 203.719C201.053 203.304 200.648 202.976 200.18 202.77L196.85 200.84C195.583 200.192 194.179 199.854 192.755 199.854C191.332 199.854 189.928 200.192 188.66 200.84L158.43 218.29C157.962 218.499 157.558 218.828 157.26 219.245C156.961 219.661 156.778 220.15 156.73 220.66V260.59C156.775 261.101 156.957 261.591 157.256 262.008C157.555 262.425 157.961 262.754 158.43 262.96L161.76 264.89C163.03 265.531 164.433 265.865 165.855 265.865C167.278 265.865 168.681 265.531 169.95 264.89L200.18 247.43C200.648 247.223 201.052 246.895 201.35 246.48C201.649 246.066 201.832 245.579 201.88 245.07V205.13Z" fill="#15CDF2"/>
<path opacity="0.4" d="M161.761 225L158.431 223C156.161 221.7 156.161 219.58 158.431 218.27L188.661 200.82C189.929 200.172 191.332 199.834 192.756 199.834C194.18 199.834 195.583 200.172 196.851 200.82L200.181 202.75C202.441 204.05 202.441 206.17 200.181 207.47L170.001 225C168.725 225.649 167.313 225.987 165.881 225.987C164.449 225.987 163.037 225.649 161.761 225Z" fill="white"/>
<path opacity="0.1" d="M165.86 225.93V265.86C164.431 265.881 163.02 265.537 161.76 264.86L158.42 263C157.95 262.792 157.545 262.462 157.248 262.043C156.95 261.624 156.771 261.132 156.73 260.62V220.66C156.776 221.168 156.957 221.655 157.254 222.07C157.551 222.485 157.954 222.813 158.42 223.02L161.76 224.95C163.02 225.624 164.432 225.962 165.86 225.93Z" fill="white"/>
<path d="M187.862 245.68L180.642 249.85L181.762 236.79C180.902 236.33 180.352 235.21 180.352 233.6C180.352 230.72 182.092 227.38 184.252 226.14C186.412 224.9 188.152 226.21 188.152 229.14C188.107 230.842 187.621 232.503 186.742 233.96L187.862 245.68Z" fill="#CFD8DC"/>
<path d="M187.861 245.68L181.321 241.91L180.641 249.85L187.861 245.68Z" fill="#B0BEC5"/>
<path d="M184.252 226.14C182.68 227.201 181.508 228.756 180.922 230.56L186.742 233.92C187.622 232.463 188.108 230.802 188.152 229.1C188.152 226.21 186.412 224.89 184.252 226.14Z" fill="#B0BEC5"/>
<path d="M193.711 206V190C193.711 185 191.841 181.14 188.581 179.26C185.321 177.38 181.581 177.71 177.751 179.94C170.631 184.05 165.061 194.08 165.061 202.77V218.82C165.09 219.113 165.198 219.393 165.374 219.629C165.551 219.865 165.788 220.049 166.061 220.16C166.776 220.52 167.565 220.707 168.366 220.707C169.166 220.707 169.955 220.52 170.671 220.16C170.943 220.049 171.181 219.865 171.357 219.629C171.533 219.393 171.641 219.113 171.671 218.82V202.82C171.671 196.46 175.991 188.6 181.101 185.65C182.841 184.65 184.411 184.4 185.401 184.97C186.561 185.64 187.261 187.54 187.261 190.05V206.05C187.292 206.34 187.402 206.616 187.578 206.848C187.754 207.081 187.99 207.261 188.261 207.37C188.976 207.73 189.765 207.917 190.566 207.917C191.366 207.917 192.155 207.73 192.871 207.37C193.139 207.258 193.373 207.076 193.548 206.845C193.724 206.613 193.835 206.339 193.871 206.05L193.711 206Z" fill="white"/>
<path d="M232.57 276.21L236.97 273.67L238.71 271.55L234.31 274.09L232.57 276.21Z" fill="#15CDF2"/>
<path opacity="0.4" d="M232.57 276.21L236.97 273.67L238.71 271.55L234.31 274.09L232.57 276.21Z" fill="white"/>
<path d="M244.541 283.12L248.941 280.58L252.621 277.32L248.221 279.86L244.541 283.12Z" fill="#15CDF2"/>
<path opacity="0.4" d="M244.541 283.12L248.941 280.58L252.621 277.32L248.221 279.86L244.541 283.12Z" fill="white"/>
<path d="M282 291.9C283.042 293.296 283.672 294.955 283.82 296.69C282.787 295.29 282.158 293.633 282 291.9ZM292.23 292.03C290.75 281.95 285.34 272.03 278.88 268.25C275.78 266.46 272.88 266.4 270.62 267.74L266.48 270.13L266.24 270.27C266.056 270.37 265.878 270.484 265.71 270.61C265.356 270.842 265.022 271.103 264.71 271.39L264.57 271.52C264.44 271.65 264.31 271.8 264.19 271.94C264.07 272.08 263.88 272.3 263.75 272.48C263.452 272.874 263.181 273.288 262.94 273.72C262.82 273.94 262.69 274.17 262.58 274.41L226.39 253.52L221.99 256.05V258.86L222.37 259.07L222.72 259.28V259.87L221.99 260.29V261.92L227.31 273.17L232.57 276.17L234.31 274.05L238.95 276.83L241.61 281.39L244.55 283.08L248.22 279.82L252.73 282.43L254.25 288.68L261.81 293.05C262.194 294.643 262.672 296.213 263.24 297.75L263.41 298.24C265.93 304.84 269.93 310.5 274.41 313.11C274.956 313.423 275.524 313.694 276.11 313.92C276.421 314.043 276.738 314.15 277.06 314.24C277.337 314.318 277.617 314.381 277.9 314.43C278.786 314.595 279.695 314.595 280.58 314.43L280.95 314.34C281.125 314.31 281.297 314.26 281.46 314.19L281.85 314.04C281.991 313.987 282.129 313.924 282.26 313.85L282.63 313.66L282.82 313.55L282.91 313.5L287.06 311.11C290.4 309.17 292.57 304.27 292.57 297.34C292.574 295.553 292.443 293.768 292.18 292L292.23 292.03Z" fill="#15CDF2"/>
<path d="M280.66 300.4C278.93 299.4 277.52 296.4 277.52 293.75C277.52 291.1 278.93 289.75 280.66 290.75C282.39 291.75 283.81 294.75 283.81 297.41C283.81 300.07 282.4 301.4 280.66 300.4ZM287.79 294.57C286.31 284.49 280.89 274.52 274.43 270.79C271.43 269.07 268.68 268.94 266.43 270.13L266.19 270.27C266.005 270.37 265.828 270.484 265.66 270.61C265.306 270.842 264.971 271.103 264.66 271.39L264.52 271.52C264.39 271.65 264.26 271.8 264.14 271.94C264.02 272.08 263.83 272.3 263.7 272.48C263.401 272.874 263.131 273.288 262.89 273.72C262.77 273.94 262.64 274.17 262.53 274.41C261.881 275.77 261.41 277.209 261.13 278.69L222 256.05V258.86L222.38 259.07L222.73 259.28V259.87L222 260.29V261.92L227.32 273.17L232.58 276.17L234.32 274.05L238.96 276.83L241.62 281.39L244.56 283.08L248.23 279.82L252.74 282.43L254.26 288.68L261.82 293.05C262.204 294.643 262.682 296.213 263.25 297.75L263.42 298.24C265.94 304.84 269.94 310.5 274.42 313.11C274.965 313.423 275.534 313.694 276.12 313.92C276.431 314.043 276.748 314.15 277.07 314.24C277.347 314.318 277.627 314.381 277.91 314.43C278.796 314.595 279.704 314.595 280.59 314.43L280.96 314.34C281.135 314.31 281.306 314.26 281.47 314.19L281.86 314.04C282.001 313.987 282.138 313.924 282.27 313.85L282.64 313.66L282.83 313.55L282.92 313.5C286.12 311.5 288.18 306.65 288.18 299.88C288.177 298.103 288.047 296.328 287.79 294.57Z" fill="#15CDF2"/>
<path opacity="0.4" d="M283.81 297.37C283.81 300.05 282.4 301.37 280.67 300.37C278.94 299.37 277.52 296.37 277.52 293.72C277.52 291.07 278.93 289.72 280.67 290.72C281.186 291.022 281.638 291.423 282 291.9C282.152 293.634 282.782 295.292 283.82 296.69C283.831 296.917 283.828 297.144 283.81 297.37Z" fill="white"/>
<path opacity="0.4" d="M292.59 297.37C292.59 304.3 290.42 309.2 287.08 311.14L282.93 313.53C286.13 311.53 288.19 306.68 288.19 299.91C288.185 298.123 288.051 296.338 287.79 294.57C286.31 284.49 280.89 274.52 274.43 270.79C271.43 269.07 268.68 268.94 266.43 270.13L270.57 267.74C272.87 266.4 275.73 266.46 278.83 268.25C285.29 272 290.7 282 292.18 292C292.451 293.777 292.588 295.572 292.59 297.37Z" fill="white"/>
<path d="M288.19 299.91C288.19 306.68 286.13 311.51 282.93 313.53L287.08 311.14C290.42 309.2 292.59 304.3 292.59 297.37C292.59 297.11 292.59 296.85 292.59 296.6L288.2 299.14C288.18 299.39 288.19 299.65 288.19 299.91Z" fill="#15CDF2"/>
<path opacity="0.1" d="M288.19 299.91C288.19 306.68 286.13 311.51 282.93 313.53L287.08 311.14C290.42 309.2 292.59 304.3 292.59 297.37C292.59 297.11 292.59 296.85 292.59 296.6L288.2 299.14C288.18 299.39 288.19 299.65 288.19 299.91Z" fill="white"/>
<path opacity="0.15" d="M261.34 281.57V283L221.99 260.29L222.72 259.87V259.27L261.34 281.57Z" fill="white"/>
<path opacity="0.15" d="M261.34 282.17V283L221.99 260.29L222.72 259.87V259.86L261.34 282.17Z" fill="white"/>
<path opacity="0.15" d="M278.459 311.18C276.969 311.139 275.517 310.704 274.249 309.92C267.829 306.21 262.609 295.19 262.609 285.35C262.609 279.61 264.349 275.35 267.379 273.57C269.499 272.35 271.999 272.5 274.619 274.01C281.029 277.72 286.249 288.74 286.249 298.58C286.249 304.32 284.509 308.58 281.479 310.36C280.565 310.9 279.521 311.183 278.459 311.18ZM270.459 273.49C269.526 273.488 268.608 273.733 267.799 274.2C265.039 275.79 263.399 279.96 263.399 285.35C263.399 294.96 268.399 305.69 274.669 309.28C277.049 310.66 279.289 310.81 281.169 309.73C283.929 308.14 285.569 303.97 285.569 298.58C285.569 288.97 280.569 278.23 274.299 274.65C273.129 273.924 271.786 273.524 270.409 273.49H270.459Z" fill="white"/>
<path opacity="0.5" d="M262.58 274.41C261.931 275.77 261.46 277.209 261.18 278.69L222 256.05L226.4 253.52L262.58 274.41Z" fill="white"/>
<path d="M412 385C412.15 386.37 412.34 390.21 419.3 391.17C426.26 392.13 430.64 389.82 432.5 386.47C434.36 383.12 433.93 380.39 434.22 377.29C434.51 374.19 437.08 372.54 437.82 370.94C438.9 368.59 437.32 364.94 437.32 364.94L412 385Z" fill="#90A4AE"/>
<path d="M361.171 374.14C361.008 374.701 360.963 375.289 361.041 375.868C361.118 376.446 361.316 377.002 361.621 377.5C363.179 378.733 364.973 379.634 366.892 380.15C368.811 380.666 370.815 380.785 372.781 380.5C377.028 379.921 381.074 378.334 384.581 375.87C387.271 374.069 390.455 373.15 393.691 373.24C397.041 373.13 399.491 372.39 399.751 371.51C400.191 369.96 400.191 368.99 399.461 369.03L361.171 374.14Z" fill="#90A4AE"/>
<path d="M435.661 359.58C434.791 365.93 422.481 365.42 423.481 360.35L421.291 344.94L435.221 345.37L435.661 359.58Z" fill="#FFBE9D"/>
<path d="M412.461 381.88C413.081 380.73 414.871 379.09 415.661 378.06C419.834 372.747 422.352 366.324 422.901 359.59C422.901 359.22 422.971 358.5 423.351 358.27C423.731 358.04 424.101 358.36 424.501 358.54C425.19 358.832 425.918 359.02 426.661 359.1C429.121 359.38 431.851 358.79 432.461 358.87C433.071 358.95 433.091 360.42 433.051 362.02C433.931 361.47 434.221 360.37 435.001 359.73C435.431 359.38 435.621 359.37 435.611 358.8C435.611 358.43 435.611 358.09 435.611 357.72C436.251 357.54 436.781 359.96 437.301 361.81C437.901 363.96 438.651 366.38 437.811 368.56C437.266 369.748 436.596 370.874 435.811 371.92C434.482 373.737 433.617 375.852 433.291 378.08C433.191 379.08 433.291 380.08 433.131 381.02C432.901 382.655 432.207 384.19 431.131 385.443C430.055 386.696 428.643 387.615 427.061 388.09C422.811 389.41 416.441 389.2 412.701 386.24C411.401 385.21 411.841 383 412.461 381.88Z" fill="#B0BEC5"/>
<path d="M396.621 358.52C393.241 361.14 389.181 362.68 385.031 360.79L384.031 334.86L398.031 337.37L396.621 358.52Z" fill="#FFBE9D"/>
<path d="M364.001 369.66C364.931 369.36 365.841 369.03 366.741 368.66C369.255 367.636 371.683 366.412 374.001 365C375.001 364.38 376.001 363.73 377.001 363C378.001 362.27 379.001 361.48 380.001 360.68C380.521 360.223 380.994 359.713 381.411 359.16C382.253 358.128 382.958 356.992 383.511 355.78C383.594 355.494 383.779 355.249 384.031 355.09C384.2 355.031 384.382 355.018 384.558 355.053C384.734 355.088 384.897 355.17 385.031 355.29C385.271 355.486 385.529 355.66 385.801 355.81L386.621 356.15C387.496 356.508 388.419 356.733 389.361 356.82C392.901 357.13 393.011 356.42 393.161 357.56C393.194 357.986 393.194 358.414 393.161 358.84C395.031 358.53 396.501 357.93 396.581 357.22L396.801 354.96C398.661 354.79 398.801 358.12 399.401 361.86C399.891 364.86 400.621 367.07 399.781 369.3C396.971 371.75 392.011 371.16 389.191 371.62C385.191 372.28 383.321 375.24 377.771 377.16C368.771 380.26 363.161 376.69 361.481 375.16C360.391 373.23 360.171 370.88 364.001 369.66Z" fill="#B0BEC5"/>
<path d="M431.731 205.18C432.441 216.18 433.731 232.29 434.181 245C435.021 268.88 434.691 296.11 434.691 296.11C436.027 301.118 436.888 306.241 437.261 311.41C437.831 326.67 437.731 360.93 437.731 360.93C437.731 360.93 431.401 367.3 421.941 362.3C421.941 362.3 413.551 314.3 411.211 299.22C408.971 284.87 404.601 256.22 404.601 256.22L402.601 296.94C404.119 303.338 404.622 309.935 404.091 316.49C403.581 323.49 399.591 358 399.591 358C395.951 361.41 385.351 359.55 383.031 356.84C383.031 356.84 379.321 305.84 378.901 298.46C378.011 282.53 375.641 223.12 376.831 213.9C378.021 204.68 431.731 205.18 431.731 205.18Z" fill="#90A4AE"/>
<path d="M404.601 256.18L401.821 237.8C401.821 237.8 394.191 236.36 388.611 232.22C388.611 232.22 390.781 237.13 399.221 240.63L402.001 257.75L402.661 296.9L404.601 256.18Z" fill="white"/>
<path d="M420.19 131.43C420.7 133.5 424.19 133.18 425.75 132.79C426.675 132.596 427.497 132.069 428.061 131.31C428.625 130.551 428.891 129.612 428.81 128.67C429.599 128.459 430.311 128.025 430.86 127.42C431.229 126.932 431.44 126.343 431.465 125.732C431.49 125.121 431.328 124.516 431 124C431.633 123.549 432.13 122.933 432.437 122.219C432.744 121.505 432.849 120.72 432.74 119.95C432.526 118.836 431.915 117.837 431.02 117.14C430.154 116.439 429.074 116.054 427.96 116.05C427.6 116.05 427.24 116.77 427.76 116.83C428.57 116.987 429.333 117.329 429.99 117.83C430.673 118.308 431.201 118.975 431.51 119.75C431.702 120.365 431.701 121.024 431.508 121.639C431.315 122.254 430.939 122.795 430.43 123.19C430.247 122.961 430.043 122.75 429.82 122.56C429.124 121.938 428.212 121.615 427.28 121.66C426.935 121.652 426.595 121.741 426.3 121.918C426.004 122.095 425.765 122.352 425.61 122.66C425.37 123.44 426.18 124.1 426.78 124.44C427.215 124.686 427.698 124.837 428.197 124.882C428.695 124.926 429.197 124.865 429.67 124.7C429.748 124.674 429.825 124.644 429.9 124.61C429.952 124.714 429.999 124.821 430.04 124.93C430.58 126.36 429.71 127.25 428.54 127.65C427.83 126.18 425.91 125.11 424.37 125.88C424.174 125.965 424.003 126.098 423.871 126.265C423.74 126.433 423.651 126.631 423.615 126.841C423.578 127.051 423.594 127.266 423.661 127.469C423.728 127.671 423.845 127.854 424 128C424.64 128.605 425.488 128.942 426.37 128.94C426.772 128.97 427.177 128.97 427.58 128.94C427.669 129.581 427.519 130.232 427.16 130.77C426.797 131.18 426.348 131.504 425.845 131.719C425.341 131.933 424.796 132.033 424.25 132.01C423.008 132.11 421.776 131.718 420.82 130.92C420.53 130.67 420.11 131.12 420.19 131.43ZM429.32 123.75C428.994 123.843 428.652 123.862 428.319 123.806C427.985 123.751 427.668 123.623 427.39 123.43C426.97 123.15 426.5 122.74 427.25 122.69C427.653 122.695 428.05 122.793 428.409 122.977C428.768 123.161 429.08 123.425 429.32 123.75ZM427.23 127.9C426.806 127.918 426.382 127.877 425.97 127.78C425.67 127.71 424.36 127.04 425.03 126.78C425.54 126.55 426.44 127.06 426.8 127.38C426.965 127.534 427.11 127.708 427.23 127.9Z" fill="#90A4AE"/>
<path d="M422.621 92.75C422.84 92.781 423.057 92.8244 423.271 92.88C423.118 92.2201 423.193 91.5279 423.484 90.9161C423.774 90.3042 424.263 89.8086 424.871 89.51C425.648 89.1983 426.516 89.2014 427.291 89.5188C428.066 89.8361 428.686 90.4427 429.021 91.21L424.491 93.28C425.963 93.8039 427.191 94.8502 427.941 96.22C429.181 98.78 427.541 104.22 425.891 110.92C424.961 115.145 423.742 119.302 422.241 123.36C421.481 125.36 420.111 125.36 420.111 125.36V118.67L420.401 113.12C420.401 113.12 416.841 108.25 416.451 104.26C415.941 99.13 417.021 97.03 417.021 97.03L422.621 92.75Z" fill="#FBE7A1"/>
<path d="M398 87C400.236 87.004 402.42 87.6711 404.276 88.9169C406.133 90.1628 407.578 91.9313 408.429 93.9988C409.28 96.0663 409.499 98.3398 409.057 100.532C408.616 102.723 407.534 104.735 405.949 106.312C404.364 107.888 402.346 108.959 400.152 109.389C397.958 109.819 395.686 109.588 393.623 108.726C391.56 107.864 389.799 106.41 388.563 104.547C387.327 102.684 386.672 100.496 386.68 98.26C386.684 96.7774 386.98 95.3101 387.551 93.9418C388.122 92.5735 388.957 91.3311 390.008 90.2855C391.059 89.24 392.306 88.4117 393.677 87.8479C395.048 87.2842 396.517 86.9961 398 87Z" fill="#FBE7A1"/>
<path d="M420.191 112.24C421.531 113.4 422.621 110.4 423.751 109.24C424.881 108.08 428.541 106.47 430.361 110.33C432.181 114.19 428.681 119.6 425.931 120.87C421.931 122.74 420.111 118.69 420.111 118.69V135.44C415.881 143.06 406.731 141.28 402.401 142.35C401.755 140.402 401.755 138.298 402.401 136.35V130.9C400.58 131.25 398.719 131.347 396.871 131.19C393.211 130.61 391.251 127.6 390.161 123.64C388.401 117.28 388.031 106.59 390.481 94.24C394.581 91.08 408.431 91.6 417.001 97C416.401 108 418.851 111.08 420.191 112.24Z" fill="#FFBE9D"/>
<path d="M402.41 130.9C402.41 130.9 410.57 129.29 413.41 127.78C415.109 126.922 416.505 125.565 417.41 123.89C416.974 125.56 416.206 127.125 415.15 128.49C413.06 131.15 402.42 133.08 402.42 133.08L402.41 130.9Z" fill="#EB996E"/>
<path d="M384.891 105.63C384.96 106.275 385.221 106.885 385.641 107.38C385.78 107.569 385.882 107.783 385.941 108.01C386.152 109.607 386.486 111.185 386.941 112.73C387.309 113.756 387.989 114.64 388.886 115.259C389.783 115.878 390.851 116.2 391.941 116.18C392.517 116.208 393.094 116.171 393.661 116.07C393.704 116.077 393.748 116.077 393.791 116.07C394.289 115.972 394.768 115.796 395.211 115.55H395.291L395.421 115.47L395.561 115.36C395.614 115.336 395.661 115.302 395.701 115.26C395.761 115.229 395.815 115.189 395.861 115.14L396.001 115L396.281 114.73C396.755 114.204 397.143 113.607 397.431 112.96C398.201 111.33 398.051 109.02 399.251 108.79C399.301 108.795 399.351 108.795 399.401 108.79H399.561C401.201 108.85 400.961 111.35 401.841 113.16C402.328 114.306 403.155 115.275 404.21 115.937C405.265 116.598 406.497 116.92 407.741 116.86H408.191H408.561C408.846 116.844 409.13 116.811 409.411 116.76L409.681 116.7L409.941 116.63H410.101C410.447 116.518 410.782 116.374 411.101 116.2C411.211 116.12 411.321 116.06 411.431 115.99C411.627 115.841 411.814 115.681 411.991 115.51C412.46 115.036 412.833 114.475 413.091 113.86C413.578 112.346 413.936 110.794 414.161 109.22C414.213 108.981 414.308 108.754 414.441 108.55C414.878 108.092 415.167 107.514 415.271 106.89C415.298 106.564 415.214 106.238 415.032 105.966C414.851 105.693 414.583 105.49 414.271 105.39L413.411 105.25C410.621 104.86 406.981 104.64 404.791 105.19C402.031 105.88 401.061 106.74 399.541 106.69C398.021 106.64 397.221 105.69 394.631 104.8C392.631 104.08 389.171 104.05 386.571 104.23C386.281 104.23 386.031 104.23 385.761 104.29C385.331 104.21 384.851 104.88 384.891 105.63ZM402.841 107.69C403.057 107.431 403.326 107.223 403.631 107.08C403.679 107.049 403.729 107.023 403.781 107H403.851C403.984 106.95 404.114 106.893 404.241 106.83C404.351 106.83 404.481 106.75 404.601 106.7C404.986 106.558 405.381 106.441 405.781 106.35L406.251 106.25C406.641 106.18 407.051 106.12 407.451 106.08H407.741C410.371 105.92 412.001 106.57 412.581 107.08C413.161 107.59 412.861 110.08 412.581 111.3C412.581 111.3 412.581 111.37 412.581 111.39C412.59 111.423 412.59 111.457 412.581 111.49C412.553 111.656 412.513 111.82 412.461 111.98C412.44 112.086 412.41 112.19 412.371 112.29C412.311 112.46 412.251 112.63 412.181 112.81C412.165 112.871 412.138 112.929 412.101 112.98C412.093 113.02 412.076 113.058 412.051 113.09C412.051 113.09 412.051 113.16 412.051 113.2L411.971 113.35C411.971 113.41 411.911 113.46 411.871 113.51C411.844 113.572 411.807 113.63 411.761 113.68C411.73 113.74 411.693 113.797 411.651 113.85C411.23 114.426 410.667 114.882 410.017 115.175C409.366 115.468 408.651 115.587 407.941 115.52C407.214 115.565 406.485 115.453 405.805 115.191C405.125 114.928 404.51 114.522 404.001 114C403.377 113.282 402.953 112.413 402.771 111.48C402.471 110.05 402.311 108.43 402.841 107.69ZM387.391 106.11C387.576 105.931 387.798 105.794 388.041 105.71L388.321 105.6H388.491H388.641H388.741H388.891C389.093 105.559 389.296 105.529 389.501 105.51H389.831H390.021C390.074 105.52 390.128 105.52 390.181 105.51C390.321 105.5 390.461 105.5 390.601 105.51H390.901C391.306 105.531 391.71 105.575 392.111 105.64C393.981 105.95 395.931 106.86 396.421 107.64C396.911 108.42 396.771 110.01 396.501 111.39C396.438 111.699 396.355 112.003 396.251 112.3C396.243 112.323 396.243 112.347 396.251 112.37C396.255 112.403 396.255 112.437 396.251 112.47C396.251 112.47 396.251 112.47 396.251 112.53C396.236 112.568 396.22 112.604 396.201 112.64C396.201 112.72 396.131 112.79 396.091 112.86C396.062 112.929 396.028 112.995 395.991 113.06V113.12L395.911 113.26L395.831 113.37C395.395 113.99 394.797 114.477 394.101 114.779C393.406 115.081 392.641 115.185 391.891 115.08C391.193 115.063 390.509 114.885 389.891 114.56C388.051 113.56 387.621 111.48 387.411 110.56C387.131 109.08 386.821 106.62 387.391 106.11Z" fill="#90A4AE"/>
<path d="M414.1 105.3L426.1 107.99C425.017 108.269 424.052 108.89 423.35 109.76L414.09 108L414.1 105.3Z" fill="#90A4AE"/>
<path d="M387.39 110.34C387.6 111.34 388.03 113.41 389.87 114.34C390.488 114.665 391.172 114.843 391.87 114.86C392.62 114.965 393.385 114.861 394.08 114.559C394.776 114.257 395.374 113.77 395.81 113.15L395.89 113.04L395.97 112.9V112.84C396.007 112.775 396.041 112.709 396.07 112.64C396.07 112.57 396.14 112.5 396.18 112.42C396.199 112.384 396.215 112.347 396.23 112.31C396.23 112.31 396.23 112.31 396.23 112.25C396.234 112.217 396.234 112.183 396.23 112.15C396.222 112.127 396.222 112.103 396.23 112.08C396.334 111.783 396.417 111.479 396.48 111.17C396.75 109.79 396.9 108.17 396.4 107.42C395.9 106.67 393.96 105.72 392.09 105.42C391.689 105.355 391.285 105.311 390.88 105.29H390.58C390.44 105.28 390.3 105.28 390.16 105.29C390.107 105.3 390.053 105.3 390 105.29H389.81H389.48C389.275 105.309 389.071 105.339 388.87 105.38H388.72H388.62H388.47H388.3L388.02 105.49C387.777 105.574 387.555 105.711 387.37 105.89C386.82 106.62 387.13 109.08 387.39 110.34Z" fill="#B0BEC5"/>
<path d="M402.77 111.44C402.945 112.388 403.37 113.271 404 114C404.496 114.519 405.097 114.926 405.762 115.195C406.428 115.464 407.143 115.589 407.86 115.56C408.57 115.627 409.285 115.508 409.936 115.215C410.586 114.922 411.149 114.466 411.57 113.89C411.613 113.837 411.649 113.78 411.68 113.72C411.726 113.67 411.763 113.612 411.79 113.55C411.79 113.5 411.85 113.45 411.89 113.39L411.97 113.24C411.97 113.24 411.97 113.17 411.97 113.13C411.995 113.098 412.012 113.06 412.02 113.02C412.057 112.969 412.084 112.911 412.1 112.85C412.17 112.67 412.23 112.5 412.29 112.33C412.329 112.23 412.36 112.126 412.38 112.02C412.432 111.86 412.472 111.696 412.5 111.53C412.509 111.497 412.509 111.463 412.5 111.43C412.5 111.43 412.5 111.37 412.5 111.34C412.77 110.12 413.1 107.68 412.5 107.12C411.9 106.56 410.29 105.91 407.66 106.12H407.37C406.97 106.12 406.56 106.22 406.17 106.29L405.7 106.39C405.3 106.481 404.906 106.598 404.52 106.74C404.4 106.74 404.27 106.82 404.16 106.87C404.033 106.933 403.903 106.99 403.77 107.04H403.7C403.648 107.063 403.598 107.089 403.55 107.12C403.245 107.263 402.976 107.471 402.76 107.73C402.31 108.43 402.47 110.05 402.77 111.44Z" fill="#B0BEC5"/>
<path d="M387.71 85.51C387.71 85.38 387.71 85.24 387.76 85.1C387.776 84.8416 387.87 84.5942 388.03 84.39C388.58 83.82 389.68 85.26 390.03 85.59C390.404 85.9161 390.794 86.2232 391.2 86.51C391.581 86.7 391.949 86.9172 392.3 87.16C392.055 85.801 392.055 84.409 392.3 83.05C392.47 82.15 392.72 80.05 393.84 79.84C394.5 79.7 395.08 80.26 395.57 80.72C400.04 84.9 405.88 82.97 411.26 83.14C415.77 83.28 421.2 85.14 423.26 89.5C424.19 91.5 424.35 93.61 422.51 94.99C421.33 95.89 420.17 95.85 419.51 97.28C419.35 97.63 418.32 101.89 418.93 101.85C417.825 101.963 416.716 101.68 415.801 101.052C414.885 100.424 414.222 99.491 413.93 98.42C413.82 97.95 413.57 97.1 413.47 96.62C413.445 96.4793 413.391 96.3455 413.31 96.2276C413.229 96.1098 413.124 96.0105 413.002 95.9366C412.88 95.8627 412.743 95.8159 412.601 95.7992C412.459 95.7825 412.316 95.7964 412.18 95.84C410.81 96.14 409.92 96.7 408.63 97.05C404.946 98.1094 401.073 98.3383 397.29 97.72C394.581 97.2059 392.096 95.8724 390.17 93.9C389.192 92.7535 388.468 91.4135 388.044 89.9677C387.62 88.5219 387.506 87.0028 387.71 85.51Z" fill="#FBE7A1"/>
<path d="M405.281 103.09L409.281 103.7C409.351 103.165 409.211 102.623 408.89 102.189C408.57 101.754 408.093 101.461 407.561 101.37C407.298 101.331 407.03 101.344 406.772 101.409C406.515 101.475 406.272 101.591 406.06 101.751C405.848 101.911 405.67 102.112 405.536 102.342C405.402 102.572 405.316 102.826 405.281 103.09Z" fill="#90A4AE"/>
<path d="M404.361 121.47L401.031 122.34C401.078 122.562 401.169 122.772 401.299 122.958C401.429 123.144 401.595 123.302 401.788 123.422C401.98 123.542 402.194 123.623 402.418 123.659C402.642 123.694 402.871 123.685 403.091 123.63C403.541 123.503 403.924 123.208 404.16 122.805C404.397 122.403 404.469 121.924 404.361 121.47Z" fill="#EB996E"/>
<path d="M390.3 103.32L394.3 102.88C394.284 102.618 394.215 102.361 394.097 102.127C393.979 101.892 393.814 101.683 393.613 101.514C393.412 101.345 393.179 101.218 392.927 101.142C392.676 101.065 392.411 101.041 392.15 101.07C391.613 101.138 391.121 101.409 390.777 101.827C390.433 102.245 390.263 102.78 390.3 103.32Z" fill="#90A4AE"/>
<path d="M400 108.82L399.46 118.15L394.26 116.79L399.45 108.71C399.639 108.704 399.827 108.741 400 108.82Z" fill="#F7A981"/>
<path d="M422.34 115.3C422.338 115.783 422.479 116.256 422.746 116.658C423.013 117.061 423.393 117.375 423.839 117.561C424.285 117.748 424.776 117.797 425.25 117.704C425.724 117.611 426.159 117.38 426.502 117.039C426.844 116.698 427.077 116.263 427.172 115.79C427.267 115.316 427.219 114.825 427.035 114.379C426.851 113.932 426.538 113.55 426.136 113.282C425.735 113.013 425.263 112.87 424.78 112.87C424.46 112.869 424.143 112.931 423.847 113.052C423.551 113.174 423.282 113.352 423.055 113.578C422.828 113.804 422.649 114.072 422.526 114.368C422.403 114.663 422.34 114.98 422.34 115.3Z" fill="#90A4AE"/>
<path d="M422.081 110.85C422.29 110.112 422.659 109.43 423.161 108.85C423.415 108.607 423.72 108.422 424.053 108.308C424.386 108.194 424.74 108.154 425.091 108.19C425.091 108.19 425.161 108.27 425.091 108.29C424.821 108.45 424.631 108.54 424.361 108.73C424.091 108.912 423.843 109.123 423.621 109.36C423.425 109.587 423.266 109.843 423.151 110.12C423.007 110.437 422.913 110.774 422.871 111.12C422.805 111.664 422.884 112.216 423.101 112.72C423.212 112.999 423.368 113.259 423.561 113.49C423.768 113.659 423.95 113.858 424.101 114.08C424.251 114.39 423.821 114.92 423.491 114.74C422.865 114.347 422.396 113.75 422.161 113.05C421.867 112.351 421.839 111.569 422.081 110.85Z" fill="#90A4AE"/>
<path d="M387.421 144.07C384.041 146.29 379.371 149.17 378.231 152.3C377.091 155.43 373.801 173.58 373.441 179.43C376.438 180.842 379.648 181.747 382.941 182.11L387.421 144.07Z" fill="#CFD8DC"/>
<path d="M427.351 135.42C435.911 140.12 444.351 147.14 446.171 149.84C446.171 149.84 441.171 166.51 436.761 174.42C432.351 182.33 429.991 205.72 429.991 205.72C429.991 205.72 399.831 215.72 390.381 216.51C380.931 217.3 379.731 213.28 379.731 213.28C379.731 213.28 379.531 187.13 381.731 169.68C383.931 152.23 383.451 147.04 387.451 144.07C390.041 142.16 401.201 137.32 401.201 137.32V142.32C407.301 142.44 427.351 135.42 427.351 135.42Z" fill="#B0BEC5"/>
<path d="M398.851 145C398.297 143.872 398.075 142.609 398.211 141.36L400.731 139.53V142.7L398.851 145Z" fill="#15CDF2"/>
<path opacity="0.25" d="M398.851 145C398.297 143.872 398.075 142.609 398.211 141.36L400.731 139.53V142.7L398.851 145Z" fill="white"/>
<path d="M403.75 143.07L410.27 139.35L415.17 143.23L405.27 147.34L403.75 143.07Z" fill="#15CDF2"/>
<path opacity="0.25" d="M403.75 143.07L410.27 139.35L415.17 143.23L405.27 147.34L403.75 143.07Z" fill="white"/>
<path d="M420.11 128.34V129.66C419.86 130.91 417.4 133.81 411.19 136.59C404.98 139.37 402.4 142.34 402.4 142.34C404.078 142.385 405.738 142.692 407.32 143.25C410.15 144.25 414.85 147.85 416.19 147.81C417.53 147.77 419.38 144.07 422.89 140.38C425.89 137.28 427.35 135.38 427.35 135.38C427.35 135.38 422.53 128.37 420.11 128.34Z" fill="#CFD8DC"/>
<path d="M402.4 142.34C400.15 142.59 398.04 144.15 397.49 143.34C396.94 142.53 398.85 135 402.38 132.71L402.4 142.34Z" fill="#CFD8DC"/>
<path d="M380.6 181.8C380.6 181.8 380.33 186.47 380.26 188.07C380.19 189.67 382.86 217.07 382.86 217.07L373.44 221.07C373.44 221.07 372.3 210.51 371.93 204.63C371.625 198.575 371.896 192.504 372.74 186.5C373.48 181.5 373.74 179.58 373.74 179.58C375.944 180.554 378.243 181.297 380.6 181.8Z" fill="#FFBE9D"/>
<path d="M374.201 234.46C374.201 234.46 374.201 234.88 374.201 236.46C374.437 239.104 374.967 241.713 375.781 244.24C376.371 245.72 377.781 248.97 378.521 249.35C379.22 249.74 380.03 249.884 380.821 249.76C382.311 249.62 383.871 250.39 385.281 249.71C385.827 249.412 386.404 249.174 387.001 249C387.871 248.79 388.871 249.05 389.651 248.59C390.151 248.3 390.461 247.76 390.951 247.46C391.671 247.02 392.621 247.18 393.391 246.83C393.694 246.675 393.963 246.461 394.181 246.199C394.399 245.938 394.562 245.636 394.661 245.31C395.101 243.99 394.661 242.5 394.401 241.18C394.863 240.53 395.099 239.747 395.071 238.95C395.1 237.241 394.902 235.536 394.481 233.88C394.151 232.88 387.311 228.99 387.311 228.99L385.961 228.1C383.091 227.461 380.086 227.944 377.561 229.45C373.551 232 374.201 234.46 374.201 234.46Z" fill="#FFBE9D"/>
<path d="M376.05 234.27C374.24 237.27 375.3 242.68 375.31 242.74C374.743 240.693 374.371 238.597 374.2 236.48C374.2 234.88 374.2 234.48 374.2 234.48C374.2 234.48 373.55 231.98 377.51 229.48C380.035 227.974 383.04 227.491 385.91 228.13C385.91 228.13 377.86 231.24 376.05 234.27Z" fill="#EB996E"/>
<path d="M394.35 241.15C393.713 239.199 392.727 237.38 391.44 235.78C390.68 235.08 390.04 234.19 390.8 234.49C391.56 234.79 392.62 234.96 393.04 234.43C393.46 233.9 393.55 234.82 393.04 235.54C392.53 236.26 392.96 236.81 393.51 237.99C393.933 239 394.215 240.063 394.35 241.15Z" fill="#EB996E"/>
<path d="M443.561 150.17C446.411 151.17 446.791 158.97 446.171 165.97C445.551 172.97 440.091 189.52 437.601 195.28C434.811 201.75 433.121 205.48 431.261 207.51C429.401 209.54 425.511 211.21 420.531 213.79C416.031 216.12 412.951 217.3 405.271 219.68C396.611 222.37 393.271 222.53 391.431 223.82C389.591 225.11 389.071 227.91 387.261 228.96L385.911 228.07C382.867 228.801 379.96 230.017 377.301 231.67C376.11 232.408 375.061 233.353 374.201 234.46V236.46C374.201 236.46 372.011 237.38 370.151 233.46C368.291 229.54 367.441 223.66 369.581 221.09C371.721 218.52 378.501 215 384.001 213.28C389.501 211.56 392.231 209.76 398.651 205.88C405.491 201.75 410.241 199 413.651 197.14C414.941 196.39 415.811 195.48 416.391 193.14C416.851 191.26 418.221 185.7 419.061 181.52C420.401 174.53 423.411 153.39 443.561 150.17Z" fill="#FFBE9D"/>
<path d="M446.172 149.84C446.172 149.84 447.502 150.07 447.682 155.61C447.918 160.852 447.667 166.105 446.932 171.3C446.202 175.55 441.932 188.1 441.932 188.1C441.932 188.1 429.662 192.1 417.102 187.33C417.102 187.33 420.052 169.23 421.162 164.43C422.272 159.63 437.822 144.82 446.172 149.84Z" fill="#CFD8DC"/>
<path d="M402.75 150.2C402.05 154.7 401.09 165.39 401.09 180.48C401.09 184.18 395.69 191.69 394.42 191.53C393.15 191.37 390.82 184.31 390.49 180.21C391 170.29 397 154.9 399.62 149.64L402.75 150.2Z" fill="#15CDF2"/>
<path opacity="0.15" d="M399.42 150.07C399.479 149.923 399.545 149.78 399.62 149.64L402.75 150.2L402.56 151.52C401.382 151.395 400.279 150.885 399.42 150.07Z" fill="white"/>
<path d="M403.751 143.07C402.768 142.839 401.761 142.718 400.751 142.71C399.954 143.331 399.3 144.115 398.831 145.01C398.743 146.591 399.006 148.172 399.601 149.64C400.051 149.956 400.564 150.169 401.104 150.266C401.645 150.363 402.2 150.34 402.731 150.2C403.833 149.514 404.71 148.52 405.251 147.34C405.328 145.775 404.789 144.243 403.751 143.07Z" fill="#15CDF2"/>
</svg>
