<svg width="750" height="500" viewBox="0 0 750 500" fill="none" xmlns="http://www.w3.org/2000/svg">
<path d="M36.4131 363.058C36.4131 363.058 31.2011 365.169 37.2121 376.234C43.2241 387.299 47.3311 392.748 47.3311 392.748C47.3311 392.748 48.4131 395.325 46.2321 395.786C44.0511 396.247 39.2061 395.603 38.2991 398.309C37.3591 401.116 39.4461 403.688 43.6021 405.883C47.7571 408.078 56.6851 413.222 57.4901 413.69C58.2811 414.15 59.0931 415.341 57.6571 415.893C56.2221 416.445 45.3981 417.859 46.3761 422.955C47.3541 428.051 59.9351 432.264 61.3021 432.751C62.6691 433.238 63.0071 433.803 62.9161 434.549C62.8251 435.295 59.1421 435.427 56.0801 435.955C53.0181 436.483 49.5601 437.633 50.3711 440.525C51.1821 443.418 58.7231 449.344 76.6951 450.636L85.0621 450.69L89.4291 443.509C97.8371 427.572 96.7961 418.038 94.7691 415.82C92.7431 413.602 89.9391 415.929 87.8711 418.248C85.8031 420.567 83.7431 423.623 83.0621 423.306C82.3811 422.989 82.0801 422.403 82.3901 420.986C82.6991 419.569 85.7771 406.663 81.9701 403.137C78.1631 399.612 71.2381 408.05 70.0111 408.976C68.7831 409.902 68.2021 408.583 68.2301 407.669C68.2591 406.738 68.6151 396.441 68.9491 391.753C69.2831 387.065 68.2061 383.934 65.3261 383.247C62.5491 382.585 60.5341 387.038 58.9891 388.645C57.4441 390.252 55.8301 387.971 55.8301 387.971C55.8301 387.971 53.3781 381.604 47.1661 370.65C40.9551 359.696 36.3091 363.109 36.3091 363.109" fill="#C4E4F2"/>
<path d="M85.5482 452.645C81.0182 444.582 73.2072 430.117 66.4362 417.733C59.6682 405.353 53.5293 394.15 49.0413 386.065C46.7963 382.032 44.9783 378.765 43.7153 376.496C43.0913 375.373 42.6053 374.498 42.2693 373.893C42.1103 373.601 41.9873 373.375 41.8993 373.213C41.8173 373.059 41.7812 372.977 41.7812 372.977C41.7812 372.977 41.8333 373.05 41.9233 373.2C42.0173 373.359 42.1473 373.581 42.3163 373.868C42.6623 374.467 43.1633 375.335 43.8053 376.447C45.0963 378.688 46.9403 381.944 49.2033 385.976C53.7333 394.039 59.8983 405.229 66.6663 417.609C73.4373 429.993 81.2213 444.471 85.7103 452.556" fill="#D3EEF7"/>
<path d="M45.0421 399.483C45.0481 399.466 45.2561 399.519 45.6291 399.63C46.0031 399.739 46.5371 399.914 47.1971 400.135C48.5141 400.58 50.3181 401.241 52.2951 402.006C54.2421 402.768 56.0021 403.456 57.3491 403.983C57.9571 404.217 58.4711 404.414 58.8841 404.572C59.2471 404.71 59.4451 404.794 59.4401 404.811C59.4341 404.828 59.2251 404.776 58.8511 404.668C58.4781 404.557 57.9421 404.384 57.2861 404.155C55.9731 403.697 54.1781 403.013 52.2021 402.248C50.2511 401.501 48.4861 400.825 47.1361 400.308C46.5261 400.077 46.0111 399.883 45.5981 399.726C45.2341 399.586 45.0361 399.5 45.0421 399.483Z" fill="#D3EEF7"/>
<path d="M59.9959 404.262C59.9279 404.239 61.1269 400.461 62.6729 395.823C64.2199 391.184 65.5289 387.443 65.5969 387.466C65.6649 387.489 64.4669 391.267 62.9199 395.905C61.3739 400.543 60.0639 404.284 59.9959 404.262Z" fill="#D3EEF7"/>
<path d="M69.5343 423.745C69.5203 423.734 69.6373 423.548 69.8603 423.22C70.1163 422.85 70.4363 422.388 70.8153 421.839C71.6203 420.672 72.7243 419.056 73.8783 417.229C75.0363 415.403 76.0263 413.715 76.7333 412.487C77.0663 411.909 77.3473 411.422 77.5723 411.033C77.7723 410.69 77.8903 410.505 77.9063 410.513C77.9223 410.521 77.8343 410.723 77.6613 411.08C77.4883 411.437 77.2283 411.95 76.8933 412.576C76.2263 413.829 75.2583 415.537 74.0973 417.368C72.9403 419.201 71.8083 420.805 70.9643 421.946C70.5393 422.515 70.1913 422.972 69.9403 423.28C69.6933 423.59 69.5493 423.756 69.5343 423.745Z" fill="#D3EEF7"/>
<path d="M55.0562 422.4C55.0572 422.382 55.2612 422.381 55.6272 422.395C56.0492 422.418 56.5662 422.445 57.1772 422.478C58.4852 422.559 60.2912 422.689 62.2842 422.848C64.2782 423.008 66.0812 423.166 67.3862 423.294C67.9942 423.359 68.5102 423.414 68.9302 423.459C69.2942 423.504 69.4952 423.537 69.4932 423.555C69.4912 423.573 69.2882 423.574 68.9222 423.56C68.5002 423.538 67.9832 423.51 67.3722 423.477C66.0642 423.396 64.2582 423.266 62.2642 423.106C60.2712 422.946 58.4672 422.788 57.1632 422.66C56.5552 422.595 56.0392 422.54 55.6192 422.495C55.2562 422.451 55.0552 422.418 55.0562 422.4Z" fill="#D3EEF7"/>
<path d="M61.291 440.67C61.292 440.652 61.552 440.653 62.022 440.671C62.54 440.697 63.208 440.73 64.009 440.769C65.686 440.864 68.002 441.012 70.558 441.192C73.115 441.372 75.429 441.55 77.103 441.691C77.902 441.764 78.568 441.825 79.084 441.872C79.551 441.92 79.809 441.956 79.808 441.974C79.807 441.992 79.547 441.991 79.077 441.973C78.559 441.947 77.892 441.914 77.09 441.874C75.413 441.779 73.097 441.631 70.54 441.451C67.984 441.271 65.67 441.094 63.996 440.952C63.197 440.879 62.531 440.818 62.015 440.771C61.548 440.724 61.29 440.688 61.291 440.67Z" fill="#D3EEF7"/>
<path d="M79.3751 441.819C79.3601 441.809 79.5021 441.569 79.7711 441.144C80.0671 440.681 80.4541 440.077 80.9191 439.35C81.8871 437.834 83.2151 435.735 84.6161 433.377C86.0211 431.02 87.2361 428.853 88.1051 427.279C88.5231 426.523 88.8701 425.896 89.1351 425.415C89.3801 424.976 89.5231 424.736 89.5391 424.745C89.5551 424.753 89.4421 425.008 89.2241 425.462C89.0061 425.916 88.6811 426.568 88.2661 427.367C87.4381 428.965 86.2461 431.15 84.8381 433.511C83.4351 435.873 82.0791 437.961 81.0711 439.452C80.5651 440.197 80.1501 440.795 79.8531 441.202C79.5601 441.608 79.3901 441.829 79.3751 441.819Z" fill="#D3EEF7"/>
<path d="M147.857 126.734H78.701C75.438 126.734 72.793 124.089 72.793 120.826V58.926C72.793 55.663 75.438 53.018 78.701 53.018H147.857C151.12 53.018 153.765 55.663 153.765 58.926V120.826C153.765 124.089 151.12 126.734 147.857 126.734Z" fill="#F5FCFF"/>
<path d="M153.765 65.563H72.793V59.088C72.793 55.736 75.511 53.018 78.863 53.018H148.174C151.262 53.018 153.765 55.521 153.765 58.609V65.563Z" fill="#C4E4F2"/>
<path d="M84.4519 60.516C84.4519 61.548 83.5629 62.384 82.4669 62.384C81.3709 62.384 80.4819 61.547 80.4819 60.516C80.4819 59.485 81.3709 58.648 82.4669 58.648C83.5629 58.648 84.4519 59.484 84.4519 60.516Z" fill="#F5FCFF"/>
<path d="M89.8611 60.516C89.8611 61.548 88.9721 62.384 87.8761 62.384C86.7801 62.384 85.8911 61.547 85.8911 60.516C85.8911 59.485 86.7801 58.648 87.8761 58.648C88.9731 58.648 89.8611 59.484 89.8611 60.516Z" fill="#F5FCFF"/>
<path d="M95.2708 60.516C95.2708 61.548 94.3818 62.384 93.2858 62.384C92.1898 62.384 91.3008 61.547 91.3008 60.516C91.3008 59.485 92.1898 58.648 93.2858 58.648C94.3818 58.648 95.2708 59.484 95.2708 60.516Z" fill="#F5FCFF"/>
<path d="M147.857 126.734C147.856 126.717 148.12 126.72 148.623 126.652C149.123 126.586 149.88 126.415 150.737 125.921C151.581 125.428 152.552 124.587 153.147 123.265C153.444 122.612 153.642 121.849 153.665 121.022C153.681 120.189 153.663 119.291 153.663 118.346C153.643 110.759 153.615 99.81 153.58 86.283C153.57 79.513 153.56 72.099 153.548 64.141C153.547 63.146 153.546 62.143 153.545 61.131C153.52 60.131 153.599 59.071 153.476 58.107C153.223 56.137 151.797 54.344 149.884 53.627C149.412 53.431 148.904 53.341 148.397 53.276C147.894 53.24 147.348 53.251 146.812 53.25C145.737 53.251 144.654 53.252 143.564 53.253C141.384 53.255 139.174 53.256 136.937 53.258C119.037 53.264 99.3609 53.271 78.7079 53.278C76.2189 53.246 73.8609 55.041 73.2599 57.43C73.0839 58.022 73.0479 58.616 73.0529 59.251V61.154C73.0529 62.421 73.0529 63.683 73.0519 64.94C73.0509 69.97 73.0489 74.927 73.0479 79.797C73.0429 89.537 73.0379 98.933 73.0329 107.884C73.0319 112.357 73.0299 116.719 73.0289 120.958C73.0459 123.012 74.2909 124.928 76.0429 125.85C76.9239 126.306 77.8969 126.541 78.8869 126.515C79.8989 126.516 80.9019 126.517 81.8969 126.518C89.8559 126.53 97.2699 126.54 104.039 126.55C117.566 126.585 128.515 126.613 136.101 126.633C139.875 126.654 142.809 126.671 144.818 126.682C145.803 126.693 146.559 126.702 147.085 126.708C147.596 126.716 147.857 126.734 147.857 126.734C147.857 126.734 147.595 126.752 147.085 126.761C146.559 126.767 145.804 126.776 144.818 126.787C142.809 126.798 139.875 126.815 136.101 126.836C128.515 126.856 117.567 126.884 104.039 126.919C97.2689 126.929 89.8549 126.939 81.8969 126.951C80.9019 126.952 79.8989 126.953 78.8869 126.954C77.8509 126.985 76.7789 126.735 75.8349 126.244C73.9439 125.255 72.5959 123.189 72.5719 120.969C72.5659 116.727 72.5599 112.362 72.5539 107.885C72.5489 98.934 72.5439 89.539 72.5389 79.798C72.5379 74.928 72.5359 69.971 72.5349 64.941C72.5349 63.683 72.5349 62.421 72.5339 61.155V59.252C72.5269 58.619 72.5679 57.928 72.7589 57.293C73.4159 54.684 75.9899 52.723 78.7089 52.758C99.3619 52.765 119.039 52.772 136.938 52.778C139.175 52.78 141.385 52.782 143.565 52.783C144.655 52.784 145.738 52.785 146.813 52.786C147.352 52.788 147.879 52.776 148.441 52.817C148.989 52.886 149.539 52.987 150.049 53.199C152.116 53.978 153.648 55.916 153.918 58.043C154.048 59.121 153.961 60.111 153.985 61.131C153.984 62.143 153.983 63.146 153.982 64.141C153.971 72.099 153.96 79.513 153.95 86.283C153.915 99.81 153.887 110.76 153.867 118.346C153.859 119.294 153.869 120.183 153.845 121.028C153.813 121.879 153.602 122.663 153.289 123.33C152.663 124.68 151.658 125.526 150.79 126.012C149.908 126.5 149.138 126.655 148.631 126.705C148.12 126.756 147.857 126.734 147.857 126.734Z" fill="#C4E4F2"/>
<path d="M143.21 120.274H83.1547C80.6937 120.274 78.6987 118.279 78.6987 115.818V75.672C78.6987 73.211 80.6937 71.216 83.1547 71.216H143.21C145.671 71.216 147.666 73.211 147.666 75.672V115.817C147.666 118.278 145.671 120.274 143.21 120.274Z" fill="#D9F4FA"/>
<path d="M84.4898 117.205L101.325 93.245C102.054 92.208 103.573 92.157 104.369 93.144L115.937 107.489C116.639 108.359 117.935 108.441 118.741 107.667L125.518 101.16C126.312 100.397 127.586 100.464 128.296 101.307L141.58 117.073C142.624 118.313 141.743 120.207 140.122 120.207H86.0498C84.5058 120.207 83.6028 118.468 84.4898 117.205Z" fill="#C4E4F2"/>
<path d="M122.887 86.153C123.493 90.113 120.132 93.475 116.172 92.869C113.704 92.491 111.687 90.474 111.309 88.007C110.702 84.046 114.064 80.685 118.024 81.291C120.492 81.668 122.509 83.685 122.887 86.153Z" fill="#C4E4F2"/>
<path d="M666.582 294.45H622.169C618.906 294.45 616.261 291.805 616.261 288.542V249.168C616.261 245.905 618.906 243.26 622.169 243.26H666.582C669.845 243.26 672.49 245.905 672.49 249.168V288.542C672.49 291.805 669.845 294.45 666.582 294.45Z" fill="#F5FCFF"/>
<path d="M672.49 251.972H616.261V249.331C616.261 245.979 618.979 243.261 622.331 243.261H666.899C669.987 243.261 672.49 245.764 672.49 248.852V251.972Z" fill="#D3EEF7"/>
<path d="M624.357 248.467C624.357 249.184 623.74 249.765 622.979 249.765C622.218 249.765 621.601 249.184 621.601 248.467C621.601 247.75 622.218 247.17 622.979 247.17C623.74 247.17 624.357 247.751 624.357 248.467Z" fill="#F5FCFF"/>
<path d="M628.113 248.467C628.113 249.184 627.496 249.765 626.735 249.765C625.974 249.765 625.357 249.184 625.357 248.467C625.357 247.75 625.974 247.17 626.735 247.17C627.496 247.17 628.113 247.751 628.113 248.467Z" fill="#F5FCFF"/>
<path d="M631.87 248.467C631.87 249.184 631.253 249.765 630.492 249.765C629.731 249.765 629.114 249.184 629.114 248.467C629.114 247.75 629.731 247.17 630.492 247.17C631.253 247.17 631.87 247.751 631.87 248.467Z" fill="#F5FCFF"/>
<path d="M666.582 294.45C666.572 294.393 667.325 294.511 668.599 294.033C669.228 293.795 669.974 293.382 670.677 292.69C671.366 291.993 671.998 290.999 672.261 289.747C672.391 289.122 672.383 288.45 672.376 287.727C672.372 287.008 672.369 286.254 672.365 285.467C672.358 283.89 672.351 282.179 672.343 280.341C672.332 276.659 672.319 272.471 672.305 267.844C672.295 263.212 672.285 258.141 672.273 252.698C672.256 251.348 672.3 249.928 672.234 248.57C672.091 247.223 671.439 245.916 670.405 244.979C668.299 242.862 665.002 243.644 662.005 243.5C649.76 243.506 636.301 243.513 622.173 243.52C620.478 243.516 618.824 244.315 617.777 245.619C617.255 246.27 616.879 247.032 616.684 247.836C616.472 248.634 616.527 249.48 616.519 250.351C616.518 253.792 616.516 257.182 616.515 260.514C616.51 267.177 616.505 273.604 616.5 279.727C616.499 282.786 616.497 285.77 616.496 288.669C616.508 290.068 617.085 291.416 618.005 292.405C618.924 293.398 620.183 294.043 621.488 294.19C626.878 294.288 631.989 294.235 636.607 294.266C645.851 294.301 653.339 294.329 658.539 294.349C661.111 294.37 663.116 294.387 664.502 294.398C665.167 294.409 665.683 294.418 666.053 294.424C666.403 294.433 666.582 294.45 666.582 294.45C666.582 294.45 666.403 294.468 666.054 294.477C665.684 294.483 665.168 294.492 664.503 294.503C663.118 294.514 661.112 294.531 658.54 294.552C653.34 294.572 645.852 294.6 636.608 294.635C631.967 294.626 626.93 294.705 621.438 294.619C620.033 294.465 618.673 293.775 617.68 292.708C616.684 291.646 616.057 290.19 616.039 288.679C616.033 285.777 616.027 282.79 616.021 279.727C616.016 273.604 616.011 267.177 616.006 260.514C616.005 257.182 616.003 253.792 616.002 250.351C616.011 249.507 615.95 248.604 616.181 247.714C616.394 246.835 616.805 246.002 617.374 245.292C618.514 243.869 620.325 242.994 622.174 243C636.302 243.007 649.76 243.014 662.006 243.02C663.536 243.022 665.048 243.024 666.539 243.025C668.089 243.018 669.61 243.617 670.715 244.64C671.83 245.655 672.529 247.07 672.679 248.523C672.746 249.974 672.694 251.326 672.707 252.697C672.696 258.14 672.685 263.211 672.675 267.843C672.661 272.47 672.648 276.658 672.636 280.34C672.628 282.178 672.621 283.889 672.615 285.466C672.611 286.253 672.607 287.007 672.604 287.726C672.603 288.439 672.604 289.142 672.461 289.788C672.173 291.08 671.506 292.096 670.787 292.799C670.054 293.498 669.282 293.904 668.636 294.131C667.988 294.366 667.461 294.422 667.113 294.449C666.761 294.459 666.582 294.45 666.582 294.45Z" fill="#D3EEF7"/>
<path d="M663.798 289.964H624.818C622.357 289.964 620.362 287.969 620.362 285.508V260.353C620.362 257.892 622.357 255.897 624.818 255.897H663.798C666.259 255.897 668.254 257.892 668.254 260.353V285.507C668.254 287.969 666.259 289.964 663.798 289.964Z" fill="#D9F4FA"/>
<path d="M624.383 287.833L636.073 271.195C636.579 270.475 637.634 270.44 638.187 271.125L646.22 281.086C646.707 281.69 647.607 281.747 648.167 281.21L652.873 276.691C653.425 276.161 654.309 276.208 654.802 276.793L664.027 287.741C664.752 288.602 664.14 289.918 663.015 289.918H625.466C624.394 289.918 623.767 288.71 624.383 287.833Z" fill="#C4E4F2"/>
<path d="M651.047 266.27C651.468 269.02 649.134 271.354 646.384 270.934C644.67 270.672 643.27 269.271 643.007 267.558C642.586 264.807 644.92 262.473 647.67 262.894C649.384 263.155 650.784 264.556 651.047 266.27Z" fill="#C4E4F2"/>
<path d="M155.049 326.405H94.1678C90.9048 326.405 88.2598 323.76 88.2598 320.497V253.167C88.2598 249.904 90.9048 247.259 94.1678 247.259H155.049C158.312 247.259 160.957 249.904 160.957 253.167V320.497C160.957 323.759 158.312 326.405 155.049 326.405Z" fill="#F5FCFF"/>
<path d="M160.957 260.727H88.2598V253.328C88.2598 249.976 90.9778 247.258 94.3298 247.258H155.366C158.454 247.258 160.957 249.761 160.957 252.849V260.727Z" fill="#D3EEF7"/>
<path d="M100.777 255.309C100.777 256.417 99.8231 257.315 98.6461 257.315C97.4691 257.315 96.5151 256.417 96.5151 255.309C96.5151 254.201 97.4691 253.303 98.6461 253.303C99.8231 253.303 100.777 254.201 100.777 255.309Z" fill="#F5FCFF"/>
<path d="M106.585 255.309C106.585 256.417 105.631 257.315 104.454 257.315C103.277 257.315 102.323 256.417 102.323 255.309C102.323 254.201 103.277 253.303 104.454 253.303C105.631 253.303 106.585 254.201 106.585 255.309Z" fill="#F5FCFF"/>
<path d="M112.393 255.309C112.393 256.417 111.439 257.315 110.262 257.315C109.085 257.315 108.131 256.417 108.131 255.309C108.131 254.201 109.085 253.303 110.262 253.303C111.439 253.303 112.393 254.201 112.393 255.309Z" fill="#F5FCFF"/>
<path d="M155.049 326.405C155.048 326.389 155.307 326.389 155.801 326.325C156.293 326.261 157.031 326.091 157.881 325.621C158.715 325.144 159.673 324.332 160.285 323.049C160.591 322.415 160.804 321.672 160.849 320.862C160.882 320.051 160.851 319.166 160.856 318.24C160.836 310.797 160.808 300.056 160.773 286.786C160.763 280.145 160.753 272.872 160.741 265.065C160.734 261.164 160.726 257.129 160.718 252.973C160.687 250.964 159.437 249.014 157.593 248.101C156.668 247.622 155.646 247.461 154.569 247.496C153.485 247.497 152.395 247.498 151.298 247.499C133.739 247.505 114.437 247.512 94.176 247.52C91.729 247.485 89.428 249.22 88.763 251.536C88.406 252.671 88.553 253.929 88.521 255.177C88.521 256.42 88.521 257.658 88.52 258.891C88.519 263.826 88.517 268.688 88.516 273.466C88.511 283.021 88.506 292.238 88.501 301.019C88.497 305.409 88.494 309.69 88.49 313.849C88.488 315.929 88.486 317.978 88.484 319.995C88.355 321.976 89.21 323.902 90.74 325.032C91.486 325.606 92.37 325.982 93.285 326.117C94.186 326.247 95.164 326.175 96.099 326.197C97.983 326.2 99.831 326.202 101.643 326.205C105.267 326.211 108.745 326.217 112.066 326.222C125.336 326.257 136.076 326.285 143.518 326.305C147.22 326.326 150.098 326.342 152.069 326.354C153.035 326.365 153.776 326.374 154.293 326.38C154.792 326.387 155.049 326.405 155.049 326.405C155.049 326.405 154.792 326.423 154.291 326.432C153.774 326.438 153.033 326.447 152.067 326.458C150.096 326.469 147.218 326.486 143.516 326.507C136.074 326.527 125.334 326.555 112.064 326.59C108.744 326.595 105.265 326.601 101.641 326.607C99.829 326.61 97.98 326.612 96.097 326.615C95.152 326.594 94.217 326.675 93.217 326.538C92.233 326.395 91.281 325.992 90.477 325.378C88.83 324.186 87.901 322.054 88.037 319.997C88.035 317.98 88.033 315.93 88.031 313.851C88.027 309.691 88.024 305.411 88.02 301.021C88.015 292.24 88.01 283.024 88.005 273.468C88.004 268.69 88.002 263.828 88.001 258.893C88.001 257.659 88.001 256.421 88 255.179V253.312C88.006 252.675 88.07 252.011 88.264 251.388C88.989 248.857 91.504 246.963 94.175 247.001C114.436 247.008 133.738 247.015 151.297 247.021C152.394 247.022 153.485 247.023 154.568 247.024C155.654 246.986 156.82 247.165 157.803 247.684C159.799 248.676 161.144 250.789 161.175 252.96C161.174 257.121 161.173 261.161 161.172 265.068C161.161 272.875 161.15 280.147 161.14 286.789C161.105 300.059 161.077 310.8 161.057 318.243C161.045 319.174 161.068 320.043 161.026 320.876C160.971 321.71 160.744 322.472 160.423 323.12C159.779 324.429 158.788 325.245 157.93 325.716C157.057 326.18 156.304 326.334 155.806 326.381C155.307 326.425 155.049 326.405 155.049 326.405Z" fill="#D3EEF7"/>
<path d="M121.785 292.746L103.511 274.192C105.703 272.033 108.26 270.28 111.064 269.013C124.084 263.132 139.637 269.006 145.518 282.026C151.399 295.046 145.525 310.599 132.505 316.48C119.485 322.361 103.932 316.487 98.0508 303.467C97.6168 302.506 97.2418 301.52 96.9268 300.514L121.785 292.746Z" fill="#D9F4FA"/>
<path d="M117.571 291.859L95.8778 298.361C95.2458 296.252 94.9248 294.061 94.9248 291.859C94.9248 285.9 97.2768 280.176 101.466 275.938L117.571 291.859Z" fill="#D9F4FA"/>
<path d="M468.939 102.596H425.112C421.179 102.596 417.991 99.408 417.991 95.475V51.648C417.991 47.715 421.179 44.527 425.112 44.527H468.939C472.872 44.527 476.06 47.715 476.06 51.648V95.475C476.06 99.408 472.872 102.596 468.939 102.596Z" fill="#D9F4FA"/>
<path d="M426.975 74.397L432.825 68.548L444.105 78.575L462.944 59.665L468.376 65.514L443.27 89.857L426.975 74.397Z" fill="#F5FCFF"/>
<path d="M622.278 89.876L621.575 50.189C621.809 50.185 622.043 50.183 622.278 50.183C644.053 50.183 661.971 68.101 661.971 89.876C661.971 111.651 644.053 129.569 622.278 129.569C604.964 129.569 589.555 118.24 584.391 101.714L622.278 89.876Z" fill="#C4E4F2"/>
<path d="M618.217 87.028L584.212 97.816C582.761 93.943 582.017 89.84 582.017 85.704C582.017 66.768 597.599 51.186 616.535 51.186C616.839 51.186 617.142 51.19 617.446 51.198L618.217 87.028Z" fill="#C4E4F2"/>
<path d="M281.191 163.335H190.48C187.217 163.335 184.572 160.69 184.572 157.427V75.903C184.572 72.64 187.217 69.995 190.48 69.995H281.192C284.455 69.995 287.1 72.64 287.1 75.903V157.427C287.099 160.69 284.454 163.335 281.191 163.335Z" fill="#F5FCFF"/>
<path d="M287.099 85.88H184.572V76.066C184.572 72.714 187.29 69.996 190.642 69.996H281.509C284.597 69.996 287.1 72.499 287.1 75.587V85.88H287.099Z" fill="#D3EEF7"/>
<path d="M196.821 81.856C198.209 81.856 199.334 80.7967 199.334 79.49C199.334 78.1833 198.209 77.124 196.821 77.124C195.433 77.124 194.308 78.1833 194.308 79.49C194.308 80.7967 195.433 81.856 196.821 81.856Z" fill="#F5FCFF"/>
<path d="M206.183 79.49C206.183 80.797 205.058 81.856 203.67 81.856C202.282 81.856 201.157 80.797 201.157 79.49C201.157 78.183 202.282 77.124 203.67 77.124C205.058 77.124 206.183 78.183 206.183 79.49Z" fill="#F5FCFF"/>
<path d="M210.52 81.856C211.908 81.856 213.033 80.7967 213.033 79.49C213.033 78.1833 211.908 77.124 210.52 77.124C209.132 77.124 208.007 78.1833 208.007 79.49C208.007 80.7967 209.132 81.856 210.52 81.856Z" fill="#F5FCFF"/>
<path d="M195.847 94.257C195.847 94.257 195.847 151.881 195.847 151.352C195.847 150.823 278.259 151.352 278.259 151.352" fill="#F5FCFF"/>
<path d="M278.259 151.352C278.259 151.361 278.137 151.369 277.899 151.376C277.634 151.381 277.285 151.387 276.842 151.395C275.881 151.401 274.518 151.409 272.777 151.42C269.215 151.421 264.115 151.422 257.826 151.423C245.176 151.415 227.751 151.403 208.504 151.39C206.096 151.405 203.717 151.419 201.372 151.433C200.201 151.451 199.038 151.469 197.884 151.487C197.31 151.503 196.731 151.515 196.175 151.555L195.982 151.575C195.969 151.577 195.95 151.58 195.957 151.579L195.96 151.576C196.554 151.562 195.498 151.278 195.592 151.347V151.24V150.812L195.593 149.958C195.598 145.417 195.603 141.036 195.608 136.862C195.629 128.522 195.648 121.009 195.664 114.687C195.699 108.398 195.727 103.299 195.747 99.737C195.768 97.997 195.784 96.633 195.796 95.673C195.807 95.23 195.815 94.881 195.822 94.616C195.831 94.378 195.84 94.256 195.849 94.256C195.858 94.256 195.867 94.378 195.876 94.616C195.883 94.881 195.891 95.23 195.902 95.673C195.914 96.634 195.93 97.997 195.951 99.737C195.971 103.298 195.999 108.398 196.034 114.687C196.05 121.008 196.069 128.522 196.09 136.862C196.095 141.036 196.1 145.417 196.105 149.958L196.106 150.812V151.24V151.347C196.193 151.442 195.163 151.119 195.767 151.102L195.821 151.085C195.862 151.074 195.879 151.072 195.901 151.069L196.135 151.043C196.722 151 197.293 150.988 197.873 150.971C199.029 150.952 200.194 150.933 201.368 150.914C203.714 150.899 206.095 150.883 208.504 150.868C227.767 150.826 245.206 150.953 257.83 151.054C264.119 151.122 269.218 151.178 272.78 151.217C274.521 151.248 275.884 151.273 276.845 151.29C277.288 151.304 277.637 151.314 277.902 151.322C278.137 151.333 278.259 151.343 278.259 151.352Z" fill="#1A4A54"/>
<path d="M221.825 122.036H204.241V144.939H221.825V122.036Z" fill="#5A96B8"/>
<path d="M245.707 109.786H228.123V144.94H245.707V109.786Z" fill="#5A96B8"/>
<path d="M269.589 99.525H252.005V144.94H269.589V99.525Z" fill="#5A96B8"/>
<path d="M281.191 163.335C281.189 163.309 281.528 163.338 282.167 163.221C282.794 163.099 283.765 162.848 284.761 162.062C285.744 161.303 286.761 159.958 286.978 158.116C287.058 156.279 286.986 154.12 286.998 151.711C286.978 142.044 286.95 128.078 286.915 110.822C286.905 102.189 286.895 92.735 286.883 82.586C286.882 81.317 286.881 80.038 286.88 78.747C286.879 78.102 286.879 77.454 286.878 76.804C286.869 76.147 286.908 75.505 286.781 74.89C286.378 72.38 284.045 70.284 281.413 70.235C276.009 70.235 270.448 70.235 264.745 70.234C241.919 70.24 216.827 70.247 190.489 70.255C188.908 70.243 187.357 70.943 186.308 72.106C185.235 73.269 184.735 74.836 184.832 76.436C184.832 79.688 184.831 82.919 184.831 86.127C184.83 92.542 184.828 98.863 184.827 105.074C184.822 117.495 184.817 129.477 184.812 140.891C184.811 146.596 184.809 152.159 184.808 157.564C184.824 158.868 185.334 160.132 186.158 161.11C186.983 162.095 188.151 162.753 189.385 163.005C190.003 163.135 190.636 163.109 191.295 163.114C191.945 163.115 192.593 163.115 193.238 163.116C194.528 163.117 195.808 163.118 197.077 163.119C207.227 163.13 216.681 163.141 225.314 163.151C242.569 163.186 256.534 163.214 266.2 163.234C271.018 163.255 274.762 163.272 277.316 163.283C278.578 163.294 279.543 163.303 280.207 163.309C280.858 163.318 281.191 163.335 281.191 163.335C281.191 163.335 280.857 163.353 280.206 163.362C279.542 163.368 278.577 163.376 277.315 163.388C274.761 163.399 271.017 163.416 266.199 163.437C256.533 163.457 242.568 163.485 225.313 163.52C216.68 163.53 207.226 163.54 197.076 163.552C195.807 163.553 194.527 163.554 193.237 163.556C192.592 163.557 191.944 163.557 191.294 163.558C190.654 163.554 189.971 163.583 189.299 163.443C187.967 163.175 186.706 162.465 185.814 161.404C184.923 160.352 184.37 158.984 184.35 157.576C184.344 152.167 184.338 146.6 184.332 140.892C184.327 129.478 184.322 117.496 184.317 105.075C184.316 98.864 184.314 92.543 184.313 86.128C184.313 82.921 184.312 79.69 184.312 76.437C184.205 74.79 184.752 73.004 185.923 71.756C187.066 70.487 188.765 69.722 190.489 69.735C216.827 69.742 241.92 69.749 264.745 69.756C270.454 69.764 276.021 69.771 281.43 69.779C284.276 69.838 286.788 72.104 287.219 74.813C287.355 75.489 287.312 76.166 287.32 76.806C287.319 77.456 287.319 78.104 287.318 78.749C287.317 80.039 287.316 81.319 287.314 82.588C287.303 92.737 287.292 102.191 287.282 110.824C287.247 128.079 287.219 142.046 287.199 151.713C287.171 154.13 287.229 156.264 287.13 158.136C286.891 160.025 285.834 161.388 284.823 162.147C283.798 162.933 282.809 163.17 282.174 163.276C281.851 163.331 281.604 163.338 281.438 163.339C281.275 163.34 281.191 163.335 281.191 163.335Z" fill="#1A4A54"/>
<path d="M670.035 208.827L668.718 199.708C664.188 195.61 660.815 190.107 659.364 183.605C656.032 168.672 664.472 153.317 678.867 148.132C696.305 141.851 715.206 152.229 719.264 170.315C722.652 185.412 713.991 200.911 699.366 205.961C692.108 208.467 684.623 208.096 678.074 205.51L678.088 205.52L670.035 208.827Z" fill="#F5FCFF"/>
<path d="M672.986 176.228L677.611 171.604L686.531 179.532L701.426 164.58L705.721 169.205L685.87 188.452L672.986 176.228Z" fill="#15CDF2"/>
<path d="M670.035 208.827C670.035 208.827 670.222 208.735 670.573 208.583C670.946 208.422 671.46 208.201 672.121 207.917C673.494 207.335 675.479 206.493 678.041 205.407L678.015 205.618C678.015 205.618 678.006 205.611 678.001 205.608C677.946 205.568 677.934 205.492 677.974 205.437C678.007 205.391 678.068 205.376 678.118 205.395C681.672 206.763 686.747 207.965 692.78 207.263C694.28 207.082 695.828 206.782 697.4 206.343C698.189 206.135 698.959 205.816 699.761 205.55C700.571 205.302 701.35 204.939 702.136 204.559C705.296 203.092 708.419 200.972 711.132 198.158C713.846 195.352 716.145 191.858 717.668 187.87C719.195 183.889 719.936 179.415 719.624 174.846C719.326 170.278 717.874 165.652 715.423 161.497C714.247 159.381 712.66 157.498 710.988 155.687C709.205 153.986 707.308 152.335 705.123 151.076C703.019 149.728 700.711 148.788 698.4 147.993C696.048 147.33 693.669 146.776 691.271 146.687C686.496 146.38 681.754 147.172 677.577 148.959C673.388 150.718 669.747 153.363 666.893 156.49C664.031 159.616 661.948 163.209 660.651 166.865C658.039 174.223 658.609 181.614 660.629 187.263C662.66 192.999 665.993 197.052 668.836 199.646C669.229 202.595 669.532 204.873 669.741 206.443C669.838 207.199 669.913 207.785 669.967 208.209C670.017 208.609 670.035 208.827 670.035 208.827C670.035 208.827 669.995 208.647 669.932 208.263C669.865 207.849 669.773 207.277 669.654 206.538C669.409 204.962 669.054 202.679 668.594 199.725L668.634 199.8C665.741 197.223 662.35 193.168 660.259 187.395C658.173 181.69 657.55 174.187 660.176 166.697C661.48 162.976 663.585 159.313 666.49 156.123C669.386 152.932 673.089 150.228 677.355 148.428C681.608 146.601 686.439 145.784 691.31 146.093C693.756 146.183 696.182 146.744 698.581 147.42C700.938 148.228 703.291 149.188 705.437 150.561C707.665 151.846 709.6 153.528 711.417 155.265C713.122 157.112 714.738 159.035 715.936 161.193C718.432 165.434 719.904 170.149 720.199 174.805C720.509 179.462 719.743 184.019 718.177 188.066C716.615 192.121 714.264 195.667 711.494 198.508C708.724 201.358 705.542 203.496 702.327 204.968C701.527 205.35 700.735 205.713 699.912 205.96C699.097 206.224 698.315 206.543 697.514 206.749C695.918 207.184 694.347 207.478 692.827 207.651C686.71 208.319 681.593 207.052 678.031 205.624L678.148 205.412C678.153 205.416 678.162 205.422 678.162 205.422C678.216 205.461 678.229 205.537 678.189 205.592C678.175 205.611 678.155 205.626 678.135 205.634C675.517 206.675 673.488 207.481 672.085 208.039C671.427 208.296 670.916 208.496 670.545 208.641C670.201 208.773 670.03 208.837 670.035 208.827Z" fill="#1A4A54"/>
<path d="M87.9902 221.576L88.2113 212.462C96.1263 203.37 98.8583 189.327 90.8353 174.215C62.8323 144.56 20.6562 174.756 39.7103 210.825C52.4992 224.414 68.1853 225.487 79.7033 219.264L79.6913 219.276L87.9902 221.576Z" fill="#F5FCFF"/>
<path d="M87.9902 221.576C87.9902 221.576 87.7952 221.508 87.4332 221.4C87.0472 221.286 86.5172 221.13 85.8342 220.928C84.4172 220.518 82.3672 219.925 79.7232 219.159L79.7742 219.363C79.7742 219.363 79.7822 219.355 79.7862 219.351C79.8352 219.306 79.8382 219.229 79.7922 219.18C79.7542 219.139 79.6922 219.131 79.6452 219.156C76.3142 220.919 71.4702 222.697 65.4602 222.717C63.9652 222.716 62.4082 222.603 60.8132 222.356C60.0132 222.244 59.2192 222.021 58.4002 221.855C57.5752 221.707 56.7672 221.442 55.9502 221.161C52.6722 220.091 49.3552 218.377 46.3592 215.931C43.3632 213.494 40.6932 210.332 38.7272 206.593C36.7582 202.862 35.5042 198.553 35.2732 194.028C35.0282 189.505 35.9102 184.789 37.8292 180.418C38.7352 178.201 40.0732 176.164 41.5022 174.188C43.0542 172.307 44.7232 170.462 46.7222 168.968C48.6312 167.396 50.7872 166.201 52.9642 165.148C55.1962 164.22 57.4682 163.395 59.8142 163.026C64.4692 162.162 69.2212 162.383 73.5352 163.646C77.8582 164.881 81.7462 167.052 84.9182 169.787C88.0982 172.521 90.5672 175.806 92.2712 179.245C95.7032 186.167 96.0132 193.494 94.6932 199.282C93.3732 205.157 90.5752 209.531 88.0882 212.414C88.0492 215.358 88.0192 217.631 87.9982 219.198C87.9922 219.952 87.9872 220.536 87.9842 220.959C87.9822 221.359 87.9902 221.576 87.9902 221.576C87.9902 221.576 88.0082 221.394 88.0252 221.01C88.0422 220.595 88.0652 220.022 88.0952 219.283C88.1502 217.706 88.2312 215.421 88.3342 212.465L88.3042 212.543C90.8432 209.671 93.6982 205.287 95.0722 199.37C96.4502 193.52 96.1792 186.075 92.7182 179.025C90.9992 175.523 88.5002 172.172 85.2702 169.379C82.0492 166.585 78.0932 164.364 73.6902 163.098C69.2972 161.803 64.4542 161.57 59.7052 162.447C57.3132 162.823 54.9952 163.66 52.7182 164.607C50.4972 165.678 48.2992 166.898 46.3522 168.5C44.3152 170.025 42.6112 171.905 41.0312 173.825C39.5732 175.84 38.2122 177.92 37.2892 180.181C35.3362 184.641 34.4452 189.447 34.7032 194.056C34.9472 198.668 36.2362 203.054 38.2512 206.846C40.2632 210.646 42.9902 213.853 46.0462 216.318C49.1032 218.792 52.4812 220.518 55.8132 221.586C56.6442 221.867 57.4652 222.13 58.3022 222.277C59.1332 222.441 59.9402 222.662 60.7512 222.77C62.3702 223.01 63.9482 223.113 65.4622 223.104C71.5502 223.04 76.4282 221.193 79.7602 219.371L79.6202 219.176C79.6162 219.18 79.6082 219.188 79.6082 219.188C79.5592 219.233 79.5562 219.309 79.6012 219.358C79.6172 219.375 79.6382 219.387 79.6592 219.393C82.3542 220.107 84.4412 220.661 85.8862 221.043C86.5632 221.218 87.0882 221.354 87.4702 221.453C87.8212 221.543 87.9972 221.585 87.9902 221.576Z" fill="#1A4A54"/>
<path d="M75.4202 190.304C72.4082 194.26 76.8792 198.73 80.8342 195.718C83.8482 191.763 79.3762 187.291 75.4202 190.304Z" fill="#1A4A54"/>
<path d="M62.5593 190.304C59.5473 194.26 64.0183 198.73 67.9733 195.718C70.9873 191.763 66.5153 187.291 62.5593 190.304Z" fill="#1A4A54"/>
<path d="M49.6994 190.304C46.6864 194.26 51.1584 198.731 55.1134 195.719C58.1264 191.763 53.6554 187.291 49.6994 190.304Z" fill="#1A4A54"/>
<path d="M526.41 452.645H216.847C208.398 452.645 201.549 445.796 201.549 437.347V210.204C201.549 201.755 208.398 194.906 216.847 194.906H526.41C534.859 194.906 541.708 201.755 541.708 210.204V437.346C541.709 445.795 534.859 452.645 526.41 452.645Z" fill="#F5FCFF"/>
<path d="M541.84 229.7H201.549V209.981C201.549 201.655 208.298 194.906 216.624 194.906H526.078C534.783 194.906 541.841 201.963 541.841 210.669L541.84 229.7Z" fill="#D3EEF7"/>
<path d="M526.41 452.645C526.41 452.645 526.665 452.623 527.169 452.593C527.42 452.572 527.737 452.574 528.109 452.525C528.481 452.466 528.913 452.398 529.405 452.321C529.889 452.208 530.431 452.066 531.026 451.898C531.6 451.668 532.26 451.488 532.911 451.136C534.244 450.514 535.716 449.587 537.094 448.215C538.477 446.859 539.774 445.053 540.617 442.809C540.719 442.528 540.823 442.244 540.928 441.956C541.02 441.664 541.085 441.361 541.166 441.058C541.348 440.457 541.416 439.818 541.518 439.173C541.661 437.875 541.637 436.505 541.631 435.08C541.624 429.384 541.616 422.813 541.607 415.416C541.587 385.821 541.559 343.003 541.524 290.097C541.519 276.869 541.513 263.011 541.507 248.572C541.504 241.352 541.502 233.987 541.499 226.482C541.498 222.73 541.496 218.943 541.495 215.122C541.476 213.217 541.536 211.28 541.451 209.378C541.349 207.482 540.886 205.597 540.077 203.86C538.473 200.379 535.46 197.53 531.813 196.142C529.993 195.434 528.038 195.121 526.064 195.129C524.071 195.129 522.069 195.13 520.06 195.131C512.023 195.133 503.859 195.135 495.574 195.137C479.004 195.141 461.95 195.144 444.461 195.148C374.507 195.154 297.599 195.161 216.873 195.168C214.389 195.179 211.924 195.803 209.736 196.955C207.568 198.142 205.688 199.848 204.316 201.897C202.973 203.962 202.106 206.339 201.879 208.789C201.792 210.007 201.805 211.261 201.807 212.51V216.251C201.807 226.219 201.806 236.122 201.806 245.952C201.805 265.613 201.803 284.986 201.802 304.021C201.797 342.092 201.792 378.815 201.787 413.797C201.786 418.17 201.785 422.515 201.784 426.833C201.784 428.992 201.783 431.144 201.783 433.289C201.819 435.43 201.671 437.591 201.977 439.655C202.597 443.808 205.044 447.611 208.505 449.892C210.23 451.036 212.185 451.816 214.208 452.17C216.225 452.536 218.319 452.382 220.39 452.417C236.962 452.422 253.05 452.426 268.605 452.43C299.715 452.442 328.693 452.452 355.148 452.462C408.055 452.497 450.869 452.525 480.46 452.545C495.251 452.566 506.737 452.583 514.53 452.594C518.421 452.605 521.39 452.614 523.39 452.62C525.388 452.627 526.41 452.645 526.41 452.645C526.41 452.645 525.387 452.663 523.391 452.672C521.391 452.678 518.422 452.686 514.531 452.698C506.738 452.709 495.253 452.726 480.461 452.747C450.869 452.767 408.055 452.795 355.149 452.83C328.694 452.84 299.716 452.85 268.606 452.862C253.051 452.866 236.963 452.871 220.391 452.875C218.329 452.84 216.232 453 214.129 452.624C212.044 452.259 210.028 451.457 208.249 450.278C204.681 447.929 202.155 444.01 201.514 439.726C201.198 437.569 201.351 435.43 201.312 433.288C201.312 431.143 201.311 428.991 201.311 426.832C201.31 422.514 201.309 418.169 201.308 413.796C201.303 378.814 201.298 342.091 201.293 304.02C201.292 284.984 201.29 265.612 201.289 245.951C201.289 236.12 201.288 226.218 201.288 216.25V212.509C201.287 211.261 201.271 210.017 201.362 208.739C201.597 206.205 202.494 203.743 203.883 201.608C205.302 199.489 207.247 197.723 209.49 196.496C211.754 195.303 214.307 194.658 216.874 194.647C297.599 194.654 374.507 194.661 444.462 194.668C461.95 194.672 479.004 194.675 495.575 194.679C503.86 194.681 512.024 194.683 520.061 194.685C522.07 194.686 524.072 194.686 526.065 194.687C528.076 194.68 530.103 195.003 531.972 195.733C535.724 197.163 538.821 200.096 540.47 203.678C541.301 205.465 541.777 207.405 541.88 209.355C541.965 211.304 541.902 213.207 541.921 215.123C541.92 218.944 541.918 222.731 541.917 226.483C541.914 233.988 541.912 241.353 541.909 248.573C541.903 263.012 541.897 276.871 541.892 290.098C541.857 343.005 541.829 385.822 541.809 415.417C541.8 422.814 541.792 429.385 541.785 435.081C541.786 436.502 541.807 437.877 541.658 439.191C541.554 439.842 541.483 440.486 541.297 441.092C541.214 441.397 541.148 441.703 541.054 441.997C540.947 442.287 540.842 442.573 540.738 442.857C539.879 445.118 538.565 446.932 537.167 448.291C535.774 449.666 534.288 450.591 532.945 451.209C532.289 451.558 531.624 451.735 531.046 451.962C530.448 452.127 529.903 452.265 529.416 452.374C528.922 452.447 528.488 452.511 528.114 452.566C527.74 452.611 527.423 452.604 527.171 452.621C526.666 452.641 526.41 452.645 526.41 452.645Z" fill="#1A4A54"/>
<path d="M223.856 214.391C223.856 216.592 222.072 218.376 219.871 218.376C217.67 218.376 215.886 216.592 215.886 214.391C215.886 212.19 217.67 210.406 219.871 210.406C222.072 210.406 223.856 212.19 223.856 214.391Z" fill="#F5FCFF"/>
<path d="M235.81 214.391C235.81 216.592 234.026 218.376 231.825 218.376C229.624 218.376 227.84 216.592 227.84 214.391C227.84 212.19 229.624 210.406 231.825 210.406C234.026 210.406 235.81 212.19 235.81 214.391Z" fill="#F5FCFF"/>
<path d="M247.763 214.391C247.763 216.592 245.979 218.376 243.778 218.376C241.577 218.376 239.793 216.592 239.793 214.391C239.793 212.19 241.577 210.406 243.778 210.406C245.979 210.406 247.763 212.19 247.763 214.391Z" fill="#F5FCFF"/>
<path d="M238.5 271.536C240.232 270.489 242.076 269.696 243.978 269.155L245.106 263.733L254.267 263.572L255.585 268.951C257.505 269.424 259.376 270.152 261.144 271.138L265.774 268.103L272.365 274.467L269.495 279.2C270.542 280.933 271.336 282.777 271.876 284.679L277.298 285.807L277.459 294.968L272.08 296.287C271.607 298.206 270.879 300.077 269.893 301.845L272.927 306.475L266.564 313.066L261.831 310.196C260.099 311.243 258.254 312.036 256.352 312.576L255.223 317.998L246.062 318.159L244.743 312.78C242.824 312.307 240.953 311.578 239.185 310.593L234.555 313.628L227.964 307.264L230.834 302.531C229.787 300.799 228.993 298.955 228.453 297.052L223.031 295.924L222.87 286.763L228.249 285.444C228.722 283.525 229.451 281.654 230.436 279.886L227.401 275.256L233.764 268.665L238.5 271.536ZM243.383 283.74C239.613 287.645 239.722 293.868 243.627 297.638C247.532 301.408 253.755 301.299 257.525 297.394C261.295 293.489 261.186 287.266 257.281 283.496C253.376 279.725 247.154 279.835 243.383 283.74Z" fill="#C4E4F2"/>
<path d="M495.226 374.834C496.272 374.202 497.386 373.722 498.535 373.396L499.217 370.12L504.751 370.023L505.547 373.272C506.707 373.558 507.837 373.998 508.905 374.593L511.702 372.76L515.684 376.605L513.95 379.464C514.583 380.511 515.062 381.625 515.388 382.774L518.663 383.456L518.76 388.99L515.511 389.787C515.225 390.946 514.785 392.076 514.19 393.144L516.023 395.941L512.179 399.923L509.32 398.189C508.273 398.821 507.159 399.301 506.01 399.627L505.328 402.902L499.794 402.999L498.997 399.75C497.837 399.464 496.707 399.024 495.639 398.429L492.842 400.262L488.86 396.417L490.594 393.558C489.962 392.511 489.482 391.398 489.156 390.248L485.881 389.566L485.784 384.032L489.033 383.235C489.319 382.076 489.759 380.946 490.354 379.878L488.521 377.081L492.365 373.099L495.226 374.834ZM498.175 382.206C495.897 384.565 495.963 388.324 498.323 390.602C500.682 392.88 504.441 392.814 506.718 390.454C508.996 388.095 508.93 384.336 506.571 382.058C504.212 379.781 500.453 379.847 498.175 382.206Z" fill="#C4E4F2"/>
<path d="M350.421 373.052C352.153 372.005 353.997 371.212 355.899 370.671L357.027 365.249L366.188 365.088L367.506 370.467C369.426 370.94 371.297 371.668 373.065 372.654L377.695 369.619L384.286 375.983L381.416 380.716C382.463 382.449 383.257 384.293 383.796 386.195L389.218 387.323L389.379 396.484L384 397.803C383.527 399.722 382.798 401.593 381.813 403.361L384.847 407.991L378.484 414.583L373.751 411.713C372.019 412.76 370.174 413.553 368.272 414.093L367.143 419.515L357.983 419.676L356.664 414.297C354.745 413.824 352.874 413.095 351.106 412.11L346.476 415.145L339.885 408.781L342.755 404.048C341.708 402.316 340.914 400.472 340.374 398.569L334.952 397.441L334.791 388.28L340.17 386.961C340.643 385.042 341.372 383.171 342.357 381.403L339.322 376.773L345.686 370.182L350.421 373.052ZM355.304 385.255C351.534 389.16 351.643 395.383 355.548 399.153C359.453 402.923 365.676 402.814 369.446 398.909C373.216 395.004 373.107 388.781 369.202 385.011C365.296 381.241 359.075 381.35 355.304 385.255Z" fill="#D3EEF7"/>
<path d="M401.18 407.179C402.173 406.579 403.231 406.123 404.322 405.813L404.969 402.703L410.224 402.611L410.98 405.696C412.081 405.967 413.154 406.385 414.169 406.95L416.825 405.209L420.606 408.86L418.96 411.575C419.561 412.569 420.016 413.627 420.326 414.718L423.436 415.365L423.528 420.62L420.443 421.377C420.172 422.478 419.754 423.551 419.189 424.565L420.93 427.221L417.28 431.002L414.565 429.356C413.571 429.956 412.513 430.412 411.422 430.721L410.775 433.831L405.52 433.923L404.764 430.837C403.663 430.566 402.59 430.148 401.576 429.583L398.92 431.324L395.139 427.673L396.785 424.958C396.185 423.964 395.729 422.906 395.419 421.815L392.309 421.168L392.217 415.913L395.303 415.156C395.574 414.055 395.993 412.982 396.557 411.968L394.816 409.312L398.466 405.531L401.18 407.179ZM403.981 414.18C401.818 416.42 401.881 419.99 404.121 422.153C406.361 424.316 409.931 424.253 412.093 422.013C414.256 419.773 414.193 416.203 411.953 414.041C409.713 411.877 406.144 411.94 403.981 414.18Z" fill="#C4E4F2"/>
<path d="M287.181 405.466C287.808 405.087 288.475 404.8 289.162 404.605L289.57 402.644L292.884 402.586L293.361 404.531C294.055 404.702 294.732 404.966 295.372 405.322L297.047 404.224L299.431 406.526L298.393 408.238C298.772 408.865 299.059 409.532 299.254 410.22L301.215 410.628L301.273 413.942L299.327 414.419C299.156 415.113 298.892 415.79 298.536 416.429L299.634 418.104L297.332 420.488L295.62 419.45C294.993 419.829 294.326 420.116 293.638 420.311L293.23 422.272L289.917 422.33L289.44 420.384C288.746 420.213 288.069 419.949 287.43 419.593L285.755 420.691L283.371 418.389L284.409 416.677C284.03 416.05 283.743 415.383 283.548 414.695L281.587 414.287L281.529 410.973L283.475 410.496C283.646 409.802 283.91 409.125 284.266 408.486L283.168 406.811L285.47 404.427L287.181 405.466ZM288.948 409.88C287.584 411.293 287.624 413.543 289.036 414.907C290.448 416.271 292.699 416.231 294.063 414.819C295.427 413.407 295.387 411.156 293.975 409.792C292.562 408.428 290.311 408.467 288.948 409.88Z" fill="#D9F4FA"/>
<path d="M448.881 268.814C450.613 267.767 452.457 266.974 454.359 266.433L455.487 261.011L464.648 260.85L465.966 266.229C467.886 266.702 469.757 267.43 471.525 268.416L476.155 265.381L482.746 271.745L479.876 276.478C480.923 278.211 481.717 280.055 482.257 281.957L487.678 283.085L487.839 292.246L482.46 293.565C481.987 295.484 481.259 297.355 480.273 299.123L483.307 303.753L476.944 310.344L472.211 307.474C470.479 308.521 468.634 309.314 466.732 309.854L465.603 315.276L456.443 315.437L455.124 310.058C453.205 309.585 451.334 308.856 449.566 307.871L444.936 310.906L438.345 304.542L441.215 299.809C440.168 298.077 439.374 296.233 438.834 294.331L433.412 293.203L433.251 284.042L438.63 282.723C439.103 280.804 439.832 278.933 440.817 277.165L437.782 272.535L444.146 265.944L448.881 268.814ZM453.764 281.018C449.994 284.923 450.103 291.146 454.008 294.916C457.913 298.686 464.136 298.577 467.906 294.672C471.676 290.767 471.567 284.544 467.662 280.774C463.757 277.003 457.535 277.113 453.764 281.018Z" fill="#C4E4F2"/>
<path d="M254.176 387.122C255.083 386.574 256.048 386.158 257.044 385.876L257.635 383.037L262.431 382.953L263.121 385.769C264.126 386.017 265.106 386.398 266.031 386.914L268.455 385.325L271.906 388.657L270.404 391.135C270.952 392.042 271.368 393.008 271.65 394.004L274.489 394.595L274.573 399.391L271.757 400.081C271.509 401.086 271.128 402.065 270.612 402.991L272.201 405.415L268.869 408.866L266.391 407.363C265.484 407.911 264.519 408.327 263.523 408.609L262.932 411.448L258.136 411.532L257.446 408.716C256.441 408.468 255.462 408.087 254.536 407.571L252.112 409.16L248.661 405.828L250.163 403.35C249.615 402.443 249.199 401.478 248.917 400.482L246.078 399.891L245.994 395.095L248.81 394.404C249.058 393.399 249.439 392.42 249.955 391.494L248.366 389.07L251.698 385.619L254.176 387.122ZM256.732 393.511C254.758 395.556 254.815 398.813 256.86 400.787C258.905 402.761 262.162 402.704 264.136 400.659C266.11 398.615 266.053 395.357 264.008 393.383C261.964 391.409 258.706 391.466 256.732 393.511Z" fill="#D9F4FA"/>
<path d="M249.008 394.063C241.618 392.264 235.548 389.842 230.801 386.798L241.013 362.995C245.492 365.672 250.507 367.817 256.063 369.43C261.616 371.045 266.947 371.852 272.053 371.852C276.441 371.852 279.578 371.416 281.459 370.538C283.34 369.662 284.281 368.348 284.281 366.595C284.281 364.567 283.049 363.044 280.586 362.028C278.121 361.014 274.069 359.907 268.425 358.707C261.169 357.14 255.122 355.455 250.285 353.656C245.448 351.857 241.236 348.906 237.654 344.8C234.07 340.696 232.279 335.137 232.279 328.124C232.279 322.035 233.935 316.5 237.251 311.519C240.564 306.537 245.515 302.617 252.099 299.756C258.683 296.898 266.678 295.466 276.084 295.466C282.534 295.466 288.87 296.182 295.097 297.611C301.323 299.043 306.808 301.14 311.558 303.908L302.018 327.572C292.79 322.776 284.056 320.376 275.815 320.376C267.663 320.376 263.587 322.406 263.587 326.465C263.587 328.403 264.796 329.856 267.215 330.824C269.633 331.793 273.619 332.83 279.174 333.937C286.34 335.321 292.386 336.913 297.314 338.711C302.24 340.51 306.519 343.44 310.146 347.498C313.774 351.559 315.588 357.095 315.588 364.105C315.588 370.194 313.929 375.708 310.616 380.642C307.301 385.578 302.352 389.498 295.768 392.405C289.184 395.31 281.189 396.763 271.783 396.763C263.99 396.761 256.399 395.862 249.008 394.063Z" fill="#15CDF2"/>
<path d="M403.2 369.914V394.547H324.995V297.678H401.452V322.311H356.169V333.659H395.944V357.184H356.169V369.914H403.2Z" fill="#15CDF2"/>
<path d="M464.463 345.342L429.436 308.716C433.638 304.454 438.54 300.993 443.914 298.493C468.87 286.884 498.681 298.479 509.954 324.18C521.227 349.881 509.967 380.583 485.012 392.192C460.056 403.801 430.245 392.206 418.972 366.505C418.14 364.608 417.421 362.661 416.818 360.675L464.463 345.342Z" fill="#15CDF2"/>
<path d="M464.463 345.427L416.818 360.759C415.312 355.796 414.546 350.626 414.546 345.427C414.546 331.394 420.126 317.955 429.977 308.26L464.463 345.427Z" fill="#15CDF2"/>
<g opacity="0.3">
<path d="M464.463 345.427L416.818 360.759C415.312 355.796 414.546 350.626 414.546 345.427C414.546 331.394 420.126 317.955 429.977 308.26L464.463 345.427Z" fill="#063547"/>
</g>
<path d="M464.463 345.427L427.512 379.861C427.512 379.861 419.774 371.53 416.818 360.759L464.463 345.427Z" fill="#D3EEF7"/>
<path d="M317.87 251.376C318.777 250.828 319.742 250.412 320.738 250.13L321.329 247.291L326.125 247.207L326.815 250.023C327.82 250.271 328.8 250.652 329.725 251.168L332.149 249.579L335.6 252.911L334.098 255.389C334.646 256.296 335.062 257.262 335.344 258.257L338.182 258.848L338.266 263.644L335.45 264.334C335.202 265.339 334.821 266.318 334.305 267.244L335.894 269.668L332.562 273.119L330.084 271.616C329.177 272.164 328.212 272.579 327.216 272.862L326.625 275.701L321.829 275.785L321.139 272.969C320.134 272.721 319.155 272.34 318.229 271.824L315.805 273.413L312.354 270.081L313.856 267.603C313.308 266.696 312.892 265.731 312.61 264.735L309.771 264.144L309.687 259.348L312.503 258.658C312.751 257.653 313.132 256.674 313.648 255.748L312.059 253.324L315.391 249.873L317.87 251.376ZM320.427 257.766C318.453 259.811 318.51 263.068 320.555 265.042C322.6 267.016 325.857 266.959 327.831 264.914C329.805 262.869 329.748 259.612 327.703 257.638C325.659 255.664 322.401 255.721 320.427 257.766Z" fill="#C4E4F2"/>
<path d="M402.941 165.258L386.587 105.358C383.004 90.325 371.269 79.88 356.341 83.878L354.983 84.328C341.317 88.857 333.414 103.118 336.829 117.104C340.007 130.117 343.685 144.453 346.022 151.225C350.86 165.243 365.664 162.767 365.664 162.767C365.696 162.758 368.232 171.408 369.422 175.594L368.873 186.325L379.777 180.116L402.941 165.258Z" fill="#FFBF9D"/>
<path d="M365.664 162.767C365.664 162.767 374.709 160.347 382.196 151.275C382.196 151.275 381.294 163.318 366.828 166.706L365.664 162.767Z" fill="#E3B6A4"/>
<path d="M346.271 129.277C346.585 130.351 347.754 130.97 348.881 130.663C350.006 130.356 350.667 129.238 350.352 128.164C350.038 127.09 348.87 126.469 347.744 126.776C346.617 127.083 345.957 128.203 346.271 129.277Z" fill="#1A4A54"/>
<path d="M341.882 122.329C342.218 122.508 343.367 120.877 345.532 120.166C347.684 119.424 349.641 120.011 349.787 119.669C349.864 119.514 349.453 119.124 348.595 118.85C347.749 118.575 346.427 118.471 345.081 118.924C343.736 119.378 342.767 120.249 342.284 120.973C341.788 121.703 341.72 122.252 341.882 122.329Z" fill="#1A4A54"/>
<path d="M364.415 123.417C364.729 124.491 365.898 125.11 367.025 124.802C368.151 124.495 368.811 123.378 368.496 122.303C368.182 121.229 367.013 120.609 365.887 120.915C364.76 121.223 364.101 122.343 364.415 123.417Z" fill="#1A4A54"/>
<path d="M363.251 115.803C363.588 115.982 364.739 114.351 366.903 113.64C369.055 112.899 371.011 113.486 371.159 113.143C371.235 112.988 370.827 112.598 369.966 112.325C369.12 112.049 367.798 111.947 366.452 112.398C365.107 112.852 364.138 113.724 363.654 114.447C363.16 115.177 363.09 115.727 363.251 115.803Z" fill="#1A4A54"/>
<path d="M361 134.996C360.969 134.87 359.548 135.083 357.277 135.526C356.705 135.652 356.146 135.716 355.929 135.369C355.667 135.013 355.7 134.341 355.755 133.61C355.831 132.101 355.911 130.52 355.995 128.863C356.279 122.123 356.289 116.655 356.018 116.646C355.746 116.637 355.296 122.093 355.012 128.833C354.956 130.491 354.9 132.071 354.849 133.583C354.848 134.28 354.725 135.111 355.281 135.846C355.567 136.209 356.071 136.375 356.457 136.353C356.847 136.344 357.16 136.247 357.439 136.173C359.669 135.563 361.032 135.122 361 134.996Z" fill="#1A4A54"/>
<path d="M360.309 109.269C360.786 109.724 362.693 108.447 365.229 107.546C367.749 106.593 370.028 106.334 370.098 105.679C370.121 105.37 369.525 105.016 368.478 104.867C367.438 104.715 365.95 104.819 364.433 105.374C362.918 105.932 361.716 106.814 361.02 107.602C360.317 108.393 360.091 109.049 360.309 109.269Z" fill="#1A4A54"/>
<path d="M339.675 116.002C340.282 116.353 341.891 115.283 344.011 114.589C346.11 113.832 348.045 113.683 348.298 113.036C348.401 112.729 347.961 112.323 347.027 112.104C346.105 111.882 344.687 111.911 343.236 112.409C341.786 112.909 340.66 113.755 340.079 114.494C339.487 115.237 339.4 115.823 339.675 116.002Z" fill="#1A4A54"/>
<path d="M388.891 116.162C389.096 115.979 397.615 110.097 400.496 119.822C403.377 129.547 393.02 130.434 392.92 130.16C392.821 129.886 388.891 116.162 388.891 116.162Z" fill="#FFBF9D"/>
<path d="M394.799 125.596C394.832 125.552 395.004 125.664 395.329 125.711C395.646 125.756 396.152 125.702 396.603 125.362C397.518 124.681 397.9 122.793 397.428 121.026C397.191 120.134 396.755 119.346 396.235 118.741C395.727 118.118 395.12 117.757 394.575 117.818C394.025 117.852 393.75 118.27 393.713 118.579C393.663 118.889 393.783 119.065 393.736 119.097C393.716 119.129 393.479 118.996 393.438 118.571C393.421 118.366 393.467 118.102 393.64 117.848C393.817 117.589 394.131 117.39 394.503 117.323C395.268 117.152 396.148 117.642 396.72 118.306C397.334 118.961 397.844 119.841 398.11 120.843C398.628 122.821 398.169 124.952 396.883 125.775C396.252 126.157 395.62 126.119 395.257 125.977C394.887 125.825 394.771 125.623 394.799 125.596Z" fill="#E3B6A4"/>
<path d="M368.264 134.384C367.922 134.459 368.549 136.702 367.077 138.833C365.61 140.968 363.15 141.389 363.22 141.707C363.228 141.856 363.875 141.993 364.892 141.737C365.891 141.492 367.246 140.768 368.147 139.465C369.043 138.159 369.18 136.716 368.998 135.774C368.819 134.813 368.413 134.328 368.264 134.384Z" fill="#1A4A54"/>
<path d="M313.476 109.907C313.46 109.289 313.735 108.693 314.156 108.239C315.074 107.249 316.382 106.954 317.615 106.564C320.685 105.594 323.508 103.892 325.841 101.676C324.737 101.476 323.666 101.153 322.678 100.621C320.639 99.523 319.02 97.392 319.113 95.079C319.13 94.645 319.237 94.163 319.598 93.922C320.172 93.54 320.909 93.995 321.496 94.355C323.426 95.541 324.971 95.835 327.065 94.973C328.365 94.437 329.575 93.749 330.433 92.777C330.462 92.721 330.485 92.661 330.515 92.605C330.865 91.933 331.209 91.287 331.552 90.66C331.552 90.658 331.553 90.656 331.554 90.654L331.553 90.657C334.127 85.939 336.521 82.488 339.37 80.218C343.545 76.891 351.25 73.748 356.585 73.569C361.921 73.39 367.562 76.078 369.763 80.942C371.837 77.768 376.009 76.544 379.794 76.894L379.868 76.832C384.032 77.05 387.357 80.388 389.613 83.895C389.736 84.087 389.853 84.284 389.973 84.478C391.848 86.115 394.093 87.327 396.514 87.913C396.941 88.016 397.435 88.151 397.605 88.557C397.773 88.958 397.525 89.407 397.258 89.751C396.549 90.667 395.624 91.405 394.59 91.926C395.206 92.736 395.875 93.501 396.627 94.198C397.267 94.791 398.029 95.502 397.881 96.361C397.767 97.025 397.102 97.483 396.435 97.581C395.768 97.678 395.095 97.494 394.446 97.311C395.166 98.191 395.885 99.071 396.605 99.95C395.315 100.594 393.872 100.905 392.43 100.899C392.702 104.727 394.085 111.553 393.887 114.262C391.321 115.077 390.61 114.984 389.438 115.804C387.922 116.865 389.453 119.652 387.01 119.46C385.767 119.362 382.793 115.647 382.081 114.623C377.356 107.825 374.124 99.997 372.666 91.849C370.611 90.653 368.324 89.856 365.971 89.518L366.185 89.62C361.799 89.426 356.898 89.41 353.685 92.401C351.192 94.722 350.379 98.269 348.915 101.344C346.141 107.171 342.181 111.021 336.082 113.131C336.805 117.588 338.735 124.655 339.721 128.721L333.91 121.727L333.917 121.76C333.501 121.373 333.131 120.967 332.769 120.559L332.65 120.438L332.645 120.42C332.068 119.763 331.506 119.099 330.839 118.478C330.829 118.494 330.82 118.508 330.811 118.524C329.213 121.085 325.143 119.113 326.157 116.27C326.358 115.706 326.641 115.172 327.004 114.693C326.29 115.92 324.945 116.807 323.525 116.796C322.106 116.784 320.705 115.77 320.413 114.381C320.214 113.433 320.628 112.408 321.355 111.793C319.643 112.451 317.737 112.604 315.949 112.189C314.776 111.915 313.512 111.268 313.476 109.907Z" fill="#FBE7A1"/>
<path d="M365.774 83.912C365.756 83.957 366.482 84.111 367.59 84.791C368.689 85.47 370.093 86.803 371.183 88.862C371.731 89.883 372.235 91.059 372.626 92.369C373.022 93.677 373.336 95.111 373.677 96.62C374.023 98.127 374.383 99.72 374.963 101.317C375.253 102.114 375.596 102.91 376.018 103.682C376.439 104.439 376.914 105.255 377.734 105.769C378.391 106.191 379.28 106.2 379.943 105.845C380.616 105.507 381.136 104.94 381.445 104.285C382.041 102.944 381.865 101.521 381.736 100.259L381.448 100.384C382.256 101.312 383.073 102.222 384.068 102.847C385.052 103.481 386.231 103.743 387.285 103.528C387.81 103.421 388.302 103.186 388.675 102.833C389.058 102.481 389.273 102.012 389.379 101.554C389.473 101.091 389.453 100.619 389.305 100.203C389.155 99.788 388.871 99.437 388.518 99.233L388.407 99.413C389.877 100.335 391.235 100.661 392.147 100.793C392.607 100.859 392.963 100.873 393.204 100.879C393.444 100.878 393.568 100.871 393.568 100.862C393.568 100.851 393.444 100.84 393.207 100.821C392.969 100.797 392.617 100.764 392.165 100.682C391.269 100.517 389.943 100.162 388.521 99.236L388.41 99.416C389.04 99.78 389.333 100.663 389.135 101.501C389.033 101.916 388.833 102.336 388.493 102.639C388.158 102.948 387.71 103.16 387.228 103.252C386.257 103.44 385.157 103.193 384.232 102.587C383.291 101.987 382.498 101.099 381.695 100.168L381.354 99.773L381.407 100.294C381.536 101.554 381.681 102.927 381.133 104.139C380.857 104.725 380.379 105.24 379.789 105.534C379.201 105.841 378.482 105.832 377.912 105.472C377.197 105.029 376.731 104.261 376.318 103.516C375.906 102.763 375.567 101.984 375.28 101.201C374.706 99.633 374.34 98.052 373.987 96.549C373.638 95.044 373.313 93.606 372.899 92.285C372.491 90.962 371.967 89.775 371.396 88.745C370.261 86.669 368.798 85.331 367.659 84.677C366.511 84.019 365.774 83.912 365.774 83.912Z" fill="#E2C68F"/>
<path d="M325.901 110.888C325.899 110.893 325.947 110.915 326.044 110.951C326.161 110.992 326.303 111.042 326.477 111.104C326.667 111.174 326.905 111.251 327.195 111.31C327.483 111.378 327.814 111.465 328.196 111.507C329.704 111.74 332.009 111.732 334.612 110.785C337.191 109.854 340.063 107.985 342.25 105.052C344.482 102.16 346.077 98.405 347.088 94.349C347.609 92.318 347.925 90.3 348.367 88.392C348.804 86.485 349.373 84.672 350.253 83.113C351.116 81.551 352.27 80.244 353.609 79.402C354.272 78.968 354.991 78.701 355.696 78.508C356.409 78.335 357.116 78.279 357.788 78.297C359.137 78.343 360.329 78.725 361.287 79.197C362.25 79.675 362.977 80.267 363.514 80.8C364.551 81.915 364.837 82.743 364.884 82.714C364.89 82.712 364.871 82.663 364.828 82.568C364.774 82.455 364.71 82.319 364.631 82.153C364.447 81.793 364.119 81.29 363.611 80.708C363.08 80.151 362.351 79.531 361.374 79.025C360.402 78.525 359.187 78.115 357.797 78.052C357.104 78.025 356.373 78.076 355.632 78.248C354.9 78.439 354.144 78.716 353.455 79.159C352.06 80.021 350.864 81.365 349.973 82.958C349.064 84.55 348.479 86.396 348.035 88.317C347.584 90.24 347.266 92.253 346.75 94.266C345.747 98.291 344.178 102.001 341.995 104.859C339.854 107.758 337.057 109.606 334.526 110.556C331.976 111.517 329.71 111.564 328.214 111.375C326.705 111.178 325.915 110.84 325.901 110.888Z" fill="#E2C68F"/>
<path d="M322.741 105.024C322.735 105.048 322.954 105.118 323.357 105.227C323.758 105.343 324.354 105.456 325.097 105.543C325.84 105.637 326.733 105.664 327.723 105.614C328.711 105.547 329.794 105.393 330.903 105.107C332.008 104.808 333.026 104.408 333.919 103.979C334.804 103.533 335.568 103.069 336.168 102.621C336.77 102.178 337.233 101.786 337.524 101.487C337.821 101.194 337.977 101.024 337.96 101.007C337.915 100.959 337.25 101.597 336.027 102.419C335.419 102.835 334.655 103.269 333.78 103.69C332.897 104.095 331.897 104.478 330.813 104.771C329.727 105.051 328.668 105.212 327.701 105.295C326.732 105.36 325.853 105.359 325.119 105.298C323.65 105.187 322.756 104.96 322.741 105.024Z" fill="#E2C68F"/>
<path d="M328.025 194.956C328.025 194.956 326.579 190.865 331.49 185.357C336.401 179.849 367.289 168.224 367.289 168.224C367.289 168.224 378.746 179.381 391.712 172.326C401.802 166.836 401.021 158.23 401.021 158.23L440.271 164.8L441.606 194.458L427.543 194.54L328.025 194.956Z" fill="#15CDF2"/>
<path d="M396.351 245.303L444.766 230.121L428.952 191.81L459.481 192.394C459.481 192.394 481.51 235.377 473.177 247.923C465.587 259.35 403.103 261.654 403.103 261.654L396.351 245.303Z" fill="#FFBF9D"/>
<path d="M410.038 270.216L409.834 272.828C409.652 275.158 406.824 276.765 404.161 276.132L354.58 271.11L355.492 263.262L405.549 264.987C408.876 264.961 410.273 267.216 410.038 270.216Z" fill="#5A96B8"/>
<path d="M336.13 292.689C330.406 294.941 323.954 295.488 317.55 293.868C309.662 291.873 303.023 286.925 298.857 279.936C294.69 272.947 293.494 264.754 295.49 256.866C299.609 240.582 316.208 230.686 332.493 234.805C340.381 236.801 347.02 241.749 351.187 248.737C355.354 255.726 356.549 263.918 354.554 271.807C352.053 281.686 344.959 289.216 336.13 292.689ZM314.657 237.883C306.418 241.124 299.8 248.148 297.468 257.366C295.606 264.726 296.722 272.371 300.61 278.891C304.497 285.412 310.692 290.029 318.052 291.89C325.412 293.752 333.057 292.637 339.577 288.748C346.098 284.861 350.714 278.666 352.576 271.306C354.438 263.947 353.322 256.302 349.435 249.781C345.548 243.26 339.353 238.644 331.993 236.782C326.018 235.271 319.996 235.782 314.657 237.883Z" fill="#1A4A54"/>
<path d="M335.956 290.876C330.232 293.128 323.78 293.675 317.376 292.055C309.488 290.06 302.849 285.112 298.683 278.123C294.516 271.134 293.32 262.941 295.316 255.053C299.435 238.769 316.034 228.873 332.319 232.992C340.207 234.988 346.846 239.936 351.013 246.924C355.18 253.913 356.375 262.106 354.38 269.994C351.879 279.874 344.785 287.403 335.956 290.876ZM314.483 236.07C306.244 239.311 299.626 246.335 297.294 255.553C295.432 262.913 296.548 270.558 300.436 277.078C304.323 283.599 310.518 288.216 317.878 290.077C325.238 291.939 332.883 290.824 339.403 286.935C345.924 283.048 350.541 276.853 352.402 269.493C354.264 262.134 353.148 254.489 349.261 247.968C345.374 241.447 339.179 236.831 331.819 234.969C325.844 233.458 319.822 233.969 314.483 236.07Z" fill="#5A96B8"/>
<path d="M341.154 243.128C341.147 243.136 341.006 243.036 340.746 242.836C340.477 242.648 340.126 242.313 339.6 241.98C338.595 241.253 337.032 240.341 334.973 239.521C333.945 239.106 332.781 238.755 331.519 238.434C330.246 238.162 328.877 237.888 327.414 237.784C325.956 237.657 324.414 237.62 322.825 237.742C321.238 237.855 319.595 238.076 317.96 238.501C316.324 238.916 314.774 239.492 313.336 240.178C311.906 240.88 310.601 241.698 309.415 242.555C307.069 244.309 305.239 246.25 303.945 248.048C302.644 249.843 301.797 251.44 301.302 252.577C301.025 253.134 300.882 253.597 300.746 253.895C300.621 254.198 300.55 254.355 300.539 254.352C300.528 254.348 300.578 254.184 300.684 253.873C300.8 253.567 300.925 253.094 301.185 252.527C301.647 251.368 302.469 249.742 303.758 247.913C305.04 246.081 306.872 244.102 309.236 242.314C310.431 241.44 311.749 240.606 313.197 239.891C314.651 239.192 316.223 238.606 317.881 238.185C319.537 237.755 321.198 237.534 322.803 237.424C324.41 237.305 325.968 237.349 327.441 237.485C328.918 237.598 330.299 237.885 331.582 238.171C332.854 238.507 334.026 238.874 335.058 239.307C337.126 240.162 338.685 241.113 339.673 241.877C340.19 242.228 340.531 242.581 340.787 242.785C341.035 243.002 341.161 243.12 341.154 243.128Z" fill="#F5FCFF"/>
<path d="M340.358 283.435C340.314 283.371 341.592 282.618 343.32 280.999C343.534 280.792 343.756 280.577 343.987 280.354C344.217 280.128 344.43 279.867 344.665 279.611C345.146 279.108 345.586 278.509 346.066 277.893C346.976 276.625 347.869 275.151 348.614 273.509C349.337 271.856 349.835 270.207 350.169 268.681C350.305 267.912 350.457 267.184 350.509 266.49C350.542 266.144 350.594 265.812 350.608 265.489C350.62 265.168 350.631 264.858 350.641 264.562C350.688 262.195 350.393 260.741 350.47 260.731C350.492 260.727 350.561 261.088 350.668 261.747C350.727 262.076 350.786 262.48 350.807 262.954C350.834 263.427 350.898 263.967 350.872 264.564C350.868 264.864 350.864 265.178 350.859 265.503C350.851 265.829 350.805 266.166 350.778 266.517C350.737 267.221 350.594 267.96 350.464 268.74C350.142 270.289 349.646 271.965 348.912 273.641C348.157 275.307 347.243 276.796 346.308 278.072C345.815 278.691 345.361 279.291 344.866 279.793C344.624 280.048 344.404 280.307 344.166 280.531C343.927 280.752 343.697 280.964 343.477 281.168C343.05 281.587 342.607 281.901 342.237 282.197C341.87 282.499 341.531 282.726 341.246 282.901C340.685 283.264 340.37 283.454 340.358 283.435Z" fill="#F5FCFF"/>
<path d="M338.43 254.866C338.438 254.956 332.85 255.532 325.949 256.152C319.046 256.773 313.446 257.203 313.438 257.113C313.43 257.023 319.017 256.447 325.92 255.827C332.821 255.206 338.422 254.776 338.43 254.866Z" fill="#F5FCFF"/>
<path d="M341.667 263.535C341.667 263.546 341.529 263.562 341.266 263.582C340.968 263.6 340.586 263.623 340.113 263.652C339.07 263.704 337.631 263.776 335.871 263.864C332.289 264.039 327.341 264.294 321.88 264.636C316.417 264.979 311.476 265.343 307.9 265.617C306.142 265.75 304.705 265.858 303.664 265.936C303.191 265.967 302.809 265.991 302.511 266.011C302.247 266.024 302.108 266.026 302.107 266.015C302.106 266.004 302.243 265.98 302.505 265.946C302.801 265.911 303.182 265.866 303.652 265.81C304.649 265.698 306.093 265.553 307.88 265.387C311.452 265.054 316.393 264.653 321.859 264.31C327.323 263.968 332.275 263.749 335.861 263.634C337.654 263.576 339.105 263.539 340.108 263.526C340.582 263.523 340.965 263.52 341.263 263.517C341.528 263.517 341.667 263.524 341.667 263.535Z" fill="#F5FCFF"/>
<g opacity="0.3">
<path d="M297.049 259.29L352.166 255.876C352.166 255.876 353.544 260.895 353.225 264.209L296.873 267.636C296.873 267.636 296.035 263.409 297.049 259.29Z" fill="#F5FCFF"/>
</g>
<g opacity="0.3">
<path d="M298.483 273.087L352.401 269.493C352.401 269.493 352.761 269.346 351.66 271.716L299.388 275.16C299.388 275.16 298.758 274.409 298.483 273.087Z" fill="#F5FCFF"/>
</g>
<path d="M396.351 245.303C396.351 245.303 368.585 253.362 367.794 253.817C367.004 254.272 356.067 262.057 355.861 264.87C355.654 267.683 359.341 280.267 359.341 280.267C359.341 280.267 363.087 280.803 363.364 274.08C363.641 267.356 363.641 267.356 363.641 267.356L368.249 263.228C368.249 263.228 366.549 271.006 366.979 273.205C367.409 275.403 371.061 280.959 373.105 280.52C375.149 280.08 376.269 278.692 376.269 278.692C376.269 278.692 378.058 283.647 383.274 280.731C383.274 280.731 386.691 282.164 389.375 280.804C392.059 279.444 394.484 275.106 394.484 275.106C394.484 275.106 394.688 272.45 391.87 272.556C389.051 272.662 386.512 274.651 386.512 274.651L386.249 271.83C386.249 271.83 389.608 267.737 393.088 265.651C395.281 264.336 404.373 264.123 407.197 261.25C409.59 258.815 405.071 253.449 402.07 251.822C401.618 251.577 401.132 251.401 400.628 251.299L396.351 245.303Z" fill="#FFBF9D"/>
<path d="M380.592 267.703C380.576 267.695 380.461 267.866 380.288 268.196C380.114 268.526 379.897 269.022 379.698 269.661C379.296 270.928 379.041 272.826 379.483 274.84C379.926 276.854 380.954 278.47 381.851 279.452C382.299 279.948 382.705 280.308 383.001 280.534C383.296 280.761 383.473 280.868 383.484 280.854C383.519 280.812 382.848 280.328 382.005 279.319C381.164 278.322 380.194 276.734 379.764 274.779C379.334 272.824 379.548 270.976 379.893 269.718C380.235 268.448 380.641 267.727 380.592 267.703Z" fill="#E3B6A4"/>
<path d="M375.37 263.732C375.353 263.723 375.24 263.912 375.052 264.263C374.955 264.437 374.843 264.655 374.737 264.918C374.628 265.18 374.488 265.472 374.382 265.814C374.135 266.485 373.92 267.313 373.76 268.245C373.617 269.18 373.538 270.222 373.582 271.315C373.638 272.408 373.811 273.438 374.039 274.357C374.284 275.271 374.573 276.076 374.88 276.722C375.017 277.052 375.183 277.331 375.315 277.582C375.445 277.834 375.575 278.041 375.688 278.205C375.908 278.538 376.037 278.716 376.053 278.705C376.102 278.675 375.613 277.94 375.066 276.64C374.787 275.993 374.523 275.195 374.296 274.293C374.086 273.387 373.925 272.375 373.869 271.302C373.826 270.229 373.791 269.005 373.917 268.083C374.061 267.165 374.356 266.548 374.575 265.878C375.002 264.534 375.422 263.757 375.37 263.732Z" fill="#E3B6A4"/>
<path d="M369.834 258.513C369.813 258.488 369.542 258.67 369.214 259.078C368.886 259.482 368.53 260.132 368.361 260.917C368.137 261.982 368.277 262.51 368.393 262.945C368.527 263.451 368.701 263.727 368.73 263.713C368.818 263.693 368.307 262.482 368.642 260.977C368.947 259.467 369.906 258.567 369.834 258.513Z" fill="#E3B6A4"/>
<path d="M461.333 237.627C461.248 237.67 460.758 236.531 459.536 234.996C458.333 233.467 456.278 231.587 453.514 230.465C450.755 229.311 447.944 229.499 446.046 229.891C444.123 230.286 442.988 230.776 442.955 230.689C442.942 230.658 443.211 230.506 443.723 230.283C444.234 230.06 444.994 229.778 445.967 229.534C447.879 229.041 450.819 228.779 453.709 229.986C456.581 231.152 458.671 233.151 459.827 234.775C460.415 235.588 460.808 236.302 461.039 236.81C461.27 237.318 461.362 237.614 461.333 237.627Z" fill="#E3B6A4"/>
<path d="M422.084 181.836C421.604 165.662 442.687 158.467 452.139 171.6C452.193 171.675 452.246 171.75 452.299 171.825C461.207 184.516 471.975 214.52 471.975 214.52L433.833 220.444L424.314 194.403C423.027 190.202 422.205 185.899 422.084 181.836Z" fill="#15CDF2"/>
<path d="M303.184 193.182C303.245 193.318 303.301 193.456 303.353 193.597C303.585 194.235 303.71 194.909 303.757 195.586C303.779 195.897 303.733 196.241 303.801 196.544C303.847 196.749 303.985 196.916 304.065 197.108C304.574 198.33 304.456 199.778 304.415 201.068C304.369 202.524 304.387 204.068 305.147 205.31C305.907 206.552 307.676 207.289 308.874 206.46C308.692 207.369 309.403 208.306 310.3 208.54C311.197 208.774 312.177 208.4 312.839 207.752C313.501 207.104 313.883 206.218 314.112 205.32C314.048 206.407 315.12 207.34 316.208 207.355C317.297 207.37 318.295 206.647 318.871 205.722C319.446 204.798 319.662 203.697 319.788 202.616C319.914 201.535 320.163 199.508 320.446 198.457C320.446 198.457 321.813 198.676 322.435 198.736L322.618 198.754C322.618 198.754 323.422 197.52 323.925 196.484C324.797 194.692 325.46 193.555 326.127 191.928C326.626 190.709 326.95 189.492 326.196 188.699C324.382 186.79 320.834 190.673 320.834 190.673C320.333 189.321 316.209 189.101 315.407 190.902C315.081 189.91 315.205 189.335 314.402 188.669C313.598 188.002 312.487 187.658 311.48 187.933C310.473 188.208 309.649 189.18 309.706 190.223C308.858 188.856 307.1 188.121 305.532 188.479C304.588 188.694 303.754 189.296 303.204 190.086C302.927 190.484 302.729 190.924 302.608 191.393C302.565 191.56 302.492 191.756 302.511 191.932C302.521 192.018 302.555 192.093 302.596 192.169C302.781 192.514 303.021 192.82 303.184 193.182Z" fill="#FFBF9D"/>
<path d="M298.831 190.547C297.933 190.515 296.956 190.7 296.357 191.37C295.647 192.164 295.503 193.738 295.584 194.8C296.829 195.035 297.472 195.082 298.717 195.317C298.979 195.366 299.199 195.3 299.416 195.455C299.99 195.863 299.897 197.235 300.128 197.901C300.529 199.054 302.006 199.618 303.151 199.194C304.296 198.77 305.033 197.552 305.091 196.332C305.149 195.113 304.612 193.92 303.827 192.985C302.599 191.524 300.737 190.616 298.831 190.547Z" fill="#FFBF9D"/>
<path d="M309.724 189.862C309.957 189.874 309.956 193.598 309.722 198.18C309.488 202.763 309.109 206.467 308.876 206.455C308.643 206.443 308.644 202.719 308.878 198.137C309.112 193.555 309.491 189.85 309.724 189.862Z" fill="#E3B6A4"/>
<path d="M315.443 190.651C315.666 190.641 315.97 194.032 315.604 198.2C315.251 202.371 314.372 205.659 314.154 205.611C313.916 205.563 314.414 202.242 314.762 198.127C315.123 194.016 315.2 190.657 315.443 190.651Z" fill="#E3B6A4"/>
<path d="M321.032 191.417C321.269 191.418 321.369 194.237 320.931 197.653C320.496 201.064 319.97 203.786 319.749 203.765C319.505 203.742 319.659 200.945 320.092 197.551C320.527 194.162 320.802 191.415 321.032 191.417Z" fill="#E3B6A4"/>
<path d="M300.625 191.129C300.618 191.029 301.222 190.895 302.083 191.288C302.935 191.656 303.908 192.652 304.371 193.964C304.828 195.289 304.977 196.429 304.939 197.39C304.837 198.421 304.089 198.721 304.071 198.587C304.006 198.493 304.41 198.137 304.342 197.372C304.241 196.628 303.986 195.403 303.58 194.263C303.162 193.098 302.442 192.255 301.786 191.807C301.139 191.352 300.613 191.258 300.625 191.129Z" fill="#E3B6A4"/>
<path d="M440.618 165.916C440.649 166.017 438.955 166.369 436.52 167.63C434.099 168.867 430.966 171.185 428.685 174.686C426.406 178.19 425.555 181.994 425.405 184.708C425.238 187.445 425.601 189.136 425.497 189.149C425.467 189.155 425.352 188.741 425.227 187.974C425.101 187.208 424.999 186.083 425.037 184.691C425.095 181.925 425.906 178.003 428.249 174.402C430.593 170.804 433.85 168.473 436.355 167.301C437.613 166.702 438.683 166.34 439.434 166.145C440.186 165.948 440.611 165.886 440.618 165.916Z" fill="#1A4A54"/>
<path d="M566.071 209.979H486.82C483.557 209.979 480.912 207.334 480.912 204.071V132.98C480.912 129.717 483.557 127.072 486.82 127.072H566.072C569.335 127.072 571.98 129.717 571.98 132.98V204.071C571.979 207.333 569.334 209.979 566.071 209.979Z" fill="#F5FCFF"/>
<path d="M571.979 141.18H480.911V133.141C480.911 129.789 483.629 127.071 486.981 127.071H566.388C569.476 127.071 571.979 129.574 571.979 132.662V141.18Z" fill="#D3EEF7"/>
<path d="M494.024 135.505C494.024 136.666 493.025 137.606 491.792 137.606C490.559 137.606 489.56 136.665 489.56 135.505C489.56 134.344 490.559 133.404 491.792 133.404C493.024 133.403 494.024 134.344 494.024 135.505Z" fill="#F5FCFF"/>
<path d="M500.108 135.505C500.108 136.666 499.109 137.606 497.876 137.606C496.643 137.606 495.644 136.665 495.644 135.505C495.644 134.344 496.643 133.404 497.876 133.404C499.108 133.403 500.108 134.344 500.108 135.505Z" fill="#F5FCFF"/>
<path d="M506.192 135.505C506.192 136.666 505.192 137.606 503.96 137.606C502.727 137.606 501.728 136.665 501.728 135.505C501.728 134.344 502.727 133.404 503.96 133.404C505.192 133.403 506.192 134.344 506.192 135.505Z" fill="#F5FCFF"/>
<path d="M566.071 209.979C566.07 209.958 566.369 209.973 566.935 209.882C567.497 209.794 568.346 209.576 569.283 208.964C570.194 208.347 571.213 207.288 571.663 205.711C571.905 204.929 571.903 204.05 571.889 203.1C571.885 202.152 571.881 201.144 571.877 200.076C571.857 191.515 571.829 179.153 571.794 163.879C571.784 156.237 571.774 147.867 571.762 138.883C571.761 137.76 571.76 136.627 571.759 135.485C571.758 134.914 571.758 134.34 571.757 133.765C571.752 133.183 571.777 132.617 571.676 132.071C571.348 129.853 569.541 127.893 567.268 127.431C566.155 127.213 564.917 127.338 563.71 127.305C562.496 127.306 561.274 127.307 560.043 127.308C557.582 127.31 555.087 127.311 552.562 127.313C532.355 127.319 510.142 127.326 486.826 127.333C485.429 127.333 484.051 127.867 483.028 128.803C481.998 129.731 481.337 131.043 481.199 132.414C481.142 135.24 481.183 138.139 481.169 140.966C481.168 146.645 481.166 152.24 481.165 157.738C481.16 168.734 481.155 179.341 481.15 189.445C481.149 194.495 481.147 199.42 481.146 204.205C481.166 206.527 482.757 208.665 484.873 209.407C485.919 209.839 487.058 209.746 488.208 209.759C489.35 209.76 490.483 209.761 491.606 209.762C500.591 209.773 508.961 209.784 516.603 209.794C531.876 209.829 544.238 209.857 552.798 209.877C557.061 209.898 560.375 209.915 562.639 209.926C563.754 209.937 564.608 209.946 565.198 209.952C565.776 209.961 566.071 209.979 566.071 209.979C566.071 209.979 565.776 209.997 565.199 210.006C564.608 210.012 563.755 210.021 562.64 210.032C560.376 210.043 557.063 210.06 552.799 210.081C544.239 210.101 531.878 210.129 516.604 210.164C508.962 210.174 500.592 210.184 491.607 210.196C490.484 210.197 489.351 210.198 488.209 210.199C487.093 210.187 485.859 210.29 484.721 209.826C482.438 209.03 480.715 206.726 480.689 204.216C480.683 199.428 480.677 194.499 480.671 189.446C480.666 179.341 480.661 168.735 480.656 157.739C480.655 152.241 480.653 146.645 480.652 140.967C480.665 138.116 480.62 135.292 480.682 132.363C480.831 130.865 481.555 129.43 482.678 128.418C483.794 127.396 485.303 126.812 486.826 126.813C510.142 126.82 532.355 126.827 552.562 126.833C555.088 126.835 557.582 126.837 560.043 126.838C561.273 126.839 562.496 126.84 563.71 126.841C564.317 126.842 564.922 126.842 565.524 126.842C566.115 126.833 566.759 126.856 567.364 126.983C569.822 127.488 571.765 129.605 572.115 132C572.223 132.599 572.194 133.198 572.199 133.765C572.198 134.341 572.198 134.914 572.197 135.485C572.196 136.627 572.195 137.76 572.194 138.883C572.183 147.867 572.172 156.237 572.162 163.879C572.127 179.152 572.099 191.515 572.079 200.076C572.075 201.144 572.071 202.153 572.067 203.1C572.074 204.039 572.068 204.956 571.811 205.754C571.333 207.369 570.277 208.438 569.34 209.052C568.377 209.661 567.512 209.864 566.942 209.935C566.369 210.008 566.071 209.979 566.071 209.979Z" fill="#1A4A54"/>
<path d="M560.664 202.713H492.01C489.549 202.713 487.554 200.718 487.554 198.257V151.995C487.554 149.534 489.549 147.539 492.01 147.539H560.664C563.125 147.539 565.12 149.534 565.12 151.995V198.257C565.12 200.717 563.125 202.713 560.664 202.713Z" fill="#15CDF2"/>
<g opacity="0.3">
<path d="M494.067 199.261L513 172.313C513.82 171.146 515.528 171.09 516.423 172.2L529.434 188.333C530.223 189.312 531.681 189.404 532.588 188.534L540.21 181.216C541.104 180.358 542.536 180.434 543.335 181.381L558.275 199.113C559.45 200.507 558.459 202.638 556.635 202.638H495.821C494.085 202.637 493.069 200.682 494.067 199.261Z" fill="#063547"/>
</g>
<g opacity="0.3">
<path d="M537.331 165.379C537.331 169.019 534.38 171.97 530.74 171.97C527.1 171.97 524.149 169.019 524.149 165.379C524.149 161.739 527.1 158.788 530.74 158.788C534.381 158.788 537.331 161.739 537.331 165.379Z" fill="#063547"/>
</g>
</svg>
