<svg width="750" height="500" viewBox="0 0 750 500" fill="none" xmlns="http://www.w3.org/2000/svg">
<path d="M438.88 405H478.71C480.005 405 481.246 405.514 482.161 406.429C483.076 407.344 483.59 408.586 483.59 409.88V458.13C483.59 459.424 483.076 460.665 482.161 461.581C481.246 462.496 480.005 463.01 478.71 463.01H438.88C435.35 463.01 431.965 461.608 429.469 459.112C426.973 456.615 425.57 453.23 425.57 449.7V418.29C425.576 414.763 426.98 411.383 429.476 408.891C431.971 406.4 435.354 405 438.88 405Z" fill="#D3EEF7"/>
<path d="M469.13 404.98H419.21C416.973 404.98 415.16 406.793 415.16 409.03V458.95C415.16 461.187 416.973 463 419.21 463H469.13C471.367 463 473.18 461.187 473.18 458.95V409.03C473.18 406.793 471.367 404.98 469.13 404.98Z" fill="#C4E4F2"/>
<path d="M446.681 448.7L429.101 436.94L433.201 430.81L444.991 438.69L459.651 419.28L465.541 423.73L446.681 448.7Z" fill="#D3EEF7"/>
<path d="M264.411 418.55C264.506 426.55 262.23 434.4 257.868 441.107C253.506 447.815 247.255 453.08 239.904 456.238C232.552 459.396 224.43 460.305 216.562 458.85C208.695 457.395 201.434 453.642 195.698 448.065C189.961 442.487 186.006 435.335 184.331 427.512C182.656 419.688 183.336 411.543 186.286 404.106C189.236 396.669 194.324 390.272 200.906 385.724C207.488 381.175 215.271 378.679 223.271 378.55C234.025 378.416 244.395 382.551 252.106 390.049C259.817 397.547 264.242 407.796 264.411 418.55ZM204.571 419.55C204.65 423.376 205.862 427.093 208.053 430.231C210.244 433.368 213.316 435.786 216.881 437.179C220.445 438.572 224.343 438.877 228.081 438.056C231.819 437.235 235.229 435.324 237.882 432.565C240.534 429.807 242.31 426.324 242.984 422.557C243.658 418.789 243.2 414.907 241.669 411.4C240.137 407.892 237.601 404.918 234.38 402.851C231.158 400.785 227.397 399.72 223.571 399.79C218.439 399.9 213.56 402.038 210 405.735C206.44 409.432 204.488 414.388 204.571 419.52V419.55Z" fill="#C4E4F2"/>
<path d="M264.411 418.55C264.593 429.308 260.501 439.7 253.032 447.446C245.564 455.192 235.328 459.66 224.571 459.87L224.23 438.65C229.332 438.486 234.165 436.324 237.686 432.629C241.208 428.934 243.136 424.003 243.054 418.9C242.973 413.796 240.889 408.929 237.251 405.349C233.614 401.768 228.715 399.761 223.611 399.76L223.271 378.54C234.028 378.404 244.4 382.539 252.112 390.04C259.824 397.54 264.247 407.793 264.411 418.55Z" fill="#D3EEF7"/>
<path d="M228.211 463.14C202.091 463.56 181.211 443.29 180.841 417.06L205.561 416.66C205.761 429.2 215.301 437.1 227.791 436.9L228.211 463.14Z" fill="#D9F4FA"/>
<path d="M696.901 66.8C696.973 73.0452 695.193 79.1719 691.787 84.4067C688.38 89.6416 683.499 93.75 677.76 96.2133C672.021 98.6767 665.68 99.3846 659.539 98.2478C653.398 97.111 647.731 94.1803 643.254 89.8258C638.776 85.4712 635.689 79.8879 634.382 73.7805C633.076 67.6731 633.607 61.3155 635.91 55.51C638.213 49.7044 642.184 44.7113 647.323 41.1607C652.461 37.6101 658.536 35.6612 664.781 35.56C673.178 35.4584 681.274 38.6892 687.294 44.5446C693.315 50.4 696.769 58.4028 696.901 66.8ZM650.18 67.55C650.242 70.5346 651.186 73.4342 652.894 75.8826C654.602 78.3311 656.997 80.2188 659.777 81.3075C662.556 82.3962 665.596 82.6371 668.513 81.9998C671.429 81.3626 674.092 79.8757 676.164 77.7268C678.236 75.5779 679.625 72.8633 680.156 69.9257C680.687 66.988 680.336 63.9589 679.147 61.2205C677.958 58.4822 675.985 56.1574 673.476 54.5395C670.967 52.9217 668.035 52.0832 665.05 52.13C661.034 52.2036 657.211 53.8694 654.423 56.761C651.634 59.6527 650.108 63.5335 650.18 67.55Z" fill="#C4E4F2"/>
<path d="M696.9 66.8C697.042 75.1996 693.848 83.3129 688.019 89.3618C682.189 95.4107 674.199 98.9018 665.8 99.07L665.53 82.49C669.556 82.4263 673.392 80.766 676.194 77.8742C678.996 74.9824 680.534 71.096 680.47 67.07C680.407 63.044 678.746 59.2082 675.854 56.4064C672.963 53.6046 669.076 52.0663 665.05 52.13L664.78 35.56C673.18 35.4505 681.28 38.6786 687.302 44.5357C693.325 50.3928 696.776 58.4002 696.9 66.8Z" fill="#D3EEF7"/>
<path d="M668.641 101.61C663.834 101.727 659.052 100.883 654.576 99.1283C650.099 97.3731 646.018 94.7419 642.572 91.3889C639.126 88.0358 636.384 84.0285 634.507 79.6018C632.63 75.1751 631.655 70.4182 631.641 65.61L650.941 65.3C651.101 75.1 658.551 81.3 668.301 81.11L668.641 101.61Z" fill="#D9F4FA"/>
<path d="M54.1 218.12H61.5V199.59H66.67L67.22 193.38H61.5V189.85C61.5 188.38 61.8 187.85 63.21 187.85H67.21V181.41H62.09C56.59 181.41 54.09 183.83 54.09 188.47V193.42H50.25V199.7H54.1V218.12Z" fill="#C4E4F2"/>
<path d="M205.89 56.57L235.67 52C236.629 58.2259 235.613 64.5956 232.764 70.2142C229.916 75.8328 225.379 80.4178 219.791 83.325C214.203 86.2321 207.844 87.3153 201.608 86.4223C195.373 85.5293 189.574 82.705 185.026 78.3462C180.478 73.9875 177.41 68.3134 176.254 62.1213C175.097 55.9291 175.909 49.5302 178.577 43.8236C181.244 38.117 185.633 33.3896 191.126 30.3057C196.618 27.2218 202.939 25.9363 209.2 26.63L205.89 56.57Z" fill="#D9F4FA"/>
<path d="M215.56 26.72L211.94 49.81L234.6 45.55C234.6 45.55 231.27 32.61 215.56 26.72Z" fill="#D3EEF7"/>
<path d="M110.85 274.67H45.0603C40.4234 274.67 35.9763 276.511 32.6965 279.789C29.4168 283.067 27.573 287.513 27.5703 292.15V331.91C27.573 336.547 29.4168 340.993 32.6965 344.271C35.9763 347.549 40.4234 349.39 45.0603 349.39H69.1803L78.0003 362L86.7703 349.37H110.9C115.535 349.367 119.98 347.525 123.258 344.247C126.535 340.97 128.378 336.525 128.38 331.89V292.15C128.379 289.851 127.924 287.574 127.042 285.451C126.16 283.327 124.868 281.399 123.24 279.775C121.612 278.151 119.679 276.865 117.553 275.989C115.427 275.113 113.15 274.665 110.85 274.67Z" fill="#F5FCFF"/>
<path d="M110.85 274.67C111.608 274.648 112.367 274.681 113.12 274.77C115.318 275.022 117.444 275.701 119.38 276.77C120.786 277.559 122.087 278.524 123.25 279.64C124.62 281.002 125.761 282.575 126.63 284.3C127.643 286.297 128.261 288.47 128.45 290.7C128.6 293.09 128.5 295.57 128.54 298.21C128.54 303.48 128.54 309.28 128.54 315.57C128.54 318.71 128.54 321.97 128.54 325.35C128.54 327.04 128.54 328.75 128.54 330.5C128.606 332.291 128.458 334.084 128.1 335.84C127.245 339.636 125.166 343.046 122.183 345.545C119.199 348.044 115.478 349.493 111.59 349.67C103.59 349.76 95.2904 349.67 86.6504 349.73L86.9304 349.58L78.1704 362.22L77.8804 362.62L77.6004 362.22L68.9004 349.59L69.1804 349.74H47.3604C45.9193 349.775 44.4773 349.734 43.0404 349.62C40.1716 349.277 37.4276 348.248 35.0404 346.62C32.6921 344.994 30.7543 342.844 29.3804 340.34C28.072 337.871 27.3532 335.133 27.2804 332.34V300.94C27.2804 298.44 27.2804 295.94 27.2804 293.54C27.1723 291.102 27.5112 288.666 28.2804 286.35C29.4164 283.073 31.4865 280.201 34.2354 278.086C36.9843 275.971 40.2918 274.708 43.7504 274.45C45.9404 274.32 48.0104 274.45 50.0804 274.4H61.9504L97.7504 274.51L107.48 274.58H110.01C110.59 274.58 110.88 274.58 110.88 274.58H110.01H107.48L97.7504 274.65L61.9504 274.76H50.0804C48.0804 274.76 45.8904 274.7 43.7904 274.84C40.4505 275.099 37.259 276.328 34.6084 278.377C31.9577 280.425 29.9633 283.203 28.8704 286.37C28.1273 288.625 27.8053 290.998 27.9204 293.37C27.9204 295.81 27.9204 298.27 27.9204 300.77C27.9204 310.77 27.9204 321.25 27.9204 332.13C27.9832 334.881 28.6959 337.577 30.0004 340C31.3271 342.392 33.1889 344.446 35.4404 346C37.7507 347.552 40.3967 348.532 43.1604 348.86C44.5705 348.976 45.9859 349.016 47.4004 348.98H69.4004L69.5004 349.13L78.2704 361.77H77.7004L86.4804 349.14L86.5804 349H86.7504C95.3704 349 103.75 349.05 111.66 349C115.419 348.836 119.02 347.444 121.91 345.036C124.801 342.628 126.821 339.337 127.66 335.67C128.016 333.957 128.164 332.208 128.1 330.46C128.1 328.71 128.1 327 128.1 325.31C128.1 321.93 128.1 318.67 128.1 315.53C128.1 309.24 128.1 303.44 128.1 298.17C128.1 295.54 128.19 293.02 128.05 290.69C127.881 288.502 127.294 286.367 126.32 284.4C125.471 282.701 124.36 281.146 123.03 279.79C121.899 278.678 120.628 277.717 119.25 276.93C117.35 275.847 115.258 275.141 113.09 274.85C112.53 274.768 111.966 274.715 111.4 274.69L110.85 274.67Z" fill="#D3EEF7"/>
<path d="M64.3903 313.05C64.3903 314.17 64.0581 315.265 63.4357 316.196C62.8134 317.127 61.9288 317.852 60.894 318.28C59.8592 318.708 58.7206 318.82 57.6224 318.6C56.5242 318.381 55.5157 317.841 54.7246 317.049C53.9334 316.256 53.3951 315.247 53.1779 314.148C52.9606 313.049 53.0741 311.911 53.504 310.877C53.934 309.843 54.661 308.96 55.5931 308.339C56.5252 307.718 57.6205 307.388 58.7403 307.39C60.2397 307.393 61.6768 307.99 62.7361 309.051C63.7954 310.112 64.3903 311.551 64.3903 313.05Z" fill="#D3EEF7"/>
<path d="M83.0007 313.05C83.0007 314.169 82.6687 315.264 82.0468 316.195C81.4249 317.125 80.5409 317.851 79.5067 318.279C78.4724 318.708 77.3344 318.82 76.2365 318.601C75.1385 318.383 74.13 317.844 73.3384 317.052C72.5469 316.261 72.0078 315.252 71.7894 314.154C71.571 313.056 71.6831 311.918 72.1115 310.884C72.5399 309.85 73.2654 308.966 74.1961 308.344C75.1269 307.722 76.2212 307.39 77.3407 307.39C78.841 307.393 80.2791 307.99 81.34 309.051C82.4009 310.112 82.998 311.55 83.0007 313.05Z" fill="#D3EEF7"/>
<path d="M101.64 313.05C101.64 314.17 101.308 315.265 100.685 316.197C100.062 317.128 99.1771 317.853 98.1417 318.281C97.1063 318.709 95.9672 318.82 94.8687 318.6C93.7703 318.38 92.7618 317.839 91.971 317.045C91.1802 316.252 90.6428 315.241 90.4266 314.142C90.2105 313.043 90.3255 311.904 90.7569 310.87C91.1884 309.836 91.9169 308.954 92.8504 308.334C93.7838 307.715 94.88 307.386 96.0003 307.39C97.4972 307.398 98.9301 307.997 99.9867 309.058C101.043 310.118 101.638 311.553 101.64 313.05Z" fill="#D3EEF7"/>
<path d="M623.75 118.11H571.61C569.787 118.11 567.983 118.469 566.299 119.168C564.616 119.866 563.086 120.89 561.799 122.18C560.512 123.47 559.491 125.002 558.796 126.687C558.102 128.372 557.746 130.177 557.75 132V163.5C557.75 165.32 558.109 167.122 558.805 168.804C559.502 170.486 560.523 172.013 561.81 173.3C563.097 174.588 564.624 175.608 566.306 176.305C567.988 177.002 569.79 177.36 571.61 177.36H590.73L597.68 187.36L604.68 177.36H623.8C625.621 177.361 627.423 177.004 629.106 176.308C630.788 175.612 632.316 174.591 633.603 173.303C634.891 172.016 635.912 170.488 636.608 168.806C637.304 167.123 637.661 165.32 637.66 163.5V132C637.665 130.173 637.309 128.363 636.612 126.674C635.914 124.985 634.889 123.451 633.596 122.159C632.303 120.868 630.768 119.846 629.078 119.151C627.388 118.456 625.577 118.102 623.75 118.11Z" fill="#F5FCFF"/>
<path d="M623.751 118.11C624.352 118.092 624.953 118.119 625.551 118.19C627.304 118.385 629.003 118.922 630.551 119.77C631.663 120.397 632.691 121.163 633.611 122.05C634.695 123.132 635.602 124.377 636.301 125.74C637.095 127.327 637.58 129.051 637.731 130.82C637.851 132.71 637.731 134.67 637.811 136.76C637.811 140.94 637.811 145.54 637.811 150.52C637.811 153.02 637.811 155.6 637.811 158.28V162.36C637.861 163.779 637.744 165.199 637.461 166.59C636.787 169.603 635.142 172.312 632.779 174.3C630.416 176.287 627.465 177.443 624.381 177.59C618.041 177.66 611.461 177.59 604.611 177.59L604.831 177.47L597.891 187.47L597.661 187.79L597.441 187.47L590.441 177.47L590.661 177.59H573.441C572.296 177.616 571.151 177.583 570.011 177.49C567.73 177.219 565.547 176.41 563.641 175.13C561.782 173.83 560.249 172.119 559.161 170.13C558.124 168.159 557.556 165.976 557.501 163.75V133.07C557.416 131.135 557.684 129.2 558.291 127.36C559.191 124.764 560.832 122.489 563.011 120.815C565.189 119.141 567.81 118.142 570.551 117.94C572.281 117.84 573.931 117.94 575.551 117.94H584.951L613.331 118.03L584.951 118.12H575.551C573.921 118.12 572.231 118.12 570.551 118.18C567.903 118.387 565.373 119.361 563.272 120.985C561.17 122.609 559.589 124.81 558.721 127.32C558.129 129.108 557.871 130.989 557.961 132.87C557.961 134.8 557.961 136.75 557.961 138.73C557.961 146.65 557.961 154.96 557.961 163.58C558.015 165.72 558.566 167.819 559.571 169.71C560.622 171.613 562.097 173.248 563.881 174.49C565.708 175.721 567.803 176.499 569.991 176.76C571.111 176.85 572.236 176.881 573.361 176.85H590.801L590.881 176.96L597.831 186.96H597.381L604.331 176.96L604.411 176.85H604.551C611.391 176.85 618.001 176.85 624.291 176.85C627.347 176.725 630.27 175.565 632.581 173.56C634.775 171.663 636.309 169.117 636.961 166.29C637.241 164.932 637.359 163.546 637.311 162.16C637.311 160.77 637.311 159.41 637.311 158.08C637.311 155.4 637.311 152.82 637.311 150.32C637.311 145.32 637.311 140.74 637.311 136.56C637.311 134.48 637.381 132.48 637.311 130.64C637.172 128.901 636.704 127.204 635.931 125.64C635.26 124.292 634.383 123.057 633.331 121.98C632.429 121.101 631.421 120.339 630.331 119.71C628.82 118.854 627.161 118.294 625.441 118.06C625 117.997 624.556 117.957 624.111 117.94L623.751 118.11Z" fill="#D3EEF7"/>
<path d="M586.94 148.53C586.94 149.418 586.677 150.286 586.183 151.025C585.69 151.763 584.989 152.338 584.168 152.678C583.348 153.018 582.445 153.107 581.574 152.934C580.703 152.76 579.903 152.333 579.275 151.705C578.647 151.077 578.219 150.277 578.046 149.406C577.873 148.535 577.962 147.632 578.302 146.812C578.642 145.991 579.217 145.29 579.955 144.797C580.694 144.303 581.562 144.04 582.45 144.04C583.641 144.04 584.783 144.513 585.625 145.355C586.467 146.197 586.94 147.339 586.94 148.53Z" fill="#D3EEF7"/>
<path d="M601.701 148.53C601.701 149.418 601.437 150.286 600.944 151.025C600.451 151.763 599.749 152.338 598.929 152.678C598.108 153.018 597.206 153.107 596.335 152.934C595.464 152.76 594.664 152.333 594.036 151.705C593.408 151.077 592.98 150.277 592.807 149.406C592.634 148.535 592.723 147.632 593.062 146.812C593.402 145.991 593.978 145.29 594.716 144.797C595.455 144.303 596.323 144.04 597.211 144.04C597.8 144.04 598.384 144.156 598.929 144.382C599.474 144.607 599.969 144.938 600.386 145.355C600.803 145.772 601.133 146.267 601.359 146.812C601.585 147.357 601.701 147.94 601.701 148.53Z" fill="#D3EEF7"/>
<path d="M616.451 148.53C616.443 149.418 616.171 150.284 615.672 151.018C615.172 151.752 614.465 152.321 613.642 152.653C612.818 152.986 611.915 153.067 611.046 152.886C610.176 152.705 609.38 152.27 608.758 151.636C608.135 151.003 607.715 150.199 607.549 149.327C607.384 148.454 607.481 147.552 607.828 146.735C608.175 145.917 608.757 145.221 609.499 144.735C610.242 144.248 611.113 143.992 612.001 144C612.591 144.004 613.174 144.124 613.717 144.354C614.261 144.584 614.753 144.919 615.167 145.34C615.58 145.761 615.907 146.26 616.127 146.807C616.347 147.355 616.457 147.94 616.451 148.53Z" fill="#D3EEF7"/>
<path d="M674.4 167.36C677.405 169.288 680.9 170.312 684.47 170.31C696.67 170.31 703.56 160.01 703.15 150.76C704.435 149.832 705.543 148.68 706.42 147.36C705.222 147.883 703.951 148.221 702.65 148.36C704.026 147.54 705.054 146.245 705.54 144.72C704.251 145.487 702.841 146.028 701.37 146.32C700.382 145.258 699.07 144.553 697.638 144.315C696.207 144.077 694.738 144.32 693.459 145.005C692.18 145.69 691.164 146.779 690.569 148.103C689.974 149.426 689.834 150.909 690.17 152.32C687.559 152.19 685.004 151.512 682.671 150.33C680.338 149.148 678.28 147.489 676.63 145.46C675.788 146.903 675.526 148.612 675.898 150.24C676.269 151.869 677.246 153.295 678.63 154.23C677.579 154.199 676.551 153.918 675.63 153.41C675.599 154.967 676.122 156.484 677.106 157.691C678.089 158.897 679.47 159.716 681 160C680.022 160.267 678.995 160.305 678 160.11C678.421 161.416 679.238 162.559 680.339 163.378C681.44 164.197 682.769 164.652 684.14 164.68C681.376 166.825 677.874 167.789 674.4 167.36Z" fill="#C4E4F2"/>
<path d="M110.5 126.43L108.1 118.43C111.771 112.48 113.082 105.372 111.777 98.5032C110.473 91.6348 106.645 85.503 101.048 81.3136C95.4513 77.1241 88.4895 75.1801 81.5317 75.8637C74.5739 76.5473 68.1236 79.8091 63.4489 85.0078C58.7743 90.2064 56.2137 96.9658 56.2705 103.957C56.3272 110.948 58.9973 117.665 63.7557 122.787C68.5142 127.909 75.0166 131.066 81.9846 131.636C88.9525 132.207 95.8819 130.15 101.41 125.87L110.5 126.43Z" fill="#E3F8FE"/>
<path d="M110.5 126.43C110.5 126.43 110.32 126.43 109.93 126.43L108.21 126.35L101.39 126C101.375 125.999 101.359 125.994 101.345 125.987C101.331 125.98 101.319 125.97 101.308 125.958C101.298 125.946 101.29 125.932 101.286 125.917C101.281 125.902 101.279 125.886 101.28 125.87C101.276 125.847 101.276 125.823 101.28 125.8L101.45 125.97C97.067 129.376 91.7729 131.407 86.2363 131.808C80.6996 132.208 75.1683 130.96 70.3404 128.22C66.7204 126.158 63.6042 123.317 61.2174 119.902C58.8306 116.488 57.2329 112.585 56.5399 108.477C55.8469 104.369 56.0761 100.159 57.2107 96.15C58.3454 92.1415 60.3572 88.4354 63.1004 85.3C66.1142 81.8288 69.9418 79.1591 74.2404 77.53C78.3346 75.9765 82.7311 75.3846 87.0904 75.8C94.3086 76.5304 100.965 80.0223 105.669 85.546C110.373 91.0697 112.759 98.1976 112.33 105.44C112.047 110.052 110.617 114.52 108.17 118.44V118.35L109.9 124.35C110.08 125.01 110.23 125.51 110.33 125.88C110.43 126.25 110.47 126.39 110.46 126.38C110.45 126.37 110.39 126.2 110.28 125.85L109.79 124.3C109.36 122.93 108.79 120.95 107.95 118.39C107.943 118.376 107.938 118.361 107.938 118.345C107.938 118.329 107.943 118.314 107.95 118.3C110.963 113.372 112.358 107.625 111.941 101.864C111.524 96.1037 109.316 90.6178 105.625 86.1751C101.934 81.7324 96.9457 78.5555 91.359 77.0896C85.7724 75.6236 79.8671 75.9419 74.4704 78C70.2593 79.5982 66.5106 82.2165 63.5604 85.62C60.3034 89.334 58.1021 93.8535 57.1858 98.7076C56.2695 103.562 56.6718 108.573 58.3507 113.218C60.0297 117.864 62.9239 121.975 66.7317 125.121C70.5395 128.268 75.1216 130.336 80.0004 131.11C82.9275 131.59 85.9133 131.59 88.8404 131.11C93.3826 130.37 97.6725 128.522 101.33 125.73C101.342 125.719 101.355 125.71 101.369 125.704C101.384 125.698 101.4 125.695 101.415 125.695C101.431 125.695 101.447 125.698 101.461 125.704C101.476 125.71 101.489 125.719 101.5 125.73C101.519 125.75 101.53 125.777 101.53 125.805C101.53 125.833 101.519 125.86 101.5 125.88L101.42 125.68L108.14 126.18L109.9 126.32L110.5 126.43Z" fill="#1A4A54"/>
<path d="M76.4703 103.79C76.4782 104.351 76.319 104.902 76.0129 105.373C75.7068 105.844 75.2676 106.213 74.7513 106.433C74.2349 106.653 73.6647 106.715 73.1131 106.61C72.5615 106.506 72.0535 106.239 71.6537 105.845C71.2539 105.451 70.9804 104.947 70.8679 104.397C70.7554 103.847 70.8091 103.276 71.0221 102.756C71.235 102.237 71.5977 101.793 72.0639 101.48C72.5301 101.167 73.0789 101 73.6403 101C74.3847 100.997 75.1001 101.289 75.6302 101.812C76.1604 102.334 76.4624 103.046 76.4703 103.79Z" fill="#1A4A54"/>
<path d="M87.8101 103.79C87.818 104.352 87.6583 104.904 87.3513 105.375C87.0443 105.846 86.604 106.215 86.0865 106.435C85.5689 106.655 84.9977 106.715 84.4455 106.609C83.8934 106.503 83.3854 106.234 82.9864 105.838C82.5874 105.442 82.3155 104.936 82.2053 104.385C82.0951 103.833 82.1516 103.262 82.3677 102.743C82.5837 102.223 82.9495 101.78 83.4183 101.47C83.8872 101.16 84.4379 100.996 85.0001 101C85.7411 101.003 86.4513 101.297 86.9772 101.819C87.503 102.341 87.8022 103.049 87.8101 103.79Z" fill="#1A4A54"/>
<path d="M99.1304 102.37C99.4185 102.854 99.5564 103.412 99.5266 103.974C99.4968 104.536 99.3007 105.076 98.9631 105.527C98.6256 105.977 98.1618 106.317 97.6307 106.503C97.0995 106.69 96.525 106.714 95.9801 106.573C95.4351 106.432 94.9443 106.133 94.5699 105.713C94.1955 105.292 93.9545 104.77 93.8774 104.213C93.8003 103.655 93.8905 103.087 94.1368 102.581C94.383 102.075 94.7741 101.653 95.2604 101.37C95.9071 100.993 96.6764 100.887 97.4011 101.074C98.1258 101.261 98.7473 101.727 99.1304 102.37Z" fill="#1A4A54"/>
<path d="M365.33 391C365.33 391 365.28 392.5 365.25 395.13C363.455 393.499 361.35 392.247 359.06 391.45C359.06 391.45 346.57 383.71 340.86 373.85C338.193 368.893 336.333 363.542 335.35 358C335.35 357.57 335.35 353.77 335.27 350.66C335.252 349.434 334.762 348.261 333.901 347.388C333.041 346.514 331.876 346.006 330.65 345.97C325.29 345.78 311.02 346.28 310.01 356.18C308.51 370.95 319.49 383.99 320.38 388.24C320.55 389.04 320.69 389.69 320.8 390.24C316.58 390.24 313.32 390.29 313.32 390.36H285.6C285.6 390.36 276.3 389.74 275.38 399.36C274.46 408.98 285.26 409.58 285.26 409.58C285.26 409.58 280.46 410.47 281.05 418.87C281.64 427.27 290.93 427.87 290.93 427.87C290.93 427.87 285.53 428.76 285.81 436.26C286.09 443.56 295.76 445.76 296.27 445.87C295.539 445.858 294.808 445.888 294.08 445.96C294.643 446.038 295.212 446.068 295.78 446.05C291.85 447.51 292.38 452.47 292.38 452.47C292.06 462.97 300.16 463.28 300.16 463.28L350.78 463.38C355.823 463.387 360.777 462.048 365.13 459.5C365.13 461.65 365.13 462.86 365.18 462.86L400.54 462.93C400.61 462.93 400.7 446.85 400.74 427.02C400.78 407.19 400.74 391.1 400.67 391.1L365.33 391Z" fill="#15CDF2"/>
<g opacity="0.3">
<path d="M365.33 391C365.33 391 365.28 392.5 365.25 395.13C363.455 393.499 361.35 392.247 359.06 391.45C359.06 391.45 346.57 383.71 340.86 373.85C338.193 368.893 336.333 363.542 335.35 358C335.35 357.57 335.35 353.77 335.27 350.66C335.252 349.434 334.762 348.261 333.901 347.388C333.041 346.514 331.876 346.006 330.65 345.97C325.29 345.78 311.02 346.28 310.01 356.18C308.51 370.95 319.49 383.99 320.38 388.24C320.55 389.04 320.69 389.69 320.8 390.24C316.58 390.24 313.32 390.29 313.32 390.36H285.6C285.6 390.36 276.3 389.74 275.38 399.36C274.46 408.98 285.26 409.58 285.26 409.58C285.26 409.58 280.46 410.47 281.05 418.87C281.64 427.27 290.93 427.87 290.93 427.87C290.93 427.87 285.53 428.76 285.81 436.26C286.09 443.56 295.76 445.76 296.27 445.87C295.539 445.858 294.808 445.888 294.08 445.96C294.643 446.038 295.212 446.068 295.78 446.05C291.85 447.51 292.38 452.47 292.38 452.47C292.06 462.97 300.16 463.28 300.16 463.28L350.78 463.38C355.823 463.387 360.777 462.048 365.13 459.5C365.13 461.65 365.13 462.86 365.18 462.86L400.54 462.93C400.61 462.93 400.7 446.85 400.74 427.02C400.78 407.19 400.74 391.1 400.67 391.1L365.33 391Z" fill="#063547"/>
</g>
<path d="M361.06 402.05L362.72 406.26L362.63 454.66C359.975 457.465 356.777 459.7 353.23 461.228C349.683 462.757 345.862 463.547 342 463.55L291.38 463.45C291.38 463.45 283.28 463.14 283.6 452.64C283.6 452.64 283.01 447.24 287.51 446.05C287.51 446.05 277.32 443.93 277.03 436.43C276.74 428.93 282.1 428 282.1 428C282.1 428 272.8 427.38 272.21 419C271.62 410.62 276.43 409.71 276.43 409.71C276.43 409.71 265.63 409.09 266.55 399.49C267.47 389.89 276.77 390.49 276.77 390.49L312.77 390.55L344.32 390.6C347.936 390.613 351.464 391.712 354.449 393.753C357.433 395.795 359.736 398.685 361.06 402.05Z" fill="#15CDF2"/>
<path d="M350.239 391.66C350.239 391.66 337.739 383.92 332.039 374.06C329.368 369.11 327.501 363.767 326.509 358.23C326.509 357.8 326.509 354 326.429 350.89C326.412 349.664 325.922 348.491 325.061 347.618C324.2 346.744 323.035 346.236 321.809 346.2C316.449 346.01 307.929 350.62 306.919 360.52C305.419 375.29 310.639 384.22 311.539 388.52L312.439 392.77L350.239 391.66Z" fill="#15CDF2"/>
<path d="M356.391 462.999L391.741 463.066L391.879 391.237L356.529 391.169L356.391 462.999Z" fill="#15CDF2"/>
<path d="M356.35 463C356.28 463 356.24 446.92 356.28 427.09C356.32 407.26 356.41 391.18 356.49 391.18C356.57 391.18 356.59 407.25 356.56 427.09C356.53 446.93 356.43 463 356.35 463Z" fill="#1A4A54"/>
<path d="M391.71 463.1C391.63 463.1 391.6 447.02 391.63 427.19C391.66 407.36 391.76 391.27 391.84 391.27C391.92 391.27 391.95 407.35 391.91 427.19C391.87 447.03 391.78 463.1 391.71 463.1Z" fill="#1A4A54"/>
<path d="M368.939 407.67C368.936 408.98 369.32 410.262 370.045 411.353C370.77 412.445 371.803 413.296 373.012 413.8C374.222 414.304 375.553 414.438 376.839 414.185C378.124 413.932 379.306 413.303 380.233 412.378C381.161 411.453 381.794 410.274 382.051 408.989C382.308 407.704 382.178 406.372 381.677 405.161C381.177 403.95 380.329 402.915 379.239 402.187C378.15 401.459 376.87 401.07 375.559 401.07C373.807 401.07 372.126 401.765 370.885 403.002C369.645 404.239 368.945 405.918 368.939 407.67Z" fill="#F5FCFF"/>
<path d="M304.479 390.57C304.479 390.49 308.339 390.44 313.089 390.45C317.839 390.46 321.699 390.53 321.699 390.6C321.699 390.67 317.849 390.73 313.089 390.73C308.329 390.73 304.479 390.65 304.479 390.57Z" fill="#1A4A54"/>
<path d="M281.38 428.38C283.21 428.239 285.046 428.196 286.88 428.25C288.718 428.202 290.557 428.252 292.39 428.4C292.39 428.47 289.92 428.53 286.88 428.52C283.84 428.51 281.38 428.45 281.38 428.38Z" fill="#1A4A54"/>
<path d="M275.74 409.55C275.74 409.47 279.23 409.42 283.55 409.43C287.87 409.44 291.36 409.5 291.36 409.58C291.36 409.66 287.86 409.71 283.54 409.7C279.22 409.69 275.74 409.63 275.74 409.55Z" fill="#1A4A54"/>
<path d="M285.25 446.13C285.25 446.06 288.75 446 293.06 446.01C297.37 446.02 300.87 446.08 300.87 446.16C300.87 446.24 297.38 446.29 293.06 446.29C288.74 446.29 285.25 446.21 285.25 446.13Z" fill="#1A4A54"/>
<g opacity="0.3">
<path d="M322.31 349.64C322.91 350.065 323.384 350.645 323.681 351.317C323.979 351.99 324.089 352.73 324 353.46C323.805 354.91 323.491 356.342 323.06 357.74C322.345 360.927 322.696 364.262 324.06 367.23C324.47 368.13 324.99 369.16 324.56 370.05C323.95 371.31 322.08 371.12 320.81 370.54C318.407 369.389 316.38 367.581 314.963 365.324C313.547 363.067 312.801 360.454 312.81 357.79C312.785 355.531 313.537 353.331 314.94 351.56C316.39 349.85 318.8 348.05 322.31 349.64Z" fill="#F5FCFF"/>
</g>
<g opacity="0.3">
<path d="M273.9 392.44C275.062 392.025 276.301 391.871 277.53 391.99L298.99 392.44C301.33 392.49 305.59 392.03 306.16 394.27C306.452 394.879 306.512 395.574 306.328 396.224C306.144 396.874 305.728 397.435 305.16 397.8C303.996 398.479 302.667 398.825 301.32 398.8C298.51 398.99 295.69 398.98 292.87 398.96C287.23 399.088 281.589 398.767 276 398C275.162 397.901 274.347 397.661 273.59 397.29C273.212 397.106 272.88 396.838 272.62 396.507C272.36 396.177 272.179 395.791 272.09 395.38C272.037 394.761 272.184 394.141 272.51 393.611C272.835 393.082 273.323 392.671 273.9 392.44Z" fill="#F5FCFF"/>
</g>
<path d="M364.819 393.26C364.819 393.18 369.759 393.13 375.819 393.14C381.879 393.15 386.819 393.22 386.819 393.3C386.819 393.38 381.889 393.43 375.819 393.42C369.749 393.41 364.819 393.33 364.819 393.26Z" fill="#F5FCFF"/>
<path d="M276.129 421.93C276.129 421.93 276.029 421.81 275.899 421.56C275.725 421.213 275.581 420.852 275.469 420.48C275.299 419.923 275.189 419.35 275.139 418.77C275.084 418.06 275.108 417.345 275.209 416.64C275.325 415.938 275.516 415.251 275.779 414.59C276.003 414.051 276.284 413.538 276.619 413.06C276.835 412.736 277.083 412.434 277.359 412.16C277.453 412.05 277.561 411.953 277.679 411.87C277.679 411.87 277.299 412.35 276.779 413.17C276.48 413.649 276.226 414.154 276.019 414.68C275.777 415.328 275.596 415.998 275.479 416.68C275.381 417.365 275.351 418.059 275.389 418.75C275.427 419.317 275.517 419.88 275.659 420.43C275.899 421.36 276.169 421.91 276.129 421.93Z" fill="#F5FCFF"/>
<path d="M270.93 403.73C270.594 403.546 270.307 403.286 270.09 402.97C269.512 402.246 269.133 401.385 268.99 400.47C268.835 399.558 268.918 398.621 269.23 397.75C269.335 397.377 269.527 397.034 269.79 396.75C269.79 396.75 269.61 397.14 269.42 397.75C269.178 398.592 269.126 399.478 269.268 400.342C269.41 401.207 269.742 402.029 270.24 402.75C270.63 403.41 271 403.69 270.93 403.73Z" fill="#F5FCFF"/>
<path d="M282.33 441.4C281.911 441.265 281.53 441.032 281.22 440.72C280.411 440.01 279.87 439.043 279.688 437.982C279.506 436.921 279.694 435.829 280.22 434.89C280.413 434.498 280.693 434.156 281.04 433.89C281.04 433.89 280.73 434.29 280.39 434.99C279.935 435.903 279.781 436.937 279.95 437.943C280.119 438.949 280.602 439.875 281.33 440.59C281.9 441.13 282.35 441.36 282.33 441.4Z" fill="#F5FCFF"/>
<path d="M289.49 458.47C289.157 458.259 288.874 457.98 288.66 457.65C288.09 456.893 287.703 456.014 287.53 455.082C287.356 454.151 287.401 453.192 287.66 452.28C287.738 451.895 287.902 451.533 288.14 451.22C288.14 451.22 288 451.64 287.85 452.33C287.665 453.221 287.665 454.139 287.85 455.03C288.011 455.925 288.351 456.779 288.85 457.54C289.21 458.12 289.52 458.43 289.49 458.47Z" fill="#F5FCFF"/>
<path d="M310.28 376.7C310.125 376.472 309.998 376.227 309.9 375.97C309.753 375.684 309.623 375.39 309.51 375.09C309.37 374.74 309.2 374.34 309.06 373.89C308.694 372.838 308.403 371.762 308.19 370.67C307.928 369.334 307.768 367.98 307.71 366.62C307.675 365.257 307.735 363.894 307.89 362.54C308.024 361.436 308.238 360.343 308.53 359.27C308.63 358.81 308.78 358.41 308.89 358.05C309 357.69 309.11 357.38 309.21 357.14C309.294 356.876 309.404 356.622 309.54 356.38C309.479 356.648 309.402 356.912 309.31 357.17C309.23 357.42 309.13 357.73 309.04 358.09C308.95 358.45 308.81 358.86 308.72 359.32C308.461 360.391 308.267 361.476 308.14 362.57C307.998 363.898 307.948 365.235 307.99 366.57C308.05 367.912 308.2 369.248 308.44 370.57C308.645 371.651 308.912 372.72 309.24 373.77C309.37 374.22 309.53 374.62 309.65 374.97C309.77 375.32 309.89 375.62 309.99 375.87C310.105 376.14 310.202 376.417 310.28 376.7Z" fill="#F5FCFF"/>
<path d="M504.921 68.38H221.901C213.059 68.38 205.891 75.5479 205.891 84.39V314.67C205.891 323.512 213.059 330.68 221.901 330.68H504.921C513.763 330.68 520.931 323.512 520.931 314.67V84.39C520.931 75.5479 513.763 68.38 504.921 68.38Z" fill="#F5FCFF"/>
<path d="M504.92 331.18H221.92C217.542 331.175 213.345 329.434 210.248 326.339C207.152 323.244 205.408 319.048 205.4 314.67V84.39C205.408 80.012 207.152 75.8157 210.248 72.7209C213.345 69.6261 217.542 67.8853 221.92 67.88H504.92C509.298 67.8853 513.496 69.6261 516.592 72.7209C519.689 75.8157 521.432 80.012 521.44 84.39V314.67C521.432 319.048 519.689 323.244 516.592 326.339C513.496 329.434 509.298 331.175 504.92 331.18ZM221.92 68.88C217.807 68.8826 213.862 70.5173 210.953 73.4251C208.043 76.3329 206.406 80.2764 206.4 84.39V314.67C206.406 318.784 208.043 322.727 210.953 325.635C213.862 328.543 217.807 330.177 221.92 330.18H504.92C509.034 330.177 512.979 328.543 515.888 325.635C518.798 322.727 520.435 318.784 520.44 314.67V84.39C520.435 80.2764 518.798 76.3329 515.888 73.4251C512.979 70.5173 509.034 68.8826 504.92 68.88H221.92Z" fill="#1A4A54"/>
<path d="M262.421 263.32H255.761V309.45H262.421V263.32Z" fill="#15CDF2"/>
<path d="M249.801 297.92H243.141V309.45H249.801V297.92Z" fill="#15CDF2"/>
<path d="M273.94 286.39H267.28V309.46H273.94V286.39Z" fill="#15CDF2"/>
<path d="M285.27 272.96H278.61V309.46H285.27V272.96Z" fill="#15CDF2"/>
<path d="M298.33 299.7H291.67V309.46H298.33V299.7Z" fill="#15CDF2"/>
<path d="M500.54 298.72C500.281 298.406 500.149 298.006 500.17 297.6C500.151 297.194 500.283 296.795 500.54 296.48C500.663 296.338 500.817 296.226 500.991 296.153C501.164 296.08 501.352 296.048 501.54 296.06C501.728 296.051 501.915 296.084 502.088 296.157C502.261 296.23 502.415 296.34 502.54 296.48C502.78 296.804 502.91 297.197 502.91 297.6C502.91 298.003 502.78 298.396 502.54 298.72C502.416 298.856 502.266 298.964 502.098 299.038C501.93 299.112 501.749 299.15 501.565 299.15C501.382 299.15 501.2 299.112 501.032 299.038C500.864 298.964 500.714 298.856 500.59 298.72H500.54ZM502.02 298.33C502.151 298.11 502.214 297.856 502.2 297.6C502.215 297.347 502.152 297.096 502.02 296.88C501.966 296.796 501.89 296.727 501.8 296.681C501.711 296.636 501.61 296.615 501.51 296.62C501.412 296.618 501.314 296.641 501.227 296.686C501.14 296.732 501.065 296.798 501.01 296.88C500.872 297.094 500.805 297.346 500.82 297.6C500.803 297.854 500.869 298.107 501.01 298.32C501.063 298.404 501.137 298.472 501.225 298.517C501.313 298.563 501.411 298.585 501.51 298.58C501.606 298.582 501.701 298.56 501.787 298.517C501.872 298.473 501.945 298.409 502 298.33H502.02ZM504.89 296.11H505.68L501.83 301.75H501L504.89 296.11ZM504.23 301.38C503.973 301.065 503.841 300.666 503.86 300.26C503.839 299.854 503.971 299.454 504.23 299.14C504.354 299.004 504.504 298.896 504.672 298.822C504.84 298.748 505.022 298.71 505.205 298.71C505.389 298.71 505.57 298.748 505.738 298.822C505.906 298.896 506.056 299.004 506.18 299.14C506.443 299.453 506.578 299.852 506.56 300.26C506.576 300.667 506.441 301.066 506.18 301.38C506.055 301.513 505.904 301.619 505.736 301.691C505.568 301.763 505.388 301.801 505.205 301.801C505.022 301.801 504.842 301.763 504.674 301.691C504.506 301.619 504.355 301.513 504.23 301.38ZM505.71 300.98C505.848 300.766 505.915 300.514 505.9 300.26C505.918 300.006 505.851 299.753 505.71 299.54C505.657 299.456 505.583 299.388 505.495 299.343C505.407 299.297 505.309 299.275 505.21 299.28C505.111 299.274 505.012 299.295 504.922 299.338C504.833 299.382 504.757 299.448 504.7 299.53C504.561 299.747 504.495 300.003 504.51 300.26C504.493 300.514 504.559 300.767 504.7 300.98C504.758 301.059 504.833 301.122 504.92 301.166C505.007 301.21 505.103 301.233 505.2 301.233C505.297 301.233 505.394 301.21 505.48 301.166C505.567 301.122 505.643 301.059 505.7 300.98H505.71Z" fill="#15CDF2"/>
<path d="M467.74 270.51H489.74C489.948 270.525 490.155 270.474 490.332 270.365C490.51 270.257 490.649 270.095 490.73 269.904C490.812 269.712 490.831 269.5 490.787 269.297C490.742 269.094 490.635 268.909 490.48 268.77L479.48 257.55C479.386 257.448 479.273 257.367 479.146 257.312C479.02 257.257 478.883 257.228 478.745 257.228C478.607 257.228 478.47 257.257 478.344 257.312C478.217 257.367 478.104 257.448 478.01 257.55L467.01 268.77C466.856 268.909 466.75 269.092 466.705 269.294C466.66 269.496 466.678 269.708 466.759 269.899C466.839 270.09 466.976 270.251 467.152 270.361C467.328 270.47 467.533 270.522 467.74 270.51Z" fill="#C4E4F2"/>
<path d="M486.07 268.42H471.98V290.77H486.07V268.42Z" fill="#C4E4F2"/>
<path d="M481.371 309.5V314.06H467.371V310.45L473.671 304.62C474.106 304.244 474.474 303.798 474.761 303.3C474.933 302.969 475.025 302.603 475.031 302.23C475.04 302.042 475.006 301.854 474.931 301.68C474.857 301.507 474.744 301.353 474.601 301.23C474.235 300.967 473.79 300.839 473.341 300.87C472.805 300.873 472.281 301.027 471.828 301.313C471.376 301.6 471.013 302.007 470.781 302.49L466.351 300.27C467.016 299.027 468.026 298.002 469.261 297.32C470.684 296.565 472.28 296.193 473.891 296.24C475.143 296.219 476.387 296.447 477.551 296.91C478.542 297.307 479.404 297.972 480.041 298.83C480.641 299.661 480.957 300.664 480.941 301.69C480.944 302.628 480.736 303.554 480.331 304.4C479.715 305.485 478.908 306.45 477.951 307.25L475.461 309.51L481.371 309.5Z" fill="#15CDF2"/>
<path d="M486.37 313.37C485.154 312.622 484.183 311.534 483.58 310.24C482.914 308.694 482.57 307.028 482.57 305.345C482.57 303.662 482.914 301.996 483.58 300.45C484.186 299.155 485.156 298.064 486.37 297.31C487.619 296.602 489.03 296.229 490.465 296.229C491.9 296.229 493.311 296.602 494.56 297.31C495.77 298.07 496.738 299.159 497.35 300.45C498.016 301.996 498.36 303.662 498.36 305.345C498.36 307.028 498.016 308.694 497.35 310.24C496.74 311.53 495.772 312.617 494.56 313.37C493.313 314.084 491.902 314.46 490.465 314.46C489.028 314.46 487.617 314.084 486.37 313.37ZM492.45 305.37C492.45 302.443 491.783 300.977 490.45 300.97C489.117 300.963 488.45 302.43 488.45 305.37C488.45 308.31 489.117 309.78 490.45 309.78C491.783 309.78 492.45 308.3 492.45 305.34V305.37Z" fill="#15CDF2"/>
<path d="M270.71 172.93C270.451 172.616 270.319 172.216 270.34 171.81C270.321 171.404 270.453 171.005 270.71 170.69C270.836 170.549 270.99 170.436 271.162 170.359C271.334 170.282 271.521 170.242 271.71 170.242C271.899 170.242 272.086 170.282 272.258 170.359C272.43 170.436 272.584 170.549 272.71 170.69C272.957 171.011 273.09 171.405 273.09 171.81C273.09 172.215 272.957 172.609 272.71 172.93C272.586 173.074 272.433 173.189 272.26 173.268C272.087 173.347 271.9 173.388 271.71 173.388C271.52 173.388 271.333 173.347 271.16 173.268C270.987 173.189 270.834 173.074 270.71 172.93ZM272.2 172.54C272.331 172.32 272.394 172.066 272.38 171.81C272.395 171.557 272.332 171.306 272.2 171.09C272.141 171.007 272.063 170.941 271.972 170.895C271.882 170.85 271.781 170.828 271.68 170.83C271.582 170.83 271.485 170.854 271.398 170.899C271.311 170.944 271.236 171.01 271.18 171.09C271.042 171.304 270.975 171.556 270.99 171.81C270.973 172.064 271.039 172.317 271.18 172.53C271.235 172.612 271.31 172.678 271.397 172.724C271.484 172.769 271.582 172.792 271.68 172.79C271.781 172.794 271.881 172.774 271.971 172.73C272.062 172.687 272.141 172.621 272.2 172.54ZM275.07 170.32H275.85L272 176H271.21L275.07 170.32ZM274.41 175.59C274.149 175.276 274.014 174.877 274.03 174.47C274.012 174.062 274.148 173.663 274.41 173.35C274.533 173.206 274.686 173.093 274.86 173.018C275.033 172.944 275.222 172.91 275.41 172.92C275.598 172.912 275.786 172.947 275.959 173.021C276.132 173.096 276.286 173.208 276.41 173.35C276.669 173.664 276.801 174.064 276.78 174.47C276.799 174.876 276.667 175.275 276.41 175.59C276.285 175.73 276.131 175.84 275.958 175.913C275.785 175.986 275.597 176.019 275.41 176.01C275.222 176.022 275.034 175.99 274.861 175.917C274.687 175.844 274.533 175.732 274.41 175.59ZM275.89 175.19C276.02 174.973 276.082 174.723 276.07 174.47C276.085 174.217 276.022 173.966 275.89 173.75C275.83 173.675 275.754 173.614 275.667 173.573C275.581 173.531 275.486 173.51 275.39 173.51C275.294 173.51 275.199 173.531 275.113 173.573C275.026 173.614 274.95 173.675 274.89 173.75C274.759 173.97 274.696 174.224 274.71 174.48C274.695 174.733 274.758 174.984 274.89 175.2C274.947 175.282 275.023 175.349 275.112 175.395C275.201 175.44 275.3 175.463 275.4 175.46C275.497 175.457 275.592 175.43 275.677 175.383C275.762 175.337 275.835 175.27 275.89 175.19Z" fill="#15CDF2"/>
<path d="M216.66 171.58H236.77C236.953 171.578 237.132 171.523 237.285 171.421C237.437 171.319 237.556 171.174 237.627 171.005C237.698 170.836 237.719 170.65 237.685 170.47C237.652 170.289 237.567 170.122 237.44 169.99L227.38 159.72C227.293 159.633 227.189 159.563 227.075 159.516C226.961 159.469 226.838 159.444 226.715 159.444C226.591 159.444 226.469 159.469 226.355 159.516C226.241 159.563 226.137 159.633 226.05 159.72L216 170C215.877 170.132 215.795 170.297 215.763 170.475C215.731 170.653 215.751 170.836 215.821 171.003C215.89 171.169 216.007 171.313 216.155 171.415C216.304 171.517 216.479 171.575 216.66 171.58Z" fill="#C4E4F2"/>
<path d="M233.451 169.67H220.551V190.12H233.451V169.67Z" fill="#C4E4F2"/>
<path d="M250.91 171.06V188.49H245V175.49H242V171.06H250.91Z" fill="#15CDF2"/>
<path d="M256.851 187.8C255.636 187.05 254.667 185.962 254.061 184.67C253.394 183.124 253.051 181.458 253.051 179.775C253.051 178.092 253.394 176.426 254.061 174.88C254.664 173.583 255.634 172.492 256.851 171.74C258.099 171.032 259.51 170.659 260.946 170.659C262.381 170.659 263.792 171.032 265.041 171.74C266.257 172.492 267.227 173.583 267.83 174.88C268.497 176.426 268.84 178.092 268.84 179.775C268.84 181.458 268.497 183.124 267.83 184.67C267.213 185.968 266.229 187.056 265.001 187.8C263.754 188.514 262.342 188.89 260.906 188.89C259.469 188.89 258.057 188.514 256.811 187.8H256.851ZM262.941 179.8C262.941 176.86 262.271 175.4 260.941 175.4C259.611 175.4 258.941 176.86 258.941 179.8C258.941 182.74 259.611 184.21 260.941 184.21C262.271 184.21 262.941 182.71 262.941 179.77V179.8Z" fill="#15CDF2"/>
<path d="M302.05 309.68C302.05 309.82 288.49 309.94 271.77 309.94C255.05 309.94 241.48 309.82 241.48 309.68C241.48 309.54 255.04 309.42 271.77 309.42C288.5 309.42 302.05 309.54 302.05 309.68Z" fill="#1A4A54"/>
<path d="M548.57 20.93H414.37C409.875 20.93 406.23 24.5744 406.23 29.07V100.45C406.23 104.946 409.875 108.59 414.37 108.59H548.57C553.066 108.59 556.71 104.946 556.71 100.45V29.07C556.71 24.5744 553.066 20.93 548.57 20.93Z" fill="#F5FCFF"/>
<path d="M548.57 108.59C548.57 108.59 548.98 108.59 549.76 108.47C551.273 108.231 552.689 107.571 553.844 106.564C554.998 105.558 555.846 104.246 556.29 102.78C556.589 101.612 556.7 100.403 556.62 99.2C556.62 97.91 556.62 96.53 556.62 95.07C556.62 83.36 556.57 66.43 556.54 45.53C556.54 40.2967 556.54 34.8233 556.54 29.11C556.541 27.6817 556.159 26.2792 555.435 25.0482C554.71 23.8173 553.669 22.8027 552.42 22.11C551.128 21.4058 549.671 21.0605 548.2 21.11H543.6H504.34H414.34C412.402 21.108 410.531 21.8211 409.087 23.1128C407.642 24.4045 406.724 26.1839 406.51 28.11C406.41 31.99 406.51 35.95 406.46 39.82C406.46 47.6 406.46 55.2667 406.46 62.82V85C406.46 88.62 406.46 92.2033 406.46 95.75C406.46 97.51 406.46 99.29 406.46 101.01C406.581 102.696 407.242 104.299 408.344 105.581C409.446 106.863 410.931 107.757 412.58 108.13C413.395 108.298 414.228 108.365 415.06 108.33H446.62H480.83L530.37 108.41L543.84 108.46H530.37L480.83 108.54H446.62H415.1C414.232 108.569 413.363 108.499 412.51 108.33C410.761 107.931 409.185 106.981 408.015 105.62C406.845 104.26 406.143 102.56 406.01 100.77C405.95 98.99 406.01 97.25 406.01 95.48V85C406.01 77.76 406.01 70.3767 406.01 62.85V39.85C406.01 35.96 405.95 32.08 406.01 28.09C406.243 26.0364 407.222 24.1399 408.762 22.7609C410.301 21.3819 412.293 20.6165 414.36 20.61H504.36H543.62H548.19C549.729 20.5423 551.259 20.8876 552.62 21.61C553.928 22.3427 555.017 23.411 555.775 24.7047C556.532 25.9984 556.931 27.4708 556.93 28.97C556.93 34.6767 556.93 40.15 556.93 45.39C556.93 66.3 556.87 83.22 556.85 94.93C556.85 96.39 556.85 97.77 556.85 99.06C556.919 100.281 556.798 101.506 556.49 102.69C555.92 104.537 554.716 106.124 553.09 107.17C552.098 107.808 550.979 108.222 549.81 108.38C549.516 108.426 549.218 108.45 548.92 108.45L548.57 108.59Z" fill="#1A4A54"/>
<path d="M429.81 76.38H425.49V92.05H429.81V76.38Z" fill="#15CDF2"/>
<path d="M445.19 63.71H440.87V92.06H445.19V63.71Z" fill="#15CDF2"/>
<path d="M438 45.12H432.67V92.06H438V45.12Z" fill="#5A96B8"/>
<path d="M460.57 81.33H456.25V92.05H460.57V81.33Z" fill="#15CDF2"/>
<path d="M452.881 81.33H448.561V92.05H452.881V81.33Z" fill="#5A96B8"/>
<path d="M475.94 74.49H471.62V92.05H475.94V74.49Z" fill="#15CDF2"/>
<path d="M468.25 59.24H463.93V92.05H468.25V59.24Z" fill="#5A96B8"/>
<path d="M499.01 59.24H494.69V92.05H499.01V59.24Z" fill="#5A96B8"/>
<path d="M483.631 42.63H479.311V92.05H483.631V42.63Z" fill="#5A96B8"/>
<path d="M491.32 79.81H487V92.05H491.32V79.81Z" fill="#15CDF2"/>
<path d="M529.76 83.07H525.44V92.06H529.76V83.07Z" fill="#5A96B8"/>
<path d="M514.371 43.57H510.061V92.05H514.371V43.57Z" fill="#5A96B8"/>
<path d="M522.06 53.49H517.75V92.06H522.06V53.49Z" fill="#15CDF2"/>
<path d="M506.68 52.09H502.37V92.06H506.68V52.09Z" fill="#15CDF2"/>
<path d="M537.45 59.24H533.13V92.05H537.45V59.24Z" fill="#15CDF2"/>
<path d="M435.14 96.7H426.22C425.883 96.7 425.61 96.9731 425.61 97.31V97.87C425.61 98.2069 425.883 98.48 426.22 98.48H435.14C435.477 98.48 435.75 98.2069 435.75 97.87V97.31C435.75 96.9731 435.477 96.7 435.14 96.7Z" fill="#D3EEF7"/>
<path d="M464.52 96.7H455.6C455.263 96.7 454.99 96.9731 454.99 97.31V97.87C454.99 98.2069 455.263 98.48 455.6 98.48H464.52C464.857 98.48 465.13 98.2069 465.13 97.87V97.31C465.13 96.9731 464.857 96.7 464.52 96.7Z" fill="#D3EEF7"/>
<path d="M490.47 96.7H481.55C481.214 96.7 480.94 96.9731 480.94 97.31V97.87C480.94 98.2069 481.214 98.48 481.55 98.48H490.47C490.807 98.48 491.08 98.2069 491.08 97.87V97.31C491.08 96.9731 490.807 96.7 490.47 96.7Z" fill="#D3EEF7"/>
<path d="M517.19 96.7H508.27C507.933 96.7 507.66 96.9731 507.66 97.31V97.87C507.66 98.2069 507.933 98.48 508.27 98.48H517.19C517.527 98.48 517.8 98.2069 517.8 97.87V97.31C517.8 96.9731 517.527 96.7 517.19 96.7Z" fill="#D3EEF7"/>
<path d="M539.83 96.7H530.91C530.573 96.7 530.3 96.9731 530.3 97.31V97.87C530.3 98.2069 530.573 98.48 530.91 98.48H539.83C540.167 98.48 540.44 98.2069 540.44 97.87V97.31C540.44 96.9731 540.167 96.7 539.83 96.7Z" fill="#D3EEF7"/>
<path d="M543 92.05C543 92.2 515.22 92.31 481 92.31C446.78 92.31 419 92.2 419 92.05C419 91.9 446.77 91.79 481 91.79C515.23 91.79 543 91.91 543 92.05Z" fill="#1A4A54"/>
<path d="M420.59 35.69C421.899 35.69 422.96 34.6289 422.96 33.32C422.96 32.0111 421.899 30.95 420.59 30.95C419.281 30.95 418.22 32.0111 418.22 33.32C418.22 34.6289 419.281 35.69 420.59 35.69Z" fill="#D3EEF7"/>
<path d="M429.41 33.32C429.42 33.789 429.291 34.2504 429.038 34.6457C428.785 35.0411 428.421 35.3525 427.991 35.5407C427.562 35.7288 427.086 35.7852 426.624 35.7027C426.162 35.6202 425.735 35.4024 425.397 35.0771C425.059 34.7517 424.825 34.3334 424.725 33.875C424.625 33.4167 424.664 32.939 424.835 32.5024C425.007 32.0658 425.304 31.69 425.69 31.4225C426.075 31.1551 426.531 31.008 427 31C427.627 30.9919 428.231 31.2309 428.682 31.6652C429.133 32.0995 429.395 32.694 429.41 33.32Z" fill="#D3EEF7"/>
<path d="M433.41 35.69C434.719 35.69 435.78 34.6289 435.78 33.32C435.78 32.0111 434.719 30.95 433.41 30.95C432.101 30.95 431.04 32.0111 431.04 33.32C431.04 34.6289 432.101 35.69 433.41 35.69Z" fill="#D3EEF7"/>
<path d="M305.67 224.39L320.41 255.11L328.11 253.11L377.35 295.34L391.88 267.89C391.88 267.89 362.56 254.4 357.3 243.61C352.04 232.82 356.98 233.14 356.98 233.14L344.8 214.24L305.67 224.39Z" fill="#1A4A54"/>
<path d="M324.72 183.44C324.72 183.44 340.17 178.9 364.88 161.44C382.95 148.64 397.07 133.44 403.36 126.13C404.78 124.43 406.813 123.358 409.018 123.147C411.223 122.935 413.422 123.601 415.14 125C420.58 129.59 428.07 141.09 436.23 170.32C450.63 221.85 440.3 231.65 435.97 230.88C431.64 230.11 403.14 220.68 384.39 219.88C365.64 219.08 337.06 224.66 337.06 224.66L324.72 183.44Z" fill="#D3EEF7"/>
<path d="M324.72 183.44C324.762 183.67 324.819 183.897 324.89 184.12C325.03 184.63 325.22 185.31 325.47 186.19L327.8 194.26C329.9 201.4 332.93 211.75 336.75 224.78L336.83 225.06L337.13 225.01C345.26 223.53 354.56 222.09 364.83 221.1C369.97 220.62 375.36 220.25 380.95 220.27C386.747 220.367 392.525 220.966 398.22 222.06C410.07 224.15 422.31 227.73 435.22 231.27L435.85 231.41H436.58C437.06 231.375 437.532 231.267 437.98 231.09C438.38 230.85 438.79 230.63 439.17 230.36L440.17 229.36C441.273 227.961 442.095 226.361 442.59 224.65C443.586 221.256 444.088 217.737 444.08 214.2C444.076 207.043 443.379 199.903 442 192.88C441.7 191.3 441.4 189.72 441.11 188.15C440.82 186.58 440.4 185.03 440.06 183.48C439.39 180.37 438.6 177.31 437.78 174.28C436.23 168.21 434.44 162.28 432.51 156.54C430.647 150.875 428.443 145.328 425.91 139.93C423.38 134.68 420.5 129.62 416.49 125.62C415.507 124.58 414.319 123.755 413 123.2C411.665 122.704 410.231 122.536 408.818 122.71C407.405 122.884 406.054 123.395 404.88 124.2C403.795 124.996 402.826 125.938 402 127C398.54 130.94 395.05 134.64 391.58 138.12C385.155 144.579 378.346 150.643 371.19 156.28C360.786 164.368 349.67 171.497 337.98 177.58C333.83 179.7 330.51 181.16 328.24 182.08C327.11 182.55 326.24 182.88 325.65 183.08C325.347 183.182 325.05 183.298 324.76 183.43C325.073 183.379 325.381 183.298 325.68 183.19C326.28 183 327.17 182.7 328.32 182.26C330.62 181.4 333.97 180 338.16 177.93C349.954 171.969 361.163 164.915 371.64 156.86C378.857 151.242 385.72 145.184 392.19 138.72C395.69 135.25 399.19 131.54 402.68 127.6C403.465 126.584 404.387 125.682 405.42 124.92C406.474 124.217 407.681 123.775 408.94 123.63C410.236 123.48 411.55 123.645 412.768 124.112C413.987 124.578 415.075 125.332 415.94 126.31C419.79 130.17 422.64 135.16 425.13 140.36C427.639 145.726 429.82 151.239 431.66 156.87C433.57 162.6 435.36 168.49 436.9 174.55C437.71 177.55 438.49 180.61 439.16 183.7C439.5 185.25 439.88 186.79 440.16 188.35C440.44 189.91 440.75 191.49 441.05 193.06C442.414 200.031 443.1 207.117 443.1 214.22C443.114 217.651 442.633 221.067 441.67 224.36C441.219 225.942 440.469 227.422 439.46 228.72L438.62 229.54C438.31 229.76 437.98 229.94 437.62 230.15C436.938 230.425 436.184 230.46 435.48 230.25C422.65 226.76 410.28 223.17 398.39 221.11C392.654 220.027 386.836 219.445 381 219.37C375.35 219.37 370 219.77 364.79 220.27C354.49 221.27 345.19 222.8 337.04 224.35L337.42 224.58L328.19 194.36C327.1 190.86 326.26 188.15 325.68 186.27C325.4 185.38 325.18 184.68 325.01 184.17C324.84 183.66 324.73 183.45 324.72 183.44Z" fill="#1A4A54"/>
<path d="M284.39 227.08L294.43 225.54L288.66 212.23L280.22 216.73L284.39 227.08Z" fill="#15CDF2"/>
<path d="M287.319 210.88L291.809 221.25L294.259 226.91C295.844 230.641 298.812 233.613 302.542 235.202C306.271 236.791 310.471 236.873 314.259 235.43L354.999 224.27L338.439 172.64L297.199 187.88C292.972 189.781 289.611 193.198 287.782 197.457C285.953 201.715 285.788 206.505 287.319 210.88Z" fill="#15CDF2"/>
<g opacity="0.3">
<path d="M432.86 173.1C440.34 200.58 441.5 224.23 435.44 225.92C429.38 227.61 418.44 206.7 410.95 179.22C403.46 151.74 402.31 128.1 408.36 126.41C414.41 124.72 425.38 145.63 432.86 173.1Z" fill="#063547"/>
</g>
<path d="M407.12 163.08C407.12 163.08 421.67 156.85 426.12 176.15C430.57 195.45 416.12 196.21 416.12 196.21C411.589 185.641 408.559 174.489 407.12 163.08Z" fill="#F5FCFF"/>
<path d="M330.28 192.73C330.36 193 323.37 195.58 314.66 198.51C305.95 201.44 298.81 203.58 298.72 203.32C298.63 203.06 305.63 200.46 314.34 197.54C323.05 194.62 330.19 192.46 330.28 192.73Z" fill="#1A4A54"/>
<path d="M332.079 198.41C332.159 198.68 325.169 201.27 316.459 204.19C307.749 207.11 300.609 209.27 300.519 209C300.429 208.73 307.429 206.15 316.139 203.23C324.849 200.31 331.999 198.15 332.079 198.41Z" fill="#1A4A54"/>
<path d="M333.88 204.1C333.96 204.37 326.97 206.95 318.26 209.88C309.55 212.81 302.41 214.95 302.32 214.69C302.23 214.43 309.23 211.83 317.94 208.91C326.65 205.99 333.79 203.83 333.88 204.1Z" fill="#1A4A54"/>
<path d="M335.68 209.79C335.76 210.05 328.77 212.64 320.06 215.56C311.35 218.48 304.21 220.64 304.12 220.37C304.03 220.1 311.03 217.52 319.74 214.6C328.45 211.68 335.59 209.52 335.68 209.79Z" fill="#1A4A54"/>
<path d="M458.77 187.76C458.71 187.94 467.11 191.04 477.54 194.68C487.97 198.32 496.47 201.15 496.54 200.97C496.61 200.79 488.19 197.7 477.76 194.05C467.33 190.4 458.83 187.59 458.77 187.76Z" fill="#1A4A54"/>
<path d="M455.38 168C455.38 168.18 468.82 166.31 485.33 163.82C501.84 161.33 515.22 159.16 515.2 158.98C515.18 158.8 501.76 160.67 485.2 163.16C468.64 165.65 455.35 167.85 455.38 168Z" fill="#1A4A54"/>
<path d="M452.39 147.79C452.52 147.93 457.22 143.73 462.89 138.42C468.56 133.11 473.06 128.7 472.94 128.56C472.82 128.42 468.11 132.62 462.44 137.93C456.77 143.24 452.27 147.66 452.39 147.79Z" fill="#1A4A54"/>
<path d="M405.48 129.39C405.38 129.714 405.329 130.051 405.33 130.39C405.27 131.17 405.2 132.11 405.12 133.26C405.04 134.41 405 136 405 137.81C405 139.62 404.91 141.6 405 143.81C405.128 149.044 405.529 154.268 406.2 159.46C407.062 165.819 408.291 172.123 409.88 178.34C411.525 184.534 413.528 190.628 415.88 196.59C417.823 201.44 420.023 206.183 422.47 210.8C423.47 212.8 424.53 214.52 425.4 216.05C426.27 217.58 427.09 218.88 427.78 219.92L429.36 222.31C429.524 222.601 429.73 222.867 429.97 223.1C429.868 222.779 429.723 222.473 429.54 222.19C429.15 221.52 428.69 220.7 428.12 219.71C427.55 218.72 426.73 217.32 425.91 215.71C425.09 214.1 424.08 212.41 423.13 210.41C421.13 206.41 418.94 201.63 416.77 196.18C414.484 190.235 412.515 184.173 410.87 178.02C409.295 171.844 408.05 165.588 407.14 159.28C406.36 153.46 405.89 148.18 405.72 143.73C405.57 141.51 405.59 139.5 405.55 137.73C405.51 135.96 405.55 134.44 405.55 133.19C405.55 131.94 405.55 131.1 405.55 130.32C405.559 130.008 405.536 129.697 405.48 129.39Z" fill="#1A4A54"/>
<path d="M425.24 355.54C415.862 355.54 406.868 351.815 400.237 345.183C393.605 338.552 389.88 329.558 389.88 320.18C389.88 310.801 393.605 301.806 400.236 295.173C406.867 288.54 415.861 284.813 425.24 284.81C434.621 284.81 443.617 288.536 450.25 295.17C456.883 301.803 460.61 310.799 460.61 320.18C460.61 324.824 459.695 329.423 457.917 333.714C456.14 338.005 453.534 341.903 450.25 345.187C446.965 348.47 443.066 351.075 438.775 352.851C434.483 354.628 429.884 355.541 425.24 355.54Z" fill="#15CDF2"/>
<path d="M409.229 332.55C412.234 334.478 415.729 335.502 419.299 335.5C431.499 335.5 438.389 325.2 437.979 315.96C439.266 315.026 440.376 313.871 441.259 312.55C440.057 313.072 438.783 313.409 437.479 313.55C438.855 312.73 439.883 311.435 440.369 309.91C439.081 310.678 437.671 311.22 436.199 311.51C435.208 310.457 433.897 309.76 432.469 309.527C431.041 309.293 429.577 309.537 428.301 310.22C427.026 310.903 426.012 311.988 425.415 313.306C424.818 314.623 424.672 316.101 424.999 317.51C422.388 317.38 419.833 316.702 417.5 315.52C415.167 314.338 413.109 312.679 411.459 310.65C410.617 312.093 410.355 313.802 410.727 315.43C411.098 317.059 412.075 318.485 413.459 319.42C412.408 319.393 411.378 319.112 410.459 318.6C410.441 320.13 410.957 321.619 411.919 322.81C412.882 324 414.229 324.817 415.729 325.12C414.751 325.387 413.725 325.425 412.729 325.23C413.148 326.537 413.966 327.68 415.067 328.5C416.168 329.319 417.497 329.774 418.869 329.8C416.141 331.945 412.679 332.932 409.229 332.55Z" fill="#F5FCFF"/>
<path d="M412.998 258.913L412.039 259.196L421.376 290.879L422.335 290.596L412.998 258.913Z" fill="#15CDF2"/>
<path d="M415.789 258.38C415.789 259.029 415.597 259.663 415.237 260.202C414.876 260.742 414.364 261.162 413.765 261.41C413.165 261.659 412.506 261.724 411.87 261.597C411.233 261.47 410.649 261.158 410.19 260.699C409.731 260.241 409.419 259.656 409.293 259.02C409.166 258.384 409.231 257.724 409.479 257.125C409.727 256.525 410.148 256.013 410.687 255.653C411.227 255.292 411.861 255.1 412.509 255.1C413.379 255.1 414.214 255.446 414.829 256.061C415.444 256.676 415.789 257.51 415.789 258.38Z" fill="#15CDF2"/>
<path d="M540.37 257.26C535.725 257.261 531.125 256.347 526.833 254.57C522.541 252.793 518.641 250.188 515.357 246.903C512.072 243.619 509.467 239.719 507.69 235.427C505.913 231.135 504.999 226.535 505 221.89C505 212.512 508.725 203.518 515.357 196.887C521.988 190.255 530.982 186.53 540.36 186.53C545.004 186.529 549.604 187.442 553.895 189.219C558.186 190.995 562.085 193.6 565.37 196.883C568.654 200.167 571.26 204.065 573.037 208.356C574.815 212.647 575.73 217.246 575.73 221.89C575.731 226.534 574.818 231.134 573.041 235.425C571.265 239.716 568.66 243.615 565.377 246.9C562.093 250.184 558.195 252.79 553.904 254.567C549.613 256.345 545.014 257.26 540.37 257.26Z" fill="#15CDF2"/>
<path d="M557.139 214.61C557.11 213.209 556.846 211.824 556.359 210.51C555.919 209.376 555.236 208.353 554.359 207.51C553.514 206.649 552.49 205.983 551.359 205.56C550.051 205.069 548.667 204.805 547.269 204.78C545.469 204.7 544.889 204.68 540.269 204.68C535.649 204.68 535.119 204.68 533.269 204.78C531.871 204.804 530.488 205.068 529.179 205.56C528.06 205.996 527.043 206.659 526.193 207.507C525.342 208.356 524.677 209.371 524.239 210.49C523.753 211.804 523.489 213.189 523.459 214.59C523.379 216.39 523.359 216.96 523.359 221.54C523.359 226.12 523.359 226.7 523.459 228.54C523.489 229.937 523.753 231.32 524.239 232.63C524.673 233.751 525.337 234.769 526.188 235.618C527.038 236.467 528.057 237.129 529.179 237.56C530.487 238.056 531.871 238.324 533.269 238.35C535.069 238.43 535.639 238.45 540.269 238.45C544.899 238.45 545.429 238.45 547.269 238.35C548.668 238.323 550.051 238.055 551.359 237.56C552.489 237.141 553.513 236.479 554.359 235.62C555.236 234.777 555.918 233.753 556.359 232.62C556.846 231.31 557.11 229.927 557.139 228.53C557.219 226.73 557.239 226.15 557.239 221.53C557.239 216.91 557.219 216.41 557.139 214.61ZM554.139 228.38C554.129 229.449 553.933 230.508 553.559 231.51C553.28 232.238 552.851 232.899 552.3 233.45C551.748 234.002 551.087 234.431 550.359 234.71C549.358 235.083 548.298 235.28 547.229 235.29C545.449 235.37 544.919 235.39 540.409 235.39C535.899 235.39 535.409 235.39 533.599 235.29C532.53 235.281 531.471 235.085 530.469 234.71C529.735 234.443 529.072 234.012 528.529 233.45C527.968 232.905 527.534 232.243 527.259 231.51C526.891 230.507 526.695 229.449 526.679 228.38C526.599 226.6 526.589 226.07 526.589 221.56C526.589 217.05 526.589 216.56 526.679 214.75C526.695 213.678 526.891 212.617 527.259 211.61C527.547 210.885 527.981 210.228 528.533 209.677C529.085 209.127 529.744 208.696 530.469 208.41C531.472 208.041 532.531 207.844 533.599 207.83C535.379 207.75 535.909 207.73 540.409 207.73L547.229 207.83C548.298 207.846 549.356 208.042 550.359 208.41C551.092 208.684 551.755 209.118 552.299 209.68C552.859 210.22 553.29 210.88 553.559 211.61C553.932 212.615 554.129 213.678 554.139 214.75C554.219 216.53 554.239 217.06 554.239 221.56C554.239 226.06 554.179 226.6 554.099 228.38H554.139Z" fill="#F5FCFF"/>
<path d="M540.37 212.9C538.657 212.9 536.983 213.408 535.559 214.359C534.135 215.311 533.025 216.664 532.369 218.246C531.714 219.828 531.542 221.57 531.876 223.249C532.211 224.929 533.035 226.472 534.246 227.684C535.458 228.895 537.001 229.719 538.681 230.054C540.36 230.388 542.102 230.216 543.684 229.561C545.266 228.905 546.619 227.795 547.571 226.371C548.522 224.947 549.03 223.273 549.03 221.56C549.03 219.263 548.118 217.061 546.493 215.436C544.869 213.812 542.667 212.9 540.37 212.9ZM540.37 227.19C539.256 227.19 538.168 226.86 537.242 226.241C536.316 225.623 535.595 224.743 535.169 223.715C534.742 222.686 534.631 221.554 534.848 220.462C535.065 219.37 535.602 218.366 536.389 217.579C537.176 216.792 538.18 216.255 539.272 216.038C540.364 215.821 541.496 215.932 542.524 216.359C543.553 216.785 544.432 217.506 545.051 218.432C545.67 219.358 546 220.446 546 221.56C546 223.053 545.407 224.485 544.351 225.541C543.295 226.597 541.863 227.19 540.37 227.19Z" fill="#F5FCFF"/>
<path d="M549.38 210.53C548.984 210.53 548.598 210.647 548.269 210.867C547.94 211.087 547.683 211.399 547.532 211.765C547.381 212.13 547.341 212.532 547.418 212.92C547.495 213.308 547.686 213.665 547.966 213.944C548.245 214.224 548.602 214.414 548.99 214.492C549.378 214.569 549.78 214.529 550.145 214.378C550.511 214.226 550.823 213.97 551.043 213.641C551.263 213.312 551.38 212.926 551.38 212.53C551.38 212 551.169 211.491 550.794 211.116C550.419 210.741 549.91 210.53 549.38 210.53Z" fill="#F5FCFF"/>
<path d="M462.324 222.068L462.31 223.068L509.235 223.731L509.249 222.731L462.324 222.068Z" fill="#15CDF2"/>
<path d="M464.27 219.94C464.791 220.331 465.184 220.867 465.4 221.481C465.616 222.096 465.644 222.76 465.482 223.391C465.32 224.022 464.975 224.59 464.489 225.024C464.004 225.458 463.401 225.739 462.756 225.83C462.111 225.921 461.454 225.818 460.868 225.536C460.281 225.253 459.792 224.803 459.461 224.242C459.131 223.681 458.974 223.034 459.011 222.384C459.048 221.734 459.278 221.11 459.67 220.59C460.196 219.897 460.975 219.44 461.836 219.318C462.698 219.197 463.572 219.42 464.27 219.94Z" fill="#15CDF2"/>
<path d="M338.05 103.27C333.289 103.27 328.575 102.332 324.176 100.508C319.778 98.6851 315.782 96.0128 312.418 92.6443C309.053 89.2758 306.385 85.2772 304.567 80.8769C302.748 76.4767 301.815 71.7612 301.82 67C301.82 57.3912 305.637 48.176 312.432 41.3815C319.226 34.5871 328.442 30.77 338.05 30.77C347.659 30.77 356.874 34.5871 363.669 41.3815C370.463 48.176 374.28 57.3912 374.28 67C374.286 71.7612 373.352 76.4767 371.534 80.8769C369.716 85.2772 367.048 89.2758 363.683 92.6443C360.318 96.0128 356.322 98.6851 351.924 100.508C347.526 102.332 342.811 103.27 338.05 103.27Z" fill="#15CDF2"/>
<path d="M333.42 83.23H340.82V64.69H346L346.55 58.49H340.84V55C340.84 53.54 341.13 53 342.55 53H346.55V46.47H341.43C335.92 46.47 333.43 48.9 333.43 53.54V58.54H329.58V64.82H333.43L333.42 83.23Z" fill="#F5FCFF"/>
<path d="M339.36 96.73H338.36V139.17H339.36V96.73Z" fill="#15CDF2"/>
<path d="M335.51 140C335.672 139.373 336.017 138.807 336.5 138.375C336.983 137.943 337.583 137.664 338.225 137.573C338.867 137.482 339.521 137.583 340.105 137.863C340.689 138.144 341.178 138.591 341.508 139.149C341.838 139.706 341.996 140.349 341.961 140.996C341.927 141.643 341.701 142.266 341.313 142.785C340.925 143.304 340.392 143.696 339.781 143.912C339.17 144.129 338.509 144.159 337.88 144C337.036 143.783 336.312 143.24 335.868 142.49C335.423 141.74 335.295 140.845 335.51 140Z" fill="#15CDF2"/>
<path d="M253.27 161.45C243.892 161.45 234.898 157.725 228.267 151.093C221.636 144.462 217.91 135.468 217.91 126.09C217.91 116.712 221.636 107.718 228.267 101.087C234.898 94.4554 243.892 90.73 253.27 90.73C262.649 90.73 271.644 94.4551 278.277 101.086C284.91 107.717 288.638 116.711 288.64 126.09C288.638 135.469 284.91 144.463 278.277 151.094C271.644 157.725 262.649 161.45 253.27 161.45Z" fill="#15CDF2"/>
<path fill-rule="evenodd" clip-rule="evenodd" d="M272.51 124.64C272.364 119.717 270.317 115.043 266.798 111.597C263.28 108.151 258.564 106.201 253.639 106.157C248.714 106.113 243.964 107.978 240.385 111.361C236.805 114.743 234.675 119.381 234.44 124.3C234.44 124.57 234.44 124.85 234.44 125.12C234.438 128.565 235.382 131.945 237.17 134.89L235.04 141.19C234.898 141.55 234.863 141.943 234.939 142.323C235.016 142.702 235.201 143.051 235.472 143.327C235.743 143.603 236.088 143.795 236.466 143.879C236.844 143.963 237.238 143.936 237.6 143.8L244.29 141.67C247.181 143.259 250.435 144.07 253.733 144.025C257.032 143.979 260.262 143.079 263.108 141.411C265.954 139.743 268.319 137.365 269.97 134.509C271.622 131.654 272.504 128.419 272.53 125.12L272.51 124.64ZM253.51 141.01C250.379 141.018 247.315 140.103 244.7 138.38L238.55 140.38L240.55 134.48C238.583 131.772 237.532 128.507 237.55 125.16C237.547 124.646 237.574 124.131 237.63 123.62C237.999 119.621 239.857 115.907 242.836 113.215C245.816 110.523 249.698 109.05 253.714 109.088C257.729 109.125 261.583 110.672 264.511 113.419C267.44 116.167 269.228 119.915 269.52 123.92C269.52 124.34 269.57 124.75 269.57 125.16C269.528 129.393 267.81 133.437 264.792 136.406C261.775 139.375 257.704 141.027 253.47 141L253.51 141.01Z" fill="#F5FCFF"/>
<path fill-rule="evenodd" clip-rule="evenodd" d="M262.2 128.94C261.73 128.71 259.43 127.59 259.01 127.43C258.59 127.27 258.27 127.2 257.95 127.67C257.63 128.14 256.74 129.17 256.47 129.48C256.2 129.79 255.93 129.82 255.47 129.59C254.091 129.052 252.818 128.273 251.71 127.29C250.694 126.357 249.821 125.278 249.12 124.09C248.85 123.63 249.12 123.38 249.32 123.15C249.52 122.92 249.79 122.6 250.03 122.33L250.2 122.11C250.311 121.934 250.408 121.751 250.49 121.56C250.558 121.436 250.593 121.296 250.593 121.155C250.593 121.014 250.558 120.874 250.49 120.75C250.37 120.51 249.43 118.23 249.04 117.3C248.65 116.37 248.27 116.54 247.99 116.54C247.71 116.54 247.41 116.49 247.1 116.49C246.864 116.497 246.631 116.552 246.416 116.652C246.201 116.751 246.009 116.894 245.85 117.07C245.325 117.566 244.908 118.167 244.627 118.833C244.347 119.499 244.208 120.217 244.22 120.94C244.23 121.475 244.31 122.006 244.46 122.52C244.825 123.679 245.391 124.766 246.13 125.73C246.36 126.03 249.35 130.87 254.13 132.73C258.91 134.59 258.88 133.96 259.74 133.88C260.39 133.758 261.007 133.499 261.548 133.119C262.09 132.74 262.544 132.249 262.88 131.68C263.194 130.992 263.292 130.225 263.16 129.48C263 129.29 262.66 129.17 262.2 128.94Z" fill="#F5FCFF"/>
<path d="M268.798 144.34L268.042 144.995L289.67 169.972L290.426 169.318L268.798 144.34Z" fill="#15CDF2"/>
<path d="M287.34 171.62C287.071 171.03 286.982 170.373 287.086 169.733C287.19 169.093 287.481 168.498 287.923 168.023C288.365 167.549 288.937 167.216 289.569 167.066C290.2 166.917 290.861 166.958 291.469 167.184C292.076 167.411 292.603 167.812 292.983 168.338C293.363 168.864 293.578 169.49 293.602 170.138C293.625 170.786 293.456 171.427 293.116 171.979C292.776 172.531 292.28 172.97 291.69 173.24C290.898 173.6 289.996 173.632 289.181 173.328C288.365 173.024 287.704 172.41 287.34 171.62Z" fill="#15CDF2"/>
<path d="M162 432.42L161.24 452.59C161.24 452.59 181.48 460.14 181.7 463.88L142.54 463.8L142.44 432.32L162 432.42Z" fill="#1A4A54"/>
<path d="M149.1 450.87C148.722 450.982 148.4 451.23 148.194 451.566C147.989 451.903 147.916 452.303 147.99 452.69C148.089 453.072 148.331 453.401 148.666 453.609C149.001 453.817 149.403 453.889 149.79 453.81C150.188 453.687 150.528 453.421 150.742 453.062C150.956 452.704 151.03 452.28 150.95 451.87C150.805 451.483 150.516 451.167 150.142 450.99C149.769 450.812 149.341 450.787 148.95 450.92" fill="#D3EEF7"/>
<path d="M142.51 463.8L142.62 460.63L180.13 461.89C180.13 461.89 181.87 462.66 181.67 463.89L142.51 463.8Z" fill="#5A96B8"/>
<path d="M161.84 452.39C161.84 452.58 160.84 452.67 159.94 453.28C159.04 453.89 158.49 454.7 158.32 454.62C158.15 454.54 158.43 453.44 159.58 452.72C160.73 452 161.88 452.22 161.84 452.39Z" fill="#F5FCFF"/>
<path d="M166 454.1C166 454.28 165.21 454.61 164.56 455.42C163.91 456.23 163.72 457.08 163.56 457.07C163.4 457.06 163.25 455.98 164.08 454.99C164.91 454 165.94 453.92 166 454.1Z" fill="#F5FCFF"/>
<path d="M168.27 459C168.09 459 167.83 458.08 168.27 457C168.71 455.92 169.66 455.54 169.74 455.7C169.82 455.86 169.27 456.41 168.88 457.28C168.49 458.15 168.46 459 168.27 459Z" fill="#F5FCFF"/>
<path d="M161.51 447.77C161.43 447.95 160.51 447.68 159.51 447.77C158.51 447.86 157.58 448.18 157.51 448.02C157.44 447.86 158.23 447.18 159.51 447.11C160.79 447.04 161.6 447.62 161.51 447.77Z" fill="#F5FCFF"/>
<path d="M114 429.67L111.91 454L115.78 473.73C115.851 474.069 115.85 474.419 115.779 474.757C115.708 475.096 115.567 475.416 115.366 475.698C115.165 475.98 114.908 476.217 114.611 476.394C114.314 476.572 113.984 476.686 113.64 476.73C113.245 476.78 112.843 476.734 112.469 476.597C112.095 476.459 111.759 476.234 111.49 475.94C108 472.13 95.2302 458.07 95.4902 456.3C95.7902 454.3 96.0302 430.49 96.0302 430.49L114 429.67Z" fill="#1A4A54"/>
<path d="M113.64 476.7L95.6403 454.63L95.5703 455.63C95.5088 456.522 95.7716 457.406 96.3103 458.12C97.7403 460.04 101.8 465.25 111.46 475.88C111.741 476.182 112.09 476.412 112.478 476.549C112.867 476.687 113.282 476.728 113.69 476.67L113.64 476.7Z" fill="#5A96B8"/>
<g opacity="0.6">
<path d="M101.09 447.08C101.377 447.319 101.565 447.655 101.619 448.024C101.672 448.394 101.587 448.77 101.38 449.08C101.153 449.382 100.816 449.584 100.443 449.642C100.069 449.7 99.6877 449.609 99.3798 449.39C99.0782 449.135 98.8818 448.777 98.8282 448.386C98.7747 447.994 98.8678 447.597 99.0898 447.27C99.3578 446.986 99.7262 446.817 100.116 446.801C100.507 446.784 100.888 446.92 101.18 447.18" fill="#F5FCFF"/>
</g>
<path d="M108.75 465.69C108.89 465.77 109.52 464.52 111.01 463.93C111.926 463.633 112.889 463.511 113.85 463.57C113.85 463.52 113.58 463.31 113.02 463.19C112.275 463.056 111.507 463.143 110.81 463.44C110.105 463.721 109.5 464.205 109.07 464.83C108.76 465.31 108.69 465.67 108.75 465.69Z" fill="#F5FCFF"/>
<path d="M110.28 469.06C111.007 468.722 111.752 468.421 112.51 468.16C113.306 468.061 114.108 468.007 114.91 468C114.549 467.744 114.132 467.577 113.694 467.513C113.256 467.449 112.809 467.489 112.39 467.63C110.92 468 110.16 469 110.28 469.06Z" fill="#F5FCFF"/>
<path d="M105.79 461.3C106.86 460.669 107.976 460.12 109.13 459.66C110.337 459.371 111.564 459.167 112.8 459.05C111.551 458.632 110.195 458.667 108.97 459.15C107.688 459.465 106.56 460.227 105.79 461.3Z" fill="#F5FCFF"/>
<path d="M105.82 453.85C105.87 454 107.26 453.52 109.01 453.57C110.76 453.62 112.13 454.13 112.19 453.98C111.238 453.388 110.144 453.064 109.023 453.041C107.902 453.018 106.796 453.297 105.82 453.85Z" fill="#F5FCFF"/>
<path d="M106.26 446.69C107.345 446.416 108.462 446.292 109.58 446.32C110.68 446.509 111.75 446.845 112.76 447.32C112.76 447.32 112.55 446.95 112.01 446.59C111.29 446.134 110.474 445.854 109.627 445.77C108.779 445.687 107.924 445.803 107.13 446.11C106.53 446.37 106.23 446.64 106.26 446.69Z" fill="#F5FCFF"/>
<path d="M109.62 445C109.72 444.704 109.75 444.39 109.71 444.08C109.686 443.229 109.489 442.392 109.13 441.62C108.924 441.03 108.527 440.527 108 440.19C107.818 440.095 107.611 440.058 107.407 440.085C107.203 440.112 107.012 440.201 106.86 440.34C106.582 440.629 106.419 441.009 106.4 441.41C106.405 442.234 106.695 443.031 107.223 443.664C107.75 444.297 108.481 444.727 109.29 444.88C110.093 445.011 110.916 444.901 111.656 444.565C112.397 444.228 113.021 443.68 113.45 442.99C113.556 442.816 113.622 442.622 113.646 442.42C113.671 442.218 113.652 442.014 113.59 441.82C113.506 441.63 113.364 441.471 113.185 441.365C113.006 441.259 112.798 441.212 112.59 441.23C111.983 441.325 111.411 441.576 110.93 441.96C110.233 442.444 109.63 443.05 109.15 443.75C108.95 443.986 108.803 444.262 108.72 444.56C109.411 443.686 110.226 442.917 111.14 442.28C111.572 441.963 112.072 441.754 112.6 441.67C112.714 441.657 112.83 441.681 112.929 441.738C113.028 441.796 113.106 441.884 113.15 441.99C113.18 442.121 113.183 442.257 113.159 442.389C113.135 442.522 113.084 442.648 113.01 442.76C112.623 443.344 112.075 443.804 111.434 444.086C110.792 444.368 110.083 444.459 109.39 444.35C108.707 444.219 108.088 443.86 107.636 443.331C107.184 442.802 106.924 442.135 106.9 441.44C106.898 441.161 106.998 440.891 107.18 440.68C107.261 440.599 107.367 440.546 107.48 440.53C107.594 440.514 107.71 440.535 107.81 440.59C108.262 440.87 108.612 441.287 108.81 441.78C109.27 442.796 109.545 443.887 109.62 445Z" fill="#F5FCFF"/>
<path d="M180.84 262.38C182.728 270.74 183.365 279.333 182.73 287.88C182.31 293.3 164 443.24 164 443.24H139.33L146.27 302.32L144.27 302.76C144.27 302.76 130.79 362.86 129.69 372.59C128.69 381.34 117.33 444.88 117.33 444.88L94.75 445.14L102 361.09L110.39 280.44L113.49 257L180.84 262.38Z" fill="#1A4A54"/>
<path d="M146.93 292.94C146.93 292.94 146.93 293.01 147.09 293.11C147.268 293.244 147.472 293.34 147.69 293.39C148.096 293.476 148.517 293.472 148.921 293.377C149.326 293.282 149.704 293.098 150.03 292.84C150.495 292.441 150.875 291.953 151.15 291.406C151.425 290.858 151.588 290.261 151.63 289.65C151.81 288.31 151.83 286.86 151.93 285.34C152.1 282.34 152.22 279.52 152.29 277.52C152.372 276.442 152.372 275.358 152.29 274.28C152.101 275.347 151.987 276.427 151.95 277.51C151.8 279.51 151.62 282.26 151.45 285.31C151.35 286.83 151.34 288.31 151.19 289.59C151.14 290.73 150.649 291.806 149.82 292.59C149.534 292.834 149.201 293.017 148.841 293.127C148.482 293.238 148.103 293.272 147.73 293.23C147.452 293.166 147.184 293.069 146.93 292.94Z" fill="#5A96B8"/>
<path d="M110.6 278.44C110.812 278.565 111.046 278.65 111.29 278.69C111.944 278.863 112.614 278.973 113.29 279.02C115.508 279.196 117.736 278.853 119.8 278.02C121.866 277.192 123.709 275.891 125.18 274.22C125.619 273.72 126.017 273.185 126.37 272.62C126.62 272.21 126.73 271.97 126.7 271.96C126.67 271.95 126.08 272.8 124.93 273.96C123.439 275.52 121.631 276.742 119.629 277.546C117.626 278.35 115.475 278.716 113.32 278.62C111.63 278.62 110.62 278.36 110.6 278.44Z" fill="#5A96B8"/>
<path d="M172.55 272.17C172.545 273.012 172.674 273.848 172.93 274.65C173.964 278.624 176.289 282.141 179.54 284.65C180.183 285.192 180.905 285.634 181.68 285.96C177.005 282.703 173.741 277.792 172.55 272.22V272.17Z" fill="#5A96B8"/>
<path d="M168.63 112.21C169.823 112.406 171.046 112.12 172.028 111.415C173.011 110.71 173.673 109.643 173.87 108.45C174.066 107.257 173.78 106.034 173.075 105.051C172.37 104.069 171.303 103.406 170.11 103.21C170.772 102.463 171.182 101.525 171.281 100.532C171.379 99.5377 171.161 98.5382 170.658 97.6756C170.154 96.813 169.391 96.1314 168.478 95.7282C167.564 95.3249 166.546 95.2206 165.57 95.43C165.48 94.4517 165.139 93.5133 164.578 92.7065C164.017 91.8997 163.257 91.2521 162.372 90.8269C161.486 90.4017 160.505 90.2135 159.525 90.2807C158.545 90.3478 157.599 90.668 156.78 91.21C155.631 90.3663 154.233 89.9316 152.808 89.9751C151.384 90.0186 150.015 90.5378 148.92 91.45C147.955 91.3211 146.975 91.5055 146.123 91.9759C145.271 92.4464 144.593 93.1781 144.189 94.0631C143.785 94.9481 143.675 95.9396 143.877 96.8915C144.079 97.8433 144.581 98.7052 145.31 99.35" fill="#FBE7A1"/>
<path d="M148.17 96L149.17 95.95C154.029 95.7077 158.801 97.3037 162.537 100.42C166.273 103.537 168.698 107.946 169.33 112.77C170.55 122.08 171.77 132.37 171.96 137.39C172.35 147.77 162.05 149.9 162.05 149.9L163.54 162.32L138.32 162.79L133.85 117.69C132.38 107 137.41 97.21 148.17 96Z" fill="#FFBE9D"/>
<path d="M162.13 149.92C157.312 150.163 152.526 149.018 148.34 146.62C148.34 146.62 152.07 154.11 162.34 152.62L162.13 149.92Z" fill="#EB996E"/>
<path d="M167.14 122.73C167.162 123.116 167.032 123.496 166.778 123.787C166.524 124.079 166.166 124.259 165.78 124.29C165.593 124.314 165.402 124.3 165.22 124.249C165.038 124.198 164.868 124.111 164.72 123.994C164.572 123.877 164.449 123.731 164.358 123.565C164.267 123.4 164.21 123.218 164.19 123.03C164.168 122.644 164.296 122.265 164.548 121.972C164.8 121.679 165.155 121.496 165.54 121.46C165.729 121.436 165.92 121.451 166.104 121.502C166.287 121.553 166.458 121.641 166.607 121.759C166.756 121.877 166.88 122.024 166.971 122.191C167.063 122.357 167.12 122.541 167.14 122.73Z" fill="#1A4A54"/>
<path d="M167.35 118C167.18 118.2 166.01 117.43 164.42 117.51C162.83 117.59 161.69 118.45 161.51 118.26C161.33 118.07 161.59 117.82 162.08 117.43C162.746 116.913 163.558 116.619 164.4 116.59C165.228 116.543 166.048 116.764 166.74 117.22C167.25 117.57 167.44 117.91 167.35 118Z" fill="#1A4A54"/>
<path d="M153 123.35C153.023 123.736 152.894 124.115 152.643 124.408C152.391 124.701 152.035 124.884 151.65 124.92C151.462 124.944 151.271 124.93 151.089 124.879C150.906 124.828 150.736 124.742 150.587 124.625C150.438 124.507 150.314 124.362 150.222 124.196C150.13 124.031 150.071 123.848 150.05 123.66C150.028 123.273 150.158 122.892 150.412 122.599C150.666 122.306 151.024 122.123 151.41 122.09C151.598 122.065 151.789 122.078 151.971 122.128C152.154 122.178 152.324 122.265 152.473 122.382C152.621 122.5 152.744 122.646 152.835 122.813C152.926 122.979 152.982 123.162 153 123.35Z" fill="#1A4A54"/>
<path d="M152.43 119.08C152.25 119.28 151.09 118.5 149.49 118.59C147.89 118.68 146.77 119.53 146.59 119.34C146.41 119.15 146.67 118.9 147.16 118.5C147.827 117.991 148.633 117.698 149.47 117.66C150.301 117.617 151.123 117.837 151.82 118.29C152.33 118.64 152.51 119 152.43 119.08Z" fill="#1A4A54"/>
<path d="M158.06 130.62C158.886 130.305 159.75 130.104 160.63 130.02C161.04 129.96 161.42 129.86 161.47 129.58C161.482 129.156 161.367 128.738 161.14 128.38C160.71 127.38 160.26 126.38 159.78 125.38C157.89 121.05 156.5 117.48 156.68 117.38C156.86 117.28 158.53 120.75 160.42 125.08C160.87 126.15 161.31 127.17 161.73 128.14C162.003 128.622 162.105 129.182 162.02 129.73C161.97 129.878 161.886 130.011 161.774 130.121C161.663 130.23 161.528 130.312 161.38 130.36C161.156 130.432 160.924 130.475 160.69 130.49C159.822 130.643 158.938 130.687 158.06 130.62Z" fill="#1A4A54"/>
<path d="M152.77 112.87C152.58 113.29 151.19 112.87 149.5 112.95C147.81 113.03 146.42 113.32 146.24 112.95C146.17 112.76 146.45 112.38 147.04 112.02C147.799 111.59 148.658 111.366 149.53 111.37C150.395 111.358 151.247 111.575 152 112C152.59 112.3 152.85 112.68 152.77 112.87Z" fill="#1A4A54"/>
<path d="M167.1 111.42C166.78 111.8 165.45 111.49 163.86 111.55C162.27 111.61 160.95 111.94 160.63 111.55C160.48 111.37 160.63 110.99 161.24 110.62C162.028 110.155 162.925 109.907 163.84 109.9C164.752 109.861 165.657 110.068 166.46 110.5C167 110.87 167.24 111.24 167.1 111.42Z" fill="#1A4A54"/>
<path d="M168.09 108.1C168.09 108.1 165.03 101.74 161.83 100.38C157.94 98.73 156.51 102.98 152.83 102.15C149.15 101.32 145.45 99.73 141.9 102.71C138 106 140 108 140 112.64C139.91 131.36 136.77 136.81 135.36 128.06C135.2 127.06 132.49 126.47 131.89 122.42C131.12 117.17 130.6 110.77 131.59 106.97C132.43 103.76 134.12 101.49 137.22 98.97C142.13 94.92 149.13 94.49 153.9 94.73C158.67 94.97 168.12 100 168.09 108.1Z" fill="#FBE7A1"/>
<path d="M136 127.75C135.968 127.369 135.859 126.999 135.68 126.661C135.501 126.324 135.256 126.026 134.959 125.786C134.662 125.546 134.319 125.368 133.951 125.264C133.584 125.16 133.199 125.131 132.82 125.18C130.89 125.46 128.82 126.67 129.12 130.66C129.7 137.74 136.69 135.66 136.69 135.5C136.69 135.34 136.28 130.71 136 127.75Z" fill="#D6A693"/>
<path d="M135 133C135 133 134.88 133.1 134.68 133.21C134.397 133.36 134.067 133.392 133.76 133.3C133.279 133.048 132.873 132.673 132.585 132.212C132.297 131.752 132.136 131.223 132.12 130.68C132.055 130.072 132.126 129.457 132.33 128.88C132.38 128.657 132.483 128.449 132.632 128.275C132.78 128.101 132.968 127.965 133.18 127.88C133.318 127.831 133.469 127.831 133.606 127.883C133.744 127.934 133.858 128.032 133.93 128.16C134.04 128.35 134.01 128.5 134.05 128.5C134.09 128.5 134.19 128.37 134.11 128.09C134.055 127.915 133.942 127.763 133.79 127.66C133.584 127.532 133.337 127.489 133.1 127.54C132.813 127.619 132.552 127.771 132.342 127.982C132.131 128.192 131.979 128.453 131.9 128.74C131.647 129.374 131.554 130.061 131.63 130.74C131.79 132.17 132.63 133.44 133.63 133.65C133.826 133.69 134.028 133.686 134.222 133.638C134.416 133.589 134.596 133.498 134.75 133.37C135 133.13 135 133 135 133Z" fill="#CC8B75"/>
<path d="M135.47 114C136.375 114.668 137.435 115.095 138.55 115.24C139.106 115.299 139.664 115.154 140.12 114.832C140.576 114.51 140.9 114.033 141.03 113.49C141.09 112.99 140.94 112.42 141.25 112.02C141.56 111.62 142.33 111.66 142.93 111.69C145.01 111.81 147.3 109.41 147.73 107.38C148.021 107.748 148.44 107.993 148.904 108.066C149.367 108.138 149.841 108.032 150.23 107.77C150.862 107.33 151.413 106.786 151.86 106.16C152.123 105.764 152.475 105.436 152.889 105.203C153.303 104.97 153.766 104.839 154.24 104.82C154.748 104.969 155.272 105.059 155.8 105.09C156.72 104.96 157.12 103.84 157.22 102.91C157.32 101.98 157.37 100.91 158.13 100.35C158.928 99.9889 159.828 99.9216 160.67 100.16C161.53 100.24 162.67 99.99 162.81 99.16C162.835 98.9314 162.814 98.7 162.747 98.48C162.68 98.26 162.569 98.0559 162.42 97.88C161.8 97.0524 160.919 96.4574 159.92 96.1908C158.921 95.9242 157.861 96.0014 156.91 96.41C156.503 95.2458 155.759 94.2289 154.773 93.4879C153.787 92.747 152.603 92.3155 151.371 92.248C150.139 92.1805 148.916 92.4802 147.854 93.1089C146.793 93.7377 145.943 94.6673 145.41 95.78C144.623 95.1318 143.691 94.6834 142.693 94.4729C141.696 94.2624 140.662 94.296 139.68 94.571C138.698 94.8459 137.797 95.354 137.054 96.052C136.31 96.75 135.746 97.6173 135.41 98.58C134.531 98.3973 133.617 98.4768 132.782 98.8086C131.947 99.1405 131.227 99.7102 130.713 100.447C130.199 101.184 129.912 102.055 129.888 102.954C129.865 103.852 130.105 104.737 130.58 105.5C129.936 105.861 129.394 106.38 129.006 107.008C128.617 107.636 128.395 108.352 128.36 109.09C128.36 110.56 129.91 111.95 131.31 111.49C131.059 112.081 131.041 112.746 131.259 113.35C131.478 113.954 131.918 114.452 132.49 114.745C133.061 115.038 133.723 115.103 134.341 114.928C134.959 114.753 135.488 114.35 135.82 113.8" fill="#FBE7A1"/>
<path d="M157.55 98.45V98.58C157.562 98.7064 157.562 98.8336 157.55 98.96C157.486 99.4454 157.337 99.9159 157.11 100.35C156.751 101.04 156.242 101.642 155.62 102.11C154.796 102.744 153.79 103.095 152.75 103.11L152.87 102.94C152.995 103.26 153.055 103.602 153.046 103.945C153.037 104.288 152.961 104.627 152.82 104.94C152.533 105.595 152.152 106.205 151.69 106.75C151.468 107.057 151.217 107.342 150.94 107.6C150.618 107.845 150.24 108.006 149.84 108.07C149.424 108.15 148.995 108.129 148.589 108.007C148.183 107.885 147.813 107.666 147.51 107.37L147.77 107.28C147.71 108.021 147.494 108.742 147.138 109.395C146.781 110.048 146.291 110.619 145.7 111.07C145.051 111.602 144.248 111.911 143.41 111.95C142.62 111.951 141.836 111.819 141.09 111.56L141.27 111.47C140.946 112.347 140.406 113.127 139.7 113.74C139.378 114.046 138.992 114.276 138.57 114.414C138.148 114.553 137.701 114.596 137.26 114.54C136.507 114.415 135.807 114.073 135.246 113.556C134.685 113.039 134.286 112.37 134.1 111.63L134.27 111.7C133.542 112.131 132.688 112.301 131.85 112.18C131.225 112.094 130.628 111.861 130.11 111.5C129.784 111.274 129.5 110.993 129.27 110.67C129.191 110.562 129.127 110.445 129.08 110.32C129.38 110.742 129.753 111.108 130.18 111.4C130.686 111.734 131.266 111.94 131.87 112C132.664 112.104 133.469 111.931 134.15 111.51L134.28 111.43V111.58C134.466 112.271 134.848 112.893 135.38 113.371C135.913 113.848 136.573 114.161 137.28 114.27C137.681 114.318 138.088 114.276 138.47 114.146C138.853 114.016 139.201 113.802 139.49 113.52C140.155 112.938 140.664 112.199 140.97 111.37V111.23H141.1C141.813 111.482 142.564 111.607 143.32 111.6C144.096 111.566 144.839 111.282 145.44 110.79C146.005 110.366 146.475 109.828 146.819 109.212C147.163 108.595 147.375 107.913 147.44 107.21V106.87L147.67 107.12C147.937 107.383 148.265 107.576 148.623 107.684C148.982 107.792 149.362 107.812 149.73 107.74C150.093 107.693 150.438 107.552 150.73 107.33C150.998 107.089 151.239 106.821 151.45 106.53C151.897 106.009 152.268 105.426 152.55 104.8C152.806 104.239 152.831 103.6 152.62 103.02L152.55 102.86H152.73C153.719 102.867 154.683 102.555 155.48 101.97C156.09 101.533 156.595 100.966 156.96 100.31C157.257 99.7263 157.456 99.098 157.55 98.45Z" fill="#E2C68F"/>
<path d="M158 136.09C157.94 135.83 156.22 136.28 154.6 135.09C152.98 133.9 152.69 132.09 152.45 132.09C152.21 132.09 152.22 132.59 152.45 133.37C152.697 134.386 153.3 135.28 154.15 135.89C154.958 136.483 155.967 136.735 156.96 136.59C157.65 136.51 158 136.2 158 136.09Z" fill="#1A4A54"/>
<path d="M214.26 236.3H218.65C219.73 234.66 220.83 234.3 223.12 233C228.93 229.56 236.68 226.78 238.34 228.1C240 229.42 237.96 230.88 237.34 231.28C236.72 231.68 231.11 233.85 231.34 235.67C231.57 237.49 249.85 240.78 250.66 242.52C251.74 244.87 249.81 245.82 242.05 244.52L239.85 244.13C239.85 244.13 241.12 245.98 239.73 247.44C238.34 248.9 237.18 248.23 237.18 248.23C237.192 248.768 237.041 249.296 236.746 249.746C236.452 250.196 236.028 250.546 235.53 250.75C233.75 251.54 232.99 250.75 232.99 250.75C232.99 250.75 233.41 255.12 229.56 254.45C226.08 253.85 223.7 253.85 220.28 253.14C219.279 252.918 218.313 252.558 217.41 252.07L213.07 250.41C212.37 247.26 213.92 237.15 214.26 236.3Z" fill="#D6A693"/>
<path d="M237.19 248.21C236.595 247.553 235.904 246.99 235.14 246.54C234.44 246.12 233.53 245.69 232.61 245.04C232.086 244.715 231.645 244.274 231.32 243.75C231.154 243.443 231.071 243.099 231.08 242.75C231.098 242.374 231.255 242.018 231.52 241.75C231.768 241.509 232.065 241.326 232.392 241.214C232.719 241.102 233.066 241.063 233.41 241.1C234.004 241.15 234.59 241.264 235.16 241.44C236.119 241.693 237.041 242.073 237.9 242.57C238.48 242.904 239.02 243.303 239.51 243.76C239.85 244.09 240 244.3 239.98 244.32C239.96 244.34 239.2 243.63 237.73 242.88C236.872 242.451 235.97 242.116 235.04 241.88C234.5 241.732 233.948 241.635 233.39 241.59C233.116 241.562 232.84 241.593 232.579 241.681C232.319 241.769 232.08 241.912 231.88 242.1C231.705 242.292 231.599 242.536 231.577 242.795C231.556 243.053 231.62 243.312 231.76 243.53C232.042 243.993 232.425 244.386 232.88 244.68C233.74 245.32 234.63 245.78 235.33 246.25C235.901 246.61 236.41 247.059 236.84 247.58C237.13 248 237.22 248.2 237.19 248.21Z" fill="#CC8B75"/>
<path d="M229.89 236.88C229.875 237.453 229.746 238.018 229.51 238.54C229.03 239.841 228.319 241.043 227.41 242.09C226.509 243.139 225.429 244.02 224.22 244.69C223.736 245 223.196 245.211 222.63 245.31C225.997 243.479 228.578 240.481 229.89 236.88Z" fill="#CC8B75"/>
<path d="M233 250.73C232.492 250.594 232.017 250.36 231.6 250.04C231.12 249.739 230.662 249.405 230.23 249.04C229.652 248.588 229.221 247.976 228.99 247.28C228.863 246.923 228.813 246.543 228.844 246.166C228.875 245.788 228.986 245.421 229.17 245.09C229.333 244.819 229.556 244.589 229.821 244.416C230.086 244.243 230.386 244.131 230.7 244.09C231.77 243.98 232.26 244.57 232.2 244.58C231.737 244.422 231.244 244.374 230.76 244.44C230.512 244.489 230.278 244.591 230.073 244.737C229.868 244.884 229.697 245.072 229.57 245.29C229.433 245.568 229.353 245.87 229.336 246.18C229.319 246.489 229.364 246.799 229.47 247.09C229.678 247.701 230.047 248.243 230.54 248.66C230.99 249.08 231.43 249.43 231.8 249.73C232.55 250.33 233 250.66 233 250.73Z" fill="#CC8B75"/>
<path d="M230.37 253.83C230.37 253.89 229.89 253.63 229.2 253.16C228.216 252.622 227.436 251.775 226.98 250.75C226.74 250.136 226.74 249.454 226.98 248.84C227.083 248.589 227.239 248.363 227.437 248.178C227.636 247.994 227.872 247.854 228.13 247.77C228.454 247.66 228.806 247.66 229.13 247.77C229.36 247.87 229.45 247.98 229.43 248C229.023 247.92 228.601 247.951 228.21 248.09C228.014 248.172 227.838 248.295 227.693 248.45C227.549 248.605 227.438 248.789 227.37 248.99C227.186 249.494 227.186 250.046 227.37 250.55C227.813 251.491 228.505 252.293 229.37 252.87C230.05 253.42 230.42 253.78 230.37 253.83Z" fill="#CC8B75"/>
<path d="M198.39 229.49L196.49 228.22L189.75 181C189.17 176.87 182.89 166 170.55 161.88L173.05 188.6L183.33 245.73C186.621 247.322 190.007 248.708 193.47 249.88C200.05 252.19 213.2 254.7 213.2 254.7L217.44 235.11L198.39 229.49Z" fill="#D3EEF7"/>
<path d="M116.16 164.85L134.36 157.3L136.52 149L159 159.61L162.76 153.61L165.67 160.26L170.59 161.87L182.09 182.09V225.18L184.41 262.35L181.92 268.22L161.32 271.22C159.069 271.555 156.781 271.555 154.53 271.22L112.72 264.39L111.65 252.11L116 218.31L116.16 164.85Z" fill="#D3EEF7"/>
<path d="M157.6 204.45C157.24 194.97 158.73 170.81 158.73 170.81L161.85 170.31C165.82 187.509 168.494 204.981 169.85 222.58C170.73 234.23 170.73 247.73 170.73 247.73L164.46 261.18L157.53 247.81C157.53 247.81 158 216 157.6 204.45Z" fill="#15CDF2"/>
<path d="M157.92 162.72L160.53 161.7L163.03 165.02L162.17 171.07L159.05 171.57L155.97 167.76L157.92 162.72Z" fill="#15CDF2"/>
<path d="M116.65 164.85C116.65 164.85 104.72 167.94 101.32 179.69C100.46 182.69 95.9401 226.6 95.2501 232.3C94.5601 238 92.4801 246.41 99.4301 252.22C103.73 255.82 139.72 259.56 139.72 259.56L147 242.2L118.55 231.12L122.91 193.2L116.65 164.85Z" fill="#D3EEF7"/>
<path d="M172.74 260.26L153.88 241.35C153.671 241.132 153.555 240.842 153.555 240.54C153.555 240.238 153.671 239.948 153.88 239.73C153.99 239.616 154.121 239.525 154.266 239.463C154.411 239.401 154.568 239.369 154.725 239.369C154.883 239.369 155.04 239.401 155.185 239.463C155.33 239.525 155.461 239.616 155.57 239.73L174.43 258.64C174.639 258.858 174.756 259.148 174.756 259.45C174.756 259.752 174.639 260.042 174.43 260.26C174.322 260.375 174.191 260.467 174.046 260.53C173.9 260.593 173.744 260.625 173.585 260.625C173.427 260.625 173.27 260.593 173.125 260.53C172.98 260.467 172.849 260.375 172.74 260.26Z" fill="#1A4A54"/>
<path d="M146.14 242.12C146.26 242.21 154.44 242.52 156.97 243.06C159.5 243.6 165.49 245.12 167.41 246.48C169.33 247.84 173.18 252.77 172.21 253.48C171.818 253.8 171.327 253.975 170.82 253.975C170.314 253.975 169.823 253.8 169.43 253.48C168.9 252.98 164.2 249.4 164.2 249.4C164.2 249.4 161.38 248.45 161.29 249.18C161.2 249.91 168.29 253.75 167.16 255.47C166.03 257.19 162.98 256.74 162.98 256.74C162.98 256.74 163.85 259.5 162.89 260.89C161.985 261.883 160.827 262.613 159.54 263C159.762 263.642 159.725 264.346 159.438 264.961C159.15 265.577 158.635 266.057 158 266.3C156.31 266.99 153.77 265.3 153.77 265.3L142.87 259.76L139.73 259.58L146.14 242.12Z" fill="#D6A693"/>
<path d="M104.54 254.29H104.71L105.2 254.36L107.12 254.67L114.35 255.9L139.76 260.37L139.5 260.52C141.5 254.85 143.62 248.6 145.9 242.03L146.05 242.35L140.77 240.3L117.41 231.2L117.23 231.13V230.95C118.79 220.48 120.12 211.61 121.06 205.32C121.54 202.22 121.92 199.76 122.19 198.03C122.33 197.21 122.43 196.57 122.51 196.1C122.51 195.9 122.58 195.74 122.6 195.61C122.609 195.551 122.626 195.494 122.65 195.44C122.65 195.44 122.65 195.5 122.65 195.61V196.11C122.59 196.59 122.51 197.23 122.4 198.05C122.17 199.78 121.83 202.25 121.4 205.36C120.51 211.66 119.25 220.54 117.76 231.02L117.61 230.76L141 239.83L146.29 241.83L146.52 241.92L146.44 242.16L139.99 260.64L139.93 260.83H139.73L114.35 256.18L107.15 254.82L105.24 254.44L104.75 254.33C104.59 254.32 104.54 254.3 104.54 254.29Z" fill="#1A4A54"/>
<path d="M117.371 231.06C115.474 231.485 113.632 232.126 111.881 232.97C110.216 233.969 108.669 235.153 107.271 236.5C108.375 234.831 109.875 233.461 111.637 232.512C113.4 231.563 115.369 231.064 117.371 231.06Z" fill="#1A4A54"/>
<path d="M121.811 183.25C121.721 183.25 121.811 182.31 121.711 180.82C121.578 178.88 121.164 176.97 120.481 175.15C119.774 173.35 118.804 171.664 117.601 170.15C116.681 168.97 115.991 168.33 116.051 168.27C116.753 168.707 117.376 169.262 117.891 169.91C119.224 171.407 120.277 173.131 121.001 175C121.721 176.86 122.097 178.835 122.111 180.83C122.142 181.648 122.041 182.465 121.811 183.25Z" fill="#1A4A54"/>
<path d="M183 184.76C183.14 184.76 183.26 199.76 183.26 218.25C183.26 236.74 183.14 251.75 183 251.75C182.86 251.75 182.74 236.75 182.74 218.25C182.74 199.75 182.82 184.76 183 184.76Z" fill="#1A4A54"/>
<path d="M165.63 160.27C165.471 160.726 165.267 161.165 165.02 161.58C164.56 162.47 163.94 163.66 163.18 165.1L163.06 165.33L162.9 165.12C161.74 163.62 160.35 161.8 158.78 159.75L159.18 159.7L155.74 168.57L155.63 168.84L155.37 168.7L154.37 168.19C148.81 165.24 143.78 162.55 140.16 160.58L135.88 158.22C135.343 157.955 134.828 157.647 134.34 157.3C134.913 157.482 135.469 157.717 136 158L140.36 160.22C144.03 162.1 149.08 164.74 154.65 167.69L155.65 168.2L155.28 168.34C156.54 165.14 157.73 162.14 158.78 159.49L158.93 159.1L159.18 159.44L163.18 164.88H162.9L164.9 161.43C165.121 161.03 165.365 160.643 165.63 160.27Z" fill="#1A4A54"/>
</svg>
