<svg width="750" height="500" viewBox="0 0 750 500" fill="none" xmlns="http://www.w3.org/2000/svg">
<path d="M53.8001 198.75C55.522 197.711 57.3751 196.907 59.3101 196.36L60.4401 190.92L69.6401 190.75L71.0001 196.16C72.9495 196.638 74.8262 197.374 76.5801 198.35L81.2301 195.35L87.8501 201.75L84.9701 206.5C86.0087 208.218 86.8125 210.068 87.3601 212L92.8001 213.14L92.9701 222.34L87.5601 223.66C87.0842 225.613 86.3476 227.493 85.3701 229.25L88.3701 233.9L82.0001 240.47L77.2501 237.59C75.5296 238.625 73.6804 239.428 71.7501 239.98L70.6101 245.42L61.4101 245.58L60.0901 240.18C58.1366 239.701 56.2564 238.961 54.5001 237.98L49.8401 241L43.2201 234.61L46.1001 229.86C45.0654 228.136 44.2619 226.283 43.7101 224.35L38.2701 223.22L38.1101 214.02L43.5101 212.69C43.9921 210.742 44.7285 208.866 45.7001 207.11L42.7001 202.46L49.0901 195.84L53.8401 198.72L53.8001 198.75ZM58.7101 211C57.3599 212.406 56.4563 214.181 56.1133 216.1C55.7703 218.019 56.0033 219.996 56.7829 221.783C57.5625 223.57 58.8538 225.086 60.4939 226.14C62.1339 227.194 64.0494 227.738 65.9985 227.705C67.9477 227.671 69.8433 227.061 71.4463 225.952C73.0493 224.843 74.2879 223.283 75.0058 221.471C75.7236 219.658 75.8887 217.674 75.4802 215.768C75.0716 213.862 74.1077 212.119 72.7101 210.76C71.7771 209.853 70.6739 209.139 69.464 208.66C68.2541 208.181 66.9614 207.945 65.6602 207.968C64.359 207.99 63.0751 208.269 61.8823 208.79C60.6895 209.31 59.6115 210.061 58.7101 211Z" fill="#EBEBEB"/>
<path d="M67.3502 65.58C69.072 64.5412 70.9251 63.7374 72.8602 63.19L74.0002 57.74L83.2002 57.58L84.5202 63C86.4686 63.4855 88.3447 64.2252 90.1002 65.2L94.7502 62.15L101.37 68.55L98.4902 73.3C99.5288 75.0184 100.333 76.8682 100.88 78.8L106.33 79.94L106.49 89.14L101.08 90.46C100.603 92.3967 99.866 94.2602 98.8902 96L101.89 100.66L95.4902 107.28L90.7402 104.39C89.0239 105.433 87.1735 106.237 85.2402 106.78L84.1002 112.23L74.9002 112.39L73.6302 107C71.678 106.516 69.7984 105.776 68.0402 104.8L63.3902 107.8L56.7702 101.41L59.6602 96.65C58.6184 94.9319 57.8112 93.0822 57.2602 91.15L51.8202 90.02L51.6602 80.82L57.0602 79.49C57.5472 77.5707 58.287 75.7245 59.2602 74L56.2602 69.35L62.6002 62.7L67.3502 65.58ZM72.2602 77.84C70.911 79.2471 70.0086 81.0223 69.6671 82.9416C69.3255 84.8609 69.5599 86.8383 70.3408 88.6245C71.1217 90.4108 72.414 91.9258 74.0548 92.9784C75.6957 94.0311 77.6114 94.5742 79.5606 94.5394C81.5097 94.5046 83.4049 93.8934 85.0071 92.7828C86.6093 91.6723 87.8467 90.1121 88.5633 88.2991C89.2799 86.4862 89.4436 84.5016 89.0337 82.5957C88.6238 80.6899 87.6587 78.9481 86.2602 77.59C85.3272 76.6822 84.2236 75.9681 83.0133 75.489C81.8029 75.0099 80.5096 74.7751 79.2081 74.7984C77.9065 74.8216 76.6225 75.1024 75.43 75.6244C74.2375 76.1465 73.1601 76.8995 72.2602 77.84Z" fill="#EBEBEB"/>
<path d="M268.14 117.23C270.214 115.974 272.447 115.002 274.78 114.34L276.15 107.76L287.26 107.57L288.86 114.09C291.215 114.668 293.482 115.56 295.6 116.74L301.22 113.06L309.22 120.78L305.74 126.52C306.992 128.596 307.964 130.829 308.63 133.16L315.2 134.53L315.4 145.64L308.87 147.24C308.296 149.596 307.405 151.864 306.22 153.98L309.9 159.6L302.19 167.6L296.45 164.12C294.371 165.372 292.135 166.344 289.8 167.01L288.43 173.58L277.32 173.78L275.72 167.25C273.365 166.672 271.098 165.781 268.98 164.6L263.37 168.28L255.37 160.56L258.85 154.82C257.592 152.747 256.62 150.513 255.96 148.18L249.38 146.81L249.19 135.7L255.71 134.1C256.297 131.748 257.187 129.482 258.36 127.36L254.68 121.75L262.4 113.75L268.14 117.24V117.23ZM274.06 132C272.423 133.696 271.325 135.839 270.905 138.159C270.486 140.478 270.764 142.87 271.703 145.032C272.643 147.194 274.203 149.028 276.185 150.304C278.167 151.58 280.483 152.239 282.84 152.198C285.197 152.158 287.489 151.419 289.426 150.076C291.364 148.733 292.859 146.846 293.724 144.653C294.589 142.46 294.784 140.06 294.285 137.756C293.786 135.453 292.615 133.348 290.92 131.71C288.645 129.514 285.592 128.311 282.43 128.366C279.269 128.42 276.258 129.727 274.06 132Z" fill="#EBEBEB"/>
<path d="M116.84 45C117.709 44.4686 118.648 44.0614 119.63 43.79L120.2 41L124.85 40.92L125.52 43.65C126.505 43.8939 127.453 44.2671 128.34 44.76L130.69 43.22L134 46.48L132.54 48.89C133.067 49.7577 133.474 50.6929 133.75 51.67L136.5 52.24L136.58 56.89L133.85 57.56C133.61 58.546 133.236 59.4947 132.74 60.38L134.28 62.74L131.05 66.08L128.65 64.62C127.784 65.1497 126.848 65.5569 125.87 65.83L125.3 68.59L120.64 68.67L120 65.94C119.015 65.6961 118.067 65.3229 117.18 64.83L114.83 66.37L111.48 63.14L113 60.73C112.464 59.8785 112.04 58.9608 111.74 58L109 57.38L108.92 52.73L111.65 52.06C111.891 51.074 112.264 50.1253 112.76 49.24L111.22 46.88L114.45 43.54L116.85 45H116.84ZM119.32 51.19C118.631 51.9005 118.169 52.7994 117.991 53.7728C117.814 54.7463 117.929 55.7505 118.323 56.6584C118.716 57.5663 119.37 58.3371 120.202 58.873C121.034 59.409 122.006 59.6861 122.995 59.6693C123.985 59.6525 124.947 59.3425 125.76 58.7786C126.573 58.2146 127.2 57.4221 127.563 56.5014C127.925 55.5806 128.006 54.573 127.796 53.6062C127.585 52.6393 127.093 51.7567 126.38 51.07C125.427 50.1515 124.149 49.6483 122.825 49.6708C121.502 49.6933 120.241 50.2396 119.32 51.19Z" fill="#EBEBEB"/>
<path fill-rule="evenodd" clip-rule="evenodd" d="M608.72 78.2C608.72 78.545 608.618 78.8822 608.426 79.1687C608.233 79.4553 607.961 79.6783 607.641 79.8094C607.322 79.9405 606.971 79.9737 606.633 79.905C606.295 79.8362 605.985 79.6685 605.743 79.4231C605.5 79.1778 605.336 78.8659 605.271 78.527C605.206 78.1882 605.244 77.8377 605.378 77.5202C605.513 77.2026 605.739 76.9322 606.028 76.7435C606.317 76.5547 606.655 76.456 607 76.46C607.458 76.4653 607.896 76.6509 608.218 76.9767C608.54 77.3024 608.72 77.742 608.72 78.2Z" fill="#E0E0E0"/>
<path fill-rule="evenodd" clip-rule="evenodd" d="M653.73 49.39C653.732 49.735 653.631 50.0728 653.441 50.3604C653.25 50.6481 652.979 50.8727 652.661 51.0056C652.342 51.1385 651.991 51.1738 651.653 51.107C651.315 51.0402 651.004 50.8743 650.76 50.6303C650.516 50.3864 650.35 50.0754 650.283 49.737C650.216 49.3985 650.251 49.0479 650.384 48.7295C650.517 48.4112 650.742 48.1395 651.03 47.9491C651.317 47.7586 651.655 47.658 652 47.66C652.459 47.66 652.899 47.8423 653.223 48.1667C653.548 48.4911 653.73 48.9312 653.73 49.39Z" fill="#E0E0E0"/>
<path d="M600.07 401C600.07 401 600.07 400.52 600.07 399.59C600.07 398.66 600.07 397.27 600.07 395.46C600.07 391.82 600.07 386.46 600.07 379.56C600.07 365.72 600.07 345.68 599.99 320.84C599.99 271.13 599.99 202.19 599.91 125.22V125.16V125.1C602.16 120.63 604.59 115.82 607.02 110.98V111.1V78.2L607.28 78.45L379.01 78.31L379.12 78.2C379.12 88.76 379.12 96.87 379.12 102.34C379.12 105.067 379.12 107.133 379.12 108.54C379.12 107.15 379.12 105.07 379.12 102.34C379.12 96.87 379.12 88.76 379.06 78.2V78.08H379.18L607.45 77.94H607.7V78.2C607.7 88.56 607.7 99.2 607.7 110.08V111.08V111.14L600.3 125.3V125.18C600.3 202.18 600.24 271.09 600.22 320.8C600.22 345.64 600.16 365.68 600.14 379.52C600.14 386.43 600.14 391.78 600.14 395.42C600.14 397.23 600.14 398.62 600.14 399.55C600.14 400.48 600.07 401 600.07 401Z" fill="#E0E0E0"/>
<path d="M644.9 203.26C644.9 203.26 644.9 202.75 644.9 201.76C644.9 200.77 644.85 199.3 644.81 197.38C644.74 193.53 644.64 187.88 644.51 180.63C644.28 166.12 643.95 145.24 643.51 119.72C646.05 112.947 648.717 105.84 651.51 98.4V98.48C651.51 83.55 651.51 67.02 651.51 49.55L651.76 49.8H587.76H481.76H481.62L481.55 49.67L475.26 36.36L475.46 36.48L403.86 36.39L383.86 36.33H378.61H376.81C376.81 36.33 377.42 36.33 378.61 36.33H383.86L403.86 36.27L475.46 36.18H475.59L475.65 36.3L482 49.39L481.79 49.26H587.79H652V49.51C652 66.98 652 83.51 652 98.44L644 119.74V119.66C644.33 145.19 644.6 166.07 644.79 180.58C644.87 187.83 644.94 193.48 644.98 197.33C644.98 199.25 644.98 200.71 644.98 201.71C644.92 202.75 644.9 203.26 644.9 203.26Z" fill="#E0E0E0"/>
<path d="M632.43 214.44C632.43 214.44 632.43 213.88 632.36 212.78C632.29 211.68 632.29 210.05 632.23 207.93C632.13 203.65 631.98 197.37 631.78 189.31C631.41 173.16 630.88 149.88 630.23 121.31L639.63 99.31V99.39C639.92 87.39 640.24 74.39 640.57 60.7L640.81 60.94H530.06L350.25 60.87L350.39 60.82L335.78 75.31H335.71L287 74.94L274 74.8H287L335.63 75.07H335.51C340.057 70.51 344.92 65.6367 350.1 60.45L350.15 60.39H350.23L530.04 60.32H640.79H641.03V60.57C640.69 74.21 640.35 87.22 640.03 99.26C636.74 106.94 633.58 114.26 630.59 121.26V121.18C631.17 149.76 631.59 173.05 631.96 189.18C632.11 197.24 632.23 203.52 632.31 207.8C632.31 209.92 632.37 211.55 632.38 212.65C632.39 213.75 632.43 214.44 632.43 214.44Z" fill="#E0E0E0"/>
<path fill-rule="evenodd" clip-rule="evenodd" d="M272.51 74.55C272.51 74.8941 272.408 75.2306 272.217 75.5167C272.026 75.8028 271.754 76.0258 271.436 76.1575C271.118 76.2892 270.768 76.3237 270.431 76.2566C270.093 76.1894 269.783 76.0237 269.54 75.7804C269.296 75.537 269.131 75.227 269.063 74.8895C268.996 74.5519 269.031 74.2021 269.162 73.8841C269.294 73.5662 269.517 73.2944 269.803 73.1032C270.089 72.912 270.426 72.81 270.77 72.81C270.999 72.8087 271.226 72.8528 271.437 72.9397C271.649 73.0267 271.842 73.1548 272.003 73.3167C272.165 73.4785 272.293 73.6709 272.38 73.8826C272.467 74.0943 272.511 74.3211 272.51 74.55Z" fill="#E0E0E0"/>
<path fill-rule="evenodd" clip-rule="evenodd" d="M376.84 36.18C376.84 36.5241 376.738 36.8606 376.547 37.1467C376.356 37.4328 376.084 37.6559 375.766 37.7876C375.448 37.9193 375.098 37.9537 374.761 37.8866C374.423 37.8194 374.113 37.6537 373.87 37.4104C373.626 37.167 373.461 36.857 373.394 36.5195C373.326 36.1819 373.361 35.8321 373.493 35.5141C373.624 35.1962 373.847 34.9244 374.133 34.7332C374.42 34.5421 374.756 34.44 375.1 34.44C375.562 34.44 376.004 34.6233 376.33 34.9496C376.657 35.276 376.84 35.7185 376.84 36.18Z" fill="#E0E0E0"/>
<path d="M665.64 397.7H629.29C639.93 361.52 642.35 293.7 640.57 248.77H653.94C653.24 293.54 656.47 361 665.64 397.7Z" fill="#EBEBEB"/>
<path d="M715.61 441.7C712.516 438.257 708.64 435.606 704.309 433.97C699.978 432.335 695.318 431.762 690.72 432.3C691.59 424.3 692.39 415.79 689.23 408.46C686.07 401.13 677.4 395.89 670.8 399.78C673.24 388.69 668.96 376.24 660.38 369.5C656.123 366.205 650.96 364.29 645.584 364.011C640.208 363.733 634.875 365.103 630.3 367.94C621.15 373.77 615.77 385.72 617.21 397.01C612.535 396.713 607.865 397.652 603.668 399.732C599.471 401.812 595.895 404.96 593.3 408.86C590.635 412.976 588.982 417.663 588.474 422.54C587.967 427.416 588.62 432.344 590.38 436.92C576.77 436.19 563.79 454 564.06 468.59L723.43 468.4C724.141 463.649 723.81 458.8 722.46 454.189C721.109 449.579 718.772 445.317 715.61 441.7Z" fill="#EBEBEB"/>
<path d="M635.39 182.1L666.07 192.68C672.84 199.63 668.29 209.44 662.57 213.21C664.658 214.216 666.372 215.859 667.464 217.903C668.557 219.946 668.972 222.284 668.649 224.579C668.327 226.874 667.283 229.006 665.669 230.669C664.055 232.332 661.954 233.439 659.67 233.83C660.433 234.974 660.945 236.265 661.175 237.621C661.405 238.976 661.346 240.365 661.003 241.696C660.66 243.027 660.041 244.271 659.185 245.346C658.328 246.422 657.255 247.305 656.035 247.937C654.814 248.57 653.475 248.939 652.102 249.019C650.73 249.099 649.356 248.889 648.07 248.402C646.785 247.915 645.616 247.163 644.641 246.194C643.666 245.226 642.905 244.062 642.41 242.78C641.12 239.39 641.73 235.39 639.91 232.26C638.19 229.33 634.8 227.92 632.03 225.94C625.17 221.04 622.03 211.94 623.03 203.57C624.03 195.2 629 187.63 635.39 182.1Z" fill="#EBEBEB"/>
<path d="M654.87 189.05C656.048 192.079 656.612 195.311 656.53 198.56C656.515 199.021 656.355 199.466 656.073 199.831C655.791 200.197 655.401 200.464 654.959 200.595C654.516 200.727 654.044 200.716 653.608 200.565C653.172 200.413 652.795 200.128 652.53 199.75C652.66 203.721 652.53 207.696 652.14 211.65C652.09 212.206 651.869 212.734 651.507 213.16C651.146 213.586 650.662 213.889 650.121 214.03C649.58 214.17 649.009 214.139 648.486 213.942C647.963 213.746 647.514 213.392 647.2 212.93C641.51 204.632 639.022 194.552 640.2 184.56L654.87 189.05Z" fill="#E0E0E0"/>
<path d="M624.44 152.06L624.27 152.19C619.499 156.023 615.65 160.878 613.007 166.398C610.364 171.917 608.995 177.96 609 184.08V191.85L624.43 181.12L624.44 152.06Z" fill="#E0E0E0"/>
<path d="M668.52 152L668.69 152.13C673.396 155.908 677.193 160.694 679.801 166.136C682.409 171.578 683.762 177.536 683.76 183.57V191.24L668.52 180.67V152Z" fill="#E0E0E0"/>
<path d="M646.45 75.94C649.94 75.94 656.36 84.94 662.32 100.03C665.851 108.904 667.941 118.286 668.51 127.82V192.68H624.46V133.82C624.429 128.077 624.944 122.345 626 116.7C627.084 111.02 628.619 105.436 630.59 100C636.18 84.9 643 76 646.45 75.94Z" fill="#F5F5F5"/>
<path d="M624.9 182.16C624.9 182.23 634.67 182.33 646.72 182.4C658.77 182.47 668.54 182.46 668.54 182.4C668.54 182.34 658.77 182.23 646.72 182.17C634.67 182.11 624.9 182.1 624.9 182.16Z" fill="#E0E0E0"/>
<path d="M625.09 184.13C625.09 184.19 634.86 184.3 646.91 184.36C658.96 184.42 668.73 184.43 668.73 184.36C668.73 184.29 658.97 184.19 646.91 184.12C634.85 184.05 625.09 184.07 625.09 184.13Z" fill="#E0E0E0"/>
<path d="M625.06 186.2C625.06 186.27 634.83 186.37 646.88 186.44C658.93 186.51 668.7 186.5 668.7 186.44C668.7 186.38 658.93 186.27 646.88 186.21C634.83 186.15 625.06 186.14 625.06 186.2Z" fill="#E0E0E0"/>
<path d="M625 188.28C625 188.34 634.77 188.45 646.81 188.51C658.85 188.57 668.64 188.58 668.64 188.51C668.64 188.44 658.87 188.35 646.82 188.28C634.77 188.21 625 188.21 625 188.28Z" fill="#E0E0E0"/>
<path d="M625 190.35C625 190.42 634.77 190.52 646.82 190.59C658.87 190.66 668.64 190.65 668.64 190.59C668.64 190.53 658.88 190.42 646.82 190.35C634.76 190.28 625 190.29 625 190.35Z" fill="#E0E0E0"/>
<path d="M646.39 152.1C646.385 152.2 646.385 152.3 646.39 152.4C646.354 152.692 646.334 152.986 646.33 153.28C646.33 154.04 646.33 155.15 646.33 156.51C646.33 159.24 646.33 163.01 646.33 167.17C646.33 171.33 646.44 175.11 646.5 177.83C646.5 179.18 646.56 180.28 646.58 181.07C646.58 181.43 646.58 181.72 646.58 181.94C646.568 182.043 646.568 182.147 646.58 182.25C646.588 182.147 646.588 182.043 646.58 181.94C646.58 181.72 646.58 181.43 646.58 181.06C646.58 180.27 646.58 179.18 646.58 177.83C646.58 175.08 646.52 171.32 646.49 167.17C646.46 163.02 646.41 159.26 646.38 156.51C646.38 155.17 646.38 154.07 646.38 153.28C646.38 152.9 646.38 152.6 646.38 152.4C646.396 152.301 646.4 152.2 646.39 152.1Z" fill="#E0E0E0"/>
<path d="M624.44 152.06C624.44 152.12 634.22 152.18 646.29 152.18C658.36 152.18 668.15 152.13 668.15 152.07C668.15 152.01 658.36 151.95 646.29 151.95C634.22 151.95 624.44 152 624.44 152.06Z" fill="#E0E0E0"/>
<path d="M642.87 173.49C642.87 173.49 642.8 173.39 642.6 173.29C642.316 173.167 641.998 173.146 641.7 173.23C641.466 173.278 641.249 173.389 641.073 173.551C640.897 173.713 640.768 173.92 640.7 174.15C640.609 174.428 640.607 174.727 640.692 175.007C640.778 175.286 640.948 175.532 641.179 175.712C641.41 175.891 641.69 175.995 641.982 176.009C642.274 176.023 642.563 175.946 642.81 175.79C643.015 175.672 643.184 175.501 643.3 175.295C643.416 175.089 643.475 174.856 643.47 174.62C643.469 174.309 643.368 174.008 643.18 173.76C643.05 173.59 642.94 173.54 642.93 173.55C642.92 173.56 643 173.64 643.11 173.81C643.25 174.056 643.316 174.337 643.3 174.62C643.297 174.824 643.241 175.023 643.138 175.198C643.035 175.374 642.887 175.519 642.71 175.62C642.498 175.75 642.251 175.812 642.003 175.798C641.754 175.783 641.516 175.694 641.32 175.54C641.125 175.387 640.98 175.177 640.907 174.939C640.834 174.702 640.835 174.447 640.91 174.21C640.964 174.016 641.066 173.84 641.208 173.698C641.35 173.556 641.527 173.453 641.72 173.4C641.99 173.314 642.28 173.314 642.55 173.4C642.76 173.44 642.86 173.5 642.87 173.49Z" fill="#E0E0E0"/>
<path d="M642.63 161C642.63 161 642.56 160.9 642.36 160.81C642.076 160.689 641.76 160.664 641.46 160.74C641.226 160.789 641.01 160.901 640.834 161.063C640.658 161.225 640.529 161.431 640.46 161.66C640.377 161.939 640.377 162.236 640.46 162.515C640.544 162.794 640.707 163.043 640.93 163.23C641.166 163.398 641.445 163.495 641.734 163.509C642.023 163.523 642.309 163.454 642.56 163.31C642.721 163.208 642.859 163.073 642.966 162.915C643.073 162.757 643.146 162.578 643.18 162.39C643.215 162.203 643.211 162.01 643.168 161.824C643.125 161.638 643.044 161.463 642.93 161.31C642.8 161.14 642.69 161.08 642.68 161.09C642.67 161.1 642.76 161.19 642.86 161.36C643.001 161.602 643.067 161.88 643.05 162.16C643.051 162.364 642.996 162.565 642.892 162.741C642.788 162.917 642.639 163.061 642.46 163.16C642.249 163.288 642.004 163.35 641.757 163.335C641.51 163.321 641.273 163.232 641.078 163.08C640.883 162.929 640.738 162.721 640.664 162.485C640.589 162.249 640.588 161.996 640.66 161.76C640.713 161.565 640.815 161.387 640.957 161.243C641.099 161.1 641.276 160.995 641.47 160.94C641.742 160.865 642.029 160.865 642.3 160.94C642.52 160.9 642.62 161 642.63 161Z" fill="#E0E0E0"/>
<path d="M645.27 219.18C645.781 219.513 646.141 220.034 646.273 220.63C646.404 221.226 646.296 221.85 645.972 222.368C645.649 222.885 645.135 223.255 644.541 223.397C643.948 223.54 643.322 223.444 642.798 223.13C642.275 222.815 641.896 222.309 641.742 221.718C641.589 221.127 641.673 220.5 641.977 219.97C642.281 219.441 642.781 219.053 643.369 218.888C643.956 218.723 644.585 218.796 645.12 219.09" fill="#E0E0E0"/>
<path d="M636.47 113.42C635.168 115.381 634.477 117.683 634.484 120.037C634.491 122.39 635.196 124.688 636.509 126.641C637.822 128.594 639.685 130.114 641.862 131.009C644.039 131.903 646.432 132.132 648.739 131.666C651.045 131.201 653.162 130.062 654.822 128.393C656.481 126.724 657.609 124.601 658.062 122.292C658.515 119.982 658.273 117.59 657.366 115.419C656.46 113.247 654.93 111.392 652.97 110.09C651.668 109.225 650.208 108.625 648.675 108.324C647.141 108.023 645.562 108.027 644.03 108.337C642.498 108.646 641.042 109.254 639.744 110.126C638.447 110.998 637.335 112.118 636.47 113.42Z" fill="white"/>
<path d="M636.47 113.42C637.095 112.669 637.762 111.954 638.47 111.28C640.461 109.506 642.989 108.45 645.65 108.28C647.6 108.164 649.549 108.538 651.317 109.37C653.085 110.202 654.616 111.463 655.77 113.04C657.141 114.895 657.928 117.116 658.03 119.42C658.145 121.894 657.468 124.34 656.098 126.403C654.728 128.465 652.735 130.037 650.41 130.89C649.314 131.302 648.16 131.539 646.99 131.59C645.868 131.663 644.741 131.562 643.65 131.29C641.617 130.791 639.756 129.755 638.26 128.29C636.942 127.032 635.942 125.479 635.34 123.76C634.452 121.252 634.434 118.519 635.29 116C635.63 115.088 636.031 114.199 636.49 113.34C636.328 113.536 636.184 113.747 636.06 113.97C635.885 114.223 635.731 114.491 635.6 114.77C635.403 115.143 635.236 115.531 635.1 115.93C634.311 118.094 634.16 120.439 634.668 122.685C635.175 124.932 636.318 126.985 637.96 128.6C639.509 130.116 641.436 131.19 643.54 131.71C645.86 132.28 648.297 132.144 650.54 131.32C652.988 130.449 655.09 128.81 656.531 126.648C657.973 124.485 658.677 121.915 658.54 119.32C658.418 116.922 657.594 114.613 656.17 112.68C654.881 110.948 653.155 109.589 651.17 108.74C649.045 107.854 646.711 107.598 644.445 108.003C642.179 108.407 640.077 109.454 638.39 111.02C638.076 111.303 637.785 111.611 637.52 111.94C637.311 112.167 637.12 112.412 636.95 112.67C636.756 112.897 636.594 113.149 636.47 113.42Z" fill="#E0E0E0"/>
<path d="M646.45 75.94C649.94 75.94 656.36 84.94 662.32 100.03H630.59C636.18 84.9 643 76 646.45 75.94Z" fill="#E0E0E0"/>
<path d="M646.45 75.94L645.83 76.01C645.247 76.1823 644.697 76.4492 644.2 76.8C642.35 78.2359 640.752 79.9696 639.47 81.93C635.97 86.93 631.91 94.93 628.62 105.43C626.865 111.217 625.601 117.141 624.84 123.14C624.446 126.503 624.239 129.884 624.22 133.27C624.22 136.76 624.22 140.36 624.22 144.06C624.22 158.86 624.22 175.27 624.22 192.7V193H668.82V192.75C668.82 175.31 668.82 158.9 668.76 144.1C668.76 140.4 668.76 136.8 668.76 133.31C668.76 131.56 668.76 129.84 668.76 128.15C668.76 126.46 668.55 124.79 668.36 123.15C667.627 117.147 666.324 111.227 664.47 105.47C662.902 100.777 661.031 96.1911 658.87 91.74C657.274 88.359 655.426 85.1031 653.34 82C652.078 80.0298 650.508 78.2743 648.69 76.8C648.34 76.6 648.06 76.39 647.78 76.27C647.547 76.164 647.306 76.0738 647.06 76L646.45 75.93C646.45 75.93 646.65 75.93 647.05 76.05C647.289 76.1284 647.523 76.2219 647.75 76.33C648.055 76.4941 648.349 76.6778 648.63 76.88C650.414 78.3741 651.953 80.1389 653.19 82.11C655.227 85.1991 657.031 88.4346 658.59 91.79C660.719 96.2453 662.563 100.831 664.11 105.52C665.931 111.257 667.206 117.153 667.92 123.13C668.11 124.75 668.27 126.41 668.3 128.13V133.28C668.3 136.767 668.3 140.363 668.3 144.07C668.3 158.88 668.3 175.28 668.3 192.72L668.56 192.46H624.46L624.71 192.72C624.71 175.29 624.71 158.88 624.66 144.08C624.66 140.38 624.66 136.78 624.66 133.29C624.67 129.918 624.867 126.55 625.25 123.2C625.986 117.223 627.224 111.319 628.95 105.55C632.18 95 636.19 87 639.62 82C640.879 80.0414 642.442 78.2962 644.25 76.83C644.735 76.4791 645.271 76.2058 645.84 76.02L646.45 75.94Z" fill="#E0E0E0"/>
<path d="M639.88 126.08C640.543 125.625 641.147 125.092 641.68 124.49C642.73 123.49 644.13 121.95 645.68 120.28L649.52 115.97C650.089 115.408 650.601 114.792 651.05 114.13C650.391 114.586 649.79 115.12 649.26 115.72C648.2 116.72 646.8 118.25 645.26 119.93L641.42 124.24C640.849 124.803 640.333 125.419 639.88 126.08Z" fill="#E0E0E0"/>
<path d="M643.38 126.1C644.77 125.026 646.052 123.821 647.21 122.5C648.492 121.286 649.647 119.946 650.66 118.5C649.271 119.575 647.989 120.78 646.83 122.1C645.55 123.315 644.394 124.655 643.38 126.1Z" fill="#E0E0E0"/>
<path d="M711.52 468.8C711.52 468.95 559.05 469.07 371.02 469.07C182.99 469.07 30.48 469 30.48 468.8C30.48 468.6 182.92 468.54 371.02 468.54C559.12 468.54 711.52 468.66 711.52 468.8Z" fill="#263238"/>
<path d="M672.68 237.37H636.09C630.639 237.37 626.22 241.789 626.22 247.24V283.83C626.22 289.281 630.639 293.7 636.09 293.7H672.68C678.131 293.7 682.55 289.281 682.55 283.83V247.24C682.55 241.789 678.131 237.37 672.68 237.37Z" fill="#263238"/>
<path d="M664.42 237.37H627.83C622.379 237.37 617.96 241.789 617.96 247.24V283.83C617.96 289.281 622.379 293.7 627.83 293.7H664.42C669.871 293.7 674.29 289.281 674.29 283.83V247.24C674.29 241.789 669.871 237.37 664.42 237.37Z" fill="#455A64"/>
<path d="M628.89 265.2L634.25 259.84L644.58 269.03L661.84 251.7L666.82 257.06L643.82 279.36L628.89 265.2Z" fill="white"/>
<path d="M646.56 407.79C647.924 408.443 649.144 409.364 650.145 410.498C651.147 411.632 651.91 412.955 652.39 414.39C653.325 417.272 653.588 420.33 653.16 423.33C652.5 429.13 649.21 434.99 645.66 439.63C640.77 435.36 639.66 427.93 639.31 424.12C638.79 418.12 641.49 406.9 646.56 407.79Z" fill="#15CDF2"/>
<path d="M651.33 449.2C651 447.542 651.112 445.825 651.656 444.224C652.201 442.623 653.157 441.194 654.43 440.08C655.724 438.993 657.222 438.174 658.836 437.671C660.45 437.168 662.147 436.991 663.83 437.15C664.618 437.133 665.401 437.289 666.122 437.609C666.842 437.929 667.484 438.404 668 439C668.38 439.625 668.586 440.34 668.597 441.072C668.607 441.803 668.422 442.524 668.06 443.16C667.316 444.411 666.258 445.445 664.99 446.16C660.75 448.81 656.17 450.61 651.38 449.16" fill="#15CDF2"/>
<path d="M645.07 467C645.093 466.599 645.15 466.201 645.24 465.81C645.4 464.97 645.6 463.89 645.83 462.59C646.379 459 647.503 455.522 649.16 452.29C650.88 449.064 653.431 446.357 656.55 444.45C657.493 443.887 658.5 443.437 659.55 443.11C659.92 442.99 660.22 442.94 660.41 442.89C660.512 442.874 660.617 442.874 660.72 442.89C659.328 443.372 657.988 443.992 656.72 444.74C653.711 446.695 651.245 449.378 649.55 452.54C647.92 455.736 646.774 459.157 646.15 462.69C645.85 464.04 645.61 465.13 645.43 465.88C645.343 466.263 645.223 466.638 645.07 467Z" fill="#263238"/>
<path d="M645.25 416.51C645.297 416.679 645.318 416.855 645.31 417.03C645.31 417.41 645.37 417.91 645.4 418.52C645.47 419.82 645.55 421.7 645.62 424.02C645.77 428.67 645.89 435.1 645.86 442.19C645.83 449.28 645.66 455.72 645.47 460.36C645.37 462.69 645.28 464.57 645.2 465.86C645.2 466.48 645.12 466.97 645.1 467.36C645.099 467.536 645.076 467.71 645.03 467.88C645.015 467.707 645.015 467.533 645.03 467.36C645.03 466.97 645.03 466.47 645.03 465.86C645.03 464.51 645.11 462.64 645.17 460.35C645.28 455.71 645.41 449.29 645.44 442.19C645.47 435.09 645.44 428.68 645.32 424.03C645.32 421.75 645.26 419.88 645.24 418.53C645.24 417.91 645.24 417.42 645.24 417.03C645.228 416.857 645.231 416.683 645.25 416.51Z" fill="#263238"/>
<path d="M642.88 452.73C642.291 449.215 640.872 445.891 638.742 443.033C636.612 440.176 633.831 437.868 630.63 436.3C629 435.52 626.87 435 625.53 436.22C624.19 437.44 624.53 439.62 625.14 441.31C626.575 444.813 629.016 447.812 632.153 449.929C635.29 452.047 638.985 453.189 642.77 453.21" fill="#15CDF2"/>
<path d="M631.42 441.8C631.767 441.918 632.102 442.068 632.42 442.25C632.822 442.436 633.213 442.646 633.59 442.88C634.102 443.165 634.599 443.475 635.08 443.81C635.673 444.208 636.244 444.638 636.79 445.1C637.425 445.61 638.029 446.158 638.6 446.74C639.914 448.085 641.071 449.574 642.05 451.18C643.003 452.801 643.768 454.525 644.33 456.32C644.564 457.102 644.754 457.897 644.9 458.7C645.044 459.399 645.141 460.108 645.19 460.82C645.28 461.47 645.25 462.06 645.28 462.58C645.307 463.02 645.307 463.46 645.28 463.9C645.271 464.28 645.228 464.658 645.15 465.03C645.05 465.03 645.22 463.41 644.94 460.85C644.85 460.21 644.77 459.51 644.6 458.77C644.439 457.979 644.236 457.198 643.99 456.43C643.422 454.686 642.664 453.009 641.73 451.43C640.768 449.852 639.638 448.384 638.36 447.05C637.804 446.465 637.216 445.911 636.6 445.39C636.074 444.927 635.523 444.493 634.95 444.09C632.85 442.55 631.38 441.88 631.42 441.8Z" fill="#263238"/>
<path d="M200.7 218.17H96.1602V468.87H200.7V218.17Z" fill="#E0E0E0"/>
<path d="M148.43 218.17H65.78V468.87H148.43V218.17Z" fill="#F5F5F5"/>
<path d="M148.55 468.68C148.41 468.68 148.29 412.54 148.29 343.29C148.29 274.04 148.41 217.89 148.55 217.89C148.69 217.89 148.81 274.03 148.81 343.29C148.81 412.55 148.7 468.68 148.55 468.68Z" fill="#263238"/>
<path d="M188.55 246.97H163.51V249.55H188.55V246.97Z" fill="#263238"/>
<path d="M188.55 254.35H163.51V256.93H188.55V254.35Z" fill="#263238"/>
<path d="M188.55 261.74H163.51V264.32H188.55V261.74Z" fill="#263238"/>
<path d="M140.44 228.83H74.3201V460.91H140.44V228.83Z" fill="#E0E0E0"/>
<path d="M133.85 237.38H79.0701V245.68H133.85V237.38Z" fill="#EBEBEB"/>
<path d="M87.3701 237.38H79.0701V245.68H87.3701V237.38Z" fill="#15CDF2"/>
<path d="M135.55 237.38H117.51V245.68H135.55V237.38Z" fill="#F5F5F5"/>
<path d="M133.85 252.15H79.0701V260.45H133.85V252.15Z" fill="#EBEBEB"/>
<path d="M87.3701 252.15H79.0701V260.45H87.3701V252.15Z" fill="white"/>
<path d="M135.55 252.15H117.51V260.45H135.55V252.15Z" fill="#F5F5F5"/>
<path d="M133.85 266.93H79.0701V275.23H133.85V266.93Z" fill="#EBEBEB"/>
<path d="M87.3701 266.93H79.0701V275.23H87.3701V266.93Z" fill="#15CDF2"/>
<path d="M135.55 266.93H117.51V275.23H135.55V266.93Z" fill="#F5F5F5"/>
<path d="M133.85 281.71H79.0701V290.01H133.85V281.71Z" fill="#EBEBEB"/>
<path d="M87.3701 281.71H79.0701V290.01H87.3701V281.71Z" fill="white"/>
<path d="M135.55 281.71H117.51V290.01H135.55V281.71Z" fill="#F5F5F5"/>
<path d="M133.85 296.48H79.0701V304.78H133.85V296.48Z" fill="#EBEBEB"/>
<path d="M87.3701 296.48H79.0701V304.78H87.3701V296.48Z" fill="#15CDF2"/>
<path d="M135.55 296.48H117.51V304.78H135.55V296.48Z" fill="#F5F5F5"/>
<path d="M133.85 311.26H79.0701V319.56H133.85V311.26Z" fill="#EBEBEB"/>
<path d="M87.3701 311.26H79.0701V319.56H87.3701V311.26Z" fill="#15CDF2"/>
<path d="M135.55 311.26H117.51V319.56H135.55V311.26Z" fill="#F5F5F5"/>
<path d="M133.85 326.04H79.0701V334.34H133.85V326.04Z" fill="#EBEBEB"/>
<path d="M87.3701 326.04H79.0701V334.34H87.3701V326.04Z" fill="white"/>
<path d="M135.55 326.04H117.51V334.34H135.55V326.04Z" fill="#F5F5F5"/>
<path d="M133.85 340.81H79.0701V349.11H133.85V340.81Z" fill="#EBEBEB"/>
<path d="M87.3701 340.81H79.0701V349.11H87.3701V340.81Z" fill="white"/>
<path d="M135.55 340.81H117.51V349.11H135.55V340.81Z" fill="#F5F5F5"/>
<path d="M133.85 355.59H79.0701V363.89H133.85V355.59Z" fill="#EBEBEB"/>
<path d="M87.3701 355.59H79.0701V363.89H87.3701V355.59Z" fill="white"/>
<path d="M135.55 355.59H117.51V363.89H135.55V355.59Z" fill="#F5F5F5"/>
<path d="M133.85 370.37H79.0701V378.67H133.85V370.37Z" fill="#EBEBEB"/>
<path d="M87.3701 370.37H79.0701V378.67H87.3701V370.37Z" fill="#15CDF2"/>
<path d="M135.55 370.37H117.51V378.67H135.55V370.37Z" fill="#F5F5F5"/>
<path d="M133.85 385.15H79.0701V393.45H133.85V385.15Z" fill="#EBEBEB"/>
<path d="M87.3701 385.15H79.0701V393.45H87.3701V385.15Z" fill="white"/>
<path d="M135.55 385.15H117.51V393.45H135.55V385.15Z" fill="#F5F5F5"/>
<path d="M133.85 399.92H79.0701V408.22H133.85V399.92Z" fill="#EBEBEB"/>
<path d="M87.3701 399.92H79.0701V408.22H87.3701V399.92Z" fill="#15CDF2"/>
<path d="M135.55 399.92H117.51V408.22H135.55V399.92Z" fill="#F5F5F5"/>
<path d="M133.85 414.7H79.0701V423H133.85V414.7Z" fill="#EBEBEB"/>
<path d="M87.3701 414.7H79.0701V423H87.3701V414.7Z" fill="white"/>
<path d="M135.55 414.7H117.51V423H135.55V414.7Z" fill="#F5F5F5"/>
<path d="M133.85 429.48H79.0701V437.78H133.85V429.48Z" fill="#EBEBEB"/>
<path d="M87.3701 429.48H79.0701V437.78H87.3701V429.48Z" fill="#15CDF2"/>
<path d="M135.55 429.48H117.51V437.78H135.55V429.48Z" fill="#F5F5F5"/>
<path d="M133.85 444.25H79.0701V452.55H133.85V444.25Z" fill="#EBEBEB"/>
<path d="M87.3701 444.25H79.0701V452.55H87.3701V444.25Z" fill="white"/>
<path d="M135.55 444.25H117.51V452.55H135.55V444.25Z" fill="#F5F5F5"/>
<path d="M200.7 468.87C200.7 466.64 200.6 364.77 200.46 218.17L200.7 218.41H65.8L66.06 218.15C66.06 314.39 66.01 402.39 66 468.85L65.8 468.65L200.72 468.85L65.8 469.04H65.6V468.84C65.6 402.38 65.6 314.38 65.54 218.14V217.88H65.82H200.72H200.96V218.12C200.96 291.48 200.88 354.18 200.85 398.55C200.75 442.81 200.7 467.76 200.7 468.87Z" fill="#263238"/>
<path d="M554.92 147.51H195.08C192.102 147.51 189.245 148.693 187.139 150.799C185.033 152.905 183.85 155.762 183.85 158.74V412.91C183.85 415.888 185.033 418.745 187.139 420.851C189.245 422.957 192.102 424.14 195.08 424.14H333.19L326.49 468.54H426.62L421 424.14H554.92C557.898 424.14 560.755 422.957 562.861 420.851C564.967 418.745 566.15 415.888 566.15 412.91V158.74C566.15 157.265 565.86 155.805 565.295 154.442C564.731 153.08 563.904 151.842 562.861 150.799C561.818 149.756 560.58 148.929 559.218 148.365C557.855 147.8 556.395 147.51 554.92 147.51Z" fill="#455A64"/>
<path d="M379.8 397.41C384.7 404.41 377.04 412.07 370.04 407.17C369.807 407.007 369.604 406.804 369.44 406.57C364.56 399.57 372.21 391.92 379.2 396.81C379.434 396.973 379.637 397.176 379.8 397.41Z" fill="#263238"/>
<path d="M203.61 157.21H546.44C549.013 157.21 551.48 158.232 553.299 160.051C555.118 161.87 556.14 164.337 556.14 166.91V377.64H193.91V166.91C193.91 164.337 194.932 161.87 196.751 160.051C198.57 158.232 201.038 157.21 203.61 157.21Z" fill="#263238"/>
<path d="M458.16 424.14C458.16 424.27 427.99 424.37 390.79 424.37C353.59 424.37 323.42 424.27 323.42 424.14C323.42 424.01 353.58 423.92 390.79 423.92C428 423.92 458.16 424 458.16 424.14Z" fill="#263238"/>
<path d="M256.69 174.62H230.29V180.19H256.69V174.62Z" fill="#455A64"/>
<path d="M243.49 199.58H230.29V205.15H243.49V199.58Z" fill="#15CDF2"/>
<path d="M258.82 212.13H240.23V217.7H258.82V212.13Z" fill="#455A64"/>
<path d="M272.6 212.13H261.77V217.7H272.6V212.13Z" fill="#455A64"/>
<path d="M369.72 212.13H347.44V217.7H369.72V212.13Z" fill="#455A64"/>
<path d="M434.82 224.36H397.19V229.93H434.82V224.36Z" fill="#455A64"/>
<path d="M492.87 212.13H474.8V217.7H492.87V212.13Z" fill="#455A64"/>
<path d="M534.75 212.13H498.41V217.7H534.75V212.13Z" fill="#455A64"/>
<path d="M258.82 224.36H240.23V229.93H258.82V224.36Z" fill="#455A64"/>
<path d="M247.39 236.56H228.8V242.13H247.39V236.56Z" fill="#15CDF2"/>
<path d="M247.4 248.77H238.71V254.34H247.4V248.77Z" fill="#455A64"/>
<path d="M279.27 274.47H270.59V280.04H279.27V274.47Z" fill="#455A64"/>
<path d="M407.03 320.91H390.06V326.48H407.03V320.91Z" fill="#455A64"/>
<path d="M501.83 320.91H460.26V326.48H501.83V320.91Z" fill="#455A64"/>
<path d="M343.14 308.72H326.17V314.29H343.14V308.72Z" fill="#E0E0E0"/>
<path d="M281.66 298.26H264.69V303.83H281.66V298.26Z" fill="#455A64"/>
<path d="M386.54 320.91H359.78V326.48H386.54V320.91Z" fill="#455A64"/>
<path d="M252.8 261.19H238.71V266.76H252.8V261.19Z" fill="#455A64"/>
<path d="M264.85 274.68H238.71V280.25H264.85V274.68Z" fill="#455A64"/>
<path d="M276.96 285H238.71V290.57H276.96V285Z" fill="#455A64"/>
<path d="M346.26 285H308.01V290.57H346.26V285Z" fill="#455A64"/>
<path d="M318.06 308.72H264.35V314.29H318.06V308.72Z" fill="#455A64"/>
<path d="M355.19 320.91H264.35V326.48H355.19V320.91Z" fill="#455A64"/>
<path d="M327.71 333.11H236.87V338.68H327.71V333.11Z" fill="#455A64"/>
<path d="M303.95 285H281V290.57H303.95V285Z" fill="#455A64"/>
<path d="M274.5 248.77H250.82V254.34H274.5V248.77Z" fill="#455A64"/>
<path d="M279.72 261.2H256.04V266.77H279.72V261.2Z" fill="#455A64"/>
<path d="M371.46 261.2H308.76V266.77H371.46V261.2Z" fill="#455A64"/>
<path d="M445.57 261.2H373.16V266.77H445.57V261.2Z" fill="#455A64"/>
<path d="M303.21 261.2H283.61V266.77H303.21V261.2Z" fill="#455A64"/>
<path d="M308.78 248.77H277.74V254.34H308.78V248.77Z" fill="#455A64"/>
<path d="M329.49 248.77H312.21V254.34H329.49V248.77Z" fill="#E0E0E0"/>
<path d="M281.15 224.36H261.77V229.93H281.15V224.36Z" fill="#455A64"/>
<path d="M390.01 224.36H294.32V229.93H390.01V224.36Z" fill="#455A64"/>
<path d="M497.42 261.2H452.18V266.77H497.42V261.2Z" fill="#455A64"/>
<path d="M456.69 320.91H411.44V326.48H456.69V320.91Z" fill="#455A64"/>
<path d="M467.76 212.13H373.5V217.7H467.76V212.13Z" fill="#455A64"/>
<path d="M341.58 212.13H275.99V217.7H341.58V212.13Z" fill="#455A64"/>
<path d="M274.45 186.44H230.29V192.01H274.45V186.44Z" fill="#455A64"/>
<path d="M339.33 186.44H278.86V192.01H339.33V186.44Z" fill="#455A64"/>
<path d="M280.26 174.62H260.82V180.19H280.26V174.62Z" fill="#E0E0E0"/>
<path d="M220.65 174.62H215.25V180.19H220.65V174.62Z" fill="#455A64"/>
<path d="M220.65 186.82H215.25V192.39H220.65V186.82Z" fill="#455A64"/>
<path d="M220.65 199.01H215.25V204.58H220.65V199.01Z" fill="#455A64"/>
<path d="M220.65 211.2H215.25V216.77H220.65V211.2Z" fill="#455A64"/>
<path d="M220.65 223.39H215.25V228.96H220.65V223.39Z" fill="#455A64"/>
<path d="M220.65 235.58H215.25V241.15H220.65V235.58Z" fill="#455A64"/>
<path d="M220.65 247.77H215.25V253.34H220.65V247.77Z" fill="#455A64"/>
<path d="M220.65 259.96H215.25V265.53H220.65V259.96Z" fill="#455A64"/>
<path d="M220.65 272.15H215.25V277.72H220.65V272.15Z" fill="#455A64"/>
<path d="M277.14 359.44H268.46V365.01H277.14V359.44Z" fill="#E0E0E0"/>
<path d="M263.18 359.44H237.04V365.01H263.18V359.44Z" fill="#15CDF2"/>
<path d="M220.65 358.82H215.25V364.39H220.65V358.82Z" fill="#455A64"/>
<path d="M220.65 284.34H215.25V289.91H220.65V284.34Z" fill="#455A64"/>
<path d="M220.65 296.53H215.25V302.1H220.65V296.53Z" fill="#455A64"/>
<path d="M220.65 308.72H215.25V314.29H220.65V308.72Z" fill="#455A64"/>
<path d="M220.65 320.91H215.25V326.48H220.65V320.91Z" fill="#455A64"/>
<path d="M220.65 333.11H215.25V338.68H220.65V333.11Z" fill="#455A64"/>
<path d="M263.35 345.93H236.87V351.5H263.35V345.93Z" fill="#455A64"/>
<path d="M328.37 345.93H268.46V351.5H328.37V345.93Z" fill="#455A64"/>
<path d="M220.65 345.93H215.25V351.5H220.65V345.93Z" fill="#455A64"/>
<path d="M366.15 186.4H346.71V191.97H366.15V186.4Z" fill="#E0E0E0"/>
<g opacity="0.3">
<path d="M389.28 283.95H376V391.83H534.23L530.11 286.57L389.28 283.95Z" fill="black"/>
</g>
<path d="M544.52 268H386.19V381.64H544.52V268Z" fill="#E0E0E0"/>
<path d="M545 382.14H385.69V267.5H545V382.14ZM386.67 381.14H544V268.5H386.69L386.67 381.14Z" fill="#263238"/>
<path d="M441.85 280.14H416.25V285.54H441.85V280.14Z" fill="#455A64"/>
<path d="M429.05 304.34H416.25V309.74H429.05V304.34Z" fill="#15CDF2"/>
<path d="M443.91 316.51H425.88V321.91H443.91V316.51Z" fill="#455A64"/>
<path d="M457.28 316.51H446.78V321.91H457.28V316.51Z" fill="#455A64"/>
<path d="M443.91 328.38H425.88V333.78H443.91V328.38Z" fill="#455A64"/>
<path d="M432.84 340.21H414.81V345.61H432.84V340.21Z" fill="#15CDF2"/>
<path d="M432.83 352.04H424.41V357.44H432.83V352.04Z" fill="#455A64"/>
<path d="M438.08 364.09H424.41V369.49H438.08V364.09Z" fill="#455A64"/>
<path d="M459.12 352.04H436.16V357.44H459.12V352.04Z" fill="#455A64"/>
<path d="M464.18 364.1H441.22V369.5H464.18V364.1Z" fill="#455A64"/>
<path d="M519.51 364.1H492.35V369.5H519.51V364.1Z" fill="#455A64"/>
<path d="M486.96 364.1H467.96V369.5H486.96V364.1Z" fill="#455A64"/>
<path d="M492.37 352.04H462.27V357.44H492.37V352.04Z" fill="#455A64"/>
<path d="M512.45 352.04H495.69V357.44H512.45V352.04Z" fill="white"/>
<path d="M465.57 328.38H446.78V333.78H465.57V328.38Z" fill="#455A64"/>
<path d="M524.17 316.51H460.56V321.91H524.17V316.51Z" fill="#455A64"/>
<path d="M459.08 291.6H416.25V297H459.08V291.6Z" fill="#455A64"/>
<path d="M521.99 291.6H463.35V297H521.99V291.6Z" fill="#455A64"/>
<path d="M464.7 280.14H445.85V285.54H464.7V280.14Z" fill="white"/>
<path d="M406.89 280.14H401.66V285.54H406.89V280.14Z" fill="#455A64"/>
<path d="M406.89 291.96H401.66V297.36H406.89V291.96Z" fill="#455A64"/>
<path d="M406.89 303.79H401.66V309.19H406.89V303.79Z" fill="#455A64"/>
<path d="M406.89 315.61H401.66V321.01H406.89V315.61Z" fill="#455A64"/>
<path d="M406.89 327.43H401.66V332.83H406.89V327.43Z" fill="#455A64"/>
<path d="M406.89 339.25H401.66V344.65H406.89V339.25Z" fill="#455A64"/>
<path d="M406.89 351.08H401.66V356.48H406.89V351.08Z" fill="#455A64"/>
<path d="M406.89 362.9H401.66V368.3H406.89V362.9Z" fill="#455A64"/>
<g opacity="0.3">
<path d="M300.86 423.53C302.86 413.53 296.36 383.62 296.36 383.62L247.74 389.8L245.74 423.31L300.86 423.53Z" fill="black"/>
</g>
<path d="M239 383.62C239 383.62 241.14 423.39 232.22 437.07L292.77 438.56C292.77 438.56 297.47 415.33 296.4 383.62H239Z" fill="#15CDF2"/>
<path d="M296.2 391.32C296.2 391.46 283.59 391.58 268.05 391.58C252.51 391.58 239.9 391.46 239.9 391.32C239.9 391.18 252.5 391.06 268.05 391.06C283.6 391.06 296.2 391.18 296.2 391.32Z" fill="#263238"/>
<path d="M289.47 404.93C289.47 405.07 279.39 405.19 266.97 405.19C254.55 405.19 244.47 405.07 244.47 404.93C244.47 404.79 254.54 404.67 266.97 404.67C279.4 404.67 289.47 404.79 289.47 404.93Z" fill="#263238"/>
<path d="M290 412.36C290 412.5 279.93 412.62 267.5 412.62C255.07 412.62 245 412.5 245 412.36C245 412.22 255.07 412.1 267.49 412.1C279.91 412.1 290 412.22 290 412.36Z" fill="#263238"/>
<path d="M288.55 419.79C288.55 419.93 278.47 420.05 266.05 420.05C253.63 420.05 243.55 419.93 243.55 419.79C243.55 419.65 253.62 419.53 266.05 419.53C278.48 419.53 288.55 419.65 288.55 419.79Z" fill="#263238"/>
<g opacity="0.3">
<path d="M229 384.36C229 384.36 231.59 413.8 231.59 424.27H224.13L229 384.36Z" fill="black"/>
</g>
<path d="M211.11 384.36C211.11 384.36 213.25 424.14 204.33 437.81H224.27C224.27 437.81 230 416.07 229 384.36H211.11Z" fill="#E0E0E0"/>
<path d="M489.85 211.4L523.38 172.86L489.62 148.34L516.11 132.75C516.11 132.75 557.66 158 557.11 173.16C556.62 186.96 504.24 221.87 504.24 221.87L489.85 211.4Z" fill="#FFBF9D"/>
<path d="M463.55 299C459.567 305.536 454.096 311.038 447.584 315.059C441.072 319.079 433.701 321.505 426.074 322.137C418.446 322.77 410.777 321.592 403.692 318.699C396.606 315.806 390.304 311.28 385.298 305.49C380.293 299.699 376.727 292.809 374.889 285.379C373.052 277.949 372.995 270.19 374.725 262.735C376.454 255.279 379.92 248.337 384.841 242.475C389.761 236.613 395.997 231.996 403.04 229C412.509 224.972 423.013 224.055 433.037 226.38C443.061 228.705 452.088 234.153 458.818 241.938C465.547 249.722 469.631 259.443 470.482 269.698C471.332 279.953 468.905 290.213 463.55 299ZM383.36 250.12C377.736 259.344 375.592 270.273 377.314 280.937C379.036 291.602 384.511 301.301 392.752 308.286C400.993 315.27 411.458 319.082 422.261 319.032C433.064 318.983 443.494 315.077 451.671 308.017C459.848 300.958 465.234 291.209 466.859 280.53C468.484 269.85 466.24 258.94 460.533 249.768C454.825 240.597 446.029 233.765 435.73 230.505C425.43 227.246 414.305 227.772 404.36 231.99C395.644 235.676 388.3 241.998 383.36 250.07V250.12Z" fill="#15CDF2"/>
<g opacity="0.3">
<path d="M463.55 299C459.567 305.536 454.096 311.038 447.584 315.059C441.072 319.079 433.701 321.505 426.074 322.137C418.446 322.77 410.777 321.592 403.692 318.699C396.606 315.806 390.304 311.28 385.298 305.49C380.293 299.699 376.727 292.809 374.889 285.379C373.052 277.949 372.995 270.19 374.725 262.735C376.454 255.279 379.92 248.337 384.841 242.475C389.761 236.613 395.997 231.996 403.04 229C412.509 224.972 423.013 224.055 433.037 226.38C443.061 228.705 452.088 234.153 458.818 241.938C465.547 249.722 469.631 259.443 470.482 269.698C471.332 279.953 468.905 290.213 463.55 299ZM383.36 250.12C377.736 259.344 375.592 270.273 377.314 280.937C379.036 291.602 384.511 301.301 392.752 308.286C400.993 315.27 411.458 319.082 422.261 319.032C433.064 318.983 443.494 315.077 451.671 308.017C459.848 300.958 465.234 291.209 466.859 280.53C468.484 269.85 466.24 258.94 460.533 249.768C454.825 240.597 446.029 233.765 435.73 230.505C425.43 227.246 414.305 227.772 404.36 231.99C395.644 235.676 388.3 241.998 383.36 250.07V250.12Z" fill="black"/>
</g>
<path d="M461.58 296.82C457.597 303.356 452.126 308.858 445.614 312.879C439.102 316.899 431.731 319.325 424.104 319.957C416.477 320.59 408.808 319.412 401.722 316.519C394.636 313.626 388.334 309.1 383.328 303.31C378.323 297.519 374.757 290.629 372.919 283.199C371.082 275.769 371.025 268.01 372.755 260.555C374.484 253.099 377.95 246.157 382.871 240.295C387.791 234.433 394.027 229.816 401.07 226.82C410.539 222.792 421.043 221.875 431.067 224.2C441.091 226.525 450.118 231.973 456.848 239.758C463.577 247.542 467.661 257.263 468.512 267.518C469.362 277.773 466.935 288.033 461.58 296.82ZM381.39 247.94C375.772 257.163 373.633 268.09 375.358 278.751C377.084 289.413 382.561 299.107 390.802 306.087C399.043 313.067 409.507 316.873 420.306 316.821C431.106 316.768 441.532 312.86 449.705 305.8C457.878 298.74 463.26 288.993 464.882 278.316C466.504 267.639 464.259 256.733 458.551 247.565C452.843 238.396 444.048 231.568 433.751 228.311C423.454 225.054 412.332 225.582 402.39 229.8C393.664 233.5 386.32 239.845 381.39 247.94Z" fill="#15CDF2"/>
<path d="M532.26 207.48L534.16 210.48C535.87 213.12 533.78 217.38 530.04 219.11L466.61 257.95L460.69 249.29L522.52 206C526.52 202.94 530.06 204.08 532.26 207.48Z" fill="#15CDF2"/>
<path d="M422.08 231.15C421.814 231.176 421.546 231.176 421.28 231.15C420.76 231.15 419.99 231.08 419 231.15C416.206 231.268 413.436 231.721 410.75 232.5C408.893 233.042 407.076 233.71 405.31 234.5C403.293 235.411 401.342 236.46 399.47 237.64C397.399 238.933 395.436 240.391 393.6 242C391.615 243.717 389.791 245.611 388.15 247.66C386.525 249.715 385.101 251.922 383.9 254.25C382.817 256.441 381.921 258.719 381.22 261.06C380.055 265.04 379.499 269.174 379.57 273.32C379.607 276.114 379.942 278.897 380.57 281.62C380.75 282.62 381.02 283.32 381.13 283.84C381.217 284.09 381.277 284.348 381.31 284.61C381.2 284.37 381.106 284.123 381.03 283.87C380.89 283.36 380.59 282.64 380.37 281.67C379.657 278.944 379.258 276.146 379.18 273.33C379.056 269.141 379.582 264.958 380.74 260.93C381.433 258.553 382.333 256.24 383.43 254.02C384.638 251.653 386.079 249.412 387.73 247.33C389.391 245.259 391.239 243.344 393.25 241.61C395.122 239.977 397.129 238.505 399.25 237.21C401.144 236.025 403.122 234.982 405.17 234.09C406.961 233.327 408.802 232.686 410.68 232.17C413.392 231.428 416.188 231.035 419 231C419.767 230.988 420.535 231.014 421.3 231.08C421.561 231.083 421.822 231.106 422.08 231.15Z" fill="white"/>
<path d="M460 283.11C459.88 283.11 460.78 280.89 461.41 277.16C461.48 276.69 461.56 276.16 461.63 275.7C461.7 275.24 461.72 274.65 461.78 274.1C461.9 273 461.88 271.81 461.9 270.56C461.808 265.136 460.55 259.795 458.21 254.9C457.64 253.79 457.13 252.72 456.53 251.79C456.24 251.32 455.98 250.85 455.69 250.42C455.4 249.99 455.11 249.6 454.84 249.21C452.61 246.16 450.84 244.6 450.92 244.51C451.355 244.848 451.766 245.215 452.15 245.61C452.63 246.043 453.078 246.511 453.49 247.01C454.076 247.643 454.624 248.311 455.13 249.01C455.42 249.39 455.71 249.79 456.02 250.21C456.33 250.63 456.59 251.1 456.9 251.58C457.537 252.589 458.121 253.631 458.65 254.7C459.83 257.176 460.754 259.766 461.41 262.43C462.026 265.101 462.361 267.829 462.41 270.57C462.41 271.83 462.41 273.03 462.24 274.15C462.18 274.7 462.15 275.25 462.06 275.76C461.97 276.27 461.88 276.76 461.8 277.23C461.65 278.076 461.457 278.914 461.22 279.74C461.071 280.37 460.877 280.988 460.64 281.59C460.47 282.114 460.256 282.622 460 283.11Z" fill="white"/>
<path d="M430 248.69C430.1 248.8 423.56 254.92 415.39 262.37C407.22 269.82 400.53 275.78 400.39 275.67C400.25 275.56 406.83 269.44 415 262C423.17 254.56 429.86 248.58 430 248.69Z" fill="white"/>
<path d="M442.44 256.58C442.297 256.74 442.139 256.887 441.97 257.02L440.57 258.22L435.39 262.59C431.01 266.27 424.97 271.37 418.39 277.08C411.81 282.79 405.86 288.02 401.59 291.82L396.51 296.32L395.12 297.53C394.967 297.68 394.795 297.811 394.61 297.92C394.743 297.751 394.89 297.594 395.05 297.45L396.38 296.17C397.54 295.06 399.23 293.49 401.38 291.55C405.6 287.68 411.48 282.4 418.09 276.68C424.7 270.96 430.78 265.92 435.23 262.31C437.45 260.5 439.23 259.05 440.52 258.07L441.98 256.94C442.118 256.802 442.273 256.681 442.44 256.58Z" fill="white"/>
<g opacity="0.3">
<path d="M381.67 294.27L448.38 236.71C448.38 236.71 454.97 241.71 457.77 246.27L389.5 305C386.227 301.958 383.569 298.315 381.67 294.27Z" fill="white"/>
</g>
<g opacity="0.3">
<path d="M396.81 310.4L461.81 253.78C461.81 253.78 462.13 253.25 463.02 257.32L400 312.17C398.816 311.83 397.725 311.225 396.81 310.4Z" fill="white"/>
</g>
<path d="M489.85 211.4C489.85 211.4 470.29 232.95 469.85 233.76C469.41 234.57 464.14 247.01 465.44 249.53C466.74 252.05 476.54 260.9 476.54 260.9C476.54 260.9 480.04 259.39 476.73 253.47L473.42 247.56L475.2 241.56C475.2 241.56 477.84 249.13 479.37 250.79C480.9 252.45 486.96 255.29 488.48 253.79C489.387 252.923 489.999 251.793 490.23 250.56C490.23 250.56 494.38 253.86 497.31 248.61C497.31 248.61 501 248.04 502.58 245.46C504.16 242.88 504 238 504 238C503.848 237.682 503.625 237.402 503.349 237.182C503.073 236.961 502.75 236.807 502.406 236.729C502.062 236.651 501.704 236.652 501.36 236.732C501.016 236.812 500.695 236.968 500.42 237.19C498.852 238.381 497.642 239.979 496.92 241.81L495.21 239.53C495.656 236.452 496.535 233.452 497.82 230.62C499.01 228.34 506.69 223.37 507.6 219.41C508.37 216.06 501.67 213.84 498.23 214.03C497.714 214.059 497.206 214.163 496.72 214.34L489.85 211.4Z" fill="#FFBF9D"/>
<path d="M488.15 238.92C488.12 239.116 488.12 239.314 488.15 239.51C488.195 240.037 488.285 240.559 488.42 241.07C488.861 242.783 489.737 244.352 490.963 245.626C492.19 246.9 493.725 247.835 495.42 248.34C495.929 248.494 496.452 248.601 496.98 248.66C497.172 248.691 497.368 248.691 497.56 248.66C497.56 248.6 496.73 248.54 495.48 248.12C493.845 247.572 492.365 246.643 491.16 245.41C489.977 244.16 489.103 242.649 488.61 241C488.23 239.75 488.2 238.92 488.15 238.92Z" fill="#FF9A6C"/>
<path d="M481.57 238.27C481.548 238.476 481.548 238.684 481.57 238.89C481.581 239.135 481.608 239.379 481.65 239.62C481.683 239.956 481.737 240.29 481.81 240.62C481.995 241.442 482.246 242.248 482.56 243.03C483.349 244.948 484.527 246.681 486.02 248.12C486.634 248.713 487.304 249.245 488.02 249.71C488.31 249.92 488.6 250.07 488.84 250.22C489.08 250.37 489.31 250.47 489.49 250.55C489.673 250.653 489.868 250.733 490.07 250.79C490.07 250.74 489.29 250.37 488.14 249.54C487.463 249.058 486.827 248.519 486.24 247.93C485.523 247.211 484.874 246.428 484.3 245.59C483.674 244.709 483.119 243.779 482.64 242.81C482.374 242.083 482.173 241.333 482.04 240.57C481.68 239.15 481.63 238.26 481.57 238.27Z" fill="#FF9A6C"/>
<path d="M474.08 236.71C474.08 236.71 473.91 237 473.84 237.52C473.768 238.196 473.85 238.88 474.08 239.52C474.283 240.183 474.663 240.778 475.18 241.24C475.56 241.6 475.85 241.75 475.87 241.72C475.218 241.06 474.701 240.279 474.35 239.42C474.089 238.542 473.997 237.622 474.08 236.71Z" fill="#FF9A6C"/>
<path d="M541.54 170.57C541.54 170.65 540.47 169.93 538.61 169.26C536.195 168.383 533.596 168.139 531.06 168.55C528.533 169.009 526.198 170.206 524.35 171.99C522.91 173.34 522.2 174.36 522.12 174.31C522.226 174.033 522.379 173.776 522.57 173.55C523.028 172.901 523.54 172.292 524.1 171.73C525.94 169.779 528.359 168.471 531 168C533.623 167.572 536.312 167.88 538.77 168.89C539.511 169.186 540.221 169.554 540.89 169.99C541.32 170.34 541.56 170.54 541.54 170.57Z" fill="#FF9A6C"/>
<path d="M440.13 81.46C440.13 74.91 440.13 68.32 438.99 61.86C437.85 55.4 435.6 49.03 431.54 43.86C430.92 43.08 426.19 38.05 425.28 38.44C424.63 38.73 428.15 43.71 428 44.44C426.56 51.06 427.84 58.05 430.44 64.31C433.023 70.3721 436.273 76.1276 440.13 81.47" fill="#263238"/>
<path d="M433 57.47C428.45 41.67 415.47 31.15 399.8 36.14L398.38 36.68C391.485 39.3275 385.839 44.473 382.565 51.0933C379.291 57.7136 378.629 65.3236 380.71 72.41C384.71 86.08 389.35 101.13 392.16 108.21C398 122.87 413.61 119.51 413.61 119.51L423.35 141.91L454.35 126.02L433 57.47Z" fill="#FFBF9D"/>
<path d="M413.68 119.62C420.472 116.998 426.371 112.487 430.68 106.62C430.68 106.62 431.12 120.39 415.91 124.71L413.68 119.62Z" fill="#FF9A6C"/>
<path d="M391.21 85.69C391.419 86.2356 391.833 86.678 392.364 86.9227C392.894 87.1674 393.499 87.1952 394.05 87C394.325 86.919 394.581 86.7838 394.803 86.6024C395.026 86.4209 395.209 86.1969 395.343 85.9434C395.477 85.69 395.56 85.4122 395.585 85.1266C395.61 84.8409 395.578 84.553 395.49 84.28C395.273 83.7415 394.857 83.3076 394.327 83.069C393.798 82.8305 393.197 82.8058 392.65 83C392.378 83.0812 392.125 83.2154 391.906 83.3948C391.686 83.5742 391.504 83.7952 391.37 84.0453C391.236 84.2953 391.153 84.5694 391.126 84.8516C391.098 85.1339 391.127 85.4188 391.21 85.69Z" fill="#263238"/>
<path d="M386.24 77.31C386.61 77.49 387.75 75.7 390.02 74.83C392.29 73.96 394.38 74.47 394.51 74.1C394.59 73.93 394.13 73.53 393.21 73.28C391.97 72.9788 390.667 73.0696 389.48 73.54C388.301 73.9839 387.296 74.7934 386.61 75.85C386.11 76.65 386.07 77.24 386.24 77.31Z" fill="#263238"/>
<path d="M410.56 78.9C410.763 79.4513 411.174 79.9012 411.705 80.1535C412.236 80.4057 412.844 80.4404 413.4 80.25C413.676 80.1691 413.934 80.0336 414.156 79.8515C414.379 79.6693 414.563 79.4443 414.698 79.1897C414.832 78.9351 414.914 78.6561 414.938 78.3693C414.963 78.0825 414.929 77.7937 414.84 77.52C414.637 76.9687 414.226 76.5188 413.695 76.2665C413.164 76.0142 412.556 75.9796 412 76.17C411.725 76.2521 411.468 76.3883 411.246 76.5707C411.024 76.7532 410.84 76.9781 410.706 77.2323C410.572 77.4866 410.49 77.7651 410.465 78.0514C410.44 78.3378 410.472 78.6263 410.56 78.9Z" fill="#263238"/>
<path d="M408.76 69.72C409.13 69.9 410.27 68.1 412.54 67.24C414.81 66.38 416.89 66.88 417.03 66.5C417.11 66.34 416.65 65.94 415.73 65.69C414.49 65.3902 413.189 65.4774 412 65.94C410.82 66.3908 409.812 67.2027 409.12 68.26C408.64 69.06 408.59 69.65 408.76 69.72Z" fill="#263238"/>
<path d="M407.32 90.23C407.32 90.09 405.78 90.39 403.39 90.97C402.79 91.14 402.2 91.23 401.95 90.87C401.667 90.2939 401.572 89.643 401.68 89.01C401.68 87.41 401.68 85.72 401.68 83.96C401.68 76.78 401.39 70.96 401.1 70.96C400.81 70.96 400.6 76.79 400.63 83.96C400.63 85.73 400.63 87.41 400.69 89.02C400.6 89.8553 400.802 90.6959 401.26 91.4C401.424 91.5707 401.624 91.7025 401.845 91.7856C402.067 91.8687 402.304 91.9009 402.54 91.88C402.882 91.8398 403.217 91.7593 403.54 91.64C405.93 90.89 407.36 90.36 407.32 90.23Z" fill="#263238"/>
<path d="M414.58 89.24C414.2 89.36 415.14 91.81 413.71 94.36C412.28 96.91 409.56 97.65 409.71 98C409.71 98.17 410.48 98.25 411.59 97.86C413.024 97.3317 414.23 96.3205 415 95C415.73 93.7133 415.935 92.1939 415.57 90.76C415.25 89.66 414.74 89.16 414.58 89.24Z" fill="#263238"/>
<path d="M405.36 60.49C405.82 61.02 407.97 59.86 410.75 59.16C413.53 58.46 415.95 58.36 416.09 57.68C416.15 57.35 415.55 56.92 414.46 56.68C413.023 56.3833 411.537 56.4278 410.12 56.81C408.701 57.1599 407.388 57.8458 406.29 58.81C405.46 59.56 405.16 60.24 405.36 60.49Z" fill="#263238"/>
<path d="M384.29 69.43C384.89 69.79 386.24 68.66 388.11 67.92C389.98 67.18 391.7 66.92 391.86 66.25C391.92 65.93 391.47 65.51 390.59 65.25C389.436 65.0339 388.244 65.1613 387.161 65.6164C386.078 66.0714 385.153 66.8341 384.5 67.81C384 68.64 384 69.25 384.29 69.43Z" fill="#263238"/>
<path d="M436 68.84C436.21 68.63 445 61.96 448.51 72.15C452.02 82.34 441.12 83.8 441 83.51C440.88 83.22 436 68.84 436 68.84Z" fill="#FFBF9D"/>
<path d="M442.77 78.57C442.77 78.57 442.99 78.63 443.34 78.66C443.826 78.6966 444.307 78.5423 444.68 78.23C445.61 77.46 445.93 75.44 445.34 73.58C445.07 72.7027 444.612 71.8942 444 71.21C443.793 70.9262 443.52 70.6969 443.205 70.5419C442.89 70.3869 442.541 70.3107 442.19 70.32C441.97 70.3443 441.764 70.4409 441.605 70.5947C441.446 70.7485 441.342 70.9509 441.31 71.17C441.31 71.5 441.41 71.68 441.36 71.72C441.31 71.76 441.08 71.62 441.02 71.17C440.984 70.8968 441.048 70.6197 441.2 70.39C441.407 70.0813 441.726 69.8658 442.09 69.79C442.537 69.7275 442.993 69.7812 443.413 69.9458C443.834 70.1105 444.204 70.3805 444.49 70.73C445.235 71.4587 445.786 72.3631 446.09 73.36C446.74 75.43 446.36 77.72 445.03 78.66C444.785 78.8336 444.504 78.9498 444.208 79C443.912 79.0502 443.609 79.0331 443.32 78.95C442.87 78.81 442.74 78.6 442.77 78.57Z" fill="#FF9A6C"/>
<path d="M381.65 53.24C379.65 52.89 382.84 45.85 386.28 42.64C391.48 37.77 400.28 32.89 406.5 32.58C413.97 32.21 420.78 33.69 426.3 38.74C431.739 43.9419 435.692 50.5008 437.75 57.74C438.57 59.8833 438.802 62.2071 438.42 64.47C437.75 67.21 435.5 69.56 436.67 72.64C436.901 73.1911 437.019 73.7826 437.019 74.38C437.019 74.9774 436.901 75.5688 436.67 76.12C435.47 78.74 432.55 77.64 430.87 76.12C427.27 72.88 425.4 68.18 423.66 63.66C422.42 60.45 421.16 57.16 421.02 53.72C420.95 51.85 421.21 49.97 421.02 48.1C420.987 47.161 420.751 46.2402 420.328 45.4012C419.905 44.5622 419.306 43.8249 418.57 43.24C418.215 43.0191 417.84 42.8317 417.45 42.68C415.605 41.9177 413.591 41.6604 411.614 41.9345C409.636 42.2087 407.768 43.0045 406.2 44.24C401.13 48.24 392.33 54.58 389.1 53.5C384.46 51.93 382.95 50.4 382.95 50.4L381.65 53.24Z" fill="#FBE7A1"/>
<path d="M366.23 148.08C366.23 148.08 364.77 143.96 369.72 138.42C374.67 132.88 413.9 122 413.9 122C413.9 122 428.16 138.15 440.5 127.12C449.5 119.12 449.8 111.12 449.8 111.12H485.3L489.73 147.59L475.58 147.67L366.23 148.08Z" fill="#15CDF2"/>
<path d="M478.85 111.11C478.85 111.11 488.11 109.24 496.57 113.11C510.78 119.56 535.47 140.11 535.47 140.11L505.47 164.76L484.67 147.7L478.85 111.11Z" fill="#15CDF2"/>
<path d="M491.75 153.59C491.612 153.54 491.481 153.473 491.36 153.39C491.12 153.24 490.76 153.02 490.36 152.71C489.114 151.846 487.934 150.89 486.83 149.85C485.176 148.314 483.685 146.612 482.38 144.77C480.721 142.524 479.59 139.933 479.07 137.19C478.07 131.37 478.94 125.85 480.82 122.45C481.541 121.094 482.535 119.902 483.74 118.95C484.074 118.706 484.425 118.485 484.79 118.29C485.03 118.15 485.17 118.08 485.18 118.1C485.19 118.12 484.7 118.46 483.86 119.1C482.74 120.088 481.817 121.279 481.14 122.61C479.4 125.96 478.56 131.38 479.58 137.08C480.088 139.751 481.177 142.277 482.77 144.48C484.038 146.313 485.481 148.018 487.08 149.57C488.157 150.632 489.292 151.633 490.48 152.57C490.921 152.887 491.345 153.228 491.75 153.59Z" fill="#263238"/>
<path d="M484.64 147.61C484.64 147.75 460.2 147.97 430.05 148.09C399.9 148.21 375.45 148.19 375.45 148.04C375.45 147.89 399.89 147.69 430.05 147.57C460.21 147.45 484.64 147.46 484.64 147.61Z" fill="#263238"/>
<path d="M353.44 142.62C353.51 142.77 353.57 142.92 353.63 143.07C353.876 143.78 354.024 144.52 354.07 145.27C354.067 145.624 354.084 145.978 354.12 146.33C354.201 146.544 354.298 146.751 354.41 146.95C354.85 148.366 354.983 149.859 354.8 151.33C354.612 152.936 354.893 154.561 355.61 156.01C356.45 157.39 358.4 158.2 359.73 157.28C359.666 157.789 359.79 158.304 360.079 158.728C360.368 159.151 360.803 159.455 361.3 159.58C361.804 159.688 362.327 159.665 362.819 159.513C363.311 159.361 363.756 159.084 364.11 158.71C364.814 157.958 365.298 157.028 365.51 156.02C365.531 156.622 365.784 157.193 366.217 157.613C366.649 158.032 367.228 158.268 367.83 158.27C368.432 158.242 369.017 158.062 369.531 157.747C370.045 157.433 370.471 156.993 370.77 156.47C371.348 155.413 371.689 154.242 371.77 153.04C371.928 151.494 372.172 149.959 372.5 148.44C372.5 148.44 374.01 148.69 374.7 148.75H374.9C375.506 147.996 375.992 147.152 376.34 146.25C377.34 144.25 378.04 143.01 378.77 141.25C379.33 139.91 379.68 138.56 378.85 137.69C376.85 135.58 372.93 139.87 372.93 139.87C372.37 138.37 367.82 138.13 366.93 140.12C366.57 139.02 366.71 138.39 365.82 137.65C365.384 137.272 364.866 137.002 364.307 136.861C363.747 136.721 363.163 136.713 362.6 136.84C362.032 136.977 361.525 137.3 361.163 137.759C360.8 138.218 360.602 138.785 360.6 139.37C360.114 138.621 359.412 138.036 358.588 137.692C357.764 137.347 356.855 137.26 355.98 137.44C354.933 137.696 354.018 138.33 353.41 139.22C353.11 139.657 352.889 140.145 352.76 140.66C352.689 140.852 352.652 141.055 352.65 141.26C352.666 141.351 352.697 141.439 352.74 141.52C353 141.88 353.26 142.22 353.44 142.62Z" fill="#FFBF9D"/>
<path d="M348.63 139.71C348.136 139.655 347.636 139.708 347.165 139.865C346.694 140.022 346.262 140.28 345.9 140.62C345.174 141.738 344.873 143.079 345.05 144.4C346.42 144.66 347.13 144.72 348.51 144.98C348.8 145.03 349.04 144.98 349.28 145.13C349.91 145.58 349.81 147.13 350.06 147.83C350.33 148.449 350.826 148.942 351.446 149.207C352.067 149.473 352.766 149.492 353.4 149.26C354.022 148.992 354.554 148.553 354.935 147.993C355.316 147.433 355.529 146.777 355.55 146.1C355.559 144.736 355.06 143.416 354.15 142.4C353.465 141.595 352.621 140.941 351.671 140.478C350.721 140.015 349.686 139.753 348.63 139.71Z" fill="#FFBF9D"/>
<path d="M360.66 139C360.92 139 360.92 143.13 360.66 148.19C360.4 153.25 359.98 157.34 359.73 157.33C359.48 157.32 359.47 153.2 359.73 148.14C359.99 143.08 360.41 138.94 360.66 139Z" fill="#FF9A6C"/>
<path d="M367 139.82C367.25 139.82 367.58 143.56 367.18 148.16C366.78 152.76 365.82 156.4 365.58 156.35C365.34 156.3 365.87 152.62 366.25 148.08C366.63 143.54 366.71 139.83 367 139.82Z" fill="#FF9A6C"/>
<path d="M373.16 140.67C373.42 140.67 373.53 143.78 373.04 147.56C372.55 151.34 371.98 154.33 371.74 154.31C371.5 154.29 371.64 151.19 372.12 147.44C372.6 143.69 372.9 140.66 373.16 140.67Z" fill="#FF9A6C"/>
<path d="M350.61 140.35C350.61 140.24 351.27 140.09 352.22 140.53C353.418 141.143 354.326 142.203 354.75 143.48C355.195 144.693 355.408 145.978 355.38 147.27C355.27 148.41 354.44 148.74 354.38 148.59C354.32 148.44 354.76 148.09 354.68 147.25C354.513 146.079 354.231 144.927 353.84 143.81C353.466 142.723 352.768 141.778 351.84 141.1C351.18 140.6 350.6 140.49 350.61 140.35Z" fill="#FF9A6C"/>
<path d="M209.25 87H137.48C132.029 87 127.61 91.419 127.61 96.87V168.64C127.61 174.091 132.029 178.51 137.48 178.51H209.25C214.701 178.51 219.12 174.091 219.12 168.64V96.87C219.12 91.419 214.701 87 209.25 87Z" fill="#15CDF2"/>
<g opacity="0.3">
<path d="M209.25 87H137.48C132.029 87 127.61 91.419 127.61 96.87V168.64C127.61 174.091 132.029 178.51 137.48 178.51H209.25C214.701 178.51 219.12 174.091 219.12 168.64V96.87C219.12 91.419 214.701 87 209.25 87Z" fill="black"/>
</g>
<path d="M195.83 87H124.06C118.609 87 114.19 91.419 114.19 96.87V168.64C114.19 174.091 118.609 178.51 124.06 178.51H195.83C201.281 178.51 205.7 174.091 205.7 168.64V96.87C205.7 91.419 201.281 87 195.83 87Z" fill="#15CDF2"/>
<path d="M147.06 112.36C148.948 111.213 150.983 110.328 153.11 109.73L154.35 103.73L164.47 103.55L165.93 109.49C168.076 110.017 170.141 110.831 172.07 111.91L177.18 108.55L184.47 115.55L181.3 120.78C182.438 122.671 183.319 124.706 183.92 126.83L189.92 128.08L190.1 138.2L184.16 139.66C183.631 141.805 182.817 143.87 181.74 145.8L185.1 150.91L178.1 158.19L172.87 155.02C170.981 156.165 168.946 157.05 166.82 157.65L165.57 163.65L155.45 163.83L154 157.92C151.856 157.387 149.791 156.573 147.86 155.5L142.75 158.85L135.47 151.85L138.64 146.63C137.494 144.738 136.61 142.699 136.01 140.57L130.01 139.33L129.83 129.21L135.77 127.75C136.302 125.605 137.115 123.541 138.19 121.61L134.84 116.5L141.84 109.21L147.07 112.39L147.06 112.36ZM152.45 125.84C150.957 127.385 149.956 129.338 149.574 131.452C149.191 133.566 149.444 135.746 150.3 137.716C151.157 139.686 152.578 141.358 154.385 142.52C156.192 143.682 158.303 144.282 160.451 144.244C162.599 144.207 164.687 143.533 166.452 142.308C168.217 141.083 169.579 139.362 170.366 137.363C171.152 135.364 171.328 133.176 170.872 131.077C170.415 128.978 169.346 127.062 167.8 125.57C165.728 123.571 162.947 122.477 160.069 122.528C157.191 122.578 154.45 123.77 152.45 125.84Z" fill="white"/>
<g opacity="0.3">
<path d="M185.14 87L114.19 143.67V154.7L198.79 87H185.14Z" fill="white"/>
</g>
<g opacity="0.3">
<path d="M114.28 167.56L205.7 96.64V116.55L123.83 178.55C122.567 178.549 121.316 178.298 120.151 177.811C118.985 177.325 117.927 176.613 117.038 175.716C116.148 174.819 115.445 173.755 114.968 172.585C114.491 171.416 114.251 170.163 114.26 168.9L114.28 167.56Z" fill="white"/>
</g>
</svg>
