<svg width="438" height="351" viewBox="0 0 438 351" fill="none" xmlns="http://www.w3.org/2000/svg">
<path d="M43.4101 10.55C45.5125 10.0745 47.6892 10.0287 49.8098 10.4153C51.9303 10.802 53.9508 11.6131 55.7501 12.8C59.3443 15.1929 62.3385 18.3821 64.5001 22.12C68.8801 29.19 70.3601 38.65 70.5001 46.96C61.2701 46.5 53.5001 39.17 49.7201 35.21C43.8001 28.93 37.0001 14 43.4101 10.55Z" fill="#B0BEC5"/>
<path d="M85.2791 52.67C83.4417 51.1091 82.0501 49.0898 81.2457 46.8171C80.4413 44.5443 80.2527 42.0992 80.6991 39.73C81.1876 37.3732 82.1393 35.1369 83.4988 33.1508C84.8584 31.1646 86.5988 29.4683 88.6191 28.16C90.4691 26.93 92.7391 25.95 94.8691 26.6C95.8439 26.9641 96.7041 27.5812 97.3614 28.3879C98.0187 29.1946 98.4494 30.1618 98.6091 31.19C98.8883 33.259 98.6229 35.365 97.8391 37.3C95.4391 44 91.8991 50.05 85.2791 52.67Z" fill="#B0BEC5"/>
<path d="M90.6402 72.78C89.6088 71.2591 88.7343 69.6374 88.0302 67.94C87.1891 66.1143 86.5713 64.1937 86.1902 62.22C85.6351 59.8421 85.2376 57.4302 85.0002 55C84.6101 50.5191 85.3243 46.0109 87.0802 41.87C87.6286 40.6397 88.2986 39.4672 89.0802 38.37C89.6802 37.62 90.0802 37.24 90.0802 37.28C90.0802 37.32 88.8802 39.02 87.6302 42.13C86.1006 46.2131 85.4994 50.5856 85.8702 54.93C86.0908 57.3278 86.4447 59.7115 86.9302 62.07C87.2659 63.9973 87.8022 65.8842 88.5302 67.7C89.9202 70.79 90.7802 72.72 90.6402 72.78Z" fill="#B0BEC5"/>
<path d="M49.6289 21.45C50.3342 22.0572 50.9834 22.7266 51.5689 23.45C52.7589 24.78 54.4689 26.73 56.5689 29.15C60.7389 34 66.4289 40.76 72.5689 48.37C78.7089 55.98 83.9989 63.05 87.6989 68.23C89.5689 70.83 91.0589 72.94 92.0589 74.42C92.6219 75.1628 93.1204 75.9523 93.5489 76.78C92.8966 76.1179 92.3012 75.402 91.7689 74.64L87.1689 68.64C83.2889 63.56 77.8889 56.58 71.7889 48.97L56.0489 29.57L51.2889 23.69C50.677 22.9886 50.1219 22.2395 49.6289 21.45Z" fill="#B0BEC5"/>
<path d="M78.999 61.66C74.8033 58.7905 69.9844 56.9618 64.9413 56.3254C59.8983 55.6889 54.7761 56.263 49.999 58C47.579 58.9 44.999 60.59 44.879 63.17C44.759 65.75 47.339 67.59 49.729 68.59C54.7436 70.5706 60.2323 71.0226 65.5034 69.889C70.7744 68.7555 75.592 66.087 79.349 62.22" fill="#B0BEC5"/>
<path d="M56.4688 62C56.9038 61.7674 57.3729 61.6054 57.8587 61.52C58.7587 61.27 60.0887 60.98 61.7387 60.67C66.0788 59.8326 70.5353 59.7953 74.8887 60.56C77.2881 61.0559 79.5913 61.9373 81.7087 63.17C84.5757 64.886 87.0114 67.2362 88.8288 70.04C89.1325 70.4258 89.3722 70.858 89.5387 71.32C89.3887 71.43 88.2487 69.68 85.8887 67.32C82.8095 64.3102 78.9218 62.2604 74.6987 61.42C70.4471 60.6886 66.1063 60.638 61.8387 61.27C58.5387 61.7 56.4987 62.1 56.4688 62Z" fill="#B0BEC5"/>
<path d="M92.5293 264.67C122.349 250.19 133.979 216.36 137.889 184.91C138.549 179.66 139.999 174.25 138.239 169.27C136.479 164.29 131.189 160.27 126.159 161.7C121.999 162.9 119.589 167.15 116.829 170.53C113.137 175.042 108.246 178.422 102.719 180.28C99.1193 181.47 94.8393 181.87 91.8393 179.54C87.7293 176.34 88.1893 170.03 89.0493 164.84L93.8493 135.84C94.7093 130.65 95.5693 125.35 94.7393 120.16C93.9093 114.97 91.0693 109.83 86.3493 107.66C81.6293 105.49 75.0693 107.37 73.2193 112.28C72.4393 114.33 72.5293 116.59 72.0393 118.73C71.5493 120.87 70.1693 123.08 68.0393 123.36C65.9093 123.64 64.0393 121.84 62.7193 120.07C58.1993 113.97 55.6293 106.64 53.2993 99.38C50.9693 92.12 48.7693 84.72 44.8093 78.23C40.8493 71.74 34.8093 66.13 27.4793 64.52C20.1493 62.91 11.4793 66.25 8.41933 73.25C5.35933 80.25 8.41933 88.38 12.1593 95.05C17.6566 104.937 24.5547 113.977 32.6393 121.89C34.0893 123.32 35.6393 124.89 35.9793 126.89C36.5593 130.53 32.7293 133.45 29.1293 134.04C25.0593 134.71 20.9193 133.64 16.7893 133.48C12.6593 133.32 7.99933 134.4 5.85933 137.98C2.85933 142.98 6.43933 149.22 10.2293 153.56C17.8111 162.248 26.8331 169.565 36.8993 175.19C40.4893 177.19 44.3193 179.06 46.9693 182.24C49.6193 185.42 50.7393 190.38 48.2993 193.74C45.8593 197.1 40.8893 197.51 37.0093 196.13C33.1293 194.75 29.8893 192 26.2993 190C19.5993 186.17 10.2993 185.19 4.74933 190.63C1.09933 194.21 -0.0606711 199.81 0.689329 204.89C1.43933 209.97 3.85933 214.61 6.51933 218.97C15.8193 234.21 28.7393 247.35 44.3893 255.72C60.0393 264.09 75.1193 268.1 92.5293 264.72" fill="#90A4AE"/>
<path d="M88.2993 266.33C89.1393 253.76 89.6993 260.28 87.5793 243.77C85.4593 227.26 81.6893 209.34 77.0793 190.77L73.6093 177C72.4593 172.49 71.3293 168 69.9393 163.7C67.269 155.429 64.1409 147.313 60.5693 139.39C57.2193 131.8 53.7593 124.72 50.4693 118.13C47.1793 111.54 43.9993 105.42 40.8393 100C35.918 91.4173 30.3238 83.2383 24.1093 75.54C21.9193 72.82 20.1093 70.77 18.9293 69.39L17.5293 67.83C17.3808 67.6431 17.2133 67.4722 17.0293 67.32C17.1539 67.5265 17.2979 67.7207 17.4593 67.9C17.7893 68.3 18.2293 68.83 18.7793 69.52C19.9493 70.93 21.6693 73.03 23.7793 75.78C29.8605 83.5492 35.3524 91.7621 40.2093 100.35C43.3093 105.78 46.4493 111.87 49.7193 118.46C52.9893 125.05 56.3893 132.15 59.7193 139.73C63.2569 147.643 66.3549 155.745 68.9993 164C70.3693 168.29 71.4893 172.73 72.6393 177.26C73.7893 181.79 74.9293 186.37 76.0993 191.01C80.7093 209.6 84.5193 227.47 86.6593 243.93C88.7993 260.39 88.3293 253.8 87.5793 266.33" fill="#B0BEC5"/>
<path d="M69.6797 163.59C70.0388 162.908 70.327 162.191 70.5397 161.45C71.0397 160.06 71.6997 158.03 72.4697 155.5C74.0297 150.44 75.9397 143.39 78.0197 135.61C80.0997 127.83 82.1097 120.81 83.7397 115.8C84.5397 113.29 85.2197 111.26 85.7397 109.87C86.0374 109.16 86.2554 108.418 86.3897 107.66C85.985 108.313 85.6498 109.007 85.3897 109.73C84.7997 111.09 84.0197 113.08 83.1297 115.58C81.3297 120.58 79.2097 127.58 77.1297 135.35C75.0497 143.12 73.2597 149.99 71.8497 155.35C71.2097 157.74 70.6597 159.76 70.2197 161.35C69.95 162.072 69.7687 162.824 69.6797 163.59Z" fill="#B0BEC5"/>
<path d="M4.88867 140.48C5.73606 140.813 6.6134 141.064 7.50867 141.23C9.18867 141.65 11.6387 142.23 14.6387 143.09C20.6387 144.73 28.8687 147.27 37.8187 150.48C46.7687 153.69 54.7387 156.97 60.4387 159.48C63.2987 160.73 65.5887 161.8 67.1687 162.48C67.9687 162.915 68.8094 163.27 69.6787 163.54C68.9442 163.001 68.1607 162.533 67.3387 162.14C65.7987 161.31 63.5487 160.14 60.7187 158.81C55.0787 156.12 47.1187 152.74 38.1487 149.51C30.4957 146.733 22.7055 144.35 14.8087 142.37C11.8087 141.62 9.29867 141.11 7.57867 140.8C6.69333 140.613 5.79308 140.506 4.88867 140.48Z" fill="#B0BEC5"/>
<path d="M87 242.41C87 242.41 87.23 242.18 87.59 241.67L89.12 239.44C90.43 237.49 92.26 234.63 94.48 231.06C98.92 223.92 104.74 213.87 111.01 202.69C117.28 191.51 123.01 181.42 127.29 174.2C129.39 170.7 131.11 167.81 132.39 165.67C132.94 164.74 133.39 163.97 133.77 163.34C133.948 163.077 134.089 162.791 134.19 162.49C134.19 162.49 133.96 162.72 133.6 163.23L132 165.46C130.68 167.41 128.85 170.27 126.63 173.84C122.22 181 116.4 191 110.13 202.21C103.86 213.42 98.13 223.48 93.85 230.7C91.75 234.2 90.03 237.09 88.75 239.23L87.38 241.56C87.2148 241.825 87.087 242.111 87 242.41Z" fill="#B0BEC5"/>
<path d="M2.7793 199.7C3.02872 199.903 3.30458 200.071 3.5993 200.2L5.9993 201.47L14.9993 206.06C22.6093 209.94 33.0593 215.42 44.5893 221.49C56.1193 227.56 66.5893 232.94 74.3293 236.67C78.1693 238.53 81.3293 240 83.4793 240.98L85.9993 242.09C86.284 242.236 86.5866 242.343 86.8993 242.41C86.6499 242.207 86.374 242.039 86.0793 241.91L83.6393 240.64L74.6393 236.05C67.0293 232.17 56.5793 226.69 45.0493 220.62C33.5193 214.55 23.0493 209.16 15.3193 205.44C11.4693 203.58 8.3193 202.11 6.1593 201.13L3.6793 200C3.39363 199.861 3.09107 199.76 2.7793 199.7Z" fill="#B0BEC5"/>
<path d="M428.36 350C428.36 350.14 333.69 350.26 216.94 350.26C100.19 350.26 5.5 350.15 5.5 350C5.5 349.85 100.15 349.74 216.94 349.74C333.73 349.74 428.36 349.86 428.36 350Z" fill="#90A4AE"/>
<path d="M28.7304 184.39C28.7304 184.39 35.6304 179.73 44.2504 196.26C52.8704 212.79 56.1704 222.34 56.1704 222.34C56.1704 222.34 58.4404 225.8 60.8104 223.5C63.1804 221.2 66.3904 214.72 70.4704 215.85C74.5504 216.98 76.1304 221.7 75.3904 228.62C74.6504 235.54 73.5904 250.76 73.5004 252.13C73.4104 253.5 74.2004 255.46 76.0604 254.13C77.9204 252.8 88.6104 240.7 94.0604 246.13C99.5104 251.56 94.2904 270.48 93.7604 272.56C93.2304 274.64 93.6404 275.56 94.6304 276.03C95.6204 276.5 98.8304 272.12 102.01 268.8C105.19 265.48 109.46 262.17 112.34 265.56C115.22 268.95 116.27 283.11 103 306.25L96.1504 316.57L83.7204 316C57.1904 313.15 46.3404 304 45.3004 299.67C44.2604 295.34 49.4204 293.83 53.9804 293.21C58.5404 292.59 63.9804 292.58 64.1704 291.48C64.3604 290.38 63.8704 289.53 61.8704 288.74C59.8704 287.95 41.4804 281.06 40.3004 273.47C39.1204 265.88 55.2004 264.35 57.3604 263.6C59.5204 262.85 58.3604 261.06 57.2204 260.34C56.0804 259.62 43.1104 251.53 37.0804 248.06C31.0504 244.59 28.0804 240.69 29.6304 236.58C31.1104 232.58 38.2404 233.83 41.5004 233.26C44.7604 232.69 43.2804 228.82 43.2804 228.82C43.2804 228.82 37.4804 220.55 29.1704 203.82C20.8604 187.09 28.8804 184.25 28.8804 184.25" fill="#15CDF2"/>
<path d="M36.4805 199.18C36.5425 199.273 36.5993 199.37 36.6505 199.47L37.1205 200.36L38.8705 203.77L45.2705 216.35C50.7205 226.97 58.2705 241.6 66.5205 257.77C74.7705 273.94 82.3405 288.6 87.6605 299.26C90.3005 304.58 92.4305 308.9 93.9205 311.91L95.5905 315.36L96.0205 316.27C96.1105 316.47 96.1505 316.58 96.1505 316.58C96.1505 316.58 96.0805 316.49 95.9705 316.29L95.5105 315.41C95.0905 314.6 94.5105 313.41 93.7605 311.99C92.2305 308.99 90.0505 304.71 87.3605 299.41C82.0005 288.79 74.4305 274.15 66.1005 258C57.7705 241.85 50.2905 227.16 45.0005 216.5L38.7005 203.85C37.9905 202.37 37.4305 201.21 37.0305 200.4C36.8505 200.02 36.7105 199.72 36.6105 199.49C36.5524 199.393 36.5087 199.289 36.4805 199.18Z" fill="#90A4AE"/>
<path d="M66.3402 225.1C66.184 226.201 65.9534 227.29 65.6502 228.36C65.1702 230.49 64.5502 233.19 63.8602 236.19C63.1702 239.19 62.5202 242 62.0002 244C61.7302 245 61.5002 245.79 61.3202 246.34C61.2523 246.632 61.141 246.911 60.9902 247.17C61.1601 246.072 61.387 244.984 61.6702 243.91L63.4002 236.07C64.1002 233.01 64.7802 230.25 65.3302 228.26C65.6102 227.26 65.8502 226.47 66.0302 225.93C66.0926 225.64 66.1971 225.36 66.3402 225.1Z" fill="#90A4AE"/>
<path d="M59.8501 247.42C59.8501 247.54 54.1301 246.08 47.1501 244.14C40.1701 242.2 34.5501 240.54 34.5901 240.41C34.6301 240.28 40.3001 241.75 47.2801 243.68C54.2601 245.61 59.8801 247.29 59.8501 247.42Z" fill="#90A4AE"/>
<path d="M75.8907 275.24C75.5946 275.324 75.2885 275.368 74.9807 275.37C74.4007 275.43 73.5507 275.49 72.5007 275.54C70.4007 275.64 67.5007 275.71 64.2807 275.62C61.0607 275.53 58.1807 275.3 56.0907 275.08C55.0907 274.97 54.2007 274.86 53.6107 274.77C53.3067 274.748 53.0071 274.684 52.7207 274.58C53.8529 274.563 54.9851 274.616 56.1107 274.74C58.2107 274.88 61.1107 275.05 64.3007 275.14C67.4907 275.23 70.3907 275.22 72.4907 275.2C73.6237 275.14 74.7594 275.154 75.8907 275.24Z" fill="#90A4AE"/>
<path d="M86.2114 256.34C85.8213 257.314 85.3566 258.257 84.8214 259.16C83.9014 260.87 82.6114 263.22 81.1614 265.8C79.7114 268.38 78.3714 270.71 77.3814 272.38C76.8885 273.306 76.3234 274.192 75.6914 275.03C76.0815 274.056 76.5462 273.113 77.0814 272.21C78.0014 270.5 79.2914 268.15 80.7414 265.57C82.1914 262.99 83.5314 260.66 84.5214 259C85.0161 258.072 85.5811 257.182 86.2114 256.34Z" fill="#90A4AE"/>
<path d="M103.491 279.1C103.384 279.451 103.233 279.787 103.041 280.1L101.631 282.69C100.431 284.86 98.741 287.85 96.851 291.14C94.961 294.43 93.221 297.4 91.941 299.53C91.341 300.53 90.821 301.36 90.411 302.05C90.2409 302.367 90.0327 302.663 89.791 302.93C89.9012 302.58 90.0523 302.244 90.241 301.93L91.651 299.34C92.851 297.16 94.541 294.17 96.431 290.88C98.321 287.59 100.061 284.63 101.341 282.5L102.871 279.98C103.048 279.667 103.256 279.372 103.491 279.1Z" fill="#90A4AE"/>
<path d="M90.0009 302.26C89.6232 302.341 89.2369 302.375 88.8509 302.36C88.1009 302.36 87.0209 302.41 85.6909 302.42C83.0309 302.42 79.3409 302.42 75.2809 302.15C71.2209 301.88 67.5409 301.58 64.9009 301.27C63.5709 301.12 62.5009 300.97 61.7709 300.86C61.3832 300.828 61.0006 300.751 60.6309 300.63C61.0167 300.595 61.405 300.595 61.7909 300.63L64.9309 300.89C67.5809 301.12 71.2509 301.41 75.3009 301.63C79.3509 301.85 83.0309 301.97 85.6909 302.04L88.8509 302.13C89.2375 302.136 89.6227 302.179 90.0009 302.26Z" fill="#90A4AE"/>
<path d="M415.119 178.89L381.649 211.48L350.809 270.33L316.129 336.88L273.519 316.88L227.459 293.3L256.919 237.02L275.229 174.02C262.289 182.6 238.229 194.29 209.529 188.19C178.389 181.59 193.339 64.19 193.339 64.19L227.559 63.31L230.999 146.08L269.649 129L269.709 129.14C272.039 128.14 274.079 127.14 275.159 126.59C296.549 114.92 310.589 113.51 333.539 121.7L366.649 132.7C375.159 136.7 406.529 152.15 415.119 178.89Z" fill="#15CDF2"/>
<path d="M297.998 119.24C297.998 119.24 297.228 119.68 295.928 120.61C294.105 121.936 292.488 123.523 291.128 125.32C289.131 128.002 287.541 130.964 286.408 134.11C285.03 137.977 283.852 141.912 282.878 145.9L276.998 167.53C276.228 170.24 275.608 172.46 275.148 174.06C274.938 174.79 274.758 175.38 274.628 175.83C274.58 176.041 274.506 176.246 274.408 176.44C274.421 176.226 274.462 176.014 274.528 175.81C274.638 175.34 274.778 174.75 274.958 174.01C275.368 172.39 275.958 170.16 276.638 167.43C278.118 161.83 280.138 154.2 282.378 145.76C283.358 141.759 284.553 137.813 285.958 133.94C287.128 130.763 288.773 127.782 290.838 125.1C292.247 123.291 293.935 121.718 295.838 120.44C296.351 120.093 296.885 119.779 297.438 119.5C297.618 119.4 297.806 119.313 297.998 119.24Z" fill="#90A4AE"/>
<g opacity="0.3">
<path d="M285.509 135.83C275.939 161.74 258.729 176.22 234.359 189.2C248.747 187.606 262.536 182.556 274.549 174.48" fill="#CFD8DC"/>
</g>
<g opacity="0.3">
<path d="M316 117.39C320.053 182.31 324.107 247.227 328.16 312.14L316.16 336.88L316 117.39Z" fill="#CFD8DC"/>
</g>
<path d="M353.68 184.74C353.54 184.8 352.32 181.74 350.61 178.05C348.9 174.36 347.38 171.43 347.51 171.36C347.981 171.911 348.381 172.519 348.7 173.17C349.37 174.33 350.23 175.97 351.08 177.83C351.93 179.69 352.63 181.4 353.08 182.66C353.374 183.323 353.576 184.022 353.68 184.74Z" fill="#424242"/>
<path d="M380.919 171.05C378.857 172.653 376.685 174.11 374.419 175.41C372.249 176.866 369.983 178.176 367.639 179.33C369.713 177.739 371.888 176.283 374.149 174.97C376.316 173.515 378.578 172.206 380.919 171.05Z" fill="#424242"/>
<path d="M369.1 161.19C368.753 159.441 368.572 157.663 368.56 155.88C368.392 154.101 368.392 152.309 368.56 150.53C368.918 152.281 369.099 154.063 369.1 155.85C369.274 157.626 369.274 159.414 369.1 161.19Z" fill="#424242"/>
<path d="M396.29 159.29C392.935 157.626 389.741 155.654 386.75 153.4C388.467 154.154 390.11 155.065 391.66 156.12C393.299 157.03 394.849 158.091 396.29 159.29Z" fill="#424242"/>
<path d="M354.719 213.23C355.458 210.864 356.36 208.551 357.419 206.31C358.325 204.004 359.387 201.762 360.599 199.6C359.863 201.968 358.961 204.28 357.899 206.52C356.995 208.828 355.933 211.07 354.719 213.23Z" fill="#424242"/>
<path d="M342.61 225.49C341.649 224.145 340.832 222.704 340.17 221.19C339.349 219.749 338.679 218.228 338.17 216.65C339.132 217.996 339.953 219.436 340.62 220.95C341.442 222.388 342.109 223.91 342.61 225.49Z" fill="#424242"/>
<path d="M352.739 242C351.106 242.707 349.371 243.149 347.599 243.31C345.852 243.648 344.063 243.702 342.299 243.47C342.299 243.32 344.649 243.21 347.529 242.8C350.409 242.39 352.699 241.84 352.739 242Z" fill="#424242"/>
<path d="M365.729 223.94C366.163 222.269 366.759 220.645 367.509 219.09C368.099 217.468 368.853 215.91 369.759 214.44C369.331 216.111 368.738 217.736 367.988 219.29C367.402 220.916 366.644 222.474 365.729 223.94Z" fill="#424242"/>
<path d="M334.139 262.08C334.009 262.16 332.539 260.13 330.519 257.8C328.499 255.47 326.699 253.72 326.809 253.61C329.812 255.896 332.308 258.78 334.139 262.08Z" fill="#424242"/>
<path d="M328.409 221.07C327.7 222.816 326.826 224.491 325.798 226.07C324.925 227.748 323.897 229.342 322.729 230.83C323.451 229.088 324.328 227.415 325.349 225.83C326.22 224.153 327.245 222.559 328.409 221.07Z" fill="#424242"/>
<path d="M332.489 207C330.595 206.771 328.725 206.377 326.899 205.82C325.032 205.427 323.205 204.864 321.439 204.14C323.335 204.363 325.206 204.758 327.029 205.32C328.898 205.71 330.725 206.272 332.489 207Z" fill="#424242"/>
<path d="M332.25 178C333.349 179.284 334.352 180.648 335.25 182.08C336.28 183.409 337.209 184.813 338.03 186.28C336.799 185.12 335.724 183.806 334.83 182.37C333.78 181.035 332.912 179.565 332.25 178Z" fill="#424242"/>
<path d="M322.998 176.55C320.815 178.914 318.381 181.034 315.738 182.87C316.765 181.627 317.925 180.5 319.198 179.51C320.357 178.392 321.63 177.399 322.998 176.55Z" fill="#424242"/>
<path d="M330.309 161.38C326.932 158.717 324.118 155.41 322.029 151.65C322.159 151.57 323.799 153.91 326.089 156.59C328.379 159.27 330.419 161.27 330.309 161.38Z" fill="#424242"/>
<path d="M355.89 156.71C354.082 157.54 352.205 158.209 350.28 158.71C348.407 159.374 346.48 159.869 344.52 160.19C346.33 159.368 348.207 158.699 350.13 158.19C352.002 157.528 353.93 157.033 355.89 156.71Z" fill="#424242"/>
<path d="M319.879 132.35C319.729 132.35 319.799 130.06 319.439 127.28C319.079 124.5 318.439 122.28 318.619 122.28C319.976 125.462 320.413 128.962 319.879 132.38V132.35Z" fill="#424242"/>
<path d="M297.119 204.86C296.382 205.5 295.596 206.081 294.769 206.6C293.289 207.6 291.269 209.09 289.109 210.79C286.949 212.49 285.049 214.1 283.689 215.28C282.986 215.96 282.234 216.588 281.439 217.16C282.028 216.374 282.698 215.654 283.439 215.01C285.141 213.375 286.927 211.829 288.789 210.38C290.643 208.921 292.569 207.556 294.559 206.29C295.366 205.734 296.223 205.255 297.119 204.86Z" fill="#424242"/>
<path d="M295.809 196.84C295.679 196.91 293.999 194.3 291.669 191.25C289.339 188.2 287.279 185.88 287.389 185.77C287.958 186.157 288.467 186.625 288.899 187.16C290.025 188.362 291.09 189.62 292.089 190.93C293.249 192.47 294.219 193.93 294.869 195.01C295.266 195.573 295.583 196.189 295.809 196.84Z" fill="#424242"/>
<path d="M301.9 165.23C298.807 167.333 295.527 169.144 292.1 170.64C293.6 169.519 295.2 168.538 296.88 167.71C298.471 166.727 300.152 165.897 301.9 165.23Z" fill="#424242"/>
<path d="M295.87 151.43C295.24 151.061 294.665 150.607 294.16 150.08C292.864 148.897 291.658 147.62 290.55 146.26C289.431 144.902 288.412 143.465 287.5 141.96C287.078 141.363 286.742 140.71 286.5 140.02C286.64 139.94 288.35 142.78 290.94 145.93C293.53 149.08 296 151.31 295.87 151.43Z" fill="#424242"/>
<path d="M306.25 151.14C306.705 149.622 307.322 148.157 308.09 146.77C308.707 145.307 309.482 143.916 310.4 142.62C309.95 144.14 309.333 145.606 308.56 146.99C307.947 148.455 307.172 149.847 306.25 151.14Z" fill="#424242"/>
<path d="M303.48 135.35C303.32 135.35 303.48 132.24 302.9 128.49C302.32 124.74 301.209 121.84 301.359 121.78C301.737 122.352 302.024 122.98 302.21 123.64C302.762 125.189 303.167 126.786 303.42 128.41C303.668 130.034 303.772 131.677 303.73 133.32C303.756 134.006 303.671 134.691 303.48 135.35Z" fill="#424242"/>
<path d="M305.999 215C305.932 214.024 305.932 213.046 305.999 212.07C306.069 210.27 306.119 207.78 306.049 205.07C305.979 202.36 305.799 199.84 305.649 198.07C305.514 197.103 305.453 196.127 305.469 195.15C305.746 196.09 305.93 197.054 306.019 198.03C306.331 200.372 306.514 202.728 306.569 205.09C306.632 207.449 306.566 209.809 306.369 212.16C306.345 213.117 306.221 214.069 305.999 215Z" fill="#424242"/>
<path d="M304.52 239.89C303.123 238.604 301.643 237.412 300.09 236.32C298.449 235.371 296.749 234.529 295 233.8C296.917 234.125 298.749 234.832 300.387 235.878C302.026 236.924 303.438 238.288 304.54 239.89H304.52Z" fill="#424242"/>
<path d="M317 255.29C314.798 256.724 312.502 258.011 310.13 259.14C307.839 260.427 305.464 261.556 303.02 262.52C305.225 261.094 307.52 259.811 309.89 258.68C312.181 257.393 314.557 256.26 317 255.29Z" fill="#424242"/>
<path d="M281.819 262.12C279.994 260.089 278.304 257.941 276.759 255.69C275.071 253.541 273.521 251.286 272.119 248.94C273.939 250.978 275.629 253.129 277.179 255.38C278.863 257.529 280.413 259.78 281.819 262.12Z" fill="#424242"/>
<path d="M271 233.68C270.827 233.011 270.75 232.321 270.77 231.63C270.72 230.36 270.7 228.63 270.77 226.63C270.84 224.63 271.04 222.94 271.21 221.63C271.258 220.948 271.396 220.276 271.62 219.63C271.77 219.63 271.47 222.77 271.29 226.63C271.11 230.49 271.1 233.68 271 233.68Z" fill="#424242"/>
<path d="M259.219 282.23C257.171 280.86 255.219 279.349 253.379 277.71C251.43 276.201 249.588 274.557 247.869 272.79C249.918 274.159 251.87 275.67 253.709 277.31C255.659 278.819 257.5 280.463 259.219 282.23Z" fill="#424242"/>
<path d="M266.258 280.74C265.935 278.139 265.785 275.52 265.808 272.9C265.664 270.284 265.691 267.662 265.888 265.05C266.211 267.651 266.362 270.27 266.338 272.89C266.483 275.506 266.456 278.128 266.258 280.74Z" fill="#424242"/>
<path d="M280.16 310.85C280.16 310.93 278.91 310.44 276.9 309.79C271.665 308.105 266.174 307.357 260.68 307.58C258.57 307.66 257.27 307.81 257.26 307.72C257.548 307.607 257.851 307.536 258.16 307.51C258.74 307.4 259.6 307.3 260.66 307.21C266.204 306.791 271.773 307.555 277 309.45C277.795 309.738 278.573 310.072 279.33 310.45C279.625 310.54 279.905 310.675 280.16 310.85Z" fill="#424242"/>
<path d="M291.609 316.35C292.422 316.775 293.181 317.295 293.869 317.9C297.329 320.64 300.46 323.77 303.199 327.23C303.804 327.919 304.325 328.677 304.749 329.49C304.088 328.869 303.473 328.201 302.909 327.49C301.809 326.22 300.249 324.49 298.439 322.68C296.629 320.87 294.899 319.32 293.629 318.21C292.911 317.641 292.236 317.019 291.609 316.35Z" fill="#424242"/>
<path d="M296.598 264.25C295.583 262.378 294.717 260.428 294.008 258.42C293.145 256.48 292.439 254.473 291.898 252.42C292.914 254.292 293.78 256.242 294.488 258.25C295.352 260.19 296.057 262.197 296.598 264.25Z" fill="#424242"/>
<path d="M256.43 162.9C256.004 163.528 255.489 164.091 254.9 164.57C253.566 165.81 252.135 166.94 250.62 167.95C249.103 168.967 247.504 169.857 245.84 170.61C245.17 170.966 244.453 171.226 243.71 171.38C243.65 171.23 246.82 169.87 250.33 167.52C253.84 165.17 256.32 162.78 256.43 162.9Z" fill="#424242"/>
<path d="M258.999 152.3C258.792 149.327 258.933 146.34 259.419 143.4C259.626 146.373 259.485 149.36 258.999 152.3Z" fill="#424242"/>
<path d="M239.049 161.2C237.258 160.667 235.52 159.967 233.859 159.11C232.117 158.409 230.443 157.549 228.859 156.54C230.649 157.078 232.386 157.778 234.049 158.63C235.792 159.331 237.465 160.191 239.049 161.2Z" fill="#424242"/>
<path d="M274.638 147.64C274.522 145.795 274.579 143.944 274.808 142.11C274.856 140.262 275.084 138.424 275.488 136.62C275.605 138.464 275.552 140.315 275.328 142.15C275.273 143.998 275.042 145.836 274.638 147.64Z" fill="#424242"/>
<path d="M228.449 182.4C226.424 181.889 224.497 181.044 222.749 179.9C220.911 178.902 219.257 177.597 217.859 176.04C217.959 175.92 220.089 177.71 223.009 179.46C225.929 181.21 228.509 182.25 228.449 182.4Z" fill="#424242"/>
<path d="M213.619 162.05C212.331 163.825 210.907 165.497 209.359 167.05C207.935 168.733 206.384 170.305 204.719 171.75C207.426 168.273 210.402 165.013 213.619 162V162.05Z" fill="#424242"/>
<path d="M212.349 143.82C210.645 143.244 209.062 142.359 207.679 141.21C206.197 140.199 204.907 138.933 203.869 137.47C203.979 137.36 205.659 139.05 207.999 140.79C210.339 142.53 212.419 143.69 212.349 143.82Z" fill="#424242"/>
<path d="M203 147.64C202.434 148.71 201.716 149.694 200.87 150.56C200.151 151.537 199.3 152.409 198.34 153.15C199.621 151.1 201.191 149.244 203 147.64Z" fill="#424242"/>
<path d="M222.999 113.8C221.835 115.627 220.528 117.36 219.089 118.98C217.788 120.715 216.347 122.341 214.779 123.84C215.945 122.01 217.252 120.275 218.689 118.65C219.995 116.922 221.436 115.3 222.999 113.8Z" fill="#424242"/>
<path d="M205.87 117.65C204.328 116.281 202.903 114.786 201.61 113.18C200.192 111.69 198.901 110.084 197.75 108.38C199.294 109.743 200.719 111.235 202.01 112.84C203.428 114.333 204.719 115.942 205.87 117.65Z" fill="#424242"/>
<path d="M214.45 95.93C213.303 94.448 212.298 92.8609 211.45 91.19C210.459 89.6022 209.612 87.9288 208.92 86.19C210.065 87.6766 211.07 89.2668 211.92 90.94C212.912 92.5238 213.758 94.1939 214.45 95.93Z" fill="#424242"/>
<path d="M213.999 81.92C213.879 81.82 215.379 79.92 216.569 77.23C217.759 74.54 218.189 72.17 218.349 72.23C218.1 75.884 216.558 79.3299 213.999 81.95V81.92Z" fill="#424242"/>
<path d="M197.51 81.09C197.354 78.976 197.78 76.8598 198.74 74.97C199.361 73.6139 200.183 72.3596 201.18 71.25C201.561 70.7614 202.033 70.3506 202.57 70.04C201.272 71.63 200.145 73.353 199.21 75.18C198.433 77.0833 197.863 79.0647 197.51 81.09Z" fill="#424242"/>
<path d="M341.69 57.3C341.23 53.155 341.18 48.9749 341.54 44.82C341.913 40.6399 343.513 36.6633 346.14 33.39C348.87 30.23 353.07 28.2 357.2 28.73C359.76 29.06 362.2 30.32 364.75 30.25C367.75 30.16 370.32 28.32 373.03 27.09C377.302 25.1506 382.088 24.6488 386.67 25.66C389.085 26.1152 391.321 27.2455 393.12 28.92C394.006 29.7649 394.663 30.8213 395.028 31.9898C395.394 33.1584 395.456 34.4007 395.21 35.6C398.231 35.4673 401.257 35.733 404.21 36.39C407.166 37.0562 409.746 38.8502 411.4 41.39C412.89 44 412.79 47.63 410.65 49.74C412.058 49.5512 413.487 49.89 414.661 50.6912C415.835 51.4923 416.672 52.6993 417.01 54.08C417.275 55.4772 417.134 56.9213 416.602 58.2404C416.07 59.5594 415.17 60.6978 414.01 61.52C411.213 63.2322 407.901 63.8982 404.66 63.4C401.88 62.87 398.66 62.09 396.43 60.4" fill="#FBE7A1"/>
<path d="M339.52 151.5C345.037 152.917 350.89 152.095 355.804 149.214C360.717 146.333 364.293 141.626 365.75 136.12C367.44 129.71 368.82 124.34 368.82 124.34C368.82 124.34 385.53 127.21 391.06 111.34C396.59 95.47 406.06 58.13 406.06 58.13C398.332 51.2196 388.901 46.4967 378.738 44.4487C368.576 42.4008 358.051 43.102 348.25 46.48L345.25 47.48L324.02 124.81C323.251 127.581 323.044 130.477 323.41 133.329C323.777 136.181 324.709 138.931 326.153 141.417C327.597 143.903 329.523 146.076 331.819 147.808C334.114 149.539 336.733 150.795 339.52 151.5Z" fill="#FFBE9D"/>
<path d="M368.919 124.12C361.542 121.795 355.022 117.329 350.189 111.29C350.189 111.29 351.249 124.36 367.579 128.29L368.919 124.12Z" fill="#EB996E"/>
<path d="M341.739 64.66C341.509 64.45 331.909 57.77 328.619 68.75C325.329 79.73 337.019 80.75 337.129 80.46C337.239 80.17 341.739 64.66 341.739 64.66Z" fill="#FFBE9D"/>
<path d="M334.999 75.29C334.999 75.29 334.768 75.37 334.398 75.42C333.896 75.4616 333.395 75.3116 332.999 75C331.999 74.23 331.549 72.09 332.089 70.1C332.339 69.1496 332.801 68.2678 333.439 67.52C333.649 67.2153 333.93 66.9655 334.257 66.7916C334.584 66.6176 334.948 66.5245 335.319 66.52C335.561 66.5176 335.796 66.6035 335.98 66.7618C336.164 66.92 336.285 67.1397 336.319 67.38C336.379 67.73 336.239 67.93 336.319 67.97C336.399 68.01 336.608 67.85 336.648 67.37C336.67 67.0828 336.592 66.7969 336.428 66.56C336.311 66.3979 336.161 66.2612 335.99 66.1581C335.818 66.055 335.627 65.9876 335.428 65.96C334.951 65.9119 334.469 65.9879 334.029 66.1806C333.589 66.3733 333.207 66.6762 332.919 67.06C332.164 67.8683 331.621 68.8509 331.339 69.92C330.739 72.15 331.249 74.56 332.699 75.5C332.969 75.6732 333.274 75.7838 333.592 75.8236C333.911 75.8634 334.234 75.8314 334.539 75.73C334.929 75.55 335.059 75.33 334.999 75.29Z" fill="#EB996E"/>
<path d="M392.609 81.05C392.414 81.6515 391.99 82.1516 391.428 82.4419C390.866 82.7321 390.213 82.7889 389.609 82.6C389.313 82.5257 389.035 82.393 388.791 82.2096C388.547 82.0263 388.342 81.796 388.189 81.5324C388.035 81.2687 387.935 80.977 387.896 80.6743C387.857 80.3717 387.878 80.0642 387.959 79.77C388.153 79.1781 388.568 78.6845 389.119 78.3934C389.669 78.1023 390.311 78.0366 390.909 78.21C391.21 78.2799 391.494 78.4097 391.744 78.5917C391.993 78.7736 392.204 79.004 392.362 79.2691C392.521 79.5341 392.625 79.8284 392.667 80.1344C392.71 80.4404 392.69 80.7518 392.609 81.05Z" fill="#263238"/>
<path d="M395.57 79.51C395.19 79.71 393.9 77.87 391.46 77.05C389.02 76.23 386.81 76.86 386.65 76.47C386.56 76.3 387.03 75.86 388 75.55C389.31 75.1633 390.71 75.1983 392 75.65C393.271 76.0709 394.375 76.8873 395.15 77.98C395.68 78.81 395.75 79.43 395.57 79.51Z" fill="#263238"/>
<path d="M368.608 73C368.415 73.5919 367.999 74.0855 367.449 74.3766C366.898 74.6677 366.256 74.7335 365.658 74.56C365.362 74.4857 365.084 74.353 364.84 74.1696C364.596 73.9863 364.391 73.756 364.237 73.4924C364.084 73.2287 363.984 72.937 363.945 72.6343C363.906 72.3317 363.927 72.0242 364.008 71.73C364.199 71.1366 364.615 70.6414 365.166 70.3499C365.717 70.0585 366.36 69.9939 366.958 70.17C367.254 70.2443 367.532 70.377 367.776 70.5604C368.02 70.7437 368.225 70.974 368.379 71.2377C368.533 71.5013 368.632 71.7931 368.672 72.0957C368.711 72.3983 368.689 72.7058 368.608 73Z" fill="#263238"/>
<path d="M371.429 71.91C371.049 72.12 369.749 70.27 367.309 69.45C364.869 68.63 362.669 69.26 362.499 68.87C362.419 68.7 362.879 68.26 363.859 67.96C365.169 67.5728 366.568 67.6042 367.859 68.05C369.132 68.474 370.238 69.2895 371.019 70.38C371.529 71.21 371.609 71.83 371.429 71.91Z" fill="#263238"/>
<path d="M374.21 93C374.21 92.86 375.85 93.1 378.41 93.61C379.06 93.76 379.69 93.83 379.94 93.44C380.207 92.8089 380.277 92.1116 380.14 91.44C380.06 89.73 379.98 87.94 379.89 86.07C379.6 78.46 379.61 72.28 379.89 72.27C380.17 72.26 380.68 78.43 380.97 86.04C381.03 87.91 381.08 89.7 381.13 91.41C381.274 92.2912 381.1 93.1949 380.64 93.96C380.476 94.1498 380.271 94.2998 380.041 94.3986C379.81 94.4973 379.56 94.5423 379.31 94.53C378.932 94.511 378.558 94.4404 378.2 94.32C375.71 93.63 374.17 93.13 374.21 93Z" fill="#263238"/>
<path d="M366.46 92.27C366.86 92.38 365.98 95.03 367.62 97.67C369.26 100.31 372.17 100.97 372.07 101.34C372.07 101.52 371.26 101.65 370.07 101.28C368.511 100.781 367.179 99.7468 366.31 98.36C365.468 97.0324 365.181 95.4273 365.51 93.89C365.77 92.75 366.28 92.19 366.46 92.27Z" fill="#263238"/>
<path d="M396.109 74.92C395.499 75.33 394.009 74.19 391.999 73.48C389.989 72.77 388.139 72.6 387.939 71.89C387.859 71.55 388.319 71.08 389.239 70.81C390.455 70.5175 391.731 70.5933 392.905 71.0277C394.078 71.4622 395.096 72.2357 395.829 73.25C396.349 74.06 396.389 74.71 396.109 74.92Z" fill="#263238"/>
<path d="M371.209 62C370.839 62.2 370.209 61.87 369.499 61.44C368.58 60.8913 367.616 60.4196 366.619 60.03C365.608 59.6661 364.568 59.3917 363.509 59.21C362.659 59.04 361.999 58.91 361.849 58.51C361.699 58.11 362.179 57.51 363.259 57.11C364.697 56.656 366.244 56.6947 367.657 57.2201C369.07 57.7454 370.267 58.7272 371.059 60.01C371.609 61.06 371.559 61.84 371.209 62Z" fill="#263238"/>
<path d="M405.229 63.32C396.878 62.834 388.898 59.699 382.449 54.37C375.269 48.49 366.279 44.37 363.829 45.53C361.379 46.69 359.049 54.93 350.469 55.53C350.469 55.53 347.409 71.58 341.189 69.53C334.969 67.48 344.539 43.76 344.539 43.76L361.789 39.7L379.459 40.35L395.329 43.95L409.059 51.84L405.229 63.32Z" fill="#FBE7A1"/>
<path d="M316.13 0.37001H91.5996V350.01H316.13V0.37001Z" fill="#424242"/>
<path d="M316.129 350C316.129 347.85 316.029 205.85 315.889 0.360008L316.129 0.600006H91.6292L91.8991 0.340004C91.8991 132.62 91.8991 254.42 91.8391 349.98L91.6292 349.77L316.159 349.98L91.6292 350.18H91.4291V350C91.4291 254.44 91.4291 132.64 91.3691 0.360008V0.100006H91.6591H316.159H316.399V0.340004C316.229 205.86 316.129 347.86 316.129 350Z" fill="#90A4AE"/>
<path d="M151.779 78.23H123.049C122.096 78.23 121.182 77.8521 120.507 77.1791C119.832 76.5062 119.452 75.5931 119.449 74.64V34.87C119.452 33.917 119.832 33.0039 120.507 32.3309C121.182 31.6579 122.096 31.28 123.049 31.28H141.269L155.369 45.81V74.64C155.369 75.5921 154.991 76.5053 154.318 77.1785C153.644 77.8518 152.731 78.23 151.779 78.23Z" fill="#15CDF2"/>
<path d="M141.27 31.28V42.47C141.272 43.355 141.625 44.203 142.251 44.8288C142.877 45.4546 143.725 45.8074 144.61 45.81H155.37L141.27 31.28Z" fill="#15CDF2"/>
<g opacity="0.2">
<path d="M141.42 43.45C141.424 44.2969 141.718 45.1169 142.253 45.7736C142.788 46.4303 143.531 46.8842 144.36 47.06L144.72 47.14C146.12 47.39 155.37 49.03 155.37 48.82V45.82H144.61C144.61 45.82 141.93 45.72 141.42 43.45Z" fill="#CFD8DC"/>
</g>
<g opacity="0.3">
<path d="M141.27 31.28V42.47C141.272 43.355 141.625 44.203 142.251 44.8288C142.877 45.4546 143.725 45.8074 144.61 45.81H155.37L141.27 31.28Z" fill="#E0E0E0"/>
</g>
<path d="M138.858 42C136.652 42.2571 134.428 42.344 132.208 42.26C129.992 42.3442 127.772 42.2573 125.568 42C127.772 41.7427 129.992 41.6558 132.208 41.74C134.428 41.656 136.652 41.7429 138.858 42Z" fill="#424242"/>
<path d="M147.438 48.34C147.438 48.48 142.548 48.6 136.508 48.6C130.468 48.6 125.568 48.48 125.568 48.34C125.568 48.2 130.468 48.08 136.508 48.08C142.548 48.08 147.438 48.19 147.438 48.34Z" fill="#424242"/>
<path d="M149.408 53.62C149.408 53.77 144.078 53.88 137.488 53.88C130.898 53.88 125.568 53.77 125.568 53.62C125.568 53.47 130.908 53.36 137.488 53.36C144.068 53.36 149.408 53.48 149.408 53.62Z" fill="#424242"/>
<path d="M149.408 58.61C149.408 58.75 144.078 58.87 137.488 58.87C130.898 58.87 125.568 58.75 125.568 58.61C125.568 58.47 130.908 58.35 137.488 58.35C144.068 58.35 149.408 58.46 149.408 58.61Z" fill="#424242"/>
<path d="M149.408 63.59C149.408 63.74 144.078 63.85 137.488 63.85C130.898 63.85 125.568 63.74 125.568 63.59C125.568 63.44 130.908 63.33 137.488 63.33C144.068 63.33 149.408 63.45 149.408 63.59Z" fill="#424242"/>
<path d="M149.408 68.58C149.408 68.72 144.078 68.84 137.488 68.84C130.898 68.84 125.568 68.72 125.568 68.58C125.568 68.44 130.908 68.32 137.488 68.32C144.068 68.32 149.408 68.43 149.408 68.58Z" fill="#424242"/>
<path d="M165.42 51.71H162.42V50.61H169.73V51.71H166.73V59.45H165.48L165.42 51.71Z" fill="#90A4AE"/>
<path d="M177.49 58.35V59.45H171.08V50.61H177.31V51.71H172.31V54.42H176.74V55.5H172.31V58.35H177.49Z" fill="#90A4AE"/>
<path d="M185.439 59.45L183.529 56.73C183.346 56.7405 183.162 56.7405 182.979 56.73H180.799V59.42H179.529V50.58H182.999C185.299 50.58 186.679 51.74 186.679 53.66C186.71 54.2741 186.536 54.8811 186.185 55.3859C185.834 55.8908 185.326 56.265 184.739 56.45L186.839 59.45H185.439ZM185.439 53.69C185.439 52.43 184.599 51.69 182.979 51.69H180.799V55.69H182.939C184.559 55.69 185.399 55 185.399 53.69H185.439Z" fill="#90A4AE"/>
<path d="M196.899 59.45V53L193.699 58.36H193.119L189.929 53.04V59.44H188.719V50.6H189.719L193.399 56.81L197.029 50.6H198.029V59.44L196.899 59.45Z" fill="#90A4AE"/>
<path d="M200 58.44L200.46 57.44C201.286 58.1049 202.32 58.4588 203.38 58.44C204.91 58.44 205.56 57.84 205.56 57.07C205.56 54.91 200.21 56.28 200.21 53C200.21 51.63 201.27 50.47 203.59 50.47C204.593 50.4504 205.581 50.725 206.43 51.26L206.02 52.26C205.293 51.7992 204.451 51.5531 203.59 51.55C202.09 51.55 201.45 52.18 201.45 52.95C201.45 55.1 206.8 53.75 206.8 56.95C206.8 58.3 205.71 59.46 203.38 59.46C202.169 59.5196 200.976 59.1593 200 58.44Z" fill="#90A4AE"/>
<path d="M211.279 55C211.243 54.0636 211.488 53.1378 211.982 52.3416C212.476 51.5454 213.197 50.9151 214.052 50.5316C214.907 50.1481 215.857 50.029 216.78 50.1895C217.704 50.35 218.558 50.7828 219.233 51.4324C219.909 52.0819 220.375 52.9186 220.571 53.8349C220.767 54.7511 220.685 55.7052 220.336 56.5746C219.986 57.4439 219.384 58.1888 218.608 58.7137C217.831 59.2385 216.916 59.5193 215.979 59.52C215.369 59.5486 214.76 59.4526 214.189 59.2378C213.618 59.0231 213.096 58.6942 212.656 58.2712C212.217 57.8482 211.867 57.3399 211.631 56.7775C211.394 56.2151 211.274 55.6103 211.279 55ZM219.399 55C219.405 54.3199 219.208 53.6535 218.835 53.0853C218.461 52.517 217.927 52.0728 217.3 51.8088C216.673 51.5449 215.982 51.4733 215.315 51.603C214.647 51.7328 214.033 52.0581 213.551 52.5375C213.068 53.017 212.74 53.6291 212.606 54.2959C212.472 54.9627 212.54 55.6542 212.8 56.2825C213.06 56.9109 213.501 57.4476 214.067 57.8247C214.633 58.2017 215.299 58.402 215.979 58.4C216.43 58.4152 216.88 58.3378 217.301 58.1726C217.721 58.0073 218.103 57.7578 218.424 57.4393C218.744 57.1207 218.996 56.74 219.164 56.3205C219.331 55.901 219.411 55.4516 219.399 55Z" fill="#90A4AE"/>
<path d="M223.86 51.71V54.79H228.29V55.88H223.86V59.45H222.6V50.61H228.83V51.71H223.86Z" fill="#90A4AE"/>
<path d="M233.199 58.44L233.669 57.44C234.492 58.1034 235.522 58.4573 236.579 58.44C238.109 58.44 238.769 57.84 238.769 57.07C238.769 54.91 233.419 56.28 233.419 53C233.419 51.63 234.479 50.47 236.799 50.47C237.802 50.4522 238.789 50.7266 239.639 51.26L239.219 52.26C238.495 51.8005 237.657 51.5545 236.799 51.55C235.299 51.55 234.649 52.18 234.649 52.95C234.649 55.1 239.999 53.75 239.999 56.95C239.999 58.3 238.919 59.46 236.579 59.46C235.369 59.5179 234.175 59.1578 233.199 58.44Z" fill="#90A4AE"/>
<path d="M248.26 58.35V59.45H241.85V50.61H248.08V51.71H243.08V54.42H247.51V55.5H243.08V58.35H248.26Z" fill="#90A4AE"/>
<path d="M256.209 59.45L254.309 56.73C254.122 56.7402 253.935 56.7402 253.749 56.73H251.569V59.42H250.309V50.58H253.749C256.049 50.58 257.439 51.74 257.439 53.66C257.469 54.2754 257.293 54.8833 256.941 55.3883C256.588 55.8933 256.077 56.2668 255.489 56.45L257.589 59.45H256.209ZM256.209 53.69C256.209 52.43 255.369 51.69 253.749 51.69H251.609V55.69H253.749C255.329 55.69 256.169 55 256.169 53.69H256.209Z" fill="#90A4AE"/>
<path d="M267.149 50.61L263.279 59.45H261.999L258.109 50.61H259.479L262.659 57.87L265.859 50.61H267.149Z" fill="#90A4AE"/>
<path d="M268.279 50.61H269.539V59.45H268.279V50.61Z" fill="#90A4AE"/>
<path d="M271.47 55C271.462 54.3907 271.579 53.7863 271.814 53.2239C272.049 52.6616 272.396 52.1531 272.834 51.7298C273.272 51.3065 273.793 50.9773 274.363 50.7623C274.933 50.5474 275.541 50.4513 276.15 50.48C276.776 50.455 277.4 50.5653 277.98 50.8034C278.56 51.0416 279.082 51.402 279.51 51.86L278.69 52.65C278.369 52.3162 277.982 52.0543 277.552 51.8819C277.123 51.7095 276.662 51.6304 276.2 51.65C275.637 51.6523 275.083 51.7943 274.589 52.0634C274.094 52.3324 273.674 52.7199 273.367 53.1913C273.059 53.6626 272.873 54.203 272.826 54.7639C272.778 55.3249 272.871 55.8888 273.095 56.405C273.32 56.9213 273.669 57.3738 274.111 57.7219C274.553 58.07 275.075 58.3028 275.63 58.3995C276.184 58.4961 276.754 58.4536 277.288 58.2756C277.822 58.0977 278.304 57.79 278.69 57.38L279.51 58.17C279.081 58.6301 278.558 58.9924 277.976 59.2323C277.395 59.4721 276.768 59.5839 276.14 59.56C275.528 59.5875 274.918 59.4892 274.346 59.2713C273.775 59.0533 273.254 58.7202 272.816 58.2927C272.378 57.8652 272.033 57.3524 271.801 56.786C271.57 56.2197 271.457 55.6118 271.47 55Z" fill="#90A4AE"/>
<path d="M287.728 58.35V59.45H281.318V50.61H287.548V51.71H282.548V54.42H286.998V55.5H282.568V58.35H287.728Z" fill="#90A4AE"/>
<path d="M173.348 68.52L170.988 75.52H169.938L167.998 69.94L166.068 75.56H164.998L162.648 68.56H163.648L165.548 74.29L167.548 68.56H168.478L170.418 74.32L172.358 68.56L173.348 68.52Z" fill="#B0BEC5"/>
<path d="M178.829 73.22H174.499C174.564 73.6778 174.801 74.0938 175.161 74.3836C175.521 74.6733 175.978 74.815 176.439 74.78C176.725 74.789 177.01 74.7365 177.274 74.6261C177.538 74.5157 177.775 74.3499 177.969 74.14L178.509 74.76C178.242 75.0485 177.914 75.2749 177.55 75.4235C177.185 75.572 176.793 75.6391 176.399 75.62C176.029 75.6481 175.656 75.5981 175.306 75.4732C174.955 75.3484 174.635 75.1514 174.365 74.8951C174.096 74.6388 173.883 74.3288 173.741 73.9851C173.599 73.6415 173.53 73.2718 173.539 72.9C173.524 72.543 173.583 72.1867 173.711 71.8531C173.839 71.5196 174.034 71.2159 174.285 70.9609C174.535 70.7059 174.835 70.505 175.166 70.3707C175.497 70.2364 175.852 70.1715 176.209 70.18C176.568 70.1709 176.925 70.2366 177.256 70.3731C177.588 70.5095 177.888 70.7136 178.136 70.9724C178.385 71.2312 178.576 71.539 178.699 71.876C178.822 72.2131 178.873 72.5721 178.849 72.93C178.849 73 178.839 73.13 178.829 73.22ZM174.499 72.53H177.919C177.874 72.1084 177.674 71.7185 177.358 71.4352C177.043 71.1519 176.634 70.9952 176.209 70.9952C175.785 70.9952 175.376 71.1519 175.061 71.4352C174.745 71.7185 174.545 72.1084 174.499 72.53Z" fill="#B0BEC5"/>
<path d="M180.189 68.1H181.189V75.56H180.189V68.1Z" fill="#B0BEC5"/>
<path d="M182.499 72.9C182.491 72.5322 182.56 72.1668 182.7 71.8268C182.841 71.4868 183.05 71.1794 183.314 70.924C183.579 70.6686 183.894 70.4707 184.239 70.3427C184.584 70.2146 184.951 70.1593 185.319 70.18C185.75 70.1564 186.179 70.2499 186.561 70.4506C186.943 70.6514 187.264 70.9518 187.489 71.32L186.749 71.79C186.595 71.5496 186.381 71.3532 186.129 71.22C185.876 71.0868 185.594 71.0213 185.309 71.03C184.835 71.0646 184.392 71.2772 184.069 71.625C183.745 71.9728 183.566 72.4301 183.566 72.905C183.566 73.3799 183.745 73.8372 184.069 74.185C184.392 74.5328 184.835 74.7454 185.309 74.78C185.594 74.7887 185.876 74.7232 186.129 74.59C186.381 74.4568 186.595 74.2604 186.749 74.02L187.489 74.48C187.264 74.8482 186.943 75.1487 186.561 75.3494C186.179 75.5501 185.75 75.6436 185.319 75.62C184.951 75.6408 184.584 75.5854 184.239 75.4573C183.894 75.3293 183.579 75.1314 183.314 74.876C183.05 74.6206 182.841 74.3133 182.7 73.9732C182.56 73.6332 182.491 73.2678 182.499 72.9Z" fill="#B0BEC5"/>
<path d="M188.159 72.9C188.149 72.3506 188.303 71.8106 188.601 71.3487C188.898 70.8869 189.327 70.5241 189.832 70.3065C190.336 70.0889 190.894 70.0263 191.434 70.1266C191.975 70.227 192.473 70.4858 192.866 70.8701C193.258 71.2544 193.528 71.7469 193.64 72.2849C193.752 72.8228 193.702 73.382 193.495 73.8912C193.289 74.4005 192.935 74.8368 192.48 75.1446C192.025 75.4525 191.488 75.6179 190.939 75.62C190.575 75.6366 190.211 75.578 189.87 75.448C189.529 75.3179 189.219 75.1192 188.958 74.8641C188.697 74.609 188.492 74.303 188.354 73.9651C188.217 73.6272 188.15 73.2647 188.159 72.9ZM192.729 72.9C192.713 72.5474 192.594 72.2072 192.387 71.9217C192.179 71.6362 191.892 71.418 191.562 71.2943C191.231 71.1705 190.872 71.1467 190.528 71.2257C190.184 71.3048 189.87 71.4832 189.627 71.7388C189.384 71.9944 189.221 72.316 189.159 72.6634C189.097 73.0109 189.138 73.3689 189.278 73.693C189.418 74.0171 189.65 74.2929 189.945 74.4862C190.24 74.6794 190.586 74.7816 190.939 74.78C191.183 74.7863 191.427 74.7412 191.653 74.6477C191.879 74.5543 192.083 74.4145 192.251 74.2373C192.42 74.0602 192.55 73.8496 192.632 73.6193C192.714 73.389 192.747 73.1439 192.729 72.9Z" fill="#B0BEC5"/>
<path d="M203.89 72.5V75.56H202.89V72.61C202.89 71.56 202.38 71.05 201.51 71.05C200.64 71.05 199.91 71.66 199.91 72.82V75.56H198.91V72.61C198.91 71.56 198.4 71.05 197.53 71.05C196.66 71.05 195.93 71.66 195.93 72.82V75.56H194.93V70.23H196V71.03C196.214 70.7493 196.494 70.5251 196.814 70.377C197.135 70.2289 197.487 70.1612 197.84 70.18C198.21 70.1584 198.58 70.2406 198.907 70.4172C199.233 70.5938 199.505 70.858 199.69 71.18C199.922 70.857 200.231 70.5966 200.589 70.4221C200.947 70.2476 201.342 70.1644 201.74 70.18C202.044 70.153 202.35 70.1959 202.635 70.3056C202.92 70.4153 203.176 70.5887 203.384 70.8127C203.591 71.0367 203.745 71.3052 203.832 71.5976C203.92 71.8901 203.94 72.1988 203.89 72.5Z" fill="#B0BEC5"/>
<path d="M210.5 73.22H206.18C206.24 73.678 206.474 74.0954 206.833 74.3858C207.192 74.6761 207.649 74.8173 208.11 74.78C208.397 74.7904 208.684 74.7386 208.95 74.6282C209.215 74.5177 209.454 74.3512 209.65 74.14L210.18 74.76C209.786 75.1676 209.283 75.4517 208.731 75.5773C208.178 75.7029 207.601 75.6646 207.071 75.4671C206.54 75.2697 206.078 74.9216 205.742 74.4656C205.406 74.0096 205.211 73.4655 205.18 72.9C205.166 72.5425 205.226 72.186 205.355 71.8524C205.484 71.5188 205.68 71.2153 205.931 70.9604C206.183 70.7056 206.483 70.5049 206.815 70.3707C207.146 70.2364 207.502 70.1715 207.86 70.18C208.218 70.1707 208.574 70.2365 208.905 70.3731C209.237 70.5096 209.536 70.7139 209.783 70.9729C210.031 71.2318 210.222 71.5397 210.343 71.8768C210.465 72.2138 210.515 72.5726 210.49 72.93C210.52 73 210.51 73.13 210.5 73.22ZM206.18 72.53H209.6C209.554 72.1084 209.354 71.7185 209.039 71.4352C208.723 71.1519 208.314 70.9952 207.89 70.9952C207.466 70.9952 207.056 71.1519 206.741 71.4352C206.425 71.7185 206.225 72.1084 206.18 72.53Z" fill="#B0BEC5"/>
<path d="M211.639 75C211.639 74.9143 211.656 74.8294 211.689 74.7504C211.723 74.6714 211.772 74.5999 211.833 74.5402C211.895 74.4805 211.968 74.4338 212.048 74.4029C212.128 74.3719 212.213 74.3573 212.299 74.36C212.468 74.36 212.631 74.4274 212.751 74.5475C212.871 74.6675 212.939 74.8303 212.939 75C212.939 75.1697 212.871 75.3325 212.751 75.4526C212.631 75.5726 212.468 75.64 212.299 75.64C212.213 75.6427 212.128 75.6281 212.048 75.5972C211.968 75.5662 211.895 75.5195 211.833 75.4598C211.772 75.4001 211.723 75.3286 211.689 75.2496C211.656 75.1707 211.639 75.0858 211.639 75ZM211.729 68.54H212.869L212.679 73.36H211.909L211.729 68.54Z" fill="#B0BEC5"/>
<path d="M301.719 21.89H300.539C299.804 21.89 299.209 22.4855 299.209 23.22V314.13C299.209 314.865 299.804 315.46 300.539 315.46H301.719C302.454 315.46 303.049 314.865 303.049 314.13V23.22C303.049 22.4855 302.454 21.89 301.719 21.89Z" fill="#B0BEC5"/>
<path d="M301.719 21.89H300.539C299.804 21.89 299.209 22.4855 299.209 23.22V171.91C299.209 172.645 299.804 173.24 300.539 173.24H301.719C302.454 173.24 303.049 172.645 303.049 171.91V23.22C303.049 22.4855 302.454 21.89 301.719 21.89Z" fill="#15CDF2"/>
<path d="M126.748 109.52V116.52H125.748V110.4H124.158V109.52H126.748Z" fill="#90A4AE"/>
<path d="M128.27 115.93C128.272 115.796 128.313 115.665 128.389 115.555C128.465 115.444 128.572 115.359 128.696 115.309C128.821 115.259 128.957 115.247 129.089 115.274C129.22 115.302 129.34 115.367 129.434 115.463C129.528 115.558 129.592 115.679 129.617 115.811C129.643 115.943 129.629 116.079 129.577 116.202C129.525 116.326 129.438 116.432 129.327 116.506C129.215 116.58 129.084 116.62 128.95 116.62C128.859 116.621 128.769 116.604 128.686 116.57C128.602 116.536 128.526 116.485 128.462 116.42C128.399 116.356 128.349 116.279 128.316 116.195C128.283 116.111 128.267 116.02 128.27 115.93Z" fill="#90A4AE"/>
<path d="M135.25 110.4H132.83V109.52H138.66V110.4H136.24V116.56H135.24L135.25 110.4Z" fill="#90A4AE"/>
<path d="M143.86 114.22H139.53C139.592 114.677 139.827 115.093 140.185 115.383C140.544 115.673 141 115.815 141.46 115.78C141.748 115.789 142.035 115.736 142.301 115.624C142.567 115.511 142.805 115.343 143 115.13L143.53 115.76C143.138 116.172 142.635 116.46 142.081 116.589C141.527 116.717 140.948 116.68 140.415 116.481C139.883 116.283 139.42 115.933 139.085 115.474C138.749 115.015 138.556 114.468 138.53 113.9C138.515 113.543 138.573 113.187 138.701 112.853C138.829 112.52 139.024 112.216 139.275 111.961C139.525 111.706 139.825 111.505 140.156 111.371C140.487 111.236 140.842 111.171 141.2 111.18C141.558 111.171 141.915 111.237 142.247 111.373C142.578 111.51 142.878 111.714 143.127 111.972C143.375 112.231 143.567 112.539 143.689 112.876C143.812 113.213 143.863 113.572 143.84 113.93C143.88 114 143.87 114.13 143.86 114.22ZM139.53 113.52H143C142.954 113.098 142.754 112.708 142.439 112.425C142.123 112.142 141.714 111.985 141.29 111.985C140.866 111.985 140.456 112.142 140.141 112.425C139.825 112.708 139.625 113.098 139.58 113.52H139.53Z" fill="#90A4AE"/>
<path d="M148.08 111.18V112.12H147.86C147.625 112.105 147.389 112.142 147.17 112.228C146.951 112.315 146.754 112.449 146.593 112.622C146.432 112.794 146.312 113 146.24 113.224C146.169 113.449 146.148 113.686 146.18 113.92V116.57H145.18V111.24H146.1V112.14C146.3 111.804 146.594 111.534 146.946 111.363C147.298 111.193 147.692 111.129 148.08 111.18Z" fill="#90A4AE"/>
<path d="M158.12 113.49V116.56H157.12V113.56C157.12 112.56 156.62 112.01 155.74 112.01C154.86 112.01 154.15 112.62 154.15 113.78V116.52H153.15V113.52C153.15 112.52 152.65 111.97 151.77 111.97C151.542 111.96 151.315 112.001 151.105 112.089C150.895 112.177 150.707 112.31 150.554 112.479C150.401 112.648 150.288 112.849 150.221 113.067C150.155 113.285 150.137 113.515 150.17 113.74V116.48H149.17V111.15H150.09V111.95C150.304 111.669 150.583 111.444 150.904 111.296C151.225 111.148 151.577 111.08 151.93 111.1C152.301 111.078 152.67 111.161 152.997 111.337C153.324 111.514 153.595 111.778 153.78 112.1C154.013 111.776 154.324 111.514 154.684 111.34C155.043 111.165 155.441 111.083 155.84 111.1C156.161 111.047 156.49 111.074 156.799 111.177C157.107 111.28 157.386 111.458 157.611 111.693C157.836 111.929 157.999 112.215 158.088 112.528C158.177 112.842 158.188 113.172 158.12 113.49Z" fill="#90A4AE"/>
<path d="M129.51 224.92V225.79H124.51V225.11L127.37 222.34C128.12 221.62 128.26 221.18 128.26 220.73C128.26 220.01 127.74 219.57 126.76 219.57C126.421 219.55 126.083 219.608 125.771 219.74C125.459 219.872 125.181 220.074 124.96 220.33L124.27 219.74C124.593 219.381 124.992 219.099 125.439 218.914C125.885 218.729 126.367 218.645 126.85 218.67C128.32 218.67 129.26 219.43 129.26 220.67C129.248 221.102 129.139 221.525 128.94 221.908C128.741 222.291 128.457 222.623 128.11 222.88L125.95 224.96L129.51 224.92Z" fill="#90A4AE"/>
<path d="M130.418 225.16C130.416 225.069 130.431 224.979 130.464 224.895C130.497 224.811 130.547 224.734 130.611 224.67C130.674 224.605 130.75 224.554 130.834 224.52C130.918 224.486 131.008 224.469 131.098 224.47C131.281 224.47 131.457 224.543 131.586 224.672C131.716 224.801 131.788 224.977 131.788 225.16C131.788 225.343 131.716 225.519 131.586 225.648C131.457 225.777 131.281 225.85 131.098 225.85C131.008 225.85 130.919 225.832 130.836 225.797C130.753 225.762 130.677 225.712 130.614 225.647C130.551 225.583 130.501 225.507 130.467 225.423C130.434 225.34 130.417 225.25 130.418 225.16Z" fill="#90A4AE"/>
<path d="M136 218.75H137V224.92H140.81V225.79H136V218.75Z" fill="#90A4AE"/>
<path d="M141.67 218.81C141.67 218.726 141.687 218.642 141.72 218.564C141.753 218.486 141.801 218.416 141.861 218.357C141.922 218.299 141.994 218.253 142.073 218.222C142.151 218.192 142.236 218.177 142.32 218.18C142.444 218.184 142.563 218.224 142.664 218.296C142.765 218.367 142.843 218.467 142.888 218.582C142.932 218.698 142.942 218.824 142.915 218.945C142.889 219.066 142.827 219.176 142.738 219.262C142.65 219.348 142.537 219.406 142.416 219.429C142.294 219.452 142.168 219.438 142.054 219.39C141.94 219.342 141.843 219.261 141.775 219.158C141.706 219.055 141.67 218.934 141.67 218.81ZM141.84 220.46H142.84V225.79H141.84V220.46Z" fill="#90A4AE"/>
<path d="M144.149 223.13C144.142 222.763 144.21 222.399 144.35 222.059C144.49 221.72 144.698 221.413 144.961 221.158C145.225 220.903 145.539 220.704 145.882 220.576C146.226 220.447 146.593 220.391 146.959 220.41C147.392 220.383 147.823 220.476 148.208 220.676C148.592 220.877 148.914 221.179 149.139 221.55L148.399 222.02C148.245 221.78 148.032 221.583 147.779 221.45C147.527 221.317 147.244 221.251 146.959 221.26C146.485 221.295 146.042 221.507 145.719 221.855C145.396 222.203 145.216 222.66 145.216 223.135C145.216 223.61 145.396 224.067 145.719 224.415C146.042 224.763 146.485 224.975 146.959 225.01C147.245 225.017 147.528 224.949 147.78 224.814C148.033 224.679 148.246 224.482 148.399 224.24L149.139 224.7C148.914 225.072 148.593 225.375 148.209 225.578C147.825 225.78 147.393 225.874 146.959 225.85C146.593 225.869 146.226 225.813 145.882 225.684C145.539 225.556 145.225 225.357 144.961 225.102C144.698 224.847 144.49 224.54 144.35 224.201C144.21 223.861 144.142 223.497 144.149 223.13Z" fill="#90A4AE"/>
<path d="M155.099 223.45H150.779C150.842 223.907 151.076 224.323 151.435 224.613C151.794 224.903 152.249 225.045 152.709 225.01C152.998 225.019 153.285 224.966 153.55 224.854C153.816 224.741 154.055 224.573 154.249 224.36L154.779 224.99C154.386 225.398 153.882 225.682 153.33 225.807C152.778 225.933 152.201 225.895 151.67 225.697C151.139 225.5 150.678 225.152 150.342 224.696C150.006 224.24 149.81 223.696 149.779 223.13C149.766 222.773 149.825 222.416 149.954 222.082C150.084 221.749 150.28 221.445 150.531 221.19C150.782 220.936 151.083 220.735 151.414 220.601C151.746 220.466 152.102 220.402 152.459 220.41C152.817 220.401 153.174 220.466 153.505 220.603C153.836 220.74 154.135 220.944 154.383 221.203C154.631 221.462 154.821 221.77 154.943 222.107C155.065 222.444 155.114 222.803 155.089 223.16C155.119 223.24 155.109 223.36 155.099 223.45ZM150.779 222.75H154.199C154.154 222.328 153.954 221.938 153.638 221.655C153.323 221.372 152.913 221.215 152.489 221.215C152.065 221.215 151.656 221.372 151.34 221.655C151.025 221.938 150.825 222.328 150.779 222.75Z" fill="#90A4AE"/>
<path d="M161.518 222.72V225.79H160.518V222.79C160.518 221.79 159.998 221.24 159.088 221.24C158.855 221.222 158.62 221.256 158.402 221.34C158.183 221.423 157.985 221.555 157.824 221.724C157.662 221.894 157.54 222.097 157.466 222.319C157.393 222.542 157.37 222.778 157.398 223.01V225.75H156.398V220.42H157.328V221.22C157.557 220.935 157.851 220.709 158.185 220.561C158.519 220.413 158.884 220.347 159.248 220.37C159.562 220.334 159.88 220.371 160.177 220.478C160.474 220.585 160.743 220.759 160.963 220.986C161.182 221.213 161.346 221.487 161.443 221.788C161.539 222.089 161.565 222.408 161.518 222.72Z" fill="#90A4AE"/>
<path d="M162.848 223.13C162.84 222.763 162.907 222.397 163.046 222.057C163.185 221.717 163.394 221.41 163.658 221.154C163.922 220.899 164.236 220.701 164.58 220.573C164.924 220.445 165.292 220.389 165.658 220.41C166.091 220.383 166.523 220.476 166.907 220.676C167.291 220.877 167.613 221.179 167.838 221.55L167.098 222.02C166.943 221.779 166.728 221.582 166.474 221.449C166.22 221.316 165.935 221.251 165.648 221.26C165.175 221.295 164.732 221.507 164.408 221.855C164.085 222.203 163.905 222.66 163.905 223.135C163.905 223.61 164.085 224.067 164.408 224.415C164.732 224.763 165.175 224.975 165.648 225.01C165.936 225.017 166.221 224.95 166.475 224.815C166.729 224.681 166.944 224.482 167.098 224.24L167.838 224.7C167.614 225.072 167.292 225.375 166.908 225.578C166.524 225.78 166.092 225.874 165.658 225.85C165.292 225.869 164.925 225.813 164.582 225.684C164.238 225.556 163.925 225.357 163.661 225.102C163.397 224.847 163.189 224.54 163.049 224.201C162.909 223.861 162.841 223.497 162.848 223.13Z" fill="#90A4AE"/>
<path d="M173.799 223.45H169.478C169.541 223.907 169.775 224.323 170.134 224.613C170.493 224.903 170.949 225.045 171.409 225.01C171.697 225.019 171.984 224.966 172.25 224.854C172.515 224.741 172.754 224.573 172.949 224.36L173.478 224.99C173.085 225.398 172.582 225.682 172.029 225.807C171.477 225.933 170.9 225.895 170.369 225.697C169.839 225.5 169.377 225.152 169.041 224.696C168.705 224.24 168.51 223.696 168.478 223.13C168.465 222.773 168.524 222.416 168.654 222.082C168.783 221.749 168.979 221.445 169.23 221.19C169.481 220.936 169.782 220.735 170.114 220.601C170.445 220.466 170.801 220.402 171.159 220.41C171.517 220.401 171.873 220.466 172.204 220.603C172.535 220.74 172.835 220.944 173.082 221.203C173.33 221.462 173.521 221.77 173.642 222.107C173.764 222.444 173.814 222.803 173.788 223.16C173.818 223.24 173.809 223.36 173.799 223.45ZM169.478 222.75H172.898C172.853 222.328 172.653 221.938 172.337 221.655C172.022 221.372 171.613 221.215 171.189 221.215C170.764 221.215 170.355 221.372 170.04 221.655C169.724 221.938 169.524 222.328 169.478 222.75Z" fill="#90A4AE"/>
<path d="M278.23 132.39C278.23 132.54 243.72 132.65 201.16 132.65C158.6 132.65 124.08 132.54 124.08 132.39C124.08 132.24 158.59 132.13 201.16 132.13C243.73 132.13 278.23 132.25 278.23 132.39Z" fill="#90A4AE"/>
<path d="M278.23 144.06C278.23 144.2 243.72 144.32 201.16 144.32C158.6 144.32 124.08 144.2 124.08 144.06C124.08 143.92 158.59 143.8 201.16 143.8C243.73 143.8 278.23 143.91 278.23 144.06Z" fill="#90A4AE"/>
<path d="M278.23 155.72C278.23 155.87 243.72 155.98 201.16 155.98C158.6 155.98 124.08 155.87 124.08 155.72C124.08 155.57 158.59 155.46 201.16 155.46C243.73 155.46 278.23 155.58 278.23 155.72Z" fill="#90A4AE"/>
<path d="M278.23 167.39C278.23 167.53 243.72 167.65 201.16 167.65C158.6 167.65 124.08 167.53 124.08 167.39C124.08 167.25 158.59 167.13 201.16 167.13C243.73 167.13 278.23 167.24 278.23 167.39Z" fill="#90A4AE"/>
<path d="M278.23 179.05C278.23 179.2 243.72 179.31 201.16 179.31C158.6 179.31 124.08 179.2 124.08 179.05C124.08 178.9 158.59 178.79 201.16 178.79C243.73 178.79 278.23 178.91 278.23 179.05Z" fill="#90A4AE"/>
<path d="M278.23 190.72C278.23 190.86 243.72 190.98 201.16 190.98C158.6 190.98 124.08 190.86 124.08 190.72C124.08 190.58 158.59 190.46 201.16 190.46C243.73 190.46 278.23 190.57 278.23 190.72Z" fill="#90A4AE"/>
<path d="M278.23 235C278.23 235.14 243.72 235.26 201.16 235.26C158.6 235.26 124.08 235.14 124.08 235C124.08 234.86 158.59 234.74 201.16 234.74C243.73 234.74 278.23 234.88 278.23 235Z" fill="#90A4AE"/>
<path d="M278.23 245C278.23 245.15 243.72 245.26 201.16 245.26C158.6 245.26 124.08 245.15 124.08 245C124.08 244.85 158.59 244.74 201.16 244.74C243.73 244.74 278.23 244.86 278.23 245Z" fill="#B0BEC5"/>
<path d="M278.23 255C278.23 255.14 243.72 255.26 201.16 255.26C158.6 255.26 124.08 255.14 124.08 255C124.08 254.86 158.59 254.74 201.16 254.74C243.73 254.74 278.23 254.84 278.23 255Z" fill="#90A4AE"/>
<path d="M289.479 284.83H207.939V315.21H289.479V284.83Z" fill="#15CDF2"/>
<path d="M235.098 301.59H231.098L230.268 303.48H229.158L232.578 295.93H233.638L237.068 303.48H235.938L235.098 301.59ZM234.718 300.73L233.088 297.03L231.468 300.73H234.718Z" fill="#E0E0E0"/>
<path d="M237.45 300.62C237.442 300.228 237.516 299.839 237.665 299.477C237.814 299.114 238.037 298.787 238.318 298.514C238.599 298.241 238.934 298.029 239.3 297.89C239.667 297.752 240.058 297.691 240.45 297.71C240.912 297.682 241.374 297.781 241.784 297.996C242.195 298.211 242.539 298.534 242.78 298.93L241.99 299.43C241.824 299.171 241.594 298.96 241.323 298.816C241.051 298.672 240.747 298.601 240.44 298.61C239.909 298.61 239.401 298.821 239.025 299.196C238.65 299.571 238.44 300.08 238.44 300.61C238.44 301.14 238.65 301.649 239.025 302.024C239.401 302.399 239.909 302.61 240.44 302.61C240.747 302.619 241.051 302.548 241.323 302.404C241.594 302.26 241.824 302.049 241.99 301.79L242.78 302.28C242.539 302.677 242.195 303.001 241.785 303.218C241.375 303.434 240.913 303.535 240.45 303.51C240.06 303.529 239.67 303.468 239.305 303.331C238.94 303.194 238.606 302.984 238.325 302.713C238.044 302.442 237.822 302.117 237.671 301.757C237.52 301.397 237.445 301.01 237.45 300.62Z" fill="#E0E0E0"/>
<path d="M243.52 300.62C243.513 300.228 243.586 299.839 243.735 299.477C243.885 299.114 244.107 298.787 244.388 298.514C244.67 298.241 245.004 298.029 245.371 297.89C245.737 297.752 246.129 297.691 246.52 297.71C246.983 297.681 247.445 297.78 247.855 297.995C248.266 298.21 248.61 298.533 248.85 298.93L248.06 299.43C247.894 299.171 247.665 298.96 247.393 298.816C247.121 298.672 246.817 298.601 246.51 298.61C245.98 298.61 245.471 298.821 245.096 299.196C244.721 299.571 244.51 300.08 244.51 300.61C244.51 301.14 244.721 301.649 245.096 302.024C245.471 302.399 245.98 302.61 246.51 302.61C246.817 302.619 247.121 302.548 247.393 302.404C247.665 302.26 247.894 302.049 248.06 301.79L248.85 302.28C248.61 302.678 248.267 303.002 247.856 303.219C247.446 303.436 246.984 303.537 246.52 303.51C246.13 303.529 245.741 303.468 245.375 303.331C245.01 303.194 244.677 302.984 244.396 302.713C244.115 302.442 243.892 302.117 243.741 301.757C243.591 301.397 243.515 301.01 243.52 300.62Z" fill="#E0E0E0"/>
<path d="M255.27 301H250.63C250.697 301.49 250.949 301.935 251.334 302.246C251.719 302.556 252.207 302.708 252.7 302.67C253.009 302.681 253.316 302.625 253.601 302.506C253.885 302.387 254.141 302.207 254.35 301.98L254.92 302.65C254.633 302.959 254.282 303.201 253.892 303.36C253.502 303.519 253.081 303.591 252.66 303.57C252.262 303.599 251.862 303.545 251.487 303.411C251.111 303.277 250.767 303.065 250.478 302.79C250.189 302.515 249.961 302.183 249.808 301.814C249.655 301.445 249.581 301.049 249.59 300.65C249.575 300.267 249.638 299.885 249.777 299.528C249.915 299.171 250.125 298.846 250.394 298.573C250.663 298.3 250.985 298.085 251.341 297.942C251.696 297.799 252.077 297.73 252.46 297.74C252.844 297.728 253.227 297.797 253.583 297.941C253.939 298.086 254.261 298.304 254.528 298.582C254.795 298.859 255 299.188 255.132 299.55C255.263 299.911 255.317 300.296 255.29 300.68C255.29 300.74 255.28 300.87 255.27 301ZM250.63 300.25H254.29C254.243 299.798 254.03 299.379 253.692 299.074C253.354 298.77 252.915 298.602 252.46 298.602C252.005 298.602 251.567 298.77 251.229 299.074C250.891 299.379 250.677 299.798 250.63 300.25Z" fill="#E0E0E0"/>
<path d="M262.64 300.62C262.661 301.007 262.601 301.393 262.464 301.755C262.327 302.117 262.115 302.446 261.843 302.721C261.571 302.996 261.244 303.211 260.883 303.352C260.523 303.493 260.137 303.557 259.75 303.54C259.368 303.553 258.989 303.476 258.641 303.316C258.294 303.157 257.989 302.918 257.75 302.62V305.57H256.75V297.76H257.75V298.67C257.978 298.355 258.279 298.099 258.628 297.925C258.976 297.751 259.361 297.664 259.75 297.67C260.139 297.652 260.528 297.717 260.891 297.86C261.253 298.003 261.582 298.22 261.855 298.499C262.128 298.777 262.338 299.11 262.474 299.476C262.609 299.841 262.666 300.231 262.64 300.62ZM261.59 300.62C261.576 300.242 261.452 299.876 261.231 299.567C261.011 299.259 260.705 299.023 260.351 298.888C259.998 298.752 259.612 298.724 259.242 298.806C258.873 298.888 258.535 299.077 258.272 299.35C258.01 299.622 257.833 299.966 257.764 300.338C257.695 300.711 257.737 301.095 257.885 301.444C258.032 301.792 258.28 302.09 258.595 302.299C258.911 302.508 259.281 302.62 259.66 302.62C259.921 302.626 260.181 302.578 260.422 302.478C260.664 302.379 260.882 302.231 261.063 302.043C261.245 301.855 261.385 301.632 261.476 301.387C261.566 301.142 261.605 300.881 261.59 300.62Z" fill="#E0E0E0"/>
<path d="M267.289 303.14C266.926 303.412 266.482 303.553 266.029 303.54C265.786 303.568 265.54 303.542 265.309 303.462C265.078 303.382 264.867 303.252 264.694 303.08C264.52 302.908 264.387 302.699 264.305 302.469C264.222 302.239 264.193 301.993 264.219 301.75V298.61H263.219V297.76H264.219V296.51H265.219V297.76H266.859V298.61H265.219V301.71C265.194 301.837 265.198 301.969 265.232 302.094C265.267 302.219 265.329 302.334 265.415 302.431C265.502 302.528 265.609 302.603 265.729 302.652C265.85 302.7 265.979 302.72 266.109 302.71C266.402 302.715 266.687 302.619 266.919 302.44L267.289 303.14Z" fill="#E0E0E0"/>
<path d="M120.269 315.45C120.269 315.45 120.199 315.45 120.069 315.32L119.489 314.87L117.059 313L116.969 312.93L117.079 312.88C126.919 309.11 159.009 297.07 198.559 282.33L198.699 282.28L198.809 282.37L201.969 284.91L202.069 284.99V315.75H201.809L143.509 315.65L126.419 315.58H121.839H120.659C120.529 315.587 120.399 315.587 120.269 315.58H120.679H121.869H126.479L143.589 315.51L201.809 315.41L201.559 315.66C201.559 308.61 201.559 301.23 201.559 293.66V285.28L201.659 285.48L198.499 282.93H198.749C159.189 297.65 127.049 309.55 117.139 313.13V313.02L119.499 314.97L120.079 315.45H120.269Z" fill="#15CDF2"/>
<path d="M198.64 282.53H117.1V312.91H198.64V282.53Z" fill="#E0E0E0"/>
<path d="M198.649 312.91C198.649 312.91 198.649 312.72 198.649 312.36C198.649 312 198.649 311.47 198.649 310.79C198.649 309.4 198.649 307.37 198.649 304.79C198.649 299.56 198.589 291.99 198.549 282.56L198.729 282.74L117.189 282.82L117.449 282.56C117.449 293.16 117.449 303.42 117.449 312.94L117.199 312.69L175.569 312.81L192.569 312.88H197.139H198.329H198.739H198.359H197.199H192.689L175.739 312.95L117.189 313.07H116.939V312.82C116.939 303.3 116.939 293.04 116.939 282.44V282.18H117.209L198.749 282.26H198.929V282.44C198.929 291.91 198.849 299.52 198.829 304.78C198.829 307.37 198.829 309.38 198.829 310.78C198.829 311.44 198.829 311.95 198.829 312.32C198.829 312.69 198.649 312.91 198.649 312.91Z" fill="#15CDF2"/>
<path d="M139.449 295.57H142.629C143.149 295.532 143.67 295.602 144.162 295.775C144.653 295.948 145.104 296.22 145.485 296.574C145.867 296.929 146.171 297.359 146.379 297.836C146.587 298.314 146.694 298.829 146.694 299.35C146.694 299.871 146.587 300.386 146.379 300.864C146.171 301.341 145.867 301.771 145.485 302.126C145.104 302.48 144.653 302.752 144.162 302.925C143.67 303.098 143.149 303.168 142.629 303.13H139.449V295.57ZM142.569 302.19C142.962 302.223 143.358 302.174 143.731 302.046C144.104 301.919 144.447 301.715 144.737 301.448C145.027 301.181 145.259 300.857 145.417 300.496C145.576 300.134 145.658 299.744 145.658 299.35C145.658 298.956 145.576 298.566 145.417 298.204C145.259 297.843 145.027 297.519 144.737 297.252C144.447 296.985 144.104 296.781 143.731 296.654C143.358 296.526 142.962 296.477 142.569 296.51H140.569V302.19H142.569Z" fill="#15CDF2"/>
<path d="M153.348 300.61H148.708C148.776 301.102 149.029 301.549 149.416 301.859C149.803 302.17 150.294 302.32 150.788 302.28C151.097 302.293 151.405 302.238 151.69 302.118C151.975 301.999 152.231 301.819 152.438 301.59L153.008 302.26C152.585 302.687 152.047 302.983 151.459 303.112C150.872 303.24 150.259 303.196 149.696 302.985C149.133 302.774 148.643 302.404 148.285 301.92C147.927 301.437 147.716 300.86 147.678 300.26C147.662 299.876 147.724 299.493 147.862 299.135C148 298.776 148.21 298.45 148.479 298.176C148.748 297.902 149.071 297.687 149.427 297.543C149.783 297.399 150.165 297.33 150.548 297.34C150.933 297.329 151.316 297.399 151.672 297.545C152.028 297.691 152.35 297.91 152.617 298.188C152.883 298.466 153.089 298.797 153.22 299.159C153.351 299.521 153.405 299.906 153.378 300.29C153.378 300.39 153.358 300.51 153.348 300.61ZM148.708 299.87H152.378C152.321 299.424 152.103 299.014 151.766 298.716C151.428 298.419 150.993 298.255 150.543 298.255C150.093 298.255 149.659 298.419 149.321 298.716C148.983 299.014 148.766 299.424 148.708 299.87Z" fill="#15CDF2"/>
<path d="M154.28 300.27C154.271 299.877 154.344 299.487 154.492 299.124C154.641 298.76 154.863 298.431 155.144 298.157C155.426 297.883 155.761 297.67 156.128 297.531C156.496 297.392 156.888 297.331 157.28 297.35C157.743 297.322 158.204 297.421 158.614 297.636C159.025 297.851 159.369 298.174 159.61 298.57L158.82 299.08C158.654 298.822 158.424 298.611 158.152 298.467C157.881 298.324 157.577 298.252 157.27 298.26C156.74 298.26 156.231 298.471 155.856 298.846C155.481 299.221 155.27 299.73 155.27 300.26C155.27 300.79 155.481 301.299 155.856 301.674C156.231 302.049 156.74 302.26 157.27 302.26C157.577 302.268 157.881 302.196 158.152 302.053C158.424 301.909 158.654 301.698 158.82 301.44L159.61 301.94C159.37 302.337 159.026 302.661 158.615 302.878C158.205 303.094 157.743 303.195 157.28 303.17C156.889 303.189 156.499 303.128 156.133 302.99C155.767 302.853 155.433 302.642 155.152 302.37C154.871 302.098 154.648 301.771 154.498 301.41C154.348 301.049 154.274 300.661 154.28 300.27Z" fill="#15CDF2"/>
<path d="M160.889 295.12H161.889V303.12H160.889V295.12Z" fill="#15CDF2"/>
<path d="M163.709 295.64C163.71 295.549 163.729 295.46 163.765 295.377C163.801 295.294 163.853 295.218 163.918 295.155C163.983 295.092 164.06 295.042 164.144 295.009C164.228 294.975 164.318 294.959 164.409 294.96C164.543 294.964 164.672 295.007 164.781 295.084C164.89 295.161 164.974 295.269 165.023 295.393C165.071 295.518 165.082 295.654 165.053 295.784C165.025 295.915 164.959 296.034 164.863 296.127C164.767 296.221 164.646 296.283 164.514 296.308C164.383 296.333 164.247 296.318 164.124 296.266C164.001 296.214 163.896 296.127 163.822 296.016C163.748 295.904 163.709 295.774 163.709 295.64ZM163.899 297.41H164.899V303.13H163.899V297.41Z" fill="#15CDF2"/>
<path d="M172.329 299.84V303.13H171.329V300C171.329 298.88 170.759 298.33 169.779 298.33C169.529 298.312 169.278 298.349 169.044 298.44C168.81 298.53 168.599 298.671 168.426 298.853C168.253 299.035 168.122 299.252 168.043 299.49C167.964 299.728 167.939 299.981 167.969 300.23V303.18H166.969V297.46H167.969V298.32C168.213 298.013 168.528 297.769 168.887 297.609C169.245 297.449 169.637 297.377 170.029 297.4C170.346 297.387 170.663 297.442 170.958 297.562C171.252 297.682 171.517 297.864 171.735 298.095C171.953 298.327 172.119 298.602 172.222 298.903C172.324 299.204 172.361 299.524 172.329 299.84Z" fill="#15CDF2"/>
<path d="M179.429 300.61H174.789C174.856 301.1 175.108 301.545 175.492 301.856C175.877 302.166 176.366 302.318 176.859 302.28C177.167 302.293 177.475 302.238 177.76 302.118C178.046 301.999 178.301 301.819 178.509 301.59L179.079 302.26C178.655 302.687 178.117 302.983 177.53 303.112C176.942 303.24 176.33 303.196 175.766 302.985C175.203 302.774 174.713 302.404 174.355 301.92C173.997 301.437 173.787 300.86 173.749 300.26C173.732 299.876 173.795 299.493 173.932 299.135C174.07 298.776 174.28 298.45 174.549 298.176C174.818 297.902 175.141 297.687 175.497 297.543C175.853 297.399 176.235 297.33 176.619 297.34C177.004 297.329 177.386 297.399 177.743 297.545C178.099 297.691 178.421 297.91 178.687 298.188C178.954 298.466 179.159 298.797 179.29 299.159C179.421 299.521 179.475 299.906 179.449 300.29C179.449 300.39 179.439 300.51 179.429 300.61ZM174.789 299.87H178.449C178.401 299.418 178.188 298.999 177.85 298.694C177.512 298.39 177.074 298.222 176.619 298.222C176.164 298.222 175.725 298.39 175.387 298.694C175.049 298.999 174.836 299.418 174.789 299.87Z" fill="#15CDF2"/>
<path d="M201.809 315.45C201.709 315.56 200.919 314.96 200.049 314.12C199.179 313.28 198.549 312.52 198.649 312.41C198.749 312.3 199.539 312.91 200.409 313.75C201.279 314.59 201.909 315.35 201.809 315.45Z" fill="#15CDF2"/>
<path d="M318.299 307.86L329.939 302.26L323.539 283.34L309.479 280.09C308.169 279.79 306.709 279.44 305.089 278.99C303.184 278.459 301.382 277.61 299.759 276.48C297.691 275.166 295.814 273.575 294.179 271.75C292.849 269.94 290.029 270.62 290.029 272.63C290.029 274.64 293.579 279.71 299.889 283.3C306.199 286.89 295.039 288.62 290.999 289.3C286.959 289.98 274.539 292.77 273.799 294.18C272.719 296.24 274.799 297.82 278.799 297.03C282.799 296.24 295.089 294.68 295.409 296.82V296.88C294.422 298.423 293.943 300.236 294.038 302.065C294.133 303.894 294.798 305.647 295.939 307.08C298.199 309.91 301.589 313.46 304.079 312.92C308.759 311.93 318.299 307.86 318.299 307.86Z" fill="#FFBE9D"/>
<path d="M317.59 274.57L328.5 311.46L413.21 285.72C417.534 284.399 421.551 282.229 425.026 279.336C428.501 276.444 431.365 272.887 433.449 268.875C435.533 264.862 436.796 260.475 437.163 255.968C437.531 251.462 436.996 246.927 435.59 242.63L414.82 178L369.71 189.2L394.47 249L317.59 274.57Z" fill="#15CDF2"/>
<path d="M415.119 285.07L414.709 285.22L413.489 285.61L408.749 287.08L390.999 292.52L329.339 311.23L329.109 311.29L329.029 311.07C325.259 299.79 321.599 287.39 317.369 274.65L317.289 274.41L317.539 274.32L319.669 273.62L394.429 248.79L394.309 249.06C388.309 234.56 383.449 222.68 380.049 214.4C378.369 210.28 377.049 207.06 376.149 204.85C375.719 203.76 375.379 202.92 375.149 202.34C374.919 201.76 374.829 201.48 374.829 201.48C374.829 201.48 374.969 201.76 375.209 202.32L376.269 204.8C377.189 207 378.539 210.21 380.269 214.31C383.709 222.57 388.649 234.43 394.689 248.91L394.769 249.11L394.559 249.18L319.799 274.11L317.669 274.82L317.829 274.49C322.069 287.24 325.709 299.64 329.469 310.91L329.169 310.75L390.879 292.23L408.699 286.92L413.459 285.53L414.699 285.18L415.119 285.07Z" fill="#90A4AE"/>
<path d="M410.129 259.75C410.049 259.75 409.489 258.82 408.359 257.41C405.392 253.725 401.358 251.05 396.809 249.75C395.069 249.25 393.949 249.11 393.959 249.02C394.224 248.972 394.495 248.972 394.759 249.02C395.48 249.087 396.196 249.208 396.899 249.38C399.235 249.946 401.455 250.914 403.459 252.24C405.465 253.566 407.222 255.235 408.649 257.17C409.082 257.753 409.469 258.368 409.809 259.01C409.96 259.235 410.068 259.486 410.129 259.75Z" fill="#90A4AE"/>
<path d="M389.599 192.34C389.336 190.529 389.249 188.697 389.339 186.87C389.249 185.043 389.336 183.211 389.599 181.4C389.946 185.038 389.946 188.702 389.599 192.34Z" fill="#424242"/>
<path d="M406.61 193.21C405.831 191.526 405.215 189.771 404.77 187.97C404.154 186.22 403.706 184.415 403.43 182.58C404.821 186.016 405.885 189.575 406.61 193.21Z" fill="#424242"/>
<path d="M396.06 208.56C392.558 208.533 389.132 207.529 386.17 205.66C386.24 205.52 388.33 206.51 391.06 207.3C393.79 208.09 396.07 208.41 396.06 208.56Z" fill="#424242"/>
<path d="M415.299 217C415.338 215.243 415.553 213.494 415.939 211.78C416.153 210.033 416.538 208.311 417.089 206.64C417.044 208.4 416.829 210.151 416.449 211.87C416.237 213.614 415.852 215.333 415.299 217Z" fill="#424242"/>
<path d="M408.42 230.78C406.606 227.661 405.102 224.372 403.93 220.96C405.738 224.082 407.241 227.37 408.42 230.78Z" fill="#424242"/>
<path d="M405.6 242.84C403.953 242.336 402.361 241.666 400.85 240.84C399.265 240.171 397.754 239.34 396.34 238.36C397.98 238.875 399.567 239.545 401.08 240.36C402.667 241.031 404.182 241.862 405.6 242.84Z" fill="#424242"/>
<path d="M427.24 239.63C426.701 241.199 426.063 242.732 425.33 244.22C424.759 245.774 424.091 247.29 423.33 248.76C424.042 245.496 425.369 242.398 427.24 239.63Z" fill="#424242"/>
<path d="M421.219 268.68C420.497 264.98 420.125 261.22 420.109 257.45C420.544 259.286 420.815 261.156 420.919 263.04C421.191 264.907 421.291 266.795 421.219 268.68Z" fill="#424242"/>
<path d="M405.938 277.85C404.495 276.89 403.155 275.784 401.938 274.55C400.612 273.447 399.399 272.214 398.318 270.87C399.761 271.83 401.102 272.936 402.318 274.17C403.645 275.273 404.857 276.506 405.938 277.85Z" fill="#424242"/>
<path d="M379.54 280.48C377.649 283.655 375.459 286.642 373 289.4C373.868 287.768 374.893 286.224 376.06 284.79C377.082 283.248 378.248 281.805 379.54 280.48Z" fill="#424242"/>
<path d="M387.909 268.11C386.391 267.129 385.026 265.93 383.859 264.55C382.567 263.289 381.475 261.839 380.619 260.25C380.739 260.16 382.229 262.04 384.239 264.2C386.249 266.36 387.999 268 387.909 268.11Z" fill="#424242"/>
<path d="M367.999 270.92C366.732 271.43 365.352 271.599 363.999 271.41C362.637 271.393 361.301 271.028 360.119 270.35C360.179 270.2 361.869 270.74 364.029 270.89C366.189 271.04 367.999 270.77 367.999 270.92Z" fill="#424242"/>
<path d="M355.389 292.8C354.89 291.41 354.554 289.967 354.389 288.5C354.051 287.061 353.887 285.588 353.899 284.11C354.734 286.938 355.234 289.855 355.389 292.8Z" fill="#424242"/>
<path d="M340.509 300.34C337.059 298.577 333.776 296.505 330.699 294.15C332.465 294.958 334.155 295.922 335.749 297.03C337.43 297.992 339.023 299.099 340.509 300.34Z" fill="#424242"/>
<path d="M345.82 273.72C345.93 273.82 344.48 275.54 342.87 277.78C341.26 280.02 340.06 281.93 339.93 281.86C340.533 280.275 341.38 278.794 342.44 277.47C343.361 276.049 344.502 274.783 345.82 273.72Z" fill="#424242"/>
<path d="M334.319 278.77C333.285 278.542 332.296 278.147 331.389 277.6C330.411 277.206 329.505 276.652 328.709 275.96C330.722 276.578 332.618 277.528 334.319 278.77Z" fill="#424242"/>
<g opacity="0.2">
<path d="M393.76 247.47C398.28 247.93 402.81 248.4 407.32 248.97C408.893 249.085 410.441 249.421 411.92 249.97C412.655 250.256 413.324 250.688 413.888 251.24C414.451 251.792 414.898 252.451 415.2 253.18C415.482 253.919 415.512 254.73 415.286 255.487C415.06 256.245 414.59 256.907 413.95 257.37C413.309 257.698 412.595 257.854 411.876 257.822C411.157 257.791 410.459 257.573 409.85 257.19C408.639 256.42 407.507 255.532 406.47 254.54C404.436 252.858 402.072 251.621 399.53 250.91C398.372 250.69 397.253 250.299 396.21 249.75C395.689 249.46 395.271 249.016 395.013 248.479C394.755 247.942 394.67 247.338 394.77 246.75" fill="#CFD8DC"/>
</g>
</svg>
