<svg width="437" height="351" viewBox="0 0 437 351" fill="none" xmlns="http://www.w3.org/2000/svg">
<path d="M42.9374 10.45C45.0398 9.97449 47.2166 9.92868 49.3371 10.3153C51.4576 10.702 53.4782 11.5131 55.2774 12.7C58.8716 15.0929 61.8658 18.2821 64.0274 22.02C68.4074 29.09 69.8874 38.55 70.0274 46.86C60.7974 46.4 53.0274 39.07 49.2474 35.11C43.3274 28.83 36.5274 13.9 42.9374 10.45Z" fill="#CFCFCF"/>
<path d="M84.8064 52.57C82.969 51.0091 81.5775 48.9898 80.773 46.7171C79.9686 44.4443 79.78 41.9992 80.2264 39.63C80.715 37.2732 81.6666 35.0369 83.0262 33.0508C84.3857 31.0646 86.1261 29.3683 88.1464 28.06C89.9964 26.83 92.2664 25.85 94.3964 26.5C95.3712 26.8641 96.2315 27.4812 96.8888 28.2879C97.5461 29.0946 97.9767 30.0618 98.1364 31.09C98.4156 33.159 98.1502 35.265 97.3664 37.2C94.9664 43.9 91.4264 49.95 84.8064 52.57Z" fill="#CFCFCF"/>
<path d="M90.1675 72.68C89.1361 71.159 88.2617 69.5374 87.5575 67.84C86.7164 66.0142 86.0987 64.0937 85.7175 62.12C85.1625 59.7421 84.7649 57.3302 84.5275 54.9C84.1375 50.4191 84.8516 45.9109 86.6075 41.77C87.156 40.5397 87.826 39.3672 88.6075 38.27C89.2075 37.52 89.6075 37.14 89.6075 37.18C89.6075 37.22 88.4075 38.92 87.1575 42.03C85.628 46.1131 85.0268 50.4856 85.3975 54.83C85.6181 57.2278 85.972 59.6115 86.4575 61.97C86.7933 63.8973 87.3295 65.7842 88.0575 67.6C89.4475 70.69 90.3075 72.62 90.1675 72.68Z" fill="#C2C2C2"/>
<path d="M49.1562 21.35C49.8615 21.9572 50.5108 22.6266 51.0963 23.35C52.2863 24.68 53.9963 26.63 56.0963 29.05C60.2663 33.9 65.9563 40.66 72.0963 48.27C78.2363 55.88 83.5262 62.95 87.2262 68.13C89.0962 70.73 90.5863 72.84 91.5863 74.32C92.1492 75.0628 92.6477 75.8523 93.0763 76.68C92.424 76.0179 91.8285 75.302 91.2963 74.54L86.6963 68.54C82.8163 63.46 77.4163 56.48 71.3163 48.87L55.5763 29.47L50.8163 23.59C50.2044 22.8886 49.6493 22.1395 49.1562 21.35Z" fill="#C2C2C2"/>
<path d="M78.5264 61.56C74.3307 58.6905 69.5118 56.8618 64.4687 56.2254C59.4256 55.5889 54.3035 56.163 49.5264 57.9C47.1064 58.8 44.5264 60.49 44.4064 63.07C44.2864 65.65 46.8664 67.49 49.2564 68.49C54.271 70.4706 59.7596 70.9226 65.0307 69.789C70.3018 68.6555 75.1193 65.987 78.8764 62.12" fill="#CFCFCF"/>
<path d="M55.9961 61.9C56.4311 61.6674 56.9003 61.5054 57.3861 61.42C58.2861 61.17 59.6161 60.88 61.2661 60.57C65.6061 59.7326 70.0627 59.6953 74.4161 60.46C76.8155 60.9559 79.1187 61.8373 81.2361 63.07C84.1031 64.786 86.5387 67.1362 88.3561 69.94C88.6599 70.3258 88.8996 70.758 89.0661 71.22C88.9161 71.33 87.7761 69.58 85.4161 67.22C82.3369 64.2102 78.4491 62.1604 74.2261 61.32C69.9745 60.5886 65.6336 60.538 61.3661 61.17C58.0661 61.6 56.0261 62 55.9961 61.9Z" fill="#C2C2C2"/>
<path d="M92.0567 264.57C121.877 250.09 133.507 216.26 137.417 184.81C138.077 179.56 139.527 174.15 137.767 169.17C136.007 164.19 130.717 160.17 125.687 161.6C121.527 162.8 119.117 167.05 116.357 170.43C112.664 174.942 107.773 178.322 102.247 180.18C98.6467 181.37 94.3667 181.77 91.3667 179.44C87.2567 176.24 87.7167 169.93 88.5767 164.74L93.3767 135.74C94.2367 130.55 95.0967 125.25 94.2667 120.06C93.4367 114.87 90.5967 109.73 85.8767 107.56C81.1567 105.39 74.5967 107.27 72.7467 112.18C71.9667 114.23 72.0567 116.49 71.5667 118.63C71.0767 120.77 69.6967 122.98 67.5667 123.26C65.4367 123.54 63.5667 121.74 62.2467 119.97C57.7267 113.87 55.1567 106.54 52.8267 99.28C50.4967 92.02 48.2967 84.62 44.3367 78.13C40.3767 71.64 34.3367 66.03 27.0067 64.42C19.6767 62.81 11.0067 66.15 7.94667 73.15C4.88667 80.15 7.94667 88.28 11.6867 94.95C17.184 104.837 24.082 113.877 32.1667 121.79C33.6167 123.22 35.1667 124.79 35.5067 126.79C36.0867 130.43 32.2567 133.35 28.6567 133.94C24.5867 134.61 20.4467 133.54 16.3167 133.38C12.1867 133.22 7.52667 134.3 5.38667 137.88C2.38667 142.88 5.96667 149.12 9.75667 153.46C17.3384 162.148 26.3604 169.465 36.4267 175.09C40.0167 177.09 43.8467 178.96 46.4967 182.14C49.1467 185.32 50.2667 190.28 47.8267 193.64C45.3867 197 40.4167 197.41 36.5367 196.03C32.6567 194.65 29.4167 191.9 25.8267 189.9C19.1267 186.07 9.82667 185.09 4.27667 190.53C0.626674 194.11 -0.533327 199.71 0.216673 204.79C0.966673 209.87 3.38667 214.51 6.04667 218.87C15.3467 234.11 28.2667 247.25 43.9167 255.62C59.5667 263.99 74.6467 268 92.0567 264.62" fill="#B8B8B8"/>
<path d="M87.8266 266.23C88.6666 253.66 89.2266 260.18 87.1066 243.67C84.9866 227.16 81.2166 209.24 76.6066 190.67L73.1366 176.9C71.9866 172.39 70.8566 167.9 69.4666 163.6C66.7964 155.329 63.6682 147.213 60.0966 139.29C56.7466 131.7 53.2866 124.62 49.9966 118.03C46.7066 111.44 43.5266 105.32 40.3666 99.9C35.4453 91.3172 29.8511 83.1383 23.6366 75.44C21.4466 72.72 19.6366 70.67 18.4566 69.29L17.0566 67.73C16.9082 67.5431 16.7406 67.3721 16.5566 67.22C16.6813 67.4265 16.8253 67.6207 16.9866 67.8C17.3166 68.2 17.7566 68.73 18.3066 69.42C19.4766 70.83 21.1966 72.93 23.3066 75.68C29.3878 83.4492 34.8798 91.6621 39.7366 100.25C42.8366 105.68 45.9766 111.77 49.2466 118.36C52.5166 124.95 55.9166 132.05 59.2466 139.63C62.7842 147.543 65.8823 155.645 68.5266 163.9C69.8966 168.19 71.0166 172.63 72.1666 177.16C73.3166 181.69 74.4566 186.27 75.6266 190.91C80.2366 209.5 84.0466 227.37 86.1866 243.83C88.3266 260.29 87.8566 253.7 87.1066 266.23" fill="#C2C2C2"/>
<path d="M69.207 163.49C69.5661 162.808 69.8543 162.091 70.067 161.35C70.567 159.96 71.227 157.93 71.997 155.4C73.557 150.34 75.467 143.29 77.547 135.51C79.627 127.73 81.637 120.71 83.267 115.7C84.067 113.19 84.747 111.16 85.267 109.77C85.5647 109.06 85.7827 108.318 85.917 107.56C85.5123 108.213 85.1771 108.907 84.917 109.63C84.327 110.99 83.547 112.98 82.657 115.48C80.857 120.48 78.737 127.48 76.657 135.25C74.577 143.02 72.787 149.89 71.377 155.25C70.737 157.64 70.187 159.66 69.747 161.25C69.4774 161.972 69.2961 162.724 69.207 163.49Z" fill="#C2C2C2"/>
<path d="M4.41602 140.38C5.2634 140.713 6.14074 140.964 7.03601 141.13C8.71601 141.55 11.166 142.13 14.166 142.99C20.166 144.63 28.396 147.17 37.346 150.38C46.296 153.59 54.266 156.87 59.966 159.38C62.826 160.63 65.116 161.7 66.696 162.38C67.496 162.815 68.3367 163.17 69.206 163.44C68.4715 162.901 67.6881 162.432 66.866 162.04C65.326 161.21 63.076 160.04 60.246 158.71C54.606 156.02 46.646 152.64 37.676 149.41C30.0231 146.633 22.2328 144.25 14.336 142.27C11.336 141.52 8.82602 141.01 7.10602 140.7C6.22067 140.513 5.32042 140.406 4.41602 140.38Z" fill="#C2C2C2"/>
<path d="M86.5273 242.31C86.5273 242.31 86.7573 242.08 87.1173 241.57L88.6473 239.34C89.9573 237.39 91.7873 234.53 94.0073 230.96C98.4473 223.82 104.267 213.77 110.537 202.59C116.807 191.41 122.537 181.32 126.817 174.1C128.917 170.6 130.637 167.71 131.917 165.57C132.467 164.64 132.917 163.87 133.297 163.24C133.475 162.977 133.616 162.691 133.717 162.39C133.717 162.39 133.487 162.62 133.127 163.13L131.527 165.36C130.207 167.31 128.377 170.17 126.157 173.74C121.747 180.9 115.927 190.9 109.657 202.11C103.387 213.32 97.6574 223.38 93.3773 230.6C91.2773 234.1 89.5573 236.99 88.2773 239.13L86.9073 241.46C86.7422 241.725 86.6143 242.011 86.5273 242.31Z" fill="#C2C2C2"/>
<path d="M2.30664 199.6C2.55606 199.803 2.83192 199.971 3.12664 200.1L5.52664 201.37L14.5266 205.96C22.1366 209.84 32.5866 215.32 44.1166 221.39C55.6466 227.46 66.1166 232.84 73.8566 236.57C77.6966 238.43 80.8566 239.9 83.0066 240.88L85.5266 241.99C85.8113 242.136 86.1139 242.243 86.4266 242.31C86.1772 242.107 85.9014 241.939 85.6066 241.81L83.1666 240.54L74.1666 235.95C66.5566 232.07 56.1066 226.59 44.5766 220.52C33.0466 214.45 22.5766 209.06 14.8466 205.34C10.9966 203.48 7.84664 202.01 5.68664 201.03L3.20664 199.9C2.92097 199.761 2.61841 199.66 2.30664 199.6Z" fill="#C2C2C2"/>
<path d="M427.887 349.9C427.887 350.04 333.217 350.16 216.467 350.16C99.7173 350.16 5.02734 350.05 5.02734 349.9C5.02734 349.75 99.6773 349.64 216.467 349.64C333.257 349.64 427.887 349.76 427.887 349.9Z" fill="#5F5F5F"/>
<path d="M28.2578 184.29C28.2578 184.29 35.1578 179.63 43.7778 196.16C52.3978 212.69 55.6978 222.24 55.6978 222.24C55.6978 222.24 57.9678 225.7 60.3378 223.4C62.7078 221.1 65.9178 214.62 69.9978 215.75C74.0778 216.88 75.6578 221.6 74.9178 228.52C74.1778 235.44 73.1178 250.66 73.0278 252.03C72.9378 253.4 73.7278 255.36 75.5878 254.03C77.4478 252.7 88.1378 240.6 93.5878 246.03C99.0378 251.46 93.8178 270.38 93.2878 272.46C92.7578 274.54 93.1678 275.46 94.1578 275.93C95.1478 276.4 98.3578 272.02 101.538 268.7C104.718 265.38 108.988 262.07 111.868 265.46C114.748 268.85 115.798 283.01 102.528 306.15L95.6778 316.47L83.2478 315.9C56.7178 313.05 45.8678 303.9 44.8278 299.57C43.7878 295.24 48.9478 293.73 53.5078 293.11C58.0678 292.49 63.5078 292.48 63.6978 291.38C63.8878 290.28 63.3978 289.43 61.3978 288.64C59.3978 287.85 41.0078 280.96 39.8278 273.37C38.6478 265.78 54.7278 264.25 56.8878 263.5C59.0478 262.75 57.8878 260.96 56.7478 260.24C55.6078 259.52 42.6378 251.43 36.6078 247.96C30.5778 244.49 27.6078 240.59 29.1578 236.48C30.6378 232.48 37.7678 233.73 41.0278 233.16C44.2878 232.59 42.8078 228.72 42.8078 228.72C42.8078 228.72 37.0078 220.45 28.6978 203.72C20.3878 186.99 28.4078 184.15 28.4078 184.15" fill="#15CDF2"/>
<path d="M36.0078 199.08C36.0699 199.173 36.1266 199.27 36.1778 199.37L36.6478 200.26L38.3978 203.67L44.7978 216.25C50.2478 226.87 57.7978 241.5 66.0478 257.67C74.2978 273.84 81.8678 288.5 87.1878 299.16C89.8278 304.48 91.9578 308.8 93.4478 311.81L95.1178 315.26L95.5478 316.17C95.6378 316.37 95.6778 316.48 95.6778 316.48C95.6778 316.48 95.6078 316.39 95.4978 316.19L95.0378 315.31C94.6178 314.5 94.0378 313.31 93.2878 311.89C91.7578 308.89 89.5778 304.61 86.8878 299.31C81.5278 288.69 73.9578 274.05 65.6278 257.9C57.2978 241.75 49.8178 227.06 44.5278 216.4L38.2278 203.75C37.5178 202.27 36.9578 201.11 36.5578 200.3C36.3778 199.92 36.2378 199.62 36.1378 199.39C36.0798 199.293 36.036 199.189 36.0078 199.08Z" fill="#5F5F5F"/>
<path d="M65.8676 225C65.7113 226.101 65.4808 227.19 65.1776 228.26C64.6976 230.39 64.0776 233.09 63.3876 236.09C62.6976 239.09 62.0476 241.9 61.5276 243.9C61.2576 244.9 61.0276 245.69 60.8476 246.24C60.7796 246.532 60.6684 246.811 60.5176 247.07C60.6874 245.972 60.9144 244.884 61.1976 243.81L62.9276 235.97C63.6276 232.91 64.3076 230.15 64.8576 228.16C65.1376 227.16 65.3776 226.37 65.5576 225.83C65.62 225.54 65.7244 225.26 65.8676 225Z" fill="#5F5F5F"/>
<path d="M59.3774 247.32C59.3774 247.44 53.6574 245.98 46.6774 244.04C39.6974 242.1 34.0774 240.44 34.1174 240.31C34.1574 240.18 39.8274 241.65 46.8074 243.58C53.7874 245.51 59.4074 247.19 59.3774 247.32Z" fill="#5F5F5F"/>
<path d="M75.418 275.14C75.1219 275.224 74.8158 275.268 74.508 275.27C73.928 275.33 73.078 275.39 72.028 275.44C69.928 275.54 67.028 275.61 63.808 275.52C60.588 275.43 57.708 275.2 55.618 274.98C54.618 274.87 53.728 274.76 53.138 274.67C52.834 274.648 52.5345 274.584 52.248 274.48C53.3803 274.463 54.5125 274.516 55.638 274.64C57.738 274.78 60.638 274.95 63.828 275.04C67.018 275.13 69.918 275.12 72.018 275.1C73.1511 275.04 74.2867 275.054 75.418 275.14Z" fill="#5F5F5F"/>
<path d="M85.7387 256.24C85.3486 257.214 84.8839 258.157 84.3487 259.06C83.4287 260.77 82.1388 263.12 80.6888 265.7C79.2388 268.28 77.8987 270.61 76.9087 272.28C76.4158 273.206 75.8507 274.092 75.2188 274.93C75.6089 273.956 76.0736 273.013 76.6087 272.11C77.5287 270.4 78.8187 268.05 80.2687 265.47C81.7187 262.89 83.0587 260.56 84.0487 258.9C84.5435 257.972 85.1084 257.082 85.7387 256.24Z" fill="#5F5F5F"/>
<path d="M103.018 279C102.911 279.351 102.76 279.687 102.568 280L101.158 282.59C99.9584 284.76 98.2684 287.75 96.3784 291.04C94.4884 294.33 92.7484 297.3 91.4684 299.43C90.8684 300.43 90.3484 301.26 89.9384 301.95C89.7682 302.267 89.56 302.563 89.3184 302.83C89.4286 302.48 89.5796 302.144 89.7684 301.83L91.1784 299.24C92.3784 297.06 94.0684 294.07 95.9584 290.78C97.8484 287.49 99.5884 284.53 100.868 282.4L102.398 279.88C102.575 279.567 102.783 279.272 103.018 279Z" fill="#5F5F5F"/>
<path d="M89.5282 302.16C89.1505 302.241 88.7642 302.275 88.3782 302.26C87.6282 302.26 86.5482 302.31 85.2182 302.32C82.5582 302.32 78.8682 302.32 74.8082 302.05C70.7482 301.78 67.0682 301.48 64.4282 301.17C63.0982 301.02 62.0282 300.87 61.2982 300.76C60.9105 300.728 60.528 300.651 60.1582 300.53C60.5441 300.495 60.9323 300.495 61.3182 300.53L64.4582 300.79C67.1082 301.02 70.7782 301.31 74.8282 301.53C78.8782 301.75 82.5582 301.87 85.2182 301.94L88.3782 302.03C88.7649 302.036 89.15 302.079 89.5282 302.16Z" fill="#5F5F5F"/>
<path d="M414.646 178.79L381.176 211.38L350.336 270.23L315.656 336.78L273.046 316.78L226.986 293.2L256.447 236.92L274.757 173.92C261.817 182.5 237.756 194.19 209.056 188.09C177.916 181.49 192.866 64.09 192.866 64.09L227.086 63.21L230.526 145.98L269.176 128.9L269.236 129.04C271.566 128.04 273.606 127.04 274.686 126.49C296.076 114.82 310.116 113.41 333.066 121.6L366.176 132.6C374.686 136.6 406.056 152.05 414.646 178.79Z" fill="#15CDF2"/>
<path d="M297.526 119.14C297.526 119.14 296.756 119.58 295.456 120.51C293.633 121.836 292.015 123.423 290.656 125.22C288.659 127.902 287.068 130.864 285.936 134.01C284.558 137.877 283.379 141.812 282.406 145.8L276.526 167.43C275.756 170.14 275.136 172.36 274.676 173.96C274.466 174.69 274.286 175.28 274.156 175.73C274.107 175.941 274.033 176.146 273.936 176.34C273.949 176.126 273.989 175.914 274.056 175.71C274.166 175.24 274.306 174.65 274.486 173.91C274.896 172.29 275.486 170.06 276.166 167.33C277.646 161.73 279.666 154.1 281.906 145.66C282.886 141.659 284.081 137.713 285.486 133.84C286.655 130.663 288.3 127.682 290.366 125C291.774 123.191 293.462 121.618 295.366 120.34C295.878 119.993 296.413 119.679 296.966 119.4C297.146 119.3 297.333 119.213 297.526 119.14Z" fill="#5F5F5F"/>
<g opacity="0.3">
<path d="M285.037 135.73C275.467 161.64 258.257 176.12 233.887 189.1C248.274 187.506 262.063 182.456 274.077 174.38" fill="#8A8A8A"/>
</g>
<g opacity="0.3">
<path d="M315.527 117.29C319.581 182.21 323.634 247.127 327.687 312.04L315.687 336.78L315.527 117.29Z" fill="#8A8A8A"/>
</g>
<path d="M353.207 184.64C353.067 184.7 351.847 181.64 350.137 177.95C348.427 174.26 346.907 171.33 347.037 171.26C347.508 171.811 347.908 172.419 348.227 173.07C348.897 174.23 349.757 175.87 350.607 177.73C351.457 179.59 352.157 181.3 352.607 182.56C352.901 183.223 353.103 183.922 353.207 184.64Z" fill="#D6D6D6"/>
<path d="M380.446 170.95C378.384 172.553 376.212 174.01 373.946 175.31C371.776 176.766 369.511 178.076 367.166 179.23C369.24 177.639 371.415 176.183 373.676 174.87C375.844 173.415 378.105 172.106 380.446 170.95Z" fill="#D6D6D6"/>
<path d="M368.627 161.09C368.28 159.341 368.1 157.563 368.087 155.78C367.919 154.001 367.919 152.209 368.087 150.43C368.446 152.181 368.627 153.963 368.627 155.75C368.801 157.526 368.801 159.314 368.627 161.09Z" fill="#D6D6D6"/>
<path d="M395.817 159.19C392.462 157.526 389.269 155.554 386.277 153.3C387.994 154.054 389.638 154.965 391.187 156.02C392.826 156.93 394.376 157.991 395.817 159.19Z" fill="#D6D6D6"/>
<path d="M354.246 213.13C354.985 210.764 355.887 208.451 356.946 206.21C357.852 203.904 358.915 201.662 360.126 199.5C359.391 201.868 358.488 204.18 357.426 206.42C356.523 208.728 355.46 210.97 354.246 213.13Z" fill="#D6D6D6"/>
<path d="M342.137 225.39C341.177 224.045 340.359 222.604 339.697 221.09C338.876 219.649 338.206 218.128 337.697 216.55C338.659 217.896 339.48 219.336 340.147 220.85C340.97 222.288 341.637 223.81 342.137 225.39Z" fill="#D6D6D6"/>
<path d="M352.266 241.9C350.633 242.607 348.898 243.049 347.126 243.21C345.38 243.548 343.59 243.602 341.826 243.37C341.826 243.22 344.176 243.11 347.056 242.7C349.936 242.29 352.226 241.74 352.266 241.9Z" fill="#D6D6D6"/>
<path d="M365.256 223.84C365.69 222.169 366.286 220.545 367.036 218.99C367.627 217.368 368.381 215.81 369.286 214.34C368.858 216.011 368.265 217.636 367.516 219.19C366.929 220.816 366.171 222.374 365.256 223.84Z" fill="#D6D6D6"/>
<path d="M333.667 261.98C333.537 262.06 332.067 260.03 330.047 257.7C328.027 255.37 326.227 253.62 326.337 253.51C329.34 255.796 331.835 258.68 333.667 261.98Z" fill="#D6D6D6"/>
<path d="M327.936 220.97C327.228 222.716 326.354 224.391 325.326 225.97C324.452 227.648 323.424 229.242 322.256 230.73C322.978 228.988 323.855 227.315 324.876 225.73C325.748 224.053 326.772 222.459 327.936 220.97Z" fill="#D6D6D6"/>
<path d="M332.017 206.9C330.122 206.671 328.252 206.277 326.427 205.72C324.56 205.327 322.732 204.764 320.967 204.04C322.862 204.263 324.733 204.658 326.557 205.22C328.425 205.61 330.253 206.172 332.017 206.9Z" fill="#D6D6D6"/>
<path d="M331.777 177.9C332.877 179.184 333.88 180.548 334.777 181.98C335.808 183.309 336.737 184.713 337.557 186.18C336.327 185.02 335.251 183.706 334.357 182.27C333.307 180.934 332.439 179.465 331.777 177.9Z" fill="#D6D6D6"/>
<path d="M322.526 176.45C320.343 178.814 317.908 180.934 315.266 182.77C316.292 181.527 317.453 180.4 318.726 179.41C319.884 178.292 321.158 177.299 322.526 176.45Z" fill="#D6D6D6"/>
<path d="M329.837 161.28C326.459 158.617 323.645 155.31 321.557 151.55C321.687 151.47 323.327 153.81 325.617 156.49C327.907 159.17 329.947 161.17 329.837 161.28Z" fill="#D6D6D6"/>
<path d="M355.417 156.61C353.609 157.44 351.732 158.109 349.807 158.61C347.935 159.274 346.007 159.769 344.047 160.09C345.858 159.268 347.734 158.599 349.657 158.09C351.53 157.428 353.457 156.933 355.417 156.61Z" fill="#D6D6D6"/>
<path d="M319.407 132.25C319.257 132.25 319.327 129.96 318.967 127.18C318.607 124.4 317.967 122.18 318.147 122.18C319.504 125.362 319.94 128.862 319.407 132.28V132.25Z" fill="#D6D6D6"/>
<path d="M296.647 204.76C295.909 205.4 295.124 205.981 294.297 206.5C292.817 207.5 290.797 208.99 288.637 210.69C286.477 212.39 284.577 214 283.217 215.18C282.513 215.86 281.761 216.488 280.967 217.06C281.555 216.274 282.226 215.554 282.967 214.91C284.669 213.275 286.454 211.729 288.317 210.28C290.171 208.821 292.096 207.456 294.087 206.19C294.893 205.634 295.75 205.155 296.647 204.76Z" fill="#D6D6D6"/>
<path d="M295.336 196.74C295.206 196.81 293.526 194.2 291.196 191.15C288.866 188.1 286.806 185.78 286.916 185.67C287.485 186.057 287.994 186.525 288.426 187.06C289.553 188.262 290.617 189.52 291.616 190.83C292.776 192.37 293.746 193.83 294.396 194.91C294.794 195.473 295.11 196.089 295.336 196.74Z" fill="#D6D6D6"/>
<path d="M301.427 165.13C298.335 167.233 295.054 169.044 291.627 170.54C293.127 169.419 294.727 168.438 296.407 167.61C297.999 166.627 299.679 165.797 301.427 165.13Z" fill="#D6D6D6"/>
<path d="M295.397 151.33C294.768 150.961 294.192 150.507 293.687 149.98C292.392 148.797 291.185 147.52 290.077 146.16C288.958 144.802 287.939 143.365 287.027 141.86C286.606 141.263 286.269 140.61 286.027 139.92C286.167 139.84 287.877 142.68 290.467 145.83C293.057 148.98 295.527 151.21 295.397 151.33Z" fill="#D6D6D6"/>
<path d="M305.777 151.04C306.233 149.522 306.849 148.057 307.617 146.67C308.235 145.207 309.009 143.816 309.927 142.52C309.477 144.04 308.86 145.506 308.087 146.89C307.475 148.355 306.7 149.747 305.777 151.04Z" fill="#D6D6D6"/>
<path d="M303.007 135.25C302.847 135.25 303.007 132.14 302.427 128.39C301.847 124.64 300.737 121.74 300.887 121.68C301.264 122.252 301.551 122.88 301.737 123.54C302.289 125.089 302.694 126.686 302.947 128.31C303.196 129.934 303.299 131.577 303.257 133.22C303.283 133.906 303.199 134.591 303.007 135.25Z" fill="#D6D6D6"/>
<path d="M305.527 214.9C305.46 213.924 305.46 212.946 305.527 211.97C305.597 210.17 305.647 207.68 305.577 204.97C305.507 202.26 305.327 199.74 305.177 197.97C305.041 197.003 304.981 196.027 304.997 195.05C305.274 195.99 305.458 196.954 305.547 197.93C305.858 200.272 306.042 202.628 306.097 204.99C306.16 207.349 306.093 209.709 305.897 212.06C305.872 213.017 305.748 213.969 305.527 214.9Z" fill="#D6D6D6"/>
<path d="M304.047 239.79C302.65 238.504 301.171 237.312 299.617 236.22C297.977 235.271 296.277 234.429 294.527 233.7C296.444 234.025 298.276 234.732 299.915 235.778C301.553 236.824 302.965 238.188 304.067 239.79H304.047Z" fill="#D6D6D6"/>
<path d="M316.527 255.19C314.325 256.624 312.03 257.911 309.657 259.04C307.366 260.327 304.991 261.456 302.547 262.42C304.752 260.994 307.047 259.711 309.417 258.58C311.709 257.293 314.084 256.16 316.527 255.19Z" fill="#D6D6D6"/>
<path d="M281.346 262.02C279.522 259.989 277.832 257.841 276.286 255.59C274.598 253.441 273.049 251.186 271.646 248.84C273.467 250.878 275.157 253.029 276.706 255.28C278.39 257.429 279.94 259.68 281.346 262.02Z" fill="#D6D6D6"/>
<path d="M270.527 233.58C270.355 232.911 270.277 232.221 270.297 231.53C270.247 230.26 270.227 228.53 270.297 226.53C270.367 224.53 270.567 222.84 270.737 221.53C270.785 220.848 270.923 220.176 271.147 219.53C271.297 219.53 270.997 222.67 270.817 226.53C270.637 230.39 270.627 233.58 270.527 233.58Z" fill="#D6D6D6"/>
<path d="M258.746 282.13C256.698 280.76 254.747 279.249 252.906 277.61C250.957 276.101 249.116 274.457 247.396 272.69C249.446 274.059 251.397 275.57 253.236 277.21C255.186 278.719 257.027 280.363 258.746 282.13Z" fill="#D6D6D6"/>
<path d="M265.786 280.64C265.462 278.039 265.312 275.42 265.336 272.8C265.191 270.184 265.218 267.562 265.416 264.95C265.739 267.55 265.889 270.17 265.866 272.79C266.01 275.406 265.983 278.028 265.786 280.64Z" fill="#D6D6D6"/>
<path d="M279.687 310.75C279.687 310.83 278.437 310.34 276.427 309.69C271.192 308.005 265.702 307.257 260.207 307.48C258.097 307.56 256.797 307.71 256.787 307.62C257.075 307.507 257.379 307.436 257.687 307.41C258.267 307.3 259.127 307.2 260.187 307.11C265.731 306.691 271.301 307.455 276.527 309.35C277.323 309.638 278.101 309.972 278.857 310.35C279.153 310.44 279.433 310.575 279.687 310.75Z" fill="#D6D6D6"/>
<path d="M291.137 316.25C291.949 316.675 292.708 317.195 293.397 317.8C296.856 320.54 299.987 323.67 302.727 327.13C303.332 327.819 303.852 328.577 304.277 329.39C303.615 328.769 303 328.101 302.437 327.39C301.337 326.12 299.777 324.39 297.967 322.58C296.157 320.77 294.427 319.22 293.157 318.11C292.438 317.541 291.763 316.919 291.137 316.25Z" fill="#D6D6D6"/>
<path d="M296.126 264.15C295.11 262.278 294.244 260.328 293.536 258.32C292.672 256.38 291.967 254.373 291.426 252.32C292.441 254.192 293.307 256.142 294.016 258.15C294.879 260.09 295.585 262.097 296.126 264.15Z" fill="#D6D6D6"/>
<path d="M255.957 162.8C255.531 163.428 255.016 163.991 254.427 164.47C253.094 165.71 251.662 166.84 250.147 167.85C248.63 168.867 247.031 169.757 245.367 170.51C244.697 170.866 243.98 171.126 243.237 171.28C243.177 171.13 246.347 169.77 249.857 167.42C253.367 165.07 255.847 162.68 255.957 162.8Z" fill="#D6D6D6"/>
<path d="M258.526 152.2C258.319 149.227 258.46 146.24 258.946 143.3C259.153 146.273 259.012 149.26 258.526 152.2Z" fill="#D6D6D6"/>
<path d="M238.577 161.1C236.785 160.567 235.048 159.867 233.387 159.01C231.645 158.309 229.971 157.449 228.387 156.44C230.176 156.978 231.913 157.678 233.577 158.53C235.319 159.231 236.993 160.091 238.577 161.1Z" fill="#D6D6D6"/>
<path d="M274.166 147.54C274.05 145.695 274.107 143.844 274.336 142.01C274.383 140.162 274.611 138.324 275.016 136.52C275.132 138.364 275.079 140.215 274.856 142.05C274.8 143.898 274.569 145.736 274.166 147.54Z" fill="#D6D6D6"/>
<path d="M227.977 182.3C225.951 181.789 224.025 180.944 222.277 179.8C220.438 178.802 218.784 177.497 217.387 175.94C217.487 175.82 219.617 177.61 222.537 179.36C225.457 181.11 228.037 182.15 227.977 182.3Z" fill="#D6D6D6"/>
<path d="M213.146 161.95C211.858 163.725 210.434 165.397 208.886 166.95C207.462 168.633 205.911 170.205 204.246 171.65C206.954 168.173 209.93 164.913 213.146 161.9V161.95Z" fill="#D6D6D6"/>
<path d="M211.876 143.72C210.173 143.144 208.59 142.259 207.206 141.11C205.725 140.099 204.435 138.833 203.396 137.37C203.506 137.26 205.186 138.95 207.526 140.69C209.866 142.43 211.946 143.59 211.876 143.72Z" fill="#D6D6D6"/>
<path d="M202.527 147.54C201.961 148.61 201.244 149.594 200.397 150.46C199.679 151.437 198.827 152.309 197.867 153.05C199.149 151 200.718 149.144 202.527 147.54Z" fill="#D6D6D6"/>
<path d="M222.527 113.7C221.362 115.527 220.055 117.26 218.617 118.88C217.316 120.615 215.874 122.241 214.307 123.74C215.472 121.91 216.779 120.175 218.217 118.55C219.523 116.822 220.964 115.2 222.527 113.7Z" fill="#D6D6D6"/>
<path d="M205.397 117.55C203.855 116.181 202.43 114.686 201.137 113.08C199.72 111.59 198.429 109.984 197.277 108.28C198.821 109.643 200.246 111.135 201.537 112.74C202.956 114.233 204.247 115.842 205.397 117.55Z" fill="#D6D6D6"/>
<path d="M213.977 95.83C212.83 94.348 211.826 92.7609 210.977 91.09C209.986 89.5021 209.14 87.8288 208.447 86.09C209.593 87.5766 210.597 89.1668 211.447 90.84C212.439 92.4238 213.286 94.0939 213.977 95.83Z" fill="#D6D6D6"/>
<path d="M213.526 81.82C213.406 81.72 214.906 79.82 216.096 77.13C217.286 74.44 217.716 72.07 217.876 72.13C217.627 75.784 216.085 79.2299 213.526 81.85V81.82Z" fill="#D6D6D6"/>
<path d="M197.037 80.99C196.882 78.876 197.307 76.7598 198.267 74.87C198.888 73.5139 199.711 72.2596 200.707 71.15C201.089 70.6614 201.561 70.2506 202.097 69.94C200.799 71.53 199.673 73.253 198.737 75.08C197.96 76.9833 197.39 78.9647 197.037 80.99Z" fill="#D6D6D6"/>
<path d="M341.217 57.2C340.757 53.055 340.707 48.8748 341.067 44.72C341.44 40.5399 343.041 36.5633 345.667 33.29C348.397 30.13 352.597 28.1 356.727 28.63C359.287 28.96 361.727 30.22 364.277 30.15C367.277 30.06 369.847 28.22 372.557 26.99C376.829 25.0506 381.615 24.5488 386.197 25.56C388.612 26.0152 390.848 27.1455 392.647 28.82C393.533 29.6649 394.19 30.7212 394.556 31.8898C394.921 33.0583 394.984 34.3007 394.737 35.5C397.759 35.3673 400.785 35.6329 403.737 36.29C406.694 36.9562 409.273 38.7502 410.927 41.29C412.417 43.9 412.317 47.53 410.177 49.64C411.586 49.4512 413.015 49.79 414.189 50.5912C415.363 51.3923 416.199 52.5993 416.537 53.98C416.803 55.3772 416.661 56.8213 416.129 58.1404C415.597 59.4594 414.697 60.5978 413.537 61.42C410.741 63.1322 407.428 63.7982 404.187 63.3C401.407 62.77 398.187 61.99 395.957 60.3" fill="#FBE7A1"/>
<path d="M339.047 151.4C344.564 152.817 350.417 151.995 355.331 149.114C360.245 146.233 363.82 141.526 365.277 136.02C366.967 129.61 368.347 124.24 368.347 124.24C368.347 124.24 385.057 127.11 390.587 111.24C396.117 95.37 405.587 58.03 405.587 58.03C397.86 51.1196 388.428 46.3967 378.266 44.3487C368.103 42.3008 357.578 43.002 347.777 46.38L344.777 47.38L323.547 124.71C322.779 127.481 322.571 130.377 322.938 133.229C323.304 136.081 324.236 138.831 325.68 141.317C327.124 143.803 329.051 145.976 331.346 147.708C333.642 149.439 336.26 150.695 339.047 151.4Z" fill="#FFBE9D"/>
<path d="M368.447 124.02C361.069 121.695 354.55 117.229 349.717 111.19C349.717 111.19 350.777 124.26 367.107 128.19L368.447 124.02Z" fill="#EB996E"/>
<path d="M341.266 64.56C341.036 64.35 331.436 57.67 328.146 68.65C324.856 79.63 336.546 80.65 336.656 80.36C336.766 80.07 341.266 64.56 341.266 64.56Z" fill="#FFBE9D"/>
<path d="M334.526 75.19C334.526 75.19 334.296 75.27 333.926 75.32C333.423 75.3617 332.923 75.2116 332.526 74.9C331.526 74.13 331.076 71.99 331.616 70C331.867 69.0496 332.328 68.1678 332.966 67.42C333.177 67.1153 333.457 66.8655 333.784 66.6916C334.111 66.5176 334.475 66.4245 334.846 66.42C335.089 66.4176 335.324 66.5035 335.508 66.6618C335.692 66.82 335.812 67.0397 335.846 67.28C335.906 67.63 335.766 67.83 335.846 67.87C335.926 67.91 336.136 67.75 336.176 67.27C336.197 66.9828 336.12 66.6969 335.956 66.46C335.838 66.2979 335.689 66.1612 335.517 66.0581C335.345 65.955 335.154 65.8876 334.956 65.86C334.478 65.8119 333.996 65.8879 333.556 66.0806C333.117 66.2733 332.734 66.5762 332.446 66.96C331.691 67.7683 331.148 68.7509 330.866 69.82C330.266 72.05 330.776 74.46 332.226 75.4C332.496 75.5732 332.801 75.6838 333.12 75.7236C333.438 75.7634 333.761 75.7314 334.066 75.63C334.456 75.45 334.586 75.23 334.526 75.19Z" fill="#EB996E"/>
<path d="M392.137 80.95C391.942 81.5515 391.517 82.0516 390.955 82.3419C390.394 82.6321 389.74 82.6889 389.137 82.5C388.841 82.4257 388.563 82.293 388.319 82.1096C388.075 81.9263 387.87 81.696 387.716 81.4324C387.562 81.1687 387.463 80.877 387.423 80.5743C387.384 80.2717 387.406 79.9642 387.487 79.67C387.68 79.0781 388.096 78.5845 388.646 78.2934C389.197 78.0023 389.839 77.9366 390.437 78.11C390.738 78.1799 391.021 78.3097 391.271 78.4917C391.521 78.6736 391.731 78.904 391.89 79.1691C392.048 79.4341 392.152 79.7284 392.194 80.0344C392.237 80.3404 392.217 80.6518 392.137 80.95Z" fill="#263238"/>
<path d="M395.097 79.41C394.717 79.61 393.427 77.77 390.987 76.95C388.547 76.13 386.337 76.76 386.177 76.37C386.087 76.2 386.557 75.76 387.527 75.45C388.838 75.0633 390.237 75.0982 391.527 75.55C392.799 75.9709 393.902 76.7873 394.677 77.88C395.207 78.71 395.277 79.33 395.097 79.41Z" fill="#263238"/>
<path d="M368.136 72.9C367.942 73.4919 367.527 73.9855 366.976 74.2766C366.426 74.5677 365.784 74.6335 365.186 74.46C364.89 74.3857 364.611 74.253 364.367 74.0696C364.123 73.8863 363.919 73.656 363.765 73.3924C363.611 73.1287 363.512 72.837 363.472 72.5343C363.433 72.2317 363.454 71.9242 363.536 71.63C363.727 71.0366 364.142 70.5414 364.693 70.2499C365.244 69.9585 365.888 69.8939 366.486 70.07C366.782 70.1443 367.06 70.277 367.304 70.4604C367.548 70.6437 367.753 70.874 367.906 71.1377C368.06 71.4013 368.16 71.6931 368.199 71.9957C368.238 72.2983 368.217 72.6058 368.136 72.9Z" fill="#263238"/>
<path d="M370.956 71.81C370.576 72.02 369.276 70.17 366.836 69.35C364.396 68.53 362.196 69.16 362.026 68.77C361.946 68.6 362.406 68.16 363.386 67.86C364.697 67.4727 366.095 67.5042 367.386 67.95C368.659 68.374 369.765 69.1895 370.546 70.28C371.056 71.11 371.136 71.73 370.956 71.81Z" fill="#263238"/>
<path d="M373.737 92.9C373.737 92.76 375.377 93 377.937 93.51C378.587 93.66 379.217 93.73 379.467 93.34C379.734 92.7089 379.804 92.0115 379.667 91.34C379.587 89.63 379.507 87.84 379.417 85.97C379.127 78.36 379.137 72.18 379.417 72.17C379.697 72.16 380.207 78.33 380.497 85.94C380.557 87.81 380.607 89.6 380.657 91.31C380.801 92.1912 380.627 93.0948 380.167 93.86C380.003 94.0498 379.798 94.1998 379.568 94.2986C379.337 94.3973 379.088 94.4423 378.837 94.43C378.459 94.411 378.086 94.3404 377.727 94.22C375.237 93.53 373.697 93.03 373.737 92.9Z" fill="#263238"/>
<path d="M365.987 92.17C366.387 92.28 365.507 94.93 367.147 97.57C368.787 100.21 371.697 100.87 371.597 101.24C371.597 101.42 370.787 101.55 369.597 101.18C368.039 100.681 366.707 99.6468 365.837 98.26C364.995 96.9324 364.708 95.3273 365.037 93.79C365.297 92.65 365.807 92.09 365.987 92.17Z" fill="#263238"/>
<path d="M395.636 74.82C395.026 75.23 393.536 74.09 391.526 73.38C389.516 72.67 387.666 72.5 387.466 71.79C387.386 71.45 387.846 70.98 388.766 70.71C389.983 70.4175 391.259 70.4933 392.432 70.9277C393.605 71.3622 394.623 72.1357 395.356 73.15C395.876 73.96 395.916 74.61 395.636 74.82Z" fill="#263238"/>
<path d="M370.736 61.9C370.366 62.1 369.736 61.77 369.026 61.34C368.107 60.7913 367.144 60.3196 366.146 59.93C365.136 59.5661 364.095 59.2917 363.036 59.11C362.186 58.94 361.526 58.81 361.376 58.41C361.226 58.01 361.706 57.41 362.786 57.01C364.224 56.556 365.772 56.5948 367.185 57.1201C368.598 57.6454 369.795 58.6272 370.586 59.91C371.136 60.96 371.086 61.74 370.736 61.9Z" fill="#263238"/>
<path d="M404.757 63.22C396.405 62.734 388.425 59.599 381.977 54.27C374.797 48.39 365.806 44.27 363.356 45.43C360.906 46.59 358.576 54.83 349.996 55.43C349.996 55.43 346.936 71.48 340.716 69.43C334.496 67.38 344.067 43.66 344.067 43.66L361.317 39.6L378.986 40.25L394.856 43.85L408.586 51.74L404.757 63.22Z" fill="#FBE7A1"/>
<path d="M315.657 0.270004H91.127V349.91H315.657V0.270004Z" fill="#D6D6D6"/>
<path d="M315.656 349.9C315.656 347.75 315.557 205.75 315.417 0.260002L315.656 0.5H91.1565L91.4265 0.239998C91.4265 132.52 91.4265 254.32 91.3665 349.88L91.1565 349.67L315.686 349.88L91.1565 350.08H90.9565V349.9C90.9565 254.34 90.9565 132.54 90.8965 0.260002V0H91.1865H315.686H315.926V0.239998C315.756 205.76 315.656 347.76 315.656 349.9Z" fill="#5F5F5F"/>
<path d="M151.307 78.13H122.577C121.624 78.13 120.709 77.7521 120.035 77.0791C119.36 76.4061 118.979 75.493 118.977 74.54V34.77C118.979 33.817 119.36 32.9038 120.035 32.2309C120.709 31.5579 121.624 31.18 122.577 31.18H140.797L154.897 45.71V74.54C154.897 75.4921 154.518 76.4053 153.845 77.0785C153.172 77.7518 152.259 78.13 151.307 78.13Z" fill="#15CDF2"/>
<path d="M140.797 31.18V42.37C140.8 43.255 141.152 44.103 141.778 44.7288C142.404 45.3546 143.252 45.7074 144.137 45.71H154.897L140.797 31.18Z" fill="#15CDF2"/>
<g opacity="0.2">
<path d="M140.947 43.35C140.952 44.1969 141.246 45.0169 141.781 45.6736C142.315 46.3303 143.059 46.7842 143.887 46.96L144.247 47.04C145.647 47.29 154.897 48.93 154.897 48.72V45.72H144.137C144.137 45.72 141.457 45.62 140.947 43.35Z" fill="#8A8A8A"/>
</g>
<g opacity="0.3">
<path d="M140.797 31.18V42.37C140.8 43.255 141.152 44.103 141.778 44.7288C142.404 45.3546 143.252 45.7074 144.137 45.71H154.897L140.797 31.18Z" fill="#E6E6E6"/>
</g>
<path d="M138.386 41.9C136.179 42.1571 133.956 42.244 131.736 42.16C129.519 42.2442 127.299 42.1573 125.096 41.9C127.299 41.6427 129.519 41.5558 131.736 41.64C133.956 41.556 136.179 41.6429 138.386 41.9Z" fill="#D6D6D6"/>
<path d="M146.966 48.24C146.966 48.38 142.076 48.5 136.036 48.5C129.996 48.5 125.096 48.38 125.096 48.24C125.096 48.1 129.996 47.98 136.036 47.98C142.076 47.98 146.966 48.09 146.966 48.24Z" fill="#D6D6D6"/>
<path d="M148.936 53.52C148.936 53.67 143.606 53.78 137.016 53.78C130.426 53.78 125.096 53.67 125.096 53.52C125.096 53.37 130.436 53.26 137.016 53.26C143.596 53.26 148.936 53.38 148.936 53.52Z" fill="#D6D6D6"/>
<path d="M148.936 58.51C148.936 58.65 143.606 58.77 137.016 58.77C130.426 58.77 125.096 58.65 125.096 58.51C125.096 58.37 130.436 58.25 137.016 58.25C143.596 58.25 148.936 58.36 148.936 58.51Z" fill="#D6D6D6"/>
<path d="M148.936 63.49C148.936 63.64 143.606 63.75 137.016 63.75C130.426 63.75 125.096 63.64 125.096 63.49C125.096 63.34 130.436 63.23 137.016 63.23C143.596 63.23 148.936 63.35 148.936 63.49Z" fill="#D6D6D6"/>
<path d="M148.936 68.48C148.936 68.62 143.606 68.74 137.016 68.74C130.426 68.74 125.096 68.62 125.096 68.48C125.096 68.34 130.436 68.22 137.016 68.22C143.596 68.22 148.936 68.33 148.936 68.48Z" fill="#D6D6D6"/>
<path d="M164.947 51.61H161.947V50.51H169.257V51.61H166.257V59.35H165.007L164.947 51.61Z" fill="#5F5F5F"/>
<path d="M177.017 58.25V59.35H170.607V50.51H176.837V51.61H171.837V54.32H176.267V55.4H171.837V58.25H177.017Z" fill="#5F5F5F"/>
<path d="M184.967 59.35L183.057 56.63C182.873 56.6405 182.69 56.6405 182.507 56.63H180.327V59.32H179.057V50.48H182.527C184.827 50.48 186.207 51.64 186.207 53.56C186.237 54.1741 186.064 54.7811 185.713 55.2859C185.362 55.7908 184.853 56.165 184.267 56.35L186.367 59.35H184.967ZM184.967 53.59C184.967 52.33 184.127 51.59 182.507 51.59H180.327V55.59H182.467C184.087 55.59 184.927 54.9 184.927 53.59H184.967Z" fill="#5F5F5F"/>
<path d="M196.426 59.35V52.9L193.226 58.26H192.646L189.456 52.94V59.34H188.246V50.5H189.246L192.926 56.71L196.556 50.5H197.556V59.34L196.426 59.35Z" fill="#5F5F5F"/>
<path d="M199.527 58.34L199.987 57.34C200.814 58.0049 201.847 58.3588 202.907 58.34C204.437 58.34 205.087 57.74 205.087 56.97C205.087 54.81 199.737 56.18 199.737 52.9C199.737 51.53 200.797 50.37 203.117 50.37C204.121 50.3504 205.108 50.625 205.957 51.16L205.547 52.16C204.82 51.6992 203.978 51.4531 203.117 51.45C201.617 51.45 200.977 52.08 200.977 52.85C200.977 55 206.327 53.65 206.327 56.85C206.327 58.2 205.237 59.36 202.907 59.36C201.697 59.4196 200.503 59.0593 199.527 58.34Z" fill="#5F5F5F"/>
<path d="M210.806 54.9C210.77 53.9636 211.015 53.0378 211.509 52.2416C212.003 51.4454 212.724 50.8151 213.579 50.4316C214.434 50.0481 215.385 49.9289 216.308 50.0894C217.231 50.25 218.085 50.6828 218.761 51.3324C219.436 51.9819 219.902 52.8186 220.098 53.7348C220.295 54.6511 220.213 55.6052 219.863 56.4745C219.513 57.3439 218.911 58.0888 218.135 58.6137C217.359 59.1385 216.443 59.4193 215.506 59.42C214.897 59.4486 214.288 59.3525 213.716 59.1378C213.145 58.9231 212.624 58.5942 212.184 58.1712C211.744 57.7482 211.395 57.2399 211.158 56.6775C210.921 56.1151 210.801 55.5102 210.806 54.9ZM218.926 54.9C218.932 54.2199 218.736 53.5535 218.362 52.9852C217.988 52.417 217.454 51.9727 216.827 51.7088C216.201 51.4449 215.51 51.3733 214.842 51.503C214.174 51.6328 213.56 51.958 213.078 52.4375C212.596 52.917 212.267 53.5291 212.133 54.1959C212 54.8627 212.067 55.5542 212.327 56.1825C212.588 56.8109 213.029 57.3476 213.595 57.7247C214.161 58.1017 214.826 58.3019 215.506 58.3C215.958 58.3152 216.408 58.2378 216.828 58.0725C217.249 57.9073 217.631 57.6578 217.951 57.3392C218.272 57.0207 218.523 56.64 218.691 56.2205C218.859 55.801 218.939 55.3516 218.926 54.9Z" fill="#5F5F5F"/>
<path d="M223.387 51.61V54.69H227.817V55.78H223.387V59.35H222.127V50.51H228.357V51.61H223.387Z" fill="#5F5F5F"/>
<path d="M232.727 58.34L233.197 57.34C234.02 58.0034 235.049 58.3572 236.107 58.34C237.637 58.34 238.297 57.74 238.297 56.97C238.297 54.81 232.947 56.18 232.947 52.9C232.947 51.53 234.007 50.37 236.327 50.37C237.33 50.3521 238.317 50.6266 239.167 51.16L238.747 52.16C238.023 51.7005 237.184 51.4544 236.327 51.45C234.827 51.45 234.177 52.08 234.177 52.85C234.177 55 239.527 53.65 239.527 56.85C239.527 58.2 238.447 59.36 236.107 59.36C234.896 59.4179 233.703 59.0578 232.727 58.34Z" fill="#5F5F5F"/>
<path d="M247.787 58.25V59.35H241.377V50.51H247.607V51.61H242.607V54.32H247.037V55.4H242.607V58.25H247.787Z" fill="#5F5F5F"/>
<path d="M255.736 59.35L253.836 56.63C253.649 56.6402 253.462 56.6402 253.276 56.63H251.096V59.32H249.836V50.48H253.276C255.576 50.48 256.966 51.64 256.966 53.56C256.996 54.1754 256.821 54.7833 256.468 55.2883C256.115 55.7933 255.604 56.1668 255.016 56.35L257.116 59.35H255.736ZM255.736 53.59C255.736 52.33 254.896 51.59 253.276 51.59H251.136V55.59H253.276C254.856 55.59 255.696 54.9 255.696 53.59H255.736Z" fill="#5F5F5F"/>
<path d="M266.677 50.51L262.807 59.35H261.527L257.637 50.51H259.007L262.187 57.77L265.387 50.51H266.677Z" fill="#5F5F5F"/>
<path d="M267.807 50.51H269.067V59.35H267.807V50.51Z" fill="#5F5F5F"/>
<path d="M270.997 54.9C270.99 54.2907 271.107 53.6863 271.341 53.1239C271.576 52.5616 271.923 52.0531 272.361 51.6298C272.8 51.2065 273.32 50.8772 273.89 50.6623C274.46 50.4474 275.068 50.3513 275.677 50.38C276.303 50.355 276.928 50.4653 277.508 50.7034C278.087 50.9416 278.609 51.3019 279.037 51.76L278.217 52.55C277.897 52.2162 277.509 51.9543 277.08 51.7819C276.65 51.6095 276.189 51.5304 275.727 51.55C275.164 51.5523 274.611 51.6943 274.116 51.9633C273.622 52.2324 273.202 52.6199 272.894 53.0913C272.586 53.5626 272.4 54.103 272.353 54.6639C272.306 55.2249 272.398 55.7888 272.623 56.305C272.847 56.8213 273.196 57.2738 273.638 57.6219C274.081 57.97 274.603 58.2028 275.157 58.2995C275.712 58.3961 276.282 58.3536 276.816 58.1756C277.35 57.9977 277.831 57.6899 278.217 57.28L279.037 58.07C278.608 58.5301 278.085 58.8924 277.504 59.1322C276.922 59.3721 276.296 59.4839 275.667 59.46C275.056 59.4875 274.445 59.3892 273.874 59.1712C273.302 58.9533 272.781 58.6202 272.343 58.1927C271.905 57.7652 271.56 57.2524 271.329 56.686C271.097 56.1196 270.984 55.5117 270.997 54.9Z" fill="#5F5F5F"/>
<path d="M287.256 58.25V59.35H280.846V50.51H287.076V51.61H282.076V54.32H286.526V55.4H282.096V58.25H287.256Z" fill="#5F5F5F"/>
<path d="M172.876 68.42L170.516 75.42H169.466L167.526 69.84L165.596 75.46H164.526L162.176 68.46H163.176L165.076 74.19L167.076 68.46H168.006L169.946 74.22L171.886 68.46L172.876 68.42Z" fill="#C2C2C2"/>
<path d="M178.357 73.12H174.027C174.092 73.5778 174.328 73.9938 174.688 74.2836C175.049 74.5733 175.506 74.715 175.967 74.68C176.253 74.689 176.537 74.6365 176.801 74.5261C177.065 74.4157 177.302 74.2499 177.497 74.04L178.037 74.66C177.769 74.9485 177.441 75.1749 177.077 75.3235C176.712 75.472 176.32 75.5391 175.927 75.52C175.556 75.5481 175.183 75.4981 174.833 75.3732C174.483 75.2484 174.162 75.0514 173.893 74.7951C173.623 74.5388 173.411 74.2288 173.268 73.8851C173.126 73.5415 173.057 73.1718 173.067 72.8C173.052 72.443 173.11 72.0867 173.238 71.7531C173.366 71.4196 173.562 71.1159 173.812 70.8609C174.062 70.6059 174.362 70.405 174.693 70.2707C175.024 70.1364 175.38 70.0715 175.737 70.08C176.095 70.0709 176.452 70.1366 176.784 70.2731C177.116 70.4095 177.415 70.6136 177.664 70.8724C177.912 71.1312 178.104 71.439 178.227 71.776C178.349 72.1131 178.401 72.4721 178.377 72.83C178.377 72.9 178.367 73.03 178.357 73.12ZM174.027 72.43H177.447C177.401 72.0084 177.201 71.6185 176.886 71.3352C176.57 71.0519 176.161 70.8952 175.737 70.8952C175.313 70.8952 174.904 71.0519 174.588 71.3352C174.272 71.6185 174.072 72.0084 174.027 72.43Z" fill="#C2C2C2"/>
<path d="M179.717 68H180.717V75.46H179.717V68Z" fill="#C2C2C2"/>
<path d="M182.026 72.8C182.018 72.4322 182.087 72.0668 182.227 71.7268C182.368 71.3867 182.577 71.0794 182.842 70.824C183.107 70.5686 183.421 70.3707 183.766 70.2427C184.111 70.1146 184.479 70.0592 184.846 70.08C185.277 70.0564 185.706 70.1499 186.088 70.3506C186.47 70.5513 186.791 70.8518 187.016 71.22L186.276 71.69C186.122 71.4496 185.909 71.2532 185.656 71.12C185.404 70.9868 185.121 70.9213 184.836 70.93C184.362 70.9646 183.919 71.1772 183.596 71.525C183.273 71.8728 183.093 72.3301 183.093 72.805C183.093 73.2799 183.273 73.7372 183.596 74.085C183.919 74.4328 184.362 74.6454 184.836 74.68C185.121 74.6887 185.404 74.6232 185.656 74.49C185.909 74.3568 186.122 74.1604 186.276 73.92L187.016 74.38C186.791 74.7482 186.47 75.0487 186.088 75.2494C185.706 75.4501 185.277 75.5436 184.846 75.52C184.479 75.5407 184.111 75.4854 183.766 75.3573C183.421 75.2293 183.107 75.0314 182.842 74.776C182.577 74.5206 182.368 74.2132 182.227 73.8732C182.087 73.5332 182.018 73.1678 182.026 72.8Z" fill="#C2C2C2"/>
<path d="M187.686 72.8C187.676 72.2505 187.83 71.7106 188.128 71.2487C188.426 70.7869 188.854 70.4241 189.359 70.2065C189.863 69.9889 190.421 69.9262 190.962 70.0266C191.502 70.127 192 70.3858 192.393 70.7701C192.786 71.1544 193.055 71.6469 193.168 72.1848C193.28 72.7228 193.229 73.282 193.023 73.7912C192.816 74.3005 192.463 74.7368 192.008 75.0446C191.552 75.3524 191.016 75.5179 190.466 75.52C190.102 75.5365 189.738 75.478 189.397 75.3479C189.056 75.2179 188.746 75.0191 188.485 74.764C188.225 74.5089 188.019 74.2029 187.882 73.8651C187.744 73.5272 187.678 73.1647 187.686 72.8ZM192.256 72.8C192.241 72.4474 192.122 72.1072 191.914 71.8217C191.707 71.5362 191.42 71.318 191.089 71.1943C190.759 71.0705 190.399 71.0467 190.055 71.1257C189.711 71.2048 189.398 71.3832 189.154 71.6388C188.911 71.8944 188.748 72.216 188.686 72.5634C188.624 72.9108 188.665 73.2689 188.805 73.593C188.945 73.917 189.177 74.1929 189.472 74.3861C189.768 74.5794 190.113 74.6816 190.466 74.68C190.711 74.6863 190.954 74.6412 191.18 74.5477C191.406 74.4543 191.61 74.3144 191.779 74.1373C191.947 73.9602 192.077 73.7496 192.159 73.5193C192.241 73.2889 192.275 73.0439 192.256 72.8Z" fill="#C2C2C2"/>
<path d="M203.417 72.4V75.46H202.417V72.51C202.417 71.46 201.907 70.95 201.037 70.95C200.167 70.95 199.437 71.56 199.437 72.72V75.46H198.437V72.51C198.437 71.46 197.927 70.95 197.057 70.95C196.187 70.95 195.457 71.56 195.457 72.72V75.46H194.457V70.13H195.527V70.93C195.741 70.6493 196.021 70.4251 196.342 70.277C196.662 70.1289 197.014 70.0612 197.367 70.08C197.738 70.0585 198.107 70.1406 198.434 70.3172C198.761 70.4938 199.032 70.758 199.217 71.08C199.45 70.757 199.759 70.4966 200.116 70.3221C200.474 70.1476 200.869 70.0644 201.267 70.08C201.571 70.053 201.877 70.0959 202.162 70.2056C202.447 70.3153 202.703 70.4887 202.911 70.7127C203.119 70.9367 203.272 71.2052 203.36 71.4976C203.448 71.7901 203.467 72.0988 203.417 72.4Z" fill="#C2C2C2"/>
<path d="M210.027 73.12H205.707C205.767 73.578 206.001 73.9954 206.36 74.2858C206.719 74.5761 207.177 74.7173 207.637 74.68C207.925 74.6904 208.211 74.6386 208.477 74.5282C208.743 74.4177 208.981 74.2512 209.177 74.04L209.707 74.66C209.314 75.0676 208.81 75.3516 208.258 75.4773C207.706 75.6029 207.129 75.5646 206.598 75.3671C206.067 75.1696 205.606 74.8216 205.27 74.3656C204.934 73.9096 204.738 73.3655 204.707 72.8C204.693 72.4425 204.753 72.086 204.882 71.7524C205.011 71.4188 205.208 71.1153 205.459 70.8604C205.71 70.6056 206.011 70.4049 206.342 70.2706C206.674 70.1364 207.029 70.0715 207.387 70.08C207.745 70.0707 208.101 70.1365 208.433 70.273C208.764 70.4096 209.063 70.6139 209.311 70.8729C209.558 71.1318 209.749 71.4397 209.871 71.7768C209.992 72.1138 210.042 72.4726 210.017 72.83C210.047 72.9 210.037 73.03 210.027 73.12ZM205.707 72.43H209.127C209.081 72.0084 208.882 71.6185 208.566 71.3352C208.25 71.0519 207.841 70.8952 207.417 70.8952C206.993 70.8952 206.584 71.0519 206.268 71.3352C205.953 71.6185 205.753 72.0084 205.707 72.43Z" fill="#C2C2C2"/>
<path d="M211.166 74.9C211.166 74.8143 211.183 74.7294 211.217 74.6504C211.25 74.5714 211.299 74.4999 211.36 74.4402C211.422 74.3805 211.495 74.3338 211.575 74.3029C211.655 74.2719 211.74 74.2573 211.826 74.26C211.996 74.26 212.159 74.3274 212.279 74.4475C212.399 74.5675 212.466 74.7303 212.466 74.9C212.466 75.0697 212.399 75.2325 212.279 75.3526C212.159 75.4726 211.996 75.54 211.826 75.54C211.74 75.5427 211.655 75.5281 211.575 75.4972C211.495 75.4662 211.422 75.4195 211.36 75.3598C211.299 75.3001 211.25 75.2286 211.217 75.1496C211.183 75.0707 211.166 74.9858 211.166 74.9ZM211.256 68.44H212.396L212.206 73.26H211.436L211.256 68.44Z" fill="#C2C2C2"/>
<path d="M301.246 21.79H300.066C299.332 21.79 298.736 22.3855 298.736 23.12V314.03C298.736 314.765 299.332 315.36 300.066 315.36H301.246C301.981 315.36 302.576 314.765 302.576 314.03V23.12C302.576 22.3855 301.981 21.79 301.246 21.79Z" fill="#C2C2C2"/>
<path d="M301.246 21.79H300.066C299.332 21.79 298.736 22.3855 298.736 23.12V171.81C298.736 172.545 299.332 173.14 300.066 173.14H301.246C301.981 173.14 302.576 172.545 302.576 171.81V23.12C302.576 22.3855 301.981 21.79 301.246 21.79Z" fill="#15CDF2"/>
<path d="M126.276 109.42V116.42H125.276V110.3H123.686V109.42H126.276Z" fill="#5F5F5F"/>
<path d="M127.797 115.83C127.799 115.696 127.841 115.565 127.917 115.455C127.993 115.344 128.099 115.259 128.224 115.209C128.348 115.159 128.485 115.147 128.616 115.174C128.747 115.202 128.867 115.267 128.961 115.363C129.056 115.458 129.119 115.579 129.145 115.711C129.17 115.843 129.156 115.979 129.104 116.102C129.053 116.226 128.965 116.332 128.854 116.406C128.742 116.48 128.611 116.52 128.477 116.52C128.387 116.521 128.297 116.504 128.213 116.47C128.129 116.436 128.053 116.385 127.99 116.32C127.926 116.256 127.876 116.179 127.843 116.095C127.81 116.011 127.794 115.92 127.797 115.83Z" fill="#5F5F5F"/>
<path d="M134.777 110.3H132.357V109.42H138.187V110.3H135.767V116.46H134.767L134.777 110.3Z" fill="#5F5F5F"/>
<path d="M143.387 114.12H139.057C139.119 114.577 139.354 114.993 139.713 115.283C140.071 115.573 140.527 115.715 140.987 115.68C141.275 115.689 141.562 115.636 141.828 115.524C142.094 115.411 142.332 115.243 142.527 115.03L143.057 115.66C142.666 116.072 142.162 116.36 141.608 116.489C141.055 116.617 140.475 116.58 139.943 116.381C139.41 116.183 138.947 115.833 138.612 115.374C138.277 114.915 138.084 114.368 138.057 113.8C138.042 113.443 138.1 113.087 138.228 112.753C138.357 112.42 138.552 112.116 138.802 111.861C139.052 111.606 139.352 111.405 139.684 111.271C140.015 111.136 140.37 111.071 140.727 111.08C141.086 111.071 141.442 111.137 141.774 111.273C142.106 111.41 142.405 111.614 142.654 111.872C142.902 112.131 143.094 112.439 143.217 112.776C143.34 113.113 143.391 113.472 143.367 113.83C143.407 113.9 143.397 114.03 143.387 114.12ZM139.057 113.42H142.527C142.481 112.998 142.282 112.608 141.966 112.325C141.65 112.042 141.241 111.885 140.817 111.885C140.393 111.885 139.984 112.042 139.668 112.325C139.353 112.608 139.153 112.998 139.107 113.42H139.057Z" fill="#5F5F5F"/>
<path d="M147.607 111.08V112.02H147.387C147.152 112.005 146.916 112.042 146.697 112.128C146.478 112.215 146.281 112.349 146.12 112.522C145.959 112.694 145.839 112.9 145.768 113.124C145.696 113.349 145.675 113.586 145.707 113.82V116.47H144.707V111.14H145.627V112.04C145.827 111.704 146.121 111.434 146.473 111.263C146.825 111.093 147.219 111.029 147.607 111.08Z" fill="#5F5F5F"/>
<path d="M157.647 113.39V116.46H156.647V113.46C156.647 112.46 156.147 111.91 155.267 111.91C154.387 111.91 153.677 112.52 153.677 113.68V116.42H152.677V113.42C152.677 112.42 152.177 111.87 151.297 111.87C151.07 111.86 150.843 111.901 150.633 111.989C150.422 112.077 150.234 112.21 150.082 112.379C149.929 112.548 149.815 112.749 149.749 112.967C149.682 113.185 149.665 113.415 149.697 113.64V116.38H148.697V111.05H149.617V111.85C149.831 111.569 150.111 111.344 150.431 111.196C150.752 111.048 151.104 110.98 151.457 111C151.828 110.978 152.198 111.061 152.524 111.237C152.851 111.414 153.122 111.678 153.307 112C153.541 111.676 153.851 111.414 154.211 111.24C154.571 111.065 154.968 110.983 155.367 111C155.688 110.947 156.018 110.974 156.326 111.077C156.635 111.18 156.914 111.358 157.138 111.593C157.363 111.829 157.527 112.115 157.615 112.428C157.704 112.742 157.715 113.072 157.647 113.39Z" fill="#5F5F5F"/>
<path d="M129.037 224.82V225.69H124.037V225.01L126.897 222.24C127.647 221.52 127.787 221.08 127.787 220.63C127.787 219.91 127.267 219.47 126.287 219.47C125.949 219.45 125.61 219.508 125.298 219.64C124.986 219.772 124.709 219.974 124.487 220.23L123.797 219.64C124.12 219.281 124.52 218.999 124.966 218.814C125.412 218.629 125.894 218.545 126.377 218.57C127.847 218.57 128.787 219.33 128.787 220.57C128.776 221.002 128.666 221.425 128.467 221.808C128.268 222.191 127.984 222.523 127.637 222.78L125.477 224.86L129.037 224.82Z" fill="#5F5F5F"/>
<path d="M129.946 225.06C129.943 224.969 129.959 224.879 129.992 224.795C130.025 224.711 130.075 224.634 130.138 224.57C130.202 224.505 130.278 224.454 130.361 224.42C130.445 224.386 130.535 224.369 130.626 224.37C130.809 224.37 130.984 224.443 131.114 224.572C131.243 224.701 131.316 224.877 131.316 225.06C131.316 225.243 131.243 225.419 131.114 225.548C130.984 225.677 130.809 225.75 130.626 225.75C130.535 225.75 130.446 225.732 130.363 225.697C130.28 225.662 130.204 225.611 130.141 225.547C130.078 225.483 130.028 225.407 129.994 225.323C129.961 225.24 129.944 225.15 129.946 225.06Z" fill="#5F5F5F"/>
<path d="M135.527 218.65H136.527V224.82H140.337V225.69H135.527V218.65Z" fill="#5F5F5F"/>
<path d="M141.197 218.71C141.197 218.626 141.214 218.542 141.247 218.464C141.28 218.386 141.328 218.316 141.389 218.257C141.449 218.199 141.521 218.153 141.6 218.122C141.679 218.092 141.763 218.077 141.847 218.08C141.971 218.084 142.091 218.124 142.192 218.196C142.293 218.267 142.37 218.367 142.415 218.482C142.459 218.598 142.469 218.724 142.443 218.845C142.416 218.966 142.355 219.076 142.266 219.162C142.177 219.248 142.065 219.306 141.943 219.329C141.821 219.352 141.696 219.338 141.582 219.29C141.468 219.242 141.371 219.161 141.302 219.058C141.234 218.955 141.197 218.834 141.197 218.71ZM141.367 220.36H142.367V225.69H141.367V220.36Z" fill="#5F5F5F"/>
<path d="M143.676 223.03C143.669 222.663 143.737 222.299 143.877 221.959C144.017 221.62 144.225 221.313 144.489 221.058C144.752 220.803 145.066 220.604 145.41 220.476C145.753 220.347 146.12 220.291 146.486 220.31C146.919 220.283 147.351 220.376 147.735 220.576C148.119 220.777 148.441 221.079 148.666 221.45L147.926 221.92C147.773 221.68 147.559 221.483 147.307 221.35C147.054 221.217 146.772 221.151 146.486 221.16C146.013 221.195 145.57 221.407 145.246 221.755C144.923 222.103 144.743 222.56 144.743 223.035C144.743 223.51 144.923 223.967 145.246 224.315C145.57 224.663 146.013 224.875 146.486 224.91C146.772 224.917 147.055 224.849 147.308 224.714C147.56 224.579 147.773 224.382 147.926 224.14L148.666 224.6C148.442 224.972 148.12 225.275 147.736 225.478C147.352 225.68 146.92 225.774 146.486 225.75C146.12 225.769 145.753 225.713 145.41 225.584C145.066 225.456 144.752 225.257 144.489 225.002C144.225 224.747 144.017 224.44 143.877 224.101C143.737 223.761 143.669 223.397 143.676 223.03Z" fill="#5F5F5F"/>
<path d="M154.627 223.35H150.307C150.369 223.807 150.603 224.223 150.962 224.513C151.321 224.803 151.777 224.945 152.237 224.91C152.525 224.919 152.812 224.866 153.078 224.754C153.344 224.641 153.582 224.473 153.777 224.26L154.307 224.89C153.913 225.298 153.41 225.582 152.858 225.707C152.305 225.833 151.728 225.795 151.198 225.597C150.667 225.4 150.205 225.052 149.869 224.596C149.533 224.14 149.338 223.595 149.307 223.03C149.293 222.673 149.352 222.316 149.482 221.982C149.611 221.649 149.807 221.345 150.058 221.09C150.309 220.836 150.61 220.635 150.942 220.501C151.273 220.366 151.629 220.302 151.987 220.31C152.345 220.301 152.701 220.366 153.032 220.503C153.364 220.64 153.663 220.844 153.91 221.103C154.158 221.362 154.349 221.67 154.47 222.007C154.592 222.344 154.642 222.703 154.617 223.06C154.647 223.14 154.637 223.26 154.627 223.35ZM150.307 222.65H153.727C153.681 222.228 153.481 221.838 153.166 221.555C152.85 221.272 152.441 221.115 152.017 221.115C151.593 221.115 151.183 221.272 150.868 221.555C150.552 221.838 150.352 222.228 150.307 222.65Z" fill="#5F5F5F"/>
<path d="M161.046 222.62V225.69H160.046V222.69C160.046 221.69 159.526 221.14 158.616 221.14C158.382 221.122 158.148 221.156 157.929 221.24C157.71 221.323 157.513 221.455 157.351 221.624C157.189 221.794 157.067 221.997 156.994 222.219C156.92 222.442 156.897 222.678 156.926 222.91V225.65H155.926V220.32H156.856V221.12C157.084 220.835 157.378 220.609 157.712 220.461C158.046 220.313 158.411 220.247 158.776 220.27C159.09 220.234 159.407 220.271 159.705 220.378C160.002 220.485 160.27 220.659 160.49 220.886C160.709 221.113 160.873 221.387 160.97 221.688C161.066 221.989 161.092 222.308 161.046 222.62Z" fill="#5F5F5F"/>
<path d="M162.376 223.03C162.367 222.663 162.434 222.297 162.573 221.957C162.713 221.617 162.921 221.31 163.185 221.054C163.449 220.799 163.763 220.601 164.107 220.473C164.452 220.345 164.819 220.289 165.186 220.31C165.619 220.283 166.05 220.376 166.434 220.576C166.819 220.777 167.141 221.079 167.366 221.45L166.626 221.92C166.47 221.679 166.255 221.482 166.001 221.349C165.747 221.216 165.463 221.151 165.176 221.16C164.702 221.195 164.259 221.407 163.936 221.755C163.613 222.103 163.433 222.56 163.433 223.035C163.433 223.51 163.613 223.967 163.936 224.315C164.259 224.663 164.702 224.875 165.176 224.91C165.463 224.917 165.748 224.85 166.002 224.715C166.256 224.581 166.471 224.382 166.626 224.14L167.366 224.6C167.141 224.972 166.82 225.275 166.435 225.478C166.051 225.68 165.619 225.774 165.186 225.75C164.819 225.769 164.453 225.713 164.109 225.584C163.765 225.456 163.452 225.257 163.188 225.002C162.925 224.747 162.716 224.44 162.577 224.101C162.437 223.761 162.368 223.397 162.376 223.03Z" fill="#5F5F5F"/>
<path d="M173.326 223.35H169.006C169.068 223.807 169.303 224.223 169.661 224.513C170.02 224.803 170.476 224.945 170.936 224.91C171.224 224.919 171.511 224.866 171.777 224.754C172.043 224.641 172.281 224.473 172.476 224.26L173.006 224.89C172.613 225.298 172.109 225.582 171.557 225.707C171.005 225.833 170.428 225.795 169.897 225.597C169.366 225.4 168.904 225.052 168.568 224.596C168.233 224.14 168.037 223.595 168.006 223.03C167.992 222.673 168.052 222.316 168.181 221.982C168.31 221.649 168.507 221.345 168.758 221.09C169.009 220.836 169.309 220.635 169.641 220.501C169.973 220.366 170.328 220.302 170.686 220.31C171.044 220.301 171.4 220.366 171.732 220.503C172.063 220.64 172.362 220.844 172.61 221.103C172.857 221.362 173.048 221.67 173.17 222.007C173.291 222.344 173.341 222.703 173.316 223.06C173.346 223.14 173.336 223.26 173.326 223.35ZM169.006 222.65H172.426C172.38 222.228 172.18 221.838 171.865 221.555C171.549 221.272 171.14 221.115 170.716 221.115C170.292 221.115 169.883 221.272 169.567 221.555C169.251 221.838 169.052 222.228 169.006 222.65Z" fill="#5F5F5F"/>
<path d="M277.757 132.29C277.757 132.44 243.247 132.55 200.687 132.55C158.127 132.55 123.607 132.44 123.607 132.29C123.607 132.14 158.117 132.03 200.687 132.03C243.257 132.03 277.757 132.15 277.757 132.29Z" fill="#5F5F5F"/>
<path d="M277.757 143.96C277.757 144.1 243.247 144.22 200.687 144.22C158.127 144.22 123.607 144.1 123.607 143.96C123.607 143.82 158.117 143.7 200.687 143.7C243.257 143.7 277.757 143.81 277.757 143.96Z" fill="#5F5F5F"/>
<path d="M277.757 155.62C277.757 155.77 243.247 155.88 200.687 155.88C158.127 155.88 123.607 155.77 123.607 155.62C123.607 155.47 158.117 155.36 200.687 155.36C243.257 155.36 277.757 155.48 277.757 155.62Z" fill="#5F5F5F"/>
<path d="M277.757 167.29C277.757 167.43 243.247 167.55 200.687 167.55C158.127 167.55 123.607 167.43 123.607 167.29C123.607 167.15 158.117 167.03 200.687 167.03C243.257 167.03 277.757 167.14 277.757 167.29Z" fill="#5F5F5F"/>
<path d="M277.757 178.95C277.757 179.1 243.247 179.21 200.687 179.21C158.127 179.21 123.607 179.1 123.607 178.95C123.607 178.8 158.117 178.69 200.687 178.69C243.257 178.69 277.757 178.81 277.757 178.95Z" fill="#5F5F5F"/>
<path d="M277.757 190.62C277.757 190.76 243.247 190.88 200.687 190.88C158.127 190.88 123.607 190.76 123.607 190.62C123.607 190.48 158.117 190.36 200.687 190.36C243.257 190.36 277.757 190.47 277.757 190.62Z" fill="#5F5F5F"/>
<path d="M277.757 234.9C277.757 235.04 243.247 235.16 200.687 235.16C158.127 235.16 123.607 235.04 123.607 234.9C123.607 234.76 158.117 234.64 200.687 234.64C243.257 234.64 277.757 234.78 277.757 234.9Z" fill="#5F5F5F"/>
<path d="M277.757 244.9C277.757 245.05 243.247 245.16 200.687 245.16C158.127 245.16 123.607 245.05 123.607 244.9C123.607 244.75 158.117 244.64 200.687 244.64C243.257 244.64 277.757 244.76 277.757 244.9Z" fill="#C2C2C2"/>
<path d="M277.757 254.9C277.757 255.04 243.247 255.16 200.687 255.16C158.127 255.16 123.607 255.04 123.607 254.9C123.607 254.76 158.117 254.64 200.687 254.64C243.257 254.64 277.757 254.74 277.757 254.9Z" fill="#B8B8B8"/>
<path d="M289.007 284.73H207.467V315.11H289.007V284.73Z" fill="#15CDF2"/>
<path d="M234.626 301.49H230.626L229.796 303.38H228.686L232.106 295.83H233.166L236.596 303.38H235.466L234.626 301.49ZM234.246 300.63L232.616 296.93L230.996 300.63H234.246Z" fill="#E6E6E6"/>
<path d="M236.977 300.52C236.97 300.128 237.043 299.739 237.192 299.377C237.342 299.014 237.564 298.687 237.845 298.414C238.127 298.141 238.461 297.929 238.828 297.79C239.194 297.652 239.586 297.591 239.977 297.61C240.44 297.582 240.901 297.681 241.311 297.896C241.722 298.111 242.066 298.434 242.307 298.83L241.517 299.33C241.351 299.071 241.122 298.86 240.85 298.716C240.578 298.572 240.274 298.501 239.967 298.51C239.437 298.51 238.928 298.721 238.553 299.096C238.178 299.471 237.967 299.98 237.967 300.51C237.967 301.04 238.178 301.549 238.553 301.924C238.928 302.299 239.437 302.51 239.967 302.51C240.274 302.519 240.578 302.448 240.85 302.304C241.122 302.16 241.351 301.949 241.517 301.69L242.307 302.18C242.067 302.577 241.723 302.901 241.312 303.118C240.902 303.334 240.44 303.435 239.977 303.41C239.587 303.429 239.198 303.368 238.832 303.231C238.467 303.094 238.134 302.884 237.853 302.613C237.572 302.342 237.349 302.017 237.198 301.657C237.048 301.297 236.973 300.91 236.977 300.52Z" fill="#E6E6E6"/>
<path d="M243.047 300.52C243.04 300.128 243.113 299.739 243.263 299.377C243.412 299.014 243.634 298.687 243.916 298.414C244.197 298.141 244.531 297.929 244.898 297.79C245.265 297.652 245.656 297.591 246.047 297.61C246.51 297.581 246.972 297.68 247.383 297.895C247.793 298.11 248.137 298.433 248.377 298.83L247.587 299.33C247.422 299.071 247.192 298.86 246.92 298.716C246.649 298.572 246.345 298.501 246.037 298.51C245.507 298.51 244.998 298.721 244.623 299.096C244.248 299.471 244.037 299.98 244.037 300.51C244.037 301.04 244.248 301.549 244.623 301.924C244.998 302.299 245.507 302.51 246.037 302.51C246.345 302.519 246.649 302.448 246.92 302.304C247.192 302.16 247.422 301.949 247.587 301.69L248.377 302.18C248.138 302.578 247.794 302.902 247.384 303.119C246.973 303.336 246.511 303.437 246.047 303.41C245.658 303.429 245.268 303.368 244.903 303.231C244.537 303.094 244.204 302.884 243.923 302.613C243.642 302.342 243.419 302.017 243.269 301.657C243.118 301.297 243.043 300.91 243.047 300.52Z" fill="#E6E6E6"/>
<path d="M254.797 300.9H250.157C250.225 301.39 250.477 301.835 250.861 302.146C251.246 302.456 251.735 302.608 252.227 302.57C252.536 302.581 252.843 302.525 253.128 302.406C253.413 302.287 253.668 302.107 253.877 301.88L254.447 302.55C254.161 302.859 253.81 303.101 253.419 303.26C253.029 303.419 252.608 303.491 252.187 303.47C251.789 303.499 251.39 303.445 251.014 303.311C250.638 303.177 250.295 302.965 250.006 302.69C249.716 302.415 249.488 302.083 249.335 301.714C249.182 301.345 249.108 300.949 249.117 300.55C249.102 300.167 249.166 299.785 249.304 299.428C249.442 299.071 249.653 298.746 249.922 298.473C250.191 298.2 250.513 297.985 250.868 297.842C251.223 297.699 251.604 297.63 251.987 297.64C252.372 297.628 252.754 297.697 253.111 297.841C253.467 297.986 253.789 298.204 254.055 298.481C254.322 298.759 254.528 299.088 254.659 299.45C254.79 299.811 254.844 300.196 254.817 300.58C254.817 300.64 254.807 300.77 254.797 300.9ZM250.157 300.15H253.817C253.77 299.698 253.557 299.279 253.219 298.974C252.881 298.67 252.442 298.502 251.987 298.502C251.533 298.502 251.094 298.67 250.756 298.974C250.418 299.279 250.205 299.698 250.157 300.15Z" fill="#E6E6E6"/>
<path d="M262.167 300.52C262.189 300.906 262.129 301.293 261.992 301.655C261.854 302.017 261.643 302.346 261.37 302.621C261.098 302.896 260.771 303.111 260.411 303.252C260.05 303.393 259.664 303.457 259.277 303.44C258.895 303.453 258.516 303.376 258.169 303.216C257.822 303.056 257.516 302.818 257.277 302.52V305.47H256.277V297.66H257.277V298.57C257.506 298.255 257.807 297.999 258.155 297.825C258.503 297.651 258.888 297.564 259.277 297.57C259.667 297.552 260.055 297.617 260.418 297.76C260.781 297.903 261.109 298.12 261.382 298.399C261.655 298.677 261.866 299.01 262.001 299.376C262.136 299.741 262.193 300.131 262.167 300.52ZM261.117 300.52C261.104 300.142 260.979 299.776 260.759 299.467C260.538 299.159 260.232 298.923 259.879 298.788C259.525 298.652 259.139 298.624 258.77 298.706C258.4 298.788 258.063 298.977 257.8 299.25C257.537 299.522 257.36 299.866 257.291 300.238C257.222 300.611 257.264 300.995 257.412 301.344C257.56 301.692 257.807 301.99 258.123 302.199C258.438 302.408 258.809 302.52 259.187 302.52C259.448 302.526 259.708 302.478 259.949 302.378C260.191 302.279 260.409 302.131 260.591 301.943C260.772 301.755 260.912 301.532 261.003 301.287C261.094 301.042 261.133 300.781 261.117 300.52Z" fill="#E6E6E6"/>
<path d="M266.816 303.04C266.454 303.312 266.009 303.453 265.556 303.44C265.313 303.468 265.067 303.442 264.836 303.362C264.605 303.282 264.395 303.152 264.221 302.98C264.047 302.808 263.914 302.599 263.832 302.369C263.75 302.139 263.72 301.893 263.746 301.65V298.51H262.746V297.66H263.746V296.41H264.746V297.66H266.386V298.51H264.746V301.61C264.721 301.737 264.726 301.868 264.76 301.994C264.794 302.119 264.857 302.234 264.943 302.331C265.029 302.428 265.136 302.503 265.257 302.552C265.377 302.6 265.507 302.62 265.636 302.61C265.929 302.615 266.215 302.519 266.446 302.34L266.816 303.04Z" fill="#E6E6E6"/>
<path d="M119.796 315.35C119.796 315.35 119.726 315.35 119.596 315.22L119.016 314.77L116.586 312.9L116.496 312.83L116.606 312.78C126.446 309.01 158.536 296.97 198.086 282.23L198.226 282.18L198.336 282.27L201.496 284.81L201.596 284.89V315.65H201.336L143.036 315.55L125.946 315.48H121.366H120.186C120.056 315.487 119.926 315.487 119.796 315.48H120.206H121.396H126.006L143.116 315.41L201.336 315.31L201.086 315.56C201.086 308.51 201.086 301.13 201.086 293.56V285.18L201.186 285.38L198.026 282.83H198.276C158.716 297.55 126.576 309.45 116.666 313.03V312.92L119.026 314.87L119.606 315.35H119.796Z" fill="#15CDF2"/>
<path d="M198.167 282.43H116.627V312.81H198.167V282.43Z" fill="#E6E6E6"/>
<path d="M198.177 312.81C198.177 312.81 198.177 312.62 198.177 312.26C198.177 311.9 198.177 311.37 198.177 310.69C198.177 309.3 198.177 307.27 198.177 304.69C198.177 299.46 198.117 291.89 198.077 282.46L198.257 282.64L116.717 282.72L116.977 282.46C116.977 293.06 116.977 303.32 116.977 312.84L116.727 312.59L175.097 312.71L192.097 312.78H196.667H197.857H198.267H197.887H196.727H192.217L175.267 312.85L116.717 312.97H116.467V312.72C116.467 303.2 116.467 292.94 116.467 282.34V282.08H116.737L198.277 282.16H198.457V282.34C198.457 291.81 198.377 299.42 198.357 304.68C198.357 307.27 198.357 309.28 198.357 310.68C198.357 311.34 198.357 311.85 198.357 312.22C198.357 312.59 198.177 312.81 198.177 312.81Z" fill="#15CDF2"/>
<path d="M138.977 295.47H142.157C142.676 295.432 143.198 295.502 143.689 295.675C144.181 295.848 144.631 296.12 145.013 296.474C145.394 296.829 145.698 297.259 145.906 297.736C146.114 298.214 146.222 298.729 146.222 299.25C146.222 299.771 146.114 300.286 145.906 300.764C145.698 301.241 145.394 301.671 145.013 302.026C144.631 302.38 144.181 302.652 143.689 302.825C143.198 302.998 142.676 303.068 142.157 303.03H138.977V295.47ZM142.097 302.09C142.49 302.123 142.885 302.074 143.258 301.946C143.631 301.819 143.974 301.615 144.264 301.348C144.554 301.081 144.786 300.757 144.945 300.396C145.103 300.034 145.185 299.644 145.185 299.25C145.185 298.856 145.103 298.466 144.945 298.104C144.786 297.743 144.554 297.419 144.264 297.152C143.974 296.885 143.631 296.681 143.258 296.554C142.885 296.426 142.49 296.377 142.097 296.41H140.097V302.09H142.097Z" fill="#15CDF2"/>
<path d="M152.876 300.51H148.236C148.303 301.002 148.556 301.449 148.943 301.759C149.33 302.07 149.821 302.22 150.316 302.18C150.625 302.193 150.932 302.138 151.217 302.018C151.503 301.899 151.758 301.719 151.966 301.49L152.536 302.16C152.112 302.587 151.574 302.883 150.987 303.012C150.399 303.14 149.787 303.096 149.223 302.885C148.66 302.674 148.17 302.304 147.812 301.82C147.454 301.337 147.244 300.76 147.206 300.16C147.189 299.776 147.252 299.393 147.389 299.035C147.527 298.676 147.737 298.35 148.006 298.076C148.275 297.802 148.598 297.587 148.954 297.443C149.31 297.299 149.692 297.23 150.076 297.24C150.461 297.229 150.843 297.299 151.2 297.445C151.556 297.591 151.878 297.81 152.144 298.088C152.411 298.366 152.616 298.697 152.747 299.059C152.878 299.421 152.932 299.806 152.906 300.19C152.906 300.29 152.886 300.41 152.876 300.51ZM148.236 299.77H151.906C151.849 299.324 151.631 298.914 151.293 298.616C150.955 298.319 150.521 298.155 150.071 298.155C149.621 298.155 149.186 298.319 148.849 298.616C148.511 298.914 148.293 299.324 148.236 299.77Z" fill="#15CDF2"/>
<path d="M153.807 300.17C153.799 299.777 153.871 299.387 154.02 299.024C154.168 298.66 154.39 298.331 154.672 298.057C154.953 297.783 155.288 297.57 155.656 297.431C156.023 297.292 156.415 297.231 156.807 297.25C157.27 297.222 157.731 297.321 158.142 297.536C158.552 297.751 158.896 298.074 159.137 298.47L158.347 298.98C158.181 298.722 157.951 298.511 157.68 298.367C157.408 298.224 157.104 298.152 156.797 298.16C156.267 298.16 155.758 298.371 155.383 298.746C155.008 299.121 154.797 299.63 154.797 300.16C154.797 300.69 155.008 301.199 155.383 301.574C155.758 301.949 156.267 302.16 156.797 302.16C157.104 302.168 157.408 302.096 157.68 301.953C157.951 301.809 158.181 301.598 158.347 301.34L159.137 301.84C158.897 302.237 158.553 302.561 158.143 302.778C157.732 302.994 157.271 303.095 156.807 303.07C156.417 303.089 156.026 303.028 155.66 302.89C155.294 302.753 154.96 302.542 154.679 302.27C154.398 301.998 154.176 301.671 154.026 301.31C153.876 300.949 153.801 300.561 153.807 300.17Z" fill="#15CDF2"/>
<path d="M160.416 295.02H161.416V303.02H160.416V295.02Z" fill="#15CDF2"/>
<path d="M163.236 295.54C163.238 295.449 163.257 295.36 163.293 295.277C163.329 295.193 163.38 295.118 163.445 295.055C163.51 294.992 163.587 294.942 163.671 294.909C163.756 294.875 163.846 294.859 163.936 294.86C164.07 294.864 164.199 294.907 164.309 294.984C164.418 295.061 164.502 295.169 164.55 295.293C164.599 295.418 164.609 295.554 164.581 295.684C164.552 295.815 164.486 295.934 164.39 296.027C164.294 296.121 164.173 296.183 164.042 296.208C163.91 296.233 163.775 296.218 163.652 296.166C163.529 296.114 163.424 296.027 163.35 295.916C163.276 295.804 163.236 295.674 163.236 295.54ZM163.426 297.31H164.426V303.03H163.426V297.31Z" fill="#15CDF2"/>
<path d="M171.856 299.74V303.03H170.856V299.9C170.856 298.78 170.286 298.23 169.306 298.23C169.056 298.212 168.805 298.249 168.571 298.34C168.337 298.43 168.126 298.571 167.953 298.753C167.78 298.935 167.649 299.152 167.57 299.39C167.491 299.628 167.466 299.881 167.496 300.13V303.08H166.496V297.36H167.496V298.22C167.741 297.913 168.055 297.669 168.414 297.509C168.772 297.349 169.164 297.277 169.556 297.3C169.874 297.287 170.191 297.342 170.485 297.462C170.779 297.582 171.045 297.764 171.263 297.995C171.481 298.227 171.647 298.502 171.749 298.803C171.851 299.104 171.888 299.424 171.856 299.74Z" fill="#15CDF2"/>
<path d="M178.956 300.51H174.316C174.383 301 174.635 301.445 175.02 301.756C175.405 302.066 175.893 302.218 176.386 302.18C176.695 302.193 177.003 302.138 177.288 302.018C177.573 301.899 177.828 301.719 178.036 301.49L178.606 302.16C178.183 302.587 177.645 302.883 177.057 303.012C176.469 303.14 175.857 303.096 175.294 302.885C174.731 302.674 174.24 302.304 173.882 301.82C173.524 301.337 173.314 300.76 173.276 300.16C173.259 299.776 173.322 299.393 173.46 299.035C173.597 298.676 173.807 298.35 174.077 298.076C174.346 297.802 174.668 297.587 175.024 297.443C175.38 297.299 175.762 297.23 176.146 297.24C176.531 297.229 176.914 297.299 177.27 297.445C177.626 297.591 177.948 297.81 178.214 298.088C178.481 298.366 178.686 298.697 178.818 299.059C178.949 299.421 179.003 299.806 178.976 300.19C178.976 300.29 178.966 300.41 178.956 300.51ZM174.316 299.77H177.976C177.929 299.318 177.715 298.899 177.378 298.594C177.04 298.29 176.601 298.122 176.146 298.122C175.691 298.122 175.253 298.29 174.915 298.594C174.577 298.899 174.363 299.318 174.316 299.77Z" fill="#15CDF2"/>
<path d="M201.336 315.35C201.236 315.46 200.446 314.86 199.576 314.02C198.706 313.18 198.076 312.42 198.176 312.31C198.276 312.2 199.066 312.81 199.936 313.65C200.806 314.49 201.436 315.25 201.336 315.35Z" fill="#15CDF2"/>
<path d="M317.826 307.76L329.466 302.16L323.066 283.24L309.006 279.99C307.696 279.69 306.236 279.34 304.616 278.89C302.711 278.359 300.909 277.51 299.286 276.38C297.219 275.066 295.341 273.475 293.706 271.65C292.376 269.84 289.556 270.52 289.556 272.53C289.556 274.54 293.106 279.61 299.416 283.2C305.726 286.79 294.566 288.52 290.526 289.2C286.486 289.88 274.066 292.67 273.326 294.08C272.246 296.14 274.326 297.72 278.326 296.93C282.326 296.14 294.616 294.58 294.936 296.72V296.78C293.95 298.323 293.471 300.136 293.566 301.965C293.661 303.794 294.325 305.547 295.466 306.98C297.726 309.81 301.116 313.36 303.606 312.82C308.286 311.83 317.826 307.76 317.826 307.76Z" fill="#FFBE9D"/>
<path d="M317.117 274.47L328.027 311.36L412.737 285.62C417.061 284.299 421.078 282.129 424.554 279.236C428.029 276.344 430.892 272.787 432.976 268.775C435.06 264.762 436.323 260.375 436.691 255.868C437.058 251.362 436.523 246.827 435.117 242.53L414.347 177.9L369.237 189.1L393.997 248.9L317.117 274.47Z" fill="#15CDF2"/>
<path d="M414.646 284.97L414.236 285.12L413.016 285.51L408.276 286.98L390.526 292.42L328.866 311.13L328.636 311.19L328.556 310.97C324.786 299.69 321.126 287.29 316.896 274.55L316.816 274.31L317.066 274.22L319.196 273.52L393.956 248.69L393.836 248.96C387.836 234.46 382.976 222.58 379.576 214.3C377.896 210.18 376.576 206.96 375.676 204.75C375.246 203.66 374.906 202.82 374.676 202.24C374.446 201.66 374.356 201.38 374.356 201.38C374.356 201.38 374.496 201.66 374.736 202.22L375.796 204.7C376.716 206.9 378.066 210.11 379.796 214.21C383.236 222.47 388.176 234.33 394.216 248.81L394.296 249.01L394.086 249.08L319.326 274.01L317.196 274.72L317.356 274.39C321.596 287.14 325.236 299.54 328.996 310.81L328.696 310.65L390.406 292.13L408.226 286.82L412.986 285.43L414.226 285.08L414.646 284.97Z" fill="#5F5F5F"/>
<path d="M409.656 259.65C409.576 259.65 409.016 258.72 407.886 257.31C404.92 253.625 400.885 250.95 396.336 249.65C394.596 249.15 393.476 249.01 393.486 248.92C393.751 248.872 394.022 248.872 394.286 248.92C395.008 248.987 395.723 249.108 396.426 249.28C398.762 249.846 400.982 250.814 402.986 252.14C404.992 253.466 406.749 255.135 408.176 257.07C408.609 257.653 408.997 258.268 409.336 258.91C409.487 259.135 409.596 259.386 409.656 259.65Z" fill="#5F5F5F"/>
<path d="M389.126 192.24C388.863 190.429 388.776 188.597 388.866 186.77C388.776 184.943 388.863 183.111 389.126 181.3C389.473 184.938 389.473 188.602 389.126 192.24Z" fill="#D6D6D6"/>
<path d="M406.137 193.11C405.359 191.426 404.743 189.671 404.297 187.87C403.682 186.12 403.233 184.315 402.957 182.48C404.348 185.916 405.413 189.475 406.137 193.11Z" fill="#D6D6D6"/>
<path d="M395.587 208.46C392.085 208.433 388.66 207.429 385.697 205.56C385.767 205.42 387.857 206.41 390.587 207.2C393.317 207.99 395.597 208.31 395.587 208.46Z" fill="#D6D6D6"/>
<path d="M414.826 216.9C414.866 215.143 415.08 213.394 415.466 211.68C415.68 209.933 416.065 208.211 416.616 206.54C416.571 208.3 416.357 210.051 415.976 211.77C415.765 213.514 415.379 215.233 414.826 216.9Z" fill="#D6D6D6"/>
<path d="M407.947 230.68C406.133 227.561 404.629 224.272 403.457 220.86C405.265 223.982 406.768 227.27 407.947 230.68Z" fill="#D6D6D6"/>
<path d="M405.127 242.74C403.48 242.236 401.889 241.566 400.377 240.74C398.792 240.071 397.281 239.24 395.867 238.26C397.507 238.775 399.094 239.445 400.607 240.26C402.194 240.931 403.709 241.762 405.127 242.74Z" fill="#D6D6D6"/>
<path d="M426.767 239.53C426.228 241.099 425.59 242.632 424.857 244.12C424.286 245.674 423.618 247.19 422.857 248.66C423.57 245.396 424.896 242.298 426.767 239.53Z" fill="#D6D6D6"/>
<path d="M420.747 268.58C420.024 264.88 419.653 261.12 419.637 257.35C420.072 259.186 420.343 261.056 420.447 262.94C420.718 264.807 420.819 266.695 420.747 268.58Z" fill="#D6D6D6"/>
<path d="M405.466 277.75C404.023 276.79 402.682 275.684 401.466 274.45C400.139 273.347 398.927 272.114 397.846 270.77C399.289 271.73 400.629 272.836 401.846 274.07C403.172 275.173 404.385 276.406 405.466 277.75Z" fill="#D6D6D6"/>
<path d="M379.067 280.38C377.176 283.555 374.986 286.542 372.527 289.3C373.396 287.668 374.421 286.124 375.587 284.69C376.61 283.148 377.775 281.705 379.067 280.38Z" fill="#D6D6D6"/>
<path d="M387.436 268.01C385.919 267.029 384.554 265.83 383.386 264.45C382.094 263.189 381.002 261.739 380.146 260.15C380.266 260.06 381.756 261.94 383.766 264.1C385.776 266.26 387.526 267.9 387.436 268.01Z" fill="#D6D6D6"/>
<path d="M367.526 270.82C366.259 271.33 364.88 271.499 363.526 271.31C362.164 271.293 360.828 270.928 359.646 270.25C359.706 270.1 361.396 270.64 363.556 270.79C365.716 270.94 367.526 270.67 367.526 270.82Z" fill="#D6D6D6"/>
<path d="M354.916 292.7C354.417 291.31 354.082 289.867 353.916 288.4C353.578 286.961 353.414 285.488 353.426 284.01C354.262 286.838 354.762 289.755 354.916 292.7Z" fill="#D6D6D6"/>
<path d="M340.037 300.24C336.587 298.477 333.303 296.405 330.227 294.05C331.992 294.858 333.682 295.822 335.277 296.93C336.957 297.892 338.55 298.999 340.037 300.24Z" fill="#D6D6D6"/>
<path d="M345.347 273.62C345.457 273.72 344.007 275.44 342.397 277.68C340.787 279.92 339.587 281.83 339.457 281.76C340.061 280.175 340.908 278.694 341.967 277.37C342.888 275.949 344.029 274.683 345.347 273.62Z" fill="#D6D6D6"/>
<path d="M333.846 278.67C332.813 278.442 331.823 278.047 330.916 277.5C329.938 277.106 329.032 276.552 328.236 275.86C330.25 276.478 332.146 277.428 333.846 278.67Z" fill="#D6D6D6"/>
<g opacity="0.2">
<path d="M393.287 247.37C397.807 247.83 402.337 248.3 406.847 248.87C408.42 248.985 409.969 249.321 411.447 249.87C412.182 250.156 412.851 250.588 413.415 251.14C413.979 251.692 414.425 252.351 414.727 253.08C415.009 253.819 415.04 254.63 414.814 255.387C414.588 256.145 414.118 256.807 413.477 257.27C412.837 257.598 412.122 257.754 411.403 257.722C410.685 257.691 409.986 257.473 409.377 257.09C408.166 256.32 407.034 255.432 405.997 254.44C403.963 252.758 401.599 251.521 399.057 250.81C397.899 250.59 396.78 250.199 395.737 249.65C395.216 249.36 394.798 248.916 394.54 248.379C394.282 247.842 394.197 247.238 394.297 246.65" fill="#8A8A8A"/>
</g>
</svg>
